<?xml version="1.0" encoding="UTF-8"?>
<svg width="12px" height="12px" viewBox="0 0 12 12" version="1.1" xmlns="http://www.w3.org/2000/svg" xmlns:xlink="http://www.w3.org/1999/xlink">
    <!-- Generator: Sketch 54 (76480) - https://sketchapp.com -->
    <title>Combined Shape</title>
    <desc>Created with Sketch.</desc>
    <g id="talent/widget/shotdetail" stroke="none" stroke-width="1" fill="none" fill-rule="evenodd">
        <path d="M7.06066017,6 L11.5303301,10.4696699 C11.8232233,10.7625631 11.8232233,11.2374369 11.5303301,11.5303301 C11.2374369,11.8232233 10.7625631,11.8232233 10.4696699,11.5303301 L6,7.06066017 L1.53033009,11.5303301 C1.23743687,11.8232233 0.762563133,11.8232233 0.469669914,11.5303301 C0.176776695,11.2374369 0.176776695,10.7625631 0.469669914,10.4696699 L4.93933983,6 L0.469669914,1.53033009 C0.176776695,1.23743687 0.176776695,0.762563133 0.469669914,0.469669914 C0.762563133,0.176776695 1.23743687,0.176776695 1.53033009,0.469669914 L6,4.93933983 L10.4696699,0.469669914 C10.7625631,0.176776695 11.2374369,0.176776695 11.5303301,0.469669914 C11.8232233,0.762563133 11.8232233,1.23743687 11.5303301,1.53033009 L7.06066017,6 Z" id="Combined-Shape" fill="#FFFFFF" fill-rule="nonzero"></path>
    </g>
</svg>