<?xml version="1.0" encoding="UTF-8"?>
<svg width="50px" height="50px" viewBox="0 0 50 50" version="1.1" xmlns="http://www.w3.org/2000/svg" xmlns:xlink="http://www.w3.org/1999/xlink">
    <!-- Generator: Sketch 54 (76480) - https://sketchapp.com -->
    <title>download-icon</title>
    <desc>Created with Sketch.</desc>
    <defs>
        <circle id="path-1" cx="15" cy="15" r="15"></circle>
        <filter x="-50.0%" y="-50.0%" width="200.0%" height="200.0%" filterUnits="objectBoundingBox" id="filter-2">
            <feOffset dx="0" dy="0" in="SourceAlpha" result="shadowOffsetOuter1"></feOffset>
            <feGaussianBlur stdDeviation="5" in="shadowOffsetOuter1" result="shadowBlurOuter1"></feGaussianBlur>
            <feColorMatrix values="0 0 0 0 0.505882353   0 0 0 0 0.411764706   0 0 0 0 0.917647059  0 0 0 0.3 0" type="matrix" in="shadowBlurOuter1"></feColorMatrix>
        </filter>
    </defs>
    <g id="talent/widget/shotdetail" stroke="none" stroke-width="1" fill="none" fill-rule="evenodd">
        <g id="download-icon" transform="translate(10.000000, 10.000000)">
            <g id="Oval">
                <use fill="black" fill-opacity="1" filter="url(#filter-2)" xlink:href="#path-1"></use>
                <use fill="#8169EA" fill-rule="evenodd" xlink:href="#path-1"></use>
            </g>
            <path d="M14,17.5857864 L14,9 C14,8.44771525 14.4477153,8 15,8 C15.5522847,8 16,8.44771525 16,9 L16,17.5857864 L18.2928932,15.2928932 C18.6834175,14.9023689 19.3165825,14.9023689 19.7071068,15.2928932 C20.0976311,15.6834175 20.0976311,16.3165825 19.7071068,16.7071068 L15.7071068,20.7071068 C15.3165825,21.0976311 14.6834175,21.0976311 14.2928932,20.7071068 L10.2928932,16.7071068 C9.90236893,16.3165825 9.90236893,15.6834175 10.2928932,15.2928932 C10.6834175,14.9023689 11.3165825,14.9023689 11.7071068,15.2928932 L14,17.5857864 Z" id="Combined-Shape" fill="#FFFFFF" fill-rule="nonzero"></path>
        </g>
    </g>
</svg>