<?xml version="1.0" encoding="UTF-8"?>
<svg width="170px" height="118px" viewBox="0 0 170 118" version="1.1" xmlns="http://www.w3.org/2000/svg" xmlns:xlink="http://www.w3.org/1999/xlink">
    <!-- Generator: Sketch 53.2 (72643) - https://sketchapp.com -->
    <title>editing image empty state</title>
    <desc>Created with Sketch.</desc>
    <defs>
        <linearGradient x1="95.0212648%" y1="44.2162915%" x2="4.75915311%" y2="54.4557953%" id="linearGradient-1">
            <stop stop-color="#F4ECFC" offset="0%"></stop>
            <stop stop-color="#FDEDED" offset="100%"></stop>
        </linearGradient>
    </defs>
    <g id="AdminPanel-shotdetail/widgets/actor-listing" stroke="none" stroke-width="1" fill="none" fill-rule="evenodd">
        <g id="editing-image-empty-state" transform="translate(-8.000000, -13.000000)">
            <path d="M44.7224574,35.2229841 L145.317061,35.3036913 C165.624151,35.3199838 182.08224,51.7780559 182.098552,72.085146 L182.098552,72.085146 C182.114832,92.3501339 165.70001,108.791349 145.435022,108.807628 C145.415384,108.807644 145.395745,108.807644 145.376107,108.807628 L44.7815038,108.726921 C24.4744137,108.710629 8.01632497,92.2525565 8.0000121,71.9454664 L8.0000121,71.9454664 C7.98373305,51.6804785 24.3985548,35.2392632 44.6635427,35.2229841 C44.6831809,35.2229683 44.7028192,35.2229683 44.7224574,35.2229841 Z" id="Rectangle" fill="url(#linearGradient-1)" transform="translate(95.049282, 72.015306) rotate(-26.000000) translate(-95.049282, -72.015306) "></path>
            <g id="image" transform="translate(88.000000, 49.000000)" fill-rule="nonzero">
                <path d="M58.4938402,3.5 L6.54342707,3.5 C4.88629632,3.5 3.5,4.96504685 3.5,6.8015229 L3.5,51.0688581 C3.5,52.9053342 4.88629632,54.370381 6.54342707,54.370381 L58.4938402,54.370381 C60.150971,54.370381 61.5372673,52.9053342 61.5372673,51.0688581 L61.5372673,6.8015229 C61.5372673,4.96493616 60.1510396,3.5 58.4938402,3.5 Z" id="Shape" fill="#FFFFFF"></path>
                <path d="M58.4938402,0.5 C61.8460734,0.5 64.5372673,3.34399679 64.5372673,6.8015229 L64.5372673,51.0688581 C64.5372673,54.5262571 61.8460234,57.370381 58.4938402,57.370381 L6.54342707,57.370381 C3.19124395,57.370381 0.5,54.5262571 0.5,51.0688581 L0.5,6.8015229 C0.5,3.34412388 3.19124395,0.5 6.54342707,0.5 L58.4938402,0.5 Z M58.4938402,3.5 L6.54342707,3.5 C4.88629632,3.5 3.5,4.96504685 3.5,6.8015229 L3.5,51.0688581 C3.5,52.9053342 4.88629632,54.370381 6.54342707,54.370381 L58.4938402,54.370381 C60.150971,54.370381 61.5372673,52.9053342 61.5372673,51.0688581 L61.5372673,6.8015229 C61.5372673,4.96493616 60.1510396,3.5 58.4938402,3.5 Z" id="Shape" fill="#564984"></path>
                <path d="M31.6244534,35.3984805 L46.0657751,23.8131091 L57.2914193,31.5477867 L57.2914193,10.7849453 C57.2914193,9.12809106 55.9482736,7.78494531 54.2914193,7.78494531 L10.8283706,7.78494531 C9.17151639,7.78494531 7.82837064,9.12809106 7.82837064,10.7849453 L7.82837064,36.9898947 L20.8079894,27.4702384 L31.6244534,35.3984805 Z" id="Shape" fill="#C8BDF7"></path>
                <path d="M43.9517268,22.5070421 L33.7385017,32.6915824 C32.5692942,33.8575061 30.6777059,33.859422 29.506139,32.6958691 L22.922017,26.1567857 C21.7521319,24.9949032 19.8638469,24.9949032 18.6939618,26.1567857 L7.82837064,36.948051 L7.82837064,46.7808286 C7.82837064,48.4376828 9.17151639,49.7808286 10.8283706,49.7808286 L54.2914193,49.7808286 C55.9482736,49.7808286 57.2914193,48.4376828 57.2914193,46.7808286 L57.2914193,31.5477867 L48.1840895,22.5027553 C47.0125225,21.3392025 45.1209343,21.3411184 43.9517268,22.5070421 Z" id="Shape" fill="#FFD6D6"></path>
                <ellipse id="Oval" fill="#FFFFFF" cx="32.3325367" cy="18.0453031" rx="4.44611673" ry="4.42061929"></ellipse>
            </g>
            <g id="img" transform="translate(49.049282, 25.617323)" fill-rule="nonzero">
                <path d="M77.116763,3.5 L8.5236864,3.5 C5.77718962,3.5 3.5,5.92208384 3.5,8.93877895 L3.5,79.1550379 C3.5,82.171733 5.77718962,84.5938168 8.5236864,84.5938168 L77.116763,84.5938168 C79.8632598,84.5938168 82.1404494,82.171733 82.1404494,79.1550379 L82.1404494,8.93877895 C82.1404494,5.92192016 79.8633543,3.5 77.116763,3.5 Z" id="Shape" fill="#FFFFFF"></path>
                <path d="M77.116763,0.5 C81.5629727,0.5 85.1404494,4.30500699 85.1404494,8.93877895 L85.1404494,79.1550379 C85.1404494,83.7886299 81.5628969,87.5938168 77.116763,87.5938168 L8.5236864,87.5938168 C4.07755253,87.5938168 0.5,83.7886299 0.5,79.1550379 L0.5,8.93877895 C0.5,4.30518693 4.07755253,0.5 8.5236864,0.5 L77.116763,0.5 Z M77.116763,3.5 L8.5236864,3.5 C5.77718962,3.5 3.5,5.92208384 3.5,8.93877895 L3.5,79.1550379 C3.5,82.171733 5.77718962,84.5938168 8.5236864,84.5938168 L77.116763,84.5938168 C79.8632598,84.5938168 82.1404494,82.171733 82.1404494,79.1550379 L82.1404494,8.93877895 C82.1404494,5.92192016 79.8633543,3.5 77.116763,3.5 Z" id="Shape" fill="#564984"></path>
                <path d="M38.5363146,50.2648273 L59.2719075,33.5225701 L75.3902652,44.700111 L75.3902652,13.3599428 C75.3902652,11.7030885 74.0471194,10.3599428 72.3902652,10.3599428 L13.3686745,10.3599428 C11.7118202,10.3599428 10.3686745,11.7030885 10.3686745,13.3599428 L10.3686745,52.5646126 L23.0054791,38.8075625 L38.5363146,50.2648273 Z" id="Shape" fill="#C8BDF7"></path>
                <path d="M57.1510495,30.7172259 L40.6571727,47.2709536 C39.4877235,48.4446463 37.5882317,48.4480864 36.414539,47.2786372 C36.4134081,47.2775105 36.4122781,47.2763828 36.4111491,47.2752542 L25.5719425,36.4407002 C24.4001181,35.2693788 22.5006232,35.2697866 21.3293019,36.4416109 C21.1954903,36.5754799 21.0746483,36.7217123 20.968392,36.8783521 L10.3686745,52.5041434 L10.3686745,68.0490527 C10.3686745,69.705907 11.7118202,71.0490527 13.3686745,71.0490527 L72.3902652,71.0490527 C74.0471194,71.0490527 75.3902652,69.705907 75.3902652,68.0490527 L75.3902652,44.700111 L61.3970731,30.7129253 C60.2252487,29.5416039 58.3257538,29.5420117 57.1544325,30.713836 C57.1533039,30.7149651 57.1521763,30.716095 57.1510495,30.7172259 Z" id="Shape" fill="#FFD6D6"></path>
                <ellipse id="Oval" fill="#FFFFFF" cx="39.5530172" cy="25.1873958" rx="6.38396321" ry="6.38832736"></ellipse>
            </g>
            <g id="edit-pencil" transform="translate(79.000000, 13.000000)">
                <path d="M4.76832128,51.8359189 C4.87146305,51.3717809 5.10482095,50.9466791 5.44102198,50.6104781 L47.8930383,8.15846175 L65.7538647,26.0192882 L23.3018484,68.4713045 C22.9656474,68.8075055 22.5405456,69.0408634 22.0764076,69.1440052 L3.65817435,73.2369459 C3.30098025,73.3163224 2.93071616,73.3163224 2.57352206,73.2369459 C1.225689,72.9374275 0.375862097,71.6019852 0.675380556,70.2541521 L4.76832128,51.8359189 Z M7.66529731,52.6288434 L3.7743871,70.1379394 L21.2834831,66.2470292 L61.511224,26.0192882 L47.8930383,12.4011024 L7.66529731,52.6288434 Z" id="Shape" fill="#564984" fill-rule="nonzero"></path>
                <path d="M7.01458457,52.9337851 L3.34568615,69.3634957 C3.22532073,69.9025046 3.56469835,70.4370332 4.10370726,70.5573986 C4.24932752,70.5899168 4.40037904,70.5894367 4.54578961,70.5559932 L21.0095341,66.7694425 C21.1920758,66.7274591 21.3591567,66.6350518 21.4917443,66.5027469 L61.7857491,26.2946632 L47.6750975,12.1295427 L7.28411105,52.4439485 C7.14952386,52.5782806 7.05602705,52.7482014 7.01458457,52.9337851 Z" id="Shape" fill="#FFD6D6" fill-rule="nonzero"></path>
                <path d="M7.01458457,52.9337851 L3.34568615,69.3634957 C3.22532073,69.9025046 3.56469835,70.4370332 4.10370726,70.5573986 C4.24932752,70.5899168 4.40037904,70.5894367 4.54578961,70.5559932 L21.0095341,66.7694425 C21.1920758,66.7274591 21.3591567,66.6350518 21.4917443,66.5027469 L24.3560876,63.6445114 L9.67761923,50.0549784 L7.28411105,52.4439485 C7.14952386,52.5782806 7.05602705,52.7482014 7.01458457,52.9337851 Z" id="Path" fill="#FFFFFF" fill-rule="nonzero"></path>
                <path d="M60.9210526,4.54747351e-13 C68.1442283,4.54747351e-13 74,5.85560822 74,13.0789474 C74,16.0233454 73.0264359,18.7403332 71.3842105,20.9263158 L66.1526316,26.1578947 L47.68981,7.73567902 L53.0736842,2.61578947 C55.2596668,0.973564145 57.9763276,4.54747351e-13 60.9210526,4.54747351e-13 Z" id="Path" fill="#C8BDF7"></path>
                <path d="M10.4778229,64.8203705 C9.8772137,65.3909492 8.92777829,65.3666047 8.35719955,64.7659955 C7.78662082,64.1653863 7.81096531,63.2159509 8.41157451,62.6453722 L23.5755715,48.2395751 C24.1761807,47.6689964 25.1256161,47.6933409 25.6961948,48.29395 C26.2667735,48.8945592 26.242429,49.8439947 25.6418198,50.4145734 L10.4778229,64.8203705 Z" id="Line" fill="#564984" fill-rule="nonzero" transform="translate(17.026697, 56.529973) scale(1, -1) translate(-17.026697, -56.529973) "></path>
            </g>
            <path d="M166.1875,25.3701657 C166.843338,25.3701657 167.375,24.8395861 167.375,24.1850829 C167.375,23.5305797 166.843338,23 166.1875,23 C165.531662,23 165,23.5305797 165,24.1850829 C165,24.8395861 165.531662,25.3701657 166.1875,25.3701657 Z M166.1875,28.3701657 C163.876174,28.3701657 162,26.4978102 162,24.1850829 C162,21.8723555 163.876174,20 166.1875,20 C168.498826,20 170.375,21.8723555 170.375,24.1850829 C170.375,26.4978102 168.498826,28.3701657 166.1875,28.3701657 Z" id="Oval" fill="#FFD6D6" fill-rule="nonzero"></path>
            <path d="M12.1875,103.055249 C12.8433381,103.055249 13.375,102.524669 13.375,101.870166 C13.375,101.215663 12.8433381,100.685083 12.1875,100.685083 C11.5316619,100.685083 11,101.215663 11,101.870166 C11,102.524669 11.5316619,103.055249 12.1875,103.055249 Z M12.1875,106.055249 C9.87617443,106.055249 8,104.182893 8,101.870166 C8,99.5574384 9.87617443,97.6850829 12.1875,97.6850829 C14.4988256,97.6850829 16.375,99.5574384 16.375,101.870166 C16.375,104.182893 14.4988256,106.055249 12.1875,106.055249 Z" id="Oval" fill="#C8BDF7" fill-rule="nonzero"></path>
            <path d="M169.5,53.5 L171,53.5 C171.828427,53.5 172.5,54.1715729 172.5,55 C172.5,55.8284271 171.828427,56.5 171,56.5 L169.5,56.5 L169.5,58 C169.5,58.8284271 168.828427,59.5 168,59.5 C167.171573,59.5 166.5,58.8284271 166.5,58 L166.5,56.5 L165,56.5 C164.171573,56.5 163.5,55.8284271 163.5,55 C163.5,54.1715729 164.171573,53.5 165,53.5 L166.5,53.5 L166.5,52 C166.5,51.1715729 167.171573,50.5 168,50.5 C168.828427,50.5 169.5,51.1715729 169.5,52 L169.5,53.5 Z" id="Combined-Shape" fill="#C8BDF7" fill-rule="nonzero"></path>
            <path d="M40.0416667,121.218232 L41.5416667,121.218232 C42.3700938,121.218232 43.0416667,121.889805 43.0416667,122.718232 C43.0416667,123.546659 42.3700938,124.218232 41.5416667,124.218232 L40.0416667,124.218232 L40.0416667,125.718232 C40.0416667,126.546659 39.3700938,127.218232 38.5416667,127.218232 C37.7132395,127.218232 37.0416667,126.546659 37.0416667,125.718232 L37.0416667,124.218232 L35.5416667,124.218232 C34.7132395,124.218232 34.0416667,123.546659 34.0416667,122.718232 C34.0416667,121.889805 34.7132395,121.218232 35.5416667,121.218232 L37.0416667,121.218232 L37.0416667,119.718232 C37.0416667,118.889805 37.7132395,118.218232 38.5416667,118.218232 C39.3700938,118.218232 40.0416667,118.889805 40.0416667,119.718232 L40.0416667,121.218232 Z" id="Combined-Shape" fill="#FFD6D6" fill-rule="nonzero"></path>
        </g>
    </g>
</svg>