<?xml version="1.0" encoding="UTF-8"?>
<svg width="167px" height="118px" viewBox="0 0 167 118" version="1.1" xmlns="http://www.w3.org/2000/svg" xmlns:xlink="http://www.w3.org/1999/xlink">
    <!-- Generator: Sketch 53.2 (72643) - https://sketchapp.com -->
    <title>upload illustration</title>
    <desc>Created with Sketch.</desc>
    <defs>
        <linearGradient x1="95.0212648%" y1="44.2162915%" x2="4.75915311%" y2="54.4557953%" id="linearGradient-1">
            <stop stop-color="#F4ECFC" offset="0%"></stop>
            <stop stop-color="#FDEDED" offset="100%"></stop>
        </linearGradient>
    </defs>
    <g id="Admin-Panel-NewUI-25feb2019" stroke="none" stroke-width="1" fill="none" fill-rule="evenodd">
        <g id="upload-illustration" transform="translate(-10.000000, -13.000000)">
            <path d="M44.6731751,34.998755 L145.267778,35.0794622 C165.574869,35.0957546 182.032957,51.5538268 182.04927,71.8609169 L182.04927,71.8609169 C182.065549,92.1259048 165.650727,108.56712 145.38574,108.583399 C145.366101,108.583415 145.346463,108.583415 145.326825,108.583399 L44.7322215,108.502692 C24.4251314,108.486399 7.96704269,92.0283274 7.95072982,71.7212373 L7.95072982,71.7212373 C7.93445077,51.4562494 24.3492726,35.015034 44.6142604,34.998755 C44.6338987,34.9987392 44.6535369,34.9987392 44.6731751,34.998755 Z" id="Rectangle" fill="url(#linearGradient-1)" transform="translate(95.000000, 71.791077) rotate(-26.000000) translate(-95.000000, -71.791077) "></path>
            <path d="M128.833901,27.6519337 C129.489739,27.6519337 130.021401,27.121354 130.021401,26.4668508 C130.021401,25.8123476 129.489739,25.281768 128.833901,25.281768 C128.178063,25.281768 127.646401,25.8123476 127.646401,26.4668508 C127.646401,27.121354 128.178063,27.6519337 128.833901,27.6519337 Z M128.833901,30.6519337 C126.522576,30.6519337 124.646401,28.7795782 124.646401,26.4668508 C124.646401,24.1541235 126.522576,22.281768 128.833901,22.281768 C131.145227,22.281768 133.021401,24.1541235 133.021401,26.4668508 C133.021401,28.7795782 131.145227,30.6519337 128.833901,30.6519337 Z" id="Oval" fill="#FFD6D6" fill-rule="nonzero"></path>
            <path d="M14.6458333,100.337017 C15.3016715,100.337017 15.8333333,99.8064369 15.8333333,99.1519337 C15.8333333,98.4974305 15.3016715,97.9668508 14.6458333,97.9668508 C13.9899952,97.9668508 13.4583333,98.4974305 13.4583333,99.1519337 C13.4583333,99.8064369 13.9899952,100.337017 14.6458333,100.337017 Z M14.6458333,103.337017 C12.3345078,103.337017 10.4583333,101.464661 10.4583333,99.1519337 C10.4583333,96.8392064 12.3345078,94.9668508 14.6458333,94.9668508 C16.9571589,94.9668508 18.8333333,96.8392064 18.8333333,99.1519337 C18.8333333,101.464661 16.9571589,103.337017 14.6458333,103.337017 Z" id="Oval" fill="#C8BDF7" fill-rule="nonzero"></path>
            <path d="M165.396401,30.7320442 L166.896401,30.7320442 C167.724828,30.7320442 168.396401,31.4036171 168.396401,32.2320442 C168.396401,33.0604713 167.724828,33.7320442 166.896401,33.7320442 L165.396401,33.7320442 L165.396401,35.2320442 C165.396401,36.0604713 164.724828,36.7320442 163.896401,36.7320442 C163.067974,36.7320442 162.396401,36.0604713 162.396401,35.2320442 L162.396401,33.7320442 L160.896401,33.7320442 C160.067974,33.7320442 159.396401,33.0604713 159.396401,32.2320442 C159.396401,31.4036171 160.067974,30.7320442 160.896401,30.7320442 L162.396401,30.7320442 L162.396401,29.2320442 C162.396401,28.4036171 163.067974,27.7320442 163.896401,27.7320442 C164.724828,27.7320442 165.396401,28.4036171 165.396401,29.2320442 L165.396401,30.7320442 Z" id="Combined-Shape" fill="#C8BDF7" fill-rule="nonzero"></path>
            <path d="M48.5,112.5 L50,112.5 C50.8284271,112.5 51.5,113.171573 51.5,114 C51.5,114.828427 50.8284271,115.5 50,115.5 L48.5,115.5 L48.5,117 C48.5,117.828427 47.8284271,118.5 47,118.5 C46.1715729,118.5 45.5,117.828427 45.5,117 L45.5,115.5 L44,115.5 C43.1715729,115.5 42.5,114.828427 42.5,114 C42.5,113.171573 43.1715729,112.5 44,112.5 L45.5,112.5 L45.5,111 C45.5,110.171573 46.1715729,109.5 47,109.5 C47.8284271,109.5 48.5,110.171573 48.5,111 L48.5,112.5 Z" id="Combined-Shape" fill="#FFD6D6" fill-rule="nonzero"></path>
            <path d="M159.132849,69.1482837 C162.977436,73.9502086 164.909218,79.4548078 164.909943,85.6099308 C164.909943,92.908784 162.305502,99.1809104 157.131816,104.343101 C151.957836,109.504862 145.674529,112.103557 138.366025,112.103557 L67.4061628,112.103557 C58.9635847,112.103557 51.7019989,109.092635 45.7047772,103.105469 C39.7057292,97.1181533 36.688068,89.8708607 36.688068,81.4449344 C36.688068,75.5174746 38.2911234,70.0318028 41.4882486,65.0164357 C44.5008716,60.293626 48.4965484,56.6731384 53.4545453,54.173482 C53.407472,53.3517864 53.3838611,52.7255257 53.3838611,52.2860843 C53.3838611,42.6874941 56.8034027,34.4510864 63.6069733,27.6635045 C70.4104468,20.8738793 78.6618521,17.461326 88.2759042,17.461326 C95.3571972,17.461326 101.854994,19.4374953 107.731773,23.3786256 C113.059282,26.9503217 117.083185,31.5951571 119.783026,37.2899539 C122.784306,35.1834392 126.208345,34.1233632 130.015615,34.1233632 C135.021562,34.1233632 139.337521,35.9081214 142.879788,39.4429303 C146.421696,42.9793631 148.210495,47.2879281 148.210495,52.2854004 C148.210495,55.1770568 147.577889,57.8676204 146.315924,60.3381514 C151.432228,61.9366942 155.714481,64.8797283 159.132849,69.1482837 Z M143.689618,62.7264013 L141.599156,62.2288944 L142.786838,60.4380968 C144.405666,57.9972159 145.210495,55.2921229 145.210495,52.2854004 C145.210495,48.084848 143.738734,44.5399106 140.760407,41.566188 C137.78091,38.5929645 134.227073,37.1233632 130.015615,37.1233632 C126.246403,37.1233632 122.988379,38.3379656 120.175785,40.7897951 L118.597363,42.1657566 L117.802419,40.2285555 C115.351975,34.2570687 111.445699,29.4803532 106.06102,25.8703289 C100.678404,22.2605979 94.7622596,20.461326 88.2759042,20.461326 C79.4564015,20.461326 71.9671434,23.5586763 65.7259641,29.7871519 C59.4861859,36.0122663 56.3838611,43.4846163 56.3838611,52.2860843 C56.3838611,52.8071015 56.426062,53.7117446 56.5109705,54.984564 L56.579422,56.0106847 L55.646975,56.4444492 C50.7760356,58.710359 46.9084244,62.0977563 44.0177274,66.6294257 C41.1276584,71.1631104 39.688068,76.0894031 39.688068,81.4449344 C39.688068,89.0727185 42.3878147,95.5564993 47.8241685,100.982221 C53.25967,106.408609 59.759206,109.103557 67.4061628,109.103557 L138.366025,109.103557 C144.880048,109.103557 150.401386,106.820002 155.012931,102.219348 C159.622734,97.6197879 161.909943,92.1116324 161.909943,85.6101076 C161.909298,80.1365641 160.209569,75.2931688 156.791131,71.0234793 C153.368622,66.7497811 149.017994,63.9944954 143.689618,62.7264013 Z" id="Shape" fill="#564984" fill-rule="nonzero"></path>
            <path d="M155.223055,70.6362834 C151.765854,66.319238 147.347788,63.5210808 141.96516,62.2400751 C143.663747,59.6789321 144.510648,56.8282497 144.510648,53.688679 C144.510648,49.3093415 142.957996,45.5709408 139.854432,42.4721748 C136.750216,39.374494 133.003973,37.8250025 128.615703,37.8250025 C124.682855,37.8250025 121.247403,39.1057911 118.308913,41.6673682 C115.867602,35.7181368 111.96455,30.9468141 106.604323,27.3531832 C101.244096,23.758467 95.3344928,21.961326 88.875948,21.961326 C80.1004959,21.961326 72.6073573,25.0605261 66.3978371,31.257407 C60.1878819,37.4527686 56.4080422,43.5552879 56.4080422,52.3135289 C56.4080422,52.8505008 57.0012373,54.3396306 57.083883,55.5785292 C52.199304,57.850784 47.6306643,61.0430664 44.7321922,65.5869248 C41.8348076,70.1320855 39.688068,76.0732625 39.688068,81.4449344 C39.688068,89.087993 43.05691,95.9267283 48.5,101.359173 C53.9433075,106.793354 61.3479667,109.212524 69.0061792,109.212524 L136.566003,109.212524 C143.146994,109.212524 148.76625,106.887744 153.423988,102.241005 C158.081074,97.5942672 160.409943,91.9864492 160.409943,85.4164662 C160.40929,79.8807074 158.680473,74.954631 155.223055,70.6362834 Z" id="Shape" fill="#FFFFFF" fill-rule="nonzero"></path>
            <path d="M134.398134,105.455842 C134.789486,105.477627 135.183713,105.488665 135.580523,105.488665 C147.120989,105.488665 156.476386,96.1523114 156.476386,84.6353352 C156.476386,74.491883 149.219391,66.0399428 139.604101,64.168244 L140.552636,56.2124958 C140.689433,55.5476582 140.772426,54.8632399 140.796874,54.1639671 L140.804489,54.1001019 C140.802631,53.9764252 140.804489,53.8522896 140.804489,53.727721 C140.804489,46.9409315 135.291487,41.4391515 128.490855,41.4391515 C123.928741,41.4391515 119.946089,43.915073 117.818502,47.5939101 C113.658223,34.7936805 100.437723,25.0321997 86.6324156,25.0321997 C73.3154124,25.0321997 62.0099769,33.6272137 57.9822727,45.5617969 C59.2410306,39.9009327 62.0610099,34.8841537 66.4429123,30.512549 C72.5910307,24.3769449 78.517513,20.5414365 87.2061905,20.5414365 C93.600871,20.5414365 101.757594,22.3208068 107.064817,25.8799772 C112.37204,29.4380731 116.236498,35.6961239 118.653668,41.5865273 C121.563101,39.0502799 125.733101,37.015202 129.62706,37.015202 C133.971937,37.015202 137.681136,39.3163259 140.754657,42.3833758 C143.827532,45.4515002 145.36483,49.1529343 145.36483,53.4889674 C145.36483,56.597493 143.757785,59.4199869 142.075995,61.9558045 C147.405398,63.2241431 153.316813,66.7615856 156.739828,71.0359425 C160.163058,75.3115889 161.87478,80.1889546 161.875426,85.6699739 C161.875426,92.1749908 159.569586,97.7273568 154.958551,102.328147 C150.34687,106.928936 143.246142,109.230728 136.730226,109.230728 L65.880123,109.230728 C61.2668068,109.230728 57.2732804,107.793336 53.6392679,105.455842 L134.398134,105.455842 Z" id="Combined-Shape" fill="#F0EDF1"></path>
            <path d="M111.435426,71.5684713 L99.7963728,83.0306044 C99.6002871,83.2258335 99.3493065,83.3240771 99.043775,83.3240771 C98.7384726,83.3240771 98.4874921,83.2258335 98.2911771,83.0306044 L86.7740351,71.536219 C86.5777202,71.3405324 86.4797346,71.0900627 86.4797346,70.7851531 C86.4797346,70.5022024 86.5828773,70.2572224 86.7900795,70.0505564 C86.9977401,69.8437759 87.2426467,69.7405001 87.5261745,69.7405001 L94.8554941,69.7405001 L94.8554941,55.9910705 C94.8554941,55.7081198 94.9592098,55.4631398 95.1662974,55.2560163 C95.3736142,55.0495789 95.6188646,54.9463031 95.9023924,54.9463031 L102.185272,54.9463031 C102.469258,54.9463031 102.775721,55.1096433 102.921826,55.2560163 C103.06793,55.4023893 103.232056,55.7081198 103.232056,55.9910705 L103.232056,69.7405001 L110.71549,69.7406144 C111.020907,69.7406144 111.271888,69.8384005 111.46763,70.0340871 C111.664059,70.2297737 111.761243,70.4802434 111.761243,70.7851531 C111.761243,71.0475172 111.653057,71.3077083 111.435426,71.5684713 Z" id="Path" fill="#C8BDF7" fill-rule="nonzero" transform="translate(99.120489, 69.135190) scale(1, -1) translate(-99.120489, -69.135190) "></path>
        </g>
    </g>
</svg>