<?xml version="1.0" encoding="UTF-8"?>
<svg width="150px" height="150px" viewBox="-50 -50 150 150" version="1.1" xmlns="http://www.w3.org/2000/svg">
  <title>image placeholder</title>

  <g id="Admin-Panel-NewUI-25feb2019" stroke="none" stroke-width="1" fill="none"
     fill-rule="evenodd">
    <g id="image-placeholder" fill-rule="nonzero">
      <path
        d="M42.8736487,0 C45.1697503,0 47,1.99621857 47,4.40994094 L47,42.5900591 C47,45.0036918 45.1697159,47 42.8736487,47 L4.12635125,47 C1.83028413,47 0,45.0036918 0,42.5900591 L0,4.40994094 C0,1.99630824 1.83028413,0 4.12635125,0 L42.8736487,0 Z M42.8736487,2 L4.12635125,2 C2.97548846,2 2,3.0639745 2,4.40994094 L2,42.5900591 C2,43.9360255 2.97548846,45 4.12635125,45 L42.8736487,45 C44.0245115,45 45,43.9360255 45,42.5900591 L45,4.40994094 C45,3.06389531 44.0245587,2 42.8736487,2 Z"
        id="Shape" fill="#564984"/>
      <path
        d="M42.0125977,2 L4.98740231,2 C3.34053579,2 2,3.46213509 2,5.25838801 L2,41.741612 C2,43.5378649 3.34053579,45 4.98740231,45 L42.0125977,45 C43.6594642,45 45,43.5378649 45,41.741612 L45,5.25838801 C45,3.46201189 43.6594642,2 42.0125977,2 Z"
        id="Shape" fill="#FFFFFF"/>
      <path
        d="M22.5847108,25.3211106 L32.5218449,17.3031869 L40.2462578,22.6561491 L40.2462578,9.21052632 C40.2462578,7.55367207 38.9031121,6.21052632 37.2462578,6.21052632 L9.21052632,6.21052632 C7.55367207,6.21052632 6.21052632,7.55367207 6.21052632,9.21052632 L6.21052632,26.4224856 L15.1418565,19.8341877 L22.5847108,25.3211106 Z"
        id="Shape" fill="#C8BDF7"/>
      <path
        d="M30.4036439,17.0647615 L24.7048506,22.7842041 C23.5350004,23.9574971 21.6355076,23.9602882 20.4622145,22.790438 C20.4615679,22.7897934 20.4609217,22.7891484 20.4602757,22.7885032 L17.2619963,19.5899109 C16.090694,18.4199112 14.193019,18.4199112 13.0217167,19.5899109 L6.21052632,26.3935267 L6.21052632,32.2747465 C6.21052632,33.9316007 7.55367207,35.2747465 9.21052632,35.2747465 L37.2462578,35.2747465 C38.9031121,35.2747465 40.2462578,33.9316007 40.2462578,32.2747465 L40.2462578,22.6561491 L34.64628,17.0585292 C33.4740555,15.8876084 31.5745608,15.8886651 30.4036399,17.0608897 C30.4029947,17.0615356 30.4023498,17.0621819 30.4017051,17.0628284 Z"
        id="Shape" fill="#FFD6D6"/>
      <circle id="Oval" fill="#FFFFFF" cx="23.0719459" cy="13.3114437" r="3.0593916"/>
    </g>
  </g>

</svg>
