<?xml version="1.0" encoding="UTF-8"?>
<svg width="167px" height="123px" viewBox="0 0 167 123" version="1.1" xmlns="http://www.w3.org/2000/svg" xmlns:xlink="http://www.w3.org/1999/xlink">
    <!-- Generator: Sketch 53.2 (72643) - https://sketchapp.com -->
    <title>selectwidget-empty-illustration</title>
    <desc>Created with Sketch.</desc>
    <defs>
        <linearGradient x1="95.0212648%" y1="44.2162915%" x2="4.75915311%" y2="54.4557953%" id="linearGradient-1">
            <stop stop-color="#F4ECFC" offset="0%"></stop>
            <stop stop-color="#FDEDED" offset="100%"></stop>
        </linearGradient>
    </defs>
    <g id="AdminPanel-shotdetail/widgets/actor-listing" stroke="none" stroke-width="1" fill="none" fill-rule="evenodd">
        <g id="selectwidget-empty-illustration" transform="translate(-10.000000, -11.000000)">
            <path d="M44.6731751,34.998755 L145.267778,35.0794622 C165.574869,35.0957546 182.032957,51.5538268 182.04927,71.8609169 L182.04927,71.8609169 C182.065549,92.1259048 165.650727,108.56712 145.38574,108.583399 C145.366101,108.583415 145.346463,108.583415 145.326825,108.583399 L44.7322215,108.502692 C24.4251314,108.486399 7.96704269,92.0283274 7.95072982,71.7212373 L7.95072982,71.7212373 C7.93445077,51.4562494 24.3492726,35.015034 44.6142604,34.998755 C44.6338987,34.9987392 44.6535369,34.9987392 44.6731751,34.998755 Z" id="Rectangle" fill="url(#linearGradient-1)" transform="translate(95.000000, 71.791077) rotate(-26.000000) translate(-95.000000, -71.791077) "></path>
            <path d="M157.833901,16.6519337 C158.489739,16.6519337 159.021401,16.121354 159.021401,15.4668508 C159.021401,14.8123476 158.489739,14.281768 157.833901,14.281768 C157.178063,14.281768 156.646401,14.8123476 156.646401,15.4668508 C156.646401,16.121354 157.178063,16.6519337 157.833901,16.6519337 Z M157.833901,19.6519337 C155.522576,19.6519337 153.646401,17.7795782 153.646401,15.4668508 C153.646401,13.1541235 155.522576,11.281768 157.833901,11.281768 C160.145227,11.281768 162.021401,13.1541235 162.021401,15.4668508 C162.021401,17.7795782 160.145227,19.6519337 157.833901,19.6519337 Z" id="Oval" fill="#FFD6D6" fill-rule="nonzero"></path>
            <path d="M14.6458333,100.337017 C15.3016715,100.337017 15.8333333,99.8064369 15.8333333,99.1519337 C15.8333333,98.4974305 15.3016715,97.9668508 14.6458333,97.9668508 C13.9899952,97.9668508 13.4583333,98.4974305 13.4583333,99.1519337 C13.4583333,99.8064369 13.9899952,100.337017 14.6458333,100.337017 Z M14.6458333,103.337017 C12.3345078,103.337017 10.4583333,101.464661 10.4583333,99.1519337 C10.4583333,96.8392064 12.3345078,94.9668508 14.6458333,94.9668508 C16.9571589,94.9668508 18.8333333,96.8392064 18.8333333,99.1519337 C18.8333333,101.464661 16.9571589,103.337017 14.6458333,103.337017 Z" id="Oval" fill="#C8BDF7" fill-rule="nonzero"></path>
            <path d="M169.5,40.5 L171,40.5 C171.828427,40.5 172.5,41.1715729 172.5,42 C172.5,42.8284271 171.828427,43.5 171,43.5 L169.5,43.5 L169.5,45 C169.5,45.8284271 168.828427,46.5 168,46.5 C167.171573,46.5 166.5,45.8284271 166.5,45 L166.5,43.5 L165,43.5 C164.171573,43.5 163.5,42.8284271 163.5,42 C163.5,41.1715729 164.171573,40.5 165,40.5 L166.5,40.5 L166.5,39 C166.5,38.1715729 167.171573,37.5 168,37.5 C168.828427,37.5 169.5,38.1715729 169.5,39 L169.5,40.5 Z" id="Combined-Shape" fill="#C8BDF7" fill-rule="nonzero"></path>
            <path d="M40.5,118.5 L42,118.5 C42.8284271,118.5 43.5,119.171573 43.5,120 C43.5,120.828427 42.8284271,121.5 42,121.5 L40.5,121.5 L40.5,123 C40.5,123.828427 39.8284271,124.5 39,124.5 C38.1715729,124.5 37.5,123.828427 37.5,123 L37.5,121.5 L36,121.5 C35.1715729,121.5 34.5,120.828427 34.5,120 C34.5,119.171573 35.1715729,118.5 36,118.5 L37.5,118.5 L37.5,117 C37.5,116.171573 38.1715729,115.5 39,115.5 C39.8284271,115.5 40.5,116.171573 40.5,117 L40.5,118.5 Z" id="Combined-Shape" fill="#FFD6D6" fill-rule="nonzero"></path>
            <g id="Group-4" transform="translate(43.000000, 16.000000)" fill-rule="nonzero">
                <path d="M11,2 C10.4477153,2 10,1.55228475 10,1 C10,0.44771525 10.4477153,6.82121026e-13 11,6.82121026e-13 L17,6.82121026e-13 C17.5522847,6.82121026e-13 18,0.44771525 18,1 C18,1.55228475 17.5522847,2 17,2 L11,2 Z M23,2 C22.4477153,2 22,1.55228475 22,1 C22,0.44771525 22.4477153,6.82121026e-13 23,6.82121026e-13 L29,6.82121026e-13 C29.5522847,6.82121026e-13 30,0.44771525 30,1 C30,1.55228475 29.5522847,2 29,2 L23,2 Z M35,2 C34.4477153,2 34,1.55228475 34,1 C34,0.44771525 34.4477153,6.82121026e-13 35,6.82121026e-13 L41,6.82121026e-13 C41.5522847,6.82121026e-13 42,0.44771525 42,1 C42,1.55228475 41.5522847,2 41,2 L35,2 Z M47,2 C46.4477153,2 46,1.55228475 46,1 C46,0.44771525 46.4477153,6.82121026e-13 47,6.82121026e-13 L53,6.82121026e-13 C53.5522847,6.82121026e-13 54,0.44771525 54,1 C54,1.55228475 53.5522847,2 53,2 L47,2 Z M59,2 C58.4477153,2 58,1.55228475 58,1 C58,0.44771525 58.4477153,6.82121026e-13 59,6.82121026e-13 L65,6.82121026e-13 C65.5522847,6.82121026e-13 66,0.44771525 66,1 C66,1.55228475 65.5522847,2 65,2 L59,2 Z M71,2 C70.4477153,2 70,1.55228475 70,1 C70,0.44771525 70.4477153,6.82121026e-13 71,6.82121026e-13 L77,6.82121026e-13 C77.5522847,6.82121026e-13 78,0.44771525 78,1 C78,1.55228475 77.5522847,2 77,2 L71,2 Z M83,2 C82.4477153,2 82,1.55228475 82,1 C82,0.44771525 82.4477153,6.82121026e-13 83,6.82121026e-13 L85.9043478,6.82121026e-13 C87.0585444,6.81898982e-13 88.1899128,0.178135461 89.2682719,0.524158632 C89.7941468,0.69290104 90.0836599,1.25599965 89.9149175,1.78187458 C89.7461751,2.30774952 89.1830765,2.59726263 88.6572016,2.42852022 C87.775754,2.14568191 86.8505036,2 85.9043478,2 L83,2 Z M93.0518136,5.52981183 C92.7158003,5.09150424 92.7987262,4.46379318 93.2370338,4.12777992 C93.6753414,3.79176667 94.3030525,3.8746926 94.6390657,4.31300019 C96.0014508,6.09014352 96.7954978,8.24192559 96.8939228,10.5171448 C96.917792,11.0689135 96.489845,11.5355603 95.9380762,11.5594296 C95.3863075,11.5832988 94.9196608,11.1553518 94.8957915,10.6035831 C94.8152534,8.74183969 94.166543,6.98390441 93.0518136,5.52981183 Z M94.9043478,16.4865001 C94.9043478,15.9342153 95.3520631,15.4865001 95.9043478,15.4865001 C96.4566326,15.4865001 96.9043478,15.9342153 96.9043478,16.4865001 L96.9043478,22.4865001 C96.9043478,23.0387848 96.4566326,23.4865001 95.9043478,23.4865001 C95.3520631,23.4865001 94.9043478,23.0387848 94.9043478,22.4865001 L94.9043478,16.4865001 Z M94.9043478,28.4865001 C94.9043478,27.9342153 95.3520631,27.4865001 95.9043478,27.4865001 C96.4566326,27.4865001 96.9043478,27.9342153 96.9043478,28.4865001 L96.9043478,34.4865001 C96.9043478,35.0387848 96.4566326,35.4865001 95.9043478,35.4865001 C95.3520631,35.4865001 94.9043478,35.0387848 94.9043478,34.4865001 L94.9043478,28.4865001 Z M94.9043478,40.4865001 C94.9043478,39.9342153 95.3520631,39.4865001 95.9043478,39.4865001 C96.4566326,39.4865001 96.9043478,39.9342153 96.9043478,40.4865001 L96.9043478,46.4865001 C96.9043478,47.0387848 96.4566326,47.4865001 95.9043478,47.4865001 C95.3520631,47.4865001 94.9043478,47.0387848 94.9043478,46.4865001 L94.9043478,40.4865001 Z M94.9043478,52.4865001 C94.9043478,51.9342153 95.3520631,51.4865001 95.9043478,51.4865001 C96.4566326,51.4865001 96.9043478,51.9342153 96.9043478,52.4865001 L96.9043478,58.4865001 C96.9043478,59.0387848 96.4566326,59.4865001 95.9043478,59.4865001 C95.3520631,59.4865001 94.9043478,59.0387848 94.9043478,58.4865001 L94.9043478,52.4865001 Z M94.9043478,64.4865001 C94.9043478,63.9342153 95.3520631,63.4865001 95.9043478,63.4865001 C96.4566326,63.4865001 96.9043478,63.9342153 96.9043478,64.4865001 L96.9043478,70.4865001 C96.9043478,71.0387848 96.4566326,71.4865001 95.9043478,71.4865001 C95.3520631,71.4865001 94.9043478,71.0387848 94.9043478,70.4865001 L94.9043478,64.4865001 Z M94.9043478,76.4865001 C94.9043478,75.9342153 95.3520631,75.4865001 95.9043478,75.4865001 C96.4566326,75.4865001 96.9043478,75.9342153 96.9043478,76.4865001 L96.9043478,82.4865001 C96.9043478,83.0387848 96.4566326,83.4865001 95.9043478,83.4865001 C95.3520631,83.4865001 94.9043478,83.0387848 94.9043478,82.4865001 L94.9043478,76.4865001 Z M94.9043478,88.4865001 C94.9043478,87.9342153 95.3520631,87.4865001 95.9043478,87.4865001 C96.4566326,87.4865001 96.9043478,87.9342153 96.9043478,88.4865001 L96.9043478,94.2782609 C96.9043478,94.3545975 96.9035687,94.4308508 96.9020123,94.5070129 C96.8907284,95.0591824 96.4339592,95.4976568 95.8817897,95.4863728 C95.3296203,95.4750889 94.8911459,95.0183197 94.9024298,94.4661503 C94.9037079,94.4036069 94.9043478,94.3409751 94.9043478,94.2782609 L94.9043478,88.4865001 Z M93.2131937,99.5312827 C93.5359345,99.0831121 94.1608815,98.9814311 94.6090521,99.3041719 C95.0572227,99.6269126 95.1589037,100.25186 94.836163,100.70003 C93.5230768,102.523434 91.6791674,103.910516 89.5553802,104.657564 C89.034387,104.840824 88.4634764,104.567038 88.2802157,104.046045 C88.096955,103.525051 88.3707414,102.954141 88.8917346,102.77088 C90.6282455,102.160058 92.1379927,101.02435 93.2131937,99.5312827 Z M83.3052607,103.278261 C83.8575455,103.278261 84.3052607,103.725976 84.3052607,104.278261 C84.3052607,104.830546 83.8575455,105.278261 83.3052607,105.278261 L77.3052607,105.278261 C76.752976,105.278261 76.3052607,104.830546 76.3052607,104.278261 C76.3052607,103.725976 76.752976,103.278261 77.3052607,103.278261 L83.3052607,103.278261 Z M71.3052607,103.278261 C71.8575455,103.278261 72.3052607,103.725976 72.3052607,104.278261 C72.3052607,104.830546 71.8575455,105.278261 71.3052607,105.278261 L65.3052607,105.278261 C64.752976,105.278261 64.3052607,104.830546 64.3052607,104.278261 C64.3052607,103.725976 64.752976,103.278261 65.3052607,103.278261 L71.3052607,103.278261 Z M59.3052607,103.278261 C59.8575455,103.278261 60.3052607,103.725976 60.3052607,104.278261 C60.3052607,104.830546 59.8575455,105.278261 59.3052607,105.278261 L53.3052607,105.278261 C52.752976,105.278261 52.3052607,104.830546 52.3052607,104.278261 C52.3052607,103.725976 52.752976,103.278261 53.3052607,103.278261 L59.3052607,103.278261 Z M47.3052607,103.278261 C47.8575455,103.278261 48.3052607,103.725976 48.3052607,104.278261 C48.3052607,104.830546 47.8575455,105.278261 47.3052607,105.278261 L41.3052607,105.278261 C40.752976,105.278261 40.3052607,104.830546 40.3052607,104.278261 C40.3052607,103.725976 40.752976,103.278261 41.3052607,103.278261 L47.3052607,103.278261 Z M35.3052607,103.278261 C35.8575455,103.278261 36.3052607,103.725976 36.3052607,104.278261 C36.3052607,104.830546 35.8575455,105.278261 35.3052607,105.278261 L29.3052607,105.278261 C28.752976,105.278261 28.3052607,104.830546 28.3052607,104.278261 C28.3052607,103.725976 28.752976,103.278261 29.3052607,103.278261 L35.3052607,103.278261 Z M23.3052607,103.278261 C23.8575455,103.278261 24.3052607,103.725976 24.3052607,104.278261 C24.3052607,104.830546 23.8575455,105.278261 23.3052607,105.278261 L17.3052607,105.278261 C16.752976,105.278261 16.3052607,104.830546 16.3052607,104.278261 C16.3052607,103.725976 16.752976,103.278261 17.3052607,103.278261 L23.3052607,103.278261 Z M11.3052607,103.278261 C11.8575455,103.278261 12.3052607,103.725976 12.3052607,104.278261 C12.3052607,104.830546 11.8575455,105.278261 11.3052607,105.278261 L11,105.278261 C8.83818567,105.278261 6.76669777,104.652459 4.99432988,103.495493 C4.53185861,103.193601 4.40168337,102.573962 4.70357535,102.111491 C5.00546733,101.64902 5.62510618,101.518844 6.08757745,101.820736 C7.53724531,102.767051 9.22942062,103.278261 11,103.278261 L11.3052607,103.278261 Z M2.65333113,97.651803 C2.86047976,98.1637677 2.61337748,98.7467243 2.10141274,98.9538729 C1.58944801,99.1610216 1.00649144,98.9139193 0.799342816,98.4019545 C0.273659582,97.1027363 -3.63775676e-12,95.7086797 -3.63797881e-12,94.2782609 L-3.63797881e-12,92.1926737 C-3.63797881e-12,91.6403889 0.44771525,91.1926737 1,91.1926737 C1.55228475,91.1926737 2,91.6403889 2,92.1926737 L2,94.2782609 C2,95.4504727 2.22367987,96.5899263 2.65333113,97.651803 Z M2,86.1926737 C2,86.7449584 1.55228475,87.1926737 1,87.1926737 C0.44771525,87.1926737 -3.63797881e-12,86.7449584 -3.63797881e-12,86.1926737 L-3.63797881e-12,80.1926737 C-3.63797881e-12,79.6403889 0.44771525,79.1926737 1,79.1926737 C1.55228475,79.1926737 2,79.6403889 2,80.1926737 L2,86.1926737 Z M2,74.1926737 C2,74.7449584 1.55228475,75.1926737 1,75.1926737 C0.44771525,75.1926737 -3.63797881e-12,74.7449584 -3.63797881e-12,74.1926737 L-3.63797881e-12,68.1926737 C-3.63797881e-12,67.6403889 0.44771525,67.1926737 1,67.1926737 C1.55228475,67.1926737 2,67.6403889 2,68.1926737 L2,74.1926737 Z M2,62.1926737 C2,62.7449584 1.55228475,63.1926737 1,63.1926737 C0.44771525,63.1926737 -3.63797881e-12,62.7449584 -3.63797881e-12,62.1926737 L-3.63797881e-12,56.1926737 C-3.63797881e-12,55.6403889 0.44771525,55.1926737 1,55.1926737 C1.55228475,55.1926737 2,55.6403889 2,56.1926737 L2,62.1926737 Z M2,50.1926737 C2,50.7449584 1.55228475,51.1926737 1,51.1926737 C0.44771525,51.1926737 -3.63797881e-12,50.7449584 -3.63797881e-12,50.1926737 L-3.63797881e-12,44.1926737 C-3.63797881e-12,43.6403889 0.44771525,43.1926737 1,43.1926737 C1.55228475,43.1926737 2,43.6403889 2,44.1926737 L2,50.1926737 Z M2,38.1926737 C2,38.7449584 1.55228475,39.1926737 1,39.1926737 C0.44771525,39.1926737 -3.63797881e-12,38.7449584 -3.63797881e-12,38.1926737 L-3.63797881e-12,32.1926737 C-3.63797881e-12,31.6403889 0.44771525,31.1926737 1,31.1926737 C1.55228475,31.1926737 2,31.6403889 2,32.1926737 L2,38.1926737 Z M2,26.1926737 C2,26.7449584 1.55228475,27.1926737 1,27.1926737 C0.44771525,27.1926737 -3.63797881e-12,26.7449584 -3.63797881e-12,26.1926737 L-3.63797881e-12,20.1926737 C-3.63797881e-12,19.6403889 0.44771525,19.1926737 1,19.1926737 C1.55228475,19.1926737 2,19.6403889 2,20.1926737 L2,26.1926737 Z M2,14.1926737 C2,14.7449584 1.55228475,15.1926737 1,15.1926737 C0.44771525,15.1926737 -3.63797881e-12,14.7449584 -3.63797881e-12,14.1926737 L-3.63797881e-12,11 C-3.63820085e-12,9.95509904 0.145987904,8.92862265 0.430683357,7.9427922 C0.583914592,7.41219005 1.13827108,7.10627049 1.66887322,7.25950172 C2.19947536,7.41273296 2.50539493,7.96708944 2.35216369,8.49769158 C2.11942409,9.30361168 2,10.1433114 2,11 L2,14.1926737 Z M5.3209811,4.01756201 C4.89274921,4.36632538 4.26287009,4.30190341 3.91410672,3.87367152 C3.56534335,3.44543962 3.62976532,2.8155605 4.05799722,2.46679714 C5.79582096,1.05146757 7.9253512,0.193823602 10.1930652,0.0291910728 C10.7439003,-0.0107987005 11.2228584,0.403323227 11.2628482,0.954158287 C11.302838,1.50499335 10.888716,1.98395151 10.337881,2.02394128 C8.48308241,2.15859679 6.74309027,2.85935873 5.3209811,4.01756201 Z" id="Rectangle" fill="#564984"></path>
                <g id="image" transform="translate(40.869565, 16.678261)">
                    <path d="M62.2823249,3.5 L6.84810991,3.5 C5.02301652,3.5 3.5,5.10953364 3.5,7.12351368 L3.5,62.6291385 C3.5,64.6431185 5.02301652,66.2526521 6.84810991,66.2526521 L62.2823249,66.2526521 C64.1074183,66.2526521 65.6304348,64.6431185 65.6304348,62.6291385 L65.6304348,7.12351368 C65.6304348,5.10941498 64.1074908,3.5 62.2823249,3.5 Z" id="Shape" fill="#FFFFFF"></path>
                    <path d="M62.2823249,0.5 C65.8025246,0.5 68.6304348,3.48847561 68.6304348,7.12351368 L68.6304348,62.6291385 C68.6304348,66.2640415 65.8024706,69.2526521 62.2823249,69.2526521 L6.84810991,69.2526521 C3.32796415,69.2526521 0.5,66.2640415 0.5,62.6291385 L0.5,7.12351368 C0.5,3.48861067 3.32796415,0.5 6.84810991,0.5 L62.2823249,0.5 Z M62.2823249,3.5 L6.84810991,3.5 C5.02301652,3.5 3.5,5.10953364 3.5,7.12351368 L3.5,62.6291385 C3.5,64.6431185 5.02301652,66.2526521 6.84810991,66.2526521 L62.2823249,66.2526521 C64.1074183,66.2526521 65.6304348,64.6431185 65.6304348,62.6291385 L65.6304348,7.12351368 C65.6304348,5.10941498 64.1074908,3.5 62.2823249,3.5 Z" id="Shape" fill="#564984"></path>
                    <path d="M33.6110732,37.6381871 L49.020832,25.2758991 L60.9992694,33.5292653 L60.9992694,11.1728845 C60.9992694,9.51603028 59.6561237,8.17288453 57.9992694,8.17288453 L11.219222,8.17288453 C9.56236772,8.17288453 8.21922197,9.51603028 8.21922197,11.1728845 L8.21922197,39.3363219 L22.0692558,29.1782761 L33.6110732,37.6381871 Z" id="Shape" fill="#C8BDF7"></path>
                    <path d="M46.9067837,23.7408769 L35.7251215,34.8911343 C34.555914,36.057058 32.6643258,36.0589739 31.4927589,34.895421 L24.1832833,27.6359458 C23.0133983,26.4740633 21.1251132,26.4740633 19.9552282,27.6359458 L8.21922197,39.2916721 L8.21922197,49.9850174 C8.21922197,51.6418717 9.56236772,52.9850174 11.219222,52.9850174 L57.9992694,52.9850174 C59.6561237,52.9850174 60.9992694,51.6418717 60.9992694,49.9850174 L60.9992694,33.5292653 L51.1391463,23.7365902 C49.9675794,22.5730373 48.0759912,22.5749532 46.9067837,23.7408769 Z" id="Shape" fill="#FFD6D6"></path>
                    <ellipse id="Oval" fill="#FFFFFF" cx="34.3666408" cy="19.1213034" rx="4.74427393" ry="4.71706662"></ellipse>
                </g>
                <path d="M81.3894956,10.873913 L15.5148523,10.873913 C12.9791086,10.873913 10.873913,13.1115294 10.873913,15.9011291 L10.873913,88.9844712 C10.873913,91.7740709 12.9791086,94.0116873 15.5148523,94.0116873 L81.3894956,94.0116873 C83.9252392,94.0116873 86.0304348,91.7740709 86.0304348,88.9844712 L86.0304348,15.9011291 C86.0304348,13.1113759 83.9253287,10.873913 81.3894956,10.873913 Z" id="Shape" fill="#FFFFFF"></path>
                <path d="M81.3894956,7.87391304 C85.624459,7.87391304 89.0304348,11.4940368 89.0304348,15.9011291 L89.0304348,88.9844712 C89.0304348,93.3913938 85.6243881,97.0116873 81.3894956,97.0116873 L15.5148523,97.0116873 C11.2799597,97.0116873 7.87391304,93.3913938 7.87391304,88.9844712 L7.87391304,15.9011291 C7.87391304,11.4942065 11.2799597,7.87391304 15.5148523,7.87391304 L81.3894956,7.87391304 Z M81.3894956,10.873913 L15.5148523,10.873913 C12.9791086,10.873913 10.873913,13.1115294 10.873913,15.9011291 L10.873913,88.9844712 C10.873913,91.7740709 12.9791086,94.0116873 15.5148523,94.0116873 L81.3894956,94.0116873 C83.9252392,94.0116873 86.0304348,91.7740709 86.0304348,88.9844712 L86.0304348,15.9011291 C86.0304348,13.1113759 83.9253287,10.873913 81.3894956,10.873913 Z" id="Shape" fill="#564984"></path>
                <path d="M45.2586638,55.2858143 L64.7776915,39.5365981 L79.9503789,50.0511605 L79.9503789,20.7478261 C79.9503789,19.0909718 78.6072332,17.7478261 76.9503789,17.7478261 L19.8173913,17.7478261 C18.1605371,17.7478261 16.8173913,19.0909718 16.8173913,20.7478261 L16.8173913,57.4491915 L30.6390283,44.5081194 L45.2586638,55.2858143 Z" id="Shape" fill="#C8BDF7"></path>
                <path d="M62.6594905,37.0197815 L47.3788036,52.3493177 C46.2089534,53.5226108 44.3094606,53.5254018 43.1361675,52.3555517 C43.1355209,52.354907 43.1348747,52.3542621 43.1342287,52.3536169 L33.0256337,42.2523938 C31.8534092,41.0814729 29.9539146,41.0825297 28.7829937,42.2547542 C28.700278,42.337562 28.6224792,42.4251394 28.5499964,42.5170374 L16.8173913,57.3923089 L16.8173913,71.8372557 C16.8173913,73.4941099 18.1605371,74.8372557 19.8173913,74.8372557 L76.9503789,74.8372557 C78.6072332,74.8372557 79.9503789,73.4941099 79.9503789,71.8372557 L79.9503789,50.0511605 L66.9021266,37.0135493 C65.7299021,35.8426284 63.8304074,35.8436852 62.6594865,37.0159097 C62.6588413,37.0165557 62.6581964,37.0172019 62.6575517,37.0178485 Z" id="Shape" fill="#FFD6D6"></path>
                <path d="M80.7998257,98.0040181 L64.3430028,81.5445622 L72.867731,73.019834 C73.1470227,72.7405424 73.2620421,72.3361576 73.1724392,71.954634 C73.0808397,71.5681006 72.798912,71.2597013 72.4231364,71.1348481 L27.620332,56.1997533 C27.2262698,56.064441 26.7741522,56.1722628 26.4669547,56.4783086 C26.1622893,56.7829741 26.0557442,57.2346666 26.1927249,57.6444702 L41.1239045,102.435723 C41.2484338,102.810373 41.5567071,103.092184 41.9334684,103.181503 C42.3276142,103.272115 42.7301019,103.157463 43.00848,102.879085 L51.5332022,94.3543628 L52.5938624,95.4148412 L67.9927496,110.811089 C68.4380305,111.25637 69.1582249,111.25637 69.6035058,110.811089 L80.7996447,99.6149502 C81.245016,99.1695029 81.245016,98.4491325 80.7998257,98.0040181 Z" id="Path" fill="#FFFFFF" transform="translate(53.633791, 83.643658) rotate(22.000000) translate(-53.633791, -83.643658) "></path>
                <path d="M82.9213796,101.736206 L71.7251502,112.932436 C70.1082965,114.54929 67.4886071,114.54929 65.8718443,112.932527 L51.5337082,98.596848 L45.1301245,105.000432 C44.1191863,106.01137 42.6605701,106.426867 41.2518319,106.102972 C39.8543374,105.771798 38.7301051,104.744071 38.2777829,103.383244 L23.3474027,58.5943889 C22.850203,57.1069284 23.2373545,55.4656186 24.3479458,54.355031 C25.461312,53.2458254 27.1102535,52.8525829 28.5821672,53.3580699 L73.3707812,68.288371 C74.7327863,68.7409011 75.7607361,69.8653702 76.0926054,71.2658111 C76.4202824,72.6609918 76.0032047,74.1273514 74.9893755,75.1411807 L68.5857979,81.5447583 L82.9213864,95.8826404 C84.5382334,97.4993165 84.538201,100.119109 82.9213796,101.736206 Z M80.8001498,98.0040445 L64.3433269,81.5445886 L72.8680552,73.0198603 C73.1473468,72.7405687 73.2623662,72.3361839 73.1727634,71.9546604 C73.0811638,71.5681269 72.7992361,71.2597277 72.4234606,71.1348744 L27.6206562,56.1997796 C27.2265939,56.0644673 26.7744764,56.1722891 26.4672788,56.478335 C26.1626134,56.7830004 26.0560683,57.234693 26.193049,57.6444965 L41.1242286,102.43575 C41.2487579,102.8104 41.5570312,103.092211 41.9337925,103.181529 C42.3279383,103.272141 42.7304261,103.157489 43.0088041,102.879111 L51.5335264,94.3543891 L52.5941865,95.4148675 L67.9930737,110.811115 C68.4383546,111.256396 69.158549,111.256396 69.6038299,110.811115 L80.7999688,99.6149766 C81.2453401,99.1695292 81.2453401,98.4491588 80.8001498,98.0040445 Z" id="Path" fill="#564984" transform="translate(53.634020, 83.642838) rotate(22.000000) translate(-53.634020, -83.642838) "></path>
                <circle id="Oval" fill="#FFFFFF" cx="46.215716" cy="31.6958117" r="6.00941364"></circle>
            </g>
        </g>
    </g>
</svg>