<?xml version="1.0" encoding="UTF-8"?>
<svg width="13px" height="13px" viewBox="0 0 13 13" version="1.1" xmlns="http://www.w3.org/2000/svg" xmlns:xlink="http://www.w3.org/1999/xlink">
    <!-- Generator: Sketch 54 (76480) - https://sketchapp.com -->
    <title>Combined Shape</title>
    <desc>Created with Sketch.</desc>
    <g id="talent/widget/shotdetail" stroke="none" stroke-width="1" fill="none" fill-rule="evenodd">
        <path d="M4.05555556,0.25 C4.46976912,0.25 4.80555556,0.585786438 4.80555556,1 C4.80555556,1.41421356 4.46976912,1.75 4.05555556,1.75 L2.22222222,1.75 C1.96142109,1.75 1.75,1.96142109 1.75,2.22222222 L1.75,4.05555556 C1.75,4.46976912 1.41421356,4.80555556 1,4.80555556 C0.585786438,4.80555556 0.25,4.46976912 0.25,4.05555556 L0.25,2.22222222 C0.25,1.13299397 1.13299397,0.25 2.22222222,0.25 L4.05555556,0.25 Z M12.75,4.05555556 C12.75,4.46976912 12.4142136,4.80555556 12,4.80555556 C11.5857864,4.80555556 11.25,4.46976912 11.25,4.05555556 L11.25,2.22222222 C11.25,1.96142109 11.0385789,1.75 10.7777778,1.75 L8.94444444,1.75 C8.53023088,1.75 8.19444444,1.41421356 8.19444444,1 C8.19444444,0.585786438 8.53023088,0.25 8.94444444,0.25 L10.7777778,0.25 C11.867006,0.25 12.75,1.13299397 12.75,2.22222222 L12.75,4.05555556 Z M8.94444444,12.75 C8.53023088,12.75 8.19444444,12.4142136 8.19444444,12 C8.19444444,11.5857864 8.53023088,11.25 8.94444444,11.25 L10.7777778,11.25 C11.0385789,11.25 11.25,11.0385789 11.25,10.7777778 L11.25,8.94444444 C11.25,8.53023088 11.5857864,8.19444444 12,8.19444444 C12.4142136,8.19444444 12.75,8.53023088 12.75,8.94444444 L12.75,10.7777778 C12.75,11.867006 11.867006,12.75 10.7777778,12.75 L8.94444444,12.75 Z M0.25,8.94444444 C0.25,8.53023088 0.585786438,8.19444444 1,8.19444444 C1.41421356,8.19444444 1.75,8.53023088 1.75,8.94444444 L1.75,10.7777778 C1.75,11.0385789 1.96142109,11.25 2.22222222,11.25 L4.05555556,11.25 C4.46976912,11.25 4.80555556,11.5857864 4.80555556,12 C4.80555556,12.4142136 4.46976912,12.75 4.05555556,12.75 L2.22222222,12.75 C1.13299397,12.75 0.25,11.867006 0.25,10.7777778 L0.25,8.94444444 Z M4.5,6.88888889 C4.08578644,6.88888889 3.75,6.55310245 3.75,6.13888889 C3.75,5.72467533 4.08578644,5.38888889 4.5,5.38888889 L8.88888889,5.38888889 C9.30310245,5.38888889 9.63888889,5.72467533 9.63888889,6.13888889 C9.63888889,6.55310245 9.30310245,6.88888889 8.88888889,6.88888889 L4.5,6.88888889 Z" id="Combined-Shape" fill="#FFFFFF" fill-rule="nonzero"></path>
    </g>
</svg>
