<?xml version="1.0" encoding="UTF-8"?>
<svg width="44px" height="44px" viewBox="0 0 44 44" version="1.1" xmlns="http://www.w3.org/2000/svg" xmlns:xlink="http://www.w3.org/1999/xlink">
    <!-- Generator: Sketch 53.2 (72643) - https://sketchapp.com -->
    <title>cancel</title>
    <desc>Created with Sketch.</desc>
    <defs>
        <circle id="path-1" cx="12" cy="12" r="12"></circle>
        <filter x="-62.5%" y="-62.5%" width="225.0%" height="225.0%" filterUnits="objectBoundingBox" id="filter-2">
            <feOffset dx="0" dy="0" in="SourceAlpha" result="shadowOffsetOuter1"></feOffset>
            <feGaussianBlur stdDeviation="5" in="shadowOffsetOuter1" result="shadowBlurOuter1"></feGaussianBlur>
            <feColorMatrix values="0 0 0 0 0.505882353   0 0 0 0 0.411764706   0 0 0 0 0.917647059  0 0 0 0.3 0" type="matrix" in="shadowBlurOuter1"></feColorMatrix>
        </filter>
    </defs>
    <g id="Symbols" stroke="none" stroke-width="1" fill="none" fill-rule="evenodd">
        <g id="cancel" transform="translate(10.000000, 10.000000)">
            <g>
                <g id="Oval">
                    <use fill="black" fill-opacity="1" filter="url(#filter-2)" xlink:href="#path-1"></use>
                    <use fill="#FFFFFF" fill-rule="evenodd" xlink:href="#path-1"></use>
                </g>
                <path d="M12.8106602,11.75 L16.2803301,15.2196699 C16.5732233,15.5125631 16.5732233,15.9874369 16.2803301,16.2803301 C15.9874369,16.5732233 15.5125631,16.5732233 15.2196699,16.2803301 L11.75,12.8106602 L8.28033009,16.2803301 C7.98743687,16.5732233 7.51256313,16.5732233 7.21966991,16.2803301 C6.9267767,15.9874369 6.9267767,15.5125631 7.21966991,15.2196699 L10.6893398,11.75 L7.21966991,8.28033009 C6.9267767,7.98743687 6.9267767,7.51256313 7.21966991,7.21966991 C7.51256313,6.9267767 7.98743687,6.9267767 8.28033009,7.21966991 L11.75,10.6893398 L15.2196699,7.21966991 C15.5125631,6.9267767 15.9874369,6.9267767 16.2803301,7.21966991 C16.5732233,7.51256313 16.5732233,7.98743687 16.2803301,8.28033009 L12.8106602,11.75 Z" id="Combined-Shape" fill="#8169EA" fill-rule="nonzero"></path>
            </g>
        </g>
    </g>
</svg>