<?xml version="1.0" encoding="UTF-8"?>
<svg width="55px" height="41px" viewBox="0 0 55 41" version="1.1" xmlns="http://www.w3.org/2000/svg" xmlns:xlink="http://www.w3.org/1999/xlink">
    <!-- Generator: Sketch 53.2 (72643) - https://sketchapp.com -->
    <title>uploadwidget-smallillustration</title>
    <desc>Created with Sketch.</desc>
    <g id="AdminPanel-shotdetail/widgets/actor-listing" stroke="none" stroke-width="1" fill="none" fill-rule="evenodd">
        <g id="06.2-Edit-Image-widget" transform="translate(-476.000000, -622.000000)">
            <g id="upload-section" transform="translate(96.000000, 125.000000)">
                <g id="Rectangle-+-Rectangle-Mask" transform="translate(79.000000, 115.000000)">
                    <g id="uploadwidget-smallillustration" transform="translate(302.000000, 383.000000)">
                        <path d="M51.4824953,20.9364075 C53.1533279,23.0266609 53.9949976,25.4288634 53.9953128,28.107857 C53.9953128,31.283303 52.860012,34.0217951 50.6126663,36.267766 C48.3650821,38.5136607 45.6256775,39.6484716 42.4505052,39.6484716 L12.5726685,39.6484716 C8.91985095,39.6484716 5.76852992,38.3397092 3.17441467,35.745764 C0.579684614,33.1519294 -0.729687202,30.0022338 -0.729687202,26.3513443 C-0.729687202,23.781774 -0.0347964008,21.4000133 1.34886169,19.2259501 C2.609229,17.2469169 4.2697345,15.712097 6.31775937,14.6327857 C6.30601557,14.3934383 6.30012043,14.2013533 6.30012043,14.0541208 C6.30012043,9.90880541 7.77861964,6.34190222 10.7121919,3.41050102 C13.6458907,0.478048933 17.2139905,-1 21.3599281,-1 C24.4148683,-1 27.2224459,-0.144755863 29.757651,1.5581664 C31.9360965,3.02100798 33.6113776,4.90312951 34.7723295,7.19158565 C36.0106626,6.41746227 37.4047484,6.02691618 38.9345433,6.02691618 C41.1402182,6.02691618 43.0512853,6.81846595 44.6119188,8.37832697 C46.1721177,9.93862779 46.9639662,11.848981 46.9639662,14.0538324 C46.9639662,15.1831563 46.7450627,16.2456341 46.3088563,17.2325151 C48.3571552,17.9532339 50.087374,19.1914925 51.4824953,20.9364075 Z M44.6063667,18.8144729 L43.2144862,18.4826862 L44.0044569,17.2896397 C44.6460221,16.3207215 44.9639662,15.2503623 44.9639662,14.0538324 C44.9639662,12.3795814 44.3829476,10.9778604 43.1978572,9.79269247 C42.0124123,8.60783437 40.6098806,8.02691618 38.9345433,8.02691618 C37.4366176,8.02691618 36.1511016,8.50693428 35.0341514,9.48218735 L33.9810861,10.40166 L33.4510904,9.10802904 C32.4469592,6.65711237 30.8493148,4.70031067 28.6425768,3.21847042 C26.4370267,1.73698069 24.0176819,1 21.3599281,1 C17.7443688,1 14.6848209,2.26738652 12.1259933,4.82512656 C9.56767027,7.38155631 8.30012043,10.4395407 8.30012043,14.0541208 C8.30012043,14.2636404 8.31758298,14.638582 8.35283027,15.1678084 L8.39835605,15.8513629 L7.77738545,16.1406981 C5.79012647,17.0666419 4.21543144,18.4480439 3.03596624,20.3000443 C1.85653604,22.1532158 1.2703128,24.1625149 1.2703128,26.3513443 C1.2703128,29.47082 2.36827064,32.111959 4.58848301,34.3314052 C6.80810953,36.5508862 9.45094512,37.6484716 12.5726685,37.6484716 L42.4505052,37.6484716 C45.0953445,37.6484716 47.3263164,36.7242813 49.198935,34.8530704 C51.0709713,32.9821793 51.9953128,30.7525482 51.9953128,28.1079747 C51.995051,25.8827502 51.307668,23.9208765 49.9203673,22.1853095 C48.5305167,20.4470056 46.7699086,19.3302027 44.6063667,18.8144729 Z" id="Path" fill="#564984" fill-rule="nonzero"></path>
                        <path d="M40.4875896,35.2442735 C40.6584594,35.2534649 40.8307068,35.2581162 41.0041996,35.2581162 C45.8633434,35.2581162 49.8593893,31.6095036 49.8593893,26.7524249 C49.8593893,22.4621008 46.6993758,20.250385 42.6129962,19.7926469 L43.0225742,16.6081334 C43.0930046,16.2962575 43.1353024,15.9737243 43.1466618,15.6433383 L43.1497728,15.6191503 C43.1489908,15.5669918 43.1497728,15.5146398 43.1497728,15.4621053 C43.1497728,12.5998982 40.828509,10.2796209 37.965085,10.2796209 C36.1058144,10.2796209 34.4751255,11.2578797 33.5600667,12.7275559 C32.1434999,7.40208868 27.7001015,3.36028241 21.9404789,3.36028241 C16.0262093,3.36028241 11.054236,7.39301767 9.62654783,12.8576052 C9.8327922,9.88703919 10.5609201,6.94869863 12.6396354,4.87152172 C15.2283168,2.28394044 18.5236778,1.46638334 22.1820683,1.46638334 C24.8745654,1.46638334 26.708975,2.21680094 28.9435953,3.71781741 C31.1782155,5.21838073 32.8053556,7.85760172 33.8231116,10.341774 C35.0481361,9.27215703 36.8039253,8.41389929 38.443487,8.41389929 C40.2729089,8.41389929 41.8346769,9.38435715 43.128791,10.6778306 C44.422633,11.9717572 45.0699167,13.5327708 45.0699167,15.3614152 C45.0699167,16.6723803 44.3932661,17.8627166 43.6851437,18.9321523 C45.9291029,19.4670514 48.7101078,20.477369 50.1513771,22.2800026 C51.5927371,24.08318 52.1323974,24.8772434 52.1326694,27.1887653 C52.1326694,29.9321398 51.3299917,32.866596 49.3885033,34.8068968 C47.4467429,36.7471976 44.3346616,37.5774008 41.5911181,37.5774008 L12.6396354,37.5774008 C10.62391,37.5774008 8.29165657,36.4998392 6.36229765,35.2442735 L40.4875896,35.2442735 Z" id="Combined-Shape" fill="#F0EDF1"></path>
                        <path d="M30.8821202,22.2516816 L25.9356348,27.1308387 C25.8523003,27.213943 25.745636,27.255763 25.615788,27.255763 C25.4860375,27.255763 25.3793732,27.213943 25.2959412,27.1308387 L20.401267,22.2379526 C20.3178351,22.1546534 20.2761922,22.0480345 20.2761922,21.9182417 C20.2761922,21.7977963 20.3200268,21.6935142 20.4080858,21.6055414 C20.4963395,21.5175198 20.6004224,21.4735578 20.720919,21.4735578 L23.8358091,21.4735578 L23.8358091,15.6207531 C23.8358091,15.5003077 23.8798873,15.3960256 23.9678975,15.307858 C24.0560051,15.2199825 24.1602342,15.1760205 24.2807308,15.1760205 L26.950894,15.1760205 C27.0715854,15.1760205 27.201829,15.2455505 27.2639221,15.307858 C27.3260151,15.3701655 27.395767,15.5003077 27.395767,15.6207531 L27.395767,21.4735578 L30.5761543,21.4736065 C30.7059536,21.4736065 30.8126179,21.5152317 30.8958063,21.5985308 C30.979287,21.6818299 31.020589,21.7884489 31.020589,21.9182417 C31.020589,22.0299238 30.9746113,22.140681 30.8821202,22.2516816 Z" id="Path" fill="#C8BDF7" fill-rule="nonzero" transform="translate(25.648391, 21.215892) scale(1, -1) translate(-25.648391, -21.215892) "></path>
                    </g>
                </g>
            </g>
        </g>
    </g>
</svg>