<?xml version="1.0" encoding="UTF-8"?>
<svg width="50px" height="50px" viewBox="0 0 50 50" version="1.1" xmlns="http://www.w3.org/2000/svg" xmlns:xlink="http://www.w3.org/1999/xlink">
    <!-- Generator: Sketch 55.2 (78181) - https://sketchapp.com -->
    <title>zoom-blue-icon</title>
    <desc>Created with Sketch.</desc>
    <defs>
        <path d="M16,31.75 C24.6984848,31.75 31.75,24.6984848 31.75,16 C31.75,7.30151519 24.6984848,0.25 16,0.25 C7.30151519,0.25 0.25,7.30151519 0.25,16 C0.25,24.6984848 7.30151519,31.75 16,31.75 Z" id="path-1"></path>
        <filter x="-47.6%" y="-47.6%" width="195.2%" height="195.2%" filterUnits="objectBoundingBox" id="filter-2">
            <feOffset dx="0" dy="0" in="SourceAlpha" result="shadowOffsetOuter1"></feOffset>
            <feGaussianBlur stdDeviation="5" in="shadowOffsetOuter1" result="shadowBlurOuter1"></feGaussianBlur>
            <feColorMatrix values="0 0 0 0 0.505882353   0 0 0 0 0.411764706   0 0 0 0 0.917647059  0 0 0 0.3 0" type="matrix" in="shadowBlurOuter1"></feColorMatrix>
        </filter>
    </defs>
    <g id="Talent/Widget/Shotdetail" stroke="none" stroke-width="1" fill="none" fill-rule="evenodd">
        <g id="06.2-Edit-Image-widget" transform="translate(-256.000000, -389.000000)">
            <g id="upload-section" transform="translate(96.000000, 106.000000)">
                <g id="row1" transform="translate(80.000000, 143.000000)">
                    <g id="zoom-blue-icon" transform="translate(89.000000, 149.000000)">
                        <g id="Path">
                            <use fill="black" fill-opacity="1" filter="url(#filter-2)" xlink:href="#path-1"></use>
                            <use fill="#8169EA" fill-rule="evenodd" xlink:href="#path-1"></use>
                        </g>
                        <g id="zoom-white-icon" transform="translate(8.000000, 8.000000)" fill="#FFFFFF" fill-rule="nonzero">
                            <path d="M11.2770522,12.4948472 C10.0927785,13.4187086 8.60295277,13.9691358 6.9845679,13.9691358 C3.12709757,13.9691358 1.37667655e-13,10.8420382 1.37667655e-13,6.9845679 C1.37667655e-13,3.12709757 3.12709757,-2.04281037e-14 6.9845679,-2.04281037e-14 C10.8420382,-2.04281037e-14 13.9691358,3.12709757 13.9691358,6.9845679 C13.9691358,8.60295277 13.4187086,10.0927785 12.4948472,11.2770522 L15.2477864,14.0299914 C15.5840712,14.3662762 15.5840712,14.9115016 15.2477864,15.2477864 C14.9115016,15.5840712 14.3662762,15.5840712 14.0299914,15.2477864 L11.2770522,12.4948472 Z M10.7793202,10.6304157 C11.6882069,9.68464391 12.2469136,8.39985238 12.2469136,6.9845679 C12.2469136,4.07825463 9.89088117,1.72222222 6.9845679,1.72222222 C4.07825463,1.72222222 1.72222222,4.07825463 1.72222222,6.9845679 C1.72222222,9.89088117 4.07825463,12.2469136 6.9845679,12.2469136 C8.39985238,12.2469136 9.68464391,11.6882069 10.6304157,10.7793202 C10.651842,10.7519443 10.6751573,10.7255662 10.7003618,10.7003618 C10.7255662,10.6751573 10.7519443,10.651842 10.7793202,10.6304157 Z M6.16703453,7.8766908 L4.71172756,7.8766908 C4.28870448,7.8766908 3.94577652,7.53376284 3.94577652,7.11073976 C3.94577652,6.68771668 4.28870448,6.34478872 4.71172756,6.34478872 L6.16703453,6.34478872 L6.16703453,4.83841835 C6.16703453,4.40129451 6.52139342,4.04693562 6.95851726,4.04693562 C7.39564111,4.04693562 7.75,4.40129451 7.75,4.83841835 L7.75,6.34478872 L9.20530697,6.34478872 C9.62833004,6.34478872 9.971258,6.68771668 9.971258,7.11073976 C9.971258,7.53376284 9.62833004,7.8766908 9.20530697,7.8766908 L7.75,7.8766908 L7.75,9.38306117 C7.75,9.82018501 7.39564111,10.1745439 6.95851726,10.1745439 C6.52139342,10.1745439 6.16703453,9.82018501 6.16703453,9.38306117 L6.16703453,7.8766908 Z" id="Combined-Shape"></path>
                        </g>
                    </g>
                </g>
            </g>
        </g>
    </g>
</svg>