<?xml version="1.0" encoding="iso-8859-1"?>
<!-- Generator: Adobe Illustrator 23.0.3, SVG Export Plug-In . SVG Version: 6.00 Build 0)  -->
<svg version="1.1" id="Layer_1" xmlns="http://www.w3.org/2000/svg" xmlns:xlink="http://www.w3.org/1999/xlink" x="0px" y="0px"
	 viewBox="0 0 24 24" style="enable-background:new 0 0 24 24;" xml:space="preserve">
<path style="display:none;fill:none;stroke:#000000;stroke-width:2;stroke-miterlimit:10;" d="M19.923,17.487H6.17l-3.389,2.412
	c0,0,0-3.042,0-3.818V5.507c0-0.776,0.58-1.406,1.296-1.406h15.846c0.716,0,1.296,0.629,1.296,1.406v10.574
	C21.219,16.857,20.639,17.487,19.923,17.487z"/>
<path style="display:none;" d="M1.176,1.454c0,0,2.394-10.379,8.322-3.774c0,0,7.613,14.172,13.35,0.647
	c-0.064-0.198,0,24.923,0,24.923l-21.671,0.14V1.454z"/>
<line style="display:none;fill:none;stroke:#000000;stroke-width:2;stroke-miterlimit:10;" x1="0.883" y1="7.59" x2="16.575" y2="7.59"/>
<line style="fill:none;stroke:#000000;stroke-width:2;stroke-miterlimit:10;" x1="0.883" y1="10.876" x2="14.126" y2="10.762"/>
<line style="display:none;fill:none;stroke:#000000;stroke-width:2;stroke-miterlimit:10;" x1="0.883" y1="14.162" x2="11.866" y2="14.068"/>
</svg>
