<svg xmlns="http://www.w3.org/2000/svg" viewBox="0 0 126.14 28.54"><defs><style>.cls-1{font-size:21px;font-family:Apple-Chancery, Apple Chancery;}.cls-1,.cls-2{fill:#533b4d;}</style></defs><title>vb</title><g id="Layer_2" data-name="Layer 2"><g id="Layer_1-2" data-name="Layer 1"><text class="cls-1" transform="translate(0 18.78)">V</text><path class="cls-2" d="M17.43,13.94h-2.7v-.81h3.7V19h-1Zm-.4-2.8a.8.8,0,0,1,1.59,0,.8.8,0,0,1-1.59,0Z"/><path class="cls-2" d="M21.57,16.06A2.8,2.8,0,0,1,24.21,13a2.49,2.49,0,0,1,1.75.74h0l0-1.07V10.42h1V19h-.81L26,18.19h0a2.82,2.82,0,0,1-1.91.91C22.58,19.1,21.57,18,21.57,16.06Zm4.37,1.34V14.5a2.17,2.17,0,0,0-1.53-.67,2,2,0,0,0-1.82,2.22c0,1.39.65,2.21,1.72,2.21A2.2,2.2,0,0,0,25.94,17.4Z"/><path class="cls-2" d="M28.87,16a2.92,2.92,0,0,1,3-3,2.5,2.5,0,0,1,2.66,2.73,4.73,4.73,0,0,1,0,.6H29.53v-.77h4.34l-.25.28c0-1.38-.69-2.06-1.75-2.06a2.05,2.05,0,0,0-2,2.26,2.11,2.11,0,0,0,2.28,2.28,3.1,3.1,0,0,0,1.77-.55l.36.65A4,4,0,0,1,32,19.1,3,3,0,0,1,28.87,16Z"/><path class="cls-2" d="M36,16.06a2.89,2.89,0,1,1,5.76,0,2.88,2.88,0,1,1-5.76,0Zm4.74,0c0-1.34-.75-2.24-1.86-2.24S37,14.72,37,16.06s.74,2.22,1.86,2.22S40.71,17.39,40.71,16.06Z"/><text class="cls-1" transform="translate(47.11 18.78)">B</text><path class="cls-2" d="M63.42,17.45c0-1.31,1.22-1.94,4.23-2.18A1.39,1.39,0,0,0,66.1,13.8a4,4,0,0,0-2,.7l-.4-.67a5,5,0,0,1,2.6-.84,2.16,2.16,0,0,1,2.38,2.4V19h-.83l-.09-.79h0a4,4,0,0,1-2.29.93A1.77,1.77,0,0,1,63.42,17.45Zm4.23,0V15.93c-2.49.19-3.25.68-3.25,1.45s.6.92,1.27.92A3.18,3.18,0,0,0,67.65,17.44Z"/><path class="cls-2" d="M70.62,16.06A3,3,0,0,1,73.87,13a3,3,0,0,1,2.12.85l-.49.63a2.44,2.44,0,0,0-1.6-.66,2.14,2.14,0,0,0-2.26,2.25,2.12,2.12,0,0,0,2.24,2.22,2.77,2.77,0,0,0,1.8-.74l.44.65a3.45,3.45,0,0,1-2.31.91A2.93,2.93,0,0,1,70.62,16.06Z"/><path class="cls-2" d="M78.12,10.42h1v5.77h0l3.13-3.06h1.14l-4.32,4.25V19h-1Zm2.24,5.45.6-.65L83.74,19h-1.1Z"/><path class="cls-2" d="M84.92,20a1.63,1.63,0,0,1,1-1.3v-.05a1,1,0,0,1-.6-1,1.41,1.41,0,0,1,.7-1.09v0a1.86,1.86,0,0,1-.72-1.52A2.13,2.13,0,0,1,87.55,13a2.5,2.5,0,0,1,.86.14h2.41v.8H89.31a1.79,1.79,0,0,1,.49,1.18,2,2,0,0,1-2.25,2,2.63,2.63,0,0,1-1-.21.8.8,0,0,0-.45.67c0,.45.44.67,1.21.67h1.31c1.5,0,2.22.38,2.22,1.37s-1.26,2-3.24,2C85.9,21.65,84.92,21.06,84.92,20Zm5-.27c0-.55-.44-.7-1.33-.7H87.4a3.33,3.33,0,0,1-.88-.1c-.56.3-.75.64-.75,1,0,.61.66,1,1.91,1S89.87,20.36,89.87,19.76Zm-1-4.69a1.31,1.31,0,0,0-1.34-1.36,1.37,1.37,0,0,0,0,2.74A1.31,1.31,0,0,0,88.89,15.07Z"/><path class="cls-2" d="M93,13.13h.82l.1,1.38h0A3.09,3.09,0,0,1,96.55,13a2.45,2.45,0,0,1,1.15.24l-.23.85a3,3,0,0,0-1.08-.19A2.74,2.74,0,0,0,94,15.55V19H93Z"/><path class="cls-2" d="M99.18,16.06a2.88,2.88,0,1,1,5.75,0,2.88,2.88,0,1,1-5.75,0Zm4.73,0c0-1.35-.74-2.25-1.86-2.25s-1.85.9-1.85,2.25.74,2.22,1.85,2.22S103.91,17.39,103.91,16.06Z"/><path class="cls-2" d="M106.58,16.75V13.13h1v3.49c0,1.09.38,1.62,1.34,1.62a2.31,2.31,0,0,0,1.81-1.07v-4h1V19h-.83l-.09-1h0a2.86,2.86,0,0,1-2.17,1.16C107.22,19.1,106.58,18.29,106.58,16.75Z"/><path class="cls-2" d="M114,13.13h.82l.08,1h0A3,3,0,0,1,117.11,13c1.38,0,2,.81,2,2.35V19h-1V15.47c0-1.1-.38-1.62-1.33-1.62-.69,0-1.16.35-1.83,1V19h-1Z"/><path class="cls-2" d="M120.78,16.06A2.8,2.8,0,0,1,123.42,13a2.5,2.5,0,0,1,1.75.74h0l0-1.07V10.42h1V19h-.82l-.08-.77h0a2.79,2.79,0,0,1-1.9.91C121.78,19.1,120.78,18,120.78,16.06Zm4.36,1.34V14.5a2.17,2.17,0,0,0-1.52-.67,2,2,0,0,0-1.82,2.22c0,1.39.64,2.21,1.71,2.21A2.16,2.16,0,0,0,125.14,17.4Z"/></g></g></svg>