<?xml version="1.0" encoding="UTF-8"?>
<svg width="177px" height="23px" viewBox="0 0 177 23" version="1.1" xmlns="http://www.w3.org/2000/svg" xmlns:xlink="http://www.w3.org/1999/xlink">
    <!-- Generator: Sketch 54 (76480) - https://sketchapp.com -->
    <title>catalog-logotext</title>
    <desc>Created with Sketch.</desc>
    <g id="login" stroke="none" stroke-width="1" fill="none" fill-rule="evenodd">
        <g id="13.5-AdminLogin" transform="translate(-1084.000000, -259.000000)" fill="#2F2F36">
            <g id="right" transform="translate(836.000000, 0.000000)">
                <g id="Group" transform="translate(248.000000, 259.000000)">
                    <path d="M6.99050426,3.0437737 C5.99003348,3.48880938 5.1496822,4.10183616 4.46899031,4.8829479 C3.08542904,6.46741379 2.39406251,8.5183131 2.39406251,11.0356458 C2.39406251,13.5535417 3.08542904,15.604441 4.46899031,17.1883438 C5.91577117,18.8599961 8.0119562,19.6950715 10.7571773,19.6950715 C12.267914,19.6950715 13.5926727,19.3044687 14.7312696,18.5232631 C15.8694983,17.7419636 16.7152789,16.689626 17.2690715,15.3654994 L19.7905855,15.3654994 C19.0883603,17.4055122 17.9284142,19.0114696 16.3114833,20.1835596 C14.5877142,21.4424606 12.5552088,22.0715357 10.2146115,22.0715357 C7.12863033,22.0715357 4.62864969,20.9972372 2.71328925,18.848828 C0.904307054,16.7870421 3.55271368e-15,14.1828045 3.55271368e-15,11.0356458 C3.55271368e-15,7.889238 0.904307054,5.28471882 2.71328925,3.22274524 C4.62864969,1.07433601 7.12863033,3.75399132e-05 10.2146115,3.75399132e-05 C12.5552088,3.75399132e-05 14.5877142,0.629581885 16.3114833,1.88801363 C17.9284142,3.06010357 19.0883603,4.66624875 19.7905855,6.70597994 L17.2690715,6.70597994 C16.7152789,5.38241645 15.8694983,4.32960958 14.7312696,3.54821629 C13.5926727,2.76710454 12.267914,2.3764079 10.7571773,2.3764079 C9.24616463,2.3764079 7.99069896,2.59911343 6.99050426,3.0437737 Z M35.4223427,0.869515433 L38.4061901,0.869515433 L47.3259774,22.6394566 L44.6913407,22.6394566 L42.6846608,17.7116386 L42.8209225,18.046202 L40.5171939,12.3647869 L36.9144494,3.43472251 L33.143414,12.7810713 L31.1438721,17.7116386 L29.1371922,22.6394566 L26.5025554,22.6394566 L35.4223427,0.869515433 Z M83.6948209,0.869515433 L86.6786683,0.869515433 L95.5984556,22.6394566 L92.9637273,22.6394566 L90.9571389,17.7116386 L91.0934006,18.046202 L88.7896721,12.3647869 L85.1868361,3.43472251 L81.4158922,12.7810713 L79.4163502,17.7116386 L77.4096703,22.6394566 L74.7750336,22.6394566 L83.6948209,0.869515433 Z M53.0050925,3.23724575 L53.0050925,0.869515433 L70.0424377,0.869515433 L70.0424377,3.23724575 L62.7135402,3.23724575 L62.7135402,22.6394566 L60.33399,22.6394566 L60.33399,3.23724575 L53.0050925,3.23724575 Z M108.452535,0.869515433 L108.452535,20.2717263 L120.207954,20.2717263 L120.207954,22.6394566 L106.010167,22.6394566 L106.010167,0.869515433 L108.452535,0.869515433 Z M144.823125,17.1883813 C146.328972,15.5827054 147.082268,13.5318061 147.082268,11.0355895 C147.082268,8.54031149 146.328972,6.48941218 144.823125,4.88289159 C143.25234,3.21217776 141.197778,2.37644544 138.659254,2.37644544 C136.120451,2.37644544 134.06589,3.21217776 132.495756,4.88289159 C130.989351,6.48941218 130.236613,8.54031149 130.236613,11.0355895 C130.236613,13.5318061 130.989351,15.5827054 132.495756,17.1883813 C134.06589,18.8600336 136.120451,19.695109 138.659254,19.695109 C141.197778,19.695109 143.25234,18.8600336 144.823125,17.1883813 Z M138.659254,7.50798265e-05 C141.843248,7.50798265e-05 144.457036,1.07437355 146.501178,3.22268893 C148.501966,5.30624797 149.50236,7.9106733 149.50236,11.0355895 C149.50236,14.1608811 148.501966,16.7654003 146.501178,18.8488655 C144.457036,20.9971809 141.843248,22.0715732 138.659254,22.0715732 C135.475168,22.0715732 132.861193,20.9971809 130.817331,18.8488655 C128.816543,16.7654003 127.816149,14.1608811 127.816149,11.0355895 C127.816149,7.9106733 128.816543,5.30624797 130.817331,3.22268893 C132.861193,1.07437355 135.475168,7.50798265e-05 138.659254,7.50798265e-05 Z M166.772164,10.3520065 L176.982929,10.3520065 L176.982929,21.8111588 L174.717625,21.8111588 L174.717625,18.0023592 C173.469828,19.8691253 171.740633,21.116952 169.530132,21.7460271 C168.719817,21.9626324 167.653089,22.0714981 166.328814,22.0714981 C165.00435,22.0714981 163.686038,21.7843178 162.372459,21.2090186 C161.059258,20.6342826 159.942839,19.8471644 159.023674,18.8488843 C157.140858,16.8090592 156.200018,14.2045401 156.200018,11.0356083 C156.200018,7.91069207 157.173702,5.30617289 159.122207,3.2227077 C160.041466,2.22470911 161.157791,1.43787253 162.471086,0.862573356 C163.784287,0.287837285 165.141311,-5.32907052e-15 166.54216,-5.32907052e-15 C167.942724,-5.32907052e-15 169.157676,0.152036649 170.186732,0.455546847 C171.215125,0.759901694 172.145364,1.17180839 172.977544,1.69276854 C174.706077,2.79972673 175.975738,4.27560842 176.786053,6.12013205 L174.093585,6.12013205 C173.436984,4.94804211 172.522931,4.03150513 171.352086,3.36930106 C170.180958,2.70737854 168.851288,2.37646421 167.363076,2.37646421 C165.874391,2.37646421 164.605108,2.59907589 163.554567,3.04373616 C162.503836,3.48877184 161.617515,4.10179862 160.895132,4.88291036 C159.406446,6.4893371 158.662388,8.54033026 158.662388,11.0356083 C158.662388,13.5535041 159.395467,15.6044034 160.862288,17.1884001 C162.416188,18.8599586 164.473732,19.6951278 167.034728,19.6951278 C169.091988,19.6951278 170.864913,19.0660527 172.353788,17.8071517 C173.929553,16.4834943 174.717625,14.7361991 174.717625,12.565829 L166.772164,12.565829 L166.772164,10.3520065 Z" id="catalog-logotext"></path>
                </g>
            </g>
        </g>
    </g>
</svg>