<?xml version="1.0" encoding="UTF-8"?>
<svg width="371px" height="307px" viewBox="0 0 371 307" version="1.1" xmlns="http://www.w3.org/2000/svg" xmlns:xlink="http://www.w3.org/1999/xlink">
    <!-- Generator: Sketch 54 (76480) - https://sketchapp.com -->
    <title>login-slider2</title>
    <desc>Created with Sketch.</desc>
    <defs>
        <path d="M57,0 L314,0 C345.480231,-5.78282457e-15 371,25.5197693 371,57 L371,199 C371,230.480231 345.480231,256 314,256 L57,256 C25.5197693,256 3.85521638e-15,230.480231 0,199 L7.10542736e-15,57 C3.25021098e-15,25.5197693 25.5197693,5.78282457e-15 57,0 Z" id="path-1"></path>
        <filter x="-4.0%" y="-5.9%" width="108.1%" height="111.7%" filterUnits="objectBoundingBox" id="filter-2">
            <feGaussianBlur stdDeviation="10" in="SourceAlpha" result="shadowBlurInner1"></feGaussianBlur>
            <feOffset dx="0" dy="10" in="shadowBlurInner1" result="shadowOffsetInner1"></feOffset>
            <feComposite in="shadowOffsetInner1" in2="SourceAlpha" operator="arithmetic" k2="-1" k3="1" result="shadowInnerInner1"></feComposite>
            <feColorMatrix values="0 0 0 0 0.159215243   0 0 0 0 0.11879948   0 0 0 0 0.302224864  0 0 0 0.4 0" type="matrix" in="shadowInnerInner1"></feColorMatrix>
        </filter>
        <path d="M7.12634106,228.802161 C-0.451983306,241.168261 -1.98607687,252.567541 2.52406037,263 C3.88507446,275.42487 40.113252,268.30209 61.2114551,262.530089 C64,259.788045 63.2981265,252.672853 62.9503063,246.468719 C62.7184262,242.33263 62.2696218,236.63956 61.6038932,229.389509 C48.6292616,225.504484 39.2095505,223.393026 33.34476,223.055136 C27.9155314,222.742339 20.4055226,223.760466 10.8147335,226.109516 L10.8147349,226.109521 C9.27841239,226.485809 7.95282348,227.453529 7.12634106,228.802161 Z" id="path-3"></path>
        <path d="M41.4793114,153.973341 C23.635274,150.415618 10.3931441,156.610947 1.75292141,172.559325 C-8.28875825,189.808631 -11.3195748,203.548399 -7.33952818,213.778628 C-5.76392495,219.62176 -1.95039513,226.495282 4.10106128,234.399195 C16.5519075,236.394699 25.733512,237.132098 31.645875,236.611393 C38.5762996,236.001028 48.6588765,233.567023 61.8936056,229.309379 C76.892659,223.355564 89.1803345,216.031592 98.7566321,207.337464 C108.118056,198.838415 107.357971,194.546352 96.4763774,194.461275 L96.4763774,194.461277 C95.9848466,194.457434 95.4968173,194.544221 95.036747,194.717289 C79.5973319,200.525252 70.6986748,201.398483 68.3407757,197.33698 C64.7527488,191.156571 68.3407757,185.681857 68.3407757,175.833537 C68.3407757,171.192296 67.1770988,164.383752 62.8807377,160.325926 C58.0605857,155.77339 54.0847023,154.22 52.5582952,153.973341 C50.1680308,153.587086 46.4750362,153.587086 41.4793114,153.973341 Z" id="path-5"></path>
    </defs>
    <g id="login" stroke="none" stroke-width="1" fill="none" fill-rule="evenodd">
        <g id="login-slider2">
            <g id="Rectangle">
                <use fill="#564984" fill-rule="evenodd" xlink:href="#path-1"></use>
                <use fill="black" fill-opacity="1" filter="url(#filter-2)" xlink:href="#path-1"></use>
            </g>
            <ellipse id="Oval" fill="#1C143A" opacity="0.101716" cx="68" cy="294" rx="47" ry="13"></ellipse>
            <g id="Group-4" transform="translate(37.000000, 30.000000)">
                <path d="M81,29 L241,29 C249.284271,29 256,35.7157288 256,44 L256,143.940828 C256,152.2251 249.284271,158.940828 241,158.940828 L81,158.940828 C72.7157288,158.940828 66,152.2251 66,143.940828 L66,44 C66,35.7157288 72.7157288,29 81,29 Z" id="Rectangle" fill="#FFFFFF" opacity="0.3"></path>
                <polygon id="Line-3" fill="#8E86A9" fill-rule="nonzero" points="103.11522 29.5 103.11522 158.880073 104.11522 158.880073 104.11522 29.5"></polygon>
                <polygon id="Line-3" fill="#8E86A9" fill-rule="nonzero" transform="translate(179.000000, 47.230634) rotate(90.000000) translate(-179.000000, -47.230634) " points="178.5 -29 178.5 123.461268 179.5 123.461268 179.5 -29"></polygon>
                <g id="card" transform="translate(112.000000, 47.000000)">
                    <g transform="translate(16.000000, 35.000000)">
                        <rect id="Rectangle" fill="#C0B4F3" fill-rule="nonzero" opacity="0.549316406" x="0" y="0" width="35.5324675" height="18" rx="2"></rect>
                        <g id="img" transform="translate(4.112846, 4.821429)" fill="#FFD6D6" fill-rule="nonzero">
                            <path d="M-5.73763259e-13,6.38779547 L-5.73985304e-13,2 C-5.74120574e-13,0.8954305 0.8954305,4.74934271e-13 2,4.74731365e-13 L7.54298241,4.74731365e-13 C8.64755191,4.74528459e-13 9.54298241,0.8954305 9.54298241,2 L9.54298241,5.19748103 L9.54298241,7.18546747 C9.54298241,8.29003697 8.64755191,9.18546747 7.54298241,9.18546747 L2,9.18546747 C0.8954305,9.18546747 1.11139164e-12,8.29003697 1.11910481e-12,7.18546747 L1.13983717e-12,6.38779547 Z" id="Combined-Shape"></path>
                        </g>
                        <path d="M16.7162753,8.07026675 L18.371945,6.62337506 C18.7130435,6.32528874 19.2238825,6.36879805 19.5129359,6.72055581 C20.1486037,7.49594296 21.2723675,7.59301218 22.0235402,6.93810632 C22.0658371,6.90123 22.1064429,6.86233906 22.1452253,6.82156032 L22.3482611,6.60807311 C22.7789565,6.15520738 23.4824458,6.14285459 23.9278419,6.58033676 L24.2193909,6.86670542 C25.0574425,7.6898663 26.3839,7.65656449 27.1821166,6.79232374 C27.2155225,6.75615467 27.2477024,6.71880208 27.2785983,6.68033329 C27.6176694,6.25815205 28.2244152,6.19936769 28.6338031,6.54903475 C28.6577322,6.56947312 28.6806876,6.59109441 28.7025886,6.61382267 L30.3966115,8.37183137 C30.6089523,8.59219259 30.9543133,8.59331518 31.1679969,8.37433875 C31.3816805,8.15536232 31.3827691,7.79920879 31.1704283,7.57884757 L29.4764054,5.82083888 C29.4296813,5.77234997 29.3807079,5.7262227 29.3296571,5.68261911 C28.4562613,4.93663283 27.1618183,5.06204448 26.4384377,5.96273387 C26.4236254,5.98117676 26.4081976,5.99908452 26.392182,6.01642487 C26.0094971,6.43076335 25.3735604,6.44672906 24.9717777,6.05208529 L24.6802287,5.76571664 C23.8030699,4.90414347 22.4176248,4.92847092 21.5694175,5.82034033 L21.3663817,6.03382755 C21.3513539,6.04962896 21.3356195,6.06469885 21.3192298,6.07898811 C21.0281569,6.33275845 20.5927082,6.29514497 20.3466278,5.99497605 C19.6666337,5.16746877 18.4674132,5.06532846 17.6666672,5.76510128 L16.0109974,7.21199297 C15.7811737,7.41283622 15.7527465,7.76778298 15.9475036,8.00478874 C16.1422607,8.2417945 16.4864515,8.27111 16.7162753,8.07026675 Z" id="Path-21" fill="#FFFFFF" fill-rule="nonzero"></path>
                        <path d="M16.8970797,11.526994 L17.8627232,10.9358006 C18.2572856,10.6942387 18.7649339,10.7978478 19.0405285,11.1761863 C19.5694062,11.9022337 20.5688884,12.0486733 21.2729344,11.5032681 C21.3621288,11.4341716 21.444045,11.3556123 21.5173368,11.2688811 L21.6904972,11.0639684 C22.0027396,10.6944704 22.5463224,10.6559657 22.9046234,10.9779656 C22.9269649,10.9980436 22.9482857,11.0192983 22.9685008,11.0416448 L23.098585,11.1854451 C23.9701123,12.1488655 25.3790068,12.3460757 26.4680253,11.6570831 L27.1895802,11.2005748 C27.4463547,11.0381205 27.5268071,10.6917635 27.3692756,10.4269648 C27.2117442,10.1621661 26.8758829,10.0791996 26.6191084,10.2416539 L25.8975535,10.6981622 C25.2507319,11.1073888 24.4139203,10.9902559 23.8962774,10.4180332 L23.7661931,10.2742329 C23.7203515,10.2235578 23.6720021,10.1753584 23.6213382,10.1298276 C22.8088178,9.39962725 21.5761333,9.48694455 20.8680603,10.3248562 L20.6948998,10.5297689 C20.6717552,10.5571576 20.6458871,10.5819657 20.6177206,10.6037855 C20.3953914,10.7760177 20.0797672,10.7297739 19.9127541,10.500497 C19.3027585,9.66309037 18.1791401,9.43376399 17.3058238,9.96843219 L16.3401803,10.5596256 C16.0811438,10.7182149 15.9958194,11.0633297 16.1496029,11.3304611 C16.3033864,11.5975925 16.6380432,11.6855833 16.8970797,11.526994 Z" id="Path-21" fill="#FFFFFF" fill-rule="nonzero"></path>
                    </g>
                    <g transform="translate(56.000000, 35.000000)">
                        <rect id="Rectangle" fill="#C0B4F3" fill-rule="nonzero" opacity="0.549316406" x="0" y="0" width="35.5324675" height="18" rx="2"></rect>
                        <g id="img" transform="translate(4.112846, 4.821429)" fill="#FFD6D6" fill-rule="nonzero">
                            <path d="M-5.73763259e-13,6.38779547 L-5.73985304e-13,2 C-5.74120574e-13,0.8954305 0.8954305,4.74934271e-13 2,4.74731365e-13 L7.54298241,4.74731365e-13 C8.64755191,4.74528459e-13 9.54298241,0.8954305 9.54298241,2 L9.54298241,5.19748103 L9.54298241,7.18546747 C9.54298241,8.29003697 8.64755191,9.18546747 7.54298241,9.18546747 L2,9.18546747 C0.8954305,9.18546747 1.11139164e-12,8.29003697 1.11910481e-12,7.18546747 L1.13983717e-12,6.38779547 Z" id="Combined-Shape"></path>
                        </g>
                        <path d="M16.7162753,8.07026675 L18.371945,6.62337506 C18.7130435,6.32528874 19.2238825,6.36879805 19.5129359,6.72055581 C20.1486037,7.49594296 21.2723675,7.59301218 22.0235402,6.93810632 C22.0658371,6.90123 22.1064429,6.86233906 22.1452253,6.82156032 L22.3482611,6.60807311 C22.7789565,6.15520738 23.4824458,6.14285459 23.9278419,6.58033676 L24.2193909,6.86670542 C25.0574425,7.6898663 26.3839,7.65656449 27.1821166,6.79232374 C27.2155225,6.75615467 27.2477024,6.71880208 27.2785983,6.68033329 C27.6176694,6.25815205 28.2244152,6.19936769 28.6338031,6.54903475 C28.6577322,6.56947312 28.6806876,6.59109441 28.7025886,6.61382267 L30.3966115,8.37183137 C30.6089523,8.59219259 30.9543133,8.59331518 31.1679969,8.37433875 C31.3816805,8.15536232 31.3827691,7.79920879 31.1704283,7.57884757 L29.4764054,5.82083888 C29.4296813,5.77234997 29.3807079,5.7262227 29.3296571,5.68261911 C28.4562613,4.93663283 27.1618183,5.06204448 26.4384377,5.96273387 C26.4236254,5.98117676 26.4081976,5.99908452 26.392182,6.01642487 C26.0094971,6.43076335 25.3735604,6.44672906 24.9717777,6.05208529 L24.6802287,5.76571664 C23.8030699,4.90414347 22.4176248,4.92847092 21.5694175,5.82034033 L21.3663817,6.03382755 C21.3513539,6.04962896 21.3356195,6.06469885 21.3192298,6.07898811 C21.0281569,6.33275845 20.5927082,6.29514497 20.3466278,5.99497605 C19.6666337,5.16746877 18.4674132,5.06532846 17.6666672,5.76510128 L16.0109974,7.21199297 C15.7811737,7.41283622 15.7527465,7.76778298 15.9475036,8.00478874 C16.1422607,8.2417945 16.4864515,8.27111 16.7162753,8.07026675 Z" id="Path-21" fill="#FFFFFF" fill-rule="nonzero"></path>
                        <path d="M16.8970797,11.526994 L17.8627232,10.9358006 C18.2572856,10.6942387 18.7649339,10.7978478 19.0405285,11.1761863 C19.5694062,11.9022337 20.5688884,12.0486733 21.2729344,11.5032681 C21.3621288,11.4341716 21.444045,11.3556123 21.5173368,11.2688811 L21.6904972,11.0639684 C22.0027396,10.6944704 22.5463224,10.6559657 22.9046234,10.9779656 C22.9269649,10.9980436 22.9482857,11.0192983 22.9685008,11.0416448 L23.098585,11.1854451 C23.9701123,12.1488655 25.3790068,12.3460757 26.4680253,11.6570831 L27.1895802,11.2005748 C27.4463547,11.0381205 27.5268071,10.6917635 27.3692756,10.4269648 C27.2117442,10.1621661 26.8758829,10.0791996 26.6191084,10.2416539 L25.8975535,10.6981622 C25.2507319,11.1073888 24.4139203,10.9902559 23.8962774,10.4180332 L23.7661931,10.2742329 C23.7203515,10.2235578 23.6720021,10.1753584 23.6213382,10.1298276 C22.8088178,9.39962725 21.5761333,9.48694455 20.8680603,10.3248562 L20.6948998,10.5297689 C20.6717552,10.5571576 20.6458871,10.5819657 20.6177206,10.6037855 C20.3953914,10.7760177 20.0797672,10.7297739 19.9127541,10.500497 C19.3027585,9.66309037 18.1791401,9.43376399 17.3058238,9.96843219 L16.3401803,10.5596256 C16.0811438,10.7182149 15.9958194,11.0633297 16.1496029,11.3304611 C16.3033864,11.5975925 16.6380432,11.6855833 16.8970797,11.526994 Z" id="Path-21" fill="#FFFFFF" fill-rule="nonzero"></path>
                    </g>
                    <g transform="translate(0.000000, 71.000000)">
                        <rect id="Rectangle" fill="#C0B4F3" fill-rule="nonzero" opacity="0.549316406" x="0" y="0" width="35.5324675" height="18" rx="2"></rect>
                        <g id="img" transform="translate(4.112846, 4.821429)" fill="#FFD6D6" fill-rule="nonzero">
                            <path d="M-5.73763259e-13,6.38779547 L-5.73985304e-13,2 C-5.74120574e-13,0.8954305 0.8954305,4.74934271e-13 2,4.74731365e-13 L7.54298241,4.74731365e-13 C8.64755191,4.74528459e-13 9.54298241,0.8954305 9.54298241,2 L9.54298241,5.19748103 L9.54298241,7.18546747 C9.54298241,8.29003697 8.64755191,9.18546747 7.54298241,9.18546747 L2,9.18546747 C0.8954305,9.18546747 1.11139164e-12,8.29003697 1.11910481e-12,7.18546747 L1.13983717e-12,6.38779547 Z" id="Combined-Shape"></path>
                        </g>
                        <path d="M16.7162753,8.07026675 L18.371945,6.62337506 C18.7130435,6.32528874 19.2238825,6.36879805 19.5129359,6.72055581 C20.1486037,7.49594296 21.2723675,7.59301218 22.0235402,6.93810632 C22.0658371,6.90123 22.1064429,6.86233906 22.1452253,6.82156032 L22.3482611,6.60807311 C22.7789565,6.15520738 23.4824458,6.14285459 23.9278419,6.58033676 L24.2193909,6.86670542 C25.0574425,7.6898663 26.3839,7.65656449 27.1821166,6.79232374 C27.2155225,6.75615467 27.2477024,6.71880208 27.2785983,6.68033329 C27.6176694,6.25815205 28.2244152,6.19936769 28.6338031,6.54903475 C28.6577322,6.56947312 28.6806876,6.59109441 28.7025886,6.61382267 L30.3966115,8.37183137 C30.6089523,8.59219259 30.9543133,8.59331518 31.1679969,8.37433875 C31.3816805,8.15536232 31.3827691,7.79920879 31.1704283,7.57884757 L29.4764054,5.82083888 C29.4296813,5.77234997 29.3807079,5.7262227 29.3296571,5.68261911 C28.4562613,4.93663283 27.1618183,5.06204448 26.4384377,5.96273387 C26.4236254,5.98117676 26.4081976,5.99908452 26.392182,6.01642487 C26.0094971,6.43076335 25.3735604,6.44672906 24.9717777,6.05208529 L24.6802287,5.76571664 C23.8030699,4.90414347 22.4176248,4.92847092 21.5694175,5.82034033 L21.3663817,6.03382755 C21.3513539,6.04962896 21.3356195,6.06469885 21.3192298,6.07898811 C21.0281569,6.33275845 20.5927082,6.29514497 20.3466278,5.99497605 C19.6666337,5.16746877 18.4674132,5.06532846 17.6666672,5.76510128 L16.0109974,7.21199297 C15.7811737,7.41283622 15.7527465,7.76778298 15.9475036,8.00478874 C16.1422607,8.2417945 16.4864515,8.27111 16.7162753,8.07026675 Z" id="Path-21" fill="#FFFFFF" fill-rule="nonzero"></path>
                        <path d="M16.8970797,11.526994 L17.8627232,10.9358006 C18.2572856,10.6942387 18.7649339,10.7978478 19.0405285,11.1761863 C19.5694062,11.9022337 20.5688884,12.0486733 21.2729344,11.5032681 C21.3621288,11.4341716 21.444045,11.3556123 21.5173368,11.2688811 L21.6904972,11.0639684 C22.0027396,10.6944704 22.5463224,10.6559657 22.9046234,10.9779656 C22.9269649,10.9980436 22.9482857,11.0192983 22.9685008,11.0416448 L23.098585,11.1854451 C23.9701123,12.1488655 25.3790068,12.3460757 26.4680253,11.6570831 L27.1895802,11.2005748 C27.4463547,11.0381205 27.5268071,10.6917635 27.3692756,10.4269648 C27.2117442,10.1621661 26.8758829,10.0791996 26.6191084,10.2416539 L25.8975535,10.6981622 C25.2507319,11.1073888 24.4139203,10.9902559 23.8962774,10.4180332 L23.7661931,10.2742329 C23.7203515,10.2235578 23.6720021,10.1753584 23.6213382,10.1298276 C22.8088178,9.39962725 21.5761333,9.48694455 20.8680603,10.3248562 L20.6948998,10.5297689 C20.6717552,10.5571576 20.6458871,10.5819657 20.6177206,10.6037855 C20.3953914,10.7760177 20.0797672,10.7297739 19.9127541,10.500497 C19.3027585,9.66309037 18.1791401,9.43376399 17.3058238,9.96843219 L16.3401803,10.5596256 C16.0811438,10.7182149 15.9958194,11.0633297 16.1496029,11.3304611 C16.3033864,11.5975925 16.6380432,11.6855833 16.8970797,11.526994 Z" id="Path-21" fill="#FFFFFF" fill-rule="nonzero"></path>
                    </g>
                    <g transform="translate(40.000000, 71.000000)">
                        <rect id="Rectangle" fill="#C0B4F3" fill-rule="nonzero" opacity="0.549316406" x="0" y="0" width="35.5324675" height="18" rx="2"></rect>
                        <g id="img" transform="translate(4.112846, 4.821429)" fill="#FFD6D6" fill-rule="nonzero">
                            <path d="M-5.73763259e-13,6.38779547 L-5.73985304e-13,2 C-5.74120574e-13,0.8954305 0.8954305,4.74934271e-13 2,4.74731365e-13 L7.54298241,4.74731365e-13 C8.64755191,4.74528459e-13 9.54298241,0.8954305 9.54298241,2 L9.54298241,5.19748103 L9.54298241,7.18546747 C9.54298241,8.29003697 8.64755191,9.18546747 7.54298241,9.18546747 L2,9.18546747 C0.8954305,9.18546747 1.11139164e-12,8.29003697 1.11910481e-12,7.18546747 L1.13983717e-12,6.38779547 Z" id="Combined-Shape"></path>
                        </g>
                        <path d="M16.7162753,8.07026675 L18.371945,6.62337506 C18.7130435,6.32528874 19.2238825,6.36879805 19.5129359,6.72055581 C20.1486037,7.49594296 21.2723675,7.59301218 22.0235402,6.93810632 C22.0658371,6.90123 22.1064429,6.86233906 22.1452253,6.82156032 L22.3482611,6.60807311 C22.7789565,6.15520738 23.4824458,6.14285459 23.9278419,6.58033676 L24.2193909,6.86670542 C25.0574425,7.6898663 26.3839,7.65656449 27.1821166,6.79232374 C27.2155225,6.75615467 27.2477024,6.71880208 27.2785983,6.68033329 C27.6176694,6.25815205 28.2244152,6.19936769 28.6338031,6.54903475 C28.6577322,6.56947312 28.6806876,6.59109441 28.7025886,6.61382267 L30.3966115,8.37183137 C30.6089523,8.59219259 30.9543133,8.59331518 31.1679969,8.37433875 C31.3816805,8.15536232 31.3827691,7.79920879 31.1704283,7.57884757 L29.4764054,5.82083888 C29.4296813,5.77234997 29.3807079,5.7262227 29.3296571,5.68261911 C28.4562613,4.93663283 27.1618183,5.06204448 26.4384377,5.96273387 C26.4236254,5.98117676 26.4081976,5.99908452 26.392182,6.01642487 C26.0094971,6.43076335 25.3735604,6.44672906 24.9717777,6.05208529 L24.6802287,5.76571664 C23.8030699,4.90414347 22.4176248,4.92847092 21.5694175,5.82034033 L21.3663817,6.03382755 C21.3513539,6.04962896 21.3356195,6.06469885 21.3192298,6.07898811 C21.0281569,6.33275845 20.5927082,6.29514497 20.3466278,5.99497605 C19.6666337,5.16746877 18.4674132,5.06532846 17.6666672,5.76510128 L16.0109974,7.21199297 C15.7811737,7.41283622 15.7527465,7.76778298 15.9475036,8.00478874 C16.1422607,8.2417945 16.4864515,8.27111 16.7162753,8.07026675 Z" id="Path-21" fill="#FFFFFF" fill-rule="nonzero"></path>
                        <path d="M16.8970797,11.526994 L17.8627232,10.9358006 C18.2572856,10.6942387 18.7649339,10.7978478 19.0405285,11.1761863 C19.5694062,11.9022337 20.5688884,12.0486733 21.2729344,11.5032681 C21.3621288,11.4341716 21.444045,11.3556123 21.5173368,11.2688811 L21.6904972,11.0639684 C22.0027396,10.6944704 22.5463224,10.6559657 22.9046234,10.9779656 C22.9269649,10.9980436 22.9482857,11.0192983 22.9685008,11.0416448 L23.098585,11.1854451 C23.9701123,12.1488655 25.3790068,12.3460757 26.4680253,11.6570831 L27.1895802,11.2005748 C27.4463547,11.0381205 27.5268071,10.6917635 27.3692756,10.4269648 C27.2117442,10.1621661 26.8758829,10.0791996 26.6191084,10.2416539 L25.8975535,10.6981622 C25.2507319,11.1073888 24.4139203,10.9902559 23.8962774,10.4180332 L23.7661931,10.2742329 C23.7203515,10.2235578 23.6720021,10.1753584 23.6213382,10.1298276 C22.8088178,9.39962725 21.5761333,9.48694455 20.8680603,10.3248562 L20.6948998,10.5297689 C20.6717552,10.5571576 20.6458871,10.5819657 20.6177206,10.6037855 C20.3953914,10.7760177 20.0797672,10.7297739 19.9127541,10.500497 C19.3027585,9.66309037 18.1791401,9.43376399 17.3058238,9.96843219 L16.3401803,10.5596256 C16.0811438,10.7182149 15.9958194,11.0633297 16.1496029,11.3304611 C16.3033864,11.5975925 16.6380432,11.6855833 16.8970797,11.526994 Z" id="Path-21" fill="#FFFFFF" fill-rule="nonzero"></path>
                    </g>
                    <g transform="translate(80.000000, 71.000000)">
                        <rect id="Rectangle" fill="#C0B4F3" fill-rule="nonzero" opacity="0.549316406" x="0" y="0" width="35.5324675" height="18" rx="2"></rect>
                        <g id="img" transform="translate(4.112846, 4.821429)" fill="#FFD6D6" fill-rule="nonzero">
                            <path d="M-5.73763259e-13,6.38779547 L-5.73985304e-13,2 C-5.74120574e-13,0.8954305 0.8954305,4.74934271e-13 2,4.74731365e-13 L7.54298241,4.74731365e-13 C8.64755191,4.74528459e-13 9.54298241,0.8954305 9.54298241,2 L9.54298241,5.19748103 L9.54298241,7.18546747 C9.54298241,8.29003697 8.64755191,9.18546747 7.54298241,9.18546747 L2,9.18546747 C0.8954305,9.18546747 1.11139164e-12,8.29003697 1.11910481e-12,7.18546747 L1.13983717e-12,6.38779547 Z" id="Combined-Shape"></path>
                        </g>
                        <path d="M16.7162753,8.07026675 L18.371945,6.62337506 C18.7130435,6.32528874 19.2238825,6.36879805 19.5129359,6.72055581 C20.1486037,7.49594296 21.2723675,7.59301218 22.0235402,6.93810632 C22.0658371,6.90123 22.1064429,6.86233906 22.1452253,6.82156032 L22.3482611,6.60807311 C22.7789565,6.15520738 23.4824458,6.14285459 23.9278419,6.58033676 L24.2193909,6.86670542 C25.0574425,7.6898663 26.3839,7.65656449 27.1821166,6.79232374 C27.2155225,6.75615467 27.2477024,6.71880208 27.2785983,6.68033329 C27.6176694,6.25815205 28.2244152,6.19936769 28.6338031,6.54903475 C28.6577322,6.56947312 28.6806876,6.59109441 28.7025886,6.61382267 L30.3966115,8.37183137 C30.6089523,8.59219259 30.9543133,8.59331518 31.1679969,8.37433875 C31.3816805,8.15536232 31.3827691,7.79920879 31.1704283,7.57884757 L29.4764054,5.82083888 C29.4296813,5.77234997 29.3807079,5.7262227 29.3296571,5.68261911 C28.4562613,4.93663283 27.1618183,5.06204448 26.4384377,5.96273387 C26.4236254,5.98117676 26.4081976,5.99908452 26.392182,6.01642487 C26.0094971,6.43076335 25.3735604,6.44672906 24.9717777,6.05208529 L24.6802287,5.76571664 C23.8030699,4.90414347 22.4176248,4.92847092 21.5694175,5.82034033 L21.3663817,6.03382755 C21.3513539,6.04962896 21.3356195,6.06469885 21.3192298,6.07898811 C21.0281569,6.33275845 20.5927082,6.29514497 20.3466278,5.99497605 C19.6666337,5.16746877 18.4674132,5.06532846 17.6666672,5.76510128 L16.0109974,7.21199297 C15.7811737,7.41283622 15.7527465,7.76778298 15.9475036,8.00478874 C16.1422607,8.2417945 16.4864515,8.27111 16.7162753,8.07026675 Z" id="Path-21" fill="#FFFFFF" fill-rule="nonzero"></path>
                        <path d="M16.8970797,11.526994 L17.8627232,10.9358006 C18.2572856,10.6942387 18.7649339,10.7978478 19.0405285,11.1761863 C19.5694062,11.9022337 20.5688884,12.0486733 21.2729344,11.5032681 C21.3621288,11.4341716 21.444045,11.3556123 21.5173368,11.2688811 L21.6904972,11.0639684 C22.0027396,10.6944704 22.5463224,10.6559657 22.9046234,10.9779656 C22.9269649,10.9980436 22.9482857,11.0192983 22.9685008,11.0416448 L23.098585,11.1854451 C23.9701123,12.1488655 25.3790068,12.3460757 26.4680253,11.6570831 L27.1895802,11.2005748 C27.4463547,11.0381205 27.5268071,10.6917635 27.3692756,10.4269648 C27.2117442,10.1621661 26.8758829,10.0791996 26.6191084,10.2416539 L25.8975535,10.6981622 C25.2507319,11.1073888 24.4139203,10.9902559 23.8962774,10.4180332 L23.7661931,10.2742329 C23.7203515,10.2235578 23.6720021,10.1753584 23.6213382,10.1298276 C22.8088178,9.39962725 21.5761333,9.48694455 20.8680603,10.3248562 L20.6948998,10.5297689 C20.6717552,10.5571576 20.6458871,10.5819657 20.6177206,10.6037855 C20.3953914,10.7760177 20.0797672,10.7297739 19.9127541,10.500497 C19.3027585,9.66309037 18.1791401,9.43376399 17.3058238,9.96843219 L16.3401803,10.5596256 C16.0811438,10.7182149 15.9958194,11.0633297 16.1496029,11.3304611 C16.3033864,11.5975925 16.6380432,11.6855833 16.8970797,11.526994 Z" id="Path-21" fill="#FFFFFF" fill-rule="nonzero"></path>
                    </g>
                    <g id="greencard" transform="translate(47.000000, 0.000000)">
                        <rect id="Rectangle" fill="#C0EDDB" fill-rule="nonzero" opacity="0.549316406" x="0" y="0" width="35.5324675" height="18" rx="2"></rect>
                        <g id="img" transform="translate(4.112846, 4.821429)" fill="#FFD6D6" fill-rule="nonzero">
                            <path d="M-5.73763259e-13,6.38779547 L-5.73985304e-13,2 C-5.74120574e-13,0.8954305 0.8954305,4.74934271e-13 2,4.74731365e-13 L7.54298241,4.74731365e-13 C8.64755191,4.74528459e-13 9.54298241,0.8954305 9.54298241,2 L9.54298241,5.19748103 L9.54298241,7.18546747 C9.54298241,8.29003697 8.64755191,9.18546747 7.54298241,9.18546747 L2,9.18546747 C0.8954305,9.18546747 1.11139164e-12,8.29003697 1.11910481e-12,7.18546747 L1.13983717e-12,6.38779547 Z" id="Combined-Shape"></path>
                        </g>
                        <path d="M16.7162753,8.07026675 L18.371945,6.62337506 C18.7130435,6.32528874 19.2238825,6.36879805 19.5129359,6.72055581 C20.1486037,7.49594296 21.2723675,7.59301218 22.0235402,6.93810632 C22.0658371,6.90123 22.1064429,6.86233906 22.1452253,6.82156032 L22.3482611,6.60807311 C22.7789565,6.15520738 23.4824458,6.14285459 23.9278419,6.58033676 L24.2193909,6.86670542 C25.0574425,7.6898663 26.3839,7.65656449 27.1821166,6.79232374 C27.2155225,6.75615467 27.2477024,6.71880208 27.2785983,6.68033329 C27.6176694,6.25815205 28.2244152,6.19936769 28.6338031,6.54903475 C28.6577322,6.56947312 28.6806876,6.59109441 28.7025886,6.61382267 L30.3966115,8.37183137 C30.6089523,8.59219259 30.9543133,8.59331518 31.1679969,8.37433875 C31.3816805,8.15536232 31.3827691,7.79920879 31.1704283,7.57884757 L29.4764054,5.82083888 C29.4296813,5.77234997 29.3807079,5.7262227 29.3296571,5.68261911 C28.4562613,4.93663283 27.1618183,5.06204448 26.4384377,5.96273387 C26.4236254,5.98117676 26.4081976,5.99908452 26.392182,6.01642487 C26.0094971,6.43076335 25.3735604,6.44672906 24.9717777,6.05208529 L24.6802287,5.76571664 C23.8030699,4.90414347 22.4176248,4.92847092 21.5694175,5.82034033 L21.3663817,6.03382755 C21.3513539,6.04962896 21.3356195,6.06469885 21.3192298,6.07898811 C21.0281569,6.33275845 20.5927082,6.29514497 20.3466278,5.99497605 C19.6666337,5.16746877 18.4674132,5.06532846 17.6666672,5.76510128 L16.0109974,7.21199297 C15.7811737,7.41283622 15.7527465,7.76778298 15.9475036,8.00478874 C16.1422607,8.2417945 16.4864515,8.27111 16.7162753,8.07026675 Z" id="Path-21" fill="#FFFFFF" fill-rule="nonzero"></path>
                        <path d="M16.8970797,11.526994 L17.8627232,10.9358006 C18.2572856,10.6942387 18.7649339,10.7978478 19.0405285,11.1761863 C19.5694062,11.9022337 20.5688884,12.0486733 21.2729344,11.5032681 C21.3621288,11.4341716 21.444045,11.3556123 21.5173368,11.2688811 L21.6904972,11.0639684 C22.0027396,10.6944704 22.5463224,10.6559657 22.9046234,10.9779656 C22.9269649,10.9980436 22.9482857,11.0192983 22.9685008,11.0416448 L23.098585,11.1854451 C23.9701123,12.1488655 25.3790068,12.3460757 26.4680253,11.6570831 L27.1895802,11.2005748 C27.4463547,11.0381205 27.5268071,10.6917635 27.3692756,10.4269648 C27.2117442,10.1621661 26.8758829,10.0791996 26.6191084,10.2416539 L25.8975535,10.6981622 C25.2507319,11.1073888 24.4139203,10.9902559 23.8962774,10.4180332 L23.7661931,10.2742329 C23.7203515,10.2235578 23.6720021,10.1753584 23.6213382,10.1298276 C22.8088178,9.39962725 21.5761333,9.48694455 20.8680603,10.3248562 L20.6948998,10.5297689 C20.6717552,10.5571576 20.6458871,10.5819657 20.6177206,10.6037855 C20.3953914,10.7760177 20.0797672,10.7297739 19.9127541,10.500497 C19.3027585,9.66309037 18.1791401,9.43376399 17.3058238,9.96843219 L16.3401803,10.5596256 C16.0811438,10.7182149 15.9958194,11.0633297 16.1496029,11.3304611 C16.3033864,11.5975925 16.6380432,11.6855833 16.8970797,11.526994 Z" id="Path-21" fill="#FFFFFF" fill-rule="nonzero"></path>
                    </g>
                    <g id="greencard" transform="translate(7.000000, 0.000000)">
                        <rect id="Rectangle" fill="#C0EDDB" fill-rule="nonzero" opacity="0.549316406" x="0" y="0" width="35.5324675" height="18" rx="2"></rect>
                        <g id="img" transform="translate(4.112846, 4.821429)" fill="#FFD6D6" fill-rule="nonzero">
                            <path d="M-5.73763259e-13,6.38779547 L-5.73985304e-13,2 C-5.74120574e-13,0.8954305 0.8954305,4.74934271e-13 2,4.74731365e-13 L7.54298241,4.74731365e-13 C8.64755191,4.74528459e-13 9.54298241,0.8954305 9.54298241,2 L9.54298241,5.19748103 L9.54298241,7.18546747 C9.54298241,8.29003697 8.64755191,9.18546747 7.54298241,9.18546747 L2,9.18546747 C0.8954305,9.18546747 1.11139164e-12,8.29003697 1.11910481e-12,7.18546747 L1.13983717e-12,6.38779547 Z" id="Combined-Shape"></path>
                        </g>
                        <path d="M16.7162753,8.07026675 L18.371945,6.62337506 C18.7130435,6.32528874 19.2238825,6.36879805 19.5129359,6.72055581 C20.1486037,7.49594296 21.2723675,7.59301218 22.0235402,6.93810632 C22.0658371,6.90123 22.1064429,6.86233906 22.1452253,6.82156032 L22.3482611,6.60807311 C22.7789565,6.15520738 23.4824458,6.14285459 23.9278419,6.58033676 L24.2193909,6.86670542 C25.0574425,7.6898663 26.3839,7.65656449 27.1821166,6.79232374 C27.2155225,6.75615467 27.2477024,6.71880208 27.2785983,6.68033329 C27.6176694,6.25815205 28.2244152,6.19936769 28.6338031,6.54903475 C28.6577322,6.56947312 28.6806876,6.59109441 28.7025886,6.61382267 L30.3966115,8.37183137 C30.6089523,8.59219259 30.9543133,8.59331518 31.1679969,8.37433875 C31.3816805,8.15536232 31.3827691,7.79920879 31.1704283,7.57884757 L29.4764054,5.82083888 C29.4296813,5.77234997 29.3807079,5.7262227 29.3296571,5.68261911 C28.4562613,4.93663283 27.1618183,5.06204448 26.4384377,5.96273387 C26.4236254,5.98117676 26.4081976,5.99908452 26.392182,6.01642487 C26.0094971,6.43076335 25.3735604,6.44672906 24.9717777,6.05208529 L24.6802287,5.76571664 C23.8030699,4.90414347 22.4176248,4.92847092 21.5694175,5.82034033 L21.3663817,6.03382755 C21.3513539,6.04962896 21.3356195,6.06469885 21.3192298,6.07898811 C21.0281569,6.33275845 20.5927082,6.29514497 20.3466278,5.99497605 C19.6666337,5.16746877 18.4674132,5.06532846 17.6666672,5.76510128 L16.0109974,7.21199297 C15.7811737,7.41283622 15.7527465,7.76778298 15.9475036,8.00478874 C16.1422607,8.2417945 16.4864515,8.27111 16.7162753,8.07026675 Z" id="Path-21" fill="#FFFFFF" fill-rule="nonzero"></path>
                        <path d="M16.8970797,11.526994 L17.8627232,10.9358006 C18.2572856,10.6942387 18.7649339,10.7978478 19.0405285,11.1761863 C19.5694062,11.9022337 20.5688884,12.0486733 21.2729344,11.5032681 C21.3621288,11.4341716 21.444045,11.3556123 21.5173368,11.2688811 L21.6904972,11.0639684 C22.0027396,10.6944704 22.5463224,10.6559657 22.9046234,10.9779656 C22.9269649,10.9980436 22.9482857,11.0192983 22.9685008,11.0416448 L23.098585,11.1854451 C23.9701123,12.1488655 25.3790068,12.3460757 26.4680253,11.6570831 L27.1895802,11.2005748 C27.4463547,11.0381205 27.5268071,10.6917635 27.3692756,10.4269648 C27.2117442,10.1621661 26.8758829,10.0791996 26.6191084,10.2416539 L25.8975535,10.6981622 C25.2507319,11.1073888 24.4139203,10.9902559 23.8962774,10.4180332 L23.7661931,10.2742329 C23.7203515,10.2235578 23.6720021,10.1753584 23.6213382,10.1298276 C22.8088178,9.39962725 21.5761333,9.48694455 20.8680603,10.3248562 L20.6948998,10.5297689 C20.6717552,10.5571576 20.6458871,10.5819657 20.6177206,10.6037855 C20.3953914,10.7760177 20.0797672,10.7297739 19.9127541,10.500497 C19.3027585,9.66309037 18.1791401,9.43376399 17.3058238,9.96843219 L16.3401803,10.5596256 C16.0811438,10.7182149 15.9958194,11.0633297 16.1496029,11.3304611 C16.3033864,11.5975925 16.6380432,11.6855833 16.8970797,11.526994 Z" id="Path-21" fill="#FFFFFF" fill-rule="nonzero"></path>
                    </g>
                </g>
                <polygon id="Line-3" fill="#8E86A9" fill-rule="nonzero" transform="translate(179.500000, 64.438333) rotate(90.000000) translate(-179.500000, -64.438333) " points="179 -11.5 179 140.376666 180 140.376666 180 -11.5"></polygon>
                <polygon id="Line-3" fill="#8E86A9" fill-rule="nonzero" transform="translate(179.500000, 81.938333) rotate(90.000000) translate(-179.500000, -81.938333) " points="179 5.5 179 158.376666 180 158.376666 180 5.5"></polygon>
                <polygon id="Line-3" fill="#8E86A9" fill-rule="nonzero" transform="translate(179.500000, 99.732394) rotate(90.000000) translate(-179.500000, -99.732394) " points="179 23.5 179 175.964789 180 175.964789 180 23.5"></polygon>
                <polygon id="Line-3" fill="#8E86A9" fill-rule="nonzero" transform="translate(179.500000, 117.732394) rotate(90.000000) translate(-179.500000, -117.732394) " points="179 41.5 179 193.964789 180 193.964789 180 41.5"></polygon>
                <polygon id="Line-3" fill="#8E86A9" fill-rule="nonzero" transform="translate(179.500000, 135.732394) rotate(90.000000) translate(-179.500000, -135.732394) " points="179 59.5 179 211.964789 180 211.964789 180 59.5"></polygon>
                <path d="M75.112,47.096 C74.8399986,47.096 74.5920011,47.0386672 74.368,46.924 C74.1439989,46.8093328 73.9533341,46.6400011 73.796,46.416 C73.6386659,46.1919989 73.5160004,45.9146683 73.428,45.584 C73.3399996,45.2533317 73.296,44.8720022 73.296,44.44 C73.296,44.0079978 73.3399996,43.629335 73.428,43.304 C73.5160004,42.978665 73.6386659,42.7053344 73.796,42.484 C73.9533341,42.2626656 74.1439989,42.0973339 74.368,41.988 C74.5920011,41.8786661 74.8399986,41.824 75.112,41.824 C75.3840014,41.824 75.6319989,41.8786661 75.856,41.988 C76.0800011,42.0973339 76.2706659,42.2626656 76.428,42.484 C76.5853341,42.7053344 76.7079996,42.978665 76.796,43.304 C76.8840004,43.629335 76.928,44.0079978 76.928,44.44 C76.928,44.8720022 76.8840004,45.2533317 76.796,45.584 C76.7079996,45.9146683 76.5853341,46.1919989 76.428,46.416 C76.2706659,46.6400011 76.0800011,46.8093328 75.856,46.924 C75.6319989,47.0386672 75.3840014,47.096 75.112,47.096 Z M75.112,46.184 C75.2133338,46.184 75.3066662,46.1586669 75.392,46.108 C75.4773338,46.0573331 75.5519997,45.965334 75.616,45.832 C75.6800003,45.698666 75.7293332,45.5200011 75.764,45.296 C75.7986668,45.0719989 75.816,44.7866684 75.816,44.44 C75.816,44.0933316 75.7986668,43.8093344 75.764,43.588 C75.7293332,43.3666656 75.6800003,43.193334 75.616,43.068 C75.5519997,42.942666 75.4773338,42.8560002 75.392,42.808 C75.3066662,42.7599998 75.2133338,42.736 75.112,42.736 C75.0159995,42.736 74.9253338,42.7599998 74.84,42.808 C74.7546662,42.8560002 74.6800003,42.942666 74.616,43.068 C74.5519997,43.193334 74.5013335,43.3666656 74.464,43.588 C74.4266665,43.8093344 74.408,44.0933316 74.408,44.44 C74.408,44.7866684 74.4266665,45.0719989 74.464,45.296 C74.5013335,45.5200011 74.5519997,45.698666 74.616,45.832 C74.6800003,45.965334 74.7546662,46.0573331 74.84,46.108 C74.9253338,46.1586669 75.0159995,46.184 75.112,46.184 Z M79.24,44.264 C79.3680006,44.264 79.498666,44.226667 79.632,44.152 C79.765334,44.077333 79.8879994,43.9466676 80,43.76 C79.9466664,43.359998 79.8466674,43.0840008 79.7,42.932 C79.5533326,42.7799992 79.3893342,42.704 79.208,42.704 C79.0373325,42.704 78.8880006,42.7693327 78.76,42.9 C78.6319994,43.0306673 78.568,43.2399986 78.568,43.528 C78.568,43.8000014 78.6319994,43.9906661 78.76,44.1 C78.8880006,44.2093339 79.047999,44.264 79.24,44.264 Z M78.192,45.784 C78.2773338,45.8800005 78.3919993,45.9639996 78.536,46.036 C78.6800007,46.1080004 78.8266659,46.144 78.976,46.144 C79.1200007,46.144 79.2533327,46.1173336 79.376,46.064 C79.4986673,46.0106664 79.6066662,45.921334 79.7,45.796 C79.7933338,45.670666 79.8679997,45.508001 79.924,45.308 C79.9800003,45.107999 80.0133333,44.8586682 80.024,44.56 C79.9599997,44.6453338 79.8853338,44.721333 79.8,44.788 C79.7146662,44.854667 79.6266671,44.9106664 79.536,44.956 C79.4453329,45.0013336 79.3546671,45.0359999 79.264,45.06 C79.1733329,45.0840001 79.0880004,45.096 79.008,45.096 C78.7893322,45.096 78.5880009,45.0640003 78.404,45 C78.2199991,44.9359997 78.061334,44.8400006 77.928,44.712 C77.794666,44.5839994 77.6893337,44.4213343 77.612,44.224 C77.5346663,44.0266657 77.496,43.794668 77.496,43.528 C77.496,43.2666654 77.5413329,43.0306677 77.632,42.82 C77.7226671,42.6093323 77.8439992,42.4293341 77.996,42.28 C78.1480008,42.1306659 78.3266656,42.0173337 78.532,41.94 C78.7373344,41.8626663 78.9546655,41.824 79.184,41.824 C79.4293346,41.824 79.6679988,41.8719995 79.9,41.968 C80.1320012,42.0640005 80.3373324,42.2133323 80.516,42.416 C80.6946676,42.6186677 80.8386661,42.8786651 80.948,43.196 C81.0573339,43.5133349 81.112,43.8959978 81.112,44.344 C81.112,44.818669 81.0546672,45.2293316 80.94,45.576 C80.8253328,45.9226684 80.6733343,46.2079989 80.484,46.432 C80.2946657,46.6560011 80.0760012,46.8226661 79.828,46.932 C79.5799988,47.0413339 79.322668,47.096 79.056,47.096 C78.7199983,47.096 78.4280012,47.0346673 78.18,46.912 C77.9319988,46.7893327 77.7280008,46.6480008 77.568,46.488 L78.192,45.784 Z M81.824,45.896 C81.824,45.4799979 81.9999982,45.1546678 82.352,44.92 C82.7040018,44.6853322 83.2719961,44.5280004 84.056,44.448 C84.0453333,44.2719991 83.9920005,44.1320005 83.896,44.028 C83.7999995,43.9239995 83.6453344,43.872 83.432,43.872 C83.2613325,43.872 83.0906675,43.9039997 82.92,43.968 C82.7493325,44.0320003 82.568001,44.1199994 82.376,44.232 L81.96,43.456 C82.2160013,43.3013326 82.4839986,43.1760005 82.764,43.08 C83.0440014,42.9839995 83.3413318,42.936 83.656,42.936 C84.1680026,42.936 84.5586653,43.0813319 84.828,43.372 C85.0973347,43.6626681 85.232,44.1146636 85.232,44.728 L85.232,47 L84.272,47 L84.184,46.592 L84.16,46.592 C83.9893325,46.7413341 83.8093343,46.8626662 83.62,46.956 C83.4306657,47.0493338 83.2240011,47.096 83,47.096 C82.8186658,47.096 82.6560007,47.0653336 82.512,47.004 C82.3679993,46.9426664 82.2453338,46.8573339 82.144,46.748 C82.0426662,46.6386661 81.9640003,46.5120007 81.908,46.368 C81.8519997,46.2239993 81.824,46.0666675 81.824,45.896 Z M82.944,45.808 C82.944,45.9360006 82.9853329,46.0306664 83.068,46.092 C83.1506671,46.1533336 83.2613326,46.184 83.4,46.184 C83.5386674,46.184 83.6559995,46.154667 83.752,46.096 C83.8480005,46.037333 83.9493328,45.9546672 84.056,45.848 L84.056,45.152 C83.6346646,45.210667 83.3440008,45.2959994 83.184,45.408 C83.0239992,45.5200006 82.944,45.6533326 82.944,45.808 Z M86.24,43.032 L87.2,43.032 L87.28,43.544 L87.312,43.544 C87.4773342,43.3786658 87.6533324,43.2360006 87.84,43.116 C88.0266676,42.9959994 88.2506654,42.936 88.512,42.936 C88.7946681,42.936 89.0226658,42.9933328 89.196,43.108 C89.3693342,43.2226672 89.5066662,43.3866656 89.608,43.6 C89.7840009,43.4186658 89.9693324,43.2626673 90.164,43.132 C90.3586676,43.0013327 90.589332,42.936 90.856,42.936 C91.2826688,42.936 91.595999,43.0786652 91.796,43.364 C91.996001,43.6493348 92.096,44.0399975 92.096,44.536 L92.096,47 L90.92,47 L90.92,44.688 C90.92,44.3999986 90.8813337,44.2026672 90.804,44.096 C90.7266663,43.9893328 90.6026675,43.936 90.432,43.936 C90.2346657,43.936 90.0080013,44.0639987 89.752,44.32 L89.752,47 L88.576,47 L88.576,44.688 C88.576,44.3999986 88.5373337,44.2026672 88.46,44.096 C88.3826663,43.9893328 88.2586675,43.936 88.088,43.936 C87.8853323,43.936 87.6613346,44.0639987 87.416,44.32 L87.416,47 L86.24,47 L86.24,43.032 Z M73.56,66.048 L74.664,66.048 L74.664,63.112 L73.712,63.112 L73.712,62.384 C73.9893347,62.3306664 74.223999,62.266667 74.416,62.192 C74.608001,62.117333 74.7946658,62.0266672 74.976,61.92 L75.84,61.92 L75.84,66.048 L76.792,66.048 L76.792,67 L73.56,67 L73.56,66.048 Z M79.336,67.096 C79.0639986,67.096 78.8160011,67.0386672 78.592,66.924 C78.3679989,66.8093328 78.1773341,66.6400011 78.02,66.416 C77.8626659,66.1919989 77.7400004,65.9146683 77.652,65.584 C77.5639996,65.2533317 77.52,64.8720022 77.52,64.44 C77.52,64.0079978 77.5639996,63.629335 77.652,63.304 C77.7400004,62.978665 77.8626659,62.7053344 78.02,62.484 C78.1773341,62.2626656 78.3679989,62.0973339 78.592,61.988 C78.8160011,61.8786661 79.0639986,61.824 79.336,61.824 C79.6080014,61.824 79.8559989,61.8786661 80.08,61.988 C80.3040011,62.0973339 80.4946659,62.2626656 80.652,62.484 C80.8093341,62.7053344 80.9319996,62.978665 81.02,63.304 C81.1080004,63.629335 81.152,64.0079978 81.152,64.44 C81.152,64.8720022 81.1080004,65.2533317 81.02,65.584 C80.9319996,65.9146683 80.8093341,66.1919989 80.652,66.416 C80.4946659,66.6400011 80.3040011,66.8093328 80.08,66.924 C79.8559989,67.0386672 79.6080014,67.096 79.336,67.096 Z M79.336,66.184 C79.4373338,66.184 79.5306662,66.1586669 79.616,66.108 C79.7013338,66.0573331 79.7759997,65.965334 79.84,65.832 C79.9040003,65.698666 79.9533332,65.5200011 79.988,65.296 C80.0226668,65.0719989 80.04,64.7866684 80.04,64.44 C80.04,64.0933316 80.0226668,63.8093344 79.988,63.588 C79.9533332,63.3666656 79.9040003,63.193334 79.84,63.068 C79.7759997,62.942666 79.7013338,62.8560002 79.616,62.808 C79.5306662,62.7599998 79.4373338,62.736 79.336,62.736 C79.2399995,62.736 79.1493338,62.7599998 79.064,62.808 C78.9786662,62.8560002 78.9040003,62.942666 78.84,63.068 C78.7759997,63.193334 78.7253335,63.3666656 78.688,63.588 C78.6506665,63.8093344 78.632,64.0933316 78.632,64.44 C78.632,64.7866684 78.6506665,65.0719989 78.688,65.296 C78.7253335,65.5200011 78.7759997,65.698666 78.84,65.832 C78.9040003,65.965334 78.9786662,66.0573331 79.064,66.108 C79.1493338,66.1586669 79.2399995,66.184 79.336,66.184 Z M81.824,65.896 C81.824,65.4799979 81.9999982,65.1546678 82.352,64.92 C82.7040018,64.6853322 83.2719961,64.5280004 84.056,64.448 C84.0453333,64.2719991 83.9920005,64.1320005 83.896,64.028 C83.7999995,63.9239995 83.6453344,63.872 83.432,63.872 C83.2613325,63.872 83.0906675,63.9039997 82.92,63.968 C82.7493325,64.0320003 82.568001,64.1199994 82.376,64.232 L81.96,63.456 C82.2160013,63.3013326 82.4839986,63.1760005 82.764,63.08 C83.0440014,62.9839995 83.3413318,62.936 83.656,62.936 C84.1680026,62.936 84.5586653,63.0813319 84.828,63.372 C85.0973347,63.6626681 85.232,64.1146636 85.232,64.728 L85.232,67 L84.272,67 L84.184,66.592 L84.16,66.592 C83.9893325,66.7413341 83.8093343,66.8626662 83.62,66.956 C83.4306657,67.0493338 83.2240011,67.096 83,67.096 C82.8186658,67.096 82.6560007,67.0653336 82.512,67.004 C82.3679993,66.9426664 82.2453338,66.8573339 82.144,66.748 C82.0426662,66.6386661 81.9640003,66.5120007 81.908,66.368 C81.8519997,66.2239993 81.824,66.0666675 81.824,65.896 Z M82.944,65.808 C82.944,65.9360006 82.9853329,66.0306664 83.068,66.092 C83.1506671,66.1533336 83.2613326,66.184 83.4,66.184 C83.5386674,66.184 83.6559995,66.154667 83.752,66.096 C83.8480005,66.037333 83.9493328,65.9546672 84.056,65.848 L84.056,65.152 C83.6346646,65.210667 83.3440008,65.2959994 83.184,65.408 C83.0239992,65.5200006 82.944,65.6533326 82.944,65.808 Z M86.24,63.032 L87.2,63.032 L87.28,63.544 L87.312,63.544 C87.4773342,63.3786658 87.6533324,63.2360006 87.84,63.116 C88.0266676,62.9959994 88.2506654,62.936 88.512,62.936 C88.7946681,62.936 89.0226658,62.9933328 89.196,63.108 C89.3693342,63.2226672 89.5066662,63.3866656 89.608,63.6 C89.7840009,63.4186658 89.9693324,63.2626673 90.164,63.132 C90.3586676,63.0013327 90.589332,62.936 90.856,62.936 C91.2826688,62.936 91.595999,63.0786652 91.796,63.364 C91.996001,63.6493348 92.096,64.0399975 92.096,64.536 L92.096,67 L90.92,67 L90.92,64.688 C90.92,64.3999986 90.8813337,64.2026672 90.804,64.096 C90.7266663,63.9893328 90.6026675,63.936 90.432,63.936 C90.2346657,63.936 90.0080013,64.0639987 89.752,64.32 L89.752,67 L88.576,67 L88.576,64.688 C88.576,64.3999986 88.5373337,64.2026672 88.46,64.096 C88.3826663,63.9893328 88.2586675,63.936 88.088,63.936 C87.8853323,63.936 87.6613346,64.0639987 87.416,64.32 L87.416,67 L86.24,67 L86.24,63.032 Z M73.56,84.048 L74.664,84.048 L74.664,81.112 L73.712,81.112 L73.712,80.384 C73.9893347,80.3306664 74.223999,80.266667 74.416,80.192 C74.608001,80.117333 74.7946658,80.0266672 74.976,79.92 L75.84,79.92 L75.84,84.048 L76.792,84.048 L76.792,85 L73.56,85 L73.56,84.048 Z M77.784,84.048 L78.888,84.048 L78.888,81.112 L77.936,81.112 L77.936,80.384 C78.2133347,80.3306664 78.447999,80.266667 78.64,80.192 C78.832001,80.117333 79.0186658,80.0266672 79.2,79.92 L80.064,79.92 L80.064,84.048 L81.016,84.048 L81.016,85 L77.784,85 L77.784,84.048 Z M81.824,83.896 C81.824,83.4799979 81.9999982,83.1546678 82.352,82.92 C82.7040018,82.6853322 83.2719961,82.5280004 84.056,82.448 C84.0453333,82.2719991 83.9920005,82.1320005 83.896,82.028 C83.7999995,81.9239995 83.6453344,81.872 83.432,81.872 C83.2613325,81.872 83.0906675,81.9039997 82.92,81.968 C82.7493325,82.0320003 82.568001,82.1199994 82.376,82.232 L81.96,81.456 C82.2160013,81.3013326 82.4839986,81.1760005 82.764,81.08 C83.0440014,80.9839995 83.3413318,80.936 83.656,80.936 C84.1680026,80.936 84.5586653,81.0813319 84.828,81.372 C85.0973347,81.6626681 85.232,82.1146636 85.232,82.728 L85.232,85 L84.272,85 L84.184,84.592 L84.16,84.592 C83.9893325,84.7413341 83.8093343,84.8626662 83.62,84.956 C83.4306657,85.0493338 83.2240011,85.096 83,85.096 C82.8186658,85.096 82.6560007,85.0653336 82.512,85.004 C82.3679993,84.9426664 82.2453338,84.8573339 82.144,84.748 C82.0426662,84.6386661 81.9640003,84.5120007 81.908,84.368 C81.8519997,84.2239993 81.824,84.0666675 81.824,83.896 Z M82.944,83.808 C82.944,83.9360006 82.9853329,84.0306664 83.068,84.092 C83.1506671,84.1533336 83.2613326,84.184 83.4,84.184 C83.5386674,84.184 83.6559995,84.154667 83.752,84.096 C83.8480005,84.037333 83.9493328,83.9546672 84.056,83.848 L84.056,83.152 C83.6346646,83.210667 83.3440008,83.2959994 83.184,83.408 C83.0239992,83.5200006 82.944,83.6533326 82.944,83.808 Z M86.24,81.032 L87.2,81.032 L87.28,81.544 L87.312,81.544 C87.4773342,81.3786658 87.6533324,81.2360006 87.84,81.116 C88.0266676,80.9959994 88.2506654,80.936 88.512,80.936 C88.7946681,80.936 89.0226658,80.9933328 89.196,81.108 C89.3693342,81.2226672 89.5066662,81.3866656 89.608,81.6 C89.7840009,81.4186658 89.9693324,81.2626673 90.164,81.132 C90.3586676,81.0013327 90.589332,80.936 90.856,80.936 C91.2826688,80.936 91.595999,81.0786652 91.796,81.364 C91.996001,81.6493348 92.096,82.0399975 92.096,82.536 L92.096,85 L90.92,85 L90.92,82.688 C90.92,82.3999986 90.8813337,82.2026672 90.804,82.096 C90.7266663,81.9893328 90.6026675,81.936 90.432,81.936 C90.2346657,81.936 90.0080013,82.0639987 89.752,82.32 L89.752,85 L88.576,85 L88.576,82.688 C88.576,82.3999986 88.5373337,82.2026672 88.46,82.096 C88.3826663,81.9893328 88.2586675,81.936 88.088,81.936 C87.8853323,81.936 87.6613346,82.0639987 87.416,82.32 L87.416,85 L86.24,85 L86.24,81.032 Z M73.56,102.048 L74.664,102.048 L74.664,99.112 L73.712,99.112 L73.712,98.384 C73.9893347,98.3306664 74.223999,98.266667 74.416,98.192 C74.608001,98.117333 74.7946658,98.0266672 74.976,97.92 L75.84,97.92 L75.84,102.048 L76.792,102.048 L76.792,103 L73.56,103 L73.56,102.048 Z M77.52,102.328 C77.845335,102.023998 78.1426653,101.740001 78.412,101.476 C78.6813347,101.211999 78.9133324,100.964001 79.108,100.732 C79.3026676,100.499999 79.4546661,100.284001 79.564,100.084 C79.6733339,99.883999 79.728,99.6933342 79.728,99.512 C79.728,99.2613321 79.6640006,99.0706673 79.536,98.94 C79.4079994,98.8093327 79.2320011,98.744 79.008,98.744 C78.8213324,98.744 78.6560007,98.7959995 78.512,98.9 C78.3679993,99.0040005 78.2320006,99.1253326 78.104,99.264 L77.464,98.632 C77.7146679,98.365332 77.9706654,98.1640007 78.232,98.028 C78.4933346,97.8919993 78.8053315,97.824 79.168,97.824 C79.4186679,97.824 79.6466656,97.8626663 79.852,97.94 C80.0573344,98.0173337 80.2346659,98.126666 80.384,98.268 C80.5333341,98.409334 80.6479996,98.5786657 80.728,98.776 C80.8080004,98.9733343 80.848,99.1946654 80.848,99.44 C80.848,99.6533344 80.8026671,99.8706656 80.712,100.092 C80.6213329,100.313334 80.5000008,100.534666 80.348,100.756 C80.1959992,100.977334 80.0226676,101.198666 79.828,101.42 C79.6333324,101.641334 79.432001,101.858666 79.224,102.072 C79.3520006,102.056 79.4946659,102.041333 79.652,102.028 C79.8093341,102.014667 79.9493327,102.008 80.072,102.008 L81.096,102.008 L81.096,103 L77.52,103 L77.52,102.328 Z M81.824,101.896 C81.824,101.479998 81.9999982,101.154668 82.352,100.92 C82.7040018,100.685332 83.2719961,100.528 84.056,100.448 C84.0453333,100.271999 83.9920005,100.132001 83.896,100.028 C83.7999995,99.9239995 83.6453344,99.872 83.432,99.872 C83.2613325,99.872 83.0906675,99.9039997 82.92,99.968 C82.7493325,100.032 82.568001,100.119999 82.376,100.232 L81.96,99.456 C82.2160013,99.3013326 82.4839986,99.1760005 82.764,99.08 C83.0440014,98.9839995 83.3413318,98.936 83.656,98.936 C84.1680026,98.936 84.5586653,99.0813319 84.828,99.372 C85.0973347,99.6626681 85.232,100.114664 85.232,100.728 L85.232,103 L84.272,103 L84.184,102.592 L84.16,102.592 C83.9893325,102.741334 83.8093343,102.862666 83.62,102.956 C83.4306657,103.049334 83.2240011,103.096 83,103.096 C82.8186658,103.096 82.6560007,103.065334 82.512,103.004 C82.3679993,102.942666 82.2453338,102.857334 82.144,102.748 C82.0426662,102.638666 81.9640003,102.512001 81.908,102.368 C81.8519997,102.223999 81.824,102.066668 81.824,101.896 Z M82.944,101.808 C82.944,101.936001 82.9853329,102.030666 83.068,102.092 C83.1506671,102.153334 83.2613326,102.184 83.4,102.184 C83.5386674,102.184 83.6559995,102.154667 83.752,102.096 C83.8480005,102.037333 83.9493328,101.954667 84.056,101.848 L84.056,101.152 C83.6346646,101.210667 83.3440008,101.295999 83.184,101.408 C83.0239992,101.520001 82.944,101.653333 82.944,101.808 Z M86.24,99.032 L87.2,99.032 L87.28,99.544 L87.312,99.544 C87.4773342,99.3786658 87.6533324,99.2360006 87.84,99.116 C88.0266676,98.9959994 88.2506654,98.936 88.512,98.936 C88.7946681,98.936 89.0226658,98.9933328 89.196,99.108 C89.3693342,99.2226672 89.5066662,99.3866656 89.608,99.6 C89.7840009,99.4186658 89.9693324,99.2626673 90.164,99.132 C90.3586676,99.0013327 90.589332,98.936 90.856,98.936 C91.2826688,98.936 91.595999,99.0786652 91.796,99.364 C91.996001,99.6493348 92.096,100.039998 92.096,100.536 L92.096,103 L90.92,103 L90.92,100.688 C90.92,100.399999 90.8813337,100.202667 90.804,100.096 C90.7266663,99.9893328 90.6026675,99.936 90.432,99.936 C90.2346657,99.936 90.0080013,100.063999 89.752,100.32 L89.752,103 L88.576,103 L88.576,100.688 C88.576,100.399999 88.5373337,100.202667 88.46,100.096 C88.3826663,99.9893328 88.2586675,99.936 88.088,99.936 C87.8853323,99.936 87.6613346,100.063999 87.416,100.32 L87.416,103 L86.24,103 L86.24,99.032 Z M73.56,120.048 L74.664,120.048 L74.664,117.112 L73.712,117.112 L73.712,116.384 C73.9893347,116.330666 74.223999,116.266667 74.416,116.192 C74.608001,116.117333 74.7946658,116.026667 74.976,115.92 L75.84,115.92 L75.84,120.048 L76.792,120.048 L76.792,121 L73.56,121 L73.56,120.048 Z M77.944,119.632 C78.0986674,119.781334 78.2679991,119.904 78.452,120 C78.6360009,120.096 78.8373322,120.144 79.056,120.144 C79.3066679,120.144 79.5066659,120.092001 79.656,119.988 C79.8053341,119.883999 79.88,119.736001 79.88,119.544 C79.88,119.431999 79.8600002,119.330667 79.82,119.24 C79.7799998,119.149333 79.7093338,119.073334 79.608,119.012 C79.5066662,118.950666 79.3680009,118.902667 79.192,118.868 C79.0159991,118.833333 78.7893347,118.816 78.512,118.816 L78.512,117.984 C78.7413345,117.984 78.9319992,117.968 79.084,117.936 C79.2360008,117.904 79.3586662,117.857334 79.452,117.796 C79.5453338,117.734666 79.6119998,117.662667 79.652,117.58 C79.6920002,117.497333 79.712,117.405334 79.712,117.304 C79.712,117.127999 79.6586672,116.990667 79.552,116.892 C79.4453328,116.793333 79.2906677,116.744 79.088,116.744 C78.9066658,116.744 78.7426674,116.784 78.596,116.864 C78.4493326,116.944 78.2960008,117.053333 78.136,117.192 L77.544,116.472 C77.7786678,116.269332 78.025332,116.110667 78.284,115.996 C78.542668,115.881333 78.8293318,115.824 79.144,115.824 C79.4053346,115.824 79.6439989,115.854666 79.86,115.916 C80.0760011,115.977334 80.2599992,116.067999 80.412,116.188 C80.5640008,116.308001 80.6826662,116.453332 80.768,116.624 C80.8533338,116.794668 80.896,116.991999 80.896,117.216 C80.896,117.482668 80.8226674,117.707999 80.676,117.892 C80.5293326,118.076001 80.3200014,118.226666 80.048,118.344 L80.048,118.376 C80.3413348,118.461334 80.5826657,118.606666 80.772,118.812 C80.9613343,119.017334 81.056,119.285332 81.056,119.616 C81.056,119.850668 81.0053338,120.059999 80.904,120.244 C80.8026662,120.428001 80.6666675,120.582666 80.496,120.708 C80.3253325,120.833334 80.1253345,120.929333 79.896,120.996 C79.6666655,121.062667 79.4240013,121.096 79.168,121.096 C78.7519979,121.096 78.4000014,121.030667 78.112,120.9 C77.8239986,120.769333 77.5866676,120.594668 77.4,120.376 L77.944,119.632 Z M81.824,119.896 C81.824,119.479998 81.9999982,119.154668 82.352,118.92 C82.7040018,118.685332 83.2719961,118.528 84.056,118.448 C84.0453333,118.271999 83.9920005,118.132001 83.896,118.028 C83.7999995,117.923999 83.6453344,117.872 83.432,117.872 C83.2613325,117.872 83.0906675,117.904 82.92,117.968 C82.7493325,118.032 82.568001,118.119999 82.376,118.232 L81.96,117.456 C82.2160013,117.301333 82.4839986,117.176 82.764,117.08 C83.0440014,116.984 83.3413318,116.936 83.656,116.936 C84.1680026,116.936 84.5586653,117.081332 84.828,117.372 C85.0973347,117.662668 85.232,118.114664 85.232,118.728 L85.232,121 L84.272,121 L84.184,120.592 L84.16,120.592 C83.9893325,120.741334 83.8093343,120.862666 83.62,120.956 C83.4306657,121.049334 83.2240011,121.096 83,121.096 C82.8186658,121.096 82.6560007,121.065334 82.512,121.004 C82.3679993,120.942666 82.2453338,120.857334 82.144,120.748 C82.0426662,120.638666 81.9640003,120.512001 81.908,120.368 C81.8519997,120.223999 81.824,120.066668 81.824,119.896 Z M82.944,119.808 C82.944,119.936001 82.9853329,120.030666 83.068,120.092 C83.1506671,120.153334 83.2613326,120.184 83.4,120.184 C83.5386674,120.184 83.6559995,120.154667 83.752,120.096 C83.8480005,120.037333 83.9493328,119.954667 84.056,119.848 L84.056,119.152 C83.6346646,119.210667 83.3440008,119.295999 83.184,119.408 C83.0239992,119.520001 82.944,119.653333 82.944,119.808 Z M86.24,117.032 L87.2,117.032 L87.28,117.544 L87.312,117.544 C87.4773342,117.378666 87.6533324,117.236001 87.84,117.116 C88.0266676,116.995999 88.2506654,116.936 88.512,116.936 C88.7946681,116.936 89.0226658,116.993333 89.196,117.108 C89.3693342,117.222667 89.5066662,117.386666 89.608,117.6 C89.7840009,117.418666 89.9693324,117.262667 90.164,117.132 C90.3586676,117.001333 90.589332,116.936 90.856,116.936 C91.2826688,116.936 91.595999,117.078665 91.796,117.364 C91.996001,117.649335 92.096,118.039998 92.096,118.536 L92.096,121 L90.92,121 L90.92,118.688 C90.92,118.399999 90.8813337,118.202667 90.804,118.096 C90.7266663,117.989333 90.6026675,117.936 90.432,117.936 C90.2346657,117.936 90.0080013,118.063999 89.752,118.32 L89.752,121 L88.576,121 L88.576,118.688 C88.576,118.399999 88.5373337,118.202667 88.46,118.096 C88.3826663,117.989333 88.2586675,117.936 88.088,117.936 C87.8853323,117.936 87.6613346,118.063999 87.416,118.32 L87.416,121 L86.24,121 L86.24,117.032 Z M73.56,138.048 L74.664,138.048 L74.664,135.112 L73.712,135.112 L73.712,134.384 C73.9893347,134.330666 74.223999,134.266667 74.416,134.192 C74.608001,134.117333 74.7946658,134.026667 74.976,133.92 L75.84,133.92 L75.84,138.048 L76.792,138.048 L76.792,139 L73.56,139 L73.56,138.048 Z M79.576,136.888 L79.576,136.064 C79.576,135.898666 79.5813333,135.708001 79.592,135.492 C79.6026667,135.275999 79.6133333,135.088001 79.624,134.928 L79.592,134.928 C79.5279997,135.066667 79.4613337,135.207999 79.392,135.352 C79.3226663,135.496001 79.250667,135.639999 79.176,135.784 L78.504,136.888 L79.576,136.888 Z M81.256,137.784 L80.672,137.784 L80.672,139 L79.576,139 L79.576,137.784 L77.376,137.784 L77.376,136.976 L79.232,133.92 L80.672,133.92 L80.672,136.888 L81.256,136.888 L81.256,137.784 Z M81.824,137.896 C81.824,137.479998 81.9999982,137.154668 82.352,136.92 C82.7040018,136.685332 83.2719961,136.528 84.056,136.448 C84.0453333,136.271999 83.9920005,136.132001 83.896,136.028 C83.7999995,135.923999 83.6453344,135.872 83.432,135.872 C83.2613325,135.872 83.0906675,135.904 82.92,135.968 C82.7493325,136.032 82.568001,136.119999 82.376,136.232 L81.96,135.456 C82.2160013,135.301333 82.4839986,135.176 82.764,135.08 C83.0440014,134.984 83.3413318,134.936 83.656,134.936 C84.1680026,134.936 84.5586653,135.081332 84.828,135.372 C85.0973347,135.662668 85.232,136.114664 85.232,136.728 L85.232,139 L84.272,139 L84.184,138.592 L84.16,138.592 C83.9893325,138.741334 83.8093343,138.862666 83.62,138.956 C83.4306657,139.049334 83.2240011,139.096 83,139.096 C82.8186658,139.096 82.6560007,139.065334 82.512,139.004 C82.3679993,138.942666 82.2453338,138.857334 82.144,138.748 C82.0426662,138.638666 81.9640003,138.512001 81.908,138.368 C81.8519997,138.223999 81.824,138.066668 81.824,137.896 Z M82.944,137.808 C82.944,137.936001 82.9853329,138.030666 83.068,138.092 C83.1506671,138.153334 83.2613326,138.184 83.4,138.184 C83.5386674,138.184 83.6559995,138.154667 83.752,138.096 C83.8480005,138.037333 83.9493328,137.954667 84.056,137.848 L84.056,137.152 C83.6346646,137.210667 83.3440008,137.295999 83.184,137.408 C83.0239992,137.520001 82.944,137.653333 82.944,137.808 Z M86.24,135.032 L87.2,135.032 L87.28,135.544 L87.312,135.544 C87.4773342,135.378666 87.6533324,135.236001 87.84,135.116 C88.0266676,134.995999 88.2506654,134.936 88.512,134.936 C88.7946681,134.936 89.0226658,134.993333 89.196,135.108 C89.3693342,135.222667 89.5066662,135.386666 89.608,135.6 C89.7840009,135.418666 89.9693324,135.262667 90.164,135.132 C90.3586676,135.001333 90.589332,134.936 90.856,134.936 C91.2826688,134.936 91.595999,135.078665 91.796,135.364 C91.996001,135.649335 92.096,136.039998 92.096,136.536 L92.096,139 L90.92,139 L90.92,136.688 C90.92,136.399999 90.8813337,136.202667 90.804,136.096 C90.7266663,135.989333 90.6026675,135.936 90.432,135.936 C90.2346657,135.936 90.0080013,136.063999 89.752,136.32 L89.752,139 L88.576,139 L88.576,136.688 C88.576,136.399999 88.5373337,136.202667 88.46,136.096 C88.3826663,135.989333 88.2586675,135.936 88.088,135.936 C87.8853323,135.936 87.6613346,136.063999 87.416,136.32 L87.416,139 L86.24,139 L86.24,135.032 Z" id="09am10am11am12am13am14am" fill="#FAC1C1" fill-rule="nonzero" opacity="0.558291481"></path>
                <path d="M137.699843,176.846519 L138.648828,175.916737 C140.525831,174.077715 143.517246,174.04008 145.439922,175.831299 C148.135249,178.342343 152.344564,178.234097 154.907267,175.587839 L155.881526,174.581816 C156.744011,173.691211 158.165171,173.668414 159.055776,174.530899 C159.247294,174.71637 159.404242,174.934474 159.519265,175.174991 C160.526191,177.280516 163.049332,178.171107 165.154857,177.16418 C165.614645,176.944295 166.030865,176.643051 166.383415,176.274998 L166.783242,175.857588 C168.469004,174.097693 171.225141,173.931339 173.11034,175.475699 L174.189075,176.359401 C176.707789,178.422739 180.414689,178.090269 182.526039,175.611664 C183.682667,174.253847 185.721028,174.090752 187.078844,175.247381 C187.19601,175.347186 187.305891,175.455239 187.407648,175.570713 L189.249734,177.661136 C189.61487,178.075497 190.246776,178.115401 190.661136,177.750266 C191.075497,177.38513 191.115401,176.753224 190.750266,176.338864 L188.908179,174.248441 C188.743408,174.061456 188.56548,173.886489 188.375758,173.724877 C186.177086,171.851983 182.87643,172.116078 181.003535,174.31475 C179.598739,175.963902 177.132335,176.185113 175.456496,174.812261 L174.377762,173.928559 C171.684586,171.722302 167.747198,171.959953 165.338936,174.474121 L164.939109,174.891531 C164.75341,175.085396 164.534175,175.24407 164.29199,175.35989 C163.182947,175.890269 161.853933,175.421168 161.323555,174.312125 C161.106054,173.857322 160.809275,173.4449 160.447126,173.094186 C158.763046,171.463279 156.075718,171.506386 154.444812,173.190466 L153.470554,174.196489 C151.665783,176.060103 148.701395,176.136335 146.803224,174.367945 C144.0983,171.84796 139.889813,171.900906 137.249142,174.488143 L136.300157,175.417925 C135.905662,175.804438 135.899191,176.43757 136.285703,176.832065 C136.672216,177.22656 137.305348,177.233032 137.699843,176.846519 Z" id="Path-12" fill-opacity="0.3" fill="#FFFFFF" opacity="0.631217448"></path>
                <path d="M196.820774,165.964784 L197.54683,164.92159 C198.391864,163.707452 200.061152,163.408233 201.27529,164.253266 C201.518336,164.422425 201.731648,164.630716 201.906547,164.869664 C203.604077,167.188834 206.860257,167.692774 209.179427,165.995244 C209.462695,165.787904 209.724256,165.552435 209.960114,165.292432 L211.062835,164.076829 C212.280886,162.73409 214.356817,162.633009 215.699557,163.851061 C215.896453,164.029673 216.070923,164.231542 216.219133,164.452233 L216.548366,164.942475 C217.851778,166.883307 220.481757,167.40004 222.42259,166.096628 C222.893654,165.780274 223.296308,165.372441 223.606617,164.897372 C224.711854,163.205301 226.979521,162.729578 228.671592,163.834815 C228.719093,163.865842 228.765866,163.897969 228.811872,163.931171 L231.414804,165.809628 C231.862647,166.132822 232.487697,166.031775 232.810892,165.583932 C233.134087,165.136088 233.033039,164.511039 232.585196,164.187844 L229.982264,162.309387 C229.911113,162.25804 229.838778,162.208354 229.765317,162.16037 C227.148475,160.451085 223.641456,161.186806 221.932171,163.803648 C221.768473,164.054263 221.556059,164.269409 221.307556,164.436297 C220.283699,165.123892 218.896292,164.851298 218.208697,163.827441 L217.879464,163.337199 C217.640952,162.982045 217.36018,162.65718 217.043318,162.369742 C214.882469,160.409552 211.541706,160.572218 209.581516,162.733068 L208.478796,163.948671 C208.333584,164.108748 208.172547,164.253721 207.998146,164.381374 C206.570291,165.426501 204.565544,165.116238 203.520417,163.688383 C203.21492,163.271012 202.842326,162.907189 202.417797,162.611719 C200.297058,161.135697 197.381306,161.658343 195.905283,163.779083 L195.179226,164.822277 C194.863732,165.275577 194.975446,165.898809 195.428746,166.214304 C195.882047,166.529799 196.505279,166.418085 196.820774,165.964784 Z" id="Path-12" fill-opacity="0.3" fill="#FFFFFF" opacity="0.631217448"></path>
                <path d="M122.257405,2.97107961 L120.819876,1.7971918 C118.073124,-0.445809586 114.02855,-0.0395291677 111.782796,2.70497316 L111.414757,3.15474781 C111.193278,3.42541482 110.90769,3.63646507 110.583932,3.76873094 C109.510549,4.20724264 108.284916,3.69257779 107.846404,2.61919483 C107.589776,1.99102359 107.181909,1.43599481 106.659065,1.00345394 C104.906503,-0.446414736 102.31042,-0.201033191 100.860551,1.55152896 L100.020053,2.56750008 C99.8967884,2.71649939 99.7634191,2.85684218 99.6208899,2.98753448 C97.9045631,4.56132277 95.2373978,4.44577244 93.6636095,2.72944559 C93.5037786,2.55513875 93.3343415,2.38989047 93.1560892,2.23447204 C90.5109028,-0.0718688206 86.4968969,0.202819733 84.190556,2.8480061 L83.2462669,3.9310293 C82.8833161,4.34730458 82.926544,4.97899218 83.3428193,5.34194305 C83.7590946,5.70489393 84.3907822,5.66166595 84.7537331,5.24539067 L85.6980222,4.16236747 C87.2784613,2.34973167 90.029092,2.16149907 91.8417278,3.74193819 C91.9638767,3.84843995 92.0799848,3.9616777 92.1895103,4.0811229 C94.5098093,6.61157225 98.4421179,6.78193273 100.972567,4.46163368 C101.182704,4.26894879 101.379335,4.0620358 101.56107,3.84236016 L102.401568,2.82638903 C103.147351,1.92490679 104.482723,1.79868752 105.384205,2.54447041 C105.653145,2.76696062 105.862944,3.05245612 105.994948,3.3755746 C106.851197,5.47148852 109.244397,6.47643574 111.340311,5.62018703 C111.97249,5.36192145 112.530136,4.94981955 112.962602,4.4213085 L113.330641,3.97153385 C114.877389,2.08127678 117.663061,1.80145394 119.554868,3.34630569 L120.992396,4.5201935 C122.956378,6.12398324 125.414135,7 127.949754,7 C128.531277,7 129.002694,6.52858271 129.002694,5.94706002 C129.002694,5.37771452 128.550121,4.91149414 127.981026,4.89458454 C127.817551,4.88972718 127.662076,4.92438588 127.523772,4.9899184 C125.601151,4.89885148 123.754046,4.19323877 122.257405,2.97107961 Z" id="Path-12" fill-opacity="0.3" fill="#FFFFFF" opacity="0.631217448"></path>
                <path d="M165.257405,19.9710796 L163.819876,18.7971918 C161.073124,16.5541904 157.02855,16.9604708 154.782796,19.7049732 L154.414757,20.1547478 C154.193278,20.4254148 153.90769,20.6364651 153.583932,20.7687309 C152.510549,21.2072426 151.284916,20.6925778 150.846404,19.6191948 C150.589776,18.9910236 150.181909,18.4359948 149.659065,18.0034539 C147.906503,16.5535853 145.31042,16.7989668 143.860551,18.551529 L143.020053,19.5675001 C142.896788,19.7164994 142.763419,19.8568422 142.62089,19.9875345 C140.904563,21.5613228 138.237398,21.4457724 136.663609,19.7294456 C136.503779,19.5551387 136.334342,19.3898905 136.156089,19.234472 C133.510903,16.9281312 129.496897,17.2028197 127.190556,19.8480061 L126.246267,20.9310293 C125.883316,21.3473046 125.926544,21.9789922 126.342819,22.3419431 C126.759095,22.7048939 127.390782,22.6616659 127.753733,22.2453907 L128.698022,21.1623675 C130.278461,19.3497317 133.029092,19.1614991 134.841728,20.7419382 C134.963877,20.8484399 135.079985,20.9616777 135.18951,21.0811229 C137.509809,23.6115723 141.442118,23.7819327 143.972567,21.4616337 C144.182704,21.2689488 144.379335,21.0620358 144.56107,20.8423602 L145.401568,19.826389 C146.147351,18.9249068 147.482723,18.7986875 148.384205,19.5444704 C148.653145,19.7669606 148.862944,20.0524561 148.994948,20.3755746 C149.851197,22.4714885 152.244397,23.4764357 154.340311,22.620187 C154.97249,22.3619215 155.530136,21.9498196 155.962602,21.4213085 L156.330641,20.9715338 C157.877389,19.0812768 160.663061,18.8014539 162.554868,20.3463057 L163.992396,21.5201935 C165.956378,23.1239832 168.414135,24 170.949754,24 C171.531277,24 172.002694,23.5285827 172.002694,22.94706 C172.002694,22.3777145 171.550121,21.9114941 170.981026,21.8945845 C170.817551,21.8897272 170.662076,21.9243859 170.523772,21.9899184 C168.601151,21.8988515 166.754046,21.1932388 165.257405,19.9710796 Z" id="Path-12" fill-opacity="0.3" fill="#FFFFFF" opacity="0.631217448"></path>
                <g id="card" transform="translate(111.000000, 206.000000) rotate(-30.000000) translate(-111.000000, -206.000000) translate(93.000000, 197.000000)" fill-rule="nonzero">
                    <g>
                        <rect id="Rectangle" fill="#C0B4F3" opacity="0.549316406" x="0" y="0" width="35.5324675" height="18" rx="9"></rect>
                        <g id="img" transform="translate(4.112846, 4.821429)" fill="#FFD6D6">
                            <path d="M-5.73763259e-13,6.38779547 L-5.73985304e-13,2 C-5.74120574e-13,0.8954305 0.8954305,4.74934271e-13 2,4.74731365e-13 L7.54298241,4.74731365e-13 C8.64755191,4.74528459e-13 9.54298241,0.8954305 9.54298241,2 L9.54298241,5.19748103 L9.54298241,7.18546747 C9.54298241,8.29003697 8.64755191,9.18546747 7.54298241,9.18546747 L2,9.18546747 C0.8954305,9.18546747 1.11139164e-12,8.29003697 1.11910481e-12,7.18546747 L1.13983717e-12,6.38779547 Z" id="Combined-Shape"></path>
                        </g>
                        <path d="M16.7162753,8.07026675 L18.371945,6.62337506 C18.7130435,6.32528874 19.2238825,6.36879805 19.5129359,6.72055581 C20.1486037,7.49594296 21.2723675,7.59301218 22.0235402,6.93810632 C22.0658371,6.90123 22.1064429,6.86233906 22.1452253,6.82156032 L22.3482611,6.60807311 C22.7789565,6.15520738 23.4824458,6.14285459 23.9278419,6.58033676 L24.2193909,6.86670542 C25.0574425,7.6898663 26.3839,7.65656449 27.1821166,6.79232374 C27.2155225,6.75615467 27.2477024,6.71880208 27.2785983,6.68033329 C27.6176694,6.25815205 28.2244152,6.19936769 28.6338031,6.54903475 C28.6577322,6.56947312 28.6806876,6.59109441 28.7025886,6.61382267 L30.3966115,8.37183137 C30.6089523,8.59219259 30.9543133,8.59331518 31.1679969,8.37433875 C31.3816805,8.15536232 31.3827691,7.79920879 31.1704283,7.57884757 L29.4764054,5.82083888 C29.4296813,5.77234997 29.3807079,5.7262227 29.3296571,5.68261911 C28.4562613,4.93663283 27.1618183,5.06204448 26.4384377,5.96273387 C26.4236254,5.98117676 26.4081976,5.99908452 26.392182,6.01642487 C26.0094971,6.43076335 25.3735604,6.44672906 24.9717777,6.05208529 L24.6802287,5.76571664 C23.8030699,4.90414347 22.4176248,4.92847092 21.5694175,5.82034033 L21.3663817,6.03382755 C21.3513539,6.04962896 21.3356195,6.06469885 21.3192298,6.07898811 C21.0281569,6.33275845 20.5927082,6.29514497 20.3466278,5.99497605 C19.6666337,5.16746877 18.4674132,5.06532846 17.6666672,5.76510128 L16.0109974,7.21199297 C15.7811737,7.41283622 15.7527465,7.76778298 15.9475036,8.00478874 C16.1422607,8.2417945 16.4864515,8.27111 16.7162753,8.07026675 Z" id="Path-21" fill="#FFFFFF"></path>
                        <path d="M16.8970797,11.526994 L17.8627232,10.9358006 C18.2572856,10.6942387 18.7649339,10.7978478 19.0405285,11.1761863 C19.5694062,11.9022337 20.5688884,12.0486733 21.2729344,11.5032681 C21.3621288,11.4341716 21.444045,11.3556123 21.5173368,11.2688811 L21.6904972,11.0639684 C22.0027396,10.6944704 22.5463224,10.6559657 22.9046234,10.9779656 C22.9269649,10.9980436 22.9482857,11.0192983 22.9685008,11.0416448 L23.098585,11.1854451 C23.9701123,12.1488655 25.3790068,12.3460757 26.4680253,11.6570831 L27.1895802,11.2005748 C27.4463547,11.0381205 27.5268071,10.6917635 27.3692756,10.4269648 C27.2117442,10.1621661 26.8758829,10.0791996 26.6191084,10.2416539 L25.8975535,10.6981622 C25.2507319,11.1073888 24.4139203,10.9902559 23.8962774,10.4180332 L23.7661931,10.2742329 C23.7203515,10.2235578 23.6720021,10.1753584 23.6213382,10.1298276 C22.8088178,9.39962725 21.5761333,9.48694455 20.8680603,10.3248562 L20.6948998,10.5297689 C20.6717552,10.5571576 20.6458871,10.5819657 20.6177206,10.6037855 C20.3953914,10.7760177 20.0797672,10.7297739 19.9127541,10.500497 C19.3027585,9.66309037 18.1791401,9.43376399 17.3058238,9.96843219 L16.3401803,10.5596256 C16.0811438,10.7182149 15.9958194,11.0633297 16.1496029,11.3304611 C16.3033864,11.5975925 16.6380432,11.6855833 16.8970797,11.526994 Z" id="Path-21" fill="#FFFFFF"></path>
                    </g>
                </g>
                <path d="M97,197.618687 C103.601309,194 107.502596,193.095328 108.703862,194.904672 L115,199.900085 C114.768406,201.134737 113.210507,200.951726 110.326304,199.351053 C108.05371,197.94928 106.305734,198.258205 105.082377,200.277826 C103.85902,202.297448 101.489763,203.193279 97.9746064,202.965319 L97,197.618687 Z" id="Path-4" fill="#FAC1C1"></path>
                <path d="M39.3499089,129.655673 L38.0272262,135.373581 L37.4660877,135.612968 C36.9581046,135.829633 36.721945,136.417077 36.9386104,136.92506 C36.9772106,137.01556 37.0289559,137.099868 37.0921739,137.175258 C37.2952306,137.417414 37.3967589,137.615193 37.3967589,137.768597 C37.3967589,138.045068 37.1991813,138.705487 36.8040261,139.749854 L36.8039808,139.749837 C35.6695237,142.748126 37.1804579,146.098378 40.1787467,147.232835 C40.5721712,147.381695 40.9806115,147.487347 41.3968706,147.54793 C41.3968706,147.54793 41.3968706,147.54793 41.3968706,147.54793 C43.1686309,147.805796 43.6205332,148.585607 43.7504296,150.147155 C43.8320338,151.128158 43.3917609,153.221796 42.429611,156.428069 C44.6088381,156.95292 46.2885324,157.185102 47.4686937,157.124615 C48.648855,157.064127 50.4794551,156.65203 52.9604939,155.888324 L52.9604939,147.012296 C51.6115557,149.043641 49.3597452,149.472617 46.2050623,148.299225 C47.0474833,146.811576 47.4686937,145.11189 47.4686937,143.200168 C47.5007808,143.264733 47.5007808,141.93559 47.4686937,139.212741 C50.793458,134.679121 51.8014931,132.926209 50.4927991,133.954005 L45.1695681,133.005425 L39.3499089,129.655673 Z" id="Path-16" fill="#FAC1C1" transform="translate(44.693646, 143.394832) scale(-1, 1) translate(-44.693646, -143.394832) "></path>
                <path d="M43.8780607,133.227154 C30.4129718,124.657781 27.0897085,119.502874 28.2127384,116.39469 C29.0124813,114.181261 31.704023,114.602432 36.2873636,117.658206 L36.2873627,117.658207 C40.899949,120.733479 46.5820589,121.756254 51.9774814,120.482415 L53.6270413,120.09296 C56.8990067,119.320462 60.1776925,121.34668 60.9501911,124.618645 C61.2029257,125.689119 61.1608996,126.808068 60.8285794,127.856568 C60.2433805,129.70299 59.9189361,130.958316 59.8552658,131.622553 C59.7722423,132.488692 60.0180095,134.220972 60.5925674,136.819396 L60.592567,136.819396 C61.6071722,141.407923 58.9206724,146.004678 54.4248453,147.37272 C51.5011761,148.262368 49.1629832,148.707192 47.4102665,148.707192 C42.6892155,148.707192 42.6317486,147.018079 42.8488143,143.349937 C43.0658799,139.681795 46.451877,142.013648 46.8170007,139.681795 C46.9876404,138.592009 47.1358411,137.363299 47.2616027,135.995665 L47.2616398,135.995668 C47.3583481,134.943984 46.6830344,133.975681 45.6627127,133.703036 L43.9520187,133.245913 C43.9274465,133.239347 43.9027919,133.233093 43.8780607,133.227154 Z" id="Path-17" fill="#2F2F36" transform="translate(44.853596, 131.853596) scale(-1, 1) translate(-44.853596, -131.853596) "></path>
                <mask id="mask-4" fill="white">
                    <use xlink:href="#path-3"></use>
                </mask>
                <use id="Path" fill="#C8BDF7" xlink:href="#path-3"></use>
                <path d="M50,225.315672 C54.1007471,230.308469 56.7107973,234.51379 57.8301507,237.931635 C59.5091808,243.058402 61.3959011,248.014588 57.0463489,262.530333 L63.2526423,263 L63.2526423,238.728421 L64,228.184882 L52.1439767,224 L50,225.315672 Z" id="Path-23" fill="#C0B4F3" mask="url(#mask-4)"></path>
                <mask id="mask-6" fill="white">
                    <use xlink:href="#path-5"></use>
                </mask>
                <use id="Path" fill="#FFFFFF" xlink:href="#path-5"></use>
                <path d="M51.1363527,184.495903 C45.6927614,193.822177 42.9711018,201.136835 43.0002319,206.505426 C43.0504688,215.763915 45.4623182,227.55165 49.7386206,233.385048 C50.0651461,233.830469 50.6909321,233.926852 51.1363527,233.600327 C51.5817734,233.273801 51.6781569,232.648015 51.3516314,232.202595 C47.3801466,226.785005 45.0483584,215.369549 45.0002025,206.494574 C44.9734624,201.566468 47.5849913,194.547793 52.8636473,185.504097 C53.1420521,185.027117 52.9810758,184.414758 52.5040966,184.136353 C52.0271174,183.857948 51.4147576,184.018924 51.1363527,184.495903 Z" id="Path-21" fill="#EEE9EF" fill-rule="nonzero" mask="url(#mask-6)" transform="translate(48.000082, 208.896863) scale(-1, 1) translate(-48.000082, -208.896863) "></path>
                <path d="M14.0543829,189.674718 C12.8369018,193.21402 11.4232077,199.19023 9.80338855,207.627913 C8.37262653,215.080792 11.3970924,226.938671 13.2764015,232.065404 C13.4094801,232.428441 13.5452212,232.783925 13.7217615,233.235648 C13.6884007,233.150286 14.0433465,234.054829 14.1310489,234.282303 C14.4274488,235.051074 14.6059189,235.571951 14.728867,236.052249 C14.8658262,236.587282 15.4105838,236.909985 15.9456171,236.773026 C16.4806504,236.636066 16.8033531,236.091309 16.6663938,235.556275 C16.5196868,234.983162 16.3194564,234.398778 15.9971551,233.562826 C15.9069354,233.328823 15.5490492,232.416786 15.5845559,232.507639 C15.4127255,232.067967 15.2816492,231.7247 15.1542125,231.377054 C13.3958644,226.580301 10.407636,215.088664 11.7675227,208.004976 C13.3707403,199.653772 14.7667425,193.752352 15.9456171,190.325282 C16.1252653,189.803032 15.8475318,189.234031 15.3252819,189.054383 C14.803032,188.874735 14.2340311,189.152468 14.0543829,189.674718 Z" id="Path-2" fill="#EEE9EF" fill-rule="nonzero" mask="url(#mask-6)"></path>
                <path d="M31,246 C33.6666667,252.181651 33.6666667,257.514984 31,262" id="Path-22" stroke="#C0B4F3" stroke-width="5" stroke-linecap="round" mask="url(#mask-6)"></path>
                <path d="M31,246 C33.6666667,252.181651 33.6666667,257.514984 31,262" id="Path-22" stroke="#C0B4F3" stroke-width="5" stroke-linecap="round" mask="url(#mask-6)"></path>
            </g>
        </g>
    </g>
</svg>