<?xml version="1.0" encoding="UTF-8"?>
<svg width="371px" height="307px" viewBox="0 0 371 307" version="1.1" xmlns="http://www.w3.org/2000/svg" xmlns:xlink="http://www.w3.org/1999/xlink">
    <!-- Generator: Sketch 54 (76480) - https://sketchapp.com -->
    <title>login-slider3</title>
    <desc>Created with Sketch.</desc>
    <defs>
        <path d="M57,0 L314,0 C345.480231,-5.78282457e-15 371,25.5197693 371,57 L371,199 C371,230.480231 345.480231,256 314,256 L57,256 C25.5197693,256 3.85521638e-15,230.480231 0,199 L7.10542736e-15,57 C3.25021098e-15,25.5197693 25.5197693,5.78282457e-15 57,0 Z" id="path-1"></path>
        <filter x="-4.0%" y="-5.9%" width="108.1%" height="111.7%" filterUnits="objectBoundingBox" id="filter-2">
            <feGaussianBlur stdDeviation="10" in="SourceAlpha" result="shadowBlurInner1"></feGaussianBlur>
            <feOffset dx="0" dy="10" in="shadowBlurInner1" result="shadowOffsetInner1"></feOffset>
            <feComposite in="shadowOffsetInner1" in2="SourceAlpha" operator="arithmetic" k2="-1" k3="1" result="shadowInnerInner1"></feComposite>
            <feColorMatrix values="0 0 0 0 0.159215243   0 0 0 0 0.11879948   0 0 0 0 0.302224864  0 0 0 0.4 0" type="matrix" in="shadowInnerInner1"></feColorMatrix>
        </filter>
        <path d="M19.2620506,114.096444 C11.5814311,126.382013 10.0255847,137.706826 14.5945111,148.070881 C19.853098,159.999347 57.1605952,158.673207 74.0298441,147.604185 C77.0450113,145.625736 76.1431089,137.814388 75.790856,131.652701 C75.6025542,128.358884 75.2730019,124.070844 74.802199,118.78858 L74.8022008,118.78858 C74.5811075,116.307981 72.8506133,114.221843 70.4535709,113.546238 C59.3464758,110.415711 51.1312867,108.700067 45.8080035,108.399305 C40.3013033,108.088181 32.6809537,109.102858 22.9469549,111.443336 L22.9469557,111.44334 C21.4185263,111.810841 20.0953706,112.763503 19.2620506,114.096444 Z" id="path-3"></path>
        <path d="M46.1489001,39.9983478 C45.6568588,39.8170052 45.2241089,39.726334 44.8506504,39.726334 C28.8926143,39.726334 15.8653748,46.4898675 7.86785136,58.7046674 C3.7541589,64.9346604 1.230114,72.6176259 0.295716648,81.7535639 C-1.49910287,99.3021581 5.41445113,110.002525 6.5855395,111.677936 C8.24118246,114.046574 11.2029932,117.322643 15.4709716,121.506142 L16.777523,119.373167 C19.4188915,115.061071 23.7522641,112.058909 28.7175109,111.101138 C38.5103342,109.212154 47.4295742,108.882982 55.4752309,110.113623 C65.6607319,111.671568 72.1700654,114.979015 75.0032314,120.035964 C77.4548129,116.695315 79.1139922,114.255212 79.9807694,112.715655 C81.760307,109.554868 82.7189664,106.058675 83.7223133,103.828131 C87.8982515,94.5445921 88.2373053,77.0049629 86.6810064,70.7144834 C82.1392779,52.3570513 73.1372776,47.8091619 71.4951584,46.4935221 C68.0287536,43.7162938 62.8455406,41.8561712 55.9455194,40.9131545 C55.6357908,40.8708243 55.2745324,40.8784664 54.8617441,40.9360808 L54.8617439,40.9360796 C51.9245593,41.3460335 48.9315853,41.0239105 46.1489001,39.9983478 Z" id="path-5"></path>
    </defs>
    <g id="login" stroke="none" stroke-width="1" fill="none" fill-rule="evenodd">
        <g id="login-slider3">
            <g id="Rectangle">
                <use fill="#564984" fill-rule="evenodd" xlink:href="#path-1"></use>
                <use fill="black" fill-opacity="1" filter="url(#filter-2)" xlink:href="#path-1"></use>
            </g>
            <ellipse id="Oval" fill="#1C143A" opacity="0.101716" cx="68" cy="294" rx="47" ry="13"></ellipse>
            <g id="illustration" transform="translate(22.000000, 26.000000)">
                <path d="M55.0612245,34.3673469 L91.9591837,34.3673469 C96.3774617,34.3673469 99.9591837,37.9490689 99.9591837,42.3673469 L99.9591837,132.523115 C99.9591837,136.941393 96.3774617,140.523115 91.9591837,140.523115 L55.0612245,140.523115 C50.6429465,140.523115 47.0612245,136.941393 47.0612245,132.523115 L47.0612245,42.3673469 C47.0612245,37.9490689 50.6429465,34.3673469 55.0612245,34.3673469 Z" id="Rectangle" fill="#FFFFFF" opacity="0.3"></path>
                <g id="card" transform="translate(54.775510, 42.000000)">
                    <g transform="translate(0.224490, 0.000000)">
                        <rect id="Rectangle" fill="#C0B4F3" fill-rule="nonzero" opacity="0.549316406" x="0" y="0" width="35.5324675" height="18" rx="2"></rect>
                        <g id="img" transform="translate(4.112846, 4.821429)" fill="#FFD6D6" fill-rule="nonzero">
                            <path d="M-5.73763259e-13,6.38779547 L-5.73985304e-13,2 C-5.74120574e-13,0.8954305 0.8954305,4.74934271e-13 2,4.74731365e-13 L7.54298241,4.74731365e-13 C8.64755191,4.74528459e-13 9.54298241,0.8954305 9.54298241,2 L9.54298241,5.19748103 L9.54298241,7.18546747 C9.54298241,8.29003697 8.64755191,9.18546747 7.54298241,9.18546747 L2,9.18546747 C0.8954305,9.18546747 1.11139164e-12,8.29003697 1.11910481e-12,7.18546747 L1.13983717e-12,6.38779547 Z" id="Combined-Shape"></path>
                        </g>
                        <path d="M16.7162753,8.07026675 L18.371945,6.62337506 C18.7130435,6.32528874 19.2238825,6.36879805 19.5129359,6.72055581 C20.1486037,7.49594296 21.2723675,7.59301218 22.0235402,6.93810632 C22.0658371,6.90123 22.1064429,6.86233906 22.1452253,6.82156032 L22.3482611,6.60807311 C22.7789565,6.15520738 23.4824458,6.14285459 23.9278419,6.58033676 L24.2193909,6.86670542 C25.0574425,7.6898663 26.3839,7.65656449 27.1821166,6.79232374 C27.2155225,6.75615467 27.2477024,6.71880208 27.2785983,6.68033329 C27.6176694,6.25815205 28.2244152,6.19936769 28.6338031,6.54903475 C28.6577322,6.56947312 28.6806876,6.59109441 28.7025886,6.61382267 L30.3966115,8.37183137 C30.6089523,8.59219259 30.9543133,8.59331518 31.1679969,8.37433875 C31.3816805,8.15536232 31.3827691,7.79920879 31.1704283,7.57884757 L29.4764054,5.82083888 C29.4296813,5.77234997 29.3807079,5.7262227 29.3296571,5.68261911 C28.4562613,4.93663283 27.1618183,5.06204448 26.4384377,5.96273387 C26.4236254,5.98117676 26.4081976,5.99908452 26.392182,6.01642487 C26.0094971,6.43076335 25.3735604,6.44672906 24.9717777,6.05208529 L24.6802287,5.76571664 C23.8030699,4.90414347 22.4176248,4.92847092 21.5694175,5.82034033 L21.3663817,6.03382755 C21.3513539,6.04962896 21.3356195,6.06469885 21.3192298,6.07898811 C21.0281569,6.33275845 20.5927082,6.29514497 20.3466278,5.99497605 C19.6666337,5.16746877 18.4674132,5.06532846 17.6666672,5.76510128 L16.0109974,7.21199297 C15.7811737,7.41283622 15.7527465,7.76778298 15.9475036,8.00478874 C16.1422607,8.2417945 16.4864515,8.27111 16.7162753,8.07026675 Z" id="Path-21" fill="#FFFFFF" fill-rule="nonzero"></path>
                        <path d="M16.8970797,11.526994 L17.8627232,10.9358006 C18.2572856,10.6942387 18.7649339,10.7978478 19.0405285,11.1761863 C19.5694062,11.9022337 20.5688884,12.0486733 21.2729344,11.5032681 C21.3621288,11.4341716 21.444045,11.3556123 21.5173368,11.2688811 L21.6904972,11.0639684 C22.0027396,10.6944704 22.5463224,10.6559657 22.9046234,10.9779656 C22.9269649,10.9980436 22.9482857,11.0192983 22.9685008,11.0416448 L23.098585,11.1854451 C23.9701123,12.1488655 25.3790068,12.3460757 26.4680253,11.6570831 L27.1895802,11.2005748 C27.4463547,11.0381205 27.5268071,10.6917635 27.3692756,10.4269648 C27.2117442,10.1621661 26.8758829,10.0791996 26.6191084,10.2416539 L25.8975535,10.6981622 C25.2507319,11.1073888 24.4139203,10.9902559 23.8962774,10.4180332 L23.7661931,10.2742329 C23.7203515,10.2235578 23.6720021,10.1753584 23.6213382,10.1298276 C22.8088178,9.39962725 21.5761333,9.48694455 20.8680603,10.3248562 L20.6948998,10.5297689 C20.6717552,10.5571576 20.6458871,10.5819657 20.6177206,10.6037855 C20.3953914,10.7760177 20.0797672,10.7297739 19.9127541,10.500497 C19.3027585,9.66309037 18.1791401,9.43376399 17.3058238,9.96843219 L16.3401803,10.5596256 C16.0811438,10.7182149 15.9958194,11.0633297 16.1496029,11.3304611 C16.3033864,11.5975925 16.6380432,11.6855833 16.8970797,11.526994 Z" id="Path-21" fill="#FFFFFF" fill-rule="nonzero"></path>
                    </g>
                    <g transform="translate(0.224490, 24.000000)">
                        <rect id="Rectangle" fill="#C0B4F3" fill-rule="nonzero" opacity="0.549316406" x="0" y="0" width="35.5324675" height="18" rx="2"></rect>
                        <g id="img" transform="translate(4.112846, 4.821429)" fill="#FFD6D6" fill-rule="nonzero">
                            <path d="M-5.73763259e-13,6.38779547 L-5.73985304e-13,2 C-5.74120574e-13,0.8954305 0.8954305,4.74934271e-13 2,4.74731365e-13 L7.54298241,4.74731365e-13 C8.64755191,4.74528459e-13 9.54298241,0.8954305 9.54298241,2 L9.54298241,5.19748103 L9.54298241,7.18546747 C9.54298241,8.29003697 8.64755191,9.18546747 7.54298241,9.18546747 L2,9.18546747 C0.8954305,9.18546747 1.11139164e-12,8.29003697 1.11910481e-12,7.18546747 L1.13983717e-12,6.38779547 Z" id="Combined-Shape"></path>
                        </g>
                        <path d="M16.7162753,8.07026675 L18.371945,6.62337506 C18.7130435,6.32528874 19.2238825,6.36879805 19.5129359,6.72055581 C20.1486037,7.49594296 21.2723675,7.59301218 22.0235402,6.93810632 C22.0658371,6.90123 22.1064429,6.86233906 22.1452253,6.82156032 L22.3482611,6.60807311 C22.7789565,6.15520738 23.4824458,6.14285459 23.9278419,6.58033676 L24.2193909,6.86670542 C25.0574425,7.6898663 26.3839,7.65656449 27.1821166,6.79232374 C27.2155225,6.75615467 27.2477024,6.71880208 27.2785983,6.68033329 C27.6176694,6.25815205 28.2244152,6.19936769 28.6338031,6.54903475 C28.6577322,6.56947312 28.6806876,6.59109441 28.7025886,6.61382267 L30.3966115,8.37183137 C30.6089523,8.59219259 30.9543133,8.59331518 31.1679969,8.37433875 C31.3816805,8.15536232 31.3827691,7.79920879 31.1704283,7.57884757 L29.4764054,5.82083888 C29.4296813,5.77234997 29.3807079,5.7262227 29.3296571,5.68261911 C28.4562613,4.93663283 27.1618183,5.06204448 26.4384377,5.96273387 C26.4236254,5.98117676 26.4081976,5.99908452 26.392182,6.01642487 C26.0094971,6.43076335 25.3735604,6.44672906 24.9717777,6.05208529 L24.6802287,5.76571664 C23.8030699,4.90414347 22.4176248,4.92847092 21.5694175,5.82034033 L21.3663817,6.03382755 C21.3513539,6.04962896 21.3356195,6.06469885 21.3192298,6.07898811 C21.0281569,6.33275845 20.5927082,6.29514497 20.3466278,5.99497605 C19.6666337,5.16746877 18.4674132,5.06532846 17.6666672,5.76510128 L16.0109974,7.21199297 C15.7811737,7.41283622 15.7527465,7.76778298 15.9475036,8.00478874 C16.1422607,8.2417945 16.4864515,8.27111 16.7162753,8.07026675 Z" id="Path-21" fill="#FFFFFF" fill-rule="nonzero"></path>
                        <path d="M16.8970797,11.526994 L17.8627232,10.9358006 C18.2572856,10.6942387 18.7649339,10.7978478 19.0405285,11.1761863 C19.5694062,11.9022337 20.5688884,12.0486733 21.2729344,11.5032681 C21.3621288,11.4341716 21.444045,11.3556123 21.5173368,11.2688811 L21.6904972,11.0639684 C22.0027396,10.6944704 22.5463224,10.6559657 22.9046234,10.9779656 C22.9269649,10.9980436 22.9482857,11.0192983 22.9685008,11.0416448 L23.098585,11.1854451 C23.9701123,12.1488655 25.3790068,12.3460757 26.4680253,11.6570831 L27.1895802,11.2005748 C27.4463547,11.0381205 27.5268071,10.6917635 27.3692756,10.4269648 C27.2117442,10.1621661 26.8758829,10.0791996 26.6191084,10.2416539 L25.8975535,10.6981622 C25.2507319,11.1073888 24.4139203,10.9902559 23.8962774,10.4180332 L23.7661931,10.2742329 C23.7203515,10.2235578 23.6720021,10.1753584 23.6213382,10.1298276 C22.8088178,9.39962725 21.5761333,9.48694455 20.8680603,10.3248562 L20.6948998,10.5297689 C20.6717552,10.5571576 20.6458871,10.5819657 20.6177206,10.6037855 C20.3953914,10.7760177 20.0797672,10.7297739 19.9127541,10.500497 C19.3027585,9.66309037 18.1791401,9.43376399 17.3058238,9.96843219 L16.3401803,10.5596256 C16.0811438,10.7182149 15.9958194,11.0633297 16.1496029,11.3304611 C16.3033864,11.5975925 16.6380432,11.6855833 16.8970797,11.526994 Z" id="Path-21" fill="#FFFFFF" fill-rule="nonzero"></path>
                    </g>
                    <g transform="translate(0.224490, 49.000000)">
                        <rect id="Rectangle" fill="#C0B4F3" fill-rule="nonzero" opacity="0.549316406" x="0" y="0" width="35.5324675" height="18" rx="2"></rect>
                        <g id="img" transform="translate(4.112846, 4.821429)" fill="#FFD6D6" fill-rule="nonzero">
                            <path d="M-5.73763259e-13,6.38779547 L-5.73985304e-13,2 C-5.74120574e-13,0.8954305 0.8954305,4.74934271e-13 2,4.74731365e-13 L7.54298241,4.74731365e-13 C8.64755191,4.74528459e-13 9.54298241,0.8954305 9.54298241,2 L9.54298241,5.19748103 L9.54298241,7.18546747 C9.54298241,8.29003697 8.64755191,9.18546747 7.54298241,9.18546747 L2,9.18546747 C0.8954305,9.18546747 1.11139164e-12,8.29003697 1.11910481e-12,7.18546747 L1.13983717e-12,6.38779547 Z" id="Combined-Shape"></path>
                        </g>
                        <path d="M16.7162753,8.07026675 L18.371945,6.62337506 C18.7130435,6.32528874 19.2238825,6.36879805 19.5129359,6.72055581 C20.1486037,7.49594296 21.2723675,7.59301218 22.0235402,6.93810632 C22.0658371,6.90123 22.1064429,6.86233906 22.1452253,6.82156032 L22.3482611,6.60807311 C22.7789565,6.15520738 23.4824458,6.14285459 23.9278419,6.58033676 L24.2193909,6.86670542 C25.0574425,7.6898663 26.3839,7.65656449 27.1821166,6.79232374 C27.2155225,6.75615467 27.2477024,6.71880208 27.2785983,6.68033329 C27.6176694,6.25815205 28.2244152,6.19936769 28.6338031,6.54903475 C28.6577322,6.56947312 28.6806876,6.59109441 28.7025886,6.61382267 L30.3966115,8.37183137 C30.6089523,8.59219259 30.9543133,8.59331518 31.1679969,8.37433875 C31.3816805,8.15536232 31.3827691,7.79920879 31.1704283,7.57884757 L29.4764054,5.82083888 C29.4296813,5.77234997 29.3807079,5.7262227 29.3296571,5.68261911 C28.4562613,4.93663283 27.1618183,5.06204448 26.4384377,5.96273387 C26.4236254,5.98117676 26.4081976,5.99908452 26.392182,6.01642487 C26.0094971,6.43076335 25.3735604,6.44672906 24.9717777,6.05208529 L24.6802287,5.76571664 C23.8030699,4.90414347 22.4176248,4.92847092 21.5694175,5.82034033 L21.3663817,6.03382755 C21.3513539,6.04962896 21.3356195,6.06469885 21.3192298,6.07898811 C21.0281569,6.33275845 20.5927082,6.29514497 20.3466278,5.99497605 C19.6666337,5.16746877 18.4674132,5.06532846 17.6666672,5.76510128 L16.0109974,7.21199297 C15.7811737,7.41283622 15.7527465,7.76778298 15.9475036,8.00478874 C16.1422607,8.2417945 16.4864515,8.27111 16.7162753,8.07026675 Z" id="Path-21" fill="#FFFFFF" fill-rule="nonzero"></path>
                        <path d="M16.8970797,11.526994 L17.8627232,10.9358006 C18.2572856,10.6942387 18.7649339,10.7978478 19.0405285,11.1761863 C19.5694062,11.9022337 20.5688884,12.0486733 21.2729344,11.5032681 C21.3621288,11.4341716 21.444045,11.3556123 21.5173368,11.2688811 L21.6904972,11.0639684 C22.0027396,10.6944704 22.5463224,10.6559657 22.9046234,10.9779656 C22.9269649,10.9980436 22.9482857,11.0192983 22.9685008,11.0416448 L23.098585,11.1854451 C23.9701123,12.1488655 25.3790068,12.3460757 26.4680253,11.6570831 L27.1895802,11.2005748 C27.4463547,11.0381205 27.5268071,10.6917635 27.3692756,10.4269648 C27.2117442,10.1621661 26.8758829,10.0791996 26.6191084,10.2416539 L25.8975535,10.6981622 C25.2507319,11.1073888 24.4139203,10.9902559 23.8962774,10.4180332 L23.7661931,10.2742329 C23.7203515,10.2235578 23.6720021,10.1753584 23.6213382,10.1298276 C22.8088178,9.39962725 21.5761333,9.48694455 20.8680603,10.3248562 L20.6948998,10.5297689 C20.6717552,10.5571576 20.6458871,10.5819657 20.6177206,10.6037855 C20.3953914,10.7760177 20.0797672,10.7297739 19.9127541,10.500497 C19.3027585,9.66309037 18.1791401,9.43376399 17.3058238,9.96843219 L16.3401803,10.5596256 C16.0811438,10.7182149 15.9958194,11.0633297 16.1496029,11.3304611 C16.3033864,11.5975925 16.6380432,11.6855833 16.8970797,11.526994 Z" id="Path-21" fill="#FFFFFF" fill-rule="nonzero"></path>
                    </g>
                    <g transform="translate(0.000000, 72.816327)">
                        <g>
                            <rect id="Rectangle" fill="#C0B4F3" fill-rule="nonzero" opacity="0.549316406" x="0" y="0" width="35.5324675" height="18" rx="9"></rect>
                            <g id="img" transform="translate(4.112846, 4.821429)" fill="#FFD6D6" fill-rule="nonzero">
                                <path d="M-5.73763259e-13,6.38779547 L-5.73985304e-13,2 C-5.74120574e-13,0.8954305 0.8954305,4.74934271e-13 2,4.74731365e-13 L7.54298241,4.74731365e-13 C8.64755191,4.74528459e-13 9.54298241,0.8954305 9.54298241,2 L9.54298241,5.19748103 L9.54298241,7.18546747 C9.54298241,8.29003697 8.64755191,9.18546747 7.54298241,9.18546747 L2,9.18546747 C0.8954305,9.18546747 1.11139164e-12,8.29003697 1.11910481e-12,7.18546747 L1.13983717e-12,6.38779547 Z" id="Combined-Shape"></path>
                            </g>
                            <path d="M16.7162753,8.07026675 L18.371945,6.62337506 C18.7130435,6.32528874 19.2238825,6.36879805 19.5129359,6.72055581 C20.1486037,7.49594296 21.2723675,7.59301218 22.0235402,6.93810632 C22.0658371,6.90123 22.1064429,6.86233906 22.1452253,6.82156032 L22.3482611,6.60807311 C22.7789565,6.15520738 23.4824458,6.14285459 23.9278419,6.58033676 L24.2193909,6.86670542 C25.0574425,7.6898663 26.3839,7.65656449 27.1821166,6.79232374 C27.2155225,6.75615467 27.2477024,6.71880208 27.2785983,6.68033329 C27.6176694,6.25815205 28.2244152,6.19936769 28.6338031,6.54903475 C28.6577322,6.56947312 28.6806876,6.59109441 28.7025886,6.61382267 L30.3966115,8.37183137 C30.6089523,8.59219259 30.9543133,8.59331518 31.1679969,8.37433875 C31.3816805,8.15536232 31.3827691,7.79920879 31.1704283,7.57884757 L29.4764054,5.82083888 C29.4296813,5.77234997 29.3807079,5.7262227 29.3296571,5.68261911 C28.4562613,4.93663283 27.1618183,5.06204448 26.4384377,5.96273387 C26.4236254,5.98117676 26.4081976,5.99908452 26.392182,6.01642487 C26.0094971,6.43076335 25.3735604,6.44672906 24.9717777,6.05208529 L24.6802287,5.76571664 C23.8030699,4.90414347 22.4176248,4.92847092 21.5694175,5.82034033 L21.3663817,6.03382755 C21.3513539,6.04962896 21.3356195,6.06469885 21.3192298,6.07898811 C21.0281569,6.33275845 20.5927082,6.29514497 20.3466278,5.99497605 C19.6666337,5.16746877 18.4674132,5.06532846 17.6666672,5.76510128 L16.0109974,7.21199297 C15.7811737,7.41283622 15.7527465,7.76778298 15.9475036,8.00478874 C16.1422607,8.2417945 16.4864515,8.27111 16.7162753,8.07026675 Z" id="Path-21" fill="#FFFFFF" fill-rule="nonzero"></path>
                            <path d="M16.8970797,11.526994 L17.8627232,10.9358006 C18.2572856,10.6942387 18.7649339,10.7978478 19.0405285,11.1761863 C19.5694062,11.9022337 20.5688884,12.0486733 21.2729344,11.5032681 C21.3621288,11.4341716 21.444045,11.3556123 21.5173368,11.2688811 L21.6904972,11.0639684 C22.0027396,10.6944704 22.5463224,10.6559657 22.9046234,10.9779656 C22.9269649,10.9980436 22.9482857,11.0192983 22.9685008,11.0416448 L23.098585,11.1854451 C23.9701123,12.1488655 25.3790068,12.3460757 26.4680253,11.6570831 L27.1895802,11.2005748 C27.4463547,11.0381205 27.5268071,10.6917635 27.3692756,10.4269648 C27.2117442,10.1621661 26.8758829,10.0791996 26.6191084,10.2416539 L25.8975535,10.6981622 C25.2507319,11.1073888 24.4139203,10.9902559 23.8962774,10.4180332 L23.7661931,10.2742329 C23.7203515,10.2235578 23.6720021,10.1753584 23.6213382,10.1298276 C22.8088178,9.39962725 21.5761333,9.48694455 20.8680603,10.3248562 L20.6948998,10.5297689 C20.6717552,10.5571576 20.6458871,10.5819657 20.6177206,10.6037855 C20.3953914,10.7760177 20.0797672,10.7297739 19.9127541,10.500497 C19.3027585,9.66309037 18.1791401,9.43376399 17.3058238,9.96843219 L16.3401803,10.5596256 C16.0811438,10.7182149 15.9958194,11.0633297 16.1496029,11.3304611 C16.3033864,11.5975925 16.6380432,11.6855833 16.8970797,11.526994 Z" id="Path-21" fill="#FFFFFF" fill-rule="nonzero"></path>
                        </g>
                    </g>
                    <g transform="translate(61.224490, 0.000000)">
                        <rect id="Rectangle" fill="#C0B4F3" fill-rule="nonzero" opacity="0.549316406" x="0" y="0" width="35.5324675" height="18" rx="2"></rect>
                        <g id="img" transform="translate(4.112846, 4.821429)" fill="#FFD6D6" fill-rule="nonzero">
                            <path d="M-5.73763259e-13,6.38779547 L-5.73985304e-13,2 C-5.74120574e-13,0.8954305 0.8954305,4.74934271e-13 2,4.74731365e-13 L7.54298241,4.74731365e-13 C8.64755191,4.74528459e-13 9.54298241,0.8954305 9.54298241,2 L9.54298241,5.19748103 L9.54298241,7.18546747 C9.54298241,8.29003697 8.64755191,9.18546747 7.54298241,9.18546747 L2,9.18546747 C0.8954305,9.18546747 1.11139164e-12,8.29003697 1.11910481e-12,7.18546747 L1.13983717e-12,6.38779547 Z" id="Combined-Shape"></path>
                        </g>
                        <path d="M16.7162753,8.07026675 L18.371945,6.62337506 C18.7130435,6.32528874 19.2238825,6.36879805 19.5129359,6.72055581 C20.1486037,7.49594296 21.2723675,7.59301218 22.0235402,6.93810632 C22.0658371,6.90123 22.1064429,6.86233906 22.1452253,6.82156032 L22.3482611,6.60807311 C22.7789565,6.15520738 23.4824458,6.14285459 23.9278419,6.58033676 L24.2193909,6.86670542 C25.0574425,7.6898663 26.3839,7.65656449 27.1821166,6.79232374 C27.2155225,6.75615467 27.2477024,6.71880208 27.2785983,6.68033329 C27.6176694,6.25815205 28.2244152,6.19936769 28.6338031,6.54903475 C28.6577322,6.56947312 28.6806876,6.59109441 28.7025886,6.61382267 L30.3966115,8.37183137 C30.6089523,8.59219259 30.9543133,8.59331518 31.1679969,8.37433875 C31.3816805,8.15536232 31.3827691,7.79920879 31.1704283,7.57884757 L29.4764054,5.82083888 C29.4296813,5.77234997 29.3807079,5.7262227 29.3296571,5.68261911 C28.4562613,4.93663283 27.1618183,5.06204448 26.4384377,5.96273387 C26.4236254,5.98117676 26.4081976,5.99908452 26.392182,6.01642487 C26.0094971,6.43076335 25.3735604,6.44672906 24.9717777,6.05208529 L24.6802287,5.76571664 C23.8030699,4.90414347 22.4176248,4.92847092 21.5694175,5.82034033 L21.3663817,6.03382755 C21.3513539,6.04962896 21.3356195,6.06469885 21.3192298,6.07898811 C21.0281569,6.33275845 20.5927082,6.29514497 20.3466278,5.99497605 C19.6666337,5.16746877 18.4674132,5.06532846 17.6666672,5.76510128 L16.0109974,7.21199297 C15.7811737,7.41283622 15.7527465,7.76778298 15.9475036,8.00478874 C16.1422607,8.2417945 16.4864515,8.27111 16.7162753,8.07026675 Z" id="Path-21" fill="#FFFFFF" fill-rule="nonzero"></path>
                        <path d="M16.8970797,11.526994 L17.8627232,10.9358006 C18.2572856,10.6942387 18.7649339,10.7978478 19.0405285,11.1761863 C19.5694062,11.9022337 20.5688884,12.0486733 21.2729344,11.5032681 C21.3621288,11.4341716 21.444045,11.3556123 21.5173368,11.2688811 L21.6904972,11.0639684 C22.0027396,10.6944704 22.5463224,10.6559657 22.9046234,10.9779656 C22.9269649,10.9980436 22.9482857,11.0192983 22.9685008,11.0416448 L23.098585,11.1854451 C23.9701123,12.1488655 25.3790068,12.3460757 26.4680253,11.6570831 L27.1895802,11.2005748 C27.4463547,11.0381205 27.5268071,10.6917635 27.3692756,10.4269648 C27.2117442,10.1621661 26.8758829,10.0791996 26.6191084,10.2416539 L25.8975535,10.6981622 C25.2507319,11.1073888 24.4139203,10.9902559 23.8962774,10.4180332 L23.7661931,10.2742329 C23.7203515,10.2235578 23.6720021,10.1753584 23.6213382,10.1298276 C22.8088178,9.39962725 21.5761333,9.48694455 20.8680603,10.3248562 L20.6948998,10.5297689 C20.6717552,10.5571576 20.6458871,10.5819657 20.6177206,10.6037855 C20.3953914,10.7760177 20.0797672,10.7297739 19.9127541,10.500497 C19.3027585,9.66309037 18.1791401,9.43376399 17.3058238,9.96843219 L16.3401803,10.5596256 C16.0811438,10.7182149 15.9958194,11.0633297 16.1496029,11.3304611 C16.3033864,11.5975925 16.6380432,11.6855833 16.8970797,11.526994 Z" id="Path-21" fill="#FFFFFF" fill-rule="nonzero"></path>
                    </g>
                    <g transform="translate(61.224490, 22.000000)">
                        <rect id="Rectangle" fill="#C0B4F3" fill-rule="nonzero" opacity="0.549316406" x="0" y="0" width="35.5324675" height="18" rx="2"></rect>
                        <g id="img" transform="translate(4.112846, 4.821429)" fill="#FFD6D6" fill-rule="nonzero">
                            <path d="M-5.73763259e-13,6.38779547 L-5.73985304e-13,2 C-5.74120574e-13,0.8954305 0.8954305,4.74934271e-13 2,4.74731365e-13 L7.54298241,4.74731365e-13 C8.64755191,4.74528459e-13 9.54298241,0.8954305 9.54298241,2 L9.54298241,5.19748103 L9.54298241,7.18546747 C9.54298241,8.29003697 8.64755191,9.18546747 7.54298241,9.18546747 L2,9.18546747 C0.8954305,9.18546747 1.11139164e-12,8.29003697 1.11910481e-12,7.18546747 L1.13983717e-12,6.38779547 Z" id="Combined-Shape"></path>
                        </g>
                        <path d="M16.7162753,8.07026675 L18.371945,6.62337506 C18.7130435,6.32528874 19.2238825,6.36879805 19.5129359,6.72055581 C20.1486037,7.49594296 21.2723675,7.59301218 22.0235402,6.93810632 C22.0658371,6.90123 22.1064429,6.86233906 22.1452253,6.82156032 L22.3482611,6.60807311 C22.7789565,6.15520738 23.4824458,6.14285459 23.9278419,6.58033676 L24.2193909,6.86670542 C25.0574425,7.6898663 26.3839,7.65656449 27.1821166,6.79232374 C27.2155225,6.75615467 27.2477024,6.71880208 27.2785983,6.68033329 C27.6176694,6.25815205 28.2244152,6.19936769 28.6338031,6.54903475 C28.6577322,6.56947312 28.6806876,6.59109441 28.7025886,6.61382267 L30.3966115,8.37183137 C30.6089523,8.59219259 30.9543133,8.59331518 31.1679969,8.37433875 C31.3816805,8.15536232 31.3827691,7.79920879 31.1704283,7.57884757 L29.4764054,5.82083888 C29.4296813,5.77234997 29.3807079,5.7262227 29.3296571,5.68261911 C28.4562613,4.93663283 27.1618183,5.06204448 26.4384377,5.96273387 C26.4236254,5.98117676 26.4081976,5.99908452 26.392182,6.01642487 C26.0094971,6.43076335 25.3735604,6.44672906 24.9717777,6.05208529 L24.6802287,5.76571664 C23.8030699,4.90414347 22.4176248,4.92847092 21.5694175,5.82034033 L21.3663817,6.03382755 C21.3513539,6.04962896 21.3356195,6.06469885 21.3192298,6.07898811 C21.0281569,6.33275845 20.5927082,6.29514497 20.3466278,5.99497605 C19.6666337,5.16746877 18.4674132,5.06532846 17.6666672,5.76510128 L16.0109974,7.21199297 C15.7811737,7.41283622 15.7527465,7.76778298 15.9475036,8.00478874 C16.1422607,8.2417945 16.4864515,8.27111 16.7162753,8.07026675 Z" id="Path-21" fill="#FFFFFF" fill-rule="nonzero"></path>
                        <path d="M16.8970797,11.526994 L17.8627232,10.9358006 C18.2572856,10.6942387 18.7649339,10.7978478 19.0405285,11.1761863 C19.5694062,11.9022337 20.5688884,12.0486733 21.2729344,11.5032681 C21.3621288,11.4341716 21.444045,11.3556123 21.5173368,11.2688811 L21.6904972,11.0639684 C22.0027396,10.6944704 22.5463224,10.6559657 22.9046234,10.9779656 C22.9269649,10.9980436 22.9482857,11.0192983 22.9685008,11.0416448 L23.098585,11.1854451 C23.9701123,12.1488655 25.3790068,12.3460757 26.4680253,11.6570831 L27.1895802,11.2005748 C27.4463547,11.0381205 27.5268071,10.6917635 27.3692756,10.4269648 C27.2117442,10.1621661 26.8758829,10.0791996 26.6191084,10.2416539 L25.8975535,10.6981622 C25.2507319,11.1073888 24.4139203,10.9902559 23.8962774,10.4180332 L23.7661931,10.2742329 C23.7203515,10.2235578 23.6720021,10.1753584 23.6213382,10.1298276 C22.8088178,9.39962725 21.5761333,9.48694455 20.8680603,10.3248562 L20.6948998,10.5297689 C20.6717552,10.5571576 20.6458871,10.5819657 20.6177206,10.6037855 C20.3953914,10.7760177 20.0797672,10.7297739 19.9127541,10.500497 C19.3027585,9.66309037 18.1791401,9.43376399 17.3058238,9.96843219 L16.3401803,10.5596256 C16.0811438,10.7182149 15.9958194,11.0633297 16.1496029,11.3304611 C16.3033864,11.5975925 16.6380432,11.6855833 16.8970797,11.526994 Z" id="Path-21" fill="#FFFFFF" fill-rule="nonzero"></path>
                    </g>
                    <g transform="translate(122.224490, 0.000000)">
                        <rect id="Rectangle" fill="#C0B4F3" fill-rule="nonzero" opacity="0.549316406" x="0" y="0" width="35.5324675" height="18" rx="2"></rect>
                        <g id="img" transform="translate(4.112846, 4.821429)" fill="#FFD6D6" fill-rule="nonzero">
                            <path d="M-5.73763259e-13,6.38779547 L-5.73985304e-13,2 C-5.74120574e-13,0.8954305 0.8954305,4.74934271e-13 2,4.74731365e-13 L7.54298241,4.74731365e-13 C8.64755191,4.74528459e-13 9.54298241,0.8954305 9.54298241,2 L9.54298241,5.19748103 L9.54298241,7.18546747 C9.54298241,8.29003697 8.64755191,9.18546747 7.54298241,9.18546747 L2,9.18546747 C0.8954305,9.18546747 1.11139164e-12,8.29003697 1.11910481e-12,7.18546747 L1.13983717e-12,6.38779547 Z" id="Combined-Shape"></path>
                        </g>
                        <path d="M16.7162753,8.07026675 L18.371945,6.62337506 C18.7130435,6.32528874 19.2238825,6.36879805 19.5129359,6.72055581 C20.1486037,7.49594296 21.2723675,7.59301218 22.0235402,6.93810632 C22.0658371,6.90123 22.1064429,6.86233906 22.1452253,6.82156032 L22.3482611,6.60807311 C22.7789565,6.15520738 23.4824458,6.14285459 23.9278419,6.58033676 L24.2193909,6.86670542 C25.0574425,7.6898663 26.3839,7.65656449 27.1821166,6.79232374 C27.2155225,6.75615467 27.2477024,6.71880208 27.2785983,6.68033329 C27.6176694,6.25815205 28.2244152,6.19936769 28.6338031,6.54903475 C28.6577322,6.56947312 28.6806876,6.59109441 28.7025886,6.61382267 L30.3966115,8.37183137 C30.6089523,8.59219259 30.9543133,8.59331518 31.1679969,8.37433875 C31.3816805,8.15536232 31.3827691,7.79920879 31.1704283,7.57884757 L29.4764054,5.82083888 C29.4296813,5.77234997 29.3807079,5.7262227 29.3296571,5.68261911 C28.4562613,4.93663283 27.1618183,5.06204448 26.4384377,5.96273387 C26.4236254,5.98117676 26.4081976,5.99908452 26.392182,6.01642487 C26.0094971,6.43076335 25.3735604,6.44672906 24.9717777,6.05208529 L24.6802287,5.76571664 C23.8030699,4.90414347 22.4176248,4.92847092 21.5694175,5.82034033 L21.3663817,6.03382755 C21.3513539,6.04962896 21.3356195,6.06469885 21.3192298,6.07898811 C21.0281569,6.33275845 20.5927082,6.29514497 20.3466278,5.99497605 C19.6666337,5.16746877 18.4674132,5.06532846 17.6666672,5.76510128 L16.0109974,7.21199297 C15.7811737,7.41283622 15.7527465,7.76778298 15.9475036,8.00478874 C16.1422607,8.2417945 16.4864515,8.27111 16.7162753,8.07026675 Z" id="Path-21" fill="#FFFFFF" fill-rule="nonzero"></path>
                        <path d="M16.8970797,11.526994 L17.8627232,10.9358006 C18.2572856,10.6942387 18.7649339,10.7978478 19.0405285,11.1761863 C19.5694062,11.9022337 20.5688884,12.0486733 21.2729344,11.5032681 C21.3621288,11.4341716 21.444045,11.3556123 21.5173368,11.2688811 L21.6904972,11.0639684 C22.0027396,10.6944704 22.5463224,10.6559657 22.9046234,10.9779656 C22.9269649,10.9980436 22.9482857,11.0192983 22.9685008,11.0416448 L23.098585,11.1854451 C23.9701123,12.1488655 25.3790068,12.3460757 26.4680253,11.6570831 L27.1895802,11.2005748 C27.4463547,11.0381205 27.5268071,10.6917635 27.3692756,10.4269648 C27.2117442,10.1621661 26.8758829,10.0791996 26.6191084,10.2416539 L25.8975535,10.6981622 C25.2507319,11.1073888 24.4139203,10.9902559 23.8962774,10.4180332 L23.7661931,10.2742329 C23.7203515,10.2235578 23.6720021,10.1753584 23.6213382,10.1298276 C22.8088178,9.39962725 21.5761333,9.48694455 20.8680603,10.3248562 L20.6948998,10.5297689 C20.6717552,10.5571576 20.6458871,10.5819657 20.6177206,10.6037855 C20.3953914,10.7760177 20.0797672,10.7297739 19.9127541,10.500497 C19.3027585,9.66309037 18.1791401,9.43376399 17.3058238,9.96843219 L16.3401803,10.5596256 C16.0811438,10.7182149 15.9958194,11.0633297 16.1496029,11.3304611 C16.3033864,11.5975925 16.6380432,11.6855833 16.8970797,11.526994 Z" id="Path-21" fill="#FFFFFF" fill-rule="nonzero"></path>
                    </g>
                    <g transform="translate(122.224490, 22.000000)">
                        <rect id="Rectangle" fill="#C0B4F3" fill-rule="nonzero" opacity="0.549316406" x="0" y="0" width="35.5324675" height="18" rx="2"></rect>
                        <g id="img" transform="translate(4.112846, 4.821429)" fill="#FFD6D6" fill-rule="nonzero">
                            <path d="M-5.73763259e-13,6.38779547 L-5.73985304e-13,2 C-5.74120574e-13,0.8954305 0.8954305,4.74934271e-13 2,4.74731365e-13 L7.54298241,4.74731365e-13 C8.64755191,4.74528459e-13 9.54298241,0.8954305 9.54298241,2 L9.54298241,5.19748103 L9.54298241,7.18546747 C9.54298241,8.29003697 8.64755191,9.18546747 7.54298241,9.18546747 L2,9.18546747 C0.8954305,9.18546747 1.11139164e-12,8.29003697 1.11910481e-12,7.18546747 L1.13983717e-12,6.38779547 Z" id="Combined-Shape"></path>
                        </g>
                        <path d="M16.7162753,8.07026675 L18.371945,6.62337506 C18.7130435,6.32528874 19.2238825,6.36879805 19.5129359,6.72055581 C20.1486037,7.49594296 21.2723675,7.59301218 22.0235402,6.93810632 C22.0658371,6.90123 22.1064429,6.86233906 22.1452253,6.82156032 L22.3482611,6.60807311 C22.7789565,6.15520738 23.4824458,6.14285459 23.9278419,6.58033676 L24.2193909,6.86670542 C25.0574425,7.6898663 26.3839,7.65656449 27.1821166,6.79232374 C27.2155225,6.75615467 27.2477024,6.71880208 27.2785983,6.68033329 C27.6176694,6.25815205 28.2244152,6.19936769 28.6338031,6.54903475 C28.6577322,6.56947312 28.6806876,6.59109441 28.7025886,6.61382267 L30.3966115,8.37183137 C30.6089523,8.59219259 30.9543133,8.59331518 31.1679969,8.37433875 C31.3816805,8.15536232 31.3827691,7.79920879 31.1704283,7.57884757 L29.4764054,5.82083888 C29.4296813,5.77234997 29.3807079,5.7262227 29.3296571,5.68261911 C28.4562613,4.93663283 27.1618183,5.06204448 26.4384377,5.96273387 C26.4236254,5.98117676 26.4081976,5.99908452 26.392182,6.01642487 C26.0094971,6.43076335 25.3735604,6.44672906 24.9717777,6.05208529 L24.6802287,5.76571664 C23.8030699,4.90414347 22.4176248,4.92847092 21.5694175,5.82034033 L21.3663817,6.03382755 C21.3513539,6.04962896 21.3356195,6.06469885 21.3192298,6.07898811 C21.0281569,6.33275845 20.5927082,6.29514497 20.3466278,5.99497605 C19.6666337,5.16746877 18.4674132,5.06532846 17.6666672,5.76510128 L16.0109974,7.21199297 C15.7811737,7.41283622 15.7527465,7.76778298 15.9475036,8.00478874 C16.1422607,8.2417945 16.4864515,8.27111 16.7162753,8.07026675 Z" id="Path-21" fill="#FFFFFF" fill-rule="nonzero"></path>
                        <path d="M16.8970797,11.526994 L17.8627232,10.9358006 C18.2572856,10.6942387 18.7649339,10.7978478 19.0405285,11.1761863 C19.5694062,11.9022337 20.5688884,12.0486733 21.2729344,11.5032681 C21.3621288,11.4341716 21.444045,11.3556123 21.5173368,11.2688811 L21.6904972,11.0639684 C22.0027396,10.6944704 22.5463224,10.6559657 22.9046234,10.9779656 C22.9269649,10.9980436 22.9482857,11.0192983 22.9685008,11.0416448 L23.098585,11.1854451 C23.9701123,12.1488655 25.3790068,12.3460757 26.4680253,11.6570831 L27.1895802,11.2005748 C27.4463547,11.0381205 27.5268071,10.6917635 27.3692756,10.4269648 C27.2117442,10.1621661 26.8758829,10.0791996 26.6191084,10.2416539 L25.8975535,10.6981622 C25.2507319,11.1073888 24.4139203,10.9902559 23.8962774,10.4180332 L23.7661931,10.2742329 C23.7203515,10.2235578 23.6720021,10.1753584 23.6213382,10.1298276 C22.8088178,9.39962725 21.5761333,9.48694455 20.8680603,10.3248562 L20.6948998,10.5297689 C20.6717552,10.5571576 20.6458871,10.5819657 20.6177206,10.6037855 C20.3953914,10.7760177 20.0797672,10.7297739 19.9127541,10.500497 C19.3027585,9.66309037 18.1791401,9.43376399 17.3058238,9.96843219 L16.3401803,10.5596256 C16.0811438,10.7182149 15.9958194,11.0633297 16.1496029,11.3304611 C16.3033864,11.5975925 16.6380432,11.6855833 16.8970797,11.526994 Z" id="Path-21" fill="#FFFFFF" fill-rule="nonzero"></path>
                    </g>
                    <g transform="translate(122.224490, 44.000000)">
                        <rect id="Rectangle" fill="#C0B4F3" fill-rule="nonzero" opacity="0.549316406" x="0" y="0" width="35.5324675" height="18" rx="2"></rect>
                        <g id="img" transform="translate(4.112846, 4.821429)" fill="#FFD6D6" fill-rule="nonzero">
                            <path d="M-5.73763259e-13,6.38779547 L-5.73985304e-13,2 C-5.74120574e-13,0.8954305 0.8954305,4.74934271e-13 2,4.74731365e-13 L7.54298241,4.74731365e-13 C8.64755191,4.74528459e-13 9.54298241,0.8954305 9.54298241,2 L9.54298241,5.19748103 L9.54298241,7.18546747 C9.54298241,8.29003697 8.64755191,9.18546747 7.54298241,9.18546747 L2,9.18546747 C0.8954305,9.18546747 1.11139164e-12,8.29003697 1.11910481e-12,7.18546747 L1.13983717e-12,6.38779547 Z" id="Combined-Shape"></path>
                        </g>
                        <path d="M16.7162753,8.07026675 L18.371945,6.62337506 C18.7130435,6.32528874 19.2238825,6.36879805 19.5129359,6.72055581 C20.1486037,7.49594296 21.2723675,7.59301218 22.0235402,6.93810632 C22.0658371,6.90123 22.1064429,6.86233906 22.1452253,6.82156032 L22.3482611,6.60807311 C22.7789565,6.15520738 23.4824458,6.14285459 23.9278419,6.58033676 L24.2193909,6.86670542 C25.0574425,7.6898663 26.3839,7.65656449 27.1821166,6.79232374 C27.2155225,6.75615467 27.2477024,6.71880208 27.2785983,6.68033329 C27.6176694,6.25815205 28.2244152,6.19936769 28.6338031,6.54903475 C28.6577322,6.56947312 28.6806876,6.59109441 28.7025886,6.61382267 L30.3966115,8.37183137 C30.6089523,8.59219259 30.9543133,8.59331518 31.1679969,8.37433875 C31.3816805,8.15536232 31.3827691,7.79920879 31.1704283,7.57884757 L29.4764054,5.82083888 C29.4296813,5.77234997 29.3807079,5.7262227 29.3296571,5.68261911 C28.4562613,4.93663283 27.1618183,5.06204448 26.4384377,5.96273387 C26.4236254,5.98117676 26.4081976,5.99908452 26.392182,6.01642487 C26.0094971,6.43076335 25.3735604,6.44672906 24.9717777,6.05208529 L24.6802287,5.76571664 C23.8030699,4.90414347 22.4176248,4.92847092 21.5694175,5.82034033 L21.3663817,6.03382755 C21.3513539,6.04962896 21.3356195,6.06469885 21.3192298,6.07898811 C21.0281569,6.33275845 20.5927082,6.29514497 20.3466278,5.99497605 C19.6666337,5.16746877 18.4674132,5.06532846 17.6666672,5.76510128 L16.0109974,7.21199297 C15.7811737,7.41283622 15.7527465,7.76778298 15.9475036,8.00478874 C16.1422607,8.2417945 16.4864515,8.27111 16.7162753,8.07026675 Z" id="Path-21" fill="#FFFFFF" fill-rule="nonzero"></path>
                        <path d="M16.8970797,11.526994 L17.8627232,10.9358006 C18.2572856,10.6942387 18.7649339,10.7978478 19.0405285,11.1761863 C19.5694062,11.9022337 20.5688884,12.0486733 21.2729344,11.5032681 C21.3621288,11.4341716 21.444045,11.3556123 21.5173368,11.2688811 L21.6904972,11.0639684 C22.0027396,10.6944704 22.5463224,10.6559657 22.9046234,10.9779656 C22.9269649,10.9980436 22.9482857,11.0192983 22.9685008,11.0416448 L23.098585,11.1854451 C23.9701123,12.1488655 25.3790068,12.3460757 26.4680253,11.6570831 L27.1895802,11.2005748 C27.4463547,11.0381205 27.5268071,10.6917635 27.3692756,10.4269648 C27.2117442,10.1621661 26.8758829,10.0791996 26.6191084,10.2416539 L25.8975535,10.6981622 C25.2507319,11.1073888 24.4139203,10.9902559 23.8962774,10.4180332 L23.7661931,10.2742329 C23.7203515,10.2235578 23.6720021,10.1753584 23.6213382,10.1298276 C22.8088178,9.39962725 21.5761333,9.48694455 20.8680603,10.3248562 L20.6948998,10.5297689 C20.6717552,10.5571576 20.6458871,10.5819657 20.6177206,10.6037855 C20.3953914,10.7760177 20.0797672,10.7297739 19.9127541,10.500497 C19.3027585,9.66309037 18.1791401,9.43376399 17.3058238,9.96843219 L16.3401803,10.5596256 C16.0811438,10.7182149 15.9958194,11.0633297 16.1496029,11.3304611 C16.3033864,11.5975925 16.6380432,11.6855833 16.8970797,11.526994 Z" id="Path-21" fill="#FFFFFF" fill-rule="nonzero"></path>
                    </g>
                    <g id="greencard" transform="translate(184.224490, 0.000000)">
                        <rect id="Rectangle" fill="#C0EDDB" fill-rule="nonzero" opacity="0.549316406" x="0" y="0" width="35.5324675" height="18" rx="2"></rect>
                        <g id="img" transform="translate(4.112846, 4.821429)" fill="#FFD6D6" fill-rule="nonzero">
                            <path d="M-5.73763259e-13,6.38779547 L-5.73985304e-13,2 C-5.74120574e-13,0.8954305 0.8954305,4.74934271e-13 2,4.74731365e-13 L7.54298241,4.74731365e-13 C8.64755191,4.74528459e-13 9.54298241,0.8954305 9.54298241,2 L9.54298241,5.19748103 L9.54298241,7.18546747 C9.54298241,8.29003697 8.64755191,9.18546747 7.54298241,9.18546747 L2,9.18546747 C0.8954305,9.18546747 1.11139164e-12,8.29003697 1.11910481e-12,7.18546747 L1.13983717e-12,6.38779547 Z" id="Combined-Shape"></path>
                        </g>
                        <path d="M16.7162753,8.07026675 L18.371945,6.62337506 C18.7130435,6.32528874 19.2238825,6.36879805 19.5129359,6.72055581 C20.1486037,7.49594296 21.2723675,7.59301218 22.0235402,6.93810632 C22.0658371,6.90123 22.1064429,6.86233906 22.1452253,6.82156032 L22.3482611,6.60807311 C22.7789565,6.15520738 23.4824458,6.14285459 23.9278419,6.58033676 L24.2193909,6.86670542 C25.0574425,7.6898663 26.3839,7.65656449 27.1821166,6.79232374 C27.2155225,6.75615467 27.2477024,6.71880208 27.2785983,6.68033329 C27.6176694,6.25815205 28.2244152,6.19936769 28.6338031,6.54903475 C28.6577322,6.56947312 28.6806876,6.59109441 28.7025886,6.61382267 L30.3966115,8.37183137 C30.6089523,8.59219259 30.9543133,8.59331518 31.1679969,8.37433875 C31.3816805,8.15536232 31.3827691,7.79920879 31.1704283,7.57884757 L29.4764054,5.82083888 C29.4296813,5.77234997 29.3807079,5.7262227 29.3296571,5.68261911 C28.4562613,4.93663283 27.1618183,5.06204448 26.4384377,5.96273387 C26.4236254,5.98117676 26.4081976,5.99908452 26.392182,6.01642487 C26.0094971,6.43076335 25.3735604,6.44672906 24.9717777,6.05208529 L24.6802287,5.76571664 C23.8030699,4.90414347 22.4176248,4.92847092 21.5694175,5.82034033 L21.3663817,6.03382755 C21.3513539,6.04962896 21.3356195,6.06469885 21.3192298,6.07898811 C21.0281569,6.33275845 20.5927082,6.29514497 20.3466278,5.99497605 C19.6666337,5.16746877 18.4674132,5.06532846 17.6666672,5.76510128 L16.0109974,7.21199297 C15.7811737,7.41283622 15.7527465,7.76778298 15.9475036,8.00478874 C16.1422607,8.2417945 16.4864515,8.27111 16.7162753,8.07026675 Z" id="Path-21" fill="#FFFFFF" fill-rule="nonzero"></path>
                        <path d="M16.8970797,11.526994 L17.8627232,10.9358006 C18.2572856,10.6942387 18.7649339,10.7978478 19.0405285,11.1761863 C19.5694062,11.9022337 20.5688884,12.0486733 21.2729344,11.5032681 C21.3621288,11.4341716 21.444045,11.3556123 21.5173368,11.2688811 L21.6904972,11.0639684 C22.0027396,10.6944704 22.5463224,10.6559657 22.9046234,10.9779656 C22.9269649,10.9980436 22.9482857,11.0192983 22.9685008,11.0416448 L23.098585,11.1854451 C23.9701123,12.1488655 25.3790068,12.3460757 26.4680253,11.6570831 L27.1895802,11.2005748 C27.4463547,11.0381205 27.5268071,10.6917635 27.3692756,10.4269648 C27.2117442,10.1621661 26.8758829,10.0791996 26.6191084,10.2416539 L25.8975535,10.6981622 C25.2507319,11.1073888 24.4139203,10.9902559 23.8962774,10.4180332 L23.7661931,10.2742329 C23.7203515,10.2235578 23.6720021,10.1753584 23.6213382,10.1298276 C22.8088178,9.39962725 21.5761333,9.48694455 20.8680603,10.3248562 L20.6948998,10.5297689 C20.6717552,10.5571576 20.6458871,10.5819657 20.6177206,10.6037855 C20.3953914,10.7760177 20.0797672,10.7297739 19.9127541,10.500497 C19.3027585,9.66309037 18.1791401,9.43376399 17.3058238,9.96843219 L16.3401803,10.5596256 C16.0811438,10.7182149 15.9958194,11.0633297 16.1496029,11.3304611 C16.3033864,11.5975925 16.6380432,11.6855833 16.8970797,11.526994 Z" id="Path-21" fill="#FFFFFF" fill-rule="nonzero"></path>
                    </g>
                    <g id="greencard" transform="translate(184.224490, 22.000000)">
                        <rect id="Rectangle" fill="#C0EDDB" fill-rule="nonzero" opacity="0.549316406" x="0" y="0" width="35.5324675" height="18" rx="2"></rect>
                        <g id="img" transform="translate(4.112846, 4.821429)" fill="#FFD6D6" fill-rule="nonzero">
                            <path d="M-5.73763259e-13,6.38779547 L-5.73985304e-13,2 C-5.74120574e-13,0.8954305 0.8954305,4.74934271e-13 2,4.74731365e-13 L7.54298241,4.74731365e-13 C8.64755191,4.74528459e-13 9.54298241,0.8954305 9.54298241,2 L9.54298241,5.19748103 L9.54298241,7.18546747 C9.54298241,8.29003697 8.64755191,9.18546747 7.54298241,9.18546747 L2,9.18546747 C0.8954305,9.18546747 1.11139164e-12,8.29003697 1.11910481e-12,7.18546747 L1.13983717e-12,6.38779547 Z" id="Combined-Shape"></path>
                        </g>
                        <path d="M16.7162753,8.07026675 L18.371945,6.62337506 C18.7130435,6.32528874 19.2238825,6.36879805 19.5129359,6.72055581 C20.1486037,7.49594296 21.2723675,7.59301218 22.0235402,6.93810632 C22.0658371,6.90123 22.1064429,6.86233906 22.1452253,6.82156032 L22.3482611,6.60807311 C22.7789565,6.15520738 23.4824458,6.14285459 23.9278419,6.58033676 L24.2193909,6.86670542 C25.0574425,7.6898663 26.3839,7.65656449 27.1821166,6.79232374 C27.2155225,6.75615467 27.2477024,6.71880208 27.2785983,6.68033329 C27.6176694,6.25815205 28.2244152,6.19936769 28.6338031,6.54903475 C28.6577322,6.56947312 28.6806876,6.59109441 28.7025886,6.61382267 L30.3966115,8.37183137 C30.6089523,8.59219259 30.9543133,8.59331518 31.1679969,8.37433875 C31.3816805,8.15536232 31.3827691,7.79920879 31.1704283,7.57884757 L29.4764054,5.82083888 C29.4296813,5.77234997 29.3807079,5.7262227 29.3296571,5.68261911 C28.4562613,4.93663283 27.1618183,5.06204448 26.4384377,5.96273387 C26.4236254,5.98117676 26.4081976,5.99908452 26.392182,6.01642487 C26.0094971,6.43076335 25.3735604,6.44672906 24.9717777,6.05208529 L24.6802287,5.76571664 C23.8030699,4.90414347 22.4176248,4.92847092 21.5694175,5.82034033 L21.3663817,6.03382755 C21.3513539,6.04962896 21.3356195,6.06469885 21.3192298,6.07898811 C21.0281569,6.33275845 20.5927082,6.29514497 20.3466278,5.99497605 C19.6666337,5.16746877 18.4674132,5.06532846 17.6666672,5.76510128 L16.0109974,7.21199297 C15.7811737,7.41283622 15.7527465,7.76778298 15.9475036,8.00478874 C16.1422607,8.2417945 16.4864515,8.27111 16.7162753,8.07026675 Z" id="Path-21" fill="#FFFFFF" fill-rule="nonzero"></path>
                        <path d="M16.8970797,11.526994 L17.8627232,10.9358006 C18.2572856,10.6942387 18.7649339,10.7978478 19.0405285,11.1761863 C19.5694062,11.9022337 20.5688884,12.0486733 21.2729344,11.5032681 C21.3621288,11.4341716 21.444045,11.3556123 21.5173368,11.2688811 L21.6904972,11.0639684 C22.0027396,10.6944704 22.5463224,10.6559657 22.9046234,10.9779656 C22.9269649,10.9980436 22.9482857,11.0192983 22.9685008,11.0416448 L23.098585,11.1854451 C23.9701123,12.1488655 25.3790068,12.3460757 26.4680253,11.6570831 L27.1895802,11.2005748 C27.4463547,11.0381205 27.5268071,10.6917635 27.3692756,10.4269648 C27.2117442,10.1621661 26.8758829,10.0791996 26.6191084,10.2416539 L25.8975535,10.6981622 C25.2507319,11.1073888 24.4139203,10.9902559 23.8962774,10.4180332 L23.7661931,10.2742329 C23.7203515,10.2235578 23.6720021,10.1753584 23.6213382,10.1298276 C22.8088178,9.39962725 21.5761333,9.48694455 20.8680603,10.3248562 L20.6948998,10.5297689 C20.6717552,10.5571576 20.6458871,10.5819657 20.6177206,10.6037855 C20.3953914,10.7760177 20.0797672,10.7297739 19.9127541,10.500497 C19.3027585,9.66309037 18.1791401,9.43376399 17.3058238,9.96843219 L16.3401803,10.5596256 C16.0811438,10.7182149 15.9958194,11.0633297 16.1496029,11.3304611 C16.3033864,11.5975925 16.6380432,11.6855833 16.8970797,11.526994 Z" id="Path-21" fill="#FFFFFF" fill-rule="nonzero"></path>
                    </g>
                    <g id="greencard" transform="translate(184.224490, 44.000000)">
                        <rect id="Rectangle" fill="#C0EDDB" fill-rule="nonzero" opacity="0.549316406" x="0" y="0" width="35.5324675" height="18" rx="2"></rect>
                        <g id="img" transform="translate(4.112846, 4.821429)" fill="#FFD6D6" fill-rule="nonzero">
                            <path d="M-5.73763259e-13,6.38779547 L-5.73985304e-13,2 C-5.74120574e-13,0.8954305 0.8954305,4.74934271e-13 2,4.74731365e-13 L7.54298241,4.74731365e-13 C8.64755191,4.74528459e-13 9.54298241,0.8954305 9.54298241,2 L9.54298241,5.19748103 L9.54298241,7.18546747 C9.54298241,8.29003697 8.64755191,9.18546747 7.54298241,9.18546747 L2,9.18546747 C0.8954305,9.18546747 1.11139164e-12,8.29003697 1.11910481e-12,7.18546747 L1.13983717e-12,6.38779547 Z" id="Combined-Shape"></path>
                        </g>
                        <path d="M16.7162753,8.07026675 L18.371945,6.62337506 C18.7130435,6.32528874 19.2238825,6.36879805 19.5129359,6.72055581 C20.1486037,7.49594296 21.2723675,7.59301218 22.0235402,6.93810632 C22.0658371,6.90123 22.1064429,6.86233906 22.1452253,6.82156032 L22.3482611,6.60807311 C22.7789565,6.15520738 23.4824458,6.14285459 23.9278419,6.58033676 L24.2193909,6.86670542 C25.0574425,7.6898663 26.3839,7.65656449 27.1821166,6.79232374 C27.2155225,6.75615467 27.2477024,6.71880208 27.2785983,6.68033329 C27.6176694,6.25815205 28.2244152,6.19936769 28.6338031,6.54903475 C28.6577322,6.56947312 28.6806876,6.59109441 28.7025886,6.61382267 L30.3966115,8.37183137 C30.6089523,8.59219259 30.9543133,8.59331518 31.1679969,8.37433875 C31.3816805,8.15536232 31.3827691,7.79920879 31.1704283,7.57884757 L29.4764054,5.82083888 C29.4296813,5.77234997 29.3807079,5.7262227 29.3296571,5.68261911 C28.4562613,4.93663283 27.1618183,5.06204448 26.4384377,5.96273387 C26.4236254,5.98117676 26.4081976,5.99908452 26.392182,6.01642487 C26.0094971,6.43076335 25.3735604,6.44672906 24.9717777,6.05208529 L24.6802287,5.76571664 C23.8030699,4.90414347 22.4176248,4.92847092 21.5694175,5.82034033 L21.3663817,6.03382755 C21.3513539,6.04962896 21.3356195,6.06469885 21.3192298,6.07898811 C21.0281569,6.33275845 20.5927082,6.29514497 20.3466278,5.99497605 C19.6666337,5.16746877 18.4674132,5.06532846 17.6666672,5.76510128 L16.0109974,7.21199297 C15.7811737,7.41283622 15.7527465,7.76778298 15.9475036,8.00478874 C16.1422607,8.2417945 16.4864515,8.27111 16.7162753,8.07026675 Z" id="Path-21" fill="#FFFFFF" fill-rule="nonzero"></path>
                        <path d="M16.8970797,11.526994 L17.8627232,10.9358006 C18.2572856,10.6942387 18.7649339,10.7978478 19.0405285,11.1761863 C19.5694062,11.9022337 20.5688884,12.0486733 21.2729344,11.5032681 C21.3621288,11.4341716 21.444045,11.3556123 21.5173368,11.2688811 L21.6904972,11.0639684 C22.0027396,10.6944704 22.5463224,10.6559657 22.9046234,10.9779656 C22.9269649,10.9980436 22.9482857,11.0192983 22.9685008,11.0416448 L23.098585,11.1854451 C23.9701123,12.1488655 25.3790068,12.3460757 26.4680253,11.6570831 L27.1895802,11.2005748 C27.4463547,11.0381205 27.5268071,10.6917635 27.3692756,10.4269648 C27.2117442,10.1621661 26.8758829,10.0791996 26.6191084,10.2416539 L25.8975535,10.6981622 C25.2507319,11.1073888 24.4139203,10.9902559 23.8962774,10.4180332 L23.7661931,10.2742329 C23.7203515,10.2235578 23.6720021,10.1753584 23.6213382,10.1298276 C22.8088178,9.39962725 21.5761333,9.48694455 20.8680603,10.3248562 L20.6948998,10.5297689 C20.6717552,10.5571576 20.6458871,10.5819657 20.6177206,10.6037855 C20.3953914,10.7760177 20.0797672,10.7297739 19.9127541,10.500497 C19.3027585,9.66309037 18.1791401,9.43376399 17.3058238,9.96843219 L16.3401803,10.5596256 C16.0811438,10.7182149 15.9958194,11.0633297 16.1496029,11.3304611 C16.3033864,11.5975925 16.6380432,11.6855833 16.8970797,11.526994 Z" id="Path-21" fill="#FFFFFF" fill-rule="nonzero"></path>
                    </g>
                    <g id="greencard" transform="translate(184.224490, 66.000000)">
                        <rect id="Rectangle" fill="#C0EDDB" fill-rule="nonzero" opacity="0.549316406" x="0" y="0" width="35.5324675" height="18" rx="2"></rect>
                        <g id="img" transform="translate(4.112846, 4.821429)" fill="#FFD6D6" fill-rule="nonzero">
                            <path d="M-5.73763259e-13,6.38779547 L-5.73985304e-13,2 C-5.74120574e-13,0.8954305 0.8954305,4.74934271e-13 2,4.74731365e-13 L7.54298241,4.74731365e-13 C8.64755191,4.74528459e-13 9.54298241,0.8954305 9.54298241,2 L9.54298241,5.19748103 L9.54298241,7.18546747 C9.54298241,8.29003697 8.64755191,9.18546747 7.54298241,9.18546747 L2,9.18546747 C0.8954305,9.18546747 1.11139164e-12,8.29003697 1.11910481e-12,7.18546747 L1.13983717e-12,6.38779547 Z" id="Combined-Shape"></path>
                        </g>
                        <path d="M16.7162753,8.07026675 L18.371945,6.62337506 C18.7130435,6.32528874 19.2238825,6.36879805 19.5129359,6.72055581 C20.1486037,7.49594296 21.2723675,7.59301218 22.0235402,6.93810632 C22.0658371,6.90123 22.1064429,6.86233906 22.1452253,6.82156032 L22.3482611,6.60807311 C22.7789565,6.15520738 23.4824458,6.14285459 23.9278419,6.58033676 L24.2193909,6.86670542 C25.0574425,7.6898663 26.3839,7.65656449 27.1821166,6.79232374 C27.2155225,6.75615467 27.2477024,6.71880208 27.2785983,6.68033329 C27.6176694,6.25815205 28.2244152,6.19936769 28.6338031,6.54903475 C28.6577322,6.56947312 28.6806876,6.59109441 28.7025886,6.61382267 L30.3966115,8.37183137 C30.6089523,8.59219259 30.9543133,8.59331518 31.1679969,8.37433875 C31.3816805,8.15536232 31.3827691,7.79920879 31.1704283,7.57884757 L29.4764054,5.82083888 C29.4296813,5.77234997 29.3807079,5.7262227 29.3296571,5.68261911 C28.4562613,4.93663283 27.1618183,5.06204448 26.4384377,5.96273387 C26.4236254,5.98117676 26.4081976,5.99908452 26.392182,6.01642487 C26.0094971,6.43076335 25.3735604,6.44672906 24.9717777,6.05208529 L24.6802287,5.76571664 C23.8030699,4.90414347 22.4176248,4.92847092 21.5694175,5.82034033 L21.3663817,6.03382755 C21.3513539,6.04962896 21.3356195,6.06469885 21.3192298,6.07898811 C21.0281569,6.33275845 20.5927082,6.29514497 20.3466278,5.99497605 C19.6666337,5.16746877 18.4674132,5.06532846 17.6666672,5.76510128 L16.0109974,7.21199297 C15.7811737,7.41283622 15.7527465,7.76778298 15.9475036,8.00478874 C16.1422607,8.2417945 16.4864515,8.27111 16.7162753,8.07026675 Z" id="Path-21" fill="#FFFFFF" fill-rule="nonzero"></path>
                        <path d="M16.8970797,11.526994 L17.8627232,10.9358006 C18.2572856,10.6942387 18.7649339,10.7978478 19.0405285,11.1761863 C19.5694062,11.9022337 20.5688884,12.0486733 21.2729344,11.5032681 C21.3621288,11.4341716 21.444045,11.3556123 21.5173368,11.2688811 L21.6904972,11.0639684 C22.0027396,10.6944704 22.5463224,10.6559657 22.9046234,10.9779656 C22.9269649,10.9980436 22.9482857,11.0192983 22.9685008,11.0416448 L23.098585,11.1854451 C23.9701123,12.1488655 25.3790068,12.3460757 26.4680253,11.6570831 L27.1895802,11.2005748 C27.4463547,11.0381205 27.5268071,10.6917635 27.3692756,10.4269648 C27.2117442,10.1621661 26.8758829,10.0791996 26.6191084,10.2416539 L25.8975535,10.6981622 C25.2507319,11.1073888 24.4139203,10.9902559 23.8962774,10.4180332 L23.7661931,10.2742329 C23.7203515,10.2235578 23.6720021,10.1753584 23.6213382,10.1298276 C22.8088178,9.39962725 21.5761333,9.48694455 20.8680603,10.3248562 L20.6948998,10.5297689 C20.6717552,10.5571576 20.6458871,10.5819657 20.6177206,10.6037855 C20.3953914,10.7760177 20.0797672,10.7297739 19.9127541,10.500497 C19.3027585,9.66309037 18.1791401,9.43376399 17.3058238,9.96843219 L16.3401803,10.5596256 C16.0811438,10.7182149 15.9958194,11.0633297 16.1496029,11.3304611 C16.3033864,11.5975925 16.6380432,11.6855833 16.8970797,11.526994 Z" id="Path-21" fill="#FFFFFF" fill-rule="nonzero"></path>
                    </g>
                </g>
                <path d="M115.60653,33.8275718 L152.504489,33.8275718 C156.922767,33.8275718 160.504489,37.4092938 160.504489,41.8275718 L160.504489,131.98334 C160.504489,136.401618 156.922767,139.98334 152.504489,139.98334 L115.60653,139.98334 C111.188252,139.98334 107.60653,136.401618 107.60653,131.98334 L107.60653,41.8275718 C107.60653,37.4092938 111.188252,33.8275718 115.60653,33.8275718 Z" id="Rectangle" fill="#FFFFFF" opacity="0.3"></path>
                <path d="M176.285714,34.3673469 L213.183673,34.3673469 C217.601951,34.3673469 221.183673,37.9490689 221.183673,42.3673469 L221.183673,132.523115 C221.183673,136.941393 217.601951,140.523115 213.183673,140.523115 L176.285714,140.523115 C171.867436,140.523115 168.285714,136.941393 168.285714,132.523115 L168.285714,42.3673469 C168.285714,37.9490689 171.867436,34.3673469 176.285714,34.3673469 Z" id="Rectangle" fill="#FFFFFF" opacity="0.3"></path>
                <path d="M239.102041,34.3673469 L276,34.3673469 C280.418278,34.3673469 284,37.9490689 284,42.3673469 L284,132.523115 C284,136.941393 280.418278,140.523115 276,140.523115 L239.102041,140.523115 C234.683763,140.523115 231.102041,136.941393 231.102041,132.523115 L231.102041,42.3673469 C231.102041,37.9490689 234.683763,34.3673469 239.102041,34.3673469 Z" id="Rectangle" fill="#5DE5AC" opacity="0.259988839"></path>
                <path d="M146.946732,167.959778 L148.012838,166.701589 C149.78032,164.615658 152.904128,164.357504 154.99006,166.124985 C155.166346,166.274359 155.331958,166.435891 155.485681,166.608397 C157.983189,169.411074 162.279838,169.658461 165.082514,167.160953 C165.363054,166.91096 165.62238,166.638134 165.857827,166.345281 L166.782264,165.195448 C167.647708,164.118993 169.221928,163.947935 170.298383,164.813378 C170.635301,165.084252 170.896251,165.437835 171.055772,165.83963 C171.968659,168.138968 174.572682,169.262909 176.87202,168.350022 C177.599225,168.061306 178.238124,167.587148 178.725111,166.974753 L178.980655,166.653403 C180.619393,164.592662 183.618413,164.250562 185.679154,165.8893 C185.812168,165.995075 185.939431,166.107888 186.060398,166.227254 L187.008641,167.162949 C189.417073,169.539509 193.296076,169.513673 195.672636,167.105241 C195.906871,166.867865 196.121333,166.611761 196.313885,166.339479 C197.38036,164.83141 199.467441,164.473428 200.975511,165.539903 C201.27076,165.748698 201.530193,166.003995 201.743705,166.295851 L203.762377,169.055241 C204.088465,169.500982 204.714156,169.59798 205.159897,169.271892 C205.605638,168.945803 205.702636,168.320112 205.376547,167.874371 L203.357875,165.114981 C203.01668,164.64859 202.602103,164.240623 202.13029,163.906966 C199.720375,162.202723 196.38519,162.774784 194.680947,165.1847 C194.551254,165.368095 194.406804,165.540594 194.249035,165.700478 C192.648303,167.322677 190.035602,167.340079 188.413404,165.739347 L187.465161,164.803652 C187.293445,164.634209 187.112792,164.474069 186.923974,164.323917 C183.998697,161.997684 179.741506,162.483305 177.415272,165.408582 L177.159729,165.729932 C176.890174,166.068903 176.536533,166.331357 176.134013,166.491166 C174.861293,166.996463 173.419926,166.374344 172.914628,165.101624 C172.627536,164.37851 172.157903,163.742163 171.551548,163.254668 C169.614241,161.697121 166.781102,162.004976 165.223554,163.942283 L164.299117,165.092116 C164.132947,165.298801 163.949924,165.491351 163.75193,165.667786 C161.773907,167.430433 158.741495,167.255836 156.978848,165.277813 C156.76302,165.035614 156.5305,164.808822 156.282994,164.599101 C153.35434,162.117552 148.968504,162.480002 146.486955,165.408655 L145.420848,166.666844 C145.063814,167.088205 145.115961,167.719219 145.537323,168.076253 C145.958684,168.433287 146.589698,168.381139 146.946732,167.959778 Z" id="Path-12" fill-opacity="0.3" fill="#FFFFFF" opacity="0.631217448"></path>
                <path d="M211.985408,151.235197 L212.804131,150.210646 C213.986763,148.7307 216.145207,148.48968 217.625153,149.672311 C217.801898,149.813548 217.964236,149.971926 218.109794,150.145129 C220.262809,152.707041 224.085012,153.038518 226.646924,150.885504 C226.749246,150.799513 226.848694,150.710161 226.945107,150.617593 L228.344993,149.273525 C229.987175,147.696823 232.596597,147.749905 234.1733,149.392087 C234.276301,149.499366 234.373422,149.612141 234.464235,149.729917 L234.845735,150.224688 C236.486761,152.352945 239.542369,152.747924 241.670627,151.106898 C242.018589,150.838596 242.32861,150.524401 242.592234,150.172881 C244.003711,148.290797 246.622748,147.805853 248.614524,149.057785 L251.807399,151.06467 C252.274988,151.358573 252.892299,151.217773 253.186202,150.750184 C253.480106,150.282596 253.339306,149.665284 252.871717,149.371381 L249.678842,147.364496 C246.805873,145.55869 243.028135,146.258181 240.992199,148.972928 C240.836927,149.17997 240.654327,149.365028 240.44938,149.523056 C239.195855,150.489606 237.396128,150.256967 236.429578,149.003441 L236.048077,148.508671 C235.913202,148.333751 235.76896,148.166258 235.615983,148.006928 C233.274279,145.567974 229.398789,145.489137 226.959834,147.830842 L225.559948,149.174909 C225.495359,149.236923 225.428735,149.296783 225.360187,149.354391 C223.643885,150.79676 221.083276,150.574693 219.640907,148.858392 C219.410479,148.5842 219.153488,148.333479 218.87369,148.109891 C216.530844,146.237712 213.11389,146.619263 211.241711,148.962109 L210.422988,149.986661 C210.078214,150.418111 210.148479,151.047365 210.579929,151.392139 C211.01138,151.736913 211.640634,151.666648 211.985408,151.235197 Z" id="Path-12" fill-opacity="0.3" fill="#FFFFFF" opacity="0.631217448"></path>
                <path d="M90.3348372,3.07817374 L88.7909982,1.87880426 C85.7460385,-0.486747919 81.380976,-0.0488298846 78.8666104,2.87445286 L78.4459809,3.36349031 C78.2000725,3.64939128 77.8921203,3.87535828 77.5456105,4.02415764 C76.2888366,4.56384555 74.8325166,3.98253252 74.2928287,2.72575864 C74.0258466,2.10403617 73.6220268,1.55056468 73.1114497,1.10657221 C71.2370903,-0.52335107 68.396308,-0.32519646 66.7663847,1.54916292 L65.789925,2.67206019 C65.6944202,2.78188765 65.5941257,2.88745653 65.4893329,2.98846009 C63.5177691,4.88873399 60.3790246,4.83094213 58.4787507,2.85937836 C58.3767518,2.75355293 58.2714987,2.65091303 58.1631429,2.55160636 C55.2658127,-0.103758963 50.7644635,0.0923923654 48.1090982,2.98972261 L47.0608968,4.13343925 C46.6877442,4.54059469 46.7153089,5.17315937 47.1224643,5.54631202 C47.5296198,5.91946466 48.1621845,5.89189994 48.5353371,5.4847445 L49.5835385,4.34102786 C51.4925985,2.25800849 54.7288183,2.11698659 56.8118377,4.02604663 C56.8897394,4.09744261 56.9654106,4.17123499 57.0387421,4.24731759 C59.7055537,7.01417613 64.1104136,7.09528023 66.8772721,4.42846866 C67.0243365,4.28672201 67.1650881,4.13856848 67.2991179,3.98443851 L68.2755776,2.86154123 C69.1806943,1.82068607 70.7582162,1.71064834 71.7990714,2.61576509 C72.0826012,2.86231965 72.3068474,3.16966928 72.4551059,3.51491953 C73.4306353,5.78663969 76.0630512,6.83740988 78.3347714,5.86188044 C78.9611158,5.59291361 79.5177643,5.18446002 79.9622634,4.66767095 L80.3828929,4.17863351 C82.2022438,2.0633974 85.3607265,1.74652759 87.5640059,3.45819965 L89.1078449,4.65756913 C91.3189505,6.37532118 94.039154,7.30778842 96.8390933,7.30778842 C97.4224165,7.30778842 97.8952934,6.83491157 97.8952934,6.2515884 C97.8952934,5.67988793 97.4404099,5.2119643 96.8689377,5.19581012 C96.699906,5.19103198 96.5394874,5.22848606 96.3978059,5.29860507 C94.1988155,5.20703239 92.0786361,4.43288701 90.3348372,3.07817374 Z" id="Path-12" fill-opacity="0.3" fill="#FFFFFF" opacity="0.631217448"></path>
                <path d="M136.777986,21.6554332 L135.234147,20.4560637 C132.189187,18.0905116 127.824125,18.5284296 125.309759,21.4517123 L124.88913,21.9407498 C124.643221,22.2266508 124.335269,22.4526178 123.988759,22.6014171 C122.731985,23.141105 121.275665,22.559792 120.735977,21.3030181 C120.468995,20.6812956 120.065175,20.1278242 119.554598,19.6838317 C117.680239,18.0539084 114.839457,18.252063 113.209533,20.1264224 L112.233074,21.2493197 C112.137569,21.3591471 112.037274,21.464716 111.932482,21.5657196 C109.960918,23.4659935 106.822173,23.4082016 104.921899,21.4366378 C104.8199,21.3308124 104.714647,21.2281725 104.606292,21.1288658 C101.708961,18.4735005 97.2076122,18.6696518 94.5522469,21.5669821 L93.5040455,22.7106987 C93.1308929,23.1178542 93.1584576,23.7504188 93.565613,24.1235715 C93.9727685,24.4967241 94.6053332,24.4691594 94.9784858,24.062004 L96.0266872,22.9182873 C97.9357472,20.835268 101.171967,20.6942461 103.254986,22.6033061 C103.332888,22.6747021 103.408559,22.7484945 103.481891,22.8245771 C106.148702,25.5914356 110.553562,25.6725397 113.320421,23.0057281 C113.467485,22.8639815 113.608237,22.715828 113.742267,22.561698 L114.718726,21.4388007 C115.623843,20.3979455 117.201365,20.2879078 118.24222,21.1930246 C118.52575,21.4395791 118.749996,21.7469288 118.898255,22.092179 C119.873784,24.3638992 122.5062,25.4146694 124.77792,24.4391399 C125.404264,24.1701731 125.960913,23.7617195 126.405412,23.2449304 L126.826042,22.755893 C128.645392,20.6406569 131.803875,20.3237871 134.007155,22.0354591 L135.550994,23.2348286 C137.762099,24.9525807 140.482303,25.8850479 143.282242,25.8850479 C143.865565,25.8850479 144.338442,25.412171 144.338442,24.8288479 C144.338442,24.2571474 143.883559,23.7892238 143.312086,23.7730696 C143.143055,23.7682915 142.982636,23.8057455 142.840955,23.8758645 C140.641964,23.7842919 138.521785,23.0101465 136.777986,21.6554332 Z" id="Path-12" fill-opacity="0.3" fill="#FFFFFF" opacity="0.631217448"></path>
                <g id="Group-4" transform="translate(0.315401, 118.136610)">
                    <path d="M47.4647579,14.6556734 L46.1420753,20.3735809 L45.5809367,20.6129677 C45.0729537,20.8296331 44.8367941,21.4170767 45.0534595,21.9250598 C45.0920597,22.0155599 45.143805,22.0998678 45.2070229,22.1752584 C45.4100796,22.4174139 45.511608,22.6151934 45.511608,22.7685971 C45.511608,23.0450682 45.3140304,23.7054872 44.9188752,24.749854 L44.9188299,24.7498369 C43.7843728,27.7481257 45.2953069,31.0983782 48.2935957,32.2328353 C48.6870203,32.3816947 49.0954606,32.4873468 49.5117197,32.5479302 C49.5117197,32.5479302 49.5117197,32.5479302 49.5117197,32.5479302 C51.28348,32.8057965 51.7353822,33.5856074 51.8652787,35.1471546 C51.9468829,36.1281578 51.50661,38.2217958 50.54446,41.4280686 C52.7236872,41.95292 54.4033814,42.185102 55.5835428,42.1246146 C56.7637041,42.0641273 58.5943042,41.6520304 61.075343,40.888324 L61.075343,32.0122962 C59.7264047,34.043641 57.4745942,34.4726174 54.3199114,33.2992253 C55.1623323,31.8115757 55.5835428,30.11189 55.5835428,28.2001684 C55.6156298,28.2647327 55.6156298,26.9355903 55.5835428,24.2127412 C58.9083071,19.679121 59.9163422,17.926209 58.6076481,18.9540052 L53.2844171,18.0054248 L47.4647579,14.6556734 Z" id="Path-16" fill="#FAC1C1" transform="translate(52.808495, 28.394832) scale(-1, 1) translate(-52.808495, -28.394832) "></path>
                    <mask id="mask-4" fill="white">
                        <use xlink:href="#path-3"></use>
                    </mask>
                    <use id="Path" fill="#C8BDF7" xlink:href="#path-3"></use>
                    <path d="M62.5990717,110.84794 C66.6965602,115.779607 69.3045364,119.93344 70.4230003,123.309439 C72.1006962,128.373437 74.7690962,138.151334 70.4230003,152.489356 L77.0450113,147.606965 L75.841183,124.09647 L73.9859172,116.136773 L64.7413447,109.548375 L62.5990717,110.84794 Z" id="Path-23" fill="#C0B4F3" mask="url(#mask-4)"></path>
                    <mask id="mask-6" fill="white">
                        <use xlink:href="#path-5"></use>
                    </mask>
                    <use id="Path" fill="#FFFFFF" xlink:href="#path-5"></use>
                    <path d="M87.8486641,89.1058118 C88.0801861,81.0029918 86.9617226,74.1649109 85.9958279,70.0854778 C81.6286025,51.6406058 74.856117,47.071054 73.2770916,45.7491475 C72.907472,45.4397146 83.1380773,64.7391995 82.7737567,83.6660223 C82.6111473,92.1137433 87.895611,97.3809645 89.0453194,97.5406982 C90.442128,97.7347626 87.7789009,91.5473882 87.8486641,89.1058118 Z" id="Path" fill="#F6F4F7" mask="url(#mask-6)"></path>
                    <path d="M76.2323597,74.0546049 C69.6653889,83.2123234 66.37927,90.4009039 66.4146686,95.7110161 C66.47537,104.816771 68.2966625,111.710057 73.4577433,117.440569 C73.8273455,117.85095 74.4596469,117.884008 74.870028,117.514406 C75.2804091,117.144804 75.3134669,116.512502 74.9438647,116.102121 C70.1760259,110.808238 68.4723708,104.360189 68.4146242,95.6976839 C68.3827646,90.9184721 71.516889,84.062389 77.8576629,75.2201046 C78.1795068,74.7712895 78.0765763,74.146547 77.6277612,73.8247031 C77.1789461,73.5028593 76.5542036,73.6057898 76.2323597,74.0546049 Z" id="Path-21" fill="#EEE9EF" fill-rule="nonzero" mask="url(#mask-6)" transform="translate(72.229737, 95.704316) scale(-1, 1) translate(-72.229737, -95.704316) "></path>
                    <path d="M21.9246408,75.5232015 C20.7522533,79.0188035 19.3908574,84.921497 17.8309375,93.255513 C16.453417,100.615043 16.9347603,105.604584 18.7441717,110.667203 C18.8723239,111.025764 19.0030432,111.376875 19.1730547,111.823046 C19.1409229,111.738721 19.4827624,112.632201 19.5672293,112.856901 C19.8527472,113.616436 20.0246777,114.131092 20.1431677,114.605844 C20.2769062,115.141691 20.8197128,115.467665 21.3555602,115.333926 C21.8914076,115.200188 22.2173813,114.657381 22.0836429,114.121534 C21.9424382,113.555772 21.7496563,112.978699 21.4393262,112.153158 C21.3524429,111.922031 21.0077806,111.021172 21.0419725,111.110904 C20.8764811,110.676595 20.7502385,110.337509 20.6274983,109.99409 C18.9336179,105.25472 18.4867485,100.622531 19.7967975,93.623473 C21.3408639,85.374156 22.6853815,79.5446428 23.8208346,76.1591646 C23.996451,75.6355451 23.7143387,75.0687025 23.1907193,74.8930861 C22.6670998,74.7174698 22.1002572,74.999582 21.9246408,75.5232015 Z" id="Path-2" fill="#EEE9EF" fill-rule="nonzero" mask="url(#mask-6)"></path>
                    <path d="M51.9929097,18.2271545 C38.5278208,9.65778085 35.2045575,4.50287374 36.3275874,1.39469027 C37.1273303,-0.818739342 39.8188721,-0.39756752 44.4022127,2.65820574 L44.4022117,2.65820718 C49.0147981,5.73347897 54.6969079,6.75625392 60.0923305,5.48241524 L61.7418904,5.09296044 C65.0138558,4.3204619 68.2925416,6.34668011 69.0650401,9.61864547 C69.3177747,10.6891186 69.2757486,11.8080682 68.9434285,12.8565676 C68.3582295,14.7029898 68.0337851,15.9583164 67.9701149,16.6225534 C67.8870914,17.4886916 68.1328586,19.2209725 68.7074165,21.8193962 L68.7074161,21.8193962 C69.7220213,26.4079231 67.0355215,31.0046776 62.5396944,32.3727203 C59.6160252,33.2623684 57.2778322,33.7071924 55.5251156,33.7071924 C50.8040646,33.7071924 50.7465977,32.0180793 50.9636633,28.3499372 C51.180729,24.6817952 54.5667261,27.0136483 54.9318498,24.6817952 C55.1024895,23.5920094 55.2506901,22.3632993 55.3764518,20.9956649 L55.3764889,20.9956683 C55.4731971,19.9439842 54.7978835,18.9756812 53.7775618,18.703036 L52.0668677,18.2459128 C52.0422956,18.2393468 52.0176409,18.2330935 51.9929097,18.2271545 Z" id="Path-17" fill="#2F2F36" transform="translate(52.968445, 16.853596) scale(-1, 1) translate(-52.968445, -16.853596) "></path>
                </g>
            </g>
        </g>
    </g>
</svg>