<?xml version="1.0" encoding="UTF-8"?>
<svg width="371px" height="307px" viewBox="0 0 371 307" version="1.1" xmlns="http://www.w3.org/2000/svg" xmlns:xlink="http://www.w3.org/1999/xlink">
    <!-- Generator: Sketch 54 (76480) - https://sketchapp.com -->
    <title>Group 7</title>
    <desc>Created with Sketch.</desc>
    <defs>
        <path d="M57,0 L314,0 C345.480231,-5.78282457e-15 371,25.5197693 371,57 L371,199 C371,230.480231 345.480231,256 314,256 L57,256 C25.5197693,256 3.85521638e-15,230.480231 0,199 L7.10542736e-15,57 C3.25021098e-15,25.5197693 25.5197693,5.78282457e-15 57,0 Z" id="path-1"></path>
        <filter x="-4.0%" y="-5.9%" width="108.1%" height="111.7%" filterUnits="objectBoundingBox" id="filter-2">
            <feGaussianBlur stdDeviation="10" in="SourceAlpha" result="shadowBlurInner1"></feGaussianBlur>
            <feOffset dx="0" dy="10" in="shadowBlurInner1" result="shadowOffsetInner1"></feOffset>
            <feComposite in="shadowOffsetInner1" in2="SourceAlpha" operator="arithmetic" k2="-1" k3="1" result="shadowInnerInner1"></feComposite>
            <feColorMatrix values="0 0 0 0 0.159215243   0 0 0 0 0.11879948   0 0 0 0 0.302224864  0 0 0 0.7 0" type="matrix" in="shadowInnerInner1"></feColorMatrix>
        </filter>
        <path d="M23.2977035,63.9445061 C15.3069153,74.802173 15.5426986,89.5333464 24.0050535,108.138026 L24.0050219,108.138041 C24.1403944,108.43566 24.4127079,108.648308 24.7342653,108.707502 L29.0310313,109.498475 C32.0840827,98.4690501 34.58048,90.9978937 36.5202234,87.0850058 C38.1740621,83.7488503 40.6542076,80.2675707 43.96066,76.641167 L43.960666,76.6411725 C44.7048741,75.8249506 45.9698526,75.7665718 46.7860745,76.5107799 C47.2246548,76.9106651 47.4629728,77.4846885 47.43658,78.0776171 C47.1267501,85.0381263 47.2259581,90.6892309 47.7342043,95.0309311 C48.3657204,100.425667 49.8539662,105.722697 52.1989418,110.92202 L89.4427341,103.266406 C80.9342949,87.8825042 78.0731888,79.0499816 80.8594159,76.7688377 C84.8241105,73.5228574 106.375915,75.9306682 116.696427,58.1444451 C127.016938,40.3582221 123.580896,28.9221789 122.082862,18.4788954 L116.696427,16.966992 C115.721136,22.3534973 111.809948,29.3934084 104.962861,38.0867255 C95.2430202,50.4273986 87.5610793,50.2898273 78.3031572,52.1662194 C77.7785434,52.2725479 73.3121561,55.170884 66.6328238,54.4505019 C65.9242333,54.3740787 61.6187021,53.2482585 60.8938898,53.2648602 C50.466287,53.5037016 31.0742333,53.3779678 23.2977035,63.9445061 Z" id="path-3"></path>
        <path d="M91.3000941,104.718658 C101.923292,115.791916 106.652584,131.676348 105.487969,152.371955 C103.917699,163.922476 102.220182,171.93989 100.395418,176.424197 C95.7454124,187.851454 87.9476742,195.561245 84.7593962,199.113799 C82.1222965,202.052199 77.6024607,202.296452 74.6640603,199.659352 C73.4240295,198.546473 72.6116699,197.035408 72.3673374,195.387234 C70.1445902,180.39374 68.9540423,169.166007 68.7956484,161.704043 C68.6908503,156.766987 68.9747799,150.505696 69.6474373,142.920171 C69.7450019,141.81992 68.9321653,140.848897 67.8319142,140.751331 C66.8309233,140.662566 65.9194996,141.330356 65.7024598,142.311557 C65.4621107,143.398135 65.2227501,144.530463 64.9843779,145.70854 C63.5747506,152.675166 60.8042435,162.528512 53.0401369,172.427754 C50.8499911,175.220192 46.5200076,178.975555 40.0501862,183.693844 C37.4502502,185.589953 33.8755535,185.396847 31.4949886,183.231712 L31.8738177,183.576261 C28.8077513,180.78766 27.0321068,176.854751 26.9682042,172.710722 C26.7626313,159.379502 31.3658411,149.634191 40.7778335,143.474788 C42.901117,142.085268 40.4282818,136.209398 43.1632577,124.031533 C43.8983795,120.7583 46.9102742,116.388463 52.1989418,110.92202 L85.5908446,103.033143 C87.6581177,102.544747 89.8295442,103.185807 91.3000941,104.718658 Z" id="path-5"></path>
        <path d="M37.0122787,184.928205 C35.0644619,185.20482 33.0311163,184.628827 31.4949886,183.231712 L31.8738177,183.576261 C28.8077513,180.78766 27.0321068,176.854751 26.9682042,172.710722 C26.7626313,159.379502 31.3658411,149.634191 40.7778335,143.474788 C42.901117,142.085268 40.4282818,136.209398 43.1632577,124.031533 C43.8983795,120.7583 46.9102742,116.388463 52.1989418,110.92202 L56.7274453,109.852156 C51.7771608,116.240452 48.5544362,121.167632 47.0592712,124.633694 C44.5221558,130.515187 45.4431021,137.083241 43.573316,142.650605 C42.6558659,145.38235 39.6155922,147.617281 37.9878719,149.909774 C27.0159485,165.362708 26.4437759,175.876266 37.0122787,184.928205 Z" id="path-7"></path>
    </defs>
    <g id="login" stroke="none" stroke-width="1" fill="none" fill-rule="evenodd">
        <g id="Group-7">
            <g id="Rectangle">
                <use fill="#564984" fill-rule="evenodd" xlink:href="#path-1"></use>
                <use fill="black" fill-opacity="1" filter="url(#filter-2)" xlink:href="#path-1"></use>
            </g>
            <ellipse id="Oval" fill="#1C143A" opacity="0.101716" cx="105" cy="294" rx="47" ry="13"></ellipse>
            <g id="Group-3" transform="translate(47.000000, 31.000000)">
                <g id="Group-2" transform="translate(53.429304, 0.156997)">
                    <path d="M20.0165829,27.6900437 L120.210889,27.6900437 C130.152015,27.6900437 138.210889,35.7489182 138.210889,45.6900437 L138.210889,85.2718928 C138.210889,95.2130183 130.152015,103.271893 120.210889,103.271893 L20.0165829,103.271893 C10.0754574,103.271893 2.01658286,95.2130183 2.01658286,85.2718928 L2.01658286,45.6900437 C2.01658286,35.7489182 10.0754574,27.6900437 20.0165829,27.6900437 Z" id="Rectangle" fill="#FFD6D6" opacity="0.081543"></path>
                    <path d="M24.0899945,41.8047264 L116.137478,41.8047264 C120.555756,41.8047264 124.137478,45.3864484 124.137478,49.8047264 L124.137478,81.3950598 C124.137478,85.8133378 120.555756,89.3950598 116.137478,89.3950598 L24.0899945,89.3950598 C19.6717165,89.3950598 16.0899945,85.8133378 16.0899945,81.3950598 L16.0899945,49.8047264 C16.0899945,45.3864484 19.6717165,41.8047264 24.0899945,41.8047264 Z" id="Rectangle" fill="#C8BDF7" opacity="0.401749"></path>
                    <g id="img" transform="translate(24.531558, 50.910973)" fill-rule="nonzero">
                        <path d="M22.4666654,-4.20996571e-13 L4.51693234,-4.20996571e-13 C3.68069242,-4.20996571e-13 3,0.726127051 3,1.61818405 L3,22.5463543 C3,23.4384112 3.68069242,24.1645383 4.51693234,24.1645383 L22.4666654,24.1645383 C23.3029053,24.1645383 23.9835977,23.4384112 23.9835977,22.5463543 L23.9835977,1.61818405 C23.9835977,0.726065868 23.3029053,-4.20996571e-13 22.4666654,-4.20996571e-13 Z" id="Shape" fill="#C0B4F3" opacity="0.549316406"></path>
                        <path d="M12.4956747,12.2557806 L17.3172571,8.35133953 L21.0652082,10.95804 L21.0652082,5.9496119 C21.0652082,4.29275765 19.7220625,2.9496119 18.0652082,2.9496119 L8.94594164,2.9496119 C7.28908739,2.9496119 5.94594164,4.29275765 5.94594164,5.9496119 L5.94594164,12.7921107 L8.88433819,9.58384607 L12.4956747,12.2557806 Z" id="Shape" fill="#FFFFFF"></path>
                        <path d="M15.1933074,9.33861928 L14.2976723,10.2401403 C13.3069493,11.2373742 11.6953918,11.2426523 10.6981579,10.2519293 C10.6954346,10.2492238 10.6927175,10.2465121 10.6900064,10.2437943 L10.6900064,10.2437943 C9.86792196,9.41965294 8.53339222,9.41798549 7.70925085,10.24007 C7.6136933,10.335389 7.52751245,10.4396664 7.45189553,10.5514655 L5.94594164,12.7780087 L5.94594164,14.1028441 C5.94594164,15.7596983 7.28908739,17.1028441 8.94594164,17.1028441 L18.0652082,17.1028441 C19.7220625,17.1028441 21.0652082,15.7596983 21.0652082,14.1028441 L21.0652082,10.95804 L19.4455332,9.33431242 C18.2754251,8.16127662 16.3759316,8.15890327 15.2028958,9.32901139 C15.1996924,9.33220679 15.1964963,9.33540942 15.1933074,9.33861928 Z" id="Shape" fill="#FFD6D6"></path>
                        <ellipse id="Oval" fill="#C8BDF7" cx="12.7320853" cy="6.40750385" rx="1.48444295" ry="1.48981391"></ellipse>
                    </g>
                    <g id="img" transform="translate(151.000000, 16.000000)" fill="#FFD6D6" fill-rule="nonzero">
                        <path d="M3.45978019,7.485586 L3.37945196,7.42632699 L3.30374053,7.50875019 C3.35552593,7.49926252 3.40757142,7.49154111 3.45978019,7.485586 Z M0.143197127,10.949474 L0.143197127,3.14096096 C0.143197127,1.48410671 1.48634288,0.140960959 3.14319713,0.140960959 L13.7950679,0.140960959 C15.4519222,0.140960959 16.7950679,1.48410671 16.7950679,3.14096096 L16.7950679,8.93539428 L16.7950679,12.683294 C16.7950679,14.3401482 15.4519222,15.683294 13.7950679,15.683294 L3.14319713,15.683294 C1.48634288,15.683294 0.143197127,14.3401482 0.143197127,12.683294 L0.143197127,10.949474 Z" id="Combined-Shape"></path>
                        <ellipse id="Oval" cx="7.6172361" cy="3.9382355" rx="1.63491741" ry="1.63603506"></ellipse>
                    </g>
                    <g id="img" transform="translate(145.000000, 90.000000)" fill="#DAD2F9" fill-rule="nonzero">
                        <path d="M4.76032186,6.47531535 L8.19642083,4.79553332 L10.8673969,5.58462142 L10.8673969,3.0881006 C10.8673969,1.43124635 9.52425113,0.0881005991 7.86739688,0.0881005991 L3.09265696,0.0881005991 C1.43580271,0.0881005991 0.0926569644,1.43124635 0.0926569644,3.0881006 L0.0926569644,6.84342123 L2.18670421,4.64145437 L4.76032186,6.47531535 Z" id="Shape"></path>
                        <path d="M6.47837135,4.6713101 L6.04461267,5.09180186 C5.32854868,5.78596436 4.19098097,5.78711593 3.47351304,5.09440459 L3.47351304,5.09440459 C2.86561083,4.50747836 1.897011,4.52448275 1.31008477,5.13238496 C1.25494282,5.18949761 1.20432963,5.25081539 1.15870371,5.31578281 L0.0926569644,6.83374247 L0.0926569644,6.83374247 C0.0926569644,8.47309828 1.42161743,9.80205874 3.06097324,9.80205874 L7.86739688,9.80205874 C9.52425113,9.80205874 10.8673969,8.45891299 10.8673969,6.80205874 L10.8673969,5.58462142 L9.91783878,4.66782831 C8.95805194,3.74115941 7.43628008,3.7426999 6.47837135,4.6713101 Z" id="Shape"></path>
                    </g>
                    <path d="M55.1346591,57.2279144 L56.1460515,56.1237545 C57.9737138,54.1284544 61.0728372,53.9925571 63.0681373,55.8202194 C63.1434187,55.8891759 63.2165264,55.9604685 63.2873533,56.0339929 C65.8725306,58.7176284 70.1437472,58.7974444 72.8273827,56.2122671 C72.970909,56.0740065 73.1082391,55.9294547 73.238969,55.7790369 L74.1806677,54.6955187 C75.0408615,53.7057799 76.5405283,53.600763 77.530267,54.4609569 C77.8001577,54.6955221 78.0135823,54.9880174 78.1546101,55.3166098 C79.1030089,57.5263643 81.663198,58.548895 83.8729525,57.6004962 C84.482848,57.3387367 85.0248314,56.9410138 85.4574836,56.437722 L85.7737137,56.0698607 C87.4621767,54.1057204 90.4231967,53.8822399 92.387337,55.5707029 C92.4226435,55.6010539 92.457496,55.6319291 92.4918831,55.663318 L93.4951563,56.5791187 C95.9559018,58.825319 99.7716352,58.6513957 102.017835,56.1906502 C102.136002,56.0611966 102.248471,55.9266546 102.354922,55.7874071 C103.451779,54.35262 105.504082,54.0786734 106.938869,55.17553 C107.154748,55.3405638 107.349215,55.531862 107.517772,55.7450008 L109.452556,58.1915108 C109.795139,58.6247028 110.424029,58.6981558 110.857221,58.3555728 C111.290413,58.0129897 111.363866,57.3840998 111.021283,56.9509078 L109.086499,54.5043978 C108.814851,54.1609022 108.501448,53.8526053 108.153536,53.5866362 C105.841227,51.8189374 102.533727,52.260431 100.766029,54.5727399 C100.694869,54.6658231 100.619686,54.7557609 100.540695,54.8422972 C99.0391695,56.4872405 96.4884526,56.6035036 94.8435093,55.1019782 L93.8402361,54.1861774 C93.7911845,54.1414026 93.7414689,54.0973606 93.6911058,54.0540662 C90.8893503,51.6455515 86.6655917,51.9643363 84.257077,54.7660918 L83.940847,55.1339531 C83.7069301,55.4060618 83.4139024,55.6210939 83.0841575,55.7626163 C81.8894361,56.2753757 80.5052494,55.7225363 79.99249,54.5278148 C79.7326682,53.9224343 79.3394665,53.3835571 78.8422349,52.9514071 C77.0187948,51.3666334 74.2558916,51.5601108 72.6711179,53.3835509 L71.7294193,54.4670691 C71.6374414,54.5728988 71.5408198,54.6746014 71.4398387,54.7718776 C69.5517084,56.5907356 66.5466007,56.5345793 64.7277427,54.646449 C64.6280031,54.5429107 64.5250516,54.4425152 64.4190391,54.3454094 C61.609224,51.7716647 57.2449864,51.9630375 54.6712416,54.7728527 L53.6598491,55.8770126 C53.2868079,56.2842701 53.3145457,56.9168272 53.7218032,57.2898685 C54.1290607,57.6629097 54.7616178,57.6351719 55.1346591,57.2279144 Z" id="Path-12" fill="#FFFFFF" fill-rule="nonzero"></path>
                    <path d="M99.4519453,120.828539 L100.463338,119.724379 C102.291,117.729079 105.390123,117.593182 107.385424,119.420844 C107.460705,119.489801 107.533813,119.561093 107.60464,119.634618 C110.189817,122.318253 114.461033,122.398069 117.144669,119.812892 C117.288195,119.674631 117.425525,119.53008 117.556255,119.379662 L118.497954,118.296144 C119.358148,117.306405 120.857814,117.201388 121.847553,118.061582 C122.117444,118.296147 122.330869,118.588642 122.471896,118.917235 C123.420295,121.126989 125.980484,122.14952 128.190239,121.201121 C128.800134,120.939362 129.342118,120.541639 129.77477,120.038347 L130.091,119.670486 C131.779463,117.706345 134.740483,117.482865 136.704623,119.171328 C136.73993,119.201679 136.774782,119.232554 136.809169,119.263943 L137.812443,120.179744 C140.273188,122.425944 144.088921,122.252021 146.335122,119.791275 C146.453289,119.661821 146.565758,119.527279 146.672209,119.388032 C147.769065,117.953245 149.821368,117.679298 151.256155,118.776155 C151.472034,118.941189 151.666501,119.132487 151.835058,119.345626 L153.769842,121.792136 C154.112426,122.225328 154.741315,122.298781 155.174507,121.956198 C155.607699,121.613615 155.681152,120.984725 155.338569,120.551533 L153.403785,118.105023 C153.132137,117.761527 152.818734,117.45323 152.470822,117.187261 C150.158514,115.419562 146.851014,115.861056 145.083315,118.173365 C145.012155,118.266448 144.936973,118.356386 144.857981,118.442922 C143.356456,120.087865 140.805739,120.204129 139.160796,118.702603 L138.157522,117.786802 C138.108471,117.742027 138.058755,117.697985 138.008392,117.654691 C135.206637,115.246176 130.982878,115.564961 128.574363,118.366717 L128.258133,118.734578 C128.024216,119.006687 127.731189,119.221719 127.401444,119.363241 C126.206722,119.876001 124.822536,119.323161 124.309776,118.12844 C124.049954,117.523059 123.656753,116.984182 123.159521,116.552032 C121.336081,114.967258 118.573178,115.160736 116.988404,116.984176 L116.046705,118.067694 C115.954728,118.173524 115.858106,118.275226 115.757125,118.372503 C113.868995,120.19136 110.863887,120.135204 109.045029,118.247074 C108.945289,118.143536 108.842338,118.04314 108.736325,117.946034 C105.92651,115.37229 101.562273,115.563662 98.9885278,118.373478 L97.9771354,119.477637 C97.6040941,119.884895 97.6318319,120.517452 98.0390894,120.890493 C98.4463469,121.263535 99.0789041,121.235797 99.4519453,120.828539 Z" id="Path-12" fill="#FFFFFF" fill-rule="nonzero" opacity="0.3"></path>
                    <path d="M42.1716532,17.376086 L40.6814875,16.2177779 C37.7291219,13.9228995 33.4955774,14.3476348 31.0579367,17.1832718 L30.6522137,17.6552377 C30.4182968,17.9273464 30.1252691,18.1423785 29.7955242,18.2839009 C28.6008028,18.7966603 27.2166161,18.2438209 26.7038567,17.0490994 C26.4440349,16.4437189 26.0508333,15.9048417 25.5536016,15.4726917 C23.7301615,13.887918 20.9672583,14.0813954 19.3824846,15.9048355 L18.440786,16.9883537 C18.3488081,17.0941834 18.2521865,17.195886 18.1512054,17.2931622 C16.2630751,19.1120202 13.2579674,19.0558639 11.4391094,17.1677336 C11.3393698,17.0641953 11.2364183,16.9637997 11.1304058,16.866694 C8.32059068,14.2929493 3.95635307,14.4843221 1.38260831,17.2941373 L0.371215855,18.3982972 C-0.00182537587,18.8055547 0.0259124036,19.4381118 0.43316992,19.811153 C0.840427436,20.1841943 1.47298455,20.1564565 1.84602578,19.749199 L2.85741823,18.6450391 C4.68508054,16.6497389 7.78420391,16.5138416 9.77950403,18.341504 C9.85478541,18.4104605 9.92789309,18.4817531 9.99872,18.5552775 C12.5838973,21.2389129 16.855114,21.318729 19.5387494,18.7335517 C19.6822757,18.5952911 19.8196058,18.4507393 19.9503357,18.3003215 L20.8920344,17.2168033 C21.7522283,16.2270645 23.251895,16.1220476 24.2416338,16.9822415 C24.5115244,17.2168067 24.724949,17.5093019 24.8659768,17.8378944 C25.8143756,20.0476489 28.3745647,21.0701796 30.5843192,20.1217808 C31.1942147,19.8600213 31.7361982,19.4622983 32.1688503,18.9590066 L32.5745734,18.4870406 C34.3171478,16.4599542 37.3435438,16.1563275 39.4540749,17.7968467 L40.9442405,18.9551548 C43.0833318,20.6178738 45.7154195,21.5205269 48.4247268,21.5205269 C49.0069747,21.5205269 49.4789799,21.0485217 49.4789799,20.4662738 C49.4789799,19.8956335 49.0249448,19.4285751 48.4545325,19.4124421 C48.2886761,19.4077511 48.1311116,19.4437208 47.9914033,19.511313 C45.8804313,19.42149 43.8454849,18.677158 42.1716532,17.376086 Z" id="Path-12" fill="#FFFFFF" fill-rule="nonzero" opacity="0.3"></path>
                    <path d="M88.5584646,1.67001797 L87.7729944,1.05947075 C86.0177442,-0.30488801 83.5008031,-0.0523729852 82.0515689,1.6334794 L81.8377112,1.88225387 C81.7614037,1.97102016 81.6658133,2.04116712 81.5582452,2.08733401 C81.1685076,2.25460447 80.7169634,2.07425926 80.549693,1.68452172 C80.3846516,1.29997785 80.1348859,0.95767763 79.8190393,0.68317156 C78.6607717,-0.323492726 76.9057476,-0.200593946 75.8990833,0.957673668 L75.4027115,1.52879893 C75.3633926,1.57403926 75.3220886,1.61751531 75.2789209,1.65909919 C74.4717787,2.43662874 73.1871484,2.4126229 72.4096188,1.60548066 C72.3502094,1.54380861 72.2888869,1.48400853 72.2257411,1.42616801 C70.5520892,-0.106869793 67.9525536,0.00712045971 66.4195158,1.68077236 L65.8864082,2.26277794 C65.513367,2.67003545 65.5411047,3.30259257 65.9483623,3.6756338 C66.3556198,4.04867503 66.9881769,4.02093725 67.3612181,3.61367974 L67.8943257,3.03167416 C68.6812811,2.17253729 70.0157024,2.1140226 70.8748393,2.90097794 C70.907254,2.93066925 70.9387327,2.96136647 70.9692294,2.99302462 C72.5130783,4.59567199 75.0638175,4.64333755 76.6664649,3.09948863 C76.7521778,3.01692041 76.8341903,2.93059513 76.9122613,2.84076674 L77.4086331,2.26964148 C77.6907176,1.94507517 78.1825052,1.91063684 78.5070715,2.19272132 C78.5955771,2.26964259 78.6655657,2.36556094 78.7118131,2.47331668 C79.314723,3.87808726 80.9422695,4.52812379 82.3470401,3.92521391 C82.7347589,3.75880989 83.079305,3.50597208 83.3543478,3.18602273 L83.5682055,2.93724827 C84.3223735,2.05994647 85.632166,1.92854002 86.5455818,2.63853954 L87.331052,3.24908676 C88.5415628,4.1900187 90.0310601,4.70082973 91.5642559,4.70082973 C92.1323343,4.70082973 92.5928529,4.24031118 92.5928529,3.67223276 C92.5928529,3.11547948 92.149867,2.65978743 91.5933363,2.64404696 C91.4767165,2.64074857 91.3641962,2.65755287 91.2591003,2.69131792 C90.2790912,2.63015592 89.3374275,2.27550704 88.5584646,1.67001797 Z" id="Path-12" fill="#FFFFFF" fill-rule="nonzero" opacity="0.3"></path>
                    <path d="M55.7103227,67.536476 L56.8896008,65.5570963 C57.4756682,64.5734014 58.7482119,64.2510606 59.7319068,64.837128 C59.9374595,64.9595924 60.1202625,65.1167136 60.2722203,65.3015331 L60.9019807,66.0674824 C62.4179123,67.9112422 65.1414803,68.1769994 66.9852401,66.6610678 C67.0141998,66.6371162 67.0141998,66.6371162 67.0428799,66.6128305 L67.3466932,66.3540519 C68.0524575,65.7529038 69.1119194,65.8377121 69.7130674,66.5434765 C69.7518246,66.5889785 69.7881239,66.6365181 69.8218102,66.6858922 C70.8805795,68.2377342 72.9968982,68.6374485 74.5487402,67.5786792 C74.7498665,67.4414575 74.9356784,67.283038 75.1029812,67.1061444 L75.3835991,66.8094399 C76.4179415,65.7158031 78.0758089,65.4935545 79.3616733,66.2761514 L81.4073615,67.5211888 C83.129718,68.5694414 85.3539937,68.2455908 86.7059312,66.7497262 C87.4064262,65.9746566 88.5626848,65.815291 89.4467323,66.3719653 L91.9988111,67.978979 C92.4661603,68.2732633 93.0835861,68.1329664 93.3778704,67.6656173 C93.6721546,67.1982681 93.5318578,66.5808423 93.0645086,66.286558 L90.5124298,64.6795442 C88.806042,63.6050521 86.5742324,63.9126594 85.2221374,65.4086982 C84.5140969,66.1921166 83.3491929,66.3617246 82.4471554,65.8127308 L80.4014672,64.5676934 C78.3098192,63.2946843 75.6130538,63.6562044 73.9305436,65.4351656 L73.6499257,65.7318702 C73.5809918,65.8047558 73.5044315,65.8700295 73.4215613,65.9265691 C72.7821545,66.3628147 71.9101659,66.1981201 71.4739203,65.5587133 C71.4000987,65.4505127 71.3205507,65.3463322 71.2356164,65.2466169 C69.9182325,63.699972 67.5964785,63.5141191 66.0498336,64.8315029 L65.7460203,65.0902816 L65.7150536,65.1161968 C64.7245025,65.9306238 63.2612786,65.787847 62.4468516,64.7972959 L61.8170913,64.0313466 C61.5185473,63.6682408 61.1594032,63.3595527 60.7555641,63.1189528 C58.8229472,61.9675351 56.3228433,62.6008222 55.1714257,64.5334391 L53.9921475,66.5128188 C53.7094724,66.9872797 53.8649455,67.6010598 54.3394065,67.883735 C54.8138675,68.1664101 55.4276476,68.010937 55.7103227,67.536476 Z" id="Path-12" fill="#FFFFFF" fill-rule="nonzero"></path>
                </g>
                <g id="charecter" transform="translate(0.263826, 55.272587)">
                    <polygon id="Rectangle" fill="#FAC1C1" transform="translate(30.685667, 186.073595) rotate(32.000000) translate(-30.685667, -186.073595) " points="29.1561368 182.642744 32.2151977 182.420883 32.1014014 189.692248 29.2117694 189.726308"></polygon>
                    <path d="M77.1618906,200.781012 L80.0350172,200.780037 L80.0350172,204.995518 C80.0350172,205.459828 79.7154248,205.86306 79.2633848,205.969093 L77.1618906,206.462032 L77.1618906,200.781012 Z" id="Rectangle" fill="#FAC1C1"></path>
                    <path d="M66.4023404,48.5853207 L64.4096912,54.0957578 L68.6448514,54.7564462 C72.29852,54.6531109 74.2054408,54.4328814 74.3656137,54.0957578 C75.0288898,52.6997292 75.6181238,49.6444362 76.154396,47.6978441 C80.0483271,47.0548718 81.3165843,44.5272442 79.9591676,40.1149614 L78.6459391,35.8002787 L76.8829691,35.9741698 C75.7837338,36.0825932 74.9805221,37.0615939 75.0889455,38.1608292 C75.0918708,38.1904866 75.0954585,38.2200749 75.0997061,38.2495719 L75.2098667,39.0145734 C75.2854283,39.5393045 74.9213044,40.0259379 74.3965733,40.1014995 C74.1063696,40.143289 73.8129803,40.0501569 73.6000099,39.8486423 C73.5404784,39.7922571 73.4884365,39.7437848 73.4439122,39.7031958 C73.2178164,39.497084 72.4833155,38.8384479 71.883797,38.6166267 C71.883797,38.6166267 71.883797,38.6166267 71.883797,38.6166267 L71.883797,38.6166267 C71.6562016,38.5324167 71.4034334,38.6486534 71.3192233,38.8762488 C71.3044327,38.9162236 71.2955371,38.9581377 71.2928161,39.0006741 C71.1665871,40.9744776 72.3361743,42.8989268 74.8016097,44.7740237 C73.8288394,46.1713201 73.0438207,47.0207184 72.4465535,47.3222185 C69.9184015,48.5984281 67.7109399,48.3134333 67.2792804,48.4031191 C66.6946537,48.5245868 66.4023404,48.5853207 66.4023404,48.5853207 Z" id="Path-6" fill="#FAC1C1"></path>
                    <path d="M118.3895,0.484108681 L118.3895,0.484108681 C118.440099,0.480143222 118.487829,0.508058915 118.509178,0.55410475 L118.772877,1.12285572 L118.775548,2.34720889 L118.057195,2.36531554 L118.054596,1.17391856 L118.276247,0.56996021 C118.293971,0.521665655 118.338213,0.488128039 118.3895,0.484108681 Z" id="Rectangle" fill="#C8BDF7" transform="translate(118.415072, 1.424525) rotate(-10.000000) translate(-118.415072, -1.424525) "></path>
                    <path d="M119.599996,1.51025331 L119.599996,1.51025331 C119.902348,1.52546252 120.150889,1.7540638 120.191272,2.0540923 L120.339893,3.15828039 L120.960326,12.0812138 C121.045256,13.3026596 120.146318,14.3714219 118.928382,14.4970243 L118.928382,14.4970243 C118.004268,14.5923258 117.177867,13.9204398 117.082566,12.9963249 C117.067393,12.8491979 117.071691,12.7007124 117.095349,12.5547094 L118.55062,3.57355605 C118.627287,3.10040845 118.734662,2.63275125 118.872065,2.17354867 L118.928673,1.98436415 C119.016575,1.69059484 119.293745,1.49484795 119.599996,1.51025331 Z" id="Rectangle" fill="#564984" transform="translate(119.019786, 8.007718) rotate(-10.000000) translate(-119.019786, -8.007718) "></path>
                    <path d="M24.2226425,108.61332 C23.5352129,110.093337 21.7960485,118.540815 26.1717983,121.227889 C27.4323214,122.02061 27.60121,121.08004 26.6784641,118.406178 C26.2858174,117.268397 26.0925864,116.286999 26.0987709,115.461984 L26.0987124,115.461984 C26.1028691,114.907478 26.5557544,114.461332 27.11026,114.465489 C27.6647656,114.469645 28.1109115,114.922531 28.1067548,115.477036 C28.1064291,115.520485 28.1032835,115.563866 28.0973377,115.606907 C28.0973377,115.606907 28.0973377,115.606907 28.0973377,115.606907 C28.0973377,115.606907 28.0973377,115.606907 28.0973377,115.606907 L28.0973377,115.606907 C28.0425839,116.003264 28.3195075,116.368961 28.7158639,116.423714 C29.1122203,116.478468 29.4779173,116.201545 29.532671,115.805188 C29.5350004,115.788326 29.5367347,115.771388 29.5378709,115.754403 C29.5951039,114.899679 29.552133,113.973415 29.4090148,112.975618 C29.2016417,111.529845 29.0643549,110.528518 28.9971544,109.971637 L28.9971817,109.971633 C28.958659,109.652401 28.7689826,109.371166 28.4874411,109.215835 C26.0756995,107.885242 24.6541,107.684403 24.2226425,108.61332 Z" id="Path-7" fill="#FAC1C1"></path>
                    <path d="M117.023569,6.36826735 C116.575221,6.93511119 116.145312,7.51732989 115.733844,8.11492344 C114.928581,9.28444419 115.477048,11.5127862 117.379248,14.7999494 L117.379248,17.2015554 L121.550684,18.3284971 L123.015948,13.8312444 C123.516842,12.2938775 123.470076,10.6305138 122.883593,9.12371911 C121.788685,6.310672 120.848772,5.06269112 120.063856,5.37977649 C119.635092,5.65210271 119.774103,7.29021308 120.48089,10.2941076 C121.541072,14.7999494 119.470641,14.1512259 118.896249,13.2638309 C118.637236,12.8636748 118.097165,11.5098873 118.161103,9.75575497 C118.191117,8.93231749 118.761072,8.17162535 118.806279,7.04994186 C118.806638,7.04103265 118.806972,7.03212232 118.80728,7.02321088 L118.80727,7.02321054 C118.826373,6.47126168 118.394416,6.0083328 117.842467,5.98922995 C117.524772,5.97823455 117.220773,6.118944 117.023569,6.36826735 Z" id="Path-8" fill="#FAC1C1"></path>
                    <mask id="mask-4" fill="white">
                        <use xlink:href="#path-3"></use>
                    </mask>
                    <use id="Path-2" fill="#FFFFFF" xlink:href="#path-3"></use>
                    <path d="M83.2808169,103.225157 C77.3373481,96.6512965 74.3656137,89.6624019 74.3656137,82.2584733 C74.3656137,74.8545447 80.7742545,70.2991453 93.591536,68.5922751 C103.648128,67.6576521 110.909145,62.2024269 115.374588,52.2265995 C118.223548,45.7011959 119.997206,40.6787083 120.695562,37.1591366 C121.489329,33.1587101 121.489329,26.3791726 120.695562,16.820524 L127.153366,16.966992 L125.476322,45.4621031 L115.978582,65.6242569 L105.660562,70.8352171 L90.0835813,76.4355856 L82.6188214,78.4738243 C81.7306036,81.8723452 82.2343846,84.4288832 84.1301644,86.1434383 C86.0259442,87.8579935 87.6677813,93.323527 89.0556758,102.540039 L83.2808169,103.225157 Z" id="Path-11" fill="#FBECF1" opacity="0.437872024" mask="url(#mask-4)"></path>
                    <mask id="mask-6" fill="white">
                        <use xlink:href="#path-5"></use>
                    </mask>
                    <use id="Path-3" fill="#C8BDF7" xlink:href="#path-5"></use>
                    <path d="M83.2808169,103.225157 C101.92707,137.821819 102.29149,167.812091 84.3740759,193.195976 L80.2178365,201.014262 L96.035363,193.195976 L111.020295,147.270397 L100.813039,114.770143 L91.2534812,100.939363 L83.2808169,103.225157 Z" id="Path-10" fill="#C0B4F3" mask="url(#mask-6)"></path>
                    <mask id="mask-8" fill="white">
                        <use xlink:href="#path-7"></use>
                    </mask>
                    <use id="Combined-Shape" fill="#C8BDF7" xlink:href="#path-7"></use>
                    <path d="M58.2402148,37.6525877 C51.8228891,35.1325788 46.8554269,37.549798 43.9396386,44.6446945 C42.1644035,48.9643183 40.6491024,50.9957129 39.3075076,51.4523582 C38.3041319,51.7938822 37.5512662,51.5178669 34.3325861,49.7692545 C31.0241399,47.9718749 27.4642675,46.3416749 23.6367935,45.1445335 C17.7798655,43.3126278 12.7749199,43.0325187 9.02423549,44.9421195 C1.14369235,48.9543717 -1.63905625,60.791484 3.04386715,67.3960143 C8.87585484,75.6211198 23.6079325,81.3854559 34.0793831,77.9885143 C46.9517875,73.8127027 55.0386357,64.5829672 55.116034,51.2802281 C55.9492949,48.0822956 56.8305072,46.0444927 57.6284438,45.2524892 C57.9965614,44.8871087 58.1341791,44.9107956 58.8278633,45.7379171 C63.3520694,51.1324012 73.0790209,51.5392247 76.141748,45.4478407 C76.4580006,44.8188536 76.293795,44.0563256 75.7511658,43.6128354 C76.536417,43.5406228 77.2498148,42.8577624 77.1168071,41.9063658 L76.5737508,38.0219149 C76.5360067,37.7519251 76.7214996,37.5014552 76.9907679,37.4588268 C81.1998869,36.7924731 83.2328685,34.5933643 82.031761,31.2840975 C80.7711143,27.8107893 77.5788068,26.9976166 73.1924336,28.6034734 C65.2377412,26.7660034 60.0808157,29.9149471 58.2402148,37.6525877 Z M73.1405036,37.5369989 C71.4076872,36.4751026 69.7652384,37.4118714 69.7652384,39.4384889 C69.7652384,41.3871896 70.8154705,43.2495845 72.8083514,45.0591748 C70.2423117,47.9294799 64.1059277,47.3627058 61.1264798,43.8101303 C59.3997928,41.7512972 57.2671288,41.3842206 55.5150541,43.1232677 C54.2076525,44.4209481 53.1367454,46.9212055 52.1636398,50.7145836 C52.1324003,50.8363621 52.1165946,50.9615849 52.1165946,51.0873064 C52.1165946,63.0743583 44.9387256,71.3118351 33.1536729,75.1349095 C23.9954864,78.1058278 10.5984208,72.8638524 5.49111635,65.6607992 C1.85826726,60.5372343 4.1496197,50.7903977 10.385376,47.6155623 C13.267964,46.1479389 17.5637775,46.3883604 22.741249,48.0077484 C26.3486824,49.1360665 29.74831,50.6928844 32.9004699,52.4053583 C37.0140133,54.6401231 38.0916801,55.0352169 40.2741704,54.2923517 C42.6701998,53.4768032 44.6369217,50.8402393 46.7144488,45.7850578 C49.2366251,39.647925 52.9592482,38.2105901 58.6644107,41.1357498 C59.5743292,41.6022846 60.6740997,41.0415896 60.8310146,40.0311519 C62.0069455,32.4588636 65.8095267,29.8325418 72.9258631,31.6251994 C73.2309616,31.702056 73.5525032,31.6810296 73.8449947,31.5650953 C77.081675,30.2821778 78.5987123,30.6185615 79.2117621,32.3076238 C79.6441842,33.4990243 79.1001388,34.0875269 76.5216741,34.4957286 C74.8401779,34.7619295 73.6253973,36.1860224 73.5704676,37.8320707 C73.4208274,37.719323 73.2776322,37.6210334 73.1405036,37.5369989 Z" id="Path" fill="#2F2F36" fill-rule="nonzero"></path>
                    <path d="M76.756221,35.9772777 C80.1500128,35.44 81.4385264,34.0461943 80.6217616,31.7958606 C79.6634187,29.1554539 77.2202572,28.613714 73.2922771,30.1706408 C65.3060534,28.1588521 60.6582213,31.3689618 59.348781,39.80097 C52.8530029,36.4704446 48.1790904,38.27508 45.3270437,45.2148761 C41.0489735,55.6245703 38.0236738,53.4815766 33.616528,51.0873064 C30.2495178,49.2581107 17.1474276,42.4895493 9.70480576,46.2788409 C2.26218391,50.0681325 0.363785676,61.0228405 4.26749175,66.5284067 C9.02554307,73.2388932 22.7884584,80.0743408 33.616528,76.5617119 C44.4445977,73.049083 53.6165946,65.0450016 53.6165946,51.0873064 C55.4366081,43.9924967 57.5568004,41.8880691 59.9771715,44.7740237 C63.6077283,49.1029556 72.1339922,50.0795838 74.8016097,44.7740237 C72.4440288,42.9389048 71.2652384,41.1603932 71.2652384,39.4384889 C71.2652384,37.7165846 72.720577,38.6084382 75.6312543,42.1140499 L75.088198,38.229599 C74.9372218,37.1496415 75.6791748,36.147787 76.756221,35.9772777 Z" id="Path" fill="#2F2F36"></path>
                    <path d="M74.7513424,207.207522 C75.0312367,205.919572 76.13503,204.975921 77.4507983,204.899704 C85.8290935,204.414155 90.4791586,204.435759 92.0544653,205.070829 C94.4665792,206.043249 94.9445896,208.278618 92.372337,209.329392 C89.0857763,210.659931 83.9611518,210.927615 76.9199291,210.200792 C76.8285332,210.191358 76.7377324,210.176851 76.6479466,210.157339 C75.3096445,209.866502 74.4605059,208.545824 74.7513424,207.207522 Z" id="Combined-Shape" fill="#FFFFFF" fill-rule="nonzero"></path>
                    <path d="M37.6726653,197.241418 C38.389954,198.421185 38.0150409,199.959053 36.8352734,200.676342 C36.0088652,201.178791 34.9667799,201.159493 34.1595412,200.626791 C33.5100919,200.198215 32.7641908,199.623157 31.914838,198.899037 C29.2735045,196.647156 26.7582579,193.610417 24.3594899,189.792268 C23.4119031,188.283972 23.8664476,186.293086 25.3747435,185.345499 C26.2241217,184.811878 27.2734282,184.703829 28.2137256,185.053166 C30.1349885,185.766948 33.0583449,189.651956 37.6726653,197.241418 Z" id="Combined-Shape" fill="#FFFFFF" fill-rule="nonzero"></path>
                </g>
            </g>
        </g>
    </g>
</svg>