<?xml version="1.0" encoding="UTF-8"?>
<svg width="110px" height="40px" viewBox="0 0 110 40" version="1.1" xmlns="http://www.w3.org/2000/svg" xmlns:xlink="http://www.w3.org/1999/xlink">
    <!-- Generator: Sketch 51.3 (57544) - http://www.bohemiancoding.com/sketch -->
    <title>removefrom cart</title>
    <desc>Created with Sketch.</desc>
    <defs>
        <linearGradient x1="100%" y1="0%" x2="0%" y2="100%" id="linearGradient-1">
            <stop stop-color="#BA6DFF" offset="0%"></stop>
            <stop stop-color="#5849FF" offset="100%"></stop>
        </linearGradient>
    </defs>
    <g id="8-October-library/checkout" stroke="none" stroke-width="1" fill="none" fill-rule="evenodd">
        <g id="01.4b-library" transform="translate(-922.000000, -881.000000)">
            <g id="lightbox" transform="translate(336.000000, 73.000000)">
                <g id="removefrom-cart" transform="translate(586.000000, 808.000000)">
                    <path d="M5,0 L105,0 C107.761424,-5.07265313e-16 110,2.23857625 110,5 L110,35 C110,37.7614237 107.761424,40 105,40 L5,40 C2.23857625,40 3.38176876e-16,37.7614237 0,35 L0,5 C-3.38176876e-16,2.23857625 2.23857625,5.07265313e-16 5,0 Z" id="Rectangle-2" fill="url(#linearGradient-1)"></path>
                    <g id="addto-cart" transform="translate(12.000000, 10.000000)" fill="#FFFFFF" fill-rule="nonzero">
                        <path d="M6.72727273,20 C5.2712493,20 4.09090909,18.8196598 4.09090909,17.3636364 C4.09090909,15.9076129 5.2712493,14.7272727 6.72727273,14.7272727 C8.18329616,14.7272727 9.36363636,15.9076129 9.36363636,17.3636364 C9.36363636,18.8196598 8.18329616,20 6.72727273,20 Z M6.72727273,18 C7.07872666,18 7.36363636,17.7150903 7.36363636,17.3636364 C7.36363636,17.0121824 7.07872666,16.7272727 6.72727273,16.7272727 C6.3758188,16.7272727 6.09090909,17.0121824 6.09090909,17.3636364 C6.09090909,17.7150903 6.3758188,18 6.72727273,18 Z" id="Oval"></path>
                        <path d="M16.5454545,20 C15.0894311,20 13.9090909,18.8196598 13.9090909,17.3636364 C13.9090909,15.9076129 15.0894311,14.7272727 16.5454545,14.7272727 C18.001478,14.7272727 19.1818182,15.9076129 19.1818182,17.3636364 C19.1818182,18.8196598 18.001478,20 16.5454545,20 Z M16.5454545,18 C16.8969085,18 17.1818182,17.7150903 17.1818182,17.3636364 C17.1818182,17.0121824 16.8969085,16.7272727 16.5454545,16.7272727 C16.1940006,16.7272727 15.9090909,17.0121824 15.9090909,17.3636364 C15.9090909,17.7150903 16.1940006,18 16.5454545,18 Z" id="Oval"></path>
                        <path d="M5.95345231,6.09090909 L6.69606416,11.7191269 C6.73785282,12.03794 7.01089917,12.2754903 7.34090909,12.2727273 L16.0082512,12.2729108 C16.3164472,12.2788171 16.5845622,12.0629845 16.6449188,11.7591137 L17.7799109,6.09090909 L5.95345231,6.09090909 Z M5.6895635,4.09090909 L19,4.09090909 C19.6311399,4.09090909 20.1044543,4.66839473 19.9805357,5.28724997 L18.6062943,12.150271 C18.3575046,13.4028489 17.2467427,14.2970123 15.9890909,14.2727273 L7.34939038,14.2726913 C6.01734319,14.2839892 4.8861512,13.2998522 4.71313809,11.9799016 L3.46939495,2.55363522 C3.42791111,2.2372339 3.15850381,2.00048203 2.84090909,2 L1,2 C0.44771525,2 0,1.55228475 0,1 C0,0.44771525 0.44771525,0 1,0 L2.84242324,1.1463169e-06 C4.16444567,0.00200288114 5.28056164,0.982832066 5.45231646,2.29282567 L5.6895635,4.09090909 Z" id="Shape"></path>
                    </g>
                    <path d="M44.184,19.432 L45.672,19.432 C46.3866702,19.432 46.9333314,19.2826682 47.312,18.984 C47.6906686,18.6853318 47.88,18.2373363 47.88,17.64 C47.88,17.031997 47.6906686,16.6106678 47.312,16.376 C46.9333314,16.1413322 46.3866702,16.024 45.672,16.024 L44.184,16.024 L44.184,19.432 Z M48.04,25 L45.784,20.904 L44.184,20.904 L44.184,25 L42.328,25 L42.328,14.536 L45.864,14.536 C46.4080027,14.536 46.9146643,14.5893328 47.384,14.696 C47.8533357,14.8026672 48.258665,14.9759988 48.6,15.216 C48.941335,15.4560012 49.2106657,15.7733314 49.408,16.168 C49.6053343,16.5626686 49.704,17.0533304 49.704,17.64 C49.704,18.440004 49.5146686,19.0853309 49.136,19.576 C48.7573314,20.0666691 48.2533365,20.4186656 47.624,20.632 L50.12,25 L48.04,25 Z M51.24,21.08 C51.24,20.4399968 51.3413323,19.8640026 51.544,19.352 C51.7466677,18.8399974 52.0159983,18.4080018 52.352,18.056 C52.6880017,17.7039982 53.0746645,17.432001 53.512,17.24 C53.9493355,17.047999 54.397331,16.952 54.856,16.952 C55.389336,16.952 55.8586646,17.0426658 56.264,17.224 C56.6693354,17.4053342 57.0079986,17.6613317 57.28,17.992 C57.5520014,18.3226683 57.7573326,18.717331 57.896,19.176 C58.0346674,19.634669 58.104,20.1359973 58.104,20.68 C58.104,21.0426685 58.0773336,21.3306656 58.024,21.544 L53.032,21.544 C53.1173338,22.2586702 53.3653313,22.8079981 53.776,23.192 C54.1866687,23.5760019 54.7119968,23.768 55.352,23.768 C55.693335,23.768 56.0106652,23.7173338 56.304,23.616 C56.5973348,23.5146662 56.8879986,23.3733342 57.176,23.192 L57.8,24.344 C57.4266648,24.5893346 57.010669,24.7919992 56.552,24.952 C56.093331,25.1120008 55.6133358,25.192 55.112,25.192 C54.5679973,25.192 54.0613357,25.0986676 53.592,24.912 C53.1226643,24.7253324 52.7120018,24.4560018 52.36,24.104 C52.0079982,23.7519982 51.7333343,23.3226692 51.536,22.816 C51.3386657,22.3093308 51.24,21.7306699 51.24,21.08 Z M56.504,20.376 C56.504,19.7466635 56.3733346,19.2560018 56.112,18.904 C55.8506654,18.5519982 55.4480027,18.376 54.904,18.376 C54.4346643,18.376 54.0240018,18.5439983 53.672,18.88 C53.3199982,19.2160017 53.1013338,19.7146634 53.016,20.376 L56.504,20.376 Z M59.864,17.144 L61.384,17.144 L61.512,18.216 L61.576,18.216 C61.9066683,17.8639982 62.2666647,17.5653346 62.656,17.32 C63.0453353,17.0746654 63.4853309,16.952 63.976,16.952 C64.5520029,16.952 65.0133316,17.0746654 65.36,17.32 C65.7066684,17.5653346 65.9706658,17.9119978 66.152,18.36 C66.5253352,17.9546646 66.9146646,17.618668 67.32,17.352 C67.7253354,17.085332 68.1786642,16.952 68.68,16.952 C69.5120042,16.952 70.1253314,17.2213306 70.52,17.76 C70.9146686,18.2986694 71.112,19.0693283 71.112,20.072 L71.112,25 L69.256,25 L69.256,20.312 C69.256,19.6613301 69.1573343,19.202668 68.96,18.936 C68.7626657,18.669332 68.4613354,18.536 68.056,18.536 C67.5653309,18.536 67.016003,18.8613301 66.408,19.512 L66.408,25 L64.568,25 L64.568,20.312 C64.568,19.6613301 64.4693343,19.202668 64.272,18.936 C64.0746657,18.669332 63.7680021,18.536 63.352,18.536 C62.8613309,18.536 62.312003,18.8613301 61.704,19.512 L61.704,25 L59.864,25 L59.864,17.144 Z M72.84,21.08 C72.84,20.4293301 72.9413323,19.8480026 73.144,19.336 C73.3466677,18.8239974 73.6213316,18.3920018 73.968,18.04 C74.3146684,17.6879982 74.7119978,17.4186676 75.16,17.232 C75.6080022,17.0453324 76.0773309,16.952 76.568,16.952 C77.0586691,16.952 77.5306644,17.0453324 77.984,17.232 C78.4373356,17.4186676 78.834665,17.6879982 79.176,18.04 C79.517335,18.3920018 79.791999,18.8239974 80,19.336 C80.208001,19.8480026 80.312,20.4293301 80.312,21.08 C80.312,21.7306699 80.208001,22.3119974 80,22.824 C79.791999,23.3360026 79.517335,23.7679982 79.176,24.12 C78.834665,24.4720018 78.4373356,24.7386658 77.984,24.92 C77.5306644,25.1013342 77.0586691,25.192 76.568,25.192 C76.0773309,25.192 75.6080022,25.1013342 75.16,24.92 C74.7119978,24.7386658 74.3146684,24.4720018 73.968,24.12 C73.6213316,23.7679982 73.3466677,23.3360026 73.144,22.824 C72.9413323,22.3119974 72.84,21.7306699 72.84,21.08 Z M74.728,21.08 C74.728,21.8693373 74.890665,22.501331 75.216,22.976 C75.541335,23.450669 75.9919971,23.688 76.568,23.688 C77.1440029,23.688 77.5973317,23.450669 77.928,22.976 C78.2586683,22.501331 78.424,21.8693373 78.424,21.08 C78.424,20.279996 78.2586683,19.642669 77.928,19.168 C77.5973317,18.693331 77.1440029,18.456 76.568,18.456 C75.9919971,18.456 75.541335,18.693331 75.216,19.168 C74.890665,19.642669 74.728,20.279996 74.728,21.08 Z M81.16,17.144 L83.032,17.144 L84.28,21.224 C84.3866672,21.6080019 84.4959994,21.9973314 84.608,22.392 C84.7200006,22.7866686 84.8293328,23.1866646 84.936,23.592 L85,23.592 C85.1173339,23.1866646 85.2293328,22.7866686 85.336,22.392 C85.4426672,21.9973314 85.5546661,21.6080019 85.672,21.224 L86.92,17.144 L88.696,17.144 L86.024,25 L83.896,25 L81.16,17.144 Z M89.544,21.08 C89.544,20.4399968 89.6453323,19.8640026 89.848,19.352 C90.0506677,18.8399974 90.3199983,18.4080018 90.656,18.056 C90.9920017,17.7039982 91.3786645,17.432001 91.816,17.24 C92.2533355,17.047999 92.701331,16.952 93.16,16.952 C93.693336,16.952 94.1626646,17.0426658 94.568,17.224 C94.9733354,17.4053342 95.3119986,17.6613317 95.584,17.992 C95.8560014,18.3226683 96.0613326,18.717331 96.2,19.176 C96.3386674,19.634669 96.408,20.1359973 96.408,20.68 C96.408,21.0426685 96.3813336,21.3306656 96.328,21.544 L91.336,21.544 C91.4213338,22.2586702 91.6693313,22.8079981 92.08,23.192 C92.4906687,23.5760019 93.0159968,23.768 93.656,23.768 C93.997335,23.768 94.3146652,23.7173338 94.608,23.616 C94.9013348,23.5146662 95.1919986,23.3733342 95.48,23.192 L96.104,24.344 C95.7306648,24.5893346 95.314669,24.7919992 94.856,24.952 C94.397331,25.1120008 93.9173358,25.192 93.416,25.192 C92.8719973,25.192 92.3653357,25.0986676 91.896,24.912 C91.4266643,24.7253324 91.0160018,24.4560018 90.664,24.104 C90.3119982,23.7519982 90.0373343,23.3226692 89.84,22.816 C89.6426657,22.3093308 89.544,21.7306699 89.544,21.08 Z M94.808,20.376 C94.808,19.7466635 94.6773346,19.2560018 94.416,18.904 C94.1546654,18.5519982 93.7520027,18.376 93.208,18.376 C92.7386643,18.376 92.3280018,18.5439983 91.976,18.88 C91.6239982,19.2160017 91.4053338,19.7146634 91.32,20.376 L94.808,20.376 Z" id="Remove-from-cart" fill="#FFFFFF"></path>
                </g>
            </g>
        </g>
    </g>
</svg>