<?xml version="1.0" encoding="UTF-8"?>
<svg width="130px" height="40px" viewBox="0 0 130 40" version="1.1" xmlns="http://www.w3.org/2000/svg" xmlns:xlink="http://www.w3.org/1999/xlink">
    <!-- Generator: Sketch 51.3 (57544) - http://www.bohemiancoding.com/sketch -->
    <title>add to cart button</title>
    <desc>Created with Sketch.</desc>
    <defs>
        <linearGradient x1="100%" y1="0%" x2="0%" y2="100%" id="linearGradient-1">
            <stop stop-color="#BA6DFF" offset="0%"></stop>
            <stop stop-color="#5849FF" offset="100%"></stop>
        </linearGradient>
    </defs>
    <g id="8-October-library/checkout" stroke="none" stroke-width="1" fill="none" fill-rule="evenodd">
        <g id="01.4a-library" transform="translate(-855.000000, -893.000000)">
            <g id="lightbox" transform="translate(-1.000000, 62.000000)">
                <g id="add-to-cart-button" transform="translate(856.000000, 831.000000)">
                    <rect id="Rectangle-2" fill="url(#linearGradient-1)" x="0" y="0" width="130" height="40" rx="5"></rect>
                    <g id="addto-cart" transform="translate(12.000000, 10.000000)" fill="#FFFFFF" fill-rule="nonzero">
                        <path d="M6.72727273,20 C5.2712493,20 4.09090909,18.8196598 4.09090909,17.3636364 C4.09090909,15.9076129 5.2712493,14.7272727 6.72727273,14.7272727 C8.18329616,14.7272727 9.36363636,15.9076129 9.36363636,17.3636364 C9.36363636,18.8196598 8.18329616,20 6.72727273,20 Z M6.72727273,18 C7.07872666,18 7.36363636,17.7150903 7.36363636,17.3636364 C7.36363636,17.0121824 7.07872666,16.7272727 6.72727273,16.7272727 C6.3758188,16.7272727 6.09090909,17.0121824 6.09090909,17.3636364 C6.09090909,17.7150903 6.3758188,18 6.72727273,18 Z" id="Oval"></path>
                        <path d="M16.5454545,20 C15.0894311,20 13.9090909,18.8196598 13.9090909,17.3636364 C13.9090909,15.9076129 15.0894311,14.7272727 16.5454545,14.7272727 C18.001478,14.7272727 19.1818182,15.9076129 19.1818182,17.3636364 C19.1818182,18.8196598 18.001478,20 16.5454545,20 Z M16.5454545,18 C16.8969085,18 17.1818182,17.7150903 17.1818182,17.3636364 C17.1818182,17.0121824 16.8969085,16.7272727 16.5454545,16.7272727 C16.1940006,16.7272727 15.9090909,17.0121824 15.9090909,17.3636364 C15.9090909,17.7150903 16.1940006,18 16.5454545,18 Z" id="Oval"></path>
                        <path d="M5.95345231,6.09090909 L6.69606416,11.7191269 C6.73785282,12.03794 7.01089917,12.2754903 7.34090909,12.2727273 L16.0082512,12.2729108 C16.3164472,12.2788171 16.5845622,12.0629845 16.6449188,11.7591137 L17.7799109,6.09090909 L5.95345231,6.09090909 Z M5.6895635,4.09090909 L19,4.09090909 C19.6311399,4.09090909 20.1044543,4.66839473 19.9805357,5.28724997 L18.6062943,12.150271 C18.3575046,13.4028489 17.2467427,14.2970123 15.9890909,14.2727273 L7.34939038,14.2726913 C6.01734319,14.2839892 4.8861512,13.2998522 4.71313809,11.9799016 L3.46939495,2.55363522 C3.42791111,2.2372339 3.15850381,2.00048203 2.84090909,2 L1,2 C0.44771525,2 0,1.55228475 0,1 C0,0.44771525 0.44771525,0 1,0 L2.84242324,1.1463169e-06 C4.16444567,0.00200288114 5.28056164,0.982832066 5.45231646,2.29282567 L5.6895635,4.09090909 Z" id="Shape"></path>
                    </g>
                    <path d="M46.776,20.712 L46.408,19.432 C46.2373325,18.8773306 46.0746674,18.3066696 45.92,17.72 C45.7653326,17.1333304 45.6133341,16.5520029 45.464,15.976 L45.4,15.976 C45.2506659,16.5626696 45.1013341,17.1466638 44.952,17.728 C44.8026659,18.3093362 44.6426675,18.8773306 44.472,19.432 L44.104,20.712 L46.776,20.712 Z M47.192,22.168 L43.672,22.168 L42.856,25 L40.968,25 L44.376,14.536 L46.552,14.536 L49.96,25 L48.008,25 L47.192,22.168 Z M50.616,21.08 C50.616,20.4399968 50.7093324,19.8640026 50.896,19.352 C51.0826676,18.8399974 51.3306651,18.4080018 51.64,18.056 C51.9493349,17.7039982 52.303998,17.432001 52.704,17.24 C53.104002,17.047999 53.5173312,16.952 53.944,16.952 C54.3920022,16.952 54.7706651,17.0293326 55.08,17.184 C55.3893349,17.3386674 55.6986651,17.549332 56.008,17.816 L55.944,16.552 L55.944,13.704 L57.784,13.704 L57.784,25 L56.264,25 L56.136,24.152 L56.072,24.152 C55.7839986,24.4400014 55.4480019,24.6853323 55.064,24.888 C54.6799981,25.0906677 54.2746688,25.192 53.848,25.192 C52.855995,25.192 52.0693362,24.8320036 51.488,24.112 C50.9066638,23.3919964 50.616,22.3813398 50.616,21.08 Z M52.52,21.064 C52.52,21.9173376 52.6719985,22.5653311 52.976,23.008 C53.2800015,23.4506689 53.7199971,23.672 54.296,23.672 C54.8826696,23.672 55.4319974,23.3786696 55.944,22.792 L55.944,19.128 C55.6666653,18.8826654 55.3973346,18.7120005 55.136,18.616 C54.8746654,18.5199995 54.610668,18.472 54.344,18.472 C53.8319974,18.472 53.4000018,18.6959978 53.048,19.144 C52.6959982,19.5920022 52.52,20.2319958 52.52,21.064 Z M59.64,21.08 C59.64,20.4399968 59.7333324,19.8640026 59.92,19.352 C60.1066676,18.8399974 60.3546651,18.4080018 60.664,18.056 C60.9733349,17.7039982 61.327998,17.432001 61.728,17.24 C62.128002,17.047999 62.5413312,16.952 62.968,16.952 C63.4160022,16.952 63.7946651,17.0293326 64.104,17.184 C64.4133349,17.3386674 64.7226651,17.549332 65.032,17.816 L64.968,16.552 L64.968,13.704 L66.808,13.704 L66.808,25 L65.288,25 L65.16,24.152 L65.096,24.152 C64.8079986,24.4400014 64.4720019,24.6853323 64.088,24.888 C63.7039981,25.0906677 63.2986688,25.192 62.872,25.192 C61.879995,25.192 61.0933362,24.8320036 60.512,24.112 C59.9306638,23.3919964 59.64,22.3813398 59.64,21.08 Z M61.544,21.064 C61.544,21.9173376 61.6959985,22.5653311 62,23.008 C62.3040015,23.4506689 62.7439971,23.672 63.32,23.672 C63.9066696,23.672 64.4559974,23.3786696 64.968,22.792 L64.968,19.128 C64.6906653,18.8826654 64.4213346,18.7120005 64.16,18.616 C63.8986654,18.5199995 63.634668,18.472 63.368,18.472 C62.8559974,18.472 62.4240018,18.6959978 62.072,19.144 C61.7199982,19.5920022 61.544,20.2319958 61.544,21.064 Z M72.696,18.6 L71.576,18.6 L71.576,17.224 L72.792,17.144 L73.016,15 L74.552,15 L74.552,17.144 L76.552,17.144 L76.552,18.6 L74.552,18.6 L74.552,22.344 C74.552,23.2613379 74.9199963,23.72 75.656,23.72 C75.7946674,23.72 75.9359993,23.7040002 76.08,23.672 C76.2240007,23.6399998 76.3546661,23.5973336 76.472,23.544 L76.792,24.904 C76.5786656,24.978667 76.3360014,25.045333 76.064,25.104 C75.7919986,25.162667 75.5013349,25.192 75.192,25.192 C74.733331,25.192 74.3466682,25.1226674 74.032,24.984 C73.7173318,24.8453326 73.4613343,24.6506679 73.264,24.4 C73.0666657,24.1493321 72.9226671,23.8506684 72.832,23.504 C72.7413329,23.1573316 72.696,22.7706688 72.696,22.344 L72.696,18.6 Z M77.688,21.08 C77.688,20.4293301 77.7893323,19.8480026 77.992,19.336 C78.1946677,18.8239974 78.4693316,18.3920018 78.816,18.04 C79.1626684,17.6879982 79.5599978,17.4186676 80.008,17.232 C80.4560022,17.0453324 80.9253309,16.952 81.416,16.952 C81.9066691,16.952 82.3786644,17.0453324 82.832,17.232 C83.2853356,17.4186676 83.682665,17.6879982 84.024,18.04 C84.365335,18.3920018 84.639999,18.8239974 84.848,19.336 C85.056001,19.8480026 85.16,20.4293301 85.16,21.08 C85.16,21.7306699 85.056001,22.3119974 84.848,22.824 C84.639999,23.3360026 84.365335,23.7679982 84.024,24.12 C83.682665,24.4720018 83.2853356,24.7386658 82.832,24.92 C82.3786644,25.1013342 81.9066691,25.192 81.416,25.192 C80.9253309,25.192 80.4560022,25.1013342 80.008,24.92 C79.5599978,24.7386658 79.1626684,24.4720018 78.816,24.12 C78.4693316,23.7679982 78.1946677,23.3360026 77.992,22.824 C77.7893323,22.3119974 77.688,21.7306699 77.688,21.08 Z M79.576,21.08 C79.576,21.8693373 79.738665,22.501331 80.064,22.976 C80.389335,23.450669 80.8399971,23.688 81.416,23.688 C81.9920029,23.688 82.4453317,23.450669 82.776,22.976 C83.1066683,22.501331 83.272,21.8693373 83.272,21.08 C83.272,20.279996 83.1066683,19.642669 82.776,19.168 C82.4453317,18.693331 81.9920029,18.456 81.416,18.456 C80.8399971,18.456 80.389335,18.693331 80.064,19.168 C79.738665,19.642669 79.576,20.279996 79.576,21.08 Z M89.752,21.08 C89.752,20.4293301 89.8586656,19.8480026 90.072,19.336 C90.2853344,18.8239974 90.5733315,18.3920018 90.936,18.04 C91.2986685,17.6879982 91.717331,17.4186676 92.192,17.232 C92.666669,17.0453324 93.1653307,16.952 93.688,16.952 C94.2000026,16.952 94.6453314,17.0399991 95.024,17.216 C95.4026686,17.3920009 95.725332,17.6079987 95.992,17.864 L95.112,19.032 C94.8986656,18.8506658 94.6853344,18.7093338 94.472,18.608 C94.2586656,18.5066662 94.0293346,18.456 93.784,18.456 C93.1439968,18.456 92.6266686,18.693331 92.232,19.168 C91.8373314,19.642669 91.64,20.279996 91.64,21.08 C91.64,21.8693373 91.8346647,22.501331 92.224,22.976 C92.6133353,23.450669 93.1173302,23.688 93.736,23.688 C94.0560016,23.688 94.3519986,23.621334 94.624,23.488 C94.8960014,23.354666 95.1386656,23.1973342 95.352,23.016 L96.12,24.184 C95.7466648,24.5146683 95.3360022,24.7653325 94.888,24.936 C94.4399978,25.1066675 93.9920022,25.192 93.544,25.192 C93.010664,25.192 92.5120023,25.1013342 92.048,24.92 C91.5839977,24.7386658 91.181335,24.4720018 90.84,24.12 C90.498665,23.7679982 90.232001,23.3360026 90.04,22.824 C89.847999,22.3119974 89.752,21.7306699 89.752,21.08 Z M97.32,22.888 C97.32,22.0453291 97.6879963,21.394669 98.424,20.936 C99.1600037,20.477331 100.333325,20.1573342 101.944,19.976 C101.944,19.7733323 101.917334,19.5786676 101.864,19.392 C101.810666,19.2053324 101.728001,19.0400007 101.616,18.896 C101.503999,18.7519993 101.360001,18.6400004 101.184,18.56 C101.007999,18.4799996 100.786668,18.44 100.52,18.44 C100.125331,18.44 99.7440018,18.5146659 99.376,18.664 C99.0079982,18.8133341 98.653335,18.9946656 98.312,19.208 L97.64,17.976 C98.0773355,17.6986653 98.5653306,17.4586677 99.104,17.256 C99.6426694,17.0533323 100.226664,16.952 100.856,16.952 C101.848005,16.952 102.583998,17.2426638 103.064,17.824 C103.544002,18.4053362 103.784,19.2453278 103.784,20.344 L103.784,25 L102.28,25 L102.136,24.136 L102.088,24.136 C101.735998,24.4346682 101.360002,24.6853323 100.96,24.888 C100.559998,25.0906677 100.125336,25.192 99.656,25.192 C98.9626632,25.192 98.4000022,24.9813354 97.968,24.56 C97.5359978,24.1386646 97.32,23.5813368 97.32,22.888 Z M99.112,22.744 C99.112,23.0960018 99.215999,23.3519992 99.424,23.512 C99.632001,23.6720008 99.9013317,23.752 100.232,23.752 C100.552002,23.752 100.845332,23.6773341 101.112,23.528 C101.378668,23.3786659 101.655999,23.1653347 101.944,22.888 L101.944,21.128 C101.410664,21.1920003 100.962668,21.2773328 100.6,21.384 C100.237332,21.4906672 99.9466678,21.610666 99.728,21.744 C99.5093322,21.877334 99.3520005,22.0293325 99.256,22.2 C99.1599995,22.3706675 99.112,22.551999 99.112,22.744 Z M106.024,17.144 L107.544,17.144 L107.672,18.536 L107.736,18.536 C108.013335,18.0239974 108.349331,17.6320014 108.744,17.36 C109.138669,17.0879986 109.543998,16.952 109.96,16.952 C110.333335,16.952 110.631999,17.0053328 110.856,17.112 L110.536,18.712 C110.397333,18.6693331 110.269334,18.6373334 110.152,18.616 C110.034666,18.5946666 109.890668,18.584 109.72,18.584 C109.410665,18.584 109.085335,18.7039988 108.744,18.944 C108.402665,19.1840012 108.109335,19.6026637 107.864,20.2 L107.864,25 L106.024,25 L106.024,17.144 Z M112.264,18.6 L111.144,18.6 L111.144,17.224 L112.36,17.144 L112.584,15 L114.12,15 L114.12,17.144 L116.12,17.144 L116.12,18.6 L114.12,18.6 L114.12,22.344 C114.12,23.2613379 114.487996,23.72 115.224,23.72 C115.362667,23.72 115.503999,23.7040002 115.648,23.672 C115.792001,23.6399998 115.922666,23.5973336 116.04,23.544 L116.36,24.904 C116.146666,24.978667 115.904001,25.045333 115.632,25.104 C115.359999,25.162667 115.069335,25.192 114.76,25.192 C114.301331,25.192 113.914668,25.1226674 113.6,24.984 C113.285332,24.8453326 113.029334,24.6506679 112.832,24.4 C112.634666,24.1493321 112.490667,23.8506684 112.4,23.504 C112.309333,23.1573316 112.264,22.7706688 112.264,22.344 L112.264,18.6 Z" id="Add-to-cart" fill="#FFFFFF"></path>
                </g>
            </g>
        </g>
    </g>
</svg>