<?xml version="1.0" encoding="UTF-8"?>
<svg width="18px" height="18px" viewBox="0 0 18 18" version="1.1" xmlns="http://www.w3.org/2000/svg" xmlns:xlink="http://www.w3.org/1999/xlink">
    <!-- Generator: Sketch 51.3 (57544) - http://www.bohemiancoding.com/sketch -->
    <title>Combined Shape</title>
    <desc>Created with Sketch.</desc>
    <defs></defs>
    <g id="8-October-library/checkout" stroke="none" stroke-width="1" fill="none" fill-rule="evenodd">
        <g id="01.4b-library" transform="translate(-1391.000000, -31.000000)" fill="#FFFFFF" fill-rule="nonzero">
            <g id="cross" transform="translate(1392.000000, 32.000000)">
                <path d="M9.41421356,8 L16.7071068,15.2928932 C17.0976311,15.6834175 17.0976311,16.3165825 16.7071068,16.7071068 C16.3165825,17.0976311 15.6834175,17.0976311 15.2928932,16.7071068 L8,9.41421356 L0.707106781,16.7071068 C0.316582489,17.0976311 -0.316582489,17.0976311 -0.707106781,16.7071068 C-1.09763107,16.3165825 -1.09763107,15.6834175 -0.707106781,15.2928932 L6.58578644,8 L-0.707106781,0.707106781 C-1.09763107,0.316582489 -1.09763107,-0.316582489 -0.707106781,-0.707106781 C-0.316582489,-1.09763107 0.316582489,-1.09763107 0.707106781,-0.707106781 L8,6.58578644 L15.2928932,-0.707106781 C15.6834175,-1.09763107 16.3165825,-1.09763107 16.7071068,-0.707106781 C17.0976311,-0.316582489 17.0976311,0.316582489 16.7071068,0.707106781 L9.41421356,8 Z" id="Combined-Shape"></path>
            </g>
        </g>
    </g>
</svg>