<?xml version="1.0" encoding="UTF-8"?>
<svg width="33px" height="34px" viewBox="0 0 33 34" version="1.1" xmlns="http://www.w3.org/2000/svg" xmlns:xlink="http://www.w3.org/1999/xlink">
    <!-- Generator: Sketch 51.3 (57544) - http://www.bohemiancoding.com/sketch -->
    <title>download icon-default</title>
    <desc>Created with Sketch.</desc>
    <defs></defs>
    <g id="Page-1" stroke="none" stroke-width="1" fill="none" fill-rule="evenodd">
        <g id="download-icon-default">
            <rect id="Rectangle" fill-opacity="0.5" fill="#203149" x="0" y="0" width="33" height="34" rx="5"></rect>
            <path d="M17.8998515,18.1160221 L17.8998515,14.2403315 C17.8998515,13.9641891 17.6759938,13.7403315 17.3998515,13.7403315 L15.3611774,13.7403315 C15.085035,13.7403315 14.8611774,13.9641891 14.8611774,14.2403315 L14.8611774,18.1160221 L12.6474247,18.1160221 C12.3712823,18.1160221 12.1474247,18.3398797 12.1474247,18.6160221 C12.1474247,18.7487041 12.2001616,18.8759456 12.2940219,18.969726 L15.9892967,22.6612531 C16.1845244,22.8563145 16.5008747,22.8563145 16.6961024,22.6612531 L16.6964034,22.6615544 L20.3913772,18.969726 C20.5867225,18.774547 20.5868573,18.4579646 20.3916783,18.2626193 C20.2978979,18.168759 20.1706564,18.1160221 20.0379744,18.1160221 L17.8998515,18.1160221 Z M20.2559692,12.6291121 C20.7676939,12.1855432 21.4353739,11.9171271 22.1657459,11.9171271 C23.7768307,11.9171271 25.0828729,13.2231693 25.0828729,14.8342541 C25.0828729,15.4135404 24.9140207,15.953389 24.6228489,16.4072675 C26.5583218,16.8590367 28,18.5954115 28,20.6685083 C28,22.8789142 26.3610215,24.7065163 24.2320442,25.0023345 L24.2320442,25.0505132 L11.3480663,25.0505132 L11.3480663,25.0410416 C11.2875515,25.0431407 11.2267723,25.0441989 11.1657459,25.0441989 C8.3127832,25.0441989 6,22.7314157 6,19.878453 C6,17.8279377 7.19472737,16.0564658 8.92605088,15.2221687 C8.92012752,15.1138742 8.91712707,15.0048013 8.91712707,14.8950276 C8.91712707,11.6392938 11.5564208,9 14.8121547,9 C17.2649791,9 19.3679179,10.4980381 20.2559692,12.6291121 Z" id="Combined-Shape" fill="#FFFFFF"></path>
        </g>
    </g>
</svg>