<?xml version="1.0" encoding="UTF-8"?>
<svg width="23px" height="16px" viewBox="0 0 23 16" version="1.1" xmlns="http://www.w3.org/2000/svg" xmlns:xlink="http://www.w3.org/1999/xlink">
    <!-- Generator: Sketch 48.1 (47250) - http://www.bohemiancoding.com/sketch -->
    <title>Shape</title>
    <desc>Created with Sketch.</desc>
    <defs></defs>
    <g id="R66-B" stroke="none" stroke-width="1" fill="none" fill-rule="evenodd" transform="translate(-174.000000, -432.000000)">
        <g id="Group-14" transform="translate(154.000000, 380.000000)" fill="#aaaaaa" fill-rule="nonzero">
            <g id="Group-12" transform="translate(20.000000, 49.000000)">
                <g id="Group-11" transform="translate(0.000000, 1.000000)">
                    <path d="M11.5,2 C6.27272727,2 1.80863636,5.25136364 0,9.84090909 C1.80863636,14.4304545 6.27272727,17.6818182 11.5,17.6818182 C16.7272727,17.6818182 21.1913636,14.4304545 23,9.84090909 C21.1913636,5.25136364 16.7325,2 11.5,2 Z M11.5,15.0681818 C8.61454545,15.0681818 6.27272727,12.7263636 6.27272727,9.84090909 C6.27272727,6.95545455 8.61454545,4.61363636 11.5,4.61363636 C14.3854545,4.61363636 16.7272727,6.95545455 16.7272727,9.84090909 C16.7272727,12.7263636 14.3854545,15.0681818 11.5,15.0681818 Z M11.5,6.70454545 C9.76977273,6.70454545 8.36363636,8.11068182 8.36363636,9.84090909 C8.36363636,11.5711364 9.76977273,12.9772727 11.5,12.9772727 C13.2302273,12.9772727 14.6363636,11.5711364 14.6363636,9.84090909 C14.6363636,8.11068182 13.2302273,6.70454545 11.5,6.70454545 Z" id="Shape"></path>
                </g>
            </g>
        </g>
    </g>
</svg>