<?xml version="1.0" encoding="UTF-8"?>
<svg width="185px" height="136px" viewBox="0 0 185 136" version="1.1" xmlns="http://www.w3.org/2000/svg" xmlns:xlink="http://www.w3.org/1999/xlink">
    <!-- Generator: Sketch 56.3 (81716) - https://sketch.com -->
    <title>illustration</title>
    <desc>Created with Sketch.</desc>
    <defs>
        <linearGradient x1="95.0212648%" y1="44.210947%" x2="4.75915311%" y2="54.4599127%" id="linearGradient-1">
            <stop stop-color="#F4ECFC" offset="0%"></stop>
            <stop stop-color="#FDEDED" offset="100%"></stop>
        </linearGradient>
        <path d="M44.3268265,12.6682903 C43.6595769,11.6765512 42.9074995,10.7331918 42.0752552,9.84772039 C42.4722678,7.16697642 41.6702903,5.51958452 40.4046786,4.2537864 C36.5426847,0.391046697 25.0447931,4.35399503 14.7045676,14.6982289 C4.40312056,24.999676 0.385546875,36.5259055 4.26217596,40.4032804 C5.52778764,41.6690785 7.6264826,42.1146573 10.3067605,41.7175515 C11.1921387,42.549889 12.1352184,43.3021529 13.1267711,43.969589 C9.37412109,44.996005 5.02506658,45.1213823 2.28550249,42.3812589 C-3.50012429,36.5925559 2.32521307,23.1233975 12.7278942,12.7210893 C23.4738015,1.97061435 36.7467374,-3.3581543 42.3823775,2.27664684 C44.6991078,4.59393643 45.6110817,7.97591641 44.3268265,12.6682903 Z" id="path-2"></path>
        <filter x="-4.5%" y="-4.5%" width="117.8%" height="117.9%" filterUnits="objectBoundingBox" id="filter-3">
            <feOffset dx="2" dy="2" in="SourceAlpha" result="shadowOffsetOuter1"></feOffset>
            <feGaussianBlur stdDeviation="1" in="shadowOffsetOuter1" result="shadowBlurOuter1"></feGaussianBlur>
            <feColorMatrix values="0 0 0 0 0.184313725   0 0 0 0 0.184313725   0 0 0 0 0.211764706  0 0 0 0.04 0" type="matrix" in="shadowBlurOuter1"></feColorMatrix>
        </filter>
        <path d="M4.68753719,0 L95.3124628,0 C97.8905983,0 100,2.08596386 100,4.63545345 L100,92.0312132 C100,94.5807028 97.8905983,96.6666667 95.3124628,96.6666667 L4.68753719,96.6666667 C2.10940166,96.6666667 0,94.5805066 0,92.0310171 L0,4.63545345 C0,2.08596386 2.10940166,0 4.68753719,0 Z" id="path-4"></path>
        <filter x="-2.0%" y="-2.1%" width="108.0%" height="108.3%" filterUnits="objectBoundingBox" id="filter-5">
            <feOffset dx="2" dy="2" in="SourceAlpha" result="shadowOffsetOuter1"></feOffset>
            <feGaussianBlur stdDeviation="1" in="shadowOffsetOuter1" result="shadowBlurOuter1"></feGaussianBlur>
            <feColorMatrix values="0 0 0 0 0.184313725   0 0 0 0 0.184313725   0 0 0 0 0.211764706  0 0 0 0.04 0" type="matrix" in="shadowBlurOuter1"></feColorMatrix>
        </filter>
        <rect id="path-6" x="0" y="0" width="34" height="57.12"></rect>
        <filter x="-5.9%" y="-3.5%" width="123.5%" height="114.0%" filterUnits="objectBoundingBox" id="filter-8">
            <feOffset dx="2" dy="2" in="SourceAlpha" result="shadowOffsetOuter1"></feOffset>
            <feGaussianBlur stdDeviation="1" in="shadowOffsetOuter1" result="shadowBlurOuter1"></feGaussianBlur>
            <feColorMatrix values="0 0 0 0 0.184313725   0 0 0 0 0.184313725   0 0 0 0 0.211764706  0 0 0 0.04 0" type="matrix" in="shadowBlurOuter1"></feColorMatrix>
        </filter>
        <ellipse id="path-9" cx="7.25820499" cy="32.9348717" rx="5.85820499" ry="3.92339382"></ellipse>
    </defs>
    <g id="Small-tickets" stroke="none" stroke-width="1" fill="none" fill-rule="evenodd">
        <g id="illustration" transform="translate(-11.000000, -8.000000)">
            <g id="Group" transform="translate(0.000000, 0.000000)">
                <path d="M49.4300845,38.3714067 L160.613593,38.4606094 C183.058272,38.4786169 201.248791,56.6691176 201.266821,79.1137962 C201.284814,101.511941 183.142116,119.68381 160.743972,119.701803 C160.722266,119.70182 160.700561,119.70182 160.678855,119.701803 L49.4953463,119.6126 C27.0506678,119.594593 8.86014865,101.404092 8.84211863,78.9594134 C8.824126,56.5612689 26.9668238,38.3893993 49.3649683,38.3714067 C49.3866737,38.3713893 49.4083791,38.3713893 49.4300845,38.3714067 Z" id="Rectangle" fill="url(#linearGradient-1)" transform="translate(105.054470, 79.036605) rotate(-26.000000) translate(-105.054470, -79.036605) "></path>
                <g id="explorer" transform="translate(154.720902, 83.218785) rotate(19.000000) translate(-154.720902, -83.218785) translate(130.720902, 59.218785)">
                    <path d="M25.5086426,3.28134322 C13.2199885,3.28134322 3.29001243,13.2111328 3.29001243,25.5042614 C3.29001243,37.7955256 13.2180309,47.7272727 25.5086426,47.7272727 C34.8787553,47.7272727 42.8370916,41.9538574 46.1167569,33.8375178 C46.4874822,32.9198864 45.811377,31.9154696 44.8207564,31.9154696 L34.5554776,31.9154696 C34.1494229,31.9154696 33.7633168,32.0921165 33.4978338,32.399454 C31.4855513,34.728489 28.5736284,36.0642001 25.5086426,36.0642001 C21.534415,36.0642001 17.8960494,33.8166371 16.0954634,30.2765225 C16.0204235,30.063987 15.9057662,29.5066406 16.6597079,29.5066406 C16.6597079,29.5066406 16.659335,29.5059881 16.6591486,29.505522 L46.1690518,29.505522 C46.8745206,29.505522 47.4695268,28.9796831 47.5563121,28.2793413 C47.6698509,27.3639471 47.7272727,26.4302823 47.7272727,25.5041681 C47.7272727,13.2131836 37.7994407,3.28134322 25.5086426,3.28134322 Z M34.3678311,21.5016957 L16.6534624,21.5016957 C15.8138539,21.5016957 16.0724387,20.7911932 16.1126154,20.6918235 C17.9223366,17.1699796 21.5515669,14.9427379 25.5063121,14.9427379 C29.4863192,14.9427379 33.1297186,17.1963601 34.9279741,20.7448642 C34.9923873,20.9385698 35.1154341,21.5016957 34.3678311,21.5016957 Z" id="Shape" fill="#FFD4D5" fill-rule="nonzero"></path>
                    <g id="Group">
                        <path d="M25.5086426,3.28134322 L25.5086426,14.9427379 C29.4877175,14.9435769 33.1300914,17.1970126 34.9279741,20.7448642 C34.9923873,20.9385698 35.1153409,21.5016957 34.3678311,21.5016957 L25.5086426,21.5016957 L25.5086426,29.5056152 L46.1690518,29.5056152 C46.8745206,29.5056152 47.4695268,28.9797763 47.5563121,28.2794345 C47.6698509,27.3640403 47.7272727,26.4303755 47.7272727,25.5042614 C47.7272727,13.2131836 37.7994407,3.28134322 25.5086426,3.28134322 Z" id="Path" fill="#FFBABB" fill-rule="nonzero"></path>
                        <g id="Path">
                            <use fill="black" fill-opacity="1" filter="url(#filter-3)" xlink:href="#path-2"></use>
                            <use fill="#FFFFFF" fill-rule="evenodd" xlink:href="#path-2"></use>
                        </g>
                    </g>
                    <path d="M42.3823775,2.27664684 C38.8871937,-1.21797763 32.4542658,-0.494517933 25.5086426,3.12278054 L25.5086426,6.30205078 C32.0984553,2.5475364 37.8814719,1.7299272 40.4047718,4.25369318 C41.6703835,5.5194913 42.4722678,7.16697642 42.0752552,9.84772039 C42.9074995,10.733285 43.6595769,11.6765512 44.3268265,12.6682903 C45.6110817,7.97600963 44.6991078,4.59393643 42.3823775,2.27664684 Z" id="Path" fill="#FFFFFF" fill-rule="nonzero"></path>
                    <path d="M46.1167569,33.8375178 C46.4874822,32.9198864 45.8112837,31.9154696 44.8206632,31.9154696 L34.5554776,31.9154696 C34.1494229,31.9154696 33.7633168,32.0921165 33.4978338,32.399454 C31.4855513,34.728489 28.5736284,36.0642001 25.5086426,36.0642001 L25.5086426,47.7272727 C34.8787553,47.7272727 42.8370916,41.9539506 46.1167569,33.8375178 Z" id="Path" fill="#FFBABB" fill-rule="nonzero"></path>
                </g>
                <path d="M171.186677,16.6722885 C173.567038,16.6722885 175.499177,14.7440824 175.499177,12.36246 C175.499177,9.98083759 173.567038,8.05263158 171.186677,8.05263158 C168.806315,8.05263158 166.874177,9.98083759 166.874177,12.36246 C166.874177,14.7440824 168.806315,16.6722885 171.186677,16.6722885 Z M171.186677,13.6722885 C170.461803,13.6722885 169.874177,13.0858583 169.874177,12.36246 C169.874177,11.6390617 170.461803,11.0526316 171.186677,11.0526316 C171.91155,11.0526316 172.499177,11.6390617 172.499177,12.36246 C172.499177,13.0858583 171.91155,13.6722885 171.186677,13.6722885 Z" id="Oval" fill="#FFD6D6" fill-rule="nonzero"></path>
                <path d="M16.2419699,91.4821169 C18.6223311,91.4821169 20.5544699,89.5539109 20.5544699,87.1722885 C20.5544699,84.790666 18.6223311,82.86246 16.2419699,82.86246 C13.8616087,82.86246 11.9294699,84.790666 11.9294699,87.1722885 C11.9294699,89.5539109 13.8616087,91.4821169 16.2419699,91.4821169 Z M16.2419699,88.4821169 C15.5170962,88.4821169 14.9294699,87.8956867 14.9294699,87.1722885 C14.9294699,86.4488902 15.5170962,85.86246 16.2419699,85.86246 C16.9668436,85.86246 17.5544699,86.4488902 17.5544699,87.1722885 C17.5544699,87.8956867 16.9668436,88.4821169 16.2419699,88.4821169 Z" id="Oval" fill="#C8BDF7" fill-rule="nonzero"></path>
                <g id="plus1" transform="translate(182.422891, 32.793835)" fill="#C8BDF7" fill-rule="nonzero">
                    <path d="M7.02631579,4.07894737 L8.84210526,4.07894737 C9.67053239,4.07894737 10.3421053,4.75052024 10.3421053,5.57894737 C10.3421053,6.40737449 9.67053239,7.07894737 8.84210526,7.07894737 L7.02631579,7.07894737 L7.02631579,8.89473684 C7.02631579,9.72316397 6.35474291,10.3947368 5.52631579,10.3947368 C4.69788866,10.3947368 4.02631579,9.72316397 4.02631579,8.89473684 L4.02631579,7.07894737 L2.21052632,7.07894737 C1.38209919,7.07894737 0.710526316,6.40737449 0.710526316,5.57894737 C0.710526316,4.75052024 1.38209919,4.07894737 2.21052632,4.07894737 L4.02631579,4.07894737 L4.02631579,2.26315789 C4.02631579,1.43473077 4.69788866,0.763157895 5.52631579,0.763157895 C6.35474291,0.763157895 7.02631579,1.43473077 7.02631579,2.26315789 L7.02631579,4.07894737 Z" id="Combined-Shape"></path>
                </g>
                <g id="plus" transform="translate(14.226598, 117.727775)" fill="#FFD6D6" fill-rule="nonzero">
                    <path d="M6.81578947,3.81578947 L8.63157895,3.81578947 C9.46000607,3.81578947 10.1315789,4.48736235 10.1315789,5.31578947 C10.1315789,6.1442166 9.46000607,6.81578947 8.63157895,6.81578947 L6.81578947,6.81578947 L6.81578947,8.63157895 C6.81578947,9.46000607 6.1442166,10.1315789 5.31578947,10.1315789 C4.48736235,10.1315789 3.81578947,9.46000607 3.81578947,8.63157895 L3.81578947,6.81578947 L2,6.81578947 C1.17157288,6.81578947 0.5,6.1442166 0.5,5.31578947 C0.5,4.48736235 1.17157288,3.81578947 2,3.81578947 L3.81578947,3.81578947 L3.81578947,2 C3.81578947,1.17157288 4.48736235,0.5 5.31578947,0.5 C6.1442166,0.5 6.81578947,1.17157288 6.81578947,2 L6.81578947,3.81578947 Z" id="Combined-Shape"></path>
                </g>
            </g>
            <g id="browser" transform="translate(55.000000, 31.000000)">
                <g id="Path">
                    <use fill="black" fill-opacity="1" filter="url(#filter-5)" xlink:href="#path-4"></use>
                    <use fill="#FFFFFF" fill-rule="evenodd" xlink:href="#path-4"></use>
                </g>
                <path d="M9.76193283,16.6666667 L90.2380672,16.6666667 C91.9405225,16.6666667 93.3333333,18.0416194 93.3333333,19.7222465 L93.3333333,86.9444202 C93.3333333,88.6250473 91.9405225,90 90.2380672,90 L9.76193283,90 C8.0594775,90 6.66666667,88.6250473 6.66666667,86.9444202 L6.66666667,19.7222465 C6.66666667,18.0416194 8.0594775,16.6666667 9.76193283,16.6666667 Z" id="Path" fill="#CABDFC" fill-rule="nonzero"></path>
                <g id="Group-2" transform="translate(28.000000, 31.333333)">
                    <path d="M13.0935312,28.1199756 C7.3354842,28.1199756 2.66766485,23.4521562 2.66766485,17.6941092 C2.66766485,11.9360623 7.3354842,7.2682429 13.0935312,7.2682429 C17.3274136,7.2682429 20.9718496,9.79196324 22.6045708,13.4171355 C24.2372919,9.79196324 27.8817279,7.2682429 32.1156104,7.2682429 C37.8736574,7.2682429 42.5414767,11.9360623 42.5414767,17.6941092 C42.5414767,23.4521562 37.8736574,28.1199756 32.1156104,28.1199756 C27.8817279,28.1199756 24.2372919,25.5962552 22.6045708,21.9710829 C20.9718496,25.5962552 17.3274136,28.1199756 13.0935312,28.1199756 Z M32.1156104,25.6199756 C36.4929455,25.6199756 40.0414767,22.0714443 40.0414767,17.6941092 C40.0414767,13.3167741 36.4929455,9.7682429 32.1156104,9.7682429 C27.7382753,9.7682429 24.189744,13.3167741 24.189744,17.6941092 C24.189744,22.0714443 27.7382753,25.6199756 32.1156104,25.6199756 Z M13.0935312,25.6199756 C17.4708663,25.6199756 21.0193975,22.0714443 21.0193975,17.6941092 C21.0193975,13.3167741 17.4708663,9.7682429 13.0935312,9.7682429 C8.71619608,9.7682429 5.16766485,13.3167741 5.16766485,17.6941092 C5.16766485,22.0714443 8.71619608,25.6199756 13.0935312,25.6199756 Z" id="Combined-Shape" fill="#564984" fill-rule="nonzero"></path>
                    <path d="M32.1156104,25.6199756 C27.7382753,25.6199756 24.189744,22.0714443 24.189744,17.6941092 C24.189744,13.3167741 27.7382753,9.7682429 32.1156104,9.7682429 C36.4929455,9.7682429 40.0414767,13.3167741 40.0414767,17.6941092 C40.0414767,22.0714443 36.4929455,25.6199756 32.1156104,25.6199756 Z M13.0935312,25.6199756 C8.71619608,25.6199756 5.16766485,22.0714443 5.16766485,17.6941092 C5.16766485,13.3167741 8.71619608,9.7682429 13.0935312,9.7682429 C17.4708663,9.7682429 21.0193975,13.3167741 21.0193975,17.6941092 C21.0193975,22.0714443 17.4708663,25.6199756 13.0935312,25.6199756 Z" id="Combined-Shape" fill="#FFFFFF"></path>
                    <path d="M11.5,37 L26.5,37 C27.3284271,37 28,37.6715729 28,38.5 C28,39.3284271 27.3284271,40 26.5,40 L11.5,40 C10.6715729,40 10,39.3284271 10,38.5 C10,37.6715729 10.6715729,37 11.5,37 Z M15.1335203,1.66568516 C15.7913015,1.87524487 16.1546568,2.57836356 15.945097,3.23614471 C15.7355373,3.89392587 15.0324186,4.25728115 14.3746375,4.04772144 C8.59473169,2.20632576 5.02768783,3.50100825 3.15262527,7.96954829 C2.88550584,8.60613177 2.15290988,8.90564157 1.5163264,8.63852214 C0.879742916,8.37140272 0.580233121,7.63880676 0.847352548,7.00222327 C3.26211497,1.2475019 8.19779778,-0.543937272 15.1335203,1.66568516 Z M29.3983364,1.66568516 C36.3340589,-0.543937272 41.2697417,1.2475019 43.6845041,7.00222327 C43.9516236,7.63880676 43.6521138,8.37140272 43.0155303,8.63852214 C42.3789468,8.90564157 41.6463508,8.60613177 41.3792314,7.96954829 C39.5041689,3.50100825 35.937125,2.20632576 30.1572192,4.04772144 C29.499438,4.25728115 28.7963193,3.89392587 28.5867596,3.23614471 C28.3771999,2.57836356 28.7405552,1.87524487 29.3983364,1.66568516 Z" id="Combined-Shape" fill="#594888"></path>
                    <path d="M12.7776884,21.7345133 C10.5890208,21.7345133 8.81475522,19.9602477 8.81475522,17.7715801 C8.81475522,15.5829126 10.5890208,13.8086469 12.7776884,13.8086469 C14.9663559,13.8086469 16.7406216,15.5829126 16.7406216,17.7715801 C16.7406216,19.9602477 14.9663559,21.7345133 12.7776884,21.7345133 Z M31.7997676,21.7345133 C29.6111,21.7345133 27.8368344,19.9602477 27.8368344,17.7715801 C27.8368344,15.5829126 29.6111,13.8086469 31.7997676,13.8086469 C33.9884351,13.8086469 35.7627008,15.5829126 35.7627008,17.7715801 C35.7627008,19.9602477 33.9884351,21.7345133 31.7997676,21.7345133 Z" id="Combined-Shape" fill="#564984"></path>
                </g>
                <path d="M9.44444444,6.66666667 C7.91661377,6.66666667 6.66666667,7.91661377 6.66666667,9.44444444 C6.66666667,10.9722751 7.91661377,12.2222222 9.44444444,12.2222222 C10.9722751,12.2222222 12.2222222,10.9722751 12.2222222,9.44444444 C12.2222222,7.91661377 10.9720988,6.66666667 9.44444444,6.66666667 Z" id="Path" fill="#FF3844" fill-rule="nonzero"></path>
                <path d="M18.3333333,6.66666667 C16.8055027,6.66666667 15.5555556,7.91661377 15.5555556,9.44444444 C15.5555556,10.9722751 16.8055027,12.2222222 18.3333333,12.2222222 C19.861164,12.2222222 21.1111111,10.9722751 21.1111111,9.44444444 C21.1111111,7.91661377 19.861164,6.66666667 18.3333333,6.66666667 Z" id="Path" fill="#FFCB5C" fill-rule="nonzero"></path>
                <path d="M28.3333333,6.66666667 C26.8055027,6.66666667 25.5555556,7.91661377 25.5555556,9.44444444 C25.5555556,10.9722751 26.8055027,12.2222222 28.3333333,12.2222222 C29.861164,12.2222222 31.1111111,10.9722751 31.1111111,9.44444444 C31.1111111,7.91661377 29.8609877,6.66666667 28.3333333,6.66666667 Z" id="Path" fill="#00E9A8" fill-rule="nonzero"></path>
                <path d="M-27.7777778,51.1111111 L45.5555556,51.1111111 L45.5555556,52.5555556 C45.5555556,54.2124098 44.2124098,55.5555556 42.5555556,55.5555556 L-24.7777778,55.5555556 C-26.434632,55.5555556 -27.7777778,54.2124098 -27.7777778,52.5555556 L-27.7777778,51.1111111 Z" id="Rectangle" fill="#B4A7E7" transform="translate(8.888889, 53.333333) rotate(90.000000) translate(-8.888889, -53.333333) "></path>
            </g>
            <g id="phone-call" transform="translate(45.000000, 80.000000)">
                <mask id="mask-7" fill="white">
                    <use xlink:href="#path-6"></use>
                </mask>
                <g id="Rectangle">
                    <use fill="black" fill-opacity="1" filter="url(#filter-8)" xlink:href="#path-6"></use>
                    <use fill="#FFFFFF" fill-rule="evenodd" xlink:href="#path-6"></use>
                </g>
                <path d="M17,53.318375 C15.9457938,53.318375 15.0911908,52.463772 15.0911908,51.4095658 C15.0911908,50.3553596 15.9457938,49.5007566 17,49.5007566 C18.0542062,49.5007566 18.9088092,50.3553596 18.9088092,51.4095658 C18.9088092,52.463772 18.0542062,53.318375 17,53.318375 Z M21.0084211,6.81051316 L12.9915789,6.81051316 C12.4644671,6.81051316 12.0372303,6.38316447 12.0372303,5.85616447 C12.0372303,5.32916447 12.4645789,4.90181579 12.9915789,4.90181579 L21.0084211,4.90181579 C21.5356447,4.90181579 21.9627697,5.32916447 21.9627697,5.85616447 C21.9627697,6.38316447 21.5356447,6.81051316 21.0084211,6.81051316 Z" id="Combined-Shape" fill="#B4A7E7" fill-rule="nonzero" mask="url(#mask-7)"></path>
                <rect id="Rectangle" fill="#FFFFFF" fill-rule="nonzero" mask="url(#mask-7)" x="0" y="12" width="34" height="33.8489013"></rect>
                <g id="Group-3" mask="url(#mask-7)">
                    <g transform="translate(10.000000, 0.000000)">
                        <path d="M21,0 C22.6568542,-3.04359188e-16 24,1.34314575 24,3 L24,54.12 C24,55.7768542 22.6568542,57.12 21,57.12 L21,57.12 L21,0 Z" id="Rectangle" stroke="none" fill="#F7ECFD" fill-rule="evenodd"></path>
                        <path d="M3.52025642,22.5181057 C1.99647361,22.5181057 0.761203573,21.2828357 0.761203573,19.7590528 C0.761203573,18.23527 1.99647361,17 3.52025642,17 C5.04403923,17 6.27930927,18.23527 6.27930927,19.7590528 C6.27930927,21.2828357 5.04403923,22.5181057 3.52025642,22.5181057 Z M11.0021507,22.5181057 C9.47836791,22.5181057 8.24309788,21.2828357 8.24309788,19.7590528 C8.24309788,18.23527 9.47836791,17 11.0021507,17 C12.5259335,17 13.7612036,18.23527 13.7612036,19.7590528 C13.7612036,21.2828357 12.5259335,22.5181057 11.0021507,22.5181057 Z M1.33481116,32.9348717 C1.33481116,28.7246104 3.77793497,25.0766667 7.25820499,25.0766667 C10.738475,25.0766667 13.1815988,28.7246104 13.1815988,32.9348717 C13.1815988,37.1451329 10.738475,40.7930766 7.25820499,40.7930766 C3.77793497,40.7930766 1.33481116,37.1451329 1.33481116,32.9348717 Z M3.33481116,32.9348717 C3.33481116,36.1702689 5.09137441,38.7930766 7.25820499,38.7930766 C9.42503556,38.7930766 11.1815988,36.1702689 11.1815988,32.9348717 C11.1815988,29.6994744 9.42503556,27.0766667 7.25820499,27.0766667 C5.09137441,27.0766667 3.33481116,29.6994744 3.33481116,32.9348717 Z" id="Combined-Shape" stroke="none" fill="#564984" fill-rule="evenodd"></path>
                        <mask id="mask-10" fill="white">
                            <use xlink:href="#path-9"></use>
                        </mask>
                        <use id="Oval" stroke="none" fill="#FFFFFF" fill-rule="evenodd" transform="translate(7.258205, 32.934872) rotate(90.000000) translate(-7.258205, -32.934872) " xlink:href="#path-9"></use>
                        <ellipse id="Oval" stroke="none" fill="#FBBDBD" fill-rule="evenodd" mask="url(#mask-10)" cx="7.315" cy="39.6871535" rx="5.355" ry="7.07567568"></ellipse>
                    </g>
                </g>
            </g>
        </g>
    </g>
</svg>