<svg xmlns="http://www.w3.org/2000/svg" width="1181" height="595" viewBox="0 0 1181 595">
  <g id="sushi" transform="translate(-93 -86)">
    <rect id="frame" width="1181" height="595" transform="translate(93 86)" fill="none"/>
    <circle id="bg-01" cx="177" cy="177" r="177" transform="translate(394 186)" fill="#f3fcf0" opacity="0.11"/>
    <circle id="bg-02" cx="54" cy="54" r="54" transform="translate(866 186)" fill="#f3fcf0" opacity="0.11"/>
    <g id="bowl" transform="translate(15 27)">
      <path id="Path_7" data-name="Path 7" d="M637.812,458.906s52.01,49.079,94.922,66.775,120.291,34.031,165.456,25.545,40.848-52.973,7.524-73.964S763.962,440.672,740.978,451.5s-62.3,16.651-62.3,16.651Z" opacity="0.095"/>
      <g id="Group_1" data-name="Group 1" transform="translate(78.005 66.923)">
        <path id="Path_1" data-name="Path 1" d="M604,401.038c-37.5,0-57.444-11.641-75-42.046-19.989-27.228-100-100-100-100s-2.043-25.6,175-25,175,25,175,25-81.83,71.85-100,100S643.047,401.936,604,401.038Z" transform="translate(-0.001 0)" fill="none" stroke="#1f271b" stroke-linecap="round" stroke-linejoin="round" stroke-width="10"/>
        <path id="Path_2" data-name="Path 2" d="M429,273s-3.055,25,175,25,175-25,175-25" transform="translate(0 -14.006)" fill="none" stroke="#1f271b" stroke-width="10"/>
      </g>
    </g>
    <path id="chopstick-02" d="M6.3,259.738V0c5.983,0,6.3,14.393,6.3,14.393S9.984,242.467,8.608,251.987c-1,6.941-1.772,7.881-2.115,7.881A.248.248,0,0,1,6.3,259.738Zm-2.311-7.751C2.611,242.467,0,14.393,0,14.393S.315,0,6.3,0V259.738a.248.248,0,0,1-.2.13C5.759,259.868,4.99,258.928,3.987,251.987Z" transform="translate(927.733 214.295) rotate(43)" fill="#1f271b"/>
    <path id="chopstick-01" d="M6.3,259.738V0c5.983,0,6.3,14.393,6.3,14.393S9.984,242.467,8.608,251.987c-1,6.941-1.772,7.881-2.115,7.881A.248.248,0,0,1,6.3,259.738Zm-2.311-7.751C2.611,242.467,0,14.393,0,14.393S.315,0,6.3,0V259.738a.248.248,0,0,1-.2.13C5.759,259.868,4.99,258.928,3.987,251.987Z" transform="matrix(0.848, 0.53, -0.53, 0.848, 871.709, 186.214)" fill="#1f271b"/>
    <g id="sushi-01" transform="matrix(0.899, 0.438, -0.438, 0.899, 419.647, 221.938)">
      <g id="Union_3" data-name="Union 3" transform="translate(312 78)" fill="#1f271b">
        <path d="M 22.78307151794434 34.46657943725586 C 16.7373104095459 34.46657943725586 11.05912113189697 33.87858963012695 6.794491291046143 32.81090927124023 C 4.74898099899292 32.29879760742188 3.15105128288269 31.70722770690918 2.045111179351807 31.0526180267334 C 1.340241193771362 30.63540840148926 0.5000011920928955 29.98620796203613 0.5000011920928955 29.26271820068359 C 0.5000011920928955 29.20854759216309 0.5047212243080139 29.1534481048584 0.5140312314033508 29.09894752502441 L 0.6138212084770203 28.51475715637207 L 0.5000011920928955 28.51475715637207 L 0.5000011920928955 5.703857898712158 C 0.5000011920928955 4.980367660522461 1.340241193771362 4.331167697906494 2.045111179351807 3.913957834243774 C 3.15105128288269 3.259347915649414 4.74898099899292 2.66777777671814 6.794491291046143 2.155667781829834 C 11.05912113189697 1.087987780570984 16.7373104095459 0.4999978244304657 22.78307151794434 0.4999978244304657 C 28.82894134521484 0.4999978244304657 34.50720977783203 1.087987780570984 38.77188110351562 2.155667781829834 C 40.81740951538086 2.667767763137817 42.41534042358398 3.259347915649414 43.52128982543945 3.913957834243774 C 44.22616195678711 4.331167697906494 45.06640243530273 4.980367660522461 45.06640243530273 5.703857898712158 L 45.06640243530273 28.51475715637207 L 44.95257949829102 28.51475715637207 L 45.05237197875977 29.09894752502441 C 45.06167984008789 29.1534481048584 45.06640243530273 29.20854759216309 45.06640243530273 29.26271820068359 C 45.06640243530273 29.98620796203613 44.22616195678711 30.63540840148926 43.52128982543945 31.0526180267334 C 42.41534042358398 31.70722770690918 40.81740951538086 32.29880905151367 38.77188110351562 32.81090927124023 C 34.50720977783203 33.87858963012695 28.82894134521484 34.46657943725586 22.78307151794434 34.46657943725586 Z" stroke="none"/>
        <path d="M 22.78307151794434 33.96657943725586 C 28.7891902923584 33.96657943725586 34.42434310913086 33.3838996887207 38.65045166015625 32.32587814331055 C 43.32995986938477 31.15434837341309 44.56640243530273 29.80992698669434 44.56640243530273 29.26271820068359 C 44.56640243530273 29.23631858825684 44.56415176391602 29.21028709411621 44.55951309204102 29.18313789367676 L 44.35992050170898 28.01475715637207 L 44.56640243530273 28.01475715637207 L 44.56640243530273 5.703857898712158 C 44.56640243530273 5.156647682189941 43.32995986938477 3.812227725982666 38.65045166015625 2.640697717666626 C 34.42434310913086 1.582677841186523 28.7891902923584 0.9999977946281433 22.78307151794434 0.9999977946281433 C 16.77706146240234 0.9999977946281433 11.14200115203857 1.582677841186523 6.915921211242676 2.640697717666626 C 2.236431121826172 3.812237739562988 1.000001192092896 5.156647682189941 1.000001192092896 5.703857898712158 L 1.000001192092896 28.01475715637207 L 1.206481218338013 28.01475715637207 L 1.006891250610352 29.18313789367676 C 1.002251267433167 29.21028709411621 1.000001192092896 29.23631858825684 1.000001192092896 29.26271820068359 C 1.000001192092896 29.80992698669434 2.236431121826172 31.15433692932129 6.915921211242676 32.32587814331055 C 11.14200115203857 33.3838996887207 16.77706146240234 33.96657943725586 22.78307151794434 33.96657943725586 M 22.78307151794434 34.96657943725586 C 10.20047092437744 34.96657943725586 1.217651401930198e-06 32.41282653808594 1.217651401930198e-06 29.26271820068359 C 1.217651401930198e-06 29.17965698242188 0.007131217513233423 29.09694862365723 0.02117121778428555 29.01475715637207 L 1.217651401930198e-06 29.01475715637207 L 1.217651401930198e-06 5.703857898712158 C 1.217651401930198e-06 2.553747892379761 10.20047092437744 -2.188720600315719e-06 22.78307151794434 -2.188720600315719e-06 C 35.36593246459961 -2.188720600315719e-06 45.56640243530273 2.553747892379761 45.56640243530273 5.703857898712158 L 45.56640243530273 29.01475715637207 L 45.54523086547852 29.01475715637207 C 45.55927276611328 29.09694862365723 45.56640243530273 29.17965698242188 45.56640243530273 29.26271820068359 C 45.56640243530273 32.41282653808594 35.36593246459961 34.96657943725586 22.78307151794434 34.96657943725586 Z" stroke="none" fill="#707070"/>
      </g>
      <g id="Ellipse_3" data-name="Ellipse 3" transform="translate(317.094 80.547)" fill="#fff" stroke="#707070" stroke-width="1">
        <ellipse cx="17.83" cy="4.245" rx="17.83" ry="4.245" stroke="none"/>
        <ellipse cx="17.83" cy="4.245" rx="17.33" ry="3.745" fill="none"/>
      </g>
    </g>
    <g id="sushi-02" transform="matrix(0.788, -0.616, 0.616, 0.788, 397.066, 583.388)">
      <g id="Union_3-2" data-name="Union 3" transform="translate(312 78)" fill="#1f271b">
        <path d="M 22.78307151794434 34.46657943725586 C 16.7373104095459 34.46657943725586 11.05912113189697 33.87858963012695 6.794491291046143 32.81090927124023 C 4.74898099899292 32.29879760742188 3.15105128288269 31.70722770690918 2.045111179351807 31.0526180267334 C 1.340241193771362 30.63540840148926 0.5000011920928955 29.98620796203613 0.5000011920928955 29.26271820068359 C 0.5000011920928955 29.20854759216309 0.5047212243080139 29.1534481048584 0.5140312314033508 29.09894752502441 L 0.6138212084770203 28.51475715637207 L 0.5000011920928955 28.51475715637207 L 0.5000011920928955 5.703857898712158 C 0.5000011920928955 4.980367660522461 1.340241193771362 4.331167697906494 2.045111179351807 3.913957834243774 C 3.15105128288269 3.259347915649414 4.74898099899292 2.66777777671814 6.794491291046143 2.155667781829834 C 11.05912113189697 1.087987780570984 16.7373104095459 0.4999978244304657 22.78307151794434 0.4999978244304657 C 28.82894134521484 0.4999978244304657 34.50720977783203 1.087987780570984 38.77188110351562 2.155667781829834 C 40.81740951538086 2.667767763137817 42.41534042358398 3.259347915649414 43.52128982543945 3.913957834243774 C 44.22616195678711 4.331167697906494 45.06640243530273 4.980367660522461 45.06640243530273 5.703857898712158 L 45.06640243530273 28.51475715637207 L 44.95257949829102 28.51475715637207 L 45.05237197875977 29.09894752502441 C 45.06167984008789 29.1534481048584 45.06640243530273 29.20854759216309 45.06640243530273 29.26271820068359 C 45.06640243530273 29.98620796203613 44.22616195678711 30.63540840148926 43.52128982543945 31.0526180267334 C 42.41534042358398 31.70722770690918 40.81740951538086 32.29880905151367 38.77188110351562 32.81090927124023 C 34.50720977783203 33.87858963012695 28.82894134521484 34.46657943725586 22.78307151794434 34.46657943725586 Z" stroke="none"/>
        <path d="M 22.78307151794434 33.96657943725586 C 28.7891902923584 33.96657943725586 34.42434310913086 33.3838996887207 38.65045166015625 32.32587814331055 C 43.32995986938477 31.15434837341309 44.56640243530273 29.80992698669434 44.56640243530273 29.26271820068359 C 44.56640243530273 29.23631858825684 44.56415176391602 29.21028709411621 44.55951309204102 29.18313789367676 L 44.35992050170898 28.01475715637207 L 44.56640243530273 28.01475715637207 L 44.56640243530273 5.703857898712158 C 44.56640243530273 5.156647682189941 43.32995986938477 3.812227725982666 38.65045166015625 2.640697717666626 C 34.42434310913086 1.582677841186523 28.7891902923584 0.9999977946281433 22.78307151794434 0.9999977946281433 C 16.77706146240234 0.9999977946281433 11.14200115203857 1.582677841186523 6.915921211242676 2.640697717666626 C 2.236431121826172 3.812237739562988 1.000001192092896 5.156647682189941 1.000001192092896 5.703857898712158 L 1.000001192092896 28.01475715637207 L 1.206481218338013 28.01475715637207 L 1.006891250610352 29.18313789367676 C 1.002251267433167 29.21028709411621 1.000001192092896 29.23631858825684 1.000001192092896 29.26271820068359 C 1.000001192092896 29.80992698669434 2.236431121826172 31.15433692932129 6.915921211242676 32.32587814331055 C 11.14200115203857 33.3838996887207 16.77706146240234 33.96657943725586 22.78307151794434 33.96657943725586 M 22.78307151794434 34.96657943725586 C 10.20047092437744 34.96657943725586 1.217651401930198e-06 32.41282653808594 1.217651401930198e-06 29.26271820068359 C 1.217651401930198e-06 29.17965698242188 0.007131217513233423 29.09694862365723 0.02117121778428555 29.01475715637207 L 1.217651401930198e-06 29.01475715637207 L 1.217651401930198e-06 5.703857898712158 C 1.217651401930198e-06 2.553747892379761 10.20047092437744 -2.188720600315719e-06 22.78307151794434 -2.188720600315719e-06 C 35.36593246459961 -2.188720600315719e-06 45.56640243530273 2.553747892379761 45.56640243530273 5.703857898712158 L 45.56640243530273 29.01475715637207 L 45.54523086547852 29.01475715637207 C 45.55927276611328 29.09694862365723 45.56640243530273 29.17965698242188 45.56640243530273 29.26271820068359 C 45.56640243530273 32.41282653808594 35.36593246459961 34.96657943725586 22.78307151794434 34.96657943725586 Z" stroke="none" fill="#707070"/>
      </g>
      <g id="Ellipse_3-2" data-name="Ellipse 3" transform="translate(317.094 80.547)" fill="#fff" stroke="#707070" stroke-width="1">
        <ellipse cx="17.83" cy="4.245" rx="17.83" ry="4.245" stroke="none"/>
        <ellipse cx="17.83" cy="4.245" rx="17.33" ry="3.745" fill="none"/>
      </g>
    </g>
  </g>
</svg>
