<svg xmlns="http://www.w3.org/2000/svg" viewBox="0 0 1464 24" width="1464" height="24"><g><defs><clipPath id="clip_frame0_path_1"><path d="M19.923 17.487H6.17l-3.389 2.412V5.507c0-.776.58-1.406 1.296-1.406h15.846c.716 0 1.296.629 1.296 1.406v10.574c0 .776-.58 1.406-1.296 1.406z"/></clipPath></defs><path d="M19.923 17.487H6.17l-3.389 2.412V5.507c0-.776.58-1.406 1.296-1.406h15.846c.716 0 1.296.629 1.296 1.406v10.574c0 .776-.58 1.406-1.296 1.406z" fill="none" stroke="#000000" stroke-width="2" stroke-miterlimit="10"/><path clip-path="url(#clip_frame0_path_1)" d="M1.176 20.646s2.394-1.298 8.322-.472c0 0 7.613 1.773 13.35.081-.064-.025 0 3.118 0 3.118l-21.672.018v-2.745z" fill="#000000"/><path d="M.883 7.59h15.692" fill="none" stroke="#ffffff" stroke-width="2" stroke-dasharray="0,15.692" stroke-dashoffset="15.692" stroke-miterlimit="10"/><path d="M.883 10.876l13.243-.114" fill="none" stroke="#ffffff" stroke-width="2" stroke-dasharray="0,13.243490665228709" stroke-dashoffset="13.243491" stroke-miterlimit="10"/><path d="M.883 14.162l10.983-.094" fill="none" stroke="#ffffff" stroke-width="2" stroke-dasharray="0,10.983402250668961" stroke-dashoffset="10.983402" stroke-miterlimit="10"/></g><g transform="translate(24)"><defs><clipPath id="clip_frame1_path_1"><path d="M19.923 17.487H6.17l-3.389 2.412V5.507c0-.776.58-1.406 1.296-1.406h15.846c.716 0 1.296.629 1.296 1.406v10.574c0 .776-.58 1.406-1.296 1.406z"/></clipPath></defs><path d="M19.923 17.487H6.17l-3.389 2.412V5.507c0-.776.58-1.406 1.296-1.406h15.846c.716 0 1.296.629 1.296 1.406v10.574c0 .776-.58 1.406-1.296 1.406z" fill="none" stroke="#000000" stroke-width="2" stroke-miterlimit="10"/><path clip-path="url(#clip_frame1_path_1)" d="M1.176 20.635s2.394-1.303 8.322-.474c0 0 7.613 1.78 13.35.082-.064-.026 0 3.13 0 3.13l-21.672.018v-2.756z" fill="#000000"/><path d="M.883 7.59h15.692" fill="none" stroke="#ffffff" stroke-width="2" stroke-dasharray="0,15.692" stroke-dashoffset="15.692" stroke-miterlimit="10"/><path d="M.883 10.876l13.243-.114" fill="none" stroke="#ffffff" stroke-width="2" stroke-dasharray="0,13.243490665228709" stroke-dashoffset="13.243491" stroke-miterlimit="10"/><path d="M.883 14.162l10.983-.094" fill="none" stroke="#ffffff" stroke-width="2" stroke-dasharray="0,10.983402250668961" stroke-dashoffset="10.983402" stroke-miterlimit="10"/></g><g transform="translate(48)"><defs><clipPath id="clip_frame2_path_1"><path d="M19.923 17.487H6.17l-3.389 2.412V5.507c0-.776.58-1.406 1.296-1.406h15.846c.716 0 1.296.629 1.296 1.406v10.574c0 .776-.58 1.406-1.296 1.406z"/></clipPath></defs><path d="M19.923 17.487H6.17l-3.389 2.412V5.507c0-.776.58-1.406 1.296-1.406h15.846c.716 0 1.296.629 1.296 1.406v10.574c0 .776-.58 1.406-1.296 1.406z" fill="none" stroke="#000000" stroke-width="2" stroke-miterlimit="10"/><path clip-path="url(#clip_frame2_path_1)" d="M1.176 20.604s2.394-1.319 8.322-.48c0 0 7.613 1.801 13.35.082-.064-.025 0 3.167 0 3.167l-21.672.018v-2.787z" fill="#000000"/><path d="M.883 7.59h15.692" fill="none" stroke="#ffffff" stroke-width="2" stroke-dasharray="0,15.692" stroke-dashoffset="15.692" stroke-miterlimit="10"/><path d="M.883 10.876l13.243-.114" fill="none" stroke="#ffffff" stroke-width="2" stroke-dasharray="0,13.243490665228709" stroke-dashoffset="13.243491" stroke-miterlimit="10"/><path d="M.883 14.162l10.983-.094" fill="none" stroke="#ffffff" stroke-width="2" stroke-dasharray="0,10.983402250668961" stroke-dashoffset="10.983402" stroke-miterlimit="10"/></g><g transform="translate(72)"><defs><clipPath id="clip_frame3_path_1"><path d="M19.923 17.487H6.17l-3.389 2.412V5.507c0-.776.58-1.406 1.296-1.406h15.846c.716 0 1.296.629 1.296 1.406v10.574c0 .776-.58 1.406-1.296 1.406z"/></clipPath></defs><path d="M19.923 17.487H6.17l-3.389 2.412V5.507c0-.776.58-1.406 1.296-1.406h15.846c.716 0 1.296.629 1.296 1.406v10.574c0 .776-.58 1.406-1.296 1.406z" fill="none" stroke="#000000" stroke-width="2" stroke-miterlimit="10"/><path clip-path="url(#clip_frame3_path_1)" d="M1.176 20.552s2.394-1.342 8.322-.488c0 0 7.613 1.834 13.35.084-.064-.026 0 3.224 0 3.224l-21.672.019v-2.839z" fill="#000000"/><path d="M.883 7.59h15.692" fill="none" stroke="#ffffff" stroke-width="2" stroke-dasharray="0,15.692" stroke-dashoffset="15.692" stroke-miterlimit="10"/><path d="M.883 10.876l13.243-.114" fill="none" stroke="#ffffff" stroke-width="2" stroke-dasharray="0,13.243490665228709" stroke-dashoffset="13.243491" stroke-miterlimit="10"/><path d="M.883 14.162l10.983-.094" fill="none" stroke="#ffffff" stroke-width="2" stroke-dasharray="0,10.983402250668961" stroke-dashoffset="10.983402" stroke-miterlimit="10"/></g><g transform="translate(96)"><defs><clipPath id="clip_frame4_path_1"><path d="M19.923 17.487H6.17l-3.389 2.412V5.507c0-.776.58-1.406 1.296-1.406h15.846c.716 0 1.296.629 1.296 1.406v10.574c0 .776-.58 1.406-1.296 1.406z"/></clipPath></defs><path d="M19.923 17.487H6.17l-3.389 2.412V5.507c0-.776.58-1.406 1.296-1.406h15.846c.716 0 1.296.629 1.296 1.406v10.574c0 .776-.58 1.406-1.296 1.406z" fill="none" stroke="#000000" stroke-width="2" stroke-miterlimit="10"/><path clip-path="url(#clip_frame4_path_1)" d="M1.176 20.483s2.394-1.375 8.322-.5c0 0 7.613 1.878 13.35.086-.064-.027 0 3.303 0 3.303l-21.672.019v-2.908z" fill="#000000"/><path d="M.883 7.59h15.692" fill="none" stroke="#ffffff" stroke-width="2" stroke-dasharray="0,15.692" stroke-dashoffset="15.692" stroke-miterlimit="10"/><path d="M.883 10.876l13.243-.114" fill="none" stroke="#ffffff" stroke-width="2" stroke-dasharray="0,13.243490665228709" stroke-dashoffset="13.243491" stroke-miterlimit="10"/><path d="M.883 14.162l10.983-.094" fill="none" stroke="#ffffff" stroke-width="2" stroke-dasharray="0,10.983402250668961" stroke-dashoffset="10.983402" stroke-miterlimit="10"/></g><g transform="translate(120)"><defs><clipPath id="clip_frame5_path_1"><path d="M19.923 17.487H6.17l-3.389 2.412V5.507c0-.776.58-1.406 1.296-1.406h15.846c.716 0 1.296.629 1.296 1.406v10.574c0 .776-.58 1.406-1.296 1.406z"/></clipPath></defs><path d="M19.923 17.487H6.17l-3.389 2.412V5.507c0-.776.58-1.406 1.296-1.406h15.846c.716 0 1.296.629 1.296 1.406v10.574c0 .776-.58 1.406-1.296 1.406z" fill="none" stroke="#000000" stroke-width="2" stroke-miterlimit="10"/><path clip-path="url(#clip_frame5_path_1)" d="M1.176 20.396s2.394-1.416 8.322-.515c0 0 7.613 1.935 13.35.089-.064-.027 0 3.401 0 3.401l-21.672.02v-2.995z" fill="#000000"/><path d="M.883 7.59h15.692" fill="none" stroke="#ffffff" stroke-width="2" stroke-dasharray="0,15.692" stroke-dashoffset="15.692" stroke-miterlimit="10"/><path d="M.883 10.876l13.243-.114" fill="none" stroke="#ffffff" stroke-width="2" stroke-dasharray="0,13.243490665228709" stroke-dashoffset="13.243491" stroke-miterlimit="10"/><path d="M.883 14.162l10.983-.094" fill="none" stroke="#ffffff" stroke-width="2" stroke-dasharray="0,10.983402250668961" stroke-dashoffset="10.983402" stroke-miterlimit="10"/></g><g transform="translate(144)"><defs><clipPath id="clip_frame6_path_1"><path d="M19.923 17.487H6.17l-3.389 2.412V5.507c0-.776.58-1.406 1.296-1.406h15.846c.716 0 1.296.629 1.296 1.406v10.574c0 .776-.58 1.406-1.296 1.406z"/></clipPath></defs><path d="M19.923 17.487H6.17l-3.389 2.412V5.507c0-.776.58-1.406 1.296-1.406h15.846c.716 0 1.296.629 1.296 1.406v10.574c0 .776-.58 1.406-1.296 1.406z" fill="none" stroke="#000000" stroke-width="2" stroke-miterlimit="10"/><path clip-path="url(#clip_frame6_path_1)" d="M1.176 20.293s2.394-1.464 8.322-.532c0 0 7.613 2.001 13.35.091-.064-.028 0 3.519 0 3.519l-21.672.02v-3.098z" fill="#000000"/><path d="M.883 7.59h15.692" fill="none" stroke="#ffffff" stroke-width="2" stroke-dasharray="0,15.692" stroke-dashoffset="15.692" stroke-miterlimit="10"/><path d="M.883 10.876l13.243-.114" fill="none" stroke="#ffffff" stroke-width="2" stroke-dasharray="0,13.243490665228709" stroke-dashoffset="13.243491" stroke-miterlimit="10"/><path d="M.883 14.162l10.983-.094" fill="none" stroke="#ffffff" stroke-width="2" stroke-dasharray="0,10.983402250668961" stroke-dashoffset="10.983402" stroke-miterlimit="10"/></g><g transform="translate(168)"><defs><clipPath id="clip_frame7_path_1"><path d="M19.923 17.487H6.17l-3.389 2.412V5.507c0-.776.58-1.406 1.296-1.406h15.846c.716 0 1.296.629 1.296 1.406v10.574c0 .776-.58 1.406-1.296 1.406z"/></clipPath></defs><path d="M19.923 17.487H6.17l-3.389 2.412V5.507c0-.776.58-1.406 1.296-1.406h15.846c.716 0 1.296.629 1.296 1.406v10.574c0 .776-.58 1.406-1.296 1.406z" fill="none" stroke="#000000" stroke-width="2" stroke-miterlimit="10"/><path clip-path="url(#clip_frame7_path_1)" d="M1.176 20.175s2.394-1.521 8.322-.553c0 0 7.613 2.077 13.35.095-.064-.029 0 3.653 0 3.653l-21.672.021v-3.216z" fill="#000000"/><path d="M.883 7.59h15.692" fill="none" stroke="#ffffff" stroke-width="2" stroke-dasharray="0,15.692" stroke-dashoffset="15.692" stroke-miterlimit="10"/><path d="M.883 10.876l13.243-.114" fill="none" stroke="#ffffff" stroke-width="2" stroke-dasharray="0,13.243490665228709" stroke-dashoffset="13.243491" stroke-miterlimit="10"/><path d="M.883 14.162l10.983-.094" fill="none" stroke="#ffffff" stroke-width="2" stroke-dasharray="0,10.983402250668961" stroke-dashoffset="10.983402" stroke-miterlimit="10"/></g><g transform="translate(192)"><defs><clipPath id="clip_frame8_path_1"><path d="M19.923 17.487H6.17l-3.389 2.412V5.507c0-.776.58-1.406 1.296-1.406h15.846c.716 0 1.296.629 1.296 1.406v10.574c0 .776-.58 1.406-1.296 1.406z"/></clipPath></defs><path d="M19.923 17.487H6.17l-3.389 2.412V5.507c0-.776.58-1.406 1.296-1.406h15.846c.716 0 1.296.629 1.296 1.406v10.574c0 .776-.58 1.406-1.296 1.406z" fill="none" stroke="#000000" stroke-width="2" stroke-miterlimit="10"/><path clip-path="url(#clip_frame8_path_1)" d="M1.176 20.042s2.394-1.584 8.322-.576c0 0 7.613 2.163 13.35.099-.064-.031 0 3.804 0 3.804l-21.672.022v-3.349z" fill="#000000"/><path d="M.883 7.59h15.692" fill="none" stroke="#ffffff" stroke-width="2" stroke-dasharray="0,15.692" stroke-dashoffset="15.692" stroke-miterlimit="10"/><path d="M.883 10.876l13.243-.114" fill="none" stroke="#ffffff" stroke-width="2" stroke-dasharray="0,13.243490665228709" stroke-dashoffset="13.243491" stroke-miterlimit="10"/><path d="M.883 14.162l10.983-.094" fill="none" stroke="#ffffff" stroke-width="2" stroke-dasharray="0,10.983402250668961" stroke-dashoffset="10.983402" stroke-miterlimit="10"/></g><g transform="translate(216)"><defs><clipPath id="clip_frame9_path_1"><path d="M19.923 17.487H6.17l-3.389 2.412V5.507c0-.776.58-1.406 1.296-1.406h15.846c.716 0 1.296.629 1.296 1.406v10.574c0 .776-.58 1.406-1.296 1.406z"/></clipPath></defs><path d="M19.923 17.487H6.17l-3.389 2.412V5.507c0-.776.58-1.406 1.296-1.406h15.846c.716 0 1.296.629 1.296 1.406v10.574c0 .776-.58 1.406-1.296 1.406z" fill="none" stroke="#000000" stroke-width="2" stroke-miterlimit="10"/><path clip-path="url(#clip_frame9_path_1)" d="M1.176 19.895s2.394-1.654 8.322-.601c0 0 7.613 2.258 13.35.103-.064-.032 0 3.971 0 3.971l-21.672.023v-3.496z" fill="#000000"/><path d="M.883 7.59h15.692" fill="none" stroke="#ffffff" stroke-width="2" stroke-dasharray="0,15.692" stroke-dashoffset="15.692" stroke-miterlimit="10"/><path d="M.883 10.876l13.243-.114" fill="none" stroke="#ffffff" stroke-width="2" stroke-dasharray="0,13.243490665228709" stroke-dashoffset="13.243491" stroke-miterlimit="10"/><path d="M.883 14.162l10.983-.094" fill="none" stroke="#ffffff" stroke-width="2" stroke-dasharray="0,10.983402250668961" stroke-dashoffset="10.983402" stroke-miterlimit="10"/></g><g transform="translate(240)"><defs><clipPath id="clip_frame10_path_1"><path d="M19.923 17.487H6.17l-3.389 2.412V5.507c0-.776.58-1.406 1.296-1.406h15.846c.716 0 1.296.629 1.296 1.406v10.574c0 .776-.58 1.406-1.296 1.406z"/></clipPath></defs><path d="M19.923 17.487H6.17l-3.389 2.412V5.507c0-.776.58-1.406 1.296-1.406h15.846c.716 0 1.296.629 1.296 1.406v10.574c0 .776-.58 1.406-1.296 1.406z" fill="none" stroke="#000000" stroke-width="2" stroke-miterlimit="10"/><path clip-path="url(#clip_frame10_path_1)" d="M1.176 19.735s2.394-1.73 8.322-.629c0 0 7.613 2.362 13.35.108-.064-.034 0 4.153 0 4.153l-21.672.024v-3.656z" fill="#000000"/><path d="M.883 7.59h15.692" fill="none" stroke="#ffffff" stroke-width="2" stroke-dasharray="0,15.692" stroke-dashoffset="15.692" stroke-miterlimit="10"/><path d="M.883 10.876l13.243-.114" fill="none" stroke="#ffffff" stroke-width="2" stroke-dasharray="0,13.243490665228709" stroke-dashoffset="13.243491" stroke-miterlimit="10"/><path d="M.883 14.162l10.983-.094" fill="none" stroke="#ffffff" stroke-width="2" stroke-dasharray="0,10.983402250668961" stroke-dashoffset="10.983402" stroke-miterlimit="10"/></g><g transform="translate(264)"><defs><clipPath id="clip_frame11_path_1"><path d="M19.923 17.487H6.17l-3.389 2.412V5.507c0-.776.58-1.406 1.296-1.406h15.846c.716 0 1.296.629 1.296 1.406v10.574c0 .776-.58 1.406-1.296 1.406z"/></clipPath></defs><path d="M19.923 17.487H6.17l-3.389 2.412V5.507c0-.776.58-1.406 1.296-1.406h15.846c.716 0 1.296.629 1.296 1.406v10.574c0 .776-.58 1.406-1.296 1.406z" fill="none" stroke="#000000" stroke-width="2" stroke-miterlimit="10"/><path clip-path="url(#clip_frame11_path_1)" d="M1.176 19.562s2.394-1.812 8.322-.659c0 0 7.613 2.474 13.35.113-.064-.035 0 4.35 0 4.35l-21.672.025v-3.829z" fill="#000000"/><path d="M.883 7.59h15.692" fill="none" stroke="#ffffff" stroke-width="2" stroke-dasharray="0,15.692" stroke-dashoffset="15.692" stroke-miterlimit="10"/><path d="M.883 10.876l13.243-.114" fill="none" stroke="#ffffff" stroke-width="2" stroke-dasharray="0,13.243490665228709" stroke-dashoffset="13.243491" stroke-miterlimit="10"/><path d="M.883 14.162l10.983-.094" fill="none" stroke="#ffffff" stroke-width="2" stroke-dasharray="0,10.983402250668961" stroke-dashoffset="10.983402" stroke-miterlimit="10"/></g><g transform="translate(288)"><defs><clipPath id="clip_frame12_path_1"><path d="M19.923 17.487H6.17l-3.389 2.412V5.507c0-.776.58-1.406 1.296-1.406h15.846c.716 0 1.296.629 1.296 1.406v10.574c0 .776-.58 1.406-1.296 1.406z"/></clipPath></defs><path d="M19.923 17.487H6.17l-3.389 2.412V5.507c0-.776.58-1.406 1.296-1.406h15.846c.716 0 1.296.629 1.296 1.406v10.574c0 .776-.58 1.406-1.296 1.406z" fill="none" stroke="#000000" stroke-width="2" stroke-miterlimit="10"/><path clip-path="url(#clip_frame12_path_1)" d="M1.176 19.376s2.394-1.898 8.322-.69c0 0 7.613 2.593 13.35.118-.064-.036 0 4.561 0 4.561l-21.672.026v-4.015z" fill="#000000"/><path d="M.883 7.59h15.692" fill="none" stroke="#ffffff" stroke-width="2" stroke-dasharray="0,15.692" stroke-dashoffset="15.692" stroke-miterlimit="10"/><path d="M.883 10.876l13.243-.114" fill="none" stroke="#ffffff" stroke-width="2" stroke-dasharray="0,13.243490665228709" stroke-dashoffset="13.243491" stroke-miterlimit="10"/><path d="M.883 14.162l10.983-.094" fill="none" stroke="#ffffff" stroke-width="2" stroke-dasharray="0,10.983402250668961" stroke-dashoffset="10.983402" stroke-miterlimit="10"/></g><g transform="translate(312)"><defs><clipPath id="clip_frame13_path_1"><path d="M19.923 17.487H6.17l-3.389 2.412V5.507c0-.776.58-1.406 1.296-1.406h15.846c.716 0 1.296.629 1.296 1.406v10.574c0 .776-.58 1.406-1.296 1.406z"/></clipPath></defs><path d="M19.923 17.487H6.17l-3.389 2.412V5.507c0-.776.58-1.406 1.296-1.406h15.846c.716 0 1.296.629 1.296 1.406v10.574c0 .776-.58 1.406-1.296 1.406z" fill="none" stroke="#000000" stroke-width="2" stroke-miterlimit="10"/><path clip-path="url(#clip_frame13_path_1)" d="M1.176 19.18s2.394-1.992 8.322-.725c0 0 7.613 2.721 13.35.125-.064-.039 0 4.784 0 4.784l-21.672.027V19.18z" fill="#000000"/><path d="M.883 7.59h15.692" fill="none" stroke="#ffffff" stroke-width="2" stroke-dasharray="0,15.692" stroke-dashoffset="15.692" stroke-miterlimit="10"/><path d="M.883 10.876l13.243-.114" fill="none" stroke="#ffffff" stroke-width="2" stroke-dasharray="0,13.243490665228709" stroke-dashoffset="13.243491" stroke-miterlimit="10"/><path d="M.883 14.162l10.983-.094" fill="none" stroke="#ffffff" stroke-width="2" stroke-dasharray="0,10.983402250668961" stroke-dashoffset="10.983402" stroke-miterlimit="10"/></g><g transform="translate(336)"><defs><clipPath id="clip_frame14_path_1"><path d="M19.923 17.487H6.17l-3.389 2.412V5.507c0-.776.58-1.406 1.296-1.406h15.846c.716 0 1.296.629 1.296 1.406v10.574c0 .776-.58 1.406-1.296 1.406z"/></clipPath></defs><path d="M19.923 17.487H6.17l-3.389 2.412V5.507c0-.776.58-1.406 1.296-1.406h15.846c.716 0 1.296.629 1.296 1.406v10.574c0 .776-.58 1.406-1.296 1.406z" fill="none" stroke="#000000" stroke-width="2" stroke-miterlimit="10"/><path clip-path="url(#clip_frame14_path_1)" d="M1.176 18.972s2.394-2.09 8.322-.76c0 0 7.613 2.854 13.35.13-.064-.04 0 5.02 0 5.02l-21.672.029v-4.419z" fill="#000000"/><path d="M.883 7.59h15.692" fill="none" stroke="#ffffff" stroke-width="2" stroke-dasharray="0,15.692" stroke-dashoffset="15.692" stroke-miterlimit="10"/><path d="M.883 10.876l13.243-.114" fill="none" stroke="#ffffff" stroke-width="2" stroke-dasharray="0,13.243490665228709" stroke-dashoffset="13.243491" stroke-miterlimit="10"/><path d="M.883 14.162l10.983-.094" fill="none" stroke="#ffffff" stroke-width="2" stroke-dasharray="0,10.983402250668961" stroke-dashoffset="10.983402" stroke-miterlimit="10"/></g><g transform="translate(360)"><defs><clipPath id="clip_frame15_path_1"><path d="M19.923 17.487H6.17l-3.389 2.412V5.507c0-.776.58-1.406 1.296-1.406h15.846c.716 0 1.296.629 1.296 1.406v10.574c0 .776-.58 1.406-1.296 1.406z"/></clipPath></defs><path d="M19.923 17.487H6.17l-3.389 2.412V5.507c0-.776.58-1.406 1.296-1.406h15.846c.716 0 1.296.629 1.296 1.406v10.574c0 .776-.58 1.406-1.296 1.406z" fill="none" stroke="#000000" stroke-width="2" stroke-miterlimit="10"/><path clip-path="url(#clip_frame15_path_1)" d="M1.176 18.753s2.394-2.193 8.322-.798c0 0 7.613 2.996 13.35.137-.064-.042 0 5.269 0 5.269l-21.672.03v-4.638z" fill="#000000"/><path d="M.883 7.59h15.692" fill="none" stroke="#ffffff" stroke-width="2" stroke-dasharray="0,15.692" stroke-dashoffset="15.692" stroke-miterlimit="10"/><path d="M.883 10.876l13.243-.114" fill="none" stroke="#ffffff" stroke-width="2" stroke-dasharray="0,13.243490665228709" stroke-dashoffset="13.243491" stroke-miterlimit="10"/><path d="M.883 14.162l10.983-.094" fill="none" stroke="#ffffff" stroke-width="2" stroke-dasharray="0,10.983402250668961" stroke-dashoffset="10.983402" stroke-miterlimit="10"/></g><g transform="translate(384)"><defs><clipPath id="clip_frame16_path_1"><path d="M19.923 17.487H6.17l-3.389 2.412V5.507c0-.776.58-1.406 1.296-1.406h15.846c.716 0 1.296.629 1.296 1.406v10.574c0 .776-.58 1.406-1.296 1.406z"/></clipPath></defs><path d="M19.923 17.487H6.17l-3.389 2.412V5.507c0-.776.58-1.406 1.296-1.406h15.846c.716 0 1.296.629 1.296 1.406v10.574c0 .776-.58 1.406-1.296 1.406z" fill="none" stroke="#000000" stroke-width="2" stroke-miterlimit="10"/><path clip-path="url(#clip_frame16_path_1)" d="M1.176 18.524s2.394-2.302 8.322-.837c0 0 7.613 3.144 13.35.144-.064-.044 0 5.528 0 5.528l-21.672.032v-4.867z" fill="#000000"/><path d="M.883 7.59h15.692" fill="none" stroke="#ffffff" stroke-width="2" stroke-dasharray="0,15.692" stroke-dashoffset="15.692" stroke-miterlimit="10"/><path d="M.883 10.876l13.243-.114" fill="none" stroke="#ffffff" stroke-width="2" stroke-dasharray="0,13.243490665228709" stroke-dashoffset="13.243491" stroke-miterlimit="10"/><path d="M.883 14.162l10.983-.094" fill="none" stroke="#ffffff" stroke-width="2" stroke-dasharray="0,10.983402250668961" stroke-dashoffset="10.983402" stroke-miterlimit="10"/></g><g transform="translate(408)"><defs><clipPath id="clip_frame17_path_1"><path d="M19.923 17.487H6.17l-3.389 2.412V5.507c0-.776.58-1.406 1.296-1.406h15.846c.716 0 1.296.629 1.296 1.406v10.574c0 .776-.58 1.406-1.296 1.406z"/></clipPath></defs><path d="M19.923 17.487H6.17l-3.389 2.412V5.507c0-.776.58-1.406 1.296-1.406h15.846c.716 0 1.296.629 1.296 1.406v10.574c0 .776-.58 1.406-1.296 1.406z" fill="none" stroke="#000000" stroke-width="2" stroke-miterlimit="10"/><path clip-path="url(#clip_frame17_path_1)" d="M1.176 18.285s2.394-2.415 8.322-.878c0 0 7.613 3.298 13.35.151-.064-.046 0 5.8 0 5.8l-21.672.033v-5.106z" fill="#000000"/><path d="M.883 7.59h15.692" fill="none" stroke="#ffffff" stroke-width="2" stroke-dasharray="0,15.692" stroke-dashoffset="15.692" stroke-miterlimit="10"/><path d="M.883 10.876l13.243-.114" fill="none" stroke="#ffffff" stroke-width="2" stroke-dasharray="0,13.243490665228709" stroke-dashoffset="13.243491" stroke-miterlimit="10"/><path d="M.883 14.162l10.983-.094" fill="none" stroke="#ffffff" stroke-width="2" stroke-dasharray="0,10.983402250668961" stroke-dashoffset="10.983402" stroke-miterlimit="10"/></g><g transform="translate(432)"><defs><clipPath id="clip_frame18_path_1"><path d="M19.923 17.487H6.17l-3.389 2.412V5.507c0-.776.58-1.406 1.296-1.406h15.846c.716 0 1.296.629 1.296 1.406v10.574c0 .776-.58 1.406-1.296 1.406z"/></clipPath></defs><path d="M19.923 17.487H6.17l-3.389 2.412V5.507c0-.776.58-1.406 1.296-1.406h15.846c.716 0 1.296.629 1.296 1.406v10.574c0 .776-.58 1.406-1.296 1.406z" fill="none" stroke="#000000" stroke-width="2" stroke-miterlimit="10"/><path clip-path="url(#clip_frame18_path_1)" d="M1.176 18.037s2.394-2.532 8.322-.921c0 0 7.613 3.459 13.35.158-.064-.048 0 6.082 0 6.082l-21.672.035v-5.354z" fill="#000000"/><path d="M.883 7.59h15.692" fill="none" stroke="#ffffff" stroke-width="2" stroke-dasharray="0,15.692" stroke-dashoffset="15.692" stroke-miterlimit="10"/><path d="M.883 10.876l13.243-.114" fill="none" stroke="#ffffff" stroke-width="2" stroke-dasharray="0,13.243490665228709" stroke-dashoffset="13.243491" stroke-miterlimit="10"/><path d="M.883 14.162l10.983-.094" fill="none" stroke="#ffffff" stroke-width="2" stroke-dasharray="0,10.983402250668961" stroke-dashoffset="10.983402" stroke-miterlimit="10"/></g><g transform="translate(456)"><defs><clipPath id="clip_frame19_path_1"><path d="M19.923 17.487H6.17l-3.389 2.412V5.507c0-.776.58-1.406 1.296-1.406h15.846c.716 0 1.296.629 1.296 1.406v10.574c0 .776-.58 1.406-1.296 1.406z"/></clipPath></defs><path d="M19.923 17.487H6.17l-3.389 2.412V5.507c0-.776.58-1.406 1.296-1.406h15.846c.716 0 1.296.629 1.296 1.406v10.574c0 .776-.58 1.406-1.296 1.406z" fill="none" stroke="#000000" stroke-width="2" stroke-miterlimit="10"/><path clip-path="url(#clip_frame19_path_1)" d="M1.176 17.779s2.394-2.654 8.322-.965c0 0 7.613 3.625 13.35.166-.064-.051 0 6.375 0 6.375l-21.672.036v-5.612z" fill="#000000"/><path d="M.883 7.59h15.692" fill="none" stroke="#ffffff" stroke-width="2" stroke-dasharray="0,15.692" stroke-dashoffset="15.692" stroke-miterlimit="10"/><path d="M.883 10.876l13.243-.114" fill="none" stroke="#ffffff" stroke-width="2" stroke-dasharray="0,13.243490665228709" stroke-dashoffset="13.243491" stroke-miterlimit="10"/><path d="M.883 14.162l10.983-.094" fill="none" stroke="#ffffff" stroke-width="2" stroke-dasharray="0,10.983402250668961" stroke-dashoffset="10.983402" stroke-miterlimit="10"/></g><g transform="translate(480)"><defs><clipPath id="clip_frame20_path_1"><path d="M19.923 17.487H6.17l-3.389 2.412V5.507c0-.776.58-1.406 1.296-1.406h15.846c.716 0 1.296.629 1.296 1.406v10.574c0 .776-.58 1.406-1.296 1.406z"/></clipPath></defs><path d="M19.923 17.487H6.17l-3.389 2.412V5.507c0-.776.58-1.406 1.296-1.406h15.846c.716 0 1.296.629 1.296 1.406v10.574c0 .776-.58 1.406-1.296 1.406z" fill="none" stroke="#000000" stroke-width="2" stroke-miterlimit="10"/><path clip-path="url(#clip_frame20_path_1)" d="M1.176 17.513s2.394-2.781 8.322-1.011c0 0 7.613 3.797 13.35.173-.064-.053 0 6.678 0 6.678l-21.672.038v-5.878z" fill="#000000"/><path d="M.883 7.59h15.692" fill="none" stroke="#ffffff" stroke-width="2" stroke-dasharray="0,15.692" stroke-dashoffset="15.692" stroke-miterlimit="10"/><path d="M.883 10.876l13.243-.114" fill="none" stroke="#ffffff" stroke-width="2" stroke-dasharray="0,13.243490665228709" stroke-dashoffset="13.243491" stroke-miterlimit="10"/><path d="M.883 14.162l10.983-.094" fill="none" stroke="#ffffff" stroke-width="2" stroke-dasharray="0,10.983402250668961" stroke-dashoffset="10.983402" stroke-miterlimit="10"/></g><g transform="translate(504)"><defs><clipPath id="clip_frame21_path_1"><path d="M19.923 17.487H6.17l-3.389 2.412V5.507c0-.776.58-1.406 1.296-1.406h15.846c.716 0 1.296.629 1.296 1.406v10.574c0 .776-.58 1.406-1.296 1.406z"/></clipPath></defs><path d="M19.923 17.487H6.17l-3.389 2.412V5.507c0-.776.58-1.406 1.296-1.406h15.846c.716 0 1.296.629 1.296 1.406v10.574c0 .776-.58 1.406-1.296 1.406z" fill="none" stroke="#000000" stroke-width="2" stroke-miterlimit="10"/><path clip-path="url(#clip_frame21_path_1)" d="M1.176 17.238s2.394-2.911 8.322-1.059c0 0 7.613 3.975 13.35.182-.064-.056 0 6.99 0 6.99l-21.672.04v-6.153z" fill="#000000"/><path d="M.883 7.59h15.692" fill="none" stroke="#ffffff" stroke-width="2" stroke-dasharray="0,15.692" stroke-dashoffset="15.692" stroke-miterlimit="10"/><path d="M.883 10.876l13.243-.114" fill="none" stroke="#ffffff" stroke-width="2" stroke-dasharray="0,13.243490665228709" stroke-dashoffset="13.243491" stroke-miterlimit="10"/><path d="M.883 14.162l10.983-.094" fill="none" stroke="#ffffff" stroke-width="2" stroke-dasharray="0,10.983402250668961" stroke-dashoffset="10.983402" stroke-miterlimit="10"/></g><g transform="translate(528)"><defs><clipPath id="clip_frame22_path_1"><path d="M19.923 17.487H6.17l-3.389 2.412V5.507c0-.776.58-1.406 1.296-1.406h15.846c.716 0 1.296.629 1.296 1.406v10.574c0 .776-.58 1.406-1.296 1.406z"/></clipPath></defs><path d="M19.923 17.487H6.17l-3.389 2.412V5.507c0-.776.58-1.406 1.296-1.406h15.846c.716 0 1.296.629 1.296 1.406v10.574c0 .776-.58 1.406-1.296 1.406z" fill="none" stroke="#000000" stroke-width="2" stroke-miterlimit="10"/><path clip-path="url(#clip_frame22_path_1)" d="M1.176 16.954s2.394-3.045 8.322-1.107c0 0 7.613 4.158 13.35.19-.064-.058 0 7.312 0 7.312l-21.672.042v-6.437z" fill="#000000"/><path d="M.883 7.59h15.692" fill="none" stroke="#ffffff" stroke-width="2" stroke-dasharray="0,15.692" stroke-dashoffset="15.692" stroke-miterlimit="10"/><path d="M.883 10.876l13.243-.114" fill="none" stroke="#ffffff" stroke-width="2" stroke-dasharray="0,13.243490665228709" stroke-dashoffset="13.243491" stroke-miterlimit="10"/><path d="M.883 14.162l10.983-.094" fill="none" stroke="#ffffff" stroke-width="2" stroke-dasharray="0,10.983402250668961" stroke-dashoffset="10.983402" stroke-miterlimit="10"/></g><g transform="translate(552)"><defs><clipPath id="clip_frame23_path_1"><path d="M19.923 17.487H6.17l-3.389 2.412V5.507c0-.776.58-1.406 1.296-1.406h15.846c.716 0 1.296.629 1.296 1.406v10.574c0 .776-.58 1.406-1.296 1.406z"/></clipPath></defs><path d="M19.923 17.487H6.17l-3.389 2.412V5.507c0-.776.58-1.406 1.296-1.406h15.846c.716 0 1.296.629 1.296 1.406v10.574c0 .776-.58 1.406-1.296 1.406z" fill="none" stroke="#000000" stroke-width="2" stroke-miterlimit="10"/><path clip-path="url(#clip_frame23_path_1)" d="M1.176 16.663s2.394-3.183 8.322-1.158c0 0 7.613 4.347 13.35.199-.064-.061 0 7.643 0 7.643l-21.672.044v-6.728z" fill="#000000"/><path d="M.883 7.59h15.692" fill="none" stroke="#ffffff" stroke-width="2" stroke-dasharray="0,15.692" stroke-dashoffset="15.692" stroke-miterlimit="10"/><path d="M.883 10.876l13.243-.114" fill="none" stroke="#ffffff" stroke-width="2" stroke-dasharray="0,13.243490665228709" stroke-dashoffset="13.243491" stroke-miterlimit="10"/><path d="M.883 14.162l10.983-.094" fill="none" stroke="#ffffff" stroke-width="2" stroke-dasharray="0,10.983402250668961" stroke-dashoffset="10.983402" stroke-miterlimit="10"/></g><g transform="translate(576)"><defs><clipPath id="clip_frame24_path_1"><path d="M19.923 17.487H6.17l-3.389 2.412V5.507c0-.776.58-1.406 1.296-1.406h15.846c.716 0 1.296.629 1.296 1.406v10.574c0 .776-.58 1.406-1.296 1.406z"/></clipPath></defs><path d="M19.923 17.487H6.17l-3.389 2.412V5.507c0-.776.58-1.406 1.296-1.406h15.846c.716 0 1.296.629 1.296 1.406v10.574c0 .776-.58 1.406-1.296 1.406z" fill="none" stroke="#000000" stroke-width="2" stroke-miterlimit="10"/><path clip-path="url(#clip_frame24_path_1)" d="M1.176 16.363s2.394-3.325 8.322-1.209c0 0 7.613 4.54 13.35.207-.064-.063 0 7.985 0 7.985l-21.672.045v-7.028z" fill="#000000"/><path d="M.883 7.59h15.692" fill="none" stroke="#ffffff" stroke-width="2" stroke-dasharray="0,15.692" stroke-dashoffset="15.692" stroke-miterlimit="10"/><path d="M.883 10.876l13.243-.114" fill="none" stroke="#ffffff" stroke-width="2" stroke-dasharray="0,13.243490665228709" stroke-dashoffset="13.243491" stroke-miterlimit="10"/><path d="M.883 14.162l10.983-.094" fill="none" stroke="#ffffff" stroke-width="2" stroke-dasharray="0,10.983402250668961" stroke-dashoffset="10.983402" stroke-miterlimit="10"/></g><g transform="translate(600)"><defs><clipPath id="clip_frame25_path_1"><path d="M19.923 17.487H6.17l-3.389 2.412V5.507c0-.776.58-1.406 1.296-1.406h15.846c.716 0 1.296.629 1.296 1.406v10.574c0 .776-.58 1.406-1.296 1.406z"/></clipPath></defs><path d="M19.923 17.487H6.17l-3.389 2.412V5.507c0-.776.58-1.406 1.296-1.406h15.846c.716 0 1.296.629 1.296 1.406v10.574c0 .776-.58 1.406-1.296 1.406z" fill="none" stroke="#000000" stroke-width="2" stroke-miterlimit="10"/><path clip-path="url(#clip_frame25_path_1)" d="M1.176 16.056s2.394-3.47 8.322-1.262c0 0 7.613 4.739 13.35.216-.064-.066 0 8.334 0 8.334l-21.672.047v-7.335z" fill="#000000"/><path d="M.883 7.59h15.692" fill="none" stroke="#ffffff" stroke-width="2" stroke-dasharray="0,15.692" stroke-dashoffset="15.692" stroke-miterlimit="10"/><path d="M.883 10.876l13.243-.114" fill="none" stroke="#ffffff" stroke-width="2" stroke-dasharray="0,13.243490665228709" stroke-dashoffset="13.243491" stroke-miterlimit="10"/><path d="M.883 14.162l10.983-.094" fill="none" stroke="#ffffff" stroke-width="2" stroke-dasharray="0,10.983402250668961" stroke-dashoffset="10.983402" stroke-miterlimit="10"/></g><g transform="translate(624)"><defs><clipPath id="clip_frame26_path_1"><path d="M19.923 17.487H6.17l-3.389 2.412V5.507c0-.776.58-1.406 1.296-1.406h15.846c.716 0 1.296.629 1.296 1.406v10.574c0 .776-.58 1.406-1.296 1.406z"/></clipPath></defs><path d="M19.923 17.487H6.17l-3.389 2.412V5.507c0-.776.58-1.406 1.296-1.406h15.846c.716 0 1.296.629 1.296 1.406v10.574c0 .776-.58 1.406-1.296 1.406z" fill="none" stroke="#000000" stroke-width="2" stroke-miterlimit="10"/><path clip-path="url(#clip_frame26_path_1)" d="M1.176 15.741s2.394-3.619 8.322-1.316c0 0 7.613 4.942 13.35.226-.064-.069 0 8.691 0 8.691l-21.672.049v-7.65z" fill="#000000"/><path d="M.883 7.59h15.692" fill="none" stroke="#ffffff" stroke-width="2" stroke-dasharray="0,15.692" stroke-dashoffset="15.692" stroke-miterlimit="10"/><path d="M.883 10.876l13.243-.114" fill="none" stroke="#ffffff" stroke-width="2" stroke-dasharray="0,13.243490665228709" stroke-dashoffset="13.243491" stroke-miterlimit="10"/><path d="M.883 14.162l10.983-.094" fill="none" stroke="#ffffff" stroke-width="2" stroke-dasharray="0,10.983402250668961" stroke-dashoffset="10.983402" stroke-miterlimit="10"/></g><g transform="translate(648)"><defs><clipPath id="clip_frame27_path_1"><path d="M19.923 17.487H6.17l-3.389 2.412V5.507c0-.776.58-1.406 1.296-1.406h15.846c.716 0 1.296.629 1.296 1.406v10.574c0 .776-.58 1.406-1.296 1.406z"/></clipPath></defs><path d="M19.923 17.487H6.17l-3.389 2.412V5.507c0-.776.58-1.406 1.296-1.406h15.846c.716 0 1.296.629 1.296 1.406v10.574c0 .776-.58 1.406-1.296 1.406z" fill="none" stroke="#000000" stroke-width="2" stroke-miterlimit="10"/><path clip-path="url(#clip_frame27_path_1)" d="M1.176 15.419s2.394-3.771 8.322-1.371c0 0 7.613 5.15 13.35.235-.064-.072 0 9.057 0 9.057l-21.672.051v-7.972z" fill="#000000"/><path d="M.883 7.59h15.692" fill="none" stroke="#ffffff" stroke-width="2" stroke-dasharray="0,15.692" stroke-dashoffset="15.692" stroke-miterlimit="10"/><path d="M.883 10.876l13.243-.114" fill="none" stroke="#ffffff" stroke-width="2" stroke-dasharray="0,13.243490665228709" stroke-dashoffset="13.243491" stroke-miterlimit="10"/><path d="M.883 14.162l10.983-.094" fill="none" stroke="#ffffff" stroke-width="2" stroke-dasharray="0,10.983402250668961" stroke-dashoffset="10.983402" stroke-miterlimit="10"/></g><g transform="translate(672)"><defs><clipPath id="clip_frame28_path_1"><path d="M19.923 17.487H6.17l-3.389 2.412V5.507c0-.776.58-1.406 1.296-1.406h15.846c.716 0 1.296.629 1.296 1.406v10.574c0 .776-.58 1.406-1.296 1.406z"/></clipPath></defs><path d="M19.923 17.487H6.17l-3.389 2.412V5.507c0-.776.58-1.406 1.296-1.406h15.846c.716 0 1.296.629 1.296 1.406v10.574c0 .776-.58 1.406-1.296 1.406z" fill="none" stroke="#000000" stroke-width="2" stroke-miterlimit="10"/><path clip-path="url(#clip_frame28_path_1)" d="M1.176 15.09s2.394-3.926 8.322-1.427c0 0 7.613 5.362 13.35.244-.064-.075 0 9.43 0 9.43l-21.672.054V15.09z" fill="#000000"/><path d="M.883 7.59h15.692" fill="none" stroke="#ffffff" stroke-width="2" stroke-dasharray="0,15.692" stroke-dashoffset="15.692" stroke-miterlimit="10"/><path d="M.883 10.876l13.243-.114" fill="none" stroke="#ffffff" stroke-width="2" stroke-dasharray="0,13.243490665228709" stroke-dashoffset="13.243491" stroke-miterlimit="10"/><path d="M.883 14.162l10.983-.094" fill="none" stroke="#ffffff" stroke-width="2" stroke-dasharray="0,10.983402250668961" stroke-dashoffset="10.983402" stroke-miterlimit="10"/></g><g transform="translate(696)"><defs><clipPath id="clip_frame29_path_1"><path d="M19.923 17.487H6.17l-3.389 2.412V5.507c0-.776.58-1.406 1.296-1.406h15.846c.716 0 1.296.629 1.296 1.406v10.574c0 .776-.58 1.406-1.296 1.406z"/></clipPath></defs><path d="M19.923 17.487H6.17l-3.389 2.412V5.507c0-.776.58-1.406 1.296-1.406h15.846c.716 0 1.296.629 1.296 1.406v10.574c0 .776-.58 1.406-1.296 1.406z" fill="none" stroke="#000000" stroke-width="2" stroke-miterlimit="10"/><path clip-path="url(#clip_frame29_path_1)" d="M1.176 14.755s2.394-4.086 8.322-1.486c0 0 7.613 5.579 13.35.255-.064-.078 0 9.811 0 9.811l-21.672.056v-8.636z" fill="#000000"/><path d="M.883 7.59h15.692" fill="none" stroke="#ffffff" stroke-width="2" stroke-dasharray="0,15.692" stroke-dashoffset="15.692" stroke-miterlimit="10"/><path d="M.883 10.876l13.243-.114" fill="none" stroke="#ffffff" stroke-width="2" stroke-dasharray="0,13.243490665228709" stroke-dashoffset="13.243491" stroke-miterlimit="10"/><path d="M.883 14.162l10.983-.094" fill="none" stroke="#ffffff" stroke-width="2" stroke-dasharray="0,10.983402250668961" stroke-dashoffset="10.983402" stroke-miterlimit="10"/></g><g transform="translate(720)"><defs><clipPath id="clip_frame30_path_1"><path d="M19.923 17.487H6.17l-3.389 2.412V5.507c0-.776.58-1.406 1.296-1.406h15.846c.716 0 1.296.629 1.296 1.406v10.574c0 .776-.58 1.406-1.296 1.406z"/></clipPath></defs><path d="M19.923 17.487H6.17l-3.389 2.412V5.507c0-.776.58-1.406 1.296-1.406h15.846c.716 0 1.296.629 1.296 1.406v10.574c0 .776-.58 1.406-1.296 1.406z" fill="none" stroke="#000000" stroke-width="2" stroke-miterlimit="10"/><path clip-path="url(#clip_frame30_path_1)" d="M1.176 14.412s2.394-4.247 8.322-1.544c0 0 7.613 5.8 13.35.264-.064-.081 0 10.201 0 10.201l-21.672.058v-8.979z" fill="#000000"/><path d="M.883 7.59h15.692" fill="none" stroke="#ffffff" stroke-width="2" stroke-dasharray="0,15.692" stroke-dashoffset="15.692" stroke-miterlimit="10"/><path d="M.883 10.876l13.243-.114" fill="none" stroke="#ffffff" stroke-width="2" stroke-dasharray="0,13.243490665228709" stroke-dashoffset="13.243491" stroke-miterlimit="10"/><path d="M.883 14.162l10.983-.094" fill="none" stroke="#ffffff" stroke-width="2" stroke-dasharray="0,10.983402250668961" stroke-dashoffset="10.983402" stroke-miterlimit="10"/></g><g transform="translate(744)"><defs><clipPath id="clip_frame31_path_1"><path d="M19.923 17.487H6.17l-3.389 2.412V5.507c0-.776.58-1.406 1.296-1.406h15.846c.716 0 1.296.629 1.296 1.406v10.574c0 .776-.58 1.406-1.296 1.406z"/></clipPath></defs><path d="M19.923 17.487H6.17l-3.389 2.412V5.507c0-.776.58-1.406 1.296-1.406h15.846c.716 0 1.296.629 1.296 1.406v10.574c0 .776-.58 1.406-1.296 1.406z" fill="none" stroke="#000000" stroke-width="2" stroke-miterlimit="10"/><path clip-path="url(#clip_frame31_path_1)" d="M1.176 14.063S3.57 9.65 9.498 12.459c0 0 7.613 6.025 13.35.275-.064-.085 0 10.597 0 10.597l-21.672.06v-9.328z" fill="#000000"/><path d="M.883 7.59h15.692" fill="none" stroke="#ffffff" stroke-width="2" stroke-dasharray="0,15.692" stroke-dashoffset="15.692" stroke-miterlimit="10"/><path d="M.883 10.876l13.243-.114" fill="none" stroke="#ffffff" stroke-width="2" stroke-dasharray="0,13.243490665228709" stroke-dashoffset="13.243491" stroke-miterlimit="10"/><path d="M.883 14.162l10.983-.094" fill="none" stroke="#ffffff" stroke-width="2" stroke-dasharray="0,10.983402250668961" stroke-dashoffset="10.983402" stroke-miterlimit="10"/></g><g transform="translate(768)"><defs><clipPath id="clip_frame32_path_1"><path d="M19.923 17.487H6.17l-3.389 2.412V5.507c0-.776.58-1.406 1.296-1.406h15.846c.716 0 1.296.629 1.296 1.406v10.574c0 .776-.58 1.406-1.296 1.406z"/></clipPath></defs><path d="M19.923 17.487H6.17l-3.389 2.412V5.507c0-.776.58-1.406 1.296-1.406h15.846c.716 0 1.296.629 1.296 1.406v10.574c0 .776-.58 1.406-1.296 1.406z" fill="none" stroke="#000000" stroke-width="2" stroke-miterlimit="10"/><path clip-path="url(#clip_frame32_path_1)" d="M1.176 13.708s2.394-4.581 8.322-1.666c0 0 7.613 6.255 13.35.285-.064-.087 0 11.002 0 11.002l-21.672.062v-9.683z" fill="#000000"/><path d="M.883 7.59h15.692" fill="none" stroke="#ffffff" stroke-width="2" stroke-dasharray="0,15.692" stroke-dashoffset="15.692" stroke-miterlimit="10"/><path d="M.883 10.876l13.243-.114" fill="none" stroke="#ffffff" stroke-width="2" stroke-dasharray="0,13.243490665228709" stroke-dashoffset="13.243491" stroke-miterlimit="10"/><path d="M.883 14.162l10.983-.094" fill="none" stroke="#ffffff" stroke-width="2" stroke-dasharray="0,10.983402250668961" stroke-dashoffset="10.983402" stroke-miterlimit="10"/></g><g transform="translate(792)"><defs><clipPath id="clip_frame33_path_1"><path d="M19.923 17.487H6.17l-3.389 2.412V5.507c0-.776.58-1.406 1.296-1.406h15.846c.716 0 1.296.629 1.296 1.406v10.574c0 .776-.58 1.406-1.296 1.406z"/></clipPath></defs><path d="M19.923 17.487H6.17l-3.389 2.412V5.507c0-.776.58-1.406 1.296-1.406h15.846c.716 0 1.296.629 1.296 1.406v10.574c0 .776-.58 1.406-1.296 1.406z" fill="none" stroke="#000000" stroke-width="2" stroke-miterlimit="10"/><path clip-path="url(#clip_frame33_path_1)" d="M1.176 13.346s2.394-4.752 8.322-1.728c0 0 7.613 6.489 13.35.296-.064-.091 0 11.412 0 11.412l-21.672.065V13.346z" fill="#000000"/><path d="M.883 7.59h15.692" fill="none" stroke="#ffffff" stroke-width="2" stroke-dasharray="0,15.692" stroke-dashoffset="15.692" stroke-miterlimit="10"/><path d="M.883 10.876l13.243-.114" fill="none" stroke="#ffffff" stroke-width="2" stroke-dasharray="0,13.243490665228709" stroke-dashoffset="13.243491" stroke-miterlimit="10"/><path d="M.883 14.162l10.983-.094" fill="none" stroke="#ffffff" stroke-width="2" stroke-dasharray="0,10.983402250668961" stroke-dashoffset="10.983402" stroke-miterlimit="10"/></g><g transform="translate(816)"><defs><clipPath id="clip_frame34_path_1"><path d="M19.923 17.487H6.17l-3.389 2.412V5.507c0-.776.58-1.406 1.296-1.406h15.846c.716 0 1.296.629 1.296 1.406v10.574c0 .776-.58 1.406-1.296 1.406z"/></clipPath></defs><path d="M19.923 17.487H6.17l-3.389 2.412V5.507c0-.776.58-1.406 1.296-1.406h15.846c.716 0 1.296.629 1.296 1.406v10.574c0 .776-.58 1.406-1.296 1.406z" fill="none" stroke="#000000" stroke-width="2" stroke-miterlimit="10"/><path clip-path="url(#clip_frame34_path_1)" d="M1.176 12.978s2.394-4.926 8.322-1.791c0 0 7.613 6.727 13.35.307-.064-.094 0 11.83 0 11.83l-21.672.067V12.978z" fill="#000000"/><path d="M.883 7.59h15.692" fill="none" stroke="#ffffff" stroke-width="2" stroke-dasharray="0,15.692" stroke-dashoffset="15.692" stroke-miterlimit="10"/><path d="M.883 10.876l13.243-.114" fill="none" stroke="#ffffff" stroke-width="2" stroke-dasharray="0,13.243490665228709" stroke-dashoffset="13.243491" stroke-miterlimit="10"/><path d="M.883 14.162l10.983-.094" fill="none" stroke="#ffffff" stroke-width="2" stroke-dasharray="0,10.983402250668961" stroke-dashoffset="10.983402" stroke-miterlimit="10"/></g><g transform="translate(840)"><defs><clipPath id="clip_frame35_path_1"><path d="M19.923 17.487H6.17l-3.389 2.412V5.507c0-.776.58-1.406 1.296-1.406h15.846c.716 0 1.296.629 1.296 1.406v10.574c0 .776-.58 1.406-1.296 1.406z"/></clipPath></defs><path d="M19.923 17.487H6.17l-3.389 2.412V5.507c0-.776.58-1.406 1.296-1.406h15.846c.716 0 1.296.629 1.296 1.406v10.574c0 .776-.58 1.406-1.296 1.406z" fill="none" stroke="#000000" stroke-width="2" stroke-miterlimit="10"/><path clip-path="url(#clip_frame35_path_1)" d="M1.176 12.604s2.394-5.103 8.322-1.856c0 0 7.613 6.969 13.35.319-.064-.098 0 12.254 0 12.254l-21.672.07V12.604z" fill="#000000"/><path d="M.883 7.59h15.692" fill="none" stroke="#ffffff" stroke-width="2" stroke-dasharray="0,15.692" stroke-dashoffset="15.692" stroke-miterlimit="10"/><path d="M.883 10.876l13.243-.114" fill="none" stroke="#ffffff" stroke-width="2" stroke-dasharray="0,13.243490665228709" stroke-dashoffset="13.243491" stroke-miterlimit="10"/><path d="M.883 14.162l10.983-.094" fill="none" stroke="#ffffff" stroke-width="2" stroke-dasharray="0,10.983402250668961" stroke-dashoffset="10.983402" stroke-miterlimit="10"/></g><g transform="translate(864)"><defs><clipPath id="clip_frame36_path_1"><path d="M19.923 17.487H6.17l-3.389 2.412V5.507c0-.776.58-1.406 1.296-1.406h15.846c.716 0 1.296.629 1.296 1.406v10.574c0 .776-.58 1.406-1.296 1.406z"/></clipPath></defs><path d="M19.923 17.487H6.17l-3.389 2.412V5.507c0-.776.58-1.406 1.296-1.406h15.846c.716 0 1.296.629 1.296 1.406v10.574c0 .776-.58 1.406-1.296 1.406z" fill="none" stroke="#000000" stroke-width="2" stroke-miterlimit="10"/><path clip-path="url(#clip_frame36_path_1)" d="M1.176 12.224s2.394-5.283 8.322-1.921c0 0 7.613 7.214 13.35.33-.064-.101 0 12.686 0 12.686l-21.672.072V12.224z" fill="#000000"/><path d="M.883 7.59h15.692" fill="none" stroke="#ffffff" stroke-width="2" stroke-dasharray="0,15.692" stroke-dashoffset="15.692" stroke-miterlimit="10"/><path d="M.883 10.876l13.243-.114" fill="none" stroke="#ffffff" stroke-width="2" stroke-dasharray="0,13.243490665228709" stroke-dashoffset="13.243491" stroke-miterlimit="10"/><path d="M.883 14.162l10.983-.094" fill="none" stroke="#ffffff" stroke-width="2" stroke-dasharray="0,10.983402250668961" stroke-dashoffset="10.983402" stroke-miterlimit="10"/></g><g transform="translate(888)"><defs><clipPath id="clip_frame37_path_1"><path d="M19.923 17.487H6.17l-3.389 2.412V5.507c0-.776.58-1.406 1.296-1.406h15.846c.716 0 1.296.629 1.296 1.406v10.574c0 .776-.58 1.406-1.296 1.406z"/></clipPath></defs><path d="M19.923 17.487H6.17l-3.389 2.412V5.507c0-.776.58-1.406 1.296-1.406h15.846c.716 0 1.296.629 1.296 1.406v10.574c0 .776-.58 1.406-1.296 1.406z" fill="none" stroke="#000000" stroke-width="2" stroke-miterlimit="10"/><path clip-path="url(#clip_frame37_path_1)" d="M1.176 11.838S3.57 6.373 9.498 9.851c0 0 7.613 7.463 13.35.341-.064-.105 0 13.125 0 13.125l-21.672.074V11.838z" fill="#000000"/><path d="M.883 7.59h15.692" fill="none" stroke="#ffffff" stroke-width="2" stroke-dasharray="0,15.692" stroke-dashoffset="15.692" stroke-miterlimit="10"/><path d="M.883 10.876l13.243-.114" fill="none" stroke="#ffffff" stroke-width="2" stroke-dasharray="0,13.243490665228709" stroke-dashoffset="13.243491" stroke-miterlimit="10"/><path d="M.883 14.162l10.983-.094" fill="none" stroke="#ffffff" stroke-width="2" stroke-dasharray="0,10.983402250668961" stroke-dashoffset="10.983402" stroke-miterlimit="10"/></g><g transform="translate(912)"><defs><clipPath id="clip_frame38_path_1"><path d="M19.923 17.487H6.17l-3.389 2.412V5.507c0-.776.58-1.406 1.296-1.406h15.846c.716 0 1.296.629 1.296 1.406v10.574c0 .776-.58 1.406-1.296 1.406z"/></clipPath></defs><path d="M19.923 17.487H6.17l-3.389 2.412V5.507c0-.776.58-1.406 1.296-1.406h15.846c.716 0 1.296.629 1.296 1.406v10.574c0 .776-.58 1.406-1.296 1.406z" fill="none" stroke="#000000" stroke-width="2" stroke-miterlimit="10"/><path clip-path="url(#clip_frame38_path_1)" d="M1.176 11.447S3.57 5.796 9.498 9.392c0 0 7.613 7.716 13.35.353-.064-.108 0 13.569 0 13.569l-21.672.077V11.447z" fill="#000000"/><path d="M.883 7.59h15.692" fill="none" stroke="#ffffff" stroke-width="2" stroke-dasharray="0,15.692" stroke-dashoffset="15.692" stroke-miterlimit="10"/><path d="M.883 10.876l13.243-.114" fill="none" stroke="#ffffff" stroke-width="2" stroke-dasharray="0,13.243490665228709" stroke-dashoffset="13.243491" stroke-miterlimit="10"/><path d="M.883 14.162l10.983-.094" fill="none" stroke="#ffffff" stroke-width="2" stroke-dasharray="0,10.983402250668961" stroke-dashoffset="10.983402" stroke-miterlimit="10"/></g><g transform="translate(936)"><defs><clipPath id="clip_frame39_path_1"><path d="M19.923 17.487H6.17l-3.389 2.412V5.507c0-.776.58-1.406 1.296-1.406h15.846c.716 0 1.296.629 1.296 1.406v10.574c0 .776-.58 1.406-1.296 1.406z"/></clipPath></defs><path d="M19.923 17.487H6.17l-3.389 2.412V5.507c0-.776.58-1.406 1.296-1.406h15.846c.716 0 1.296.629 1.296 1.406v10.574c0 .776-.58 1.406-1.296 1.406z" fill="none" stroke="#000000" stroke-width="2" stroke-miterlimit="10"/><path clip-path="url(#clip_frame39_path_1)" d="M1.176 11.05S3.57 5.212 9.498 8.927c0 0 7.613 7.972 13.35.364-.064-.111 0 14.02 0 14.02l-21.671.079V11.05z" fill="#000000"/><path d="M.883 7.59h15.692" fill="none" stroke="#ffffff" stroke-width="2" stroke-dasharray="0,15.692" stroke-dashoffset="15.692" stroke-miterlimit="10"/><path d="M.883 10.876l13.243-.114" fill="none" stroke="#ffffff" stroke-width="2" stroke-dasharray="0,13.243490665228709" stroke-dashoffset="13.243491" stroke-miterlimit="10"/><path d="M.883 14.162l10.983-.094" fill="none" stroke="#ffffff" stroke-width="2" stroke-dasharray="0,10.983402250668961" stroke-dashoffset="10.983402" stroke-miterlimit="10"/></g><g transform="translate(960)"><defs><clipPath id="clip_frame40_path_1"><path d="M19.923 17.487H6.17l-3.389 2.412V5.507c0-.776.58-1.406 1.296-1.406h15.846c.716 0 1.296.629 1.296 1.406v10.574c0 .776-.58 1.406-1.296 1.406z"/></clipPath></defs><path d="M19.923 17.487H6.17l-3.389 2.412V5.507c0-.776.58-1.406 1.296-1.406h15.846c.716 0 1.296.629 1.296 1.406v10.574c0 .776-.58 1.406-1.296 1.406z" fill="none" stroke="#000000" stroke-width="2" stroke-miterlimit="10"/><path clip-path="url(#clip_frame40_path_1)" d="M1.176 10.647S3.57 4.618 9.498 8.455c0 0 7.613 8.233 13.35.376-.064-.115 0 14.478 0 14.478l-21.671.081V10.647z" fill="#000000"/><path d="M.883 7.59h15.692" fill="none" stroke="#ffffff" stroke-width="2" stroke-dasharray="0,15.692" stroke-dashoffset="15.692" stroke-miterlimit="10"/><path d="M.883 10.876l13.243-.114" fill="none" stroke="#ffffff" stroke-width="2" stroke-dasharray="0,13.243490665228709" stroke-dashoffset="13.243491" stroke-miterlimit="10"/><path d="M.883 14.162l10.983-.094" fill="none" stroke="#ffffff" stroke-width="2" stroke-dasharray="0,10.983402250668961" stroke-dashoffset="10.983402" stroke-miterlimit="10"/></g><g transform="translate(984)"><defs><clipPath id="clip_frame41_path_1"><path d="M19.923 17.487H6.17l-3.389 2.412V5.507c0-.776.58-1.406 1.296-1.406h15.846c.716 0 1.296.629 1.296 1.406v10.574c0 .776-.58 1.406-1.296 1.406z"/></clipPath></defs><path d="M19.923 17.487H6.17l-3.389 2.412V5.507c0-.776.58-1.406 1.296-1.406h15.846c.716 0 1.296.629 1.296 1.406v10.574c0 .776-.58 1.406-1.296 1.406z" fill="none" stroke="#000000" stroke-width="2" stroke-miterlimit="10"/><path clip-path="url(#clip_frame41_path_1)" d="M1.176 10.239S3.57 4.017 9.498 7.977c0 0 7.613 8.496 13.35.388-.064-.119 0 14.941 0 14.941l-21.671.084V10.239z" fill="#000000"/><path d="M.883 7.59h15.692" fill="none" stroke="#ffffff" stroke-width="2" stroke-dasharray="0,15.692" stroke-dashoffset="15.692" stroke-miterlimit="10"/><path d="M.883 10.876l13.243-.114" fill="none" stroke="#ffffff" stroke-width="2" stroke-dasharray="0,13.243490665228709" stroke-dashoffset="13.243491" stroke-miterlimit="10"/><path d="M.883 14.162l10.983-.094" fill="none" stroke="#ffffff" stroke-width="2" stroke-dasharray="0,10.983402250668961" stroke-dashoffset="10.983402" stroke-miterlimit="10"/></g><g transform="translate(1008)"><defs><clipPath id="clip_frame42_path_1"><path d="M19.923 17.487H6.17l-3.389 2.412V5.507c0-.776.58-1.406 1.296-1.406h15.846c.716 0 1.296.629 1.296 1.406v10.574c0 .776-.58 1.406-1.296 1.406z"/></clipPath></defs><path d="M19.923 17.487H6.17l-3.389 2.412V5.507c0-.776.58-1.406 1.296-1.406h15.846c.716 0 1.296.629 1.296 1.406v10.574c0 .776-.58 1.406-1.296 1.406z" fill="none" stroke="#000000" stroke-width="2" stroke-miterlimit="10"/><path clip-path="url(#clip_frame42_path_1)" d="M1.176 9.826S3.57 3.408 9.498 7.492c0 0 7.613 8.764 13.35.4-.064-.122 0 15.412 0 15.412l-21.671.086V9.826z" fill="#000000"/><path d="M.883 7.59h15.692" fill="none" stroke="#ffffff" stroke-width="2" stroke-dasharray="0,15.692" stroke-dashoffset="15.692" stroke-miterlimit="10"/><path d="M.883 10.876l13.243-.114" fill="none" stroke="#ffffff" stroke-width="2" stroke-dasharray="0,13.243490665228709" stroke-dashoffset="13.243491" stroke-miterlimit="10"/><path d="M.883 14.162l10.983-.094" fill="none" stroke="#ffffff" stroke-width="2" stroke-dasharray="0,10.983402250668961" stroke-dashoffset="10.983402" stroke-miterlimit="10"/></g><g transform="translate(1032)"><defs><clipPath id="clip_frame43_path_1"><path d="M19.923 17.487H6.17l-3.389 2.412V5.507c0-.776.58-1.406 1.296-1.406h15.846c.716 0 1.296.629 1.296 1.406v10.574c0 .776-.58 1.406-1.296 1.406z"/></clipPath></defs><path d="M19.923 17.487H6.17l-3.389 2.412V5.507c0-.776.58-1.406 1.296-1.406h15.846c.716 0 1.296.629 1.296 1.406v10.574c0 .776-.58 1.406-1.296 1.406z" fill="none" stroke="#000000" stroke-width="2" stroke-miterlimit="10"/><path clip-path="url(#clip_frame43_path_1)" d="M1.176 9.407S3.57 2.791 9.498 7.001c0 0 7.613 9.034 13.35.413-.064-.127 0 15.887 0 15.887l-21.671.089V9.407z" fill="#000000"/><path d="M.883 7.59h15.692" fill="none" stroke="#ffffff" stroke-width="2" stroke-dasharray="0,15.692" stroke-dashoffset="15.692" stroke-miterlimit="10"/><path d="M.883 10.876l13.243-.114" fill="none" stroke="#ffffff" stroke-width="2" stroke-dasharray="0,13.243490665228709" stroke-dashoffset="13.243491" stroke-miterlimit="10"/><path d="M.883 14.162l10.983-.094" fill="none" stroke="#ffffff" stroke-width="2" stroke-dasharray="0,10.983402250668961" stroke-dashoffset="10.983402" stroke-miterlimit="10"/></g><g transform="translate(1056)"><defs><clipPath id="clip_frame44_path_1"><path d="M19.923 17.487H6.17l-3.389 2.412V5.507c0-.776.58-1.406 1.296-1.406h15.846c.716 0 1.296.629 1.296 1.406v10.574c0 .776-.58 1.406-1.296 1.406z"/></clipPath></defs><path d="M19.923 17.487H6.17l-3.389 2.412V5.507c0-.776.58-1.406 1.296-1.406h15.846c.716 0 1.296.629 1.296 1.406v10.574c0 .776-.58 1.406-1.296 1.406z" fill="none" stroke="#000000" stroke-width="2" stroke-miterlimit="10"/><path clip-path="url(#clip_frame44_path_1)" d="M1.176 8.983S3.57 2.166 9.498 6.504c0 0 7.613 9.308 13.35.425-.064-.13 0 16.369 0 16.369l-21.671.092V8.983z" fill="#000000"/><path d="M.883 7.59h15.692" fill="none" stroke="#ffffff" stroke-width="2" stroke-dasharray="0,15.692" stroke-dashoffset="15.692" stroke-miterlimit="10"/><path d="M.883 10.876l13.243-.114" fill="none" stroke="#ffffff" stroke-width="2" stroke-dasharray="0,13.243490665228709" stroke-dashoffset="13.243491" stroke-miterlimit="10"/><path d="M.883 14.162l10.983-.094" fill="none" stroke="#ffffff" stroke-width="2" stroke-dasharray="0,10.983402250668961" stroke-dashoffset="10.983402" stroke-miterlimit="10"/></g><g transform="translate(1080)"><defs><clipPath id="clip_frame45_path_1"><path d="M19.923 17.487H6.17l-3.389 2.412V5.507c0-.776.58-1.406 1.296-1.406h15.846c.716 0 1.296.629 1.296 1.406v10.574c0 .776-.58 1.406-1.296 1.406z"/></clipPath></defs><path d="M19.923 17.487H6.17l-3.389 2.412V5.507c0-.776.58-1.406 1.296-1.406h15.846c.716 0 1.296.629 1.296 1.406v10.574c0 .776-.58 1.406-1.296 1.406z" fill="none" stroke="#000000" stroke-width="2" stroke-miterlimit="10"/><path clip-path="url(#clip_frame45_path_1)" d="M1.176 8.553S3.57 1.534 9.498 6.001c0 0 7.613 9.585 13.35.437-.064-.134 0 16.857 0 16.857l-21.671.095V8.553z" fill="#000000"/><path d="M.883 7.59h15.692" fill="none" stroke="#ffffff" stroke-width="2" stroke-dasharray="0,15.692" stroke-dashoffset="15.692" stroke-miterlimit="10"/><path d="M.883 10.876l13.243-.114" fill="none" stroke="#ffffff" stroke-width="2" stroke-dasharray="0,13.243490665228709" stroke-dashoffset="13.243491" stroke-miterlimit="10"/><path d="M.883 14.162l10.983-.094" fill="none" stroke="#ffffff" stroke-width="2" stroke-dasharray="0,10.983402250668961" stroke-dashoffset="10.983402" stroke-miterlimit="10"/></g><g transform="translate(1104)"><defs><clipPath id="clip_frame46_path_1"><path d="M19.923 17.487H6.17l-3.389 2.412V5.507c0-.776.58-1.406 1.296-1.406h15.846c.716 0 1.296.629 1.296 1.406v10.574c0 .776-.58 1.406-1.296 1.406z"/></clipPath></defs><path d="M19.923 17.487H6.17l-3.389 2.412V5.507c0-.776.58-1.406 1.296-1.406h15.846c.716 0 1.296.629 1.296 1.406v10.574c0 .776-.58 1.406-1.296 1.406z" fill="none" stroke="#000000" stroke-width="2" stroke-miterlimit="10"/><path clip-path="url(#clip_frame46_path_1)" d="M1.176 8.119S3.57.893 9.498 5.491c0 0 7.613 9.867 13.35.451-.064-.138 0 17.351 0 17.351l-21.671.097V8.119z" fill="#000000"/><path d="M.883 7.59h15.692" fill="none" stroke="#ffffff" stroke-width="2" stroke-dasharray="0,15.692" stroke-dashoffset="15.692" stroke-miterlimit="10"/><path d="M.883 10.876l13.243-.114" fill="none" stroke="#ffffff" stroke-width="2" stroke-dasharray="0,13.243490665228709" stroke-dashoffset="13.243491" stroke-miterlimit="10"/><path d="M.883 14.162l10.983-.094" fill="none" stroke="#ffffff" stroke-width="2" stroke-dasharray="0,10.983402250668961" stroke-dashoffset="10.983402" stroke-miterlimit="10"/></g><g transform="translate(1128)"><defs><clipPath id="clip_frame47_path_1"><path d="M19.923 17.487H6.17l-3.389 2.412V5.507c0-.776.58-1.406 1.296-1.406h15.846c.716 0 1.296.629 1.296 1.406v10.574c0 .776-.58 1.406-1.296 1.406z"/></clipPath></defs><path d="M19.923 17.487H6.17l-3.389 2.412V5.507c0-.776.58-1.406 1.296-1.406h15.846c.716 0 1.296.629 1.296 1.406v10.574c0 .776-.58 1.406-1.296 1.406z" fill="none" stroke="#000000" stroke-width="2" stroke-miterlimit="10"/><path clip-path="url(#clip_frame47_path_1)" d="M1.176 7.679S3.57.245 9.498 4.976c0 0 7.613 10.15 13.35.463-.064-.142 0 17.851 0 17.851l-21.671.1V7.679z" fill="#000000"/><path d="M.883 7.59h15.692" fill="none" stroke="#ffffff" stroke-width="2" stroke-dasharray="0,15.692" stroke-dashoffset="15.692" stroke-miterlimit="10"/><path d="M.883 10.876l13.243-.114" fill="none" stroke="#ffffff" stroke-width="2" stroke-dasharray="0,13.243490665228709" stroke-dashoffset="13.243491" stroke-miterlimit="10"/><path d="M.883 14.162l10.983-.094" fill="none" stroke="#ffffff" stroke-width="2" stroke-dasharray="0,10.983402250668961" stroke-dashoffset="10.983402" stroke-miterlimit="10"/></g><g transform="translate(1152)"><defs><clipPath id="clip_frame48_path_1"><path d="M19.923 17.487H6.17l-3.389 2.412V5.507c0-.776.58-1.406 1.296-1.406h15.846c.716 0 1.296.629 1.296 1.406v10.574c0 .776-.58 1.406-1.296 1.406z"/></clipPath></defs><path d="M19.923 17.487H6.17l-3.389 2.412V5.507c0-.776.58-1.406 1.296-1.406h15.846c.716 0 1.296.629 1.296 1.406v10.574c0 .776-.58 1.406-1.296 1.406z" fill="none" stroke="#000000" stroke-width="2" stroke-miterlimit="10"/><path clip-path="url(#clip_frame48_path_1)" d="M1.176 7.234S3.57-.41 9.498 4.454c0 0 7.613 10.438 13.35.477-.064-.146 0 18.356 0 18.356l-21.671.103V7.234z" fill="#000000"/><path d="M.883 7.59h15.692" fill="none" stroke="#ffffff" stroke-width="2" stroke-dasharray="0,15.692" stroke-dashoffset="15.692" stroke-miterlimit="10"/><path d="M.883 10.876l13.243-.114" fill="none" stroke="#ffffff" stroke-width="2" stroke-dasharray="0,13.243490665228709" stroke-dashoffset="13.243491" stroke-miterlimit="10"/><path d="M.883 14.162l10.983-.094" fill="none" stroke="#ffffff" stroke-width="2" stroke-dasharray="0,10.983402250668961" stroke-dashoffset="10.983402" stroke-miterlimit="10"/></g><g transform="translate(1176)"><defs><clipPath id="clip_frame49_path_1"><path d="M19.923 17.487H6.17l-3.389 2.412V5.507c0-.776.58-1.406 1.296-1.406h15.846c.716 0 1.296.629 1.296 1.406v10.574c0 .776-.58 1.406-1.296 1.406z"/></clipPath></defs><path d="M19.923 17.487H6.17l-3.389 2.412V5.507c0-.776.58-1.406 1.296-1.406h15.846c.716 0 1.296.629 1.296 1.406v10.574c0 .776-.58 1.406-1.296 1.406z" fill="none" stroke="#000000" stroke-width="2" stroke-miterlimit="10"/><path clip-path="url(#clip_frame49_path_1)" d="M1.176 6.784S3.57-1.074 9.498 3.926c0 0 7.613 10.729 13.35.49-.064-.15 0 18.868 0 18.868l-21.671.106V6.784z" fill="#000000"/><path d="M.883 7.59h15.692" fill="none" stroke="#ffffff" stroke-width="2" stroke-dasharray="0,15.692" stroke-dashoffset="15.692" stroke-miterlimit="10"/><path d="M.883 10.876l13.243-.114" fill="none" stroke="#ffffff" stroke-width="2" stroke-dasharray="0,13.243490665228709" stroke-dashoffset="13.243491" stroke-miterlimit="10"/><path d="M.883 14.162l10.983-.094" fill="none" stroke="#ffffff" stroke-width="2" stroke-dasharray="0,10.983402250668961" stroke-dashoffset="10.983402" stroke-miterlimit="10"/></g><g transform="translate(1200)"><defs><clipPath id="clip_frame50_path_1"><path d="M19.923 17.487H6.17l-3.389 2.412V5.507c0-.776.58-1.406 1.296-1.406h15.846c.716 0 1.296.629 1.296 1.406v10.574c0 .776-.58 1.406-1.296 1.406z"/></clipPath></defs><path d="M19.923 17.487H6.17l-3.389 2.412V5.507c0-.776.58-1.406 1.296-1.406h15.846c.716 0 1.296.629 1.296 1.406v10.574c0 .776-.58 1.406-1.296 1.406z" fill="none" stroke="#000000" stroke-width="2" stroke-miterlimit="10"/><path clip-path="url(#clip_frame50_path_1)" d="M1.176 6.328S3.57-1.745 9.498 3.393c0 0 7.613 11.023 13.35.503-.064-.154 0 19.385 0 19.385l-21.671.109V6.328z" fill="#000000"/><path d="M.883 7.59h15.692" fill="none" stroke="#ffffff" stroke-width="2" stroke-dasharray="0,15.692" stroke-dashoffset="15.692" stroke-miterlimit="10"/><path d="M.883 10.876l13.243-.114" fill="none" stroke="#ffffff" stroke-width="2" stroke-dasharray="0,13.243490665228709" stroke-dashoffset="13.243491" stroke-miterlimit="10"/><path d="M.883 14.162l10.983-.094" fill="none" stroke="#ffffff" stroke-width="2" stroke-dasharray="0,10.983402250668961" stroke-dashoffset="10.983402" stroke-miterlimit="10"/></g><g transform="translate(1224)"><defs><clipPath id="clip_frame51_path_1"><path d="M19.923 17.487H6.17l-3.389 2.412V5.507c0-.776.58-1.406 1.296-1.406h15.846c.716 0 1.296.629 1.296 1.406v10.574c0 .776-.58 1.406-1.296 1.406z"/></clipPath></defs><path d="M19.923 17.487H6.17l-3.389 2.412V5.507c0-.776.58-1.406 1.296-1.406h15.846c.716 0 1.296.629 1.296 1.406v10.574c0 .776-.58 1.406-1.296 1.406z" fill="none" stroke="#000000" stroke-width="2" stroke-miterlimit="10"/><path clip-path="url(#clip_frame51_path_1)" d="M1.176 5.867S3.57-2.424 9.498 2.853c0 0 7.613 11.32 13.35.516-.064-.158 0 19.909 0 19.909l-21.671.112V5.867z" fill="#000000"/><path d="M.883 7.59h15.692" fill="none" stroke="#ffffff" stroke-width="2" stroke-dasharray="0,15.692" stroke-dashoffset="15.692" stroke-miterlimit="10"/><path d="M.883 10.876l13.243-.114" fill="none" stroke="#ffffff" stroke-width="2" stroke-dasharray="0,13.243490665228709" stroke-dashoffset="13.243491" stroke-miterlimit="10"/><path d="M.883 14.162l10.983-.094" fill="none" stroke="#ffffff" stroke-width="2" stroke-dasharray="0,10.983402250668961" stroke-dashoffset="10.983402" stroke-miterlimit="10"/></g><g transform="translate(1248)"><defs><clipPath id="clip_frame52_path_1"><path d="M19.923 17.487H6.17l-3.389 2.412V5.507c0-.776.58-1.406 1.296-1.406h15.846c.716 0 1.296.629 1.296 1.406v10.574c0 .776-.58 1.406-1.296 1.406z"/></clipPath></defs><path d="M19.923 17.487H6.17l-3.389 2.412V5.507c0-.776.58-1.406 1.296-1.406h15.846c.716 0 1.296.629 1.296 1.406v10.574c0 .776-.58 1.406-1.296 1.406z" fill="none" stroke="#000000" stroke-width="2" stroke-miterlimit="10"/><path clip-path="url(#clip_frame52_path_1)" d="M1.176 5.401S3.57-3.11 9.498 2.306c0 0 7.613 11.622 13.35.531-.064-.163 0 20.438 0 20.438l-21.671.115V5.401z" fill="#000000"/><path d="M.883 7.59h15.692" fill="none" stroke="#ffffff" stroke-width="2" stroke-dasharray="0,15.692" stroke-dashoffset="15.692" stroke-miterlimit="10"/><path d="M.883 10.876l13.243-.114" fill="none" stroke="#ffffff" stroke-width="2" stroke-dasharray="0,13.243490665228709" stroke-dashoffset="13.243491" stroke-miterlimit="10"/><path d="M.883 14.162l10.983-.094" fill="none" stroke="#ffffff" stroke-width="2" stroke-dasharray="0,10.983402250668961" stroke-dashoffset="10.983402" stroke-miterlimit="10"/></g><g transform="translate(1272)"><defs><clipPath id="clip_frame53_path_1"><path d="M19.923 17.487H6.17l-3.389 2.412V5.507c0-.776.58-1.406 1.296-1.406h15.846c.716 0 1.296.629 1.296 1.406v10.574c0 .776-.58 1.406-1.296 1.406z"/></clipPath></defs><path d="M19.923 17.487H6.17l-3.389 2.412V5.507c0-.776.58-1.406 1.296-1.406h15.846c.716 0 1.296.629 1.296 1.406v10.574c0 .776-.58 1.406-1.296 1.406z" fill="none" stroke="#000000" stroke-width="2" stroke-miterlimit="10"/><path clip-path="url(#clip_frame53_path_1)" d="M1.176 4.93S3.57-3.805 9.498 1.754c0 0 7.613 11.926 13.35.544-.064-.166 0 20.974 0 20.974l-21.671.118V4.93z" fill="#000000"/><path d="M.883 7.59h15.692" fill="none" stroke="#ffffff" stroke-width="2" stroke-dasharray="0,15.692" stroke-dashoffset="15.692" stroke-miterlimit="10"/><path d="M.883 10.876l13.243-.114" fill="none" stroke="#ffffff" stroke-width="2" stroke-dasharray="0,13.243490665228709" stroke-dashoffset="13.243491" stroke-miterlimit="10"/><path d="M.883 14.162l10.983-.094" fill="none" stroke="#ffffff" stroke-width="2" stroke-dasharray="0,10.983402250668961" stroke-dashoffset="10.983402" stroke-miterlimit="10"/></g><g transform="translate(1296)"><defs><clipPath id="clip_frame54_path_1"><path d="M19.923 17.487H6.17l-3.389 2.412V5.507c0-.776.58-1.406 1.296-1.406h15.846c.716 0 1.296.629 1.296 1.406v10.574c0 .776-.58 1.406-1.296 1.406z"/></clipPath></defs><path d="M19.923 17.487H6.17l-3.389 2.412V5.507c0-.776.58-1.406 1.296-1.406h15.846c.716 0 1.296.629 1.296 1.406v10.574c0 .776-.58 1.406-1.296 1.406z" fill="none" stroke="#000000" stroke-width="2" stroke-miterlimit="10"/><path clip-path="url(#clip_frame54_path_1)" d="M1.176 4.453s2.394-8.96 8.322-3.258c0 0 7.613 12.234 13.35.558-.064-.171 0 21.516 0 21.516l-21.671.121V4.453z" fill="#000000"/><path d="M.883 7.59h15.692" fill="none" stroke="#ffffff" stroke-width="2" stroke-dasharray="0,15.692" stroke-dashoffset="15.692" stroke-miterlimit="10"/><path d="M.883 10.876l13.243-.114" fill="none" stroke="#ffffff" stroke-width="2" stroke-dasharray="0,13.243490665228709" stroke-dashoffset="13.243491" stroke-miterlimit="10"/><path d="M.883 14.162l10.983-.094" fill="none" stroke="#ffffff" stroke-width="2" stroke-dasharray="0,10.983402250668961" stroke-dashoffset="10.983402" stroke-miterlimit="10"/></g><g transform="translate(1320)"><defs><clipPath id="clip_frame55_path_1"><path d="M19.923 17.487H6.17l-3.389 2.412V5.507c0-.776.58-1.406 1.296-1.406h15.846c.716 0 1.296.629 1.296 1.406v10.574c0 .776-.58 1.406-1.296 1.406z"/></clipPath></defs><path d="M19.923 17.487H6.17l-3.389 2.412V5.507c0-.776.58-1.406 1.296-1.406h15.846c.716 0 1.296.629 1.296 1.406v10.574c0 .776-.58 1.406-1.296 1.406z" fill="none" stroke="#000000" stroke-width="2" stroke-miterlimit="10"/><path clip-path="url(#clip_frame55_path_1)" d="M1.176 3.97S3.57-5.218 9.498.629c0 0 7.613 12.546 13.35.573-.064-.176 0 22.064 0 22.064l-21.671.124V3.97z" fill="#000000"/><path d="M.883 7.59h15.692" fill="none" stroke="#ffffff" stroke-width="2" stroke-dasharray="1.3354752173543074,14.356524782645693" stroke-dashoffset="15.692" stroke-miterlimit="10"/><path d="M.883 10.876l13.243-.114" fill="none" stroke="#ffffff" stroke-width="2" stroke-dasharray="0,13.243490665228709" stroke-dashoffset="13.243491" stroke-miterlimit="10"/><path d="M.883 14.162l10.983-.094" fill="none" stroke="#ffffff" stroke-width="2" stroke-dasharray="0,10.983402250668961" stroke-dashoffset="10.983402" stroke-miterlimit="10"/></g><g transform="translate(1344)"><defs><clipPath id="clip_frame56_path_1"><path d="M19.923 17.487H6.17l-3.389 2.412V5.507c0-.776.58-1.406 1.296-1.406h15.846c.716 0 1.296.629 1.296 1.406v10.574c0 .776-.58 1.406-1.296 1.406z"/></clipPath></defs><path d="M19.923 17.487H6.17l-3.389 2.412V5.507c0-.776.58-1.406 1.296-1.406h15.846c.716 0 1.296.629 1.296 1.406v10.574c0 .776-.58 1.406-1.296 1.406z" fill="none" stroke="#000000" stroke-width="2" stroke-miterlimit="10"/><path clip-path="url(#clip_frame56_path_1)" d="M1.176 3.481S3.57-5.938 9.498.056c0 0 7.613 12.862 13.35.587-.064-.179 0 22.62 0 22.62l-21.671.127V3.481z" fill="#000000"/><path d="M.883 7.59h15.692" fill="none" stroke="#ffffff" stroke-width="2" stroke-dasharray="7.175194301206363,8.516805698793636" stroke-dashoffset="15.692" stroke-miterlimit="10"/><path d="M.883 10.876l13.243-.114" fill="none" stroke="#ffffff" stroke-width="2" stroke-dasharray="0.33564831211697027,12.90784235311174" stroke-dashoffset="13.243491" stroke-miterlimit="10"/><path d="M.883 14.162l10.983-.094" fill="none" stroke="#ffffff" stroke-width="2" stroke-dasharray="0,10.983402250668961" stroke-dashoffset="10.983402" stroke-miterlimit="10"/></g><g transform="translate(1368)"><defs><clipPath id="clip_frame57_path_1"><path d="M19.923 17.487H6.17l-3.389 2.412V5.507c0-.776.58-1.406 1.296-1.406h15.846c.716 0 1.296.629 1.296 1.406v10.574c0 .776-.58 1.406-1.296 1.406z"/></clipPath></defs><path d="M19.923 17.487H6.17l-3.389 2.412V5.507c0-.776.58-1.406 1.296-1.406h15.846c.716 0 1.296.629 1.296 1.406v10.574c0 .776-.58 1.406-1.296 1.406z" fill="none" stroke="#000000" stroke-width="2" stroke-miterlimit="10"/><path clip-path="url(#clip_frame57_path_1)" d="M1.176 2.987S3.57-6.667 9.498-.524c0 0 7.613 13.182 13.35.602-.064-.184 0 23.182 0 23.182l-21.671.13V2.987z" fill="#000000"/><path d="M.883 7.59h15.692" fill="none" stroke="#ffffff" stroke-width="2" stroke-dasharray="12.170108094035376,3.5218919059646248" stroke-dashoffset="15.692" stroke-miterlimit="10"/><path d="M.883 10.876l13.243-.114" fill="none" stroke="#ffffff" stroke-width="2" stroke-dasharray="5.739267234416843,7.504223430811866" stroke-dashoffset="13.243491" stroke-miterlimit="10"/><path d="M.883 14.162l10.983-.094" fill="none" stroke="#ffffff" stroke-width="2" stroke-dasharray="0,10.983402250668961" stroke-dashoffset="10.983402" stroke-miterlimit="10"/></g><g transform="translate(1392)"><defs><clipPath id="clip_frame58_path_1"><path d="M19.923 17.487H6.17l-3.389 2.412V5.507c0-.776.58-1.406 1.296-1.406h15.846c.716 0 1.296.629 1.296 1.406v10.574c0 .776-.58 1.406-1.296 1.406z"/></clipPath></defs><path d="M19.923 17.487H6.17l-3.389 2.412V5.507c0-.776.58-1.406 1.296-1.406h15.846c.716 0 1.296.629 1.296 1.406v10.574c0 .776-.58 1.406-1.296 1.406z" fill="none" stroke="#000000" stroke-width="2" stroke-miterlimit="10"/><path clip-path="url(#clip_frame58_path_1)" d="M1.176 2.485S3.57-7.407 9.498-1.112c0 0 7.613 13.506 13.35.617-.064-.189 0 23.752 0 23.752l-21.671.133V2.485z" fill="#000000"/><path d="M.883 7.59h15.692" fill="none" stroke="#ffffff" stroke-width="2" stroke-dasharray="14.448813593573384,1.243186406426616" stroke-dashoffset="15.692" stroke-miterlimit="10"/><path d="M.883 10.876l13.243-.114" fill="none" stroke="#ffffff" stroke-width="2" stroke-dasharray="11.00838582226256,2.2351048429661486" stroke-dashoffset="13.243491" stroke-miterlimit="10"/><path d="M.883 14.162l10.983-.094" fill="none" stroke="#ffffff" stroke-width="2" stroke-dasharray="5.022179788226904,5.961222462442057" stroke-dashoffset="10.983402" stroke-miterlimit="10"/></g><g transform="translate(1416)"><defs><clipPath id="clip_frame59_path_1"><path d="M19.923 17.487H6.17l-3.389 2.412V5.507c0-.776.58-1.406 1.296-1.406h15.846c.716 0 1.296.629 1.296 1.406v10.574c0 .776-.58 1.406-1.296 1.406z"/></clipPath></defs><path d="M19.923 17.487H6.17l-3.389 2.412V5.507c0-.776.58-1.406 1.296-1.406h15.846c.716 0 1.296.629 1.296 1.406v10.574c0 .776-.58 1.406-1.296 1.406z" fill="none" stroke="#000000" stroke-width="2" stroke-miterlimit="10"/><path clip-path="url(#clip_frame59_path_1)" d="M1.176 1.975S3.57-8.158 9.498-1.709c0 0 7.613 13.835 13.35.631-.064-.193 0 24.331 0 24.331l-21.671.137V1.975z" fill="#000000"/><path d="M.883 7.59h15.692" fill="none" stroke="#ffffff" stroke-width="2" stroke-dasharray="15.430863710759798,0.2611362892402028" stroke-dashoffset="15.692" stroke-miterlimit="10"/><path d="M.883 10.876l13.243-.114" fill="none" stroke="#ffffff" stroke-width="2" stroke-dasharray="12.817654544969324,0.4258361202593853" stroke-dashoffset="13.243491" stroke-miterlimit="10"/><path d="M.883 14.162l10.983-.094" fill="none" stroke="#ffffff" stroke-width="2" stroke-dasharray="10.113250812079409,0.8701514385895519" stroke-dashoffset="10.983402" stroke-miterlimit="10"/></g><g transform="translate(1440)"><defs><clipPath id="clip_frame60_path_1"><path d="M19.923 17.487H6.17l-3.389 2.412V5.507c0-.776.58-1.406 1.296-1.406h15.846c.716 0 1.296.629 1.296 1.406v10.574c0 .776-.58 1.406-1.296 1.406z"/></clipPath></defs><path d="M19.923 17.487H6.17l-3.389 2.412V5.507c0-.776.58-1.406 1.296-1.406h15.846c.716 0 1.296.629 1.296 1.406v10.574c0 .776-.58 1.406-1.296 1.406z" fill="none" stroke="#000000" stroke-width="2" stroke-miterlimit="10"/><path clip-path="url(#clip_frame60_path_1)" d="M1.176 1.454S3.57-8.925 9.498-2.32c0 0 7.613 14.172 13.35.647-.064-.198 0 24.923 0 24.923l-21.671.14V1.454z" fill="#000000"/><path d="M.883 7.59h15.692M.883 10.876l13.243-.114M.883 14.162l10.983-.094" fill="none" stroke="#ffffff" stroke-width="2" stroke-miterlimit="10"/></g></svg>