<?xml version="1.0" encoding="UTF-8"?>
<svg width="25px" height="21px" viewBox="0 0 25 21" version="1.1" xmlns="http://www.w3.org/2000/svg" xmlns:xlink="http://www.w3.org/1999/xlink">
    <!-- Generator: Sketch 56.3 (81716) - https://sketch.com -->
    <title>background-icon</title>
    <desc>Created with Sketch.</desc>
    <g id="sprint-view" stroke="none" stroke-width="1" fill="none" fill-rule="evenodd">
        <g id="background-icon">
            <path d="M11.1482102,2.625 C11.3327469,1.14513316 12.5951434,2.81030102e-16 14.125,0 L22,0 C23.6568542,-3.04359188e-16 25,1.34314575 25,3 L25,8.375 C25,9.86149814 23.9188567,11.0954817 22.5,11.3335208 L22.5,18 C22.5,19.6568542 21.1568542,21 19.5,21 L3,21 C1.34314575,21 2.02906125e-16,19.6568542 0,18 L0,5.625 C-2.02906125e-16,3.96814575 1.34314575,2.625 3,2.625 L11.1482102,2.625 Z M11.1482102,2.625 C11.1328912,2.74784784 11.125,2.87300237 11.125,3 L11.125,8.375 C11.125,10.0318542 12.4681458,11.375 14.125,11.375 L22,11.375 C22.1703561,11.375 22.3373958,11.3608006 22.5,11.3335208 L22.5,5.625 C22.5,3.96814575 21.1568542,2.625 19.5,2.625 L11.1482102,2.625 Z" id="Combined-Shape" fill="#C8BDF7"></path>
            <path d="M13.0758141,4.11849372 L17.8974154,4.11849372 C19.5542696,4.11849372 20.8974154,5.46163947 20.8974154,7.11849372 L20.8974154,9.87582886 C20.7107174,9.91219652 20.5178299,9.93125 20.3204923,9.93125 L15.8422677,9.93125 C14.1854134,9.93125 12.8422677,8.58810425 12.8422677,6.93125 L12.8422677,5.28099372 C12.8422677,4.86879319 12.9254003,4.47600933 13.0758141,4.11849372 Z" id="Combined-Shape" fill="#FFD6D6"></path>
        </g>
    </g>
</svg>