<?xml version="1.0" encoding="UTF-8"?>
<svg width="26px" height="21px" viewBox="0 0 26 21" version="1.1" xmlns="http://www.w3.org/2000/svg" xmlns:xlink="http://www.w3.org/1999/xlink">
    <!-- Generator: Sketch 56.3 (81716) - https://sketch.com -->
    <title>cmera-angle</title>
    <desc>Created with Sketch.</desc>
    <defs>
        <path d="M26,6.28598166 L26,18.8574939 C26,19.9620634 25.1045695,20.8574939 24,20.8574939 L2.33667219,20.8574939 C1.04625408,20.8574939 0,19.8210396 0,18.5427085 L0,6.60076701 C0,5.32220979 1.04625408,4.28598166 2.33667219,4.28598166 L5.75337067,4.28598166 L6.47777999,1.35654558 C6.85703286,0.530320913 7.68855951,-0.00022609666 8.60474496,-2.92430978e-06 L14.031803,-2.92430978e-06 C14.9477603,-0.00022609666 15.7795152,0.530320913 16.158768,1.35654558 L17.038539,4.28598166 L24,4.28598166 C25.1045695,4.28598166 26,5.18141216 26,6.28598166 Z M17.4087387,11.9216824 C17.4087387,8.49586351 14.6050993,5.71870717 11.1468885,5.71870717 C7.68867774,5.71892946 4.88526275,8.49630807 4.88548713,11.922127 C4.88571157,15.3479459 7.68935089,18.1251022 11.1475617,18.1246576 C14.6055482,18.1244353 17.4087387,15.347279 17.4087387,11.9216824 Z" id="path-1"></path>
    </defs>
    <g id="sprint-view" stroke="none" stroke-width="1" fill="none" fill-rule="evenodd">
        <g id="cmera-angle">
            <path d="M3.51351351,4.44691557 L3.51351351,2.89200257 C3.51351351,2.45017477 3.87168571,2.09200257 4.31351351,2.09200257 L6.22702703,2.09200257 C6.66885483,2.09200257 7.02702703,2.45017477 7.02702703,2.89200257 L7.02702703,4.44691557 L3.51351351,4.44691557 Z" id="Shape" fill="#B2A7E2" fill-rule="nonzero"></path>
            <mask id="mask-2" fill="white">
                <use xlink:href="#path-1"></use>
            </mask>
            <use id="Shape" fill="#C8BDF7" fill-rule="nonzero" transform="translate(13.000000, 10.428745) scale(-1, 1) translate(-13.000000, -10.428745) " xlink:href="#path-1"></use>
            <path d="M5.90909091,18.8338376 C5.90909091,20.2011534 4.54600289,21.2727273 3.04520364,21.2727273 L-1.18181818,21.2727273 L-1.18181818,3.54545455 L3.01219267,3.54545455 C4.51299192,3.54545455 5.90909091,4.69305898 5.90909091,6.06061666 L5.90909091,18.8338376 Z" id="Shape" fill="#C8BDF7" fill-rule="nonzero" mask="url(#mask-2)" transform="translate(2.363636, 12.409091) scale(-1, 1) translate(-2.363636, -12.409091) "></path>
            <path d="M14.8987601,5.59735805 C18.3915985,5.59735805 21.2230844,8.42884404 21.2230844,11.9216824 C21.2230844,15.4145208 18.3915985,18.2460067 14.8987601,18.2460067 C11.4061483,18.2460067 8.57443574,15.4145208 8.57443574,11.9216824 C8.57443574,8.42884404 11.4061483,5.59735805 14.8987601,5.59735805 Z M19.3362581,11.9216824 C19.3364848,9.47073475 17.3497077,7.48373103 14.8987601,7.48373103 C12.4475858,7.48373103 10.4608087,9.47050806 10.4608087,11.9214557 C10.4608087,14.3726301 12.4478124,16.3594071 14.8987601,16.3591805 C17.3494811,16.3589538 19.3362581,14.3724034 19.3362581,11.9216824 Z" id="Shape" fill="#FFD6D6" fill-rule="nonzero"></path>
            <path d="M19.4658611,12.0517652 C19.4656278,14.5743204 17.4206154,16.6190994 14.8980602,16.6188662 C12.375505,16.6188662 10.3307259,14.5738538 10.3307259,12.0512986 C10.3309592,9.52851011 12.3762049,7.48373103 14.8987601,7.48373103 C17.4213153,7.48419758 19.4660944,9.52920999 19.4658611,12.0517652 Z" id="Shape" fill="#FFFFFF" fill-rule="nonzero"></path>
        </g>
    </g>
</svg>