<?xml version="1.0" encoding="UTF-8"?>
<svg width="21px" height="21px" viewBox="0 0 21 21" version="1.1" xmlns="http://www.w3.org/2000/svg" xmlns:xlink="http://www.w3.org/1999/xlink">
    <!-- Generator: Sketch 56.3 (81716) - https://sketch.com -->
    <title>crop-icon</title>
    <desc>Created with Sketch.</desc>
    <g id="sprint-view" stroke="none" stroke-width="1" fill="none" fill-rule="evenodd">
        <g id="crop-icon">
            <g id="Group-4">
                <path d="M2.46750389,0.227272727 L18.4675039,0.227272727 C19.5720734,0.227272727 20.4675039,1.12270323 20.4675039,2.22727273 L20.4675039,18.2272727 C20.4675039,19.3318422 19.5720734,20.2272727 18.4675039,20.2272727 L2.46750389,20.2272727 C1.36293439,20.2272727 0.467503887,19.3318422 0.467503887,18.2272727 L0.467503887,2.22727273 C0.467503887,1.12270323 1.36293439,0.227272727 2.46750389,0.227272727 Z" id="Rectangle" fill="#C8BDF7"></path>
                <path d="M4.90309871,16.5340789 C4.35309,16.5314148 3.90804598,16.0847256 3.90804598,15.5340909 L3.90804598,5.51136364 L2.90334378,5.51136364 C2.40126674,5.51136364 1.99425287,5.10434977 1.99425287,4.60227273 C1.99425287,4.10019568 2.40126674,3.69318182 2.90334378,3.69318182 L3.90804598,3.69318182 L3.90804598,2.76136364 C3.90804598,2.20907889 4.35576123,1.76136364 4.90804598,1.76136364 C5.46033073,1.76136364 5.90804598,2.20907889 5.90804598,2.76136364 L5.90804598,3.69318182 L16.251017,3.69318182 C16.270429,3.69318182 16.2896988,3.69379024 16.3088086,3.69498907 C16.3395887,3.69213528 16.3707734,3.69067647 16.4022989,3.69067647 C16.9545836,3.69067647 17.4022989,4.13839172 17.4022989,4.69067647 L17.4022989,14.7225136 L18.2610109,14.7225136 C18.7630879,14.7225136 19.1701018,15.1295275 19.1701018,15.6316045 C19.1701018,16.1336816 18.7630879,16.5406954 18.2610109,16.5406954 L17.4022989,16.5406954 L17.4022989,17.8068182 C17.4022989,18.3591029 16.9545836,18.8068182 16.4022989,18.8068182 C15.8500141,18.8068182 15.4022989,18.3591029 15.4022989,17.8068182 L15.4022989,16.5406954 L5.01334008,16.5406954 C4.97602517,16.5406954 4.93923536,16.5384472 4.90309871,16.5340789 Z M5.90804598,14.7225136 L15.4022989,14.7225136 L15.4022989,5.51136364 L5.90804598,5.51136364 L5.90804598,14.7225136 Z" id="Combined-Shape" fill="#FFFFFF"></path>
            </g>
        </g>
    </g>
</svg>