<?xml version="1.0" encoding="UTF-8"?>
<svg width="25px" height="31px" viewBox="0 0 25 31" version="1.1" xmlns="http://www.w3.org/2000/svg" xmlns:xlink="http://www.w3.org/1999/xlink">
    <!-- Generator: Sketch 56.3 (81716) - https://sketch.com -->
    <title>lighting-icon</title>
    <desc>Created with Sketch.</desc>
    <g id="sprint-view" stroke="none" stroke-width="1" fill="none" fill-rule="evenodd">
        <g id="lighting-icon" transform="translate(12.500000, 15.500000) scale(-1, 1) translate(-12.500000, -15.500000) " fill-rule="nonzero">
            <path d="M3.31563688,3.00200471 C3.61866718,2.69897441 4.14897021,2.69897441 4.37624294,3.00200471 L6.80048537,5.50200471 C7.10351567,5.80503502 7.10351567,6.25958047 6.80048537,6.56261077 C6.49745506,6.86564108 6.04290961,6.86564108 5.73987931,6.56261077 L3.31563688,4.06261077 C3.01260658,3.75958047 3.01260658,3.30503502 3.31563688,3.00200471 Z M1.04290961,8.07776229 L4.14897021,9.44139865 C4.52775809,9.5929138 4.67927324,10.0474593 4.52775809,10.4262471 C4.37624294,10.805035 3.92169749,10.9565502 3.54290961,10.805035 L0.436849002,9.44139865 C0.0580611235,9.2898835 -0.0934540281,8.83533805 0.0580611235,8.45655017 C0.209576275,8.07776229 0.66412173,7.92624714 1.04290961,8.07776229 Z M9.8307884,4.13836835 L8.54290961,1.03230774 C8.39139446,0.653519864 8.61866718,0.19897441 8.99745506,0.047459258 C9.37624294,-0.104055893 9.8307884,0.123216834 9.98230355,0.502004713 L11.2701823,3.60806532 C11.4216975,3.9868532 11.1944248,4.44139865 10.8156369,4.5929138 C10.436849,4.74442896 9.98230355,4.51715623 9.8307884,4.13836835 Z" id="Combined-Shape" fill="#B2A7E2"></path>
            <path d="M17.6338187,9.51715623 L16.4216975,3.07776229 C16.3459399,2.77473199 16.1944248,2.54745926 15.8913945,2.47170168 C15.5883642,2.39594411 15.3610914,2.47170168 15.1338187,2.62321683 L2.55806112,14.744429 C2.3307884,14.9717017 2.25503082,15.1989744 2.3307884,15.5020047 C2.40654597,15.805035 2.6338187,15.9565502 2.86109143,16.0323077 L9.30048537,17.4717017 C9.37624294,17.4717017 9.45200052,17.4717017 9.45200052,17.4717017 C9.67927324,17.4717017 9.8307884,17.3959441 9.98230355,17.244429 L17.3307884,10.1232168 C17.5580611,10.0474593 17.6338187,9.74442896 17.6338187,9.51715623 Z" id="Path" fill="#FFD6D6"></path>
            <path d="M20.2095763,23.9110956 L23.6186672,20.5777623 C24.9823035,19.2141259 25.0580611,17.0171562 23.6944248,15.6535199 L18.8459399,10.6535199 C18.6944248,10.8807926 18.5429096,11.1080653 18.3913945,11.2595805 L11.1186672,18.3807926 C10.967152,18.5323077 10.7398793,18.6838229 10.5126066,18.835338 L15.3610914,23.835338 C15.8913945,24.3656411 16.4974551,24.6686714 17.1792732,24.8201865 L17.1792732,25.702927 L15.1338187,25.702927 C14.1489702,25.702927 13.3156369,26.5362603 13.3156369,27.5211088 L13.3156369,29.4150482 C13.3156369,29.7938361 13.6186672,30.1726239 14.0732126,30.1726239 L21.8004854,30.1726239 C22.1792732,30.1726239 22.5580611,29.7938361 22.5580611,29.4150482 L22.5580611,27.5211088 C22.5580611,26.4605027 21.7247278,25.702927 20.6641217,25.702927 L18.6944248,25.702927 L18.6944248,24.744429 C19.2247278,24.6686714 19.7550308,24.3656411 20.2095763,23.9110956 Z M17.7853339,15.3504896 C18.0883642,15.0474593 18.5429096,15.0474593 18.8459399,15.3504896 L21.3459399,17.9262471 C21.6489702,18.2292774 21.6489702,18.6838229 21.3459399,18.9868532 C21.0429096,19.2898835 20.5883642,19.2898835 20.2853339,18.9868532 L17.7853339,16.4110956 C17.4823035,16.1080653 17.4823035,15.5777623 17.7853339,15.3504896 Z M17.7095763,21.4110956 L15.2095763,18.835338 C14.906546,18.5323077 14.906546,18.0777623 15.2095763,17.774732 C15.5126066,17.4717017 15.967152,17.4717017 16.2701823,17.774732 L18.7701823,20.3504896 C19.0732126,20.6535199 19.0732126,21.1080653 18.7701823,21.4110956 C18.467152,21.7141259 18.0126066,21.7141259 17.7095763,21.4110956 Z" id="Shape" fill="#C8BDF7"></path>
        </g>
    </g>
</svg>