<?xml version="1.0" encoding="UTF-8"?>
<svg width="20px" height="20px" viewBox="0 0 20 20" version="1.1" xmlns="http://www.w3.org/2000/svg" xmlns:xlink="http://www.w3.org/1999/xlink">
    <!-- Generator: Sketch 56.3 (81716) - https://sketch.com -->
    <title>mark-done-checkmark</title>
    <desc>Created with Sketch.</desc>
    <g id="Symbols" stroke="none" stroke-width="1" fill="none" fill-rule="evenodd">
        <path d="M10,20 C4.4771525,20 0,15.5228475 0,10 C0,4.4771525 4.4771525,0 10,0 C15.5228475,0 20,4.4771525 20,10 C20,15.5228475 15.5228475,20 10,20 Z M6.88388348,9.78278319 C6.39572811,9.29462783 5.60427189,9.29462783 5.11611652,9.78278319 C4.62796116,10.2709386 4.62796116,11.0623948 5.11611652,11.5505501 L7.78278319,14.2172168 C8.27093855,14.7053722 9.06239478,14.7053722 9.55055014,14.2172168 L14.8838835,8.88388348 C15.3720388,8.39572811 15.3720388,7.60427189 14.8838835,7.11611652 C14.3957281,6.62796116 13.6042719,6.62796116 13.1161165,7.11611652 L8.66666667,11.5655664 L6.88388348,9.78278319 Z" id="mark-done-checkmark" fill="#FFFFFF"></path>
    </g>
</svg>