<?xml version="1.0" encoding="UTF-8"?>
<svg width="22px" height="22px" viewBox="0 0 22 22" version="1.1" xmlns="http://www.w3.org/2000/svg" xmlns:xlink="http://www.w3.org/1999/xlink">
    <!-- Generator: Sketch 56.3 (81716) - https://sketch.com -->
    <title>shadow</title>
    <desc>Created with Sketch.</desc>
    <g id="sprint-view" stroke="none" stroke-width="1" fill="none" fill-rule="evenodd">
        <g id="shadow">
            <rect id="Rectangle" fill="#C8BDF7" x="4" y="4" width="18" height="18" rx="3"></rect>
            <rect id="Rectangle" fill="#FFFFFF" x="0" y="0" width="18" height="18" rx="3"></rect>
            <path d="M3,0 L15,0 C16.6568542,0 18,1.34314575 18,3 L18,15 C18,16.6568542 16.6568542,18 15,18 L3,18 C1.34314575,18 0,16.6568542 0,15 L0,3 C0,1.34314575 1.34314575,0 3,0 Z M3,1.5 C2.17157288,1.5 1.5,2.17157288 1.5,3 L1.5,15 C1.5,15.8284271 2.17157288,16.5 3,16.5 L15,16.5 C15.8284271,16.5 16.5,15.8284271 16.5,15 L16.5,3 C16.5,2.17157288 15.8284271,1.5 15,1.5 L3,1.5 Z" id="Rectangle" fill="#C8BDF7" fill-rule="nonzero"></path>
            <rect id="Rectangle" fill="#FFD6D6" x="4" y="4" width="10" height="10" rx="3"></rect>
        </g>
    </g>
</svg>