<?xml version="1.0" encoding="UTF-8"?>
<svg width="15px" height="14px" viewBox="0 0 15 14" version="1.1" xmlns="http://www.w3.org/2000/svg" xmlns:xlink="http://www.w3.org/1999/xlink">
    <!-- Generator: Sketch 51.3 (57544) - http://www.bohemiancoding.com/sketch -->
    <title>active-state-timeline</title>
    <desc>Created with Sketch.</desc>
    <defs></defs>
    <g id="Timeline-content-request" stroke="none" stroke-width="1" fill="none" fill-rule="evenodd">
        <path d="M14.3711888,4.36997962 C13.9943711,3.4806041 13.4474597,2.67495657 12.7760262,2.00921962 C12.104999,1.34297879 11.3092059,0.816284619 10.4479004,0.468831627 C9.58705552,0.120034957 8.66142985,-0.046581238 7.74702092,-0.0263700665 C6.83247653,-0.00767053391 5.92199618,0.197772385 5.08938283,0.576577886 C4.25614632,0.954151682 3.5012916,1.5019808 2.87767826,2.17418421 C2.25363142,2.8460517 1.76063632,3.64248943 1.4357028,4.5040396 C1.10955007,5.36511388 0.954114098,6.29032085 0.973621488,7.20522627 C0.991774199,8.12027166 1.1847619,9.02988635 1.53995896,9.86176361 C1.893991,10.6942287 2.40746887,11.4484525 3.03731373,12.0713037 C3.66680638,12.6946588 4.41274732,13.1867253 5.21910697,13.5106359 C6.02511441,13.8358062 6.89051102,13.9903293 7.74702092,13.9702581 C8.60372048,13.9514746 9.45394467,13.7580688 10.2316935,13.4028896 C11.00993,13.0488862 11.7149867,12.5356848 12.2970655,11.9063392 C12.8796592,11.2773574 13.3391124,10.5324274 13.641206,9.72770364 C13.8251715,9.23986419 13.9499647,8.73046988 14.0157479,8.21432919 C14.0333317,8.21536494 14.0510238,8.21609277 14.0688514,8.21609277 C14.5676174,8.21609277 14.9719623,7.79834857 14.9719623,7.28299169 C14.9719623,7.25678995 14.9706347,7.23089614 14.9686026,7.20525426 C14.9539721,6.23035917 14.7492529,5.25857134 14.3711888,4.36997962 Z M13.5369769,9.68302631 C13.2057306,10.458721 12.7257946,11.1614091 12.1374572,11.7414306 C11.5494448,12.3217879 10.853329,12.7793106 10.1019964,13.0797068 C9.35085353,13.3811948 8.5456589,13.5236528 7.74704802,13.5036935 C6.94830166,13.4847421 6.15817107,13.3034294 5.43534098,12.9719046 C4.71215867,12.6414155 4.0569,12.1628699 3.51630145,11.576466 C2.97529649,10.990342 2.54930385,10.2968637 2.26996886,9.54899433 C1.98957722,8.80123698 1.85752302,8.00037631 1.87678657,7.20517028 C1.89515603,6.4097963 2.06484323,5.62452791 2.37425212,4.90605155 C2.68268563,4.18726728 3.12916103,3.53597487 3.67596402,2.99886719 C4.22249607,2.46133961 4.86878675,2.03850063 5.56509222,1.76170275 C6.2613164,1.48378515 7.00633615,1.35336431 7.74704802,1.37323956 C8.48786826,1.39227501 9.21785106,1.56157857 9.88578953,1.86944901 C10.5539718,2.1763397 11.1594054,2.62034162 11.6584965,3.16388777 C12.1579941,3.70709799 12.550472,4.3491526 12.8070212,5.04013952 C13.0645188,5.73112644 13.1849227,6.46981396 13.1657676,7.20519828 L13.1691543,7.20519828 C13.1670951,7.23084015 13.1657676,7.25673397 13.1657676,7.28293571 C13.1657676,7.76422472 13.518472,8.16024611 13.9713144,8.21055009 C13.883477,8.71829279 13.7380656,9.21394238 13.5369769,9.68302631 Z" id="active-state-timeline" fill="#FFFFFF" fill-rule="nonzero" transform="translate(7.971989, 6.971989) rotate(-70.000000) translate(-7.971989, -6.971989) "></path>
    </g>
</svg>