<?xml version="1.0" encoding="UTF-8"?>
<svg width="394px" height="249px" viewBox="0 0 394 249" version="1.1" xmlns="http://www.w3.org/2000/svg" xmlns:xlink="http://www.w3.org/1999/xlink">
    <!-- Generator: Sketch 51.3 (57544) - http://www.bohemiancoding.com/sketch -->
    <title>illustrations</title>
    <desc>Created with Sketch.</desc>
    <defs>
        <linearGradient x1="0%" y1="50.0031123%" x2="100.015713%" y2="50.0031123%" id="linearGradient-1">
            <stop stop-color="#4C5354" offset="0%"></stop>
            <stop stop-color="#464C4D" offset="6%"></stop>
            <stop stop-color="#313233" offset="32%"></stop>
            <stop stop-color="#292929" offset="48%"></stop>
            <stop stop-color="#282828" offset="51%"></stop>
            <stop stop-color="#191919" offset="100%"></stop>
            <stop stop-color="#313130" offset="100%"></stop>
            <stop stop-color="#403F3E" offset="100%"></stop>
        </linearGradient>
        <linearGradient x1="-21.8677365%" y1="50.0301761%" x2="78.1136833%" y2="50.0301761%" id="linearGradient-2">
            <stop stop-color="#4C5354" offset="0%"></stop>
            <stop stop-color="#464C4D" offset="6%"></stop>
            <stop stop-color="#313233" offset="32%"></stop>
            <stop stop-color="#292929" offset="48%"></stop>
            <stop stop-color="#282828" offset="51%"></stop>
            <stop stop-color="#191919" offset="100%"></stop>
            <stop stop-color="#313130" offset="100%"></stop>
            <stop stop-color="#403F3E" offset="100%"></stop>
        </linearGradient>
        <linearGradient x1="0%" y1="50.0054236%" x2="100%" y2="50.0054236%" id="linearGradient-3">
            <stop stop-color="#4C5354" offset="0%"></stop>
            <stop stop-color="#464C4D" offset="6%"></stop>
            <stop stop-color="#313233" offset="32%"></stop>
            <stop stop-color="#292929" offset="48%"></stop>
            <stop stop-color="#282828" offset="51%"></stop>
            <stop stop-color="#191919" offset="100%"></stop>
            <stop stop-color="#313130" offset="100%"></stop>
            <stop stop-color="#403F3E" offset="100%"></stop>
        </linearGradient>
        <linearGradient x1="57.7597707%" y1="63.4270514%" x2="9.69828743%" y2="35.6703864%" id="linearGradient-4">
            <stop stop-color="#FFF7E7" stop-opacity="0" offset="0%"></stop>
            <stop stop-color="#FFEAC4" stop-opacity="0.75" offset="100%"></stop>
        </linearGradient>
        <linearGradient x1="15.9420611%" y1="51.9641748%" x2="103.932697%" y2="59.7942036%" id="linearGradient-5">
            <stop stop-color="#FFFFFF" stop-opacity="0" offset="0%"></stop>
            <stop stop-color="#FFFFFF" offset="100%"></stop>
        </linearGradient>
    </defs>
    <g id="Timeline-content-request" stroke="none" stroke-width="1" fill="none" fill-rule="evenodd">
        <g id="illustrations" transform="translate(0.000000, -22.000000)">
            <path d="M37.5470297,251.613861 C16.8103778,251.613861 0,247.029213 0,241.373762 C0,235.718312 16.8103778,231.133663 37.5470297,231.133663 C58.2836816,231.133663 75.0940594,235.718312 75.0940594,241.373762 C75.0940594,247.029213 58.2836816,251.613861 37.5470297,251.613861 Z M356.45297,270.143564 C335.716318,270.143564 318.905941,265.558916 318.905941,259.903465 C318.905941,254.248015 335.716318,249.663366 356.45297,249.663366 C377.189622,249.663366 394,254.248015 394,259.903465 C394,265.558916 377.189622,270.143564 356.45297,270.143564 Z" id="Combined-Shape" fill="#E9EEF3"></path>
            <g id="studion-light1" transform="translate(16.579208, 76.069307)">
                <polygon id="Rectangle-path" fill="#59529E" points="20.4113867 90.4035805 23.1559897 90.4035805 23.1559897 118.50967 20.4113867 118.50967"></polygon>
                <path d="M19.9539529,143.714418 L23.734183,143.714418 L23.734183,160.299027 C23.734183,161.342909 22.8879496,162.189142 21.8440679,162.189142 L21.8440679,162.189142 C20.8001862,162.189142 19.9539529,161.342909 19.9539529,160.299027 L19.9539529,143.714418 Z" id="Rectangle-path" fill="#504972" fill-rule="nonzero"></path>
                <path d="M11.1626794,140.339764 L14.9429095,140.339764 L14.9429095,164.726353 C14.9429095,165.770235 14.0966762,166.616468 13.0527945,166.616468 L13.0527945,166.616468 C12.0089128,166.616468 11.1626794,165.770235 11.1626794,164.726353 L11.1626794,140.339764 Z" id="Rectangle-path" fill="#504972" fill-rule="nonzero" transform="translate(13.052794, 153.478116) rotate(42.000000) translate(-13.052794, -153.478116) "></path>
                <path d="M28.7171349,140.339764 L32.497365,140.339764 L32.497365,164.726353 C32.497365,165.770235 31.6511316,166.616468 30.6072499,166.616468 L30.6072499,166.616468 C29.5633682,166.616468 28.7171349,165.770235 28.7171349,164.726353 L28.7171349,140.339764 Z" id="Rectangle-path" fill="#504972" fill-rule="nonzero" transform="translate(30.607250, 153.478116) scale(-1, 1) rotate(42.000000) translate(-30.607250, -153.478116) "></path>
                <path d="M21.2439529,112.506497 L22.444183,112.506497 C23.1566303,112.506497 23.734183,113.08405 23.734183,113.796497 L23.734183,143.344686 C23.734183,144.057134 23.1566303,144.634686 22.444183,144.634686 L21.2439529,144.634686 C20.5315056,144.634686 19.9539529,144.057134 19.9539529,143.344686 L19.9539529,113.796497 C19.9539529,113.08405 20.5315056,112.506497 21.2439529,112.506497 Z" id="Rectangle-path" fill="#59529E"></path>
                <g id="Group-3" transform="translate(89.145449, 85.089949) rotate(-22.000000) translate(-89.145449, -85.089949) translate(19.415251, 21.698860)">
                    <path d="M18.8353019,47.0976677 C18.1468176,48.183896 17.0546854,48.9517986 15.7995749,49.2321553 C14.5444643,49.512512 13.2293841,49.2823136 12.1441342,48.5922882 L2.59068178,42.533016 C0.330623601,41.0961656 -0.337170701,38.0994871 1.09894668,35.838963 L4.34787071,30.723206 C5.0368762,29.6375867 6.12897755,28.870192 7.3838587,28.5898865 C8.63873984,28.309581 9.95357597,28.539333 11.0390384,29.2285856 L20.5896055,35.2878577 C21.6758337,35.976342 22.4437363,37.0684743 22.7240931,38.3235848 C23.0044498,39.5786954 22.7742514,40.8937756 22.084226,41.9790254 L18.8353019,47.0976677 Z" id="Shape" fill="#000000" fill-rule="nonzero"></path>
                    <path d="M18.8353019,47.0976677 C18.1468176,48.183896 17.0546854,48.9517986 15.7995749,49.2321553 C14.5444643,49.512512 13.2293841,49.2823136 12.1441342,48.5922882 L2.59068178,42.533016 C0.330623601,41.0961656 -0.337170701,38.0994871 1.09894668,35.838963 L4.34787071,30.723206 C5.0368762,29.6375867 6.12897755,28.870192 7.3838587,28.5898865 C8.63873984,28.309581 9.95357597,28.539333 11.0390384,29.2285856 L20.5896055,35.2878577 C21.6758337,35.976342 22.4437363,37.0684743 22.7240931,38.3235848 C23.0044498,39.5786954 22.7742514,40.8937756 22.084226,41.9790254 L18.8353019,47.0976677 Z" id="Path" fill="#59529E"></path>
                    <path d="M13.8493865,37.2787615 C13.8493865,37.2787615 23.9539442,21.0399121 50.5743466,30.0422593 L36.3783375,37.2787615 C36.3783375,37.2787615 25.3187231,28.6774803 13.8493865,37.2787615 Z" id="Shape" fill="url(#linearGradient-1)" fill-rule="nonzero"></path>
                    <path d="M13.8493865,37.2787615 C13.8493865,37.2787615 23.9539442,21.0399121 50.5743466,30.0422593 L36.3783375,37.2787615 C36.3783375,37.2787615 25.3187231,28.6774803 13.8493865,37.2787615 Z" id="Path" fill="#837ADD"></path>
                    <path d="M13.8493865,37.2787615 C13.8493865,37.2787615 6.74849664,43.9699292 12.2104977,52.5712103 C12.2104977,52.5712103 18.2178332,58.7083874 26.1381676,58.6304824 L36.5254913,37.1402638 C36.5254913,37.1402638 22.9988875,27.3127014 13.8493865,37.2787615 Z" id="Shape" fill="url(#linearGradient-2)" fill-rule="nonzero"></path>
                    <path d="M13.8493865,37.2787615 C13.8493865,37.2787615 6.74849664,43.9699292 12.2104977,52.5712103 C12.2104977,52.5712103 18.2178332,58.7083874 26.1381676,58.6304824 L36.5254913,37.1402638 C36.5254913,37.1402638 22.9988875,27.3127014 13.8493865,37.2787615 Z" id="Path" fill="#948BEC"></path>
                    <path d="M10.2628745,47.5247022 C10.2628745,47.5247022 10.5716088,64.2742616 29.9612798,74.124907 L26.1381676,58.6449093 C26.1381676,58.6449093 12.5452003,55.1766973 10.2628745,47.5247022 Z" id="Shape" fill="url(#linearGradient-3)" fill-rule="nonzero"></path>
                    <path d="M10.2628745,47.5247022 C10.2628745,47.5247022 10.5716088,64.2742616 29.9612798,74.124907 L26.1381676,58.6449093 C26.1381676,58.6449093 12.5452003,55.1766973 10.2628745,47.5247022 Z" id="Path" fill="#837ADD"></path>
                    <polygon id="Path-3" fill="url(#linearGradient-4)" points="50.3044201 30.742193 138.934189 0.385387281 71.2347742 126.099779 30.4921325 74.4116742 30.1583775 73.3524546 26.5008034 58.6891798 36.5873095 37.4084726"></polygon>
                    <polygon id="Path" fill="#FFE5B8" points="50.577232 30.0422593 36.1503935 37.1171809 25.9333065 58.6449093 29.9612798 74.124907 44.2582767 66.6575754 54.4436247 45.7473157"></polygon>
                </g>
            </g>
            <g id="studion-light2" transform="translate(115.079208, 0.000000)">
                <rect id="Rectangle-path" fill="#948BEC" fill-rule="nonzero" x="238.521807" y="149.514278" width="3.12704829" height="9.4251233"></rect>
                <path d="M238.859299,158.740488 L241.307133,158.740488 C241.820757,158.740488 242.237133,159.156863 242.237133,159.670488 L242.237133,243.833024 C242.237133,244.346648 241.820757,244.763024 241.307133,244.763024 L238.859299,244.763024 C238.345674,244.763024 237.929299,244.346648 237.929299,243.833024 L237.929299,159.670488 C237.929299,159.156863 238.345674,158.740488 238.859299,158.740488 Z" id="Rectangle-path" fill="#504972" fill-rule="nonzero"></path>
                <path d="M238.478249,241.175625 L242.258479,241.175625 L242.258479,257.760234 C242.258479,258.804115 241.412246,259.650349 240.368364,259.650349 L240.368364,259.650349 C239.324483,259.650349 238.478249,258.804115 238.478249,257.760234 L238.478249,241.175625 Z" id="Rectangle-path" fill="#504972" fill-rule="nonzero"></path>
                <path d="M229.686976,237.800971 L233.467206,237.800971 L233.467206,262.18756 C233.467206,263.231442 232.620973,264.077675 231.577091,264.077675 L231.577091,264.077675 C230.533209,264.077675 229.686976,263.231442 229.686976,262.18756 L229.686976,237.800971 Z" id="Rectangle-path" fill="#504972" fill-rule="nonzero" transform="translate(231.577091, 250.939323) rotate(42.000000) translate(-231.577091, -250.939323) "></path>
                <path d="M247.241431,237.800971 L251.021661,237.800971 L251.021661,262.18756 C251.021661,263.231442 250.175428,264.077675 249.131546,264.077675 L249.131546,264.077675 C248.087665,264.077675 247.241431,263.231442 247.241431,262.18756 L247.241431,237.800971 Z" id="Rectangle-path" fill="#504972" fill-rule="nonzero" transform="translate(249.131546, 250.939323) scale(-1, 1) rotate(42.000000) translate(-249.131546, -250.939323) "></path>
                <rect id="Rectangle-path" fill="#6BEBB6" fill-rule="nonzero" x="230.078556" y="136.479083" width="20.4161629" height="15.3121222" rx="7.65606109"></rect>
                <g id="Group" transform="translate(121.079711, 134.263911) rotate(-2.000000) translate(-121.079711, -134.263911) translate(4.537632, 4.555990)">
                    <path d="M222.828332,85.7169207 C222.828332,85.7169207 232.119948,98.3827598 232.119948,141.451229 C232.119948,141.451229 233.978271,177.598118 222.828332,199.047709 L222.828332,85.7169207 Z" id="Shape" fill="#948BEC" fill-rule="nonzero"></path>
                    <path d="M222.858098,86.2717988 L222.59419,198.610078 L11.5958217,258.068763 C6.81158732,259.416946 1.84028132,256.631475 0.492098934,251.847241 C0.268244573,251.052859 0.15472152,250.231461 0.15472152,249.406141 L0.15472152,9.21060719 C0.15472152,4.24004444 4.18415877,0.210607189 9.15472152,0.210607189 C10.3154616,0.210607189 11.4652425,0.43514081 12.5407033,0.87183467 L222.858098,86.2717988 Z" id="Path-6" fill="url(#linearGradient-5)"></path>
                    <polygon id="Shape" fill="#E9EEF3" fill-rule="nonzero" points="222.728873 85.9927555 222.728873 198.779512 204.283573 192.768654 204.283573 91.6189247"></polygon>
                </g>
            </g>
            <g id="photos" transform="translate(116.054455, 89.722772)">
                <rect id="Rectangle-path" fill="#FFFFFF" fill-rule="nonzero" transform="translate(122.672857, 34.538940) rotate(-120.389999) translate(-122.672857, -34.538940) " x="106.761278" y="18.4741267" width="31.8231574" height="32.129626"></rect>
                <polygon id="Rectangle-path" fill="#F3F6F8" fill-rule="nonzero" transform="translate(121.794722, 32.623268) rotate(-120.389999) translate(-121.794722, -32.623268) " points="110.341771 19.4773386 133.29086 19.4773386 133.247583 45.7693522 110.298494 45.7693522"></polygon>
                <g id="cosmatic" transform="translate(31.555271, 79.079833) rotate(-30.000000) translate(-31.555271, -79.079833) translate(8.636954, 56.161516)" fill-rule="nonzero">
                    <rect id="Rectangle-path" fill="#FFFFFF" transform="translate(22.795304, 22.832277) rotate(-33.960000) translate(-22.795304, -22.832277) " x="6.73049116" y="6.61423003" width="32.129626" height="32.4360946"></rect>
                    <rect id="Rectangle-path" fill="#E7F7F1" transform="translate(24.972421, 21.370356) rotate(-33.960000) translate(-24.972421, -21.370356) " x="13.3874579" y="7.00464136" width="23.1699267" height="28.7314302"></rect>
                    <g id="lips" transform="translate(24.709297, 21.818838) rotate(57.000000) translate(-24.709297, -21.818838) translate(13.006327, 14.504482)">
                        <g id="Shape">
                            <path d="M22.9174239,6.66485238 L21.6009253,5.8454202 C19.518752,4.47516415 18.2067295,3.17209375 17.3335846,2.11086483 C16.3798707,0.955638673 15.6275794,0.0421644791 14.1767095,0.0421644791 C13.2767082,0.0421644791 12.4303749,0.391431391 11.785509,1.0362525 C11.6243261,1.1974354 11.3557178,1.1974354 11.1945349,1.0362525 C10.5496691,0.391476151 9.70338052,0.0421644791 8.8033345,0.0421644791 C7.35246462,0.0421644791 6.60026285,0.955638673 5.64650412,2.11086483 C4.7732697,3.17209375 3.55090265,4.47520891 1.46872936,5.8454202 L0,6.74542145 L8.08971636,9.73941279 L14.7644161,9.94933998 L22.9174239,6.66485238 Z" fill="#F5C1FB"></path>
                            <path d="M14.7644161,9.94929522 L22.9174239,6.66485238 L21.6009253,5.8454202 C19.518752,4.47516415 18.2067295,3.17209375 17.3335846,2.11086483 C16.3798707,0.955638673 15.6275794,0.0421644791 14.1767095,0.0421644791 C13.2767082,0.0421644791 12.4303749,0.391431391 11.785509,1.0362525 C11.7048952,1.11686633 11.597425,1.1571061 11.4899996,1.1571061 L11.4899996,9.84634585 L14.7644161,9.94929522 Z" fill="#EBACF3"></path>
                            <path d="M22.9174239,6.66485238 L22.6755377,6.87974799 C22.6755377,6.87974799 19.9395911,8.84106768 19.0126888,9.66045511 C16.8633746,11.541161 14.6334913,13.4755795 11.4899996,13.4755795 C8.34650788,13.4755795 6.11662463,11.541161 3.96731045,9.66045511 C3.04040808,8.84102292 1.89404452,8.00820732 0.859627199,7.32305691 L0.228279027,6.89317617 L0,6.74542145 C7.01219459,5.83194726 8.48096871,5.10651232 9.91836565,6.53043632 C9.91836565,6.57076561 10.563142,7.18877513 11.4900444,7.18877513 C12.3766174,7.18877513 13.0080104,6.62452309 13.0482949,6.54390926 C14.4856471,5.10651232 15.9992266,5.75137819 22.9174239,6.66485238 Z" fill="#FCDFFF"></path>
                            <path d="M19.0127335,9.66045511 C19.9396359,8.84102292 22.6755824,6.87974799 22.6755824,6.87974799 L22.9174687,6.66485238 C15.9992266,5.75137819 14.4856919,5.10651232 13.0482949,6.54390926 C13.0080551,6.62452309 12.3766174,7.18877513 11.4900444,7.18877513 L11.4900444,13.4756243 C14.6334913,13.4755795 16.8633746,11.541161 19.0127335,9.66045511 Z" fill="#F5C1FB"></path>
                        </g>
                    </g>
                </g>
                <rect id="Rectangle-path" fill="#FFFFFF" fill-rule="nonzero" transform="translate(19.668521, 42.917711) rotate(-11.360000) translate(-19.668521, -42.917711) " x="9.10436822" y="32.4527101" width="21.128305" height="20.9300018"></rect>
                <polygon id="Rectangle-path" fill="#F3F6F8" fill-rule="nonzero" transform="translate(19.308001, 41.197889) rotate(-11.360000) translate(-19.308001, -41.197889) " points="10.4544399 33.9374223 28.1411619 34.1287756 28.1615627 48.4058058 10.5722823 48.4583096"></polygon>
                <g id="handbag" transform="translate(62.107347, 32.754287) rotate(-20.000000) translate(-62.107347, -32.754287) translate(37.238535, 7.885475)" fill-rule="nonzero">
                    <rect id="Rectangle-path" fill="#FFFFFF" transform="translate(24.665353, 24.920756) rotate(-13.410000) translate(-24.665353, -24.920756) " x="4.15271814" y="4.60326005" width="41.0252699" height="40.6349923"></rect>
                    <rect id="Rectangle-path" fill="#F3F6F8" transform="translate(23.890711, 21.689954) rotate(-13.410000) translate(-23.890711, -21.689954) " x="5.72328976" y="7.0385783" width="36.334843" height="29.3027505"></rect>
                    <path d="M34.8824566,7.37177431 C35.0333425,7.01296031 35.3780324,6.76224813 35.7789493,6.76224813 C36.3190132,6.76224813 36.707967,7.2257881 36.7568666,7.77822512 C36.7568666,7.77822512 36.7832604,7.91535913 36.7251641,8.16224536 C36.6460574,8.49847875 36.4601043,8.79720284 36.2094004,9.02518439 L34.8824566,10.213029 L33.5778691,9.02510937 C33.3271651,8.79720284 33.1412121,8.49840373 33.0621054,8.16217034 C33.0040091,7.91528411 33.0304029,7.7781501 33.0304029,7.7781501 C33.0793025,7.22571308 33.4682562,6.76217311 34.0083201,6.76217311 C34.4093118,6.76217311 34.7315707,7.01296031 34.8824566,7.37177431 Z" id="Combined-Shape" fill="#F55D4A" transform="translate(34.893635, 8.487601) rotate(-16.000000) translate(-34.893635, -8.487601) "></path>
                    <g id="hand-bag" transform="translate(24.202855, 21.835184) rotate(-15.000000) translate(-24.202855, -21.835184) translate(13.679874, 11.575278)">
                        <path d="M20.9485099,16.232085 C20.9565051,16.2783113 20.9634119,16.3317461 20.9693978,16.3917188 C21.1823782,18.5332175 19.4846463,20.384953 17.3351264,20.384953 L10.3744176,20.384953 L3.60688961,20.384953 C1.48763404,20.384953 -0.187703036,18.5620932 0.016947364,16.4501827 C0.0221797837,16.3965384 0.0281656719,16.3491386 0.0351561846,16.3086958 L1.31442002,7.43885606 C1.42513802,6.79604603 1.98199306,6.32636471 2.63353396,6.32636471 L10.3744176,6.32636471 L18.1152593,6.32636471 C18.7668002,6.32636471 19.3236971,6.79604603 19.4343732,7.43885606 L20.9485099,16.232085 Z M11.8516041,9.61147519 C12.055333,9.61147519 12.2206825,9.41987024 12.2206825,9.18281616 C12.2206825,8.94576208 12.055333,8.75415712 11.8516041,8.75415712 L9.63721765,8.75415712 C9.43348874,8.75415712 9.2681393,8.94576208 9.2681393,9.18281616 C9.2681393,9.41987024 9.43348874,9.61147519 9.63721765,9.61147519 L11.8516041,9.61147519 Z" id="Combined-Shape" fill="#948BEC"></path>
                        <g id="Group" transform="translate(5.924691, 6.326365)" fill="#FFFFFF">
                            <path d="M1.48356414,1.50999888 L1.48356414,4.07981245 L0.761276273,4.07981245 L0.761276273,1.50999888 L0.467860891,1.50999888 C0.230943925,1.50999888 0.0391929637,1.31507848 0.0391929637,1.07424553 L0.0391929637,0.0415042795 L2.20572927,0.0415042795 L2.20572927,1.07420395 C2.20568836,1.3150369 2.0139374,1.50999888 1.77702043,1.50999888 L1.48356414,1.50999888 Z" id="Combined-Shape"></path>
                        </g>
                        <path d="M8.43515295,11.4979168 C8.43515295,12.3020326 7.78320063,12.9539849 6.97908488,12.9539849 C6.17496912,12.9539849 5.52301681,12.3020326 5.52301681,11.4979168 C5.52301681,10.6938011 6.17496912,10.0418487 6.97908488,10.0418487 C7.78320063,10.0418487 8.43515295,10.6937598 8.43515295,11.4979168" id="Shape" fill="#FFFFFF"></path>
                        <path d="M16.267795,6.32636471 C15.8940428,3.98672818 14.2640123,0 10.3933135,0 C6.52261457,0 4.89296135,3.98672818 4.51883194,6.32636471 L6.03048244,6.32636471 C6.13964019,5.80088552 6.37166331,4.90480966 6.81571405,4.02243462 C7.66164475,2.34111201 8.86539828,1.48854152 10.3933135,1.48854152 C11.9212286,1.48854152 13.1249821,2.34111201 13.9709129,4.02243462 C14.4149636,4.90476751 14.647364,5.80088552 14.7565217,6.32636471 L16.267795,6.32636471 Z" id="Shape" fill="#6BEBB6"></path>
                    </g>
                </g>
                <path d="M129.049242,5.6192229 C129.011536,5.71043546 129.027918,5.80915826 129.092981,5.88328792 C129.158199,5.95741758 129.254198,5.98664139 129.349147,5.96088085 L130.801582,5.5714764 C130.913808,5.54166888 131.033193,5.56848008 131.121487,5.64366039 L132.265575,6.61933121 C132.340794,6.683538 132.439945,6.69840285 132.53034,6.65933399 C132.621047,6.62038187 132.678249,6.53823609 132.683464,6.43963003 L132.76199,4.93804723 C132.768022,4.8221637 132.830633,4.71678674 132.929473,4.65623779 L134.210963,3.8695295 C134.295054,3.81785276 134.339882,3.7283913 134.330815,3.63013545 C134.321787,3.53180178 134.261316,3.45206862 134.16917,3.41669652 L132.765337,2.87805992 C132.656964,2.83650061 132.57618,2.74431523 132.548941,2.63162258 L132.196737,1.16977017 C132.173584,1.07384911 132.102334,1.00357186 132.006218,0.981858295 C131.909947,0.9600669 131.81531,0.992870732 131.753166,1.06960757 L130.807069,2.2382879 C130.734106,2.32841088 130.621959,2.37818087 130.505803,2.36786887 L129.006749,2.25101251 C128.908649,2.24416379 128.81946,2.28945876 128.769106,2.37432846 C128.718675,2.45915925 128.720737,2.55924402 128.774437,2.64205132 L129.59356,3.90299486 C129.656794,4.00016113 129.668079,4.12223186 129.623718,4.22955448 L129.049242,5.6192229 Z" id="Shape" fill="#F5C1FB"></path>
                <path d="M35.3918059,19.095493 C33.6197243,19.095493 32.1831683,17.658937 32.1831683,15.8868554 C32.1831683,14.1147738 33.6197243,12.6782178 35.3918059,12.6782178 C37.1638875,12.6782178 38.6004435,14.1147738 38.6004435,15.8868554 C38.6004435,17.658937 37.1638875,19.095493 35.3918059,19.095493 Z M35.3918059,17.1449979 C36.0866588,17.1449979 36.6499484,16.5817083 36.6499484,15.8868554 C36.6499484,15.1920025 36.0866588,14.6287129 35.3918059,14.6287129 C34.696953,14.6287129 34.1336634,15.1920025 34.1336634,15.8868554 C34.1336634,16.5817083 34.696953,17.1449979 35.3918059,17.1449979 Z" id="Oval-7" fill="#6BEBB6" fill-rule="nonzero"></path>
                <path d="M20.7415224,113.882148 L22.9070481,113.882148 L21.8242852,112.36628 L20.7415224,113.882148 Z M25.2652805,113.827915 C25.6722627,114.39769 25.540293,115.189508 24.9705179,115.59649 C24.7554944,115.750079 24.4978547,115.832643 24.2336115,115.832643 L19.414959,115.832643 C18.7147604,115.832643 18.1471372,115.26502 18.1471372,114.564821 C18.1471372,114.300578 18.2297018,114.042938 18.38329,113.827915 L20.7926162,110.454858 C21.1995984,109.885083 21.9914166,109.753113 22.5611917,110.160096 C22.6750364,110.241413 22.7746366,110.341014 22.8559543,110.454858 L25.2652805,113.827915 Z" id="Triangle-2" fill="#CACFD7" fill-rule="nonzero" transform="translate(21.824334, 112.878244) scale(1, -1) rotate(-60.000000) translate(-21.824334, -112.878244) "></path>
                <path d="M175.805879,101.20393 L177.971404,101.20393 L176.888642,99.6880624 L175.805879,101.20393 Z M180.329637,101.149697 C180.736619,101.719472 180.604649,102.51129 180.034874,102.918273 C179.819851,103.071861 179.562211,103.154425 179.297968,103.154425 L174.479315,103.154425 C173.779117,103.154425 173.211494,102.586802 173.211494,101.886604 C173.211494,101.62236 173.294058,101.364721 173.447646,101.149697 L175.856973,97.7766404 C176.263955,97.2068654 177.055773,97.0748957 177.625548,97.4818779 C177.739393,97.5631955 177.838993,97.6627957 177.920311,97.7766404 L180.329637,101.149697 Z" id="Triangle-2" fill="#E6D3F7" fill-rule="nonzero" transform="translate(176.888691, 100.200026) scale(1, -1) rotate(-10.000000) translate(-176.888691, -100.200026) "></path>
                <g id="model" transform="translate(149.633020, 70.675691) rotate(-20.000000) translate(-149.633020, -70.675691) translate(125.251832, 46.294503)" fill-rule="nonzero">
                    <rect id="Rectangle-path" fill="#FFFFFF" transform="translate(24.361077, 24.173596) rotate(-57.260000) translate(-24.361077, -24.173596) " x="7.10654563" y="6.75402091" width="34.5090628" height="34.8391495"></rect>
                    <rect id="Rectangle-path" fill="#F2E3FF" transform="translate(25.568218, 21.959654) rotate(-57.264774) translate(-25.568218, -21.959654) " x="13.141759" y="6.55159321" width="24.8529187" height="30.8161209"></rect>
                    <g id="Path-2" transform="translate(24.328583, 25.441091) rotate(32.000000) translate(-24.328583, -25.441091) translate(15.150392, 16.262900)">
                        <g id="croupier" transform="translate(0.136060, 0.000000)">
                            <path d="M12.8562495,0.932113861 C12.1457065,0.195272167 8.12374288,-0.571371447 5.90885069,0.616338275 C3.83423132,1.72882116 3.29481849,4.39102524 4.6481275,8.47972479 C5.0715235,9.75891456 6.19923184,11.0154958 6.85622544,12.6163864 C8.04446596,15.5117619 10.044474,11.6170043 12.8562495,0.932113861 Z" id="Shape" fill="#504972"></path>
                            <path d="M11.6102317,11.1434229 L11.5930512,11.1434229 L11.5930512,10.4058133 L7.17200103,10.4058133 L7.17200103,11.142655 C7.17200103,11.8645238 7.16897764,12.6491637 6.54040187,13.1237869 L6.54040187,16.3561196 L9.38252611,16.3561196 C9.38252611,16.3561196 10.8707505,16.3561196 12.2246504,16.3561196 L12.2246504,13.1127972 C11.6121993,12.6369742 11.6102317,11.8591009 11.6102317,11.1434229 Z" id="Shape" fill="#F5D2D2"></path>
                            <path d="M14.1193998,13.5637132 L14.0141573,13.5637132 C12.7766338,13.5637132 12.1736368,13.2259101 11.8779211,12.7453841 L11.2543843,15.4584627 L7.51076392,15.4584627 L6.88722712,12.7453841 C6.59146345,13.2259101 5.98846645,13.5637132 4.75099088,13.5637132 L4.64574835,13.5637132 C2.72729169,13.5637132 0.501044944,16.1488184 0.501044944,18.0673231 L17.6133065,18.1937366 C17.6132586,16.2752799 16.0378565,13.5637132 14.1193998,13.5637132 Z" id="Shape" fill="#948BEC"></path>
                            <path d="M12.2246504,0.616290285 L10.0141253,12.6163384 L11.5930992,10.4058133 C14.9351854,7.95845658 16.3694209,0.616290285 12.2246504,0.616290285 Z" id="Shape" fill="#504972"></path>
                            <path d="M11.9088748,14.5110879 C12.0240993,14.5425215 12.1278541,14.5592701 12.2246504,14.5674284 L12.2246504,13.1127492 C11.6121993,12.6369262 11.6102317,11.8590529 11.6102317,11.1433749 L11.5930512,11.1433749 L11.5930512,10.4057654 L8.11937577,10.4057654 L7.17200103,10.7215409 C7.8035522,11.432132 9.73779764,13.9189847 11.9088748,14.5110879 Z" id="Shape" fill="#EFC3C3"></path>
                            <path d="M13.8036243,6.30053877 C13.8036243,8.82943091 11.2885533,11.9847873 9.3825741,11.9847873 C7.47659489,11.9847873 4.96152394,8.82943091 4.96152394,6.30053877 C4.96152394,3.77164663 6.94092816,2.82681537 9.3825741,2.82681537 C11.82422,2.82681537 13.8036243,3.77164663 13.8036243,6.30053877 Z" id="Shape" fill="#F5D2D2"></path>
                            <path d="M10.0141253,1.24788945 C9.83670546,1.24788945 9.26063097,1.44724078 8.78979902,1.62192515 L8.75097494,1.56366503 C8.75097494,1.56366503 8.68599619,1.61472662 8.57350714,1.70322056 C8.31162456,1.80265628 8.11942377,1.87944062 8.11942377,1.87944062 L8.1932807,2.0025835 C6.9946772,2.94693486 4.57582661,4.15988744 4.32992478,4.40578927 C4.01414919,4.72156486 5.27729952,8.31368011 5.27729952,8.19528826 C5.27729952,4.9189486 8.35193634,4.55542275 10.3299488,4.09001369 C11.2246783,3.87948063 12.4352314,3.353172 12.5404739,2.82686336 C12.6457165,2.30050673 10.3299009,1.24788945 10.0141253,1.24788945 Z" id="Shape" fill="#504972"></path>
                            <path d="M11.9088748,3.14263894 C11.9088748,4.77421012 12.6983617,6.16237495 13.7839003,6.43870259 C14.3787389,6.5901117 14.1194478,4.72161285 14.1194478,4.72161285 C14.1194478,4.72161285 13.2773156,2.56368504 13.1720731,2.51108777 C13.0668306,2.45844251 12.2246983,0.616338275 12.2246983,0.616338275 L10.3299488,2.19531218 L11.9088748,3.14263894 Z" id="Shape" fill="#504972"></path>
                            <path d="M13.3332722,6.32938089 C13.8499828,6.21094105 14.1885057,6.46399343 14.1885057,6.96098005 C14.1885057,7.61887785 13.4936555,9.23072505 12.7631485,8.22413038 C12.0326415,7.21753571 13.3332722,6.32938089 13.3332722,6.32938089 Z" id="Shape" fill="#F5D2D2"></path>
                            <path d="M9.38252611,14.9896943 L9.38252611,14.9896943 C8.64714632,15.7250741 7.45486011,15.7250741 6.71948032,14.9896943 C6.64414532,14.9143593 6.57533965,14.8327667 6.51380401,14.745795 L5.59302712,13.4444095 L6.32852509,12.7089115 C6.44730086,12.5901358 6.63825391,12.5851448 6.76307644,12.6974899 L9.38252611,14.9896943 Z" id="Shape" fill="#6BEBB6"></path>
                            <path d="M9.38252611,14.9896943 L9.38252611,14.9896943 C10.1179059,15.7250741 11.3101921,15.7250741 12.0455719,14.9896943 C12.1209069,14.9143593 12.1897126,14.8327667 12.2512482,14.745795 L13.1720251,13.4444095 L12.4365271,12.7089115 C12.3177514,12.5901358 12.1267983,12.5851448 12.0019758,12.6974899 L9.38252611,14.9896943 Z" id="Shape" fill="#6BEBB6"></path>
                            <path d="M10.0141253,15.937069 C10.0141253,16.1107456 9.87202626,16.2528446 9.69834968,16.2528446 L9.06675052,16.2528446 C8.89307395,16.2528446 8.75097494,16.1107456 8.75097494,15.937069 L8.75097494,15.3054699 C8.75097494,15.1317933 8.89307395,14.9896943 9.06675052,14.9896943 L9.69834968,14.9896943 C9.87202626,14.9896943 10.0141253,15.1317933 10.0141253,15.3054699 L10.0141253,15.937069 Z" id="Shape" fill="#FFFFFF"></path>
                            <path d="M9.06675052,15.3054699 L7.29639165,14.5467446 C7.08801816,14.4574349 6.85622544,14.6102837 6.85622544,14.8369894 L6.85622544,16.4055015 C6.85622544,16.6322072 7.08801816,16.7850561 7.29639165,16.6957463 L9.06675052,15.937021 L9.06675052,15.3054699 Z" id="Shape" fill="#FFFFFF"></path>
                            <path d="M9.69830169,15.3054699 L11.4686606,14.5467446 C11.6770341,14.4574349 11.9088268,14.6102837 11.9088268,14.8369894 L11.9088268,16.4055015 C11.9088268,16.6322072 11.6770341,16.7850561 11.4686606,16.6957463 L9.69830169,15.937021 L9.69830169,15.3054699 Z" id="Shape" fill="#FFFFFF"></path>
                        </g>
                    </g>
                </g>
                <g id="dress" transform="translate(65.375684, 40.967216)" fill-rule="nonzero">
                    <rect id="Rectangle-path" fill="#FFFFFF" transform="translate(28.057849, 27.620452) rotate(-22.310000) translate(-28.057849, -27.620452) " x="6.74466548" y="6.51065418" width="42.6263669" height="42.219596"></rect>
                    <rect id="Rectangle-path" fill="#F4F3FF" transform="translate(26.750872, 24.427500) rotate(-22.310000) translate(-26.750872, -24.427500) " x="7.87428594" y="9.20379773" width="37.7531712" height="30.447405"></rect>
                    <g id="Group-5" transform="translate(26.448630, 24.354836) rotate(-18.000000) translate(-26.448630, -24.354836) translate(19.281627, 13.007081)">
                        <path d="M12.1960344,15.0582621 L1.3722583,15.7946606 L2.45580746,12.1302817 C2.54211783,11.8382263 2.68005909,11.3642445 2.76326247,11.0737499 L2.78089921,11.0122356 C2.86593024,10.7154059 3.04124676,10.2465656 3.17169468,9.96708852 L3.99299114,8.20773241 C4.11046281,7.95607448 9.70603845,7.94121994 9.71532465,7.97882226 C9.73631849,8.06383188 9.76248085,8.14227428 9.79305754,8.20777831 L10.6143083,9.96713443 C10.7448019,10.2466115 10.9200271,10.7154977 11.0109979,11.0334902 C11.0947953,11.3264637 11.2326908,11.8003996 11.3183159,12.089976 L12.1960344,15.0582621 Z M13.7591313,21.2943526 C13.8114475,21.471367 13.786683,21.6466829 13.6910973,21.7753122 C13.5978876,21.9008198 13.4507167,21.9699086 13.2765425,21.9699086 C13.0057317,21.9699086 12.5691995,22.0855464 12.3231532,22.2224388 L11.8188155,22.5031554 C11.6745689,22.5833995 11.4845856,22.6276071 11.2838191,22.6276071 C11.0830527,22.6276071 10.8930693,22.5834454 10.7488684,22.5031554 L10.244485,22.2224388 C10.1351921,22.161613 9.98052788,22.1267243 9.82019802,22.1267243 C9.65986816,22.1267243 9.50524967,22.161613 9.39591101,22.2224388 L8.89152761,22.5031554 C8.74732669,22.5833995 8.55734334,22.6276071 8.35657691,22.6276071 C8.15581048,22.6276071 7.96582713,22.5834454 7.82162621,22.5031554 L7.31719712,22.2224388 C7.20794984,22.161613 7.05328567,22.1267243 6.8929558,22.1267243 C6.73262594,22.1267243 6.57800746,22.161613 6.4686688,22.2224388 L5.96433109,22.5031554 C5.82008448,22.5833995 5.63010113,22.6276071 5.4293347,22.6276071 C5.22856826,22.6276071 5.03858492,22.5834454 4.89438399,22.5031554 L4.39000059,22.2224388 C4.28070762,22.161613 4.12604345,22.1267243 3.96571359,22.1267243 C3.80538373,22.1267243 3.65076525,22.161613 3.54142659,22.2224388 L3.03704319,22.5031554 C2.89284226,22.5833995 2.70285892,22.6276071 2.50209248,22.6276071 C2.30132605,22.6276071 2.1113427,22.5834454 1.96714178,22.5031554 L1.46271269,22.2224388 C1.21671213,22.0855923 0.780179923,21.9699086 0.509369124,21.9699086 C0.335240568,21.9699086 0.188024035,21.9007739 0.0948143121,21.7753122 C-0.000679963015,21.6466829 -0.0254445071,21.471367 0.0269174256,21.2943526 L1.48045723,16.3787283 L12.1128699,15.7269929 L13.7591313,21.2943526 Z" id="Combined-Shape" fill="#6BEBB6"></path>
                        <path d="M9.59263846,7.28306962 C9.54046341,7.04945717 9.52650339,6.77537081 9.56542894,6.58474317 L10.079773,4.06476679 L10.1404964,6.02670709 C10.1502286,6.3401548 10.2428443,6.8356666 10.3470656,7.13134861 L11.689971,10.9413358 C11.8067116,11.2723656 12.1803729,11.52967 12.5327422,11.5170917 L13.0626669,11.4978111 C13.2436034,11.4912465 13.3969882,11.4122878 13.4835728,11.2812255 C13.5701573,11.1501633 13.5829508,10.977464 13.5187092,10.8074274 L12.0985859,7.04807471 C11.9963751,6.77745751 11.8932504,6.30494472 11.8733748,6.01628637 L11.5925577,1.93600327 C11.5692095,1.59680217 11.3321644,1.18061632 11.0528094,0.988498767 L9.762997,0.101590478 C9.66512679,0.0342919509 9.56967821,0.000183624905 9.47920995,0.000183624905 C9.39230559,0.000183624905 9.31545326,0.0320884521 9.25706011,0.0925010457 C9.18116729,0.170954786 9.14333511,0.290770036 9.14753868,0.439093053 C9.14785852,0.44983511 9.17020144,1.52137824 8.48341941,2.23140984 C8.07827695,2.65025825 7.50503715,2.86262045 6.77955481,2.86262045 C5.98722647,2.86262045 5.37747953,2.63745041 4.96721968,2.19339948 C4.31557406,1.48800441 4.384202,0.453415796 4.38497875,0.443178707 C4.39653858,0.292422661 4.36400656,0.170817067 4.29094659,0.0915829211 C4.23570612,0.031675296 4.16168663,0 4.07692975,0 C3.98860897,0 3.8941199,0.0342001385 3.79611262,0.101590478 L2.50634592,0.988498767 C2.22703659,1.18057042 1.98994578,1.59675626 1.96659765,1.93600327 L1.68578052,6.01624047 C1.66585922,6.30508244 1.56273455,6.77754932 1.46056938,7.04802881 L0.0404004516,10.8073815 C-0.0238411516,10.9774181 -0.0110019692,11.1501174 0.075582553,11.2811796 C0.162212766,11.412196 0.31559759,11.4911547 0.496442729,11.4977193 L1.02641311,11.5169999 C1.37795998,11.5295323 1.75253513,11.2722738 1.86913866,10.941244 L3.21204404,7.1313027 C3.31626531,6.8356207 3.40892674,6.34010889 3.41861324,6.02666118 L3.47933663,4.06467498 L3.99372637,6.58469726 C4.03055457,6.76505368 4.02004272,7.02011743 3.97461546,7.24492873 C3.95145321,7.3595545 9.6149966,7.38317764 9.59263846,7.28306962 Z" id="Shape" fill="#948BEC"></path>
                    </g>
                </g>
            </g>
            <ellipse id="Oval-2" fill="#E9EEF3" cx="205.777228" cy="238.44802" rx="62.4158416" ry="10.240099"></ellipse>
            <g id="photo-camera" transform="translate(159.940594, 166.767327)" fill-rule="nonzero">
                <path d="M12.6165661,11.5183217 L12.6165661,8.75122648 C12.6165661,7.09437223 13.9597118,5.75122648 15.6165661,5.75122648 L20.9461142,5.75122648 C22.6029684,5.75122648 23.9461142,7.09437223 23.9461142,8.75122648 L23.9461142,11.5183217 L12.6165661,11.5183217 Z" id="Shape" fill="#504972"></path>
                <path d="M21.7512618,64.3777227 C21.7512618,69.1008107 18.0257307,72.7466892 13.3026427,72.7466892 L0,72.7466892 L0,11.5117747 L13.1987556,11.5117747 C17.9218436,11.5117747 21.7512618,15.5315532 21.7512618,20.2554766 L21.7512618,64.3777227 Z" id="Shape" fill="#837ADD" transform="translate(10.875631, 42.129232) scale(-1, 1) translate(-10.875631, -42.129232) "></path>
                <path d="M94.5990099,11.5183217 L94.5990099,72.7455804 L29.4437788,72.7455804 C24.7206906,72.7455804 20.8912726,68.9161621 20.8912726,64.1930741 L20.8912726,20.070828 C20.8912726,15.3469046 24.7206906,11.5183217 29.4437788,11.5183217 L41.9493136,11.5183217 L44.8850616,5.06134648 C46.2731736,2.00866963 49.3166629,0.0484418231 52.6700138,0.0492771891 L72.5337107,0.0492771891 C75.8862265,0.0484418231 78.9305512,2.00866963 80.3186629,5.06134648 L83.254411,11.5183217 L94.5990099,11.5183217 Z M84.4086651,40.1174348 C84.4086651,27.2460801 73.9736054,16.8118553 61.1022504,16.8118553 C48.2308957,16.8126904 37.7966709,27.2477504 37.797506,40.1191053 C37.7983414,52.9904603 48.2334012,63.4246849 61.1047561,63.4230144 C73.9752759,63.4221792 84.4086651,52.9879546 84.4086651,40.1174348 Z" id="Shape" fill="#948BEC" transform="translate(57.745141, 36.397429) scale(-1, 1) translate(-57.745141, -36.397429) "></path>
                <path d="M53.8669489,16.8118553 C66.7383038,16.8118553 77.1725284,27.2460801 77.1725284,40.1174348 C77.1725284,52.9887897 66.7383038,63.4230144 53.8669489,63.4230144 C40.9964291,63.4230144 30.5613693,52.9887897 30.5613693,40.1174348 C30.5613693,27.2460801 40.9964291,16.8118553 53.8669489,16.8118553 Z M70.2194411,40.1174348 C70.2202763,31.0855206 62.8988631,23.7632723 53.8669489,23.7632723 C44.8341993,23.7632723 37.5127863,31.0846852 37.5127863,40.1165997 C37.5127863,49.1493492 44.8350347,56.4707622 53.8669489,56.4699271 C62.8980279,56.4690919 70.2194411,49.1485141 70.2194411,40.1174348 Z" id="Shape" fill="#FFFFFF"></path>
                <path d="M53.8669489,23.7649428 C62.8980279,23.7666131 70.218606,31.0880263 70.2177706,40.1191053 C70.2169354,49.1501844 62.8955225,56.4707622 53.8644432,56.4699271 C44.8333641,56.4699271 37.5127863,49.1485141 37.5127863,40.1174348 C37.5136215,31.0855206 44.8358698,23.7649428 53.8669489,23.7649428 Z" id="Shape" fill="#6BEBB6"></path>
                <path d="M13.6132903,26.1344213 L8.05416123,26.1344213 C6.87318028,26.1344213 5.91603467,25.1772754 5.91603467,23.9962947 C5.91603467,22.8153138 6.87318028,21.8581681 8.05416123,21.8581681 L13.6132903,21.8581681 C14.794271,21.8581681 15.7514169,22.8153138 15.7514169,23.9962947 C15.7514169,25.1772754 14.794271,26.1344213 13.6132903,26.1344213 Z" id="Shape" fill="#FFFFFF"></path>
            </g>
        </g>
    </g>
</svg>