<?xml version="1.0" encoding="UTF-8"?>
<svg width="243px" height="153px" viewBox="0 0 243 153" version="1.1" xmlns="http://www.w3.org/2000/svg" xmlns:xlink="http://www.w3.org/1999/xlink">
    <!-- Generator: Sketch 51.3 (57544) - http://www.bohemiancoding.com/sketch -->
    <title>Product Shipping</title>
    <desc>Created with Sketch.</desc>
    <defs>
        <path d="M26.8910944,10.1189281 L26.3270216,10.1189281 C26.1219042,9.26491374 25.8142281,8.30414757 25.3014347,7.2900055 C23.6092162,3.98069982 20.5837348,2.16591928 16.8403426,2.16591928 C13.045671,2.16591928 10.0201896,3.98069982 8.37925054,7.2900055 C7.86645708,8.35752347 7.558781,9.42504143 7.35366362,10.2790558 C3.35387464,11.0263184 0.584789971,14.3356241 0.584789971,18.6590718 C0.584789971,22.9825196 3.55899203,26.398577 7.66133969,27.0924637 C7.86645708,27.1458396 8.12285381,27.1992155 8.32797119,27.1992155 L26.8910944,27.1992155 C31.7626322,27.1992155 35.4547451,23.5162785 35.4547451,18.6590718 C35.4547451,13.6951133 31.8651909,10.1189281 26.8910944,10.1189281 Z" id="path-1"></path>
        <filter x="-12.9%" y="-34.0%" width="151.6%" height="167.9%" filterUnits="objectBoundingBox" id="filter-2">
            <feOffset dx="5" dy="0" in="SourceAlpha" result="shadowOffsetOuter1"></feOffset>
            <feGaussianBlur stdDeviation="2" in="shadowOffsetOuter1" result="shadowBlurOuter1"></feGaussianBlur>
            <feColorMatrix values="0 0 0 0 0.909803922   0 0 0 0 0.815686275   0 0 0 0 0.988235294  0 0 0 0.2 0" type="matrix" in="shadowBlurOuter1"></feColorMatrix>
        </filter>
        <path d="M8.40081601,0 L77.2282884,0 C80.5419969,-9.43821151e-15 83.2282884,2.6862915 83.2282884,6 L83.2282884,54.9950536 L2.40081601,56.0709097 L2.40081601,6 C2.40081601,2.6862915 5.08710751,6.08718376e-16 8.40081601,0 Z" id="path-3"></path>
    </defs>
    <g id="Timeline-content-request" stroke="none" stroke-width="1" fill="none" fill-rule="evenodd">
        <g id="Product-Shipping" transform="translate(0.000000, 2.000000)">
            <g id="tree" transform="translate(17.434978, 98.295964)">
                <path d="M6.05865465,0 C-2.01955155,14.4510133 -2.01955155,21.67652 6.05865465,21.67652 C14.1368608,21.67652 14.1368608,14.4510133 6.05865465,0 Z" id="Path-8" fill="#A5F5D4"></path>
                <path d="M8.52971374,16.4069763 C8.9214452,16.017663 9.55460715,16.0196232 9.94392052,16.4113547 C10.3332339,16.8030862 10.3312736,17.4362481 9.93954217,17.8255615 L7.76016998,19.9914808 C7.36843851,20.3807941 6.73527656,20.3788339 6.34596319,19.9871024 C5.95664982,19.5953709 5.95861007,18.962209 6.35034154,18.5728956 L8.52971374,16.4069763 Z" id="Line-2" fill="#6BEBB6" fill-rule="nonzero"></path>
                <path d="M5.66452011,18.6658922 C5.66452011,18.1136074 6.11223536,17.6658922 6.66452011,17.6658922 C7.21680486,17.6658922 7.66452011,18.1136074 7.66452011,18.6658922 L7.66452011,27.0956499 C7.66452011,27.6479347 7.21680486,28.0956499 6.66452011,28.0956499 C6.11223536,28.0956499 5.66452011,27.6479347 5.66452011,27.0956499 L5.66452011,18.6658922 Z" id="Line" fill="#6BEBB6" fill-rule="nonzero"></path>
            </g>
            <g id="tree" transform="translate(0.000000, 79.885650)">
                <path d="M10.4173996,0 C-3.47246652,24.8474271 -3.47246652,37.2711406 10.4173996,37.2711406 C24.3072656,37.2711406 24.3072656,24.8474271 10.4173996,0 Z" id="Path-8" fill="#A5F5D4"></path>
                <path d="M12.1640537,33.4559197 C12.5557852,33.8452331 12.5577455,34.478395 12.1684321,34.8701265 C11.7791187,35.2618579 11.1459568,35.2638182 10.7542253,34.8745048 L6.58726547,30.733267 C6.19553401,30.3439536 6.19357375,29.7107917 6.58288713,29.3190602 C6.9722005,28.9273287 7.60536244,28.9253685 7.99709391,29.3146818 L12.1640537,33.4559197 Z" id="Line-2" fill="#6BEBB6" fill-rule="nonzero"></path>
                <path d="M10.4591395,32.0945933 C10.4591395,31.5423086 10.9068548,31.0945933 11.4591395,31.0945933 C12.0114243,31.0945933 12.4591395,31.5423086 12.4591395,32.0945933 L12.4591395,46.5889258 C12.4591395,47.1412106 12.0114243,47.5889258 11.4591395,47.5889258 C10.9068548,47.5889258 10.4591395,47.1412106 10.4591395,46.5889258 L10.4591395,32.0945933 Z" id="Line" fill="#6BEBB6" fill-rule="nonzero"></path>
            </g>
            <g id="other-elements" transform="translate(19.614350, 0.000000)" fill-rule="nonzero">
                <path d="M42.4411369,6.46181967 L41.9828277,6.46181967 C41.8161699,5.76793299 41.5661831,4.98731048 41.1495384,4.16332006 C39.7746109,1.47450919 37.3164073,0 34.2749011,0 C31.1917304,0 28.7335268,1.47450919 27.4002638,4.16332006 C26.9836191,5.0306784 26.7336323,5.89803675 26.5669744,6.59192342 C23.3171459,7.19907426 21.0672646,9.88788513 21.0672646,13.4006864 C21.0672646,16.9134877 23.4838037,19.6890344 26.8169612,20.2528174 C26.9836191,20.2961853 27.1919414,20.3395532 27.3585993,20.3395532 L42.4411369,20.3395532 C46.3992614,20.3395532 49.3991031,17.3471669 49.3991031,13.4006864 C49.3991031,9.36747012 46.4825903,6.46181967 42.4411369,6.46181967 Z" id="Shape" fill="#E4EAF0" transform="translate(35.233184, 10.169777) scale(-1, 1) translate(-35.233184, -10.169777) "></path>
                <g id="Shape">
                    <use fill="black" fill-opacity="1" filter="url(#filter-2)" xlink:href="#path-1"></use>
                    <use fill="#FFFFFF" xlink:href="#path-1"></use>
                </g>
                <path d="M135.747646,30.1489911 C133.647064,30.1489911 131.941704,28.4541585 131.941704,26.36037 C131.941704,24.2665815 133.647064,22.5717489 135.747646,22.5717489 C137.848228,22.5717489 139.553588,24.2665815 139.553588,26.36037 C139.553588,28.4541585 137.848228,30.1489911 135.747646,30.1489911 Z M135.747646,28.1489911 C136.746421,28.1489911 137.553588,27.3468073 137.553588,26.36037 C137.553588,25.3739327 136.746421,24.5717489 135.747646,24.5717489 C134.74887,24.5717489 133.941704,25.3739327 133.941704,26.36037 C133.941704,27.3468073 134.74887,28.1489911 135.747646,28.1489911 Z" id="Oval-7" fill="#948BEC"></path>
                <path d="M15.627142,90.794731 C13.5265598,90.794731 11.8212003,89.0998984 11.8212003,87.0061099 C11.8212003,84.9123214 13.5265598,83.2174888 15.627142,83.2174888 C17.7277243,83.2174888 19.4330838,84.9123214 19.4330838,87.0061099 C19.4330838,89.0998984 17.7277243,90.794731 15.627142,90.794731 Z M15.627142,88.794731 C16.6259175,88.794731 17.4330838,87.9925472 17.4330838,87.0061099 C17.4330838,86.0196726 16.6259175,85.2174888 15.627142,85.2174888 C14.6283666,85.2174888 13.8212003,86.0196726 13.8212003,87.0061099 C13.8212003,87.9925472 14.6283666,88.794731 15.627142,88.794731 Z" id="Oval-7" fill="#E6D3F7"></path>
                <path d="M93.7130773,27.6644417 C94.8147804,26.1911331 96.5730481,25.2331749 98.5623334,25.2331749 C101.019262,25.2331749 103.13061,27.7746051 104.07551,29.8665513 C104.12853,29.9840975 104.255765,30.0493849 104.383072,30.0247031 C104.510161,29.9998765 104.60251,29.8914503 104.606734,29.7627574 C104.608846,29.7027539 104.609865,29.6420988 104.609865,29.5814438 C104.609865,26.2623557 101.90262,23.5717489 98.5623334,23.5717489 C96.5730481,23.5717489 94.8147804,24.5297071 93.7130773,26.0020748 C92.6102089,24.5297795 90.852014,23.5717489 88.8626559,23.5717489 C85.5233893,23.5717489 82.8161435,26.2623557 82.8161435,29.5814438 C82.8161435,29.6420988 82.8171631,29.7022472 82.819348,29.7616717 C82.823645,29.8902922 82.9157753,29.9988632 83.0430097,30.024124 C83.170317,30.0489506 83.2975514,29.9835185 83.3505718,29.8659723 C84.2953986,27.774026 86.4067473,25.2331025 88.8627288,25.2331025 C90.852014,25.2331749 92.6102818,26.1911331 93.7130773,27.6644417 Z" id="XMLID_56_" fill="#D8DDE4"></path>
                <path d="M61.2763037,45.924509 L65.1659803,45.924509 L63.221142,43.2185426 L61.2763037,45.924509 Z M67.5867611,45.8658014 C68.0057837,46.4488119 67.8728453,47.2611202 67.2898348,47.6801429 C67.0687595,47.8390346 66.8033786,47.924509 66.5311272,47.924509 L59.9111568,47.924509 C59.1931866,47.924509 58.6111568,47.3424792 58.6111568,46.624509 C58.6111568,46.3522576 58.6966312,46.0868767 58.8555229,45.8658014 L62.1655081,41.2604269 C62.5845308,40.6774165 63.3968391,40.544478 63.9798496,40.9635007 C64.0942618,41.0457313 64.1945452,41.1460147 64.2767758,41.2604269 L67.5867611,45.8658014 Z" id="Triangle-2" fill="#6BEBB6" transform="translate(63.221191, 44.321773) scale(1, -1) rotate(-140.000000) translate(-63.221191, -44.321773) "></path>
                <path d="M142.112425,56.319269 C141.637085,56.038075 141.479699,55.4247827 141.760893,54.9494425 C142.042087,54.4741023 142.655379,54.3167157 143.130719,54.5979098 L145.301306,55.8819504 C145.636982,56.0805242 146.057478,56.0658226 146.378466,55.8442902 L146.727617,55.6033211 C147.954381,54.7566603 149.632732,55.0445399 150.507228,56.25162 L150.796828,56.6513587 C151.041635,56.9892697 151.470526,57.1396537 151.87275,57.0286143 L154.040608,56.4301488 C154.572979,56.2831808 155.123692,56.5956117 155.27066,57.1279827 C155.417628,57.6603536 155.105197,58.2110667 154.572826,58.3580347 L152.404968,58.9565001 C151.198295,59.2896182 149.911622,58.8384663 149.1772,57.8247332 L148.887601,57.4249946 C148.650686,57.0979771 148.195994,57.0199859 147.863643,57.24936 L147.514493,57.490329 C146.551528,58.1549263 145.290041,58.1990311 144.283012,57.6033096 L142.112425,56.319269 Z" id="Path-5" fill="#D3DFEA" transform="translate(148.464192, 56.761638) rotate(210.000000) translate(-148.464192, -56.761638) "></path>
            </g>
            <g id="home-1" transform="translate(215.757848, 68.056054)">
                <polygon id="Rectangle-11" fill="#F2E3FF" points="2.06336218 16.3796904 13.4118542 5.10125076 24.7603462 15.867034 24.7603462 34.3686939 2.06336218 34.3686939"></polygon>
                <polygon id="Rectangle-12" fill="#E6D3F7" points="7.22176764 22.4162726 12.3801731 22.4162726 12.3801731 34.3686939 7.22176764 34.3686939"></polygon>
                <rect id="Rectangle-12" fill="#FFFFFF" x="15.2556054" y="22.6591928" width="5.15840546" height="5.12656345"></rect>
                <path d="M20.7547015,10.025502 L9.08160603,21.626183 C8.33905616,22.3645075 7.13513883,22.3645075 6.39294945,21.626183 C5.65069998,20.8885153 5.65069998,19.6920893 6.39294945,18.9544813 L16.7218368,8.68965111 L6.39324985,-1.57482084 C5.65100039,-2.31278707 5.65100039,-3.50909369 6.39324985,-4.24676136 C7.13549932,-4.98472759 8.33935657,-4.98472759 9.08190644,-4.24676136 L20.7550019,7.35409883 C21.1261266,7.7231118 21.3114787,8.20623218 21.3114787,8.6895914 C21.3114787,9.17318947 21.1257662,9.65666812 20.7547015,10.025502 Z" id="Shape" fill="#948BEC" fill-rule="nonzero" transform="translate(13.573871, 8.689845) scale(1, -1) rotate(90.000000) translate(-13.573871, -8.689845) "></path>
            </g>
            <g id="building" transform="translate(191.784753, 40.899103)">
                <path d="M13.0500703,4.86356785 L13.0500703,4.33183857 L13.0500703,0.815629391 C13.0500703,0.365169717 13.41524,8.27480997e-17 13.8656996,0 C14.3161593,-8.27480997e-17 14.681329,0.365169717 14.681329,0.815629391 L14.681329,4.33183857 L14.681329,4.86356785 L16.3125878,4.86356785 L18.4875995,11.348325 L19.8376229,11.348325 C21.4944772,11.348325 22.8376229,12.6914707 22.8376229,14.348325 L22.8376229,17.8330821 L25.7313993,17.8330821 C26.8359688,17.8330821 27.7313993,18.7285126 27.7313993,19.8330821 L27.7313993,72.9145156 L0,72.9145156 L0,19.8330821 C-1.3527075e-16,18.7285126 0.8954305,17.8330821 2,17.8330821 L4.89377634,17.8330821 L4.89377634,14.348325 C4.89377634,12.6914707 6.2369221,11.348325 7.89377634,11.348325 L9.24379976,11.348325 L11.4188115,4.86356785 L13.0500703,4.86356785 Z" id="Combined-Shape" fill="#E4EAF0"></path>
                <path d="M6.11722043,24.3178392 C6.79290994,24.3178392 7.34066452,24.8655938 7.34066452,25.5412833 L7.34066452,27.957963 C7.34066452,28.6336525 6.79290994,29.1814071 6.11722043,29.1814071 C5.44153092,29.1814071 4.89377634,28.6336525 4.89377634,27.957963 L4.89377634,25.5412833 C4.89377634,24.8655938 5.44153092,24.3178392 6.11722043,24.3178392 Z M11.5547497,24.3178392 C12.2304392,24.3178392 12.7781938,24.8655938 12.7781938,25.5412833 L12.7781938,27.957963 C12.7781938,28.6336525 12.2304392,29.1814071 11.5547497,29.1814071 C10.8790602,29.1814071 10.3313056,28.6336525 10.3313056,27.957963 L10.3313056,25.5412833 C10.3313056,24.8655938 10.8790602,24.3178392 11.5547497,24.3178392 Z M16.992279,24.3178392 C17.6679685,24.3178392 18.2157231,24.8655938 18.2157231,25.5412833 L18.2157231,27.957963 C18.2157231,28.6336525 17.6679685,29.1814071 16.992279,29.1814071 C16.3165895,29.1814071 15.7688349,28.6336525 15.7688349,27.957963 L15.7688349,25.5412833 C15.7688349,24.8655938 16.3165895,24.3178392 16.992279,24.3178392 Z M22.4298082,24.3178392 C23.1054978,24.3178392 23.6532523,24.8655938 23.6532523,25.5412833 L23.6532523,27.957963 C23.6532523,28.6336525 23.1054978,29.1814071 22.4298082,29.1814071 C21.7541187,29.1814071 21.2063642,28.6336525 21.2063642,27.957963 L21.2063642,25.5412833 C21.2063642,24.8655938 21.7541187,24.3178392 22.4298082,24.3178392 Z M6.11722043,32.4237857 C6.79290994,32.4237857 7.34066452,32.9715402 7.34066452,33.6472297 L7.34066452,36.0639094 C7.34066452,36.7395989 6.79290994,37.2873535 6.11722043,37.2873535 C5.44153092,37.2873535 4.89377634,36.7395989 4.89377634,36.0639094 L4.89377634,33.6472297 C4.89377634,32.9715402 5.44153092,32.4237857 6.11722043,32.4237857 Z M11.5547497,32.4237857 C12.2304392,32.4237857 12.7781938,32.9715402 12.7781938,33.6472297 L12.7781938,36.0639094 C12.7781938,36.7395989 12.2304392,37.2873535 11.5547497,37.2873535 C10.8790602,37.2873535 10.3313056,36.7395989 10.3313056,36.0639094 L10.3313056,33.6472297 C10.3313056,32.9715402 10.8790602,32.4237857 11.5547497,32.4237857 Z M16.992279,32.4237857 C17.6679685,32.4237857 18.2157231,32.9715402 18.2157231,33.6472297 L18.2157231,36.0639094 C18.2157231,36.7395989 17.6679685,37.2873535 16.992279,37.2873535 C16.3165895,37.2873535 15.7688349,36.7395989 15.7688349,36.0639094 L15.7688349,33.6472297 C15.7688349,32.9715402 16.3165895,32.4237857 16.992279,32.4237857 Z M22.4298082,32.4237857 C23.1054978,32.4237857 23.6532523,32.9715402 23.6532523,33.6472297 L23.6532523,36.0639094 C23.6532523,36.7395989 23.1054978,37.2873535 22.4298082,37.2873535 C21.7541187,37.2873535 21.2063642,36.7395989 21.2063642,36.0639094 L21.2063642,33.6472297 C21.2063642,32.9715402 21.7541187,32.4237857 22.4298082,32.4237857 Z M6.11722043,40.5297321 C6.79290994,40.5297321 7.34066452,41.0774866 7.34066452,41.7531762 L7.34066452,44.1698558 C7.34066452,44.8455453 6.79290994,45.3932999 6.11722043,45.3932999 C5.44153092,45.3932999 4.89377634,44.8455453 4.89377634,44.1698558 L4.89377634,41.7531762 C4.89377634,41.0774866 5.44153092,40.5297321 6.11722043,40.5297321 Z M11.5547497,40.5297321 C12.2304392,40.5297321 12.7781938,41.0774866 12.7781938,41.7531762 L12.7781938,44.1698558 C12.7781938,44.8455453 12.2304392,45.3932999 11.5547497,45.3932999 C10.8790602,45.3932999 10.3313056,44.8455453 10.3313056,44.1698558 L10.3313056,41.7531762 C10.3313056,41.0774866 10.8790602,40.5297321 11.5547497,40.5297321 Z M16.992279,40.5297321 C17.6679685,40.5297321 18.2157231,41.0774866 18.2157231,41.7531762 L18.2157231,44.1698558 C18.2157231,44.8455453 17.6679685,45.3932999 16.992279,45.3932999 C16.3165895,45.3932999 15.7688349,44.8455453 15.7688349,44.1698558 L15.7688349,41.7531762 C15.7688349,41.0774866 16.3165895,40.5297321 16.992279,40.5297321 Z M22.4298082,40.5297321 C23.1054978,40.5297321 23.6532523,41.0774866 23.6532523,41.7531762 L23.6532523,44.1698558 C23.6532523,44.8455453 23.1054978,45.3932999 22.4298082,45.3932999 C21.7541187,45.3932999 21.2063642,44.8455453 21.2063642,44.1698558 L21.2063642,41.7531762 C21.2063642,41.0774866 21.7541187,40.5297321 22.4298082,40.5297321 Z M6.11722043,48.6356785 C6.79290994,48.6356785 7.34066452,49.1834331 7.34066452,49.8591226 L7.34066452,52.2758022 C7.34066452,52.9514918 6.79290994,53.4992463 6.11722043,53.4992463 C5.44153092,53.4992463 4.89377634,52.9514918 4.89377634,52.2758022 L4.89377634,49.8591226 C4.89377634,49.1834331 5.44153092,48.6356785 6.11722043,48.6356785 Z M11.5547497,48.6356785 C12.2304392,48.6356785 12.7781938,49.1834331 12.7781938,49.8591226 L12.7781938,52.2758022 C12.7781938,52.9514918 12.2304392,53.4992463 11.5547497,53.4992463 C10.8790602,53.4992463 10.3313056,52.9514918 10.3313056,52.2758022 L10.3313056,49.8591226 C10.3313056,49.1834331 10.8790602,48.6356785 11.5547497,48.6356785 Z M16.992279,48.6356785 C17.6679685,48.6356785 18.2157231,49.1834331 18.2157231,49.8591226 L18.2157231,52.2758022 C18.2157231,52.9514918 17.6679685,53.4992463 16.992279,53.4992463 C16.3165895,53.4992463 15.7688349,52.9514918 15.7688349,52.2758022 L15.7688349,49.8591226 C15.7688349,49.1834331 16.3165895,48.6356785 16.992279,48.6356785 Z M22.4298082,48.6356785 C23.1054978,48.6356785 23.6532523,49.1834331 23.6532523,49.8591226 L23.6532523,52.2758022 C23.6532523,52.9514918 23.1054978,53.4992463 22.4298082,53.4992463 C21.7541187,53.4992463 21.2063642,52.9514918 21.2063642,52.2758022 L21.2063642,49.8591226 C21.2063642,49.1834331 21.7541187,48.6356785 22.4298082,48.6356785 Z M6.11722043,56.7416249 C6.79290994,56.7416249 7.34066452,57.2893795 7.34066452,57.965069 L7.34066452,60.3817487 C7.34066452,61.0574382 6.79290994,61.6051927 6.11722043,61.6051927 C5.44153092,61.6051927 4.89377634,61.0574382 4.89377634,60.3817487 L4.89377634,57.965069 C4.89377634,57.2893795 5.44153092,56.7416249 6.11722043,56.7416249 Z M11.5547497,56.7416249 C12.2304392,56.7416249 12.7781938,57.2893795 12.7781938,57.965069 L12.7781938,60.3817487 C12.7781938,61.0574382 12.2304392,61.6051927 11.5547497,61.6051927 C10.8790602,61.6051927 10.3313056,61.0574382 10.3313056,60.3817487 L10.3313056,57.965069 C10.3313056,57.2893795 10.8790602,56.7416249 11.5547497,56.7416249 Z M16.992279,56.7416249 C17.6679685,56.7416249 18.2157231,57.2893795 18.2157231,57.965069 L18.2157231,60.3817487 C18.2157231,61.0574382 17.6679685,61.6051927 16.992279,61.6051927 C16.3165895,61.6051927 15.7688349,61.0574382 15.7688349,60.3817487 L15.7688349,57.965069 C15.7688349,57.2893795 16.3165895,56.7416249 16.992279,56.7416249 Z M22.4298082,56.7416249 C23.1054978,56.7416249 23.6532523,57.2893795 23.6532523,57.965069 L23.6532523,60.3817487 C23.6532523,61.0574382 23.1054978,61.6051927 22.4298082,61.6051927 C21.7541187,61.6051927 21.2063642,61.0574382 21.2063642,60.3817487 L21.2063642,57.965069 C21.2063642,57.2893795 21.7541187,56.7416249 22.4298082,56.7416249 Z M6.11722043,64.8475713 C6.79290994,64.8475713 7.34066452,65.3953259 7.34066452,66.0710154 L7.34066452,68.4876951 C7.34066452,69.1633846 6.79290994,69.7111392 6.11722043,69.7111392 C5.44153092,69.7111392 4.89377634,69.1633846 4.89377634,68.4876951 L4.89377634,66.0710154 C4.89377634,65.3953259 5.44153092,64.8475713 6.11722043,64.8475713 Z M11.5547497,64.8475713 C12.2304392,64.8475713 12.7781938,65.3953259 12.7781938,66.0710154 L12.7781938,68.4876951 C12.7781938,69.1633846 12.2304392,69.7111392 11.5547497,69.7111392 C10.8790602,69.7111392 10.3313056,69.1633846 10.3313056,68.4876951 L10.3313056,66.0710154 C10.3313056,65.3953259 10.8790602,64.8475713 11.5547497,64.8475713 Z M16.992279,64.8475713 C17.6679685,64.8475713 18.2157231,65.3953259 18.2157231,66.0710154 L18.2157231,68.4876951 C18.2157231,69.1633846 17.6679685,69.7111392 16.992279,69.7111392 C16.3165895,69.7111392 15.7688349,69.1633846 15.7688349,68.4876951 L15.7688349,66.0710154 C15.7688349,65.3953259 16.3165895,64.8475713 16.992279,64.8475713 Z M22.4298082,64.8475713 C23.1054978,64.8475713 23.6532523,65.3953259 23.6532523,66.0710154 L23.6532523,68.4876951 C23.6532523,69.1633846 23.1054978,69.7111392 22.4298082,69.7111392 C21.7541187,69.7111392 21.2063642,69.1633846 21.2063642,68.4876951 L21.2063642,66.0710154 C21.2063642,65.3953259 21.7541187,64.8475713 22.4298082,64.8475713 Z" id="Combined-Shape" fill="#FFFFFF"></path>
            </g>
            <rect id="Rectangle-10" fill="#E2E7ED" x="50.1255605" y="140.53139" width="39.2286996" height="2.16591928" rx="1.08295964"></rect>
            <rect id="Rectangle-10" fill="#E2E7ED" x="139.479821" y="140.53139" width="39.2286996" height="2.16591928" rx="1.08295964"></rect>
            <rect id="Rectangle-10" fill="#E2E7ED" x="68.6502242" y="148.112108" width="82.8161435" height="2.16591928" rx="1.08295964"></rect>
            <rect id="Rectangle-10" fill="#E2E7ED" x="200.502242" y="124.286996" width="39.2286996" height="2.16591928" rx="1.08295964"></rect>
            <g id="wehicle" transform="translate(45.766816, 61.920999)">
                <mask id="mask-4" fill="white">
                    <use xlink:href="#path-3"></use>
                </mask>
                <use id="Rectangle-2" fill="#FFFFFF" xlink:href="#path-3"></use>
                <path d="M77.7331839,41.5790013 L77.7331839,12.0790013 C77.7331839,9.78915292 77.7427179,4.8343861 77.7427179,-2.70287211 C77.7427179,-4.08082541 78.6396109,-5.2909967 80.0150572,-5.4114647 C81.3905036,-5.53193271 82.7220022,-4.51706143 82.7236498,-3.13912534 C82.7331839,4.8343861 82.7331839,9.59221582 82.7331839,12.0790013 L82.7331839,54.5790013 L-1.76681614,54.5790013 C-3.14752802,54.5790013 -4.26681614,53.4597131 -4.26681614,52.0790013 C-4.26681614,50.6982894 -3.14752802,49.5790013 -1.76681614,49.5790013 L69.7331839,49.5790013 C74.1514619,49.5790013 77.7331839,45.9972793 77.7331839,41.5790013 Z" id="Path-3" fill="#F3F6F8" fill-rule="nonzero" opacity="0.499441964" mask="url(#mask-4)"></path>
                <path d="M100.03264,12.8424547 L110.636311,12.8424548 C113.485885,12.8424548 116.12035,14.3582125 117.552514,16.8217418 L123.409387,26.8964037 L123.409387,26.8964037 C124.258366,29.3954515 122.92072,32.1095631 120.421673,32.9585416 C119.94708,33.1197705 119.450078,33.2053328 118.948893,33.2120906 L100.086571,33.4664259 C97.8776324,33.4962107 96.0627888,31.7296579 96.033004,29.5207196 C96.0327616,29.5027439 96.0326404,29.4847668 96.0326404,29.4667895 L96.0326404,16.8424547 C96.0326404,14.6333157 97.8235014,12.8424547 100.03264,12.8424547 Z" id="Rectangle-5" fill="#F3F6F8"></path>
                <g id="driver" transform="translate(102.095205, 16.327699)" fill-rule="nonzero">
                    <path d="M13.7116271,12.9467401 L12.3829279,11.6262677 C10.3064998,9.56269593 7.49796408,8.4044681 4.57052798,8.4044681 L4.57052798,8.4044681 C2.04629508,8.4044681 -1.19730779e-15,10.4507632 -8.8817842e-16,12.9749961 L0,22.788458 L7.61756102,22.788458 L7.61756102,13.7038283 L11.4263415,17.4890978 L28.4936981,17.4890978 L28.4936981,12.9467401 L13.7116271,12.9467401 Z" id="Shape" fill="#FFFFFF"></path>
                    <path d="M1.03551058,5.03839287 C1.75001289,6.99989281 3.92941749,8.01434641 5.90232403,7.30425462 C7.40985486,6.76148035 8.41309203,5.33743756 8.40929516,3.7438475 L8.4093059,2.22975684 L8.14800132,2.22975684 C5.50399763,2.23275844 2.96052476,3.23743542 1.03551058,5.03839287 Z" id="Shape" fill="#F5D2D2"></path>
                    <path d="M4.58541345,0 C2.48220516,0 0.776632938,1.695044 0.776632938,3.78526952 C0.78042981,4.22736169 0.862752901,4.66568043 1.02040939,5.07981489 C2.94533727,3.27877168 5.48889643,2.27418046 8.13290012,2.27117886 L8.39419396,2.27117886 L8.39419396,1 C8.39419396,0.44771525 7.94647871,3.89074334e-16 7.39419396,0 L4.58541345,0 Z" id="Shape" fill="#504972"></path>
                    <path d="M7.63361144,2.25325505 L7.63361144,2.98684505 C7.63361144,5.07707057 5.92803921,6.77211457 3.82483092,6.77211457 C3.00444767,6.77211457 2.20606901,6.50411495 1.55326588,6.00979501 C2.80631997,7.68056896 5.18531925,8.02583824 6.86724731,6.78043328 C7.83165283,6.06579621 8.398336,4.93925445 8.39531576,3.74393326 L8.39532777,2.22975684 L8.13402192,2.22975684 C7.96652809,2.22975684 7.80041493,2.24570818 7.63361144,2.25325505 Z" id="Shape" fill="#EFC3C3"></path>
                    <path d="M7.04104864,0 L7.68003683,2.29459131 C7.84684032,2.28704444 8.01295348,2.2710931 8.18053361,2.2710931 L8.44182745,2.2710931 L8.44182745,1 C8.44182745,0.44771525 7.9941122,-1.01453063e-16 7.44182745,0 L7.04104864,0 Z" id="Shape" fill="#504972" style="mix-blend-mode: multiply;"></path>
                </g>
                <path d="M94.4293764,5.28680028 L114.894964,5.28680028 C118.171357,5.28680028 121.239929,6.89179187 123.108736,9.58294674 L136.353535,28.655975 C136.935021,29.4933376 137.246649,30.4884401 137.246649,31.5079018 L137.246649,54.9950536 L86.4293764,54.9950536 L86.4293764,13.2868003 C86.4293764,8.86852228 90.0110984,5.28680028 94.4293764,5.28680028 Z M100.03264,12.8424547 C97.8235014,12.8424547 96.0326404,14.6333157 96.0326404,16.8424547 L96.0326404,29.4667895 C96.0326404,29.4847668 96.0327616,29.5027439 96.033004,29.5207196 C96.0627888,31.7296579 97.8776324,33.4962107 100.086571,33.4664259 L118.948893,33.2120906 C119.450078,33.2053328 119.94708,33.1197705 120.421673,32.9585416 C122.92072,32.1095631 124.258366,29.3954515 123.409387,26.8964037 L117.552514,16.8217418 C116.12035,14.3582125 113.485885,12.8424548 110.636311,12.8424548 L100.03264,12.8424547 Z" id="Combined-Shape" fill="#F2E3FF"></path>
                <rect id="Rectangle-3" fill="#E6D3F7" x="0" y="54.9950536" width="139.647465" height="6.99758537" rx="3"></rect>
                <path d="M27.5265974,78.636996 C20.0586928,78.636996 14.0047601,72.6204332 14.0047601,65.1986268 C14.0047601,57.7768205 20.0586928,51.7602577 27.5265974,51.7602577 C34.9945019,51.7602577 41.0484347,57.7768205 41.0484347,65.1986268 C41.0484347,72.6204332 34.9945019,78.636996 27.5265974,78.636996 Z M116.522363,78.636996 C109.054459,78.636996 103.000526,72.6204332 103.000526,65.1986268 C103.000526,57.7768205 109.054459,51.7602577 116.522363,51.7602577 C123.990268,51.7602577 130.044201,57.7768205 130.044201,65.1986268 C130.044201,72.6204332 123.990268,78.636996 116.522363,78.636996 Z" id="Combined-Shape" fill="#948BEC"></path>
                <ellipse id="Oval-3" fill="#FFFFFF" cx="27.6553768" cy="65.3266113" rx="9.0145582" ry="8.95891278"></ellipse>
                <ellipse id="Oval-3" fill="#FFFFFF" cx="116.185868" cy="65.0842487" rx="9.0145582" ry="8.95891278"></ellipse>
                <path d="M27.761962,69.8899379 C25.0715493,69.8899379 22.8905389,67.7223905 22.8905389,65.0485853 C22.8905389,62.37478 25.0715493,60.2072326 27.761962,60.2072326 C30.4523748,60.2072326 32.6333852,62.37478 32.6333852,65.0485853 C32.6333852,67.7223905 30.4523748,69.8899379 27.761962,69.8899379 Z M116.530118,69.8899379 C113.839705,69.8899379 111.658695,67.7223905 111.658695,65.0485853 C111.658695,62.37478 113.839705,60.2072326 116.530118,60.2072326 C119.220531,60.2072326 121.401541,62.37478 121.401541,65.0485853 C121.401541,67.7223905 119.220531,69.8899379 116.530118,69.8899379 Z" id="Combined-Shape" fill="#E6D3F7"></path>
            </g>
        </g>
    </g>
</svg>