<?xml version="1.0" encoding="UTF-8"?>
<svg width="236px" height="186px" viewBox="0 0 236 186" version="1.1" xmlns="http://www.w3.org/2000/svg" xmlns:xlink="http://www.w3.org/1999/xlink">
    <!-- Generator: Sketch 51.3 (57544) - http://www.bohemiancoding.com/sketch -->
    <title>Group</title>
    <desc>Created with Sketch.</desc>
    <defs>
        <polygon id="path-1" points="2.21621636e-14 0 101.858167 0 101.858167 118.203847 1.42108547e-14 118.203847"></polygon>
        <filter x="-6.9%" y="-9.3%" width="121.6%" height="118.6%" filterUnits="objectBoundingBox" id="filter-2">
            <feOffset dx="4" dy="0" in="SourceAlpha" result="shadowOffsetOuter1"></feOffset>
            <feGaussianBlur stdDeviation="3" in="shadowOffsetOuter1" result="shadowBlurOuter1"></feGaussianBlur>
            <feColorMatrix values="0 0 0 0 0.556862745   0 0 0 0 0.596078431   0 0 0 0 0.639215686  0 0 0 0.1 0" type="matrix" in="shadowBlurOuter1"></feColorMatrix>
        </filter>
        <circle id="path-3" cx="12.484426" cy="6.57533505" r="1.84806232"></circle>
        <filter x="-405.8%" y="-405.8%" width="911.7%" height="911.7%" filterUnits="objectBoundingBox" id="filter-4">
            <feOffset dx="0" dy="0" in="SourceAlpha" result="shadowOffsetOuter1"></feOffset>
            <feGaussianBlur stdDeviation="5" in="shadowOffsetOuter1" result="shadowBlurOuter1"></feGaussianBlur>
            <feColorMatrix values="0 0 0 0 1   0 0 0 0 0.91372549   0 0 0 0 0.435294118  0 0 0 0.7 0" type="matrix" in="shadowBlurOuter1"></feColorMatrix>
        </filter>
        <rect id="path-5" x="5.51515152" y="0" width="6.3030303" height="6.3030303" rx="2"></rect>
        <rect id="path-7" x="18.9090909" y="6.3030303" width="6.3030303" height="6.3030303" rx="2"></rect>
        <rect id="path-9" x="0" y="12.6060606" width="6.3030303" height="6.3030303" rx="2"></rect>
        <linearGradient x1="48.8465281%" y1="-5.38570238%" x2="50%" y2="78.1796144%" id="linearGradient-11">
            <stop stop-color="#FFFFFF" offset="0%"></stop>
            <stop stop-color="#FFFFFF" stop-opacity="0.0240885417" offset="52.1243139%"></stop>
            <stop stop-color="#FFFFFF" offset="100%"></stop>
        </linearGradient>
        <polygon id="path-12" points="0.0901068754 0.0654744526 24.1803162 0.0654744526 24.1803162 18.4338956 0.0901068754 18.4338956"></polygon>
        <polygon id="path-14" points="0 0.109812409 45.9600438 0.109812409 45.9600438 21.6569343 0 21.6569343"></polygon>
    </defs>
    <g id="Timeline-content-request" stroke="none" stroke-width="1" fill="none" fill-rule="evenodd">
        <g id="Group">
            <path d="M101.200025,186 C144.523242,186 179.643649,180.627417 179.643649,174 C179.643649,167.372583 144.523242,162 101.200025,162 C57.8768086,162 23.7564022,167.372583 23.7564022,174 C23.7564022,180.627417 57.8768086,186 101.200025,186 Z" id="Oval-2" fill="#E9EEF3"></path>
            <ellipse id="Oval-2" fill="#E9EEF3" cx="132.873272" cy="140.364845" rx="69.8732722" ry="8.63515459"></ellipse>
            <g id="Group-7" transform="translate(43.290075, 0.000000)" fill-rule="nonzero">
                <g id="dress-2">
                    <path d="M18.2373018,22.2760416 L2.05200215,23.3772128 L3.672284,17.8976952 C3.80134795,17.4609711 4.00761797,16.7522039 4.13203589,16.3178137 L4.15840893,16.2258285 C4.28555981,15.7819652 4.54771883,15.0808863 4.74278372,14.6629711 L5.9709068,12.0321234 C6.14656769,11.6558075 14.5138942,11.6335948 14.5277803,11.6898234 C14.5591734,11.8169422 14.5982952,11.9342408 14.6440179,12.0321921 L15.8720727,14.6630397 C16.0672059,15.0809549 16.3292283,15.7821024 16.4652613,16.2576114 C16.5905674,16.6957085 16.7967691,17.404407 16.9248082,17.8374243 L18.2373018,22.2760416 Z M20.5746739,31.60116 C20.6529048,31.8658579 20.6158732,32.128016 20.4729395,32.3203613 C20.3335586,32.5080388 20.1134872,32.6113506 19.8530362,32.6113506 C19.4480802,32.6113506 18.7953131,32.7842692 18.4273886,32.9889707 L17.6732288,33.4087394 C17.4575301,33.5287321 17.1734391,33.594838 16.8732236,33.594838 C16.5730081,33.594838 16.2889171,33.5288008 16.0732867,33.4087394 L15.3190586,32.9889707 C15.1556277,32.8980152 14.9243511,32.8458444 14.6846024,32.8458444 C14.4448536,32.8458444 14.2136453,32.8980152 14.0501461,32.9889707 L13.295918,33.4087394 C13.0802876,33.5287321 12.7961966,33.594838 12.4959811,33.594838 C12.1957657,33.594838 11.9116747,33.5288008 11.6960443,33.4087394 L10.9417478,32.9889707 C10.7783852,32.8980152 10.5471086,32.8458444 10.3073599,32.8458444 C10.0676111,32.8458444 9.83640286,32.8980152 9.67290364,32.9889707 L8.91874383,33.4087394 C8.7030451,33.5287321 8.4189541,33.594838 8.11873864,33.594838 C7.81852319,33.594838 7.53443218,33.5288008 7.31880178,33.4087394 L6.56457365,32.9889707 C6.40114275,32.8980152 6.16986616,32.8458444 5.9301174,32.8458444 C5.69036865,32.8458444 5.45916038,32.8980152 5.29566116,32.9889707 L4.54143302,33.4087394 C4.32580262,33.5287321 4.04171162,33.594838 3.74149616,33.594838 C3.4412807,33.594838 3.1571897,33.5288008 2.9415593,33.4087394 L2.18726284,32.9889707 C1.81940667,32.7843378 1.16663961,32.6113506 0.761683526,32.6113506 C0.501300934,32.6113506 0.281161152,32.5079701 0.141780285,32.3203613 C-0.00101678057,32.128016 -0.038048364,31.8658579 0.0402508881,31.60116 L2.21379709,24.2505965 L18.1129421,23.2760261 L20.5746739,31.60116 Z" id="Combined-Shape" fill="#6BEBB6"></path>
                    <path d="M14.3443219,10.8907154 C14.2663021,10.5413837 14.245427,10.1315295 14.3036342,9.84647509 L15.072757,6.0782363 L15.1635595,9.01201758 C15.1781125,9.48073063 15.3166052,10.2216927 15.4724521,10.6638398 L17.4805615,16.3610923 C17.6551292,16.8560967 18.2138825,17.240856 18.7407968,17.2220471 L19.533218,17.1932159 C19.8037809,17.1833995 20.0331444,17.0653289 20.1626183,16.8693453 C20.2920922,16.6733617 20.3112229,16.4151165 20.2151594,16.1608527 L18.0915826,10.5393165 C17.9387419,10.1346499 17.7845347,9.42807935 17.7548138,8.99643499 L17.3348948,2.89499644 C17.2999813,2.38777313 16.9455166,1.76543092 16.5277839,1.47814854 L14.599067,0.151913004 C14.4527171,0.0512783615 14.3099884,0.000274582926 14.1747069,0.000274582926 C14.0447548,0.000274582926 13.9298339,0.0479833664 13.8425159,0.138321149 C13.7290298,0.255636704 13.6724575,0.434802064 13.6787433,0.656596422 C13.6792216,0.672659524 13.712632,2.27498819 12.6856547,3.33673172 C12.0798262,3.96305537 11.2226338,4.28061053 10.1377861,4.28061053 C8.95298036,4.28061053 8.04119719,3.94390322 7.4277164,3.27989305 C6.45328016,2.22508274 6.55590274,0.678013891 6.55706424,0.662705892 C6.57435021,0.43727331 6.52570355,0.255430767 6.41645355,0.136948234 C6.33384988,0.0473655548 6.22316508,0 6.09642414,0 C5.96435394,0 5.82306,0.05114107 5.67650512,0.151913004 L3.74785652,1.47814854 C3.33019219,1.76536228 2.97565919,2.38770448 2.94074565,2.89499644 L2.52082662,8.99636635 C2.49103738,9.42828529 2.33683021,10.1347872 2.18405785,10.5392478 L0.0604126889,16.1607841 C-0.0356507914,16.4150479 -0.0164517601,16.6732931 0.113022134,16.8692767 C0.242564352,17.0651916 0.471927868,17.1832622 0.742354081,17.1930786 L1.53484363,17.2219098 C2.06052814,17.2406501 2.62064792,16.8559594 2.79501065,16.360955 L4.80312,10.6637712 C4.95896694,10.221624 5.09752792,9.48066199 5.1120126,9.01194893 L5.20281514,6.07809901 L5.97200622,9.84640644 C6.02707715,10.1161018 6.0113583,10.4975106 5.94342879,10.8336815 C5.90879319,11.0050868 14.3777551,11.0404116 14.3443219,10.8907154 Z" id="Shape" fill="#948BEC"></path>
                </g>
            </g>
            <g id="handbag" transform="translate(103.161686, 37.021804)" fill-rule="nonzero">
                <polygon id="Rectangle-path" fill="#FFFFFF" points="0.632481725 0.118154437 87.1658767 0.118154437 87.1658767 102.215998 0.632481725 102.215998"></polygon>
                <polygon id="Rectangle-path" fill="#F3F6F8" points="7.02900427 6.23703688 80.6491057 6.23703688 80.6491057 79.8619464 7.02900427 79.8619464"></polygon>
                <path d="M68.6488423,14.4253146 C69.0279522,13.523773 69.894006,12.8938437 70.9013337,12.8938437 C72.2582766,12.8938437 73.235546,14.0585155 73.3584092,15.4465465 C73.3584092,15.4465465 73.4247252,15.7911039 73.2787548,16.4114202 C73.0799945,17.2562267 72.6127763,18.0067888 71.9828677,18.5796061 L68.6488423,21.5641365 L65.3709882,18.5794176 C64.7410797,18.0067888 64.2738615,17.2560382 64.0751012,16.4112318 C63.9291307,15.7909154 63.9954468,15.446358 63.9954468,15.446358 C64.11831,14.058327 65.0955794,12.8936552 66.4525223,12.8936552 C67.4600378,12.8936552 68.2697324,13.523773 68.6488423,14.4253146 Z" id="Combined-Shape" fill="#F55D4A"></path>
                <g id="hand-bag" transform="translate(17.603696, 17.635766)">
                    <path d="M52.6343814,40.7840822 C52.6544697,40.9002286 52.6718234,41.0344867 52.6868633,41.1851717 C53.2219893,46.565815 48.9563368,51.2184109 43.5555398,51.2184109 L26.0663433,51.2184109 L9.0625254,51.2184109 C3.73776931,51.2184109 -0.471615081,46.638367 0.0425812635,41.3320658 C0.0557280303,41.1972812 0.0707679316,41.0781864 0.0883320121,40.9765715 L3.30255874,18.6905698 C3.58074433,17.0754712 4.97987584,15.8953689 6.61691125,15.8953689 L26.0663433,15.8953689 L45.5156701,15.8953689 C47.1527055,15.8953689 48.5519422,17.0754712 48.8300226,18.6905698 L52.6343814,40.7840822 Z M29.7778627,24.149405 C30.2897437,24.149405 30.7051941,23.6679861 30.7051941,23.0723736 C30.7051941,22.4767611 30.2897437,21.9953422 29.7778627,21.9953422 L24.2140845,21.9953422 C23.7022035,21.9953422 23.2867531,22.4767611 23.2867531,23.0723736 C23.2867531,23.6679861 23.7022035,24.149405 24.2140845,24.149405 L29.7778627,24.149405 Z" id="Combined-Shape" fill="#948BEC"></path>
                    <g id="Group" transform="translate(14.886139, 15.895369)" fill="#FFFFFF">
                        <path d="M3.72754344,3.79396231 L3.72754344,10.2507723 L1.91275207,10.2507723 L1.91275207,3.79396231 L1.17552841,3.79396231 C0.580260395,3.79396231 0.0984746604,3.30421317 0.0984746604,2.69910602 L0.0984746604,0.104281979 L5.54202643,0.104281979 L5.54202643,2.69900153 C5.54192363,3.30410868 5.0601379,3.79396231 4.46486989,3.79396231 L3.72754344,3.79396231 Z" id="Combined-Shape"></path>
                    </g>
                    <path d="M21.1938252,28.8892022 C21.1938252,30.909591 19.5557561,32.5476601 17.5353673,32.5476601 C15.5149784,32.5476601 13.8769094,30.909591 13.8769094,28.8892022 C13.8769094,26.8688134 15.5149784,25.2307443 17.5353673,25.2307443 C19.5557561,25.2307443 21.1938252,26.8687098 21.1938252,28.8892022" id="Shape" fill="#FFFFFF"></path>
                    <path d="M40.8738057,15.8953689 C39.9347312,10.0168925 35.8391823,0 26.1138203,0 C16.3884584,0 12.2938574,10.0168925 11.3538349,15.8953689 L15.151947,15.8953689 C15.4262124,14.5750711 16.0091843,12.323627 17.1248883,10.1066071 C19.2503397,5.88218364 22.2748423,3.74004941 26.1138203,3.74004941 C29.9527984,3.74004941 32.977301,5.88218364 35.1027523,10.1066071 C36.2184563,12.3235211 36.8023762,14.5750711 37.0766415,15.8953689 L40.8738057,15.8953689 Z" id="Shape" fill="#6BEBB6"></path>
                </g>
            </g>
            <g id="girl/frame" transform="translate(53.000000, 54.000000)">
                <g id="Combined-Shape">
                    <use fill="black" fill-opacity="1" filter="url(#filter-2)" xlink:href="#path-1"></use>
                    <use fill="#FFFFFF" fill-rule="evenodd" xlink:href="#path-1"></use>
                </g>
                <path d="M10.0666496,9.52034478 L91.7263235,9.52034478 L91.7263235,89.2532323 L10.0666496,89.2532323 L10.0666496,9.52034478 Z" id="Rectangle-14" fill="#F3F6F8"></path>
                <g id="girl-2" transform="translate(18.433735, 24.990905)" fill-rule="nonzero">
                    <path d="M45.7405784,3.50784962 C42.9626912,0.734873095 27.2387166,-2.15025782 18.5795361,2.31948271 C10.4687559,6.50612003 8.35990695,16.5248656 13.6507049,31.9119806 C14.3402788,33.9174538 10.2444483,47.1766258 11.5482017,57.6295402 C11.7625501,59.3480903 12.4633845,60.7871722 13.6507049,61.9467858 C32.897224,62.2336022 45.1348124,61.7847124 50.3634702,60.6001166 C55.1796363,59.5089742 53.6386723,40.4782185 45.7405784,3.50784962 Z" id="Shape" fill="#504972"></path>
                    <path d="M40.8692382,41.9363486 L40.8020706,41.9363486 L40.8020706,39.1604824 L23.5178562,39.1604824 L23.5178562,41.9334589 C23.5178562,44.6500874 23.5060362,47.6029444 21.0486023,49.3891068 L21.0486023,61.5534328 L32.1599634,61.5534328 C32.1599634,61.5534328 37.9782168,61.5534328 43.2713245,61.5534328 L43.2713245,49.3477487 C40.8769306,47.5570712 40.8692382,44.6296793 40.8692382,41.9363486 Z" id="Shape" fill="#F5D2D2"></path>
                    <path d="M64.2380457,63.3764799 C64.3086929,63.4381948 64.353323,63.5289466 64.353323,63.6301224 C64.353323,63.7219015 64.316598,63.8051029 64.2570417,63.8658331 C64.258685,63.949516 64.2595113,64.0333912 64.2595135,64.1174518 L0.0607885617,64.1174518 C0.0607885617,64.0206254 0.0618821318,63.9240449 0.064058031,63.8277212 C0.0237632011,63.7722262 -1.1539187e-14,63.7039494 -1.15810139e-14,63.6301224 C-1.15912055e-14,63.5469022 0.0301948447,63.4707343 0.0802265674,63.4119768 C0.460959225,56.5200548 6.38701437,51.0446933 13.6414035,51.0446933 L14.052852,51.0446933 C18.890796,51.0446933 21.248229,49.7734297 22.404525,47.9650531 L24.8422589,58.175256 L39.4780432,58.175256 L41.9157771,47.9650531 C43.0718855,49.7734297 45.4293184,51.0446933 50.2674501,51.0446933 L50.6788986,51.0446933 C57.9208226,51.0446933 63.8387987,56.5014229 64.2380457,63.3764799 Z" id="Combined-Shape" fill="#D5DDE5"></path>
                    <path d="M43.2713245,2.31930211 L34.6292173,47.479412 L40.8022582,39.1604824 C53.8682342,29.9502776 59.4754162,2.31930211 43.2713245,2.31930211 Z" id="Shape" fill="#504972"></path>
                    <path d="M42.0367914,54.6099747 C42.4872646,54.7282696 42.8928969,54.7913 43.2713245,54.8220025 L43.2713245,49.3475681 C40.8769306,47.5568906 40.8692382,44.6294986 40.8692382,41.936168 L40.8020706,41.936168 L40.8020706,39.1603018 L27.2216433,39.1603018 L23.5178562,40.3486687 C25.9869225,43.0228555 33.548907,52.3816964 42.0367914,54.6099747 Z" id="Shape" fill="#EFC3C3"></path>
                    <path d="M49.4443654,23.7109901 C49.4443654,33.2280392 39.611628,45.1026782 32.160151,45.1026782 C24.7086741,45.1026782 14.8759367,33.2280392 14.8759367,23.7109901 C14.8759367,14.1939411 22.6144707,10.6382317 32.160151,10.6382317 C41.7058314,10.6382317 49.4443654,14.1939411 49.4443654,23.7109901 Z" id="Shape" fill="#F5D2D2"></path>
                    <path d="M33.230232,2.00287802 C32.5366045,2.00287802 30.2844258,2.75310236 28.4436957,3.41049682 L28.2919119,3.19124493 C28.2919119,3.19124493 28.0378757,3.38340639 27.5980967,3.71643809 C26.5742598,4.09064725 25.8228456,4.37961185 25.8228456,4.37961185 L26.1115913,4.84303882 C21.4256187,8.39694218 11.9690573,12.9616798 11.0076975,13.887089 C9.77316436,15.0754559 14.7114845,28.5937616 14.7114845,28.1482143 C14.7114845,15.8182755 27.241539,15.6385756 34.9746321,13.887089 C38.4726011,13.0947841 48.5530364,12.7540258 48.9644849,10.7733541 C49.3759334,8.79250174 34.4647652,2.00287802 33.230232,2.00287802 Z" id="Shape" fill="#504972"></path>
                    <path d="M42.0367914,11.8267792 C42.0367914,17.9669157 45.1233118,23.1910345 49.367254,24.2309458 C51.6927917,24.8007479 50.6790862,17.768975 50.6790862,17.768975 C50.6790862,17.768975 47.3867477,9.64798614 46.9752992,9.45004539 C46.5638506,9.25192404 43.2715121,2.31948271 43.2715121,2.31948271 L35.8639381,8.26167848 L42.0367914,11.8267792 Z" id="Shape" fill="#504972"></path>
                    <path d="M47.6055114,23.8195325 C49.6256054,23.3738046 50.9490699,24.3261235 50.9490699,26.1964469 C50.9490699,28.6723317 48.2325342,34.7382404 45.3765975,30.9500951 C42.5206608,27.1619499 47.6055114,23.8195325 47.6055114,23.8195325 Z" id="Shape" fill="#F5D2D2"></path>
                    <path d="M32.1599634,56.4111271 C29.1749307,59.2845325 24.4257282,59.1940407 21.5523228,56.2090079 C21.3224502,55.9702052 21.1086568,55.7164303 20.912348,55.4493517 L17.3448153,50.5957146 L20.2202644,47.8277949 C20.6846215,47.3808028 21.4311575,47.3620201 21.9191546,47.7848115 L32.1599634,56.4111271 Z M32.1599634,56.4111271 L42.4007723,47.7848115 C42.8887693,47.3620201 43.6353054,47.3808028 44.0996625,47.8277949 L46.9751115,50.5957146 L43.4075788,55.4493517 C43.21127,55.7164303 42.9974766,55.9702052 42.7676041,56.2090079 C39.8941987,59.1940407 35.1449962,59.2845325 32.1599634,56.4111271 Z" id="Combined-Shape" fill="#FFFFFF"></path>
                    <path d="M34.5289517,60.4442413 C34.3393113,60.8669844 33.9013711,61.1647754 33.3946842,61.1647754 L30.9254303,61.1647754 C30.4187173,61.1647754 29.980758,60.8669538 29.7911335,60.444176 L24.0041647,62.8315593 C23.189523,63.1676613 22.2833231,62.5924411 22.2833231,61.7392731 L22.2833231,55.8364488 C22.2833231,54.9832808 23.189523,54.4080607 24.0041647,54.7441626 L29.7912018,57.1315741 C29.9808633,56.7088772 30.4187782,56.4111271 30.9254303,56.4111271 L33.3946842,56.4111271 C33.9013102,56.4111271 34.3392061,56.7088465 34.5288833,57.1315088 L40.3157621,54.7441626 C41.1304039,54.4080607 42.0366038,54.9832808 42.0366038,55.8364488 L42.0366038,61.7392731 C42.0366038,62.5924411 41.1304039,63.1676613 40.3157621,62.8315593 L34.5289517,60.4442413 Z" id="Combined-Shape" fill="#948BEC"></path>
                </g>
            </g>
            <path d="M202.324604,11.7618428 C202.28594,11.8553704 202.302738,11.9565988 202.369453,12.0326099 C202.436326,12.1086211 202.534762,12.1385866 202.63212,12.1121722 L204.121419,11.7128844 C204.236493,11.6823204 204.358909,11.7098121 204.449444,11.7869005 L205.622569,12.7873345 C205.699697,12.8531709 205.801365,12.8684131 205.894054,12.8283526 C205.987063,12.7884119 206.045717,12.7041812 206.051064,12.6030724 L206.131584,11.0633784 C206.137769,10.9445536 206.201969,10.8365021 206.303317,10.7744164 L207.617332,9.96774091 C207.703558,9.91475258 207.749524,9.82302052 207.740227,9.72227087 C207.73097,9.62144142 207.668964,9.53968458 207.574479,9.5034147 L206.135016,8.95110712 C206.023892,8.90849302 205.941058,8.8139679 205.913127,8.69841504 L205.551984,7.19945977 C205.528243,7.10110417 205.455185,7.02904323 205.35663,7.00677856 C205.257915,6.98443408 205.160876,7.0180705 205.097155,7.09675498 L204.127045,8.29509723 C204.052231,8.3875076 203.937237,8.43854079 203.818133,8.42796707 L202.281032,8.30814481 C202.180442,8.30112226 202.088989,8.34756685 202.037358,8.43459061 C201.985646,8.52157446 201.987761,8.62419945 202.042824,8.70910846 L202.882737,10.0020556 C202.947576,10.1016881 202.959147,10.226857 202.91366,10.3369036 L202.324604,11.7618428 Z" id="Shape" fill="#F5C1FB"></path>
            <path d="M43.2900751,50.5801501 C41.4730168,50.5801501 40,49.1071334 40,47.2900751 C40,45.4730168 41.4730168,44 43.2900751,44 C45.1071334,44 46.5801501,45.4730168 46.5801501,47.2900751 C46.5801501,49.1071334 45.1071334,50.5801501 43.2900751,50.5801501 Z M43.2900751,48.5801501 C44.0025639,48.5801501 44.5801501,48.0025639 44.5801501,47.2900751 C44.5801501,46.5775863 44.0025639,46 43.2900751,46 C42.5775863,46 42,46.5775863 42,47.2900751 C42,48.0025639 42.5775863,48.5801501 43.2900751,48.5801501 Z" id="Oval-7" fill="#6BEBB6" fill-rule="nonzero"></path>
            <path d="M18.267957,147.772558 L20.4884452,147.772558 L19.3782011,146.218216 L18.267957,147.772558 Z M22.9065313,147.716948 C23.3238429,148.301185 23.1885238,149.1131 22.6042874,149.530411 C22.3838064,149.687898 22.1196276,149.772558 21.8486777,149.772558 L16.9077245,149.772558 C16.1897543,149.772558 15.6077245,149.190528 15.6077245,148.472558 C15.6077245,148.201608 15.6923846,147.937429 15.849871,147.716948 L18.3203476,144.258281 C18.7376593,143.674045 19.5495744,143.538726 20.1338108,143.956037 C20.2505449,144.039419 20.3526731,144.141547 20.4360546,144.258281 L22.9065313,147.716948 Z" id="Triangle-2" fill="#CACFD7" fill-rule="nonzero" transform="translate(19.378252, 146.743174) scale(1, -1) rotate(-10.000000) translate(-19.378252, -146.743174) "></path>
            <path d="M227.267957,104.772558 L229.488445,104.772558 L228.378201,103.218216 L227.267957,104.772558 Z M231.906531,104.716948 C232.323843,105.301185 232.188524,106.1131 231.604287,106.530411 C231.383806,106.687898 231.119628,106.772558 230.848678,106.772558 L225.907724,106.772558 C225.189754,106.772558 224.607724,106.190528 224.607724,105.472558 C224.607724,105.201608 224.692385,104.937429 224.849871,104.716948 L227.320348,101.258281 C227.737659,100.674045 228.549574,100.538726 229.133811,100.956037 C229.250545,101.039419 229.352673,101.141547 229.436055,101.258281 L231.906531,104.716948 Z" id="Triangle-2" fill="#E6D3F7" fill-rule="nonzero" transform="translate(228.378252, 103.743174) scale(1, -1) rotate(-10.000000) translate(-228.378252, -103.743174) "></path>
            <g id="image-placeholder" transform="translate(218.497153, 152.497153) rotate(40.000000) translate(-218.497153, -152.497153) translate(205.497153, 139.497153)" fill-rule="nonzero">
                <g>
                    <path d="M24.0251785,0 L1.94801133,0 C0.874130312,0 0,0.926509286 0,2.06473859 L0,23.1227614 C0,24.2609907 0.874130312,25.1875 1.94801133,25.1875 L24.0251785,25.1875 C25.0990595,25.1875 25.9731898,24.2609907 25.9731898,23.1227614 L25.9731898,2.06473859 C25.9731898,0.926431218 25.0990595,0 24.0251785,0 Z" id="Shape" fill="#FFFFFF"></path>
                    <path d="M12.5281633,14.243795 L18.6967922,9.25942594 L23.4918403,13.5850636 L23.4918403,4.36363636 C23.4918403,3.25906686 22.5964098,2.36363636 21.4918403,2.36363636 L4.36363636,2.36363636 C3.25906686,2.36363636 2.36363636,3.25906686 2.36363636,4.36363636 L2.36363636,15.9076812 L7.90789699,10.832831 L12.5281633,14.243795 Z" id="Shape" fill="#948BEC"></path>
                    <path d="M16.5754805,10.1108099 L14.6494749,12.0446344 C13.4802777,13.2185782 11.5807867,13.222426 10.4068429,12.0532288 C10.4054076,12.0517993 10.4039738,12.0503684 10.4025414,12.048936 L10.0292173,11.6756119 C8.85764446,10.504039 6.95814952,10.504039 5.78657664,11.6756119 L2.36363636,15.0985522 L2.36363636,18.617844 C2.36363636,19.7224135 3.25906686,20.617844 4.36363636,20.617844 L21.4918403,20.617844 C22.5964098,20.617844 23.4918403,19.7224135 23.4918403,18.617844 L23.4918403,12.7759346 L20.8224141,10.1065083 C19.6508412,8.93493547 17.7513462,8.93493547 16.5797734,10.1065083 C16.578341,10.1079407 16.57691,10.1093746 16.5754805,10.1108099 Z" id="Shape" fill="#6BEBB6"></path>
                    <g id="Oval">
                        <use fill="black" fill-opacity="1" filter="url(#filter-4)" xlink:href="#path-3"></use>
                        <use fill="#FFFFFF" xlink:href="#path-3"></use>
                    </g>
                </g>
            </g>
            <g id="color-slider" transform="translate(93.000000, 21.000000)">
                <rect id="Rectangle-4" fill="#D5DDE5" x="0.787878788" y="2.36363636" width="25.2121212" height="1.57575758" rx="0.787878788"></rect>
                <rect id="Rectangle-4" fill="#D5DDE5" x="0.787878788" y="8.66666667" width="25.2121212" height="1.57575758" rx="0.787878788"></rect>
                <rect id="Rectangle-4" fill="#D5DDE5" x="0.787878788" y="14.969697" width="25.2121212" height="1.57575758" rx="0.787878788"></rect>
                <mask id="mask-6" fill="white">
                    <use xlink:href="#path-5"></use>
                </mask>
                <use id="Rectangle-5" fill="#6BEBB6" xlink:href="#path-5"></use>
                <rect id="Rectangle-7" fill="#41DC9D" mask="url(#mask-6)" x="9.45454545" y="0" width="2.36363636" height="6.3030303"></rect>
                <mask id="mask-8" fill="white">
                    <use xlink:href="#path-7"></use>
                </mask>
                <use id="Rectangle-5" fill="#948BEC" xlink:href="#path-7"></use>
                <rect id="Rectangle-7" fill="#837ADD" mask="url(#mask-8)" x="22.8484848" y="6.3030303" width="2.36363636" height="6.3030303"></rect>
                <mask id="mask-10" fill="white">
                    <use xlink:href="#path-9"></use>
                </mask>
                <use id="Rectangle-5" fill="#F5C1FB" xlink:href="#path-9"></use>
                <rect id="Rectangle-7" fill="#EBACF3" mask="url(#mask-10)" x="3.93939394" y="12.6060606" width="2.36363636" height="6.3030303"></rect>
            </g>
            <g id="glasses" transform="translate(163.154118, 15.078674) rotate(20.000000) translate(-163.154118, -15.078674) translate(148.154118, 8.078674)">
                <path d="M29.1830323,5.48403088 L28.6914596,5.48403088 C27.9727274,2.64345379 25.3957932,0.669394427 22.4660546,0.715061817 C19.5363159,0.760729206 17.0221602,2.81414609 16.3923108,5.67574423 C15.5191105,5.15299454 14.4291366,5.15299454 13.5559363,5.67574423 C12.924665,2.81496905 10.410573,0.762728223 7.48133179,0.717074671 C4.55209059,0.671421118 1.97526501,2.64431768 1.25514895,5.48403088 L0.763576252,5.48403088 C0.341864733,5.48403088 0,5.82589561 0,6.24760713 L0,7.82063975 C0,8.24235127 0.341864733,8.58421601 0.763576252,8.58421601 L1.25514895,8.58421601 C2.02684946,11.6878463 4.99539513,13.7258428 8.16903509,13.3308082 C11.342675,12.9357735 13.7210237,10.2322294 13.7083239,7.03412344 C13.7083239,6.90467597 13.7083239,6.77686707 13.6952153,6.64905817 C14.4199856,5.98069299 15.5364544,5.98069299 16.2612247,6.64905817 C16.2530319,6.77686707 16.2481161,6.90467597 16.2481161,7.03412344 C16.2354163,10.2322294 18.613765,12.9357735 21.7874049,13.3308082 C24.9610449,13.7258428 27.9295905,11.6878463 28.7012911,8.58421601 L29.1928637,8.58421601 C29.6145753,8.58421601 29.95644,8.24235127 29.95644,7.82063975 L29.95644,6.24760713 C29.9564569,6.04337914 29.8746608,5.84765562 29.729329,5.7041713 C29.5839972,5.56068698 29.3872434,5.48140134 29.1830323,5.48403088 Z M7.37850614,12.1169851 C4.57312908,12.1169851 2.29892163,9.84277765 2.29892163,7.0374006 C2.29892163,4.23202354 4.57312908,1.95781609 7.37850614,1.95781609 C10.1838832,1.95781609 12.4580907,4.23202354 12.4580907,7.0374006 C12.4535798,9.84090706 10.1820126,12.1124742 7.37850614,12.1169851 Z M22.5582709,12.1169851 C19.7528939,12.1169851 17.4786864,9.84277765 17.4786864,7.0374006 C17.4786864,4.23202354 19.7528939,1.95781609 22.5582709,1.95781609 C25.363648,1.95781609 27.6378555,4.23202354 27.6378555,7.0374006 C27.6324457,9.84053381 25.3614042,12.1115754 22.5582709,12.1169851 Z" id="Shape" fill="#655DB0" fill-rule="nonzero"></path>
                <path d="M7.14285714,11.4473413 C9.90428089,11.4473413 12.4342958,9.65063813 12.4342958,6.88921438 C12.4342958,4.12779063 9.90428089,1.949597 7.14285714,1.949597 C4.38143339,1.949597 2.28912849,4.28480332 2.28912849,7.04622707 C2.28912849,9.80765082 4.38143339,11.4473413 7.14285714,11.4473413 Z" id="Oval-6" fill="url(#linearGradient-11)"></path>
                <path d="M22.1428571,11.4473413 C24.9042809,11.4473413 27.5481302,9.45989292 27.5481302,6.69846917 C27.5481302,3.93704542 24.9042809,1.949597 22.1428571,1.949597 C19.3814334,1.949597 17.3789328,4.62227273 17.5240743,7.03307429 C17.6692158,9.44387585 19.3814334,11.4473413 22.1428571,11.4473413 Z" id="Oval-6" fill="url(#linearGradient-11)"></path>
                <path d="M29.1830323,4.77321283 L28.6914596,4.77321283 C27.9727274,1.93263574 25.3957932,-0.0414236238 22.4660546,0.00424376559 C19.5363159,0.049911155 17.0221602,2.10332803 16.3923108,4.96492618 C15.5191105,4.44217649 14.4291366,4.44217649 13.5559363,4.96492618 C12.9274091,2.10167408 10.4124874,0.0464579676 7.48141721,0.000775909886 C4.55034706,-0.0449061478 1.97259938,1.9309384 1.25514895,4.77321283 L0.763576252,4.77321283 C0.341864733,4.77321283 9.31422419e-15,5.11507756 0,5.53678908 L0,7.1098217 C0.000903588934,7.53089318 0.342503808,7.87176035 0.763576252,7.87175938 L1.25514895,7.87175938 C2.02678467,10.9750736 4.99484486,13.0130106 8.16821606,12.6184269 C11.3415873,12.2238433 13.7201803,9.5210922 13.7083239,6.32330539 C13.7083239,6.19385792 13.7083239,6.06604902 13.6952153,5.93824012 C14.4199856,5.26987494 15.5364544,5.26987494 16.2612247,5.93824012 C16.2530319,6.06604902 16.2481161,6.19385792 16.2481161,6.32330539 C16.2362597,9.5210922 18.6148527,12.2238433 21.7882239,12.6184269 C24.9615951,13.0130106 27.9296553,10.9750736 28.7012911,7.87175938 L29.1928637,7.87175938 C29.6139362,7.87176035 29.9555364,7.53089318 29.95644,7.1098217 L29.95644,5.53678908 C29.9564569,5.33256109 29.8746608,5.13683757 29.729329,4.99335325 C29.5839972,4.84986892 29.3872434,4.77058328 29.1830323,4.77321283 Z M7.37850614,11.4061671 C4.57312908,11.4061671 2.29892163,9.1319596 2.29892163,6.32658254 C2.29892163,3.52120548 4.57312908,1.24699804 7.37850614,1.24699804 C10.1838832,1.24699804 12.4580907,3.52120548 12.4580907,6.32658254 C12.4535798,9.13008901 10.1820126,11.4016562 7.37850614,11.4061671 Z M22.5582709,11.4061671 C19.7528939,11.4061671 17.4786864,9.1319596 17.4786864,6.32658254 C17.4786864,3.52120548 19.7528939,1.24699804 22.5582709,1.24699804 C25.363648,1.24699804 27.6378555,3.52120548 27.6378555,6.32658254 C27.6324457,9.12971576 25.3614042,11.4007573 22.5582709,11.4061671 Z" id="Shape" fill="#948BEC" fill-rule="nonzero"></path>
            </g>
            <g id="hat" transform="translate(15.000000, 109.000000)">
                <g id="Group-3" transform="translate(12.423358, 0.102409)">
                    <mask id="mask-13" fill="white">
                        <use xlink:href="#path-12"></use>
                    </mask>
                    <g id="Clip-2"></g>
                    <path d="M23.6458803,17.7996328 C23.6777781,17.5185964 23.7024569,17.2295015 23.7220993,16.9348664 C23.7419095,16.6400635 23.757019,16.3393847 23.7731358,16.0333336 C24.0439314,13.031246 24.6729898,9.79445766 23.4679241,7.1061438 C23.2809022,6.78615839 23.0676905,6.48279343 22.8311431,6.19520949 C20.4466978,3.29519489 15.6930847,1.99225328 12.1358073,0.948859124 C11.8126321,0.854005109 11.4990263,0.761333577 11.1980117,0.669669343 C10.8494861,0.534523358 10.4939095,0.42069854 10.1343036,0.329537956 C9.77486569,0.238881022 9.41156642,0.170888321 9.04793139,0.129085401 C4.94923066,-0.46740365 1.91423796,3.22854526 0.531216058,7.03865474 C0.409836496,7.37794672 0.308938686,7.71438467 0.234566423,8.04444307 C0.0111138686,9.0341146 0.0250481752,9.96401971 0.431493431,10.7272168 C0.582084672,11.0097642 0.78639854,11.2696474 1.05249343,11.5009905 C1.39396788,11.6848226 1.73712117,11.8589175 2.08195328,12.0242825 C4.66567591,12.6973263 6.70444964,14.536319 9.11122336,15.4517861 C9.71291679,15.6806109 10.3376102,15.8516839 10.9995737,15.9326036 C12.6389533,16.6603774 14.2999898,16.9417496 15.9314788,17.1514358 C16.2576759,17.1934066 16.5828657,17.2325234 16.9062088,17.2716401 C18.3599095,17.5442825 19.5629606,17.3147861 20.6857635,17.9413263 C20.9140847,17.9895088 21.1427416,18.0363482 21.3719022,18.0815088 C21.6010628,18.1266693 21.8310628,18.1701511 22.0617343,18.2116182 C22.5234131,18.2943847 22.9886175,18.3692606 23.4588584,18.4338956 C24.0155591,18.0976255 23.6000482,18.329808 23.6458803,17.7996328" id="Fill-1" fill="#E6D3F7" mask="url(#mask-13)"></path>
                </g>
                <g id="Group-6" transform="translate(0.000000, 9.168102)">
                    <mask id="mask-15" fill="white">
                        <use xlink:href="#path-14"></use>
                    </mask>
                    <g id="Clip-5"></g>
                    <path d="M44.3365124,13.7622431 C42.9192423,12.6931628 41.6792569,11.5166372 40.2821328,10.4841555 C39.1610088,9.65581971 37.8427898,9.23644745 36.6506511,8.51052044 C35.4316511,7.76814088 34.2510964,7.12514818 33.0525781,6.48719197 L14.615308,0.109812409 C12.5518555,2.0799219 8.90375328,1.13071022 6.19982628,0.934622628 C4.0495781,0.778659124 0.550220438,1.14699489 0.0276,3.80744015 C-0.261159124,5.27742555 1.78835912,7.26868832 2.73387737,8.16871022 C5.03035182,10.354046 7.48547591,11.9398708 10.1764759,13.5755569 C15.0612058,16.5444036 20.1781182,18.8198927 25.7070161,20.3402431 C29.6438774,21.4229219 34.6838993,22.2986007 38.6135416,21.0297394 C40.7560672,20.3378927 43.1059285,19.5453161 44.8408336,18.0375569 C46.6455781,16.4690241 46.115235,15.1039657 44.3365124,13.7622431" id="Fill-4" fill="#E6D3F7" mask="url(#mask-15)"></path>
                </g>
                <path d="M13.0216934,6.97996277 C11.8124307,6.54699197 9.56027737,9.19451022 9.95245255,10.2085248 C10.203438,10.8578971 12.037562,11.5374883 12.6222993,11.834138 C14.0137153,12.5400869 15.5001533,13.1303642 16.9531825,13.7159409 C21.982292,15.7422912 27.2513066,17.7354007 32.6462336,18.3810796 C33.9787226,18.5405686 35.3995182,18.7363204 36.5867883,18.0662985 C38.0205109,17.2572693 37.8180438,14.1044226 36.0448613,13.7914883 C34.8606131,13.5826416 33.6223066,14.0898168 32.4296642,13.9914372 C30.1451095,13.8030723 27.815562,12.8229701 25.5665985,12.1826635 C21.8123942,11.113919 17.4732847,10.0149555 14.1379489,8.04182409 C13.7595401,7.81803577 13.4459343,7.4916708 13.1571752,7.16530584 C13.3094453,7.29491168 13.3680365,7.46313066 13.5511971,7.58501387 L13.0216934,6.97996277 Z" id="Fill-7" fill="#948BEC"></path>
                <path d="M38.9445737,25.5158139 C37.6456613,23.4709964 36.1797051,21.2005438 34.0126686,19.9802007 C31.1751066,18.3826241 27.2647708,18.9092737 24.1535591,17.9169161 C18.5803401,16.1392007 13.3531285,13.1141131 7.95417226,10.9826679 C5.64913577,10.072573 0.504354745,10.8891569 0.74090219,13.8559891 C0.884106569,15.6526752 2.90223066,16.5664635 4.12391679,17.5915584 C5.70201898,18.9156533 7.10132555,20.3366168 8.99958102,21.3984781 C12.5822088,23.4023321 16.7008876,24.9473613 20.5877197,26.2427482 C24.2328,27.4573832 28.0299825,28.6911569 31.8879387,28.9414708 C33.6255299,29.0542883 41.3614204,29.320719 38.9445737,25.5158139" id="Fill-9" fill="#F2E3FF"></path>
                <path d="M31.7300109,10.5625569 C31.4934635,8.89144745 31.459719,7.62275401 29.943062,6.63895839 C28.2481131,5.53932336 26.1677044,5.29807518 24.3621204,4.42525036 C22.7546387,3.64811898 19.8831642,3.51381241 19.3917701,1.44431606 C19.1347409,0.361637226 18.6733978,0.650564234 17.7371131,1.30228686 C15.8820036,2.59398029 12.3032372,5.52337445 15.2178577,7.70031606 C17.6034781,9.48206058 20.605062,10.1270679 23.3707701,11.0636883 C25.7960109,11.884973 28.1176679,13.2418051 30.7272445,13.1375496 C32.0996898,13.0828197 31.8861423,11.6648781 31.7300109,10.5625569" id="Fill-11" fill="#F2E3FF"></path>
                <path d="M17.5224912,1.99388175 C17.0525861,2.16646569 16.8073088,2.72484526 16.4910168,3.0763927 C16.139973,3.46672117 15.8124328,3.85402774 15.5549,4.30328321 C15.2888051,4.76748029 14.8566737,5.89800584 15.0918781,6.47602774 C15.1959657,6.7313781 15.6245715,6.86803504 15.8873088,6.80071387 C16.1968854,6.72130511 16.3360606,6.35531971 16.4297394,6.07210073 C16.6795496,5.31696204 16.8096591,4.56753139 17.2305423,3.87820292 C17.5093964,3.4213927 17.9981044,3.12961168 18.2594985,2.68002044 C18.5282796,2.21834161 18.1399657,1.87552409 17.6749292,1.95358978 C17.6213745,1.96248759 17.5708416,1.97625401 17.5224912,1.99388175" id="Fill-13" fill="#FFFFFF"></path>
            </g>
            <g id="lipstick" transform="translate(208.000000, 44.000000)" fill-rule="nonzero">
                <path d="M8.7308831,4.30692071 L2.59980587,0.105069625 C2.42558962,-0.0142328998 2.19252941,-0.0335876651 1.99788123,0.0554691489 C1.80316494,0.144401495 1.68016472,0.326249161 1.68016472,0.52521117 L1.68016472,11.7300644 C1.68016472,12.0201992 1.93753893,12.2553191 2.25498301,12.2553191 L8.38606023,12.2553191 C8.70350431,12.2553191 8.96087852,12.0201992 8.96087852,11.7300644 L8.96087852,4.72706226 C8.96081041,4.56176883 8.87567737,4.40605943 8.7308831,4.30692071 Z" id="Shape" fill="#E1C1FF"></path>
                <path d="M8.73684594,4.35436565 L6.16060398,2.55319149 L6.16060398,12.2553191 L8.40079707,12.2553191 C8.71010271,12.2553191 8.96087852,12.0216045 8.96087852,11.7332038 L8.96087852,4.77199605 C8.96087852,4.60769056 8.87792807,4.45291182 8.73684594,4.35436565 Z" id="Shape" fill="#D7B3FB"></path>
                <path d="M8.9364997,11.2340426 L1.14448863,11.2340426 C0.821734414,11.2340426 0.560054907,11.4753296 0.560054907,11.7730745 L0.560054907,20.3971383 C0.560054907,20.6948832 0.821734414,20.9361702 1.14448863,20.9361702 L8.9364997,20.9361702 C9.25925392,20.9361702 9.52093342,20.6948832 9.52093342,20.3971383 L9.52093342,11.7730745 C9.52093342,11.4753296 9.25925392,11.2340426 8.9364997,11.2340426 Z" id="Shape" fill="#E9EEF3"></path>
                <path d="M8.96085197,11.2340426 L6.72065889,11.2340426 L6.72065889,20.9361702 L8.96085197,20.9361702 C9.27015762,20.9361702 9.52093342,20.6948816 9.52093342,20.3971347 L9.52093342,11.773078 C9.52093342,11.4753312 9.27015762,11.2340426 8.96085197,11.2340426 Z" id="Shape" fill="#D9E1EA"></path>
                <path d="M10.0498469,19.9148936 L0.591196309,19.9148936 C0.264707447,19.9148936 0,20.1500139 0,20.4401491 L0,31.6449572 C0,31.9350925 0.264707447,32.1702128 0.591196309,32.1702128 L10.0498469,32.1702128 C10.3763358,32.1702128 10.6410432,31.9350925 10.6410432,31.6449572 L10.6410432,20.4400869 C10.6409732,20.1499517 10.3763358,19.9148936 10.0498469,19.9148936 Z" id="Shape" fill="#948BEC"></path>
                <path d="M10.0809618,19.9148936 L7.8407687,19.9148936 L7.8407687,32.1702128 L10.0809618,32.1702128 C10.3902674,32.1702128 10.6410432,31.9350925 10.6410432,31.6449572 L10.6410432,20.4400869 C10.6409769,20.1499517 10.3902674,19.9148936 10.0809618,19.9148936 Z" id="Shape" fill="#837ADD"></path>
                <path d="M18.6794434,12.7659574 C15.7456667,12.7659574 13.3589568,14.9025193 13.3589568,17.5288104 L13.3589568,31.640979 C13.3589568,31.9333117 13.6236642,32.1702128 13.9501531,32.1702128 L23.4088037,32.1702128 C23.7352926,32.1702128 24,31.9333117 24,31.640979 L24,17.5288104 C23.99993,14.902582 21.61322,12.7659574 18.6794434,12.7659574 Z" id="Shape" fill="#948BEC"></path>
                <path d="M18.621814,12.7659574 C17.7346073,12.7659574 16.8976733,12.9584016 16.1592313,13.2966996 C16.1965464,13.2959471 16.2337906,13.2951319 16.2713181,13.2951319 C18.9115546,13.2951319 21.0518965,15.1906036 21.0518965,17.5287785 L21.0518965,32.1702128 L23.4023923,32.1702128 C23.7324219,32.1702128 24,31.9333102 24,31.6409756 L24,17.5288412 C24,14.9025958 21.5874068,12.7659574 18.621814,12.7659574 Z" id="Shape" fill="#837ADD"></path>
            </g>
            <g id="link" transform="translate(0.000000, 63.000000)">
                <path d="M2,0 L30,-2.22044605e-16 C31.1045695,-4.2495073e-16 32,0.8954305 32,2 L32,12.8571429 C32,13.9617124 31.1045695,14.8571429 30,14.8571429 L2,14.8571429 C0.8954305,14.8571429 1.3527075e-16,13.9617124 0,12.8571429 L0,2 C-1.3527075e-16,0.8954305 0.8954305,2.02906125e-16 2,0 Z" id="Rectangle-3" fill="#FFFFFF"></path>
                <circle id="Oval-4" fill="#F55D4A" cx="8.57142857" cy="7.42857143" r="2.85714286"></circle>
                <circle id="Oval-4" fill="#FFCD6F" cx="16" cy="7.42857143" r="2.85714286"></circle>
                <circle id="Oval-4" fill="#6BEBB6" cx="23.4285714" cy="7.42857143" r="2.85714286"></circle>
            </g>
        </g>
    </g>
</svg>