<?xml version="1.0" encoding="UTF-8"?>
<svg width="232px" height="177px" viewBox="0 0 232 177" version="1.1" xmlns="http://www.w3.org/2000/svg" xmlns:xlink="http://www.w3.org/1999/xlink">
    <!-- Generator: Sketch 51.3 (57544) - http://www.bohemiancoding.com/sketch -->
    <title>map-illustration</title>
    <desc>Created with Sketch.</desc>
    <defs>
        <rect id="path-1" x="7" y="0" width="8" height="8" rx="2"></rect>
        <rect id="path-3" x="24" y="8" width="8" height="8" rx="2"></rect>
        <rect id="path-5" x="0" y="16" width="8" height="8" rx="2"></rect>
    </defs>
    <g id="Timeline-content-request" stroke="none" stroke-width="1" fill="none" fill-rule="evenodd">
        <g id="map-illustration" transform="translate(-1.000000, -2.000000)">
            <ellipse id="Oval-2" fill="#E9EEF3" cx="105.205761" cy="166.092593" rx="95.473251" ry="12"></ellipse>
            <g id="pics">
                <g id="cosmatic" transform="translate(211.735572, 90.481507) rotate(-30.000000) translate(-211.735572, -90.481507) translate(189.235572, 67.981507)" fill-rule="nonzero">
                    <rect id="Rectangle-path" fill="#FFFFFF" transform="translate(22.315789, 22.351984) rotate(-33.960000) translate(-22.315789, -22.351984) " x="6.58891057" y="6.47509507" width="31.4537568" height="31.7537786"></rect>
                    <rect id="Rectangle-path" fill="#E7F7F1" transform="translate(24.447109, 20.920816) rotate(-33.960000) translate(-24.447109, -20.920816) " x="13.1058434" y="6.85729382" width="22.682531" height="28.1270444"></rect>
                    <g id="lips" transform="translate(24.347655, 21.308691) rotate(57.000000) translate(-24.347655, -21.308691) translate(12.847655, 14.308691)">
                        <g id="Shape">
                            <path d="M22.4353399,6.52465255 L21.1465347,5.72245769 C19.1081614,4.38102593 17.8237382,3.10536653 16.9689605,2.06646131 C16.0353086,0.935536144 15.2988423,0.0412775198 13.8784925,0.0412775198 C12.9974234,0.0412775198 12.1688933,0.383197357 11.5375926,1.0144542 C11.3798003,1.17224651 11.1168424,1.17224651 10.9590501,1.0144542 C10.3277494,0.383241176 9.49926311,0.0412775198 8.6181502,0.0412775198 C7.19780038,0.0412775198 6.4614217,0.935536144 5.52772595,2.06646131 C4.67286063,3.10536653 3.47620693,4.38106975 1.43783361,5.72245769 L0,6.60352679 L7.91954351,9.53453743 L14.4538362,9.74004865 L22.4353399,6.52465255 Z" fill="#F5C1FB"></path>
                            <path d="M14.4538362,9.74000483 L22.4353399,6.52465255 L21.1465347,5.72245769 C19.1081614,4.38102593 17.8237382,3.10536653 16.9689605,2.06646131 C16.0353086,0.935536144 15.2988423,0.0412775198 13.8784925,0.0412775198 C12.9974234,0.0412775198 12.1688933,0.383197357 11.5375926,1.0144542 C11.4586746,1.09337227 11.3534651,1.13276557 11.2482994,1.13276557 L11.2482994,9.63922107 L14.4538362,9.74000483 Z" fill="#EBACF3"></path>
                            <path d="M22.4353399,6.52465255 L22.1985418,6.73502768 C22.1985418,6.73502768 19.5201479,8.65508963 18.6127435,9.45724067 C16.5086417,11.2983846 14.3256656,13.1921113 11.2482994,13.1921113 C8.17093325,13.1921113 5.98795715,11.2983846 3.8838553,9.45724067 C2.97645097,8.65504581 1.85420196,7.83974907 0.84154434,7.16901128 L0.223477018,6.74817338 L0,6.60352679 C6.86468817,5.70926816 8.30256559,4.99909326 9.70972588,6.39306402 C9.70972588,6.43254496 10.3409389,7.03755421 11.2483432,7.03755421 C12.1162666,7.03755421 12.7343778,6.48517161 12.7738149,6.40625355 C14.1809314,4.99909326 15.6626716,5.63039392 22.4353399,6.52465255 Z" fill="#FCDFFF"></path>
                            <path d="M18.6127874,9.45724067 C19.5201917,8.65504581 22.1985857,6.73502768 22.1985857,6.73502768 L22.4353837,6.52465255 C15.6626716,5.63039392 14.1809752,4.99909326 12.7738149,6.40625355 C12.7344216,6.48517161 12.1162666,7.03755421 11.2483432,7.03755421 L11.2483432,13.1921551 C14.3256656,13.1921113 16.5086417,11.2983846 18.6127874,9.45724067 Z" fill="#D5DDE5"></path>
                        </g>
                    </g>
                </g>
                <g id="dress" transform="translate(1.000000, 80.000000)" fill-rule="nonzero">
                    <rect id="Rectangle-path" fill="#FFFFFF" transform="translate(22.473517, 22.123175) rotate(-22.310000) translate(-22.473517, -22.123175) " x="5.40228004" y="5.21484383" width="34.1424748" height="33.8166632"></rect>
                    <rect id="Rectangle-path" fill="#F4F3FF" transform="translate(21.426667, 19.565714) rotate(-22.310000) translate(-21.426667, -19.565714) " x="6.30707303" y="7.37197315" width="30.2391874" height="24.387482"></rect>
                    <g id="Group-5" transform="translate(21.558260, 19.818016) rotate(-18.000000) translate(-21.558260, -19.818016) translate(15.558260, 10.318016)">
                        <path d="M9.76866729,12.0612281 L9.0656404,9.68371767 C8.99705727,9.45177538 8.88660696,9.07216658 8.81948771,8.83750334 C8.74662271,8.58280069 8.60627249,8.20723654 8.50175092,7.98338355 L7.84395304,6.57419069 C7.819462,6.52172387 7.79850672,6.4588938 7.78169127,6.39080358 C7.77425329,6.36068522 3.29236064,6.37258326 3.19826927,6.57415392 L2.5404348,7.98334678 C2.43594982,8.20719977 2.29552641,8.58272715 2.22741904,8.82047904 L2.21329253,8.86975023 C2.14664905,9.10242792 2.03616213,9.48207348 1.96703004,9.71600134 L1.09913882,12.6510618 L9.76866729,12.0612281 Z" id="Combined-Shape" fill="#F5C1FB"></path>
                        <path d="M7.68342321,5.83352603 C7.64163253,5.64640928 7.63045096,5.42687411 7.66162918,5.27418695 L8.07360374,3.25575947 L8.12224141,4.82721634 C8.13003661,5.0782788 8.20421911,5.47516928 8.2876973,5.71200193 L9.36332528,8.76369042 C9.4568311,9.02883562 9.75612291,9.23492893 10.0383604,9.22485407 L10.4628146,9.20941086 C10.6077395,9.20415282 10.7305963,9.1409092 10.7999479,9.03593214 C10.8692996,8.93095509 10.8795468,8.79262806 10.8280912,8.65643366 L9.69061394,5.64530198 C9.60874603,5.4285455 9.52614617,5.05007656 9.5102264,4.81886965 L9.28530007,1.55068207 C9.26659891,1.2789919 9.07673269,0.945639191 8.85297748,0.791758639 L7.81987543,0.0813710059 C7.74148425,0.0274668511 7.66503272,0.000147078185 7.59257029,0.000147078185 C7.52296244,0.000147078185 7.46140596,0.0257019128 7.41463476,0.0740906357 C7.35384683,0.13692979 7.32354435,0.232898306 7.32691129,0.35170071 C7.32716747,0.360304784 7.3450635,1.21857953 6.79497115,1.7872941 C6.47046388,2.12277944 6.01131554,2.29287537 5.43022538,2.29287537 C4.79559352,2.29287537 4.30720404,2.11252074 3.97859788,1.75684892 C3.45664877,1.19184807 3.51161774,0.363172808 3.5122399,0.3549732 C3.52149898,0.23422201 3.49544179,0.136819482 3.43692288,0.0733552448 C3.39267688,0.0253709869 3.33338943,0 3.26550165,0 C3.19475928,0 3.11907629,0.027393312 3.04057532,0.0813710059 L2.00750987,0.791758639 C1.78379126,0.945602421 1.59388844,1.27895513 1.57518728,1.55068207 L1.35026095,4.81883288 C1.33430458,5.05018687 1.25170472,5.42861904 1.16987341,5.64526521 L0.0323595817,8.65639689 C-0.019096066,8.79259129 -0.00881225593,8.93091832 0.0605394172,9.03589537 C0.129927688,9.14083566 0.252784451,9.20407928 0.397636125,9.20933732 L0.82212692,9.22478053 C1.10370569,9.23481862 1.40372945,9.02876208 1.49712547,8.76361688 L2.57275346,5.71196516 C2.65623164,5.47513252 2.73045074,5.07824203 2.73820935,4.82717957 L2.78684701,3.25568593 L3.19885817,5.27415018 C3.22835648,5.4186104 3.2199368,5.62290901 3.18355089,5.80297629 C3.16499861,5.89478819 7.70133143,5.91370964 7.68342321,5.83352603 Z" id="Shape" fill="#948BEC"></path>
                        <path d="M11.0206622,17.0561545 L9.70205498,12.5968619 L1.185803,13.1188829 L0.0215600716,17.0561545 C-0.020380307,17.1979378 -0.000544630514,17.3383607 0.0759434945,17.441389 C0.15060176,17.5418802 0.268517903,17.5972551 0.40798979,17.5972551 C0.62490133,17.5972551 0.974550873,17.6899144 1.17159014,17.7995244 L1.57562311,18.0243702 C1.69112383,18.0886801 1.84329495,18.1240524 2.00410299,18.1240524 C2.16491104,18.1240524 2.31708215,18.0886433 2.43258288,18.0243702 L2.83657925,17.7995244 C2.92415633,17.7508047 3.04800121,17.7228599 3.17642075,17.7228599 C3.30484029,17.7228599 3.42872177,17.7508047 3.51626225,17.7995244 L3.92025862,18.0243702 C4.03575934,18.0886801 4.18793046,18.1240524 4.34873851,18.1240524 C4.50954655,18.1240524 4.66171767,18.0886433 4.77725499,18.0243702 L5.18121476,17.7995244 C5.26879184,17.7508047 5.39263672,17.7228599 5.52105626,17.7228599 C5.6494758,17.7228599 5.77335728,17.7508047 5.86086116,17.7995244 L6.26489413,18.0243702 C6.38039486,18.0886801 6.53256597,18.1240524 6.69337402,18.1240524 C6.85418206,18.1240524 7.00635318,18.0886433 7.12185391,18.0243702 L7.52585027,17.7995244 C7.61342735,17.7508047 7.73727224,17.7228599 7.86569177,17.7228599 C7.99411131,17.7228599 8.11799279,17.7508047 8.20553327,17.7995244 L8.60952964,18.0243702 C8.72503037,18.0886801 8.87720148,18.1240524 9.03800953,18.1240524 C9.19881758,18.1240524 9.35098869,18.0886433 9.46652601,18.0243702 L9.87048579,17.7995244 C10.0675616,17.6898776 10.4172112,17.5972551 10.6341227,17.5972551 C10.7736312,17.5972551 10.8915108,17.5419169 10.966169,17.441389 C11.0427303,17.3383607 11.062566,17.1979378 11.0206622,17.0561545 Z" id="Shape-Copy" fill="#D5DDE5"></path>
                    </g>
                </g>
                <g id="handbag" transform="translate(42.000000, 0.000000)" fill-rule="nonzero">
                    <g transform="translate(23.549438, 23.501904) rotate(-10.000000) translate(-23.549438, -23.501904) translate(3.977421, 3.929888)">
                        <rect id="Rectangle-path" fill="#FFFFFF" transform="translate(19.385125, 19.585853) rotate(-13.410000) translate(-19.385125, -19.585853) " x="3.2637262" y="3.61781849" width="32.2427971" height="31.9360681"></rect>
                        <rect id="Rectangle-path" fill="#F4F3FF" transform="translate(18.776314, 17.046683) rotate(-13.410000) translate(-18.776314, -17.046683) " x="4.49807816" y="5.53179668" width="28.556472" height="23.0297727"></rect>
                        <path d="M27.4150048,5.79366385 C27.5335898,5.51166286 27.8044903,5.31462182 28.1195811,5.31462182 C28.544031,5.31462182 28.8497195,5.6789296 28.888151,6.11310382 C28.888151,6.11310382 28.9088945,6.22088091 28.8632352,6.41491504 C28.8010632,6.67916937 28.654918,6.91394418 28.4578834,7.09312065 L27.4150048,8.02667776 L26.3896964,7.09306169 C26.1926619,6.91394418 26.0465167,6.67911041 25.9843447,6.41485608 C25.9386853,6.22082195 25.9594289,6.11304486 25.9594289,6.11304486 C25.9978604,5.67887064 26.3035489,5.31456286 26.7279988,5.31456286 C27.0431483,5.31456286 27.2964197,5.51166286 27.4150048,5.79366385 Z" id="Combined-Shape" fill="#F55D4A" transform="translate(27.423790, 6.670620) rotate(-16.000000) translate(-27.423790, -6.670620) "></path>
                        <g id="hand-bag" transform="translate(19.385125, 16.733254) rotate(-15.000000) translate(-19.385125, -16.733254) translate(10.792532, 8.618027)">
                            <path d="M16.4639637,12.7572061 C16.4702473,12.7935365 16.4756755,12.8355323 16.48038,12.8826663 C16.6477667,14.5657243 15.3134763,16.02105 13.6241143,16.02105 L8.15351712,16.02105 L2.83474576,16.02105 C1.16916921,16.02105 -0.147520563,14.5884185 0.0133193619,12.9286146 C0.0174316529,12.8864542 0.0221361138,12.8492015 0.0276301346,12.8174164 L1.03303593,5.8463851 C1.12005201,5.34118444 1.55769847,4.97205001 2.06976094,4.97205001 L8.15351712,4.97205001 L14.2372404,4.97205001 C14.7493029,4.97205001 15.1869822,5.34118444 15.2739654,5.8463851 L16.4639637,12.7572061 Z M9.3144754,7.55390142 C9.4745911,7.55390142 9.6045434,7.40331423 9.6045434,7.21700744 C9.6045434,7.03070064 9.4745911,6.88011346 9.3144754,6.88011346 L7.57413307,6.88011346 C7.41401736,6.88011346 7.28406506,7.03070064 7.28406506,7.21700744 C7.28406506,7.40331423 7.41401736,7.55390142 7.57413307,7.55390142 L9.3144754,7.55390142 Z" id="Combined-Shape" fill="#948BEC"></path>
                            <g id="Group" transform="translate(4.656364, 4.972050)" fill="#FFFFFF">
                                <path d="M1.16597057,1.18674631 L1.16597057,3.20642778 L0.598306274,3.20642778 L0.598306274,1.18674631 L0.367703706,1.18674631 C0.181504671,1.18674631 0.0308027413,1.03355344 0.0308027413,0.844276732 L0.0308027413,0.0326192628 L1.73353841,0.0326192628 L1.73353841,0.844244047 C1.73350626,1.03352075 1.58280433,1.18674631 1.3966053,1.18674631 L1.16597057,1.18674631 Z" id="Combined-Shape"></path>
                            </g>
                            <path d="M6.62940001,9.03650359 C6.62940001,9.6684785 6.11701421,10.1808643 5.4850393,10.1808643 C4.85306439,10.1808643 4.34067858,9.6684785 4.34067858,9.03650359 C4.34067858,8.40452868 4.85306439,7.89214287 5.4850393,7.89214287 C6.11701421,7.89214287 6.62940001,8.40449628 6.62940001,9.03650359" id="Shape" fill="#FFFFFF"></path>
                            <path d="M12.7852715,4.97205001 C12.4915302,3.13327049 11.210448,0 8.16836788,0 C5.12628774,0 3.84550206,3.13327049 3.55146429,4.97205001 L4.73950865,4.97205001 C4.82529849,4.55906263 5.00765133,3.85481395 5.35664203,3.16133309 C6.02148037,1.83993913 6.9675407,1.16988243 8.16836788,1.16988243 C9.36919505,1.16988243 10.3152554,1.83993913 10.9800937,3.16133309 C11.3290844,3.85478082 11.5117338,4.55906263 11.5975236,4.97205001 L12.7852715,4.97205001 Z" id="Shape" fill="#6BEBB6"></path>
                        </g>
                    </g>
                </g>
                <path d="M165.324604,21.7618428 C165.28594,21.8553704 165.302738,21.9565988 165.369453,22.0326099 C165.436326,22.1086211 165.534762,22.1385866 165.63212,22.1121722 L167.121419,21.7128844 C167.236493,21.6823204 167.358909,21.7098121 167.449444,21.7869005 L168.622569,22.7873345 C168.699697,22.8531709 168.801365,22.8684131 168.894054,22.8283526 C168.987063,22.7884119 169.045717,22.7041812 169.051064,22.6030724 L169.131584,21.0633784 C169.137769,20.9445536 169.201969,20.8365021 169.303317,20.7744164 L170.617332,19.9677409 C170.703558,19.9147526 170.749524,19.8230205 170.740227,19.7222709 C170.73097,19.6214414 170.668964,19.5396846 170.574479,19.5034147 L169.135016,18.9511071 C169.023892,18.908493 168.941058,18.8139679 168.913127,18.698415 L168.551984,17.1994598 C168.528243,17.1011042 168.455185,17.0290432 168.35663,17.0067786 C168.257915,16.9844341 168.160876,17.0180705 168.097155,17.096755 L167.127045,18.2950972 C167.052231,18.3875076 166.937237,18.4385408 166.818133,18.4279671 L165.281032,18.3081448 C165.180442,18.3011223 165.088989,18.3475669 165.037358,18.4345906 C164.985646,18.5215745 164.987761,18.6241995 165.042824,18.7091085 L165.882737,20.0020556 C165.947576,20.1016881 165.959147,20.226857 165.91366,20.3369036 L165.324604,21.7618428 Z" id="Shape" fill="#F5C1FB"></path>
                <path d="M29.2900751,46.5801501 C27.4730168,46.5801501 26,45.1071334 26,43.2900751 C26,41.4730168 27.4730168,40 29.2900751,40 C31.1071334,40 32.5801501,41.4730168 32.5801501,43.2900751 C32.5801501,45.1071334 31.1071334,46.5801501 29.2900751,46.5801501 Z M29.2900751,44.5801501 C30.0025639,44.5801501 30.5801501,44.0025639 30.5801501,43.2900751 C30.5801501,42.5775863 30.0025639,42 29.2900751,42 C28.5775863,42 28,42.5775863 28,43.2900751 C28,44.0025639 28.5775863,44.5801501 29.2900751,44.5801501 Z" id="Oval-7" fill="#6BEBB6" fill-rule="nonzero"></path>
                <path d="M4.26795701,132.772558 L6.48844522,132.772558 L5.37820112,131.218216 L4.26795701,132.772558 Z M8.90653126,132.716948 C9.32384295,133.301185 9.18852376,134.1131 8.6042874,134.530411 C8.38380642,134.687898 8.11962761,134.772558 7.84867775,134.772558 L2.90772449,134.772558 C2.18975431,134.772558 1.60772449,134.190528 1.60772449,133.472558 C1.60772449,133.201608 1.69238456,132.937429 1.84987097,132.716948 L4.3203476,129.258281 C4.73765929,128.674045 5.54957441,128.538726 6.13381077,128.956037 C6.25054495,129.039419 6.35267307,129.141547 6.43605463,129.258281 L8.90653126,132.716948 Z" id="Triangle-2" fill="#CACFD7" fill-rule="nonzero" transform="translate(5.378252, 131.743174) scale(1, -1) rotate(50.000000) translate(-5.378252, -131.743174) "></path>
                <path d="M213.267957,119.772558 L215.488445,119.772558 L214.378201,118.218216 L213.267957,119.772558 Z M217.906531,119.716948 C218.323843,120.301185 218.188524,121.1131 217.604287,121.530411 C217.383806,121.687898 217.119628,121.772558 216.848678,121.772558 L211.907724,121.772558 C211.189754,121.772558 210.607724,121.190528 210.607724,120.472558 C210.607724,120.201608 210.692385,119.937429 210.849871,119.716948 L213.320348,116.258281 C213.737659,115.674045 214.549574,115.538726 215.133811,115.956037 C215.250545,116.039419 215.352673,116.141547 215.436055,116.258281 L217.906531,119.716948 Z" id="Triangle-2" fill="#E6D3F7" fill-rule="nonzero" transform="translate(214.378252, 118.743174) scale(1, -1) rotate(-10.000000) translate(-214.378252, -118.743174) "></path>
            </g>
            <g id="laptop" transform="translate(24.000000, 59.000000)" fill-rule="nonzero">
                <path d="M147.989136,105.842834 L13.9824371,105.842834 C10.7405089,105.842834 8.11161812,103.21518 8.11161812,99.9720155 L8.11161812,5.87081925 C8.11161812,2.62889107 10.7405089,0 13.9824371,0 L147.989136,0 C151.231064,0 153.859955,2.62765519 153.859955,5.87081925 L153.859955,99.9720155 C153.859955,103.21518 151.231064,105.842834 147.989136,105.842834 Z" id="Shape" fill="#948BEC"></path>
                <path d="M147.989136,0 L131.582977,0 C134.824905,0 137.453796,2.62889107 137.453796,5.87081925 L137.453796,99.9732514 C137.453796,103.21518 134.824905,105.842834 131.582977,105.842834 L147.989136,105.842834 C151.231064,105.842834 153.859955,103.21518 153.859955,99.9732514 L153.859955,5.87081925 C153.859955,2.62889107 151.231064,0 147.989136,0 Z" id="Shape" fill="#837ADD"></path>
                <path d="M18,83.0662535 L18,9.87258927 C18,9.39056396 18.390564,9 18.8725893,9 L143.243729,9 C143.725754,9 144.116318,9.39056396 144.116318,9.87258927 L144.116318,83.0662535 C144.116318,83.5482788 143.725754,83.9388428 143.243729,83.9388428 L18.8725893,83.9388428 C18.390564,83.9388428 18,83.5482788 18,83.0662535 Z" id="Shape" fill="#F2E3FF"></path>
                <path d="M23,78.0662535 L23,14.8725893 C23,14.390564 23.390564,14 23.8725893,14 L138.243729,14 C138.725754,14 139.116318,14.390564 139.116318,14.8725893 L139.116318,78.0662535 C139.116318,78.5482788 138.725754,78.9388428 138.243729,78.9388428 L23.8725893,78.9388428 C23.390564,78.9388428 23,78.5482788 23,78.0662535 Z" id="Shape" fill="#FFFFFF"></path>
                <path d="M143.171356,8.99487945 L126.765198,8.99487945 C127.247223,8.99487945 127.637787,9.38544341 127.637787,9.86746872 L127.637787,83.0550716 C127.637787,83.5370969 127.247223,83.9276608 126.765198,83.9276608 L143.171356,83.9276608 C143.653381,83.9276608 144.043945,83.5370969 144.043945,83.0550716 L144.043945,9.86746872 C144.043945,9.38544341 143.653381,8.99487945 143.171356,8.99487945 Z" id="Shape" fill="#E6D3F7"></path>
                <path d="M0,97.4988555 C0,103.907318 5.194748,109.102066 11.6032104,109.102066 L150.39679,109.102066 C156.805252,109.102066 162,103.907318 162,97.4988555 C162,95.5324403 160.405609,93.9380493 158.437958,93.9380493 L3.56204208,93.9380493 C1.59439071,93.9380493 5.62050406e-16,95.5324403 5.62050406e-16,97.4988555 Z" id="Shape" fill="#655F81"></path>
                <path d="M158.437958,93.9380493 L145.546875,93.9380493 L145.546875,97.5000917 C145.546875,103.907318 140.352127,109.102066 133.943665,109.102066 L150.39679,109.102066 C156.805252,109.102066 162,103.907318 162,97.5000917 C162,95.5324403 160.405609,93.9380493 158.437958,93.9380493 Z" id="Shape" fill="#504972"></path>
                <path d="M92.648941,101.190674 L69.351059,101.190674 C65.5232851,101.190674 62.4210205,104.294174 62.4210205,108.121948 C62.4210205,108.453186 62.4383241,108.780716 62.4692231,109.102066 L99.5307769,109.102066 C99.5629121,108.780716 99.5802154,108.453186 99.5802154,108.121948 C99.5789795,104.294174 96.4767149,101.190674 92.648941,101.190674 Z" id="Shape" fill="#FFFFFF"></path>
            </g>
            <g id="model" transform="translate(76.694563, 84.233672)" fill-rule="nonzero">
                <g id="croupier" transform="translate(1.402842, 0.000000)">
                    <path d="M37.0642691,2.75976542 C34.9605216,0.578154018 23.0524529,-1.69169372 16.4946887,1.8248297 C10.3522387,5.11862451 8.75516674,13.0007718 12.7619899,25.1064298 C14.0155638,28.8938037 17.3544376,32.6142391 19.2996379,37.354092 C22.8177329,45.9266038 28.7392766,34.3951616 37.0642691,2.75976542 Z" id="Shape" fill="#504972"></path>
                    <path d="M33.3751094,32.9930006 L33.3242421,32.9930006 L33.3242421,30.8091158 L20.2345736,30.8091158 L20.2345736,32.9907272 C20.2345736,35.1280073 20.2256221,37.4511378 18.3645601,38.8563831 L18.3645601,48.4265443 L26.7794078,48.4265443 C26.7794078,48.4265443 31.1856832,48.4265443 35.1942556,48.4265443 L35.1942556,38.8238451 C33.380935,37.4150476 33.3751094,35.1119514 33.3751094,32.9930006 Z" id="Shape" fill="#F5D2D2"></path>
                    <path d="M40.8041541,40.1588992 L40.4925562,40.1588992 C36.8285459,40.1588992 35.0432166,39.1587453 34.1676734,37.7360232 L32.3215306,45.7687977 L21.2375693,45.7687977 L19.3914265,37.7360232 C18.5157412,39.1587453 16.7304118,40.1588992 13.0665437,40.1588992 L12.7549458,40.1588992 C7.07485611,40.1588992 0.411039425,47.9902764 0.411039425,53.6705082 L51.1079013,53.6705082 C51.1077592,47.9904185 46.4842438,40.1588992 40.8041541,40.1588992 Z" id="Shape" fill="#948BEC"></path>
                    <path d="M35.1942556,1.82468761 L28.6494214,37.35395 L33.3243841,30.8091158 C43.2194994,23.5630798 47.4659263,1.82468761 35.1942556,1.82468761 Z" id="Shape" fill="#504972"></path>
                    <path d="M34.2593199,42.9638484 C34.6004719,43.0569157 34.9076651,43.1065043 35.1942556,43.1306592 L35.1942556,38.823703 C33.380935,37.4149055 33.3751094,35.1118093 33.3751094,32.9928585 L33.3242421,32.9928585 L33.3242421,30.8089737 L23.0395229,30.8089737 L20.2345736,31.7439094 C22.1044451,33.8477989 27.8312816,41.2107729 34.2593199,42.9638484 Z" id="Shape" fill="#EFC3C3"></path>
                    <path d="M39.8692183,18.6543831 C39.8692183,26.1418257 32.4226969,35.4840785 26.7795499,35.4840785 C21.136403,35.4840785 13.6898815,26.1418257 13.6898815,18.6543831 C13.6898815,11.1669404 19.5504224,8.36952182 26.7795499,8.36952182 C34.0086775,8.36952182 39.8692183,11.1669404 39.8692183,18.6543831 Z" id="Shape" fill="#F5D2D2"></path>
                    <path d="M28.6494214,3.69470114 C28.1241239,3.69470114 26.4185056,4.28493259 25.0244852,4.80213107 L24.9095364,4.62963686 C24.9095364,4.62963686 24.7171499,4.78081795 24.3840969,5.04282729 C23.6087254,5.33723258 23.039665,5.56457257 23.039665,5.56457257 L23.2583376,5.92916909 C19.7095604,8.72516682 12.5479243,12.3164283 11.819868,13.0444846 C10.8849323,13.9794203 14.6248172,24.6148114 14.6248172,24.2642816 C14.6248172,14.5638262 23.7280789,13.4875134 29.5844992,12.1095489 C32.2335784,11.486211 35.8177355,9.92793746 36.1293334,8.3696639 C36.4409313,6.81124826 29.5843571,3.69470114 28.6494214,3.69470114 Z" id="Shape" fill="#504972"></path>
                    <path d="M34.2593199,9.30459962 C34.2593199,14.1352903 36.5968012,18.2453132 39.8108204,19.063453 C41.5719949,19.511739 40.8042961,13.9795624 40.8042961,13.9795624 C40.8042961,13.9795624 38.3109448,7.59045608 37.9993469,7.43472818 C37.687749,7.2788582 35.1943977,1.8248297 35.1943977,1.8248297 L29.5844992,6.49979247 L34.2593199,9.30459962 Z" id="Shape" fill="#504972"></path>
                    <path d="M38.4766188,18.7397777 C40.0064749,18.3891057 41.0087601,19.1383331 41.0087601,20.6097912 C41.0087601,22.5576686 38.9514752,27.3299613 36.7886194,24.3496761 C34.6257635,21.3693909 38.4766188,18.7397777 38.4766188,18.7397777 Z" id="Shape" fill="#F5D2D2"></path>
                    <path d="M26.7794078,44.380887 L26.7794078,44.380887 C24.6021248,46.5581701 21.0720515,46.5581701 18.8947684,44.380887 C18.6717196,44.1578382 18.4680025,43.9162622 18.2858102,43.6587597 L15.5596109,39.8056697 L17.7372438,37.6280367 C18.0889104,37.2763702 18.6542765,37.2615931 19.0238461,37.5942199 L26.7794078,44.380887 Z" id="Shape" fill="#6BEBB6"></path>
                    <path d="M26.7794078,44.380887 L26.7794078,44.380887 C28.9566909,46.5581701 32.4867642,46.5581701 34.6640473,44.380887 C34.8870961,44.1578382 35.0908132,43.9162622 35.2730054,43.6587597 L37.9992048,39.8056697 L35.8215719,37.6280367 C35.4699053,37.2763702 34.9045392,37.2615931 34.5349696,37.5942199 L26.7794078,44.380887 Z" id="Shape" fill="#6BEBB6"></path>
                    <path d="M28.6494214,47.1858363 C28.6494214,47.7000509 28.2287003,48.120772 27.7144857,48.120772 L25.8444721,48.120772 C25.3302575,48.120772 24.9095364,47.7000509 24.9095364,47.1858363 L24.9095364,45.3158227 C24.9095364,44.8016081 25.3302575,44.380887 25.8444721,44.380887 L27.7144857,44.380887 C28.2287003,44.380887 28.6494214,44.8016081 28.6494214,45.3158227 L28.6494214,47.1858363 Z" id="Shape" fill="#FFFFFF"></path>
                    <path d="M25.8444721,45.3158227 L20.6028644,43.0694194 C19.9859205,42.8049946 19.2996379,43.2575433 19.2996379,43.9287646 L19.2996379,48.5727523 C19.2996379,49.2439736 19.9859205,49.6965223 20.6028644,49.4320975 L25.8444721,47.1856942 L25.8444721,45.3158227 Z" id="Shape" fill="#FFFFFF"></path>
                    <path d="M27.7143436,45.3158227 L32.9559513,43.0694194 C33.5728952,42.8049946 34.2591778,43.2575433 34.2591778,43.9287646 L34.2591778,48.5727523 C34.2591778,49.2439736 33.5728952,49.6965223 32.9559513,49.4320975 L27.7143436,47.1856942 L27.7143436,45.3158227 Z" id="Shape" fill="#FFFFFF"></path>
                </g>
            </g>
            <g id="pencile" transform="translate(166.335080, 63.503706) rotate(-10.000000) translate(-166.335080, -63.503706) translate(128.835080, 27.003706)" fill-rule="nonzero">
                <polygon id="Shape" fill="#948BEC" points="63.0229916 24.9931602 61.261172 13.1634044 49.4314162 11.4012772 41.880541 18.95246 43.6423606 30.7822158 55.4721164 32.5437278"></polygon>
                <path d="M0.597842686,69.4065922 C-0.0971024009,70.1015373 -0.0971024009,71.2287081 0.597842686,71.9236532 C1.29309541,72.6189059 2.41995856,72.6185983 3.11490364,71.9236532 L12.3014116,67.2972032 L13.7968202,58.7246756 L5.22429265,60.2200843 L0.597842686,69.4065922 Z" id="Shape" fill="#504972"></path>
                <polygon id="Shape" fill="#F5D2D2" points="12.6492886 48.1837124 5.22429265 60.2200843 12.3014116 67.2972032 26.2405564 61.7749802 24.4790444 49.9452244"></polygon>
                <path d="M71.3288006,16.686736 C75.0757821,12.9397545 75.0763973,6.8424497 71.3288006,3.09516059 C67.5812038,-0.652436153 61.4842066,-0.651820885 57.7372251,3.09516059 L49.4311086,11.4012772 L63.022684,24.9928526 L71.3288006,16.686736 Z" id="Shape" fill="#6BEBB6"></path>
                <polygon id="Rectangle-path" fill="#F3F6F8" transform="translate(35.962910, 38.464119) rotate(135.000000) translate(-35.962910, -38.464119) " points="12.604 28.8535732 59.3218204 28.8535732 59.3218204 48.0746656 12.604 48.0746656"></polygon>
            </g>
            <g id="color-slider" transform="translate(117.000000, 21.000000)">
                <rect id="Rectangle-4" fill="#D5DDE5" x="1" y="3" width="32" height="2" rx="1"></rect>
                <rect id="Rectangle-4" fill="#D5DDE5" x="1" y="11" width="32" height="2" rx="1"></rect>
                <rect id="Rectangle-4" fill="#D5DDE5" x="1" y="19" width="32" height="2" rx="1"></rect>
                <mask id="mask-2" fill="white">
                    <use xlink:href="#path-1"></use>
                </mask>
                <use id="Rectangle-5" fill="#6BEBB6" xlink:href="#path-1"></use>
                <rect id="Rectangle-7" fill="#41DC9D" mask="url(#mask-2)" x="12" y="0" width="3" height="8"></rect>
                <mask id="mask-4" fill="white">
                    <use xlink:href="#path-3"></use>
                </mask>
                <use id="Rectangle-5" fill="#948BEC" xlink:href="#path-3"></use>
                <rect id="Rectangle-7" fill="#837ADD" mask="url(#mask-4)" x="29" y="8" width="3" height="8"></rect>
                <mask id="mask-6" fill="white">
                    <use xlink:href="#path-5"></use>
                </mask>
                <use id="Rectangle-5" fill="#F5C1FB" xlink:href="#path-5"></use>
                <rect id="Rectangle-7" fill="#EBACF3" mask="url(#mask-6)" x="5" y="16" width="3" height="8"></rect>
            </g>
        </g>
    </g>
</svg>