<?xml version="1.0" encoding="UTF-8"?>
<svg width="353px" height="217px" viewBox="0 0 353 217" version="1.1" xmlns="http://www.w3.org/2000/svg" xmlns:xlink="http://www.w3.org/1999/xlink">
    <!-- Generator: Sketch 50.2 (55047) - http://www.bohemiancoding.com/sketch -->
    <title>no-campaign-illustration</title>
    <desc>Created with Sketch.</desc>
    <defs>
        <linearGradient x1="50%" y1="-14.8329753%" x2="50%" y2="100%" id="linearGradient-1">
            <stop stop-color="#F7A249" offset="0%"></stop>
            <stop stop-color="#F5904E" offset="100%"></stop>
        </linearGradient>
        <circle id="path-2" cx="7.39271255" cy="31.8825911" r="7"></circle>
        <filter x="-107.1%" y="-107.1%" width="314.3%" height="314.3%" filterUnits="objectBoundingBox" id="filter-3">
            <feOffset dx="0" dy="0" in="SourceAlpha" result="shadowOffsetOuter1"></feOffset>
            <feGaussianBlur stdDeviation="5" in="shadowOffsetOuter1" result="shadowBlurOuter1"></feGaussianBlur>
            <feColorMatrix values="0 0 0 0 1   0 0 0 0 0.91372549   0 0 0 0 0.435294118  0 0 0 0.7 0" type="matrix" in="shadowBlurOuter1"></feColorMatrix>
        </filter>
        <path d="M3.24829143,45.8376195 C5.77439077,45.8376195 57.597952,45.8376195 59.0295795,45.8376195 C60.4609294,45.8376195 61.6400719,45.500325 60.8823392,43.7322359 C60.124329,41.9638692 54.4824897,22.6462837 54.4824897,22.6462837 C54.4824897,22.6462837 53.8087336,20.2042998 52.8824926,20.2042998 C51.9562515,20.2042998 51.6193735,21.0462866 51.1141259,22.2252903 C50.609017,23.4044328 49.8088103,33.079978 48.4193793,33.079978 C47.0299483,33.079978 44.6248863,26.5210588 43.2354554,23.152695 C41.8460244,19.7843312 37.1988566,7.81829064 36.0620495,5.20779829 C34.9253811,2.59730594 34.6939944,0.0283160759 32.9252112,0.0283160759 C31.6620922,0.0283160759 29.5848859,6.14361684 28.4901365,9.0487907 C27.395387,11.9539646 23.0305472,21.9645302 22.1463638,23.8592088 C21.2621805,25.7538874 20.7988518,27.6065083 19.7042411,27.6065083 C18.6096304,27.6065083 17.5572163,24.659138 16.6308364,22.3434659 C15.7043178,20.0277939 15.4094974,17.4593593 13.6412696,17.4593593 C11.8729029,17.4593593 10.2729058,22.0065879 9.59956614,23.3539612 C8.9259489,24.7013345 1.81666395,40.5322417 1.05893131,42.4689781 C0.30119867,44.4058532 0.385036464,45.8376195 3.24829143,45.8376195 Z" id="path-4"></path>
        <filter x="-7.4%" y="-18.6%" width="129.8%" height="137.1%" filterUnits="objectBoundingBox" id="filter-5">
            <feOffset dx="5" dy="0" in="SourceAlpha" result="shadowOffsetOuter1"></feOffset>
            <feGaussianBlur stdDeviation="2" in="shadowOffsetOuter1" result="shadowBlurOuter1"></feGaussianBlur>
            <feColorMatrix values="0 0 0 0 0.855924208   0 0 0 0 0.804621267   0 0 0 0 0.898676658  0 0 0 0.1 0" type="matrix" in="shadowBlurOuter1"></feColorMatrix>
        </filter>
        <path d="M20.8836064,25.805941 C18.8469544,20.7156839 18.1988871,15.0698098 14.3120091,15.0698098 C10.424826,15.0698098 6.90774914,25.0654235 5.42762942,28.0271885 C5.25493353,28.3731905 4.91259292,29.1530681 4.44088295,30.2682686 C4.44088295,30.2682686 2.66724124,34.2747522 5.51519783,35.1901014 C8.36315443,36.1054507 10.2954567,25.8330964 13.5498283,26.2401217 C16.8042,26.647147 16.0920583,29.8023558 18.2281783,30.2066351 C21.9908739,30.9184717 20.8836064,25.805941 20.8836064,25.805941 Z" id="path-6"></path>
        <path d="M177.343886,30.3423812 C177.93776,30.5688079 178.487272,30.9487648 178.931003,31.485709 L181.335909,34.3977143 L180.784542,46.9615672 C168.982301,46.9615672 163.061394,46.9615672 163.021821,46.9615672 C162.962462,46.9615672 163.255001,46.3916009 163.402966,46.1647052 C165.479705,42.980156 168.594814,38.2033322 172.748292,31.8342338 C173.783838,30.2468105 175.728064,29.7263165 177.343886,30.3423812 C178.959708,29.7263165 180.903934,30.2468105 181.93948,31.8342338 L191.728702,46.8453923 C191.760926,46.8954238 191.72531,46.9615672 191.665951,46.9615672 L179.93313,46.9615672 L173.351862,34.3977143 L175.756768,31.485709 C176.200499,30.9487648 176.750012,30.5688079 177.343886,30.3423812 Z" id="path-8"></path>
        <path d="M20.8546615,7.52482429 L20.4074855,7.52482429 C20.2448761,6.84779341 20.0009619,6.08613366 19.5944383,5.28215948 C18.2529103,2.6586648 15.854421,1.21997416 12.8867986,1.21997416 C9.87852386,1.21997416 7.48003453,2.6586648 6.17915896,5.28215948 C5.77263534,6.12844809 5.52872117,6.9747367 5.36611172,7.65176758 C2.19522752,8.24416961 0,10.8676643 0,14.2951332 C0,17.722602 2.35783697,20.4307256 5.61002589,20.9808132 C5.77263534,21.0231276 5.97589715,21.065442 6.13850659,21.065442 L20.8546615,21.065442 C24.7166358,21.065442 27.6436059,18.1457463 27.6436059,14.2951332 C27.6436059,10.3598911 24.7979405,7.52482429 20.8546615,7.52482429 Z" id="path-10"></path>
        <filter x="-16.3%" y="-42.8%" width="165.1%" height="185.7%" filterUnits="objectBoundingBox" id="filter-11">
            <feOffset dx="5" dy="0" in="SourceAlpha" result="shadowOffsetOuter1"></feOffset>
            <feGaussianBlur stdDeviation="2" in="shadowOffsetOuter1" result="shadowBlurOuter1"></feGaussianBlur>
            <feColorMatrix values="0 0 0 0 0.854901961   0 0 0 0 0.803921569   0 0 0 0 0.898039216  0 0 0 0.2 0" type="matrix" in="shadowBlurOuter1"></feColorMatrix>
        </filter>
        <filter x="-17.5%" y="-20.8%" width="135.0%" height="158.3%" filterUnits="objectBoundingBox" id="filter-12">
            <feOffset dx="0" dy="2" in="SourceAlpha" result="shadowOffsetOuter1"></feOffset>
            <feGaussianBlur stdDeviation="2" in="shadowOffsetOuter1" result="shadowBlurOuter1"></feGaussianBlur>
            <feColorMatrix values="0 0 0 0 0.854901961   0 0 0 0 0.803921569   0 0 0 0 0.898039216  0 0 0 0.3 0" type="matrix" in="shadowBlurOuter1" result="shadowMatrixOuter1"></feColorMatrix>
            <feMerge>
                <feMergeNode in="shadowMatrixOuter1"></feMergeNode>
                <feMergeNode in="SourceGraphic"></feMergeNode>
            </feMerge>
        </filter>
        <path d="M40.6104732,25.8332533 L116.415222,25.8332533 C129.235428,25.8332533 139.665241,36.2633692 139.665241,49.0832722 L139.665241,90.2331634 C139.665241,91.659649 138.508795,92.8163979 137.082006,92.8163979 L53.7106259,93.0110838 C52.7784564,62.4623734 51.9051129,46.7421902 51.0905953,45.8505343 C48.5307897,43.0483037 44.6007439,39.5549297 39.300458,35.3704122 C39.3051936,34.9170005 39.3089383,34.4797558 39.3116922,34.058678 C39.3079714,34.0594583 39.3042267,34.060032 39.300458,34.0603969 C37.7516614,34.2103638 35.5029395,33.6198897 34.0603969,34.0603969 C24.5562848,36.9626544 17.4815482,38.6131858 17.4815482,49.0832722 L17.4815482,90.2331634 C17.4815482,91.6599517 18.6382972,92.8167007 20.0647828,92.8163979 C15.5850269,92.8163979 12.2252101,92.8163979 9.98533218,92.8163979 C9.92893436,92.8163979 8.98325945,92.816398 7.14830746,92.816398 L7.14830746,90.3250813 L7.14830746,49.0832722 C7.14830746,36.2630665 17.5781206,25.8332533 30.3983263,25.8332533 L40.6104732,25.8332533 Z" id="path-13"></path>
        <filter x="-3.4%" y="-11.2%" width="111.3%" height="122.3%" filterUnits="objectBoundingBox" id="filter-14">
            <feOffset dx="3" dy="0" in="SourceAlpha" result="shadowOffsetOuter1"></feOffset>
            <feGaussianBlur stdDeviation="2" in="shadowOffsetOuter1" result="shadowBlurOuter1"></feGaussianBlur>
            <feColorMatrix values="0 0 0 0 0.68627451   0 0 0 0 0.682352941   0 0 0 0 0.68627451  0 0 0 0.2 0" type="matrix" in="shadowBlurOuter1"></feColorMatrix>
        </filter>
        <path d="M37.3354351,32.7503816 L37.3354351,32.7503816 C49.9967105,32.7503816 60.2607022,43.0143733 60.2607022,55.6756488 L60.2607022,93.0110838 L14.4101679,93.0110838 L14.4101679,55.6756488 C14.4101679,43.0143733 24.6741596,32.7503816 37.3354351,32.7503816 Z" id="path-15"></path>
        <path d="M5,-2.84217094e-14 L60.8909595,-2.84217094e-14 C63.6523833,-3.38342487e-14 65.8909595,2.23857625 65.8909595,5 L65.8909595,81.32974 C65.8909595,84.0911638 63.6523833,86.32974 60.8909595,86.32974 L5,86.32974 C2.23857625,86.32974 3.38176876e-16,84.0911638 0,81.32974 L0,5 C-3.38176876e-16,2.23857625 2.23857625,-2.79144441e-14 5,-2.84217094e-14 Z" id="path-17"></path>
        <filter x="-12.9%" y="-5.2%" width="125.8%" height="120.9%" filterUnits="objectBoundingBox" id="filter-18">
            <feOffset dx="0" dy="5" in="SourceAlpha" result="shadowOffsetOuter1"></feOffset>
            <feGaussianBlur stdDeviation="2" in="shadowOffsetOuter1" result="shadowBlurOuter1"></feGaussianBlur>
            <feColorMatrix values="0 0 0 0 0.854901961   0 0 0 0 0.803921569   0 0 0 0 0.898039216  0 0 0 0.2 0" type="matrix" in="shadowBlurOuter1"></feColorMatrix>
        </filter>
        <circle id="path-19" cx="18.2368421" cy="68.6224366" r="10.4210526"></circle>
    </defs>
    <g id="New-Library-Flow-3-1st-july" stroke="none" stroke-width="1" fill="none" fill-rule="evenodd">
        <g id="01.4A-dashboard-Copy" transform="translate(-460.000000, -198.000000)">
            <g id="No-campaign-setup-empty-state" transform="translate(370.000000, 198.000000)">
                <g id="no-campaign-illustration" transform="translate(90.000000, 0.000000)">
                    <g id="tree-" transform="translate(98.000000, 98.785425)">
                        <path d="M240.838207,0.35329787 C225.205078,28.319228 225.205078,42.302193 240.838207,42.302193 C256.471335,42.302193 256.471335,28.319228 240.838207,0.35329787 Z" id="Path-8" fill="#A5F5D4"></path>
                        <path d="M242.715606,38.0971592 C243.107337,38.4864726 243.109297,39.1196345 242.719984,39.511366 C242.330671,39.9030974 241.697509,39.9050577 241.305777,39.5157443 L236.615839,34.854756 C236.224107,34.4654426 236.222147,33.8322807 236.61146,33.4405492 C237.000774,33.0488177 237.633936,33.0468575 238.025667,33.4361708 L242.715606,38.0971592 Z" id="Line-2" fill="#6BEBB6" fill-rule="nonzero"></path>
                        <path d="M241.010691,36.4759576 C241.010691,35.9236728 241.458407,35.4759576 242.010691,35.4759576 C242.562976,35.4759576 243.010691,35.9236728 243.010691,36.4759576 L243.010691,52.7894168 C243.010691,53.3417016 242.562976,53.7894168 242.010691,53.7894168 C241.458407,53.7894168 241.010691,53.3417016 241.010691,52.7894168 L241.010691,36.4759576 Z" id="Line" fill="#6BEBB6" fill-rule="nonzero"></path>
                        <g id="round-tree" transform="translate(0.000000, 35.627530)" fill-rule="nonzero">
                            <rect id="Rectangle-path" fill="#504972" x="12.5575236" y="26.7288144" width="5.19267036" height="5.06445152"></rect>
                            <path d="M19.5779862,11.4469003 C18.325446,6.24537396 16.7375347,2.44501385 15.536205,0.0404293629 C15.4068311,0.0146315789 15.2793823,0 15.1542438,0 C10.8775873,0 4.15707206,15.5791662 1.71359838,20.4664986 C-0.730645391,25.3542161 1.10253743,26.7288144 5.98986984,26.7288144 C10.8772023,26.7288144 15.1542438,26.7288144 15.1542438,26.7288144 C15.1542438,26.7288144 17.7617452,26.7288144 21.2313546,26.7288144 C21.2694737,23.323892 21.0511552,17.5663657 19.5779862,11.4469003 Z" id="Shape" fill="#A5F5D4"></path>
                            <path d="M28.5948892,20.4668837 C26.2226482,15.7227867 19.8209474,0.904462604 15.536205,0.0408144044 C16.7375347,2.44539889 18.325446,6.245759 19.5779862,11.4472853 C21.0511552,17.5671357 21.2698588,23.324277 21.2313546,26.7288144 C22.2051247,26.7288144 23.2470471,26.7288144 24.3186178,26.7288144 C29.2059502,26.7288144 31.0383629,25.3546011 28.5948892,20.4668837 Z" id="Shape" fill="#6BEBB6"></path>
                            <polygon id="Shape" fill="#655F81" points="12.5575236 26.7288144 12.5575236 30.4448504 17.750579 26.7288144"></polygon>
                        </g>
                    </g>
                    <g id="bird-sun" transform="translate(155.145749, 35.882591)" fill-rule="nonzero">
                        <g id="Oval">
                            <use fill="black" fill-opacity="1" filter="url(#filter-3)" xlink:href="#path-2"></use>
                            <use fill="url(#linearGradient-1)" fill-rule="evenodd" xlink:href="#path-2"></use>
                        </g>
                        <path d="M156.702834,46.3440689 C156.688871,46.3446472 156.674834,46.3449393 156.660729,46.3449393 C156.108444,46.3449393 155.660729,45.897224 155.660729,45.3449393 C155.660729,42.5375884 153.390347,40.2672065 150.582996,40.2672065 C150.030711,40.2672065 149.582996,39.8194912 149.582996,39.2672065 C149.582996,38.7149217 150.030711,38.2672065 150.582996,38.2672065 C153.587191,38.2672065 156.15136,40.1342798 157.17959,42.772512 C158.084521,41.4131648 159.630791,40.5182186 161.387854,40.5182186 C161.940139,40.5182186 162.387854,40.9659339 162.387854,41.5182186 C162.387854,42.0705034 161.940139,42.5182186 161.387854,42.5182186 C159.700382,42.5182186 158.336032,43.8825682 158.336032,45.5700405 C158.336032,46.1223252 157.888317,46.5700405 157.336032,46.5700405 C157.095754,46.5700405 156.875269,46.4852975 156.702834,46.3440689 Z" id="Combined-Shape" fill="#504972"></path>
                        <path d="M49.9081566,3.74759753 C50.7665362,2.18418666 52.4282245,1.12550607 54.3392713,1.12550607 C54.891556,1.12550607 55.3392713,1.57322132 55.3392713,2.12550607 C55.3392713,2.67779082 54.891556,3.12550607 54.3392713,3.12550607 C52.6517989,3.12550607 51.2874494,4.4898556 51.2874494,6.17732794 C51.2874494,6.56767219 51.0637981,6.90577989 50.7376482,7.07049841 C50.7376506,7.07290959 50.7376518,7.07532105 50.7376518,7.07773279 C50.7376518,7.63001754 50.2899366,8.07773279 49.7376518,8.07773279 C49.1853671,8.07773279 48.7376518,7.63001754 48.7376518,7.07773279 C48.7376518,4.27038192 46.4672699,2 43.659919,2 C43.1076343,2 42.659919,1.55228475 42.659919,1 C42.659919,0.44771525 43.1076343,0 43.659919,0 C46.367552,0 48.7177465,1.51664784 49.9081566,3.74759753 Z" id="Combined-Shape" fill="#504972"></path>
                    </g>
                    <g id="mountain" transform="translate(109.890688, 20.000000)">
                        <g id="Group-4" transform="translate(27.810563, 36.768083)">
                            <path d="M190.17088,48.971081 L3.98033516,48.971081 C2.33431166,48.971081 1,47.8253523 1,46.4118017 C1,44.998582 2.33431166,43.8528533 3.98033516,43.8528533 C103.05887,43.8528533 165.018472,43.8528533 189.859141,43.8528533 C189.928416,43.8528533 190.662814,44.6671918 192.062334,46.2958687 C192.064647,46.347256 192.065648,46.3859004 192.065339,46.4118017 C192.062334,46.6632958 193.083547,47.0356549 192.95956,47.3170912 C192.533679,48.2837896 191.4456,48.971081 190.17088,48.971081 Z" id="Shape" fill="#E6D3F7" fill-rule="nonzero"></path>
                            <g id="Group-5">
                                <g id="Path">
                                    <use fill="black" fill-opacity="1" filter="url(#filter-5)" xlink:href="#path-4"></use>
                                    <use fill="#F2E3FF" fill-rule="evenodd" xlink:href="#path-4"></use>
                                </g>
                                <path d="M13.6415472,17.4592205 C15.4097751,17.4592205 15.7045954,20.0276551 16.631114,22.3433271 C17.1409422,23.6182446 17.689358,25.0845731 18.2617869,26.1451767 L25.584685,45.8376195 L14.5150426,45.8376195 L12.8015036,39.6198811 L16.7002386,32.2571462 L13.6415472,25.4590671 L15.0180693,20.3054025 L13.6415472,17.4592205 Z" id="Path" fill="#E6D3F7"></path>
                                <path d="M60.8823392,37.3827192 C61.6400719,39.1506694 60.4610682,39.4881027 59.0298571,39.4881027 C58.8509384,39.4881027 57.8979081,39.4881027 56.3618998,39.4881027 L54.3985131,36.7091019 L55.2404999,30.7117848 C55.2404999,30.7117848 53.9296322,25.2771803 53.6781188,23.4671723 C53.4266054,21.6571643 52.8824926,20.2042998 52.8824926,20.2042998 C53.8087336,20.2042998 54.4824897,22.6462837 54.4824897,22.6462837 C54.4824897,22.6462837 60.124329,35.6143525 60.8823392,37.3827192 Z M32.9252112,0.0280384673 C34.6938556,0.0280384673 35.1569067,2.3016528 36.2937138,4.91214514 C37.4303822,7.52263749 42.2277362,20.7109886 43.6171672,24.0793524 C44.3356182,25.8210687 45.5028235,28.5001304 46.2865125,30.2437899 L52.0010853,45.8374807 L38.4991753,45.8374807 L40.0089496,28.3559127 L35.3964829,19.8859359 L35.3126451,11.9191247 L33.635334,9.82262463 C33.635334,9.82262463 34.8094795,5.29413456 34.4741284,3.3653101 C34.1383608,1.43648563 32.9252112,0.0280384673 32.9252112,0.0280384673 Z M13.4734341,21.3337446 C13.4395557,21.2659877 13.4468669,21.1849054 13.4923196,21.1243018 C13.5585937,21.0359363 13.683954,21.0180277 13.7723196,21.0843018 L14.0683476,21.3063228 C14.7046487,21.7835487 15.1935897,22.4304245 15.4791132,23.1727856 L17.4766436,28.3663646 L25.6528576,45.8447628 L14.493526,45.8583465 L13.4039145,42.0447066 C12.9363994,40.4084034 13.2838163,38.6471169 14.3376653,37.3109055 C15.3720327,35.9993956 15.6063458,34.2272246 14.9483739,32.6919568 L14.0953898,30.7016606 C13.4487993,29.1929494 13.3529599,27.504994 13.824621,25.9327903 L14.0859762,25.0616063 C14.3874043,24.0568459 14.2940252,22.9749267 13.8248978,22.036672 L13.4734341,21.3337446 Z" id="Combined-Shape" fill="#E6D3F7"></path>
                                <path d="M43.2969457,27.1809344 C42.3651524,27.1809344 41.0095897,25.6350709 39.8136519,24.2713188 C38.9173926,23.2491639 38.0706864,22.2837801 37.6470557,22.2837801 C37.6276231,22.2837801 37.6093009,22.2858621 37.5919504,22.2898875 C37.2313368,22.3758073 36.9788518,22.7554371 36.68653,23.1950303 C36.2143178,23.9052918 35.6264816,24.7890588 34.2902127,24.7890588 C33.0680409,24.7890588 32.7243614,22.3951011 32.3917863,20.0799843 C32.1351372,18.2930178 31.8926461,16.6051576 31.2687208,16.2253891 C31.1480999,16.1519616 31.0222044,16.1161501 30.8838165,16.1161501 C30.2239409,16.1161501 29.4509398,16.9387044 28.6325497,17.8095625 C27.7533633,18.7451034 26.8441951,19.7125694 26.0001262,19.7125694 C25.9647311,19.7125694 25.929336,19.7109037 25.8942186,19.7074336 C25.566918,19.6749534 25.3195688,19.5280984 25.1592498,19.2707553 C24.545596,18.2863552 25.3774502,16.0277318 25.4131229,15.9320956 C26.7548052,12.6164775 27.9413043,9.62593895 28.4362804,8.31257273 C29.7808776,4.74419195 31.7092856,0 32.9253501,0 C34.3643342,0 34.9584165,1.50588778 35.7107358,3.41222595 C35.8997873,3.89137837 36.0953625,4.38677089 36.3192538,4.90076319 C36.9435955,6.33461154 38.7774779,11.0707528 40.5508415,15.6510169 C41.770376,18.8004863 42.9223129,21.77534 43.6422907,23.5785465 C43.6807395,23.6541949 44.6046209,25.4961278 44.1815454,26.540769 C44.0628678,26.833646 43.8470271,27.0357451 43.5401308,27.1415139 C43.4643436,27.167748 43.3825879,27.1809344 43.2969457,27.1809344 Z" id="Path" fill="#FFFFFF"></path>
                                <path d="M42.8100462,27.1809344 C41.878253,27.1809344 40.5226903,25.6350709 39.3267525,24.2713188 C38.4304932,23.2491639 37.583787,22.2837801 37.1601563,22.2837801 C37.1407237,22.2837801 37.1224015,22.2858621 37.105051,22.2898875 C36.8989266,22.3390242 36.7104304,22.4875448 36.4938957,22.7715384 L36.4678005,22.8056842 L34.8851539,19.8992611 L34.7981236,11.9291186 L33.1180364,9.82928724 L33.1215065,9.81582322 C33.1331661,9.77057302 34.2902387,5.27109305 33.9597457,3.37016825 C33.6292526,1.4709091 32.4294283,0.0602410634 32.4173524,0.0462218297 L32.3777931,0.000277608587 L32.4384506,0.000277608587 C33.8774347,0.000277608587 34.4715171,1.50616539 35.2238364,3.41250356 C35.4128878,3.89165598 43.5261376,24.738534 43.5261376,24.738534 C43.849968,25.728625 44.0512342,26.7981121 43.0532314,27.1417916 C42.9774442,27.167748 42.8956885,27.1809344 42.8100462,27.1809344 Z" id="Path" fill="#F8FAFB"></path>
                                <mask id="mask-7" fill="white">
                                    <use xlink:href="#path-6"></use>
                                </mask>
                                <use id="Shape" fill="#FFFFFF" fill-rule="nonzero" xlink:href="#path-6"></use>
                                <path d="M17.7409737,30.2066351 C21.5039744,30.9184717 20.3964019,25.8062462 20.3964019,25.8062462 C18.3597498,20.7159891 17.7116825,15.070115 13.8248046,15.070115 L16.850644,21.326527 L15.2408498,27.3537966 C16.1571144,28.4397059 16.3142494,29.936607 17.7409737,30.2066351 Z" id="Shape" fill="#F8FAFB" fill-rule="nonzero" mask="url(#mask-7)"></path>
                            </g>
                            <mask id="mask-9" fill="white">
                                <use xlink:href="#path-8"></use>
                            </mask>
                            <use id="Combined-Shape" fill="#F2E3FF" fill-rule="nonzero" xlink:href="#path-8"></use>
                            <path d="M177.994082,29.8548098 L177.994082,32.6405262 C177.994082,33.9476295 178.647338,35.1682506 179.734914,35.893301 L179.946533,36.0343806 C180.933719,36.6925046 181.654709,37.6802264 181.980652,38.8210264 L182.131395,39.3486271 C182.457338,40.4894271 183.178328,41.477149 184.165514,42.135273 L186.018968,43.370909 C186.084957,43.4149017 186.151983,43.4573181 186.21999,43.4981222 L191.56969,46.707942 C191.617048,46.7363568 191.678474,46.7210003 191.706889,46.6736423 C191.726089,46.6416411 191.725873,46.601611 191.706328,46.5698193 L183.883574,33.8456778 C183.70836,33.5606833 183.504986,33.2939934 183.276508,33.0496173 C181.966973,31.6489584 181.173293,30.8560208 180.895469,30.6708043 C180.601819,30.4750375 179.676654,30.1708189 178.119976,29.7581486 L178.120045,29.7578879 C178.066517,29.7436977 178.01162,29.7755877 177.99743,29.8291161 C177.995207,29.8374999 177.994082,29.8461365 177.994082,29.8548098 Z" id="Path-9" fill="#FFFFFF" mask="url(#mask-9)"></path>
                        </g>
                        <path d="M33.3657591,5.13904911 L33.0198832,5.13904911 C32.8941101,4.6153879 32.7054505,4.02626904 32.3910178,3.40442135 C31.3533899,1.37523415 29.4982369,0.262454072 27.2028782,0.262454072 C24.8760763,0.262454072 23.0209233,1.37523415 22.0147387,3.40442135 C21.700306,4.05899786 21.5116464,4.71357438 21.3858733,5.23723559 C18.9332982,5.69543915 17.2353617,7.72462635 17.2353617,10.3756612 C17.2353617,13.0266961 19.0590713,15.121341 21.5745329,15.5468157 C21.700306,15.5795445 21.8575223,15.6122734 21.9832954,15.6122734 L33.3657591,15.6122734 C36.3528698,15.6122734 38.6167852,13.3539844 38.6167852,10.3756612 C38.6167852,7.33188044 36.4157563,5.13904911 33.3657591,5.13904911 Z" id="Shape" fill="#E4EAF0" fill-rule="nonzero" transform="translate(27.926073, 7.937364) scale(-1, 1) translate(-27.926073, -7.937364) "></path>
                        <g id="Shape" fill-rule="nonzero">
                            <use fill="black" fill-opacity="1" filter="url(#filter-11)" xlink:href="#path-10"></use>
                            <use fill="#FFFFFF" fill-rule="evenodd" xlink:href="#path-10"></use>
                        </g>
                    </g>
                    <path d="M153.409359,157.182186 L195.082735,157.182186 C195.755902,157.182186 196.301612,157.727896 196.301612,158.401064 C196.301612,159.074231 195.755902,159.619942 195.082735,159.619942 L153.409359,159.619942 C152.736192,159.619942 152.190482,159.074231 152.190482,158.401064 C152.190482,157.727896 152.736192,157.182186 153.409359,157.182186 Z M280.942799,180.947368 L321.677411,180.947368 C322.609811,180.947368 323.36567,181.703228 323.36567,182.635628 C323.36567,183.568027 322.609811,184.323887 321.677411,184.323887 L280.942799,184.323887 C280.010399,184.323887 279.25454,183.568027 279.25454,182.635628 C279.25454,181.703228 280.010399,180.947368 280.942799,180.947368 Z M104.057549,165.927126 L123.241711,165.927126 C123.914879,165.927126 124.460589,166.472836 124.460589,167.146003 C124.460589,167.819171 123.914879,168.364881 123.241711,168.364881 L104.057549,168.364881 C103.384382,168.364881 102.838672,167.819171 102.838672,167.146003 C102.838672,166.472836 103.384382,165.927126 104.057549,165.927126 Z M324.070657,151.684211 L351.311741,151.684211 C352.244141,151.684211 353,152.44007 353,153.37247 C353,154.304869 352.244141,155.060729 351.311741,155.060729 L324.070657,155.060729 C323.138257,155.060729 322.382398,154.304869 322.382398,153.37247 C322.382398,152.44007 323.138257,151.684211 324.070657,151.684211 Z M242.545689,212.959514 C224.536036,212.959514 209.936328,210.18803 209.936328,206.769231 C209.936328,203.350432 224.536036,200.578947 242.545689,200.578947 C260.555341,200.578947 275.155049,203.350432 275.155049,206.769231 C275.155049,210.18803 260.555341,212.959514 242.545689,212.959514 Z" id="land" fill="#E2E7ED"></path>
                    <g id="content" filter="url(#filter-12)" transform="translate(146.000000, 187.000000)" fill-rule="nonzero">
                        <path d="M29.2169014,-2.23077307e-15 L10.4507042,-2.23077307e-15 C9.28236608,0.000562530361 8.2356466,0.715569775 7.81971831,1.7972093 L0.0788732394,21.9348837 C-0.0526209659,22.2779428 -0.00552517025,22.6631161 0.204845497,22.9651489 C0.415216165,23.2671816 0.761988166,23.4474909 1.13239437,23.4474419 L38.5408451,23.4474419 C38.9112513,23.4474909 39.2580233,23.2671816 39.4683939,22.9651489 C39.6787646,22.6631161 39.7258604,22.2779428 39.5943662,21.9348837 L31.8535211,1.7972093 C31.4368604,0.713661537 30.3872991,-0.00175504673 29.2169014,5.70086631e-15 Z" id="Shape" fill="#FFFFFF"></path>
                        <path d="M24.0338028,7.77488372 C24.0338028,7.77488372 24.0338028,7.77488372 24.0338028,7.77488372 L22.9070423,6.32372093 L22.5408451,5.84930233 C22.4122858,5.68604202 22.2710081,5.53301529 22.1183099,5.39162791 L21.3295775,4.6827907 C21.2996593,4.65636974 21.2731658,4.62637314 21.2507042,4.59348837 C21.2507042,4.59348837 16.6366197,4.6827907 16.5239437,4.78883721 L15.6732394,5.60930233 C15.5042977,5.78269315 15.3498025,5.96934936 15.2112676,6.16744186 L15.2112676,6.20093023 L14.8,6.75906977 L13.1098592,9.07534884 C13.1098592,9.07534884 13.1098592,9.07534884 13.1098592,9.07534884 L24.0338028,7.77488372 Z" id="Shape-Copy" fill="#948BEC"></path>
                        <path d="M26.771831,11.6316279 L24.0957746,8.14325581 L13.1492958,9.44930233 L9.92676056,14.0037209 C9.78028169,14.2102326 9.75774648,14.3944186 9.87042254,14.5172093 C10.0382592,14.6504638 10.2611642,14.6942135 10.4676056,14.6344186 C10.9424366,14.5718719 11.4245912,14.5907521 11.8929577,14.6902326 L12.6028169,14.88 C12.8629809,14.9332458 13.1313853,14.9332458 13.3915493,14.88 C13.6783306,14.8375715 13.9561765,14.74896 14.2140845,14.6176744 L14.9859155,14.2046512 C15.1769157,14.1089129 15.3824525,14.0448088 15.5943662,14.0148837 C15.7804447,13.9793259 15.971668,13.9793259 16.1577465,14.0148837 L16.828169,14.1934884 C17.0660114,14.2423822 17.3114534,14.2423822 17.5492958,14.1934884 C17.7985579,14.1564287 18.039028,14.0751269 18.2591549,13.9534884 L18.9070423,13.5739535 C19.0716018,13.4851355 19.2510121,13.4265186 19.4366197,13.4009302 C19.6114344,13.3664937 19.7913825,13.3664937 19.9661972,13.4009302 L20.6028169,13.5683721 C20.8202372,13.6128951 21.0445516,13.6128951 21.2619718,13.5683721 C21.4809363,13.5367052 21.6914928,13.4627478 21.8816901,13.3506977 L22.4450704,13.0046512 C22.5884236,12.920216 22.7474384,12.8651735 22.9126761,12.8427907 C23.0744573,12.8107644 23.2410357,12.8107644 23.4028169,12.8427907 L24.0112676,13.0046512 C24.2119507,13.0458707 24.4190352,13.0458707 24.6197183,13.0046512 C24.8204444,12.9807923 25.0130812,12.9120882 25.1830986,12.8037209 L25.6394366,12.48 C25.9121705,12.3051744 26.2162772,12.1839054 26.5352113,12.1227907 C26.6826604,12.1131058 26.8156428,12.0315491 26.8901408,11.9051163 C26.891989,11.8013881 26.8489244,11.7018387 26.771831,11.6316279 Z" id="Shape-Copy-2" fill="#E9EEF3"></path>
                        <path d="M21.2901408,4.35348837 C21.2367668,4.27682402 21.212791,4.18379253 21.2225352,4.09116279 L21.4253521,3.20372093 L21.6056338,3.87906977 C21.6584439,4.02939535 21.7407786,4.16787264 21.8478873,4.28651163 L23.2507042,5.81581395 C23.4606091,5.98675981 23.7290662,6.07074714 24,6.05023256 L24.3943662,6.05023256 C24.5015858,6.05389683 24.6055671,6.01349917 24.6816901,5.93860465 C24.7267606,5.8772093 24.6816901,5.80465116 24.6366197,5.73209302 L23.115493,4.25860465 C23.0049291,4.14976917 22.9135263,4.02337289 22.8450704,3.88465116 L22.2816901,2.56186047 C22.1784057,2.41769128 22.0265757,2.31477395 21.8535211,2.27162791 L20.9690141,2.00372093 C20.9070178,1.98390358 20.8425631,1.97263503 20.7774648,1.97023256 C20.7310746,1.96008932 20.6830099,1.96008932 20.6366197,1.97023256 C20.5939407,1.98364646 20.5692304,2.02771124 20.5802817,2.07069767 C20.5802817,2.07069767 20.6478873,2.38883721 20.2084507,2.62883721 C19.8271509,2.77783369 19.4176229,2.84259625 19.0084507,2.81860465 C18.5483296,2.83767657 18.0893694,2.75967521 17.6619718,2.58976744 C17.1830986,2.36093023 17.256338,2.03162791 17.2619718,2.03162791 C17.2729135,1.98559921 17.24574,1.93909967 17.2,1.9255814 C17.1517389,1.90612813 17.0999795,1.89663223 17.0478873,1.89767442 C16.9787098,1.88853801 16.9086142,1.88853801 16.8394366,1.89767442 L15.8366197,2.1544186 C15.6391756,2.1897413 15.4633751,2.29984575 15.3464789,2.46139535 L14.7830986,3.94046512 C14.7112624,4.10078783 14.6100177,4.2465109 14.484507,4.37023256 L12.6084507,6.18976744 C12.5126761,6.28465116 12.4957746,6.37395349 12.5690141,6.44093023 C12.6914732,6.52252962 12.8393066,6.55815458 12.9859155,6.54139535 L13.5492958,6.54139535 C13.9019371,6.53880135 14.2426258,6.41445206 14.5126761,6.18976744 L16.0732394,4.39255814 C16.184604,4.260862 16.2653837,4.10652186 16.3098592,3.94046512 L16.4450704,3.20930233 L16.771831,4.15813953 C16.792923,4.24918714 16.7788547,4.34475865 16.7323944,4.42604651 C16.7098592,4.47069767 21.3126761,4.39255814 21.2901408,4.35348837 Z" id="Shape" fill="#6BEBB6"></path>
                        <path d="M8.64225352,16.3981395 L28.5183099,15.5106977 C28.8550867,15.4796597 29.1825361,15.6311902 29.3746479,15.9069767 C29.5323944,16.2251163 29.2788732,16.5153488 28.856338,16.532093 L8.4,17.3972093 C8.07323944,17.3972093 7.83661972,17.2465116 7.83661972,16.9897674 C7.94207251,16.6367272 8.27063285,16.3954445 8.64225352,16.3981395 Z M7.71267606,19.5962791 L10.6591549,19.4846512 C11.0084507,19.4846512 11.3014085,19.6632558 11.2901408,19.9590698 C11.2290668,20.3728327 10.8727762,20.6807985 10.4507042,20.6846512 L7.4084507,20.7906977 C7.05352113,20.7906977 6.78309859,20.6009302 6.84507042,20.2995349 C6.95039008,19.8947573 7.31344096,19.6079289 7.73521127,19.5962791 L7.71267606,19.5962791 Z M13.0140845,20.6846512 C12.888057,20.63903 12.7882771,20.5413792 12.7406906,20.4170909 C12.6931041,20.2928027 12.7024132,20.1541582 12.7661972,20.0372093 C12.9447042,19.7267948 13.3222828,19.5879904 13.6619718,19.707907 L14.0169014,19.8586047 C14.2072959,19.9237483 14.4184027,19.8607805 14.5408451,19.7023256 C15.0612154,19.0676635 15.9374858,18.8415908 16.7042254,19.144186 L17.3070423,19.4065116 C17.5748073,19.5306071 17.8843476,19.5306071 18.1521127,19.4065116 C18.8295472,19.0458774 19.6643542,19.1585534 20.2197183,19.6855814 L20.3267606,19.7972093 C20.582433,20.0447234 20.9548904,20.1326809 21.2957746,20.0260465 L24.343662,19.1218605 C24.6940174,19.0160524 25.0694034,19.1829279 25.2225352,19.5125581 C25.2594832,19.6484041 25.2372333,19.7933746 25.1611984,19.9122011 C25.0851636,20.0310277 24.9623135,20.1128181 24.8225352,20.1376744 L22.0056338,20.9916279 C21.0883244,21.3563592 20.040316,21.1530789 19.3295775,20.4725581 L19.2225352,20.3553488 C19.1030243,20.2374128 18.9190362,20.2123498 18.771831,20.2939535 C18.0588563,20.6295886 17.2312846,20.6295886 16.5183099,20.2939535 L16.1577465,20.1265116 C15.9555791,20.0169731 15.7035092,20.0636507 15.5549296,20.2381395 C15.0269134,20.8936233 14.1313997,21.1351719 13.3408451,20.8353488 L13.0140845,20.6846512 Z" id="Combined-Shape" fill="#E9EEF3"></path>
                    </g>
                    <g id="postbox" transform="translate(167.421053, 43.396761)">
                        <path d="M85.571532,87.6499289 L73.3155643,87.6499289 C72.1873929,87.6499289 71.2729829,88.936069 71.2729829,90.5221176 L71.2729829,159.661226 C71.2729829,161.247611 72.1876323,162.533414 73.3155643,162.533414 L85.571532,162.533414 C86.6997034,162.533414 87.6141135,161.247274 87.6141135,159.661226 L87.6141135,90.5221176 C87.6141135,88.936069 86.699464,87.6499289 85.571532,87.6499289 Z" id="Shape" fill="#504972" fill-rule="nonzero"></path>
                        <path d="M79.9877475,87.6499289 L65.9017264,87.6499289 C65.1237458,87.6499289 64.4931738,88.936069 64.4931738,90.5221176 L64.4931738,159.661226 C64.4931738,161.247611 65.1239108,162.533414 65.9017264,162.533414 L79.9877475,162.533414 C80.7657281,162.533414 81.3963001,161.247274 81.3963001,159.661226 L81.3963001,90.5221176 C81.3963001,88.936069 80.765563,87.6499289 79.9877475,87.6499289 Z" id="Shape" fill="#655F81" fill-rule="nonzero"></path>
                        <path d="M2.79757062,118.466579 L57.4832891,118.466579 C58.6536611,118.466579 59.6778123,117.679772 59.979336,116.548756 L66.3651988,92.8167007 L10.1890076,92.8167007 C8.42824392,90.7476163 7.48589086,90.0953875 7.36194843,90.8600145 C7.11302363,92.3956842 6.87757751,93.8319207 6.8528053,93.9248149 C4.81466866,101.567697 2.63080721,108.665302 0.301220947,115.217631 C-0.135927844,116.857242 1.10013761,118.466579 2.79757062,118.466579 Z" id="Shape" fill="#948BEC" fill-rule="nonzero"></path>
                        <g id="Combined-Shape" fill-rule="nonzero">
                            <use fill="black" fill-opacity="1" filter="url(#filter-14)" xlink:href="#path-13"></use>
                            <use fill="#847BE1" fill-rule="evenodd" xlink:href="#path-13"></use>
                        </g>
                        <mask id="mask-16" fill="white">
                            <use xlink:href="#path-15"></use>
                        </mask>
                        <use id="Rectangle-6" fill="#655DB0" xlink:href="#path-15"></use>
                        <path d="M14.4101679,93.0110838 L14.4101679,55.0206411 C15.2856146,47.7198728 16.5956298,42.9164835 18.3402137,40.6104732 C21.6898163,36.1829315 27.703769,33.6540763 34.0603969,32.7503816 C35.4548824,32.5521336 36.5483348,32.8461466 37.9904427,32.7503816 C26.7140368,39.7371297 21.3198563,46.287206 20.4978859,55.0206411 L20.4978859,93.0110838 L14.4101679,93.0110838 Z" id="Path-15" fill="#59529E" mask="url(#mask-16)"></path>
                        <path d="M118.23163,25.8332533 L42.0415823,25.8332533 C54.861788,25.8332533 66.6016164,36.2630665 66.6016164,49.0832722 L66.6016164,92.8163979 L138.898414,92.8163979 C140.325202,92.8163979 141.481649,91.659649 141.481649,90.2331634 L141.481649,49.0832722 C141.481649,36.2633692 131.051836,25.8332533 118.23163,25.8332533 Z" id="Shape" fill="#948BEC" fill-rule="nonzero"></path>
                        <path d="M101.421574,61.926705 C95.0113514,61.926705 89.8148392,56.7301928 89.8148392,50.3199702 C89.8148392,43.9097475 95.0113514,38.7132354 101.421574,38.7132354 C107.831797,38.7132354 113.028309,43.9097475 113.028309,50.3199702 C113.028309,56.7301928 107.831797,61.926705 101.421574,61.926705 Z M115.648395,82.5567492 L82.064833,82.5567492 C80.6380447,82.5567492 79.4815984,81.6768298 79.4815984,80.5917263 C79.4815984,79.5066228 80.6383474,78.6267034 82.064833,78.6267034 L115.648093,78.6267034 C117.074881,78.6267034 118.231327,79.5066228 118.231327,80.5917263 C118.231327,81.6768298 117.074881,82.5567492 115.648395,82.5567492 Z M128.564871,82.5567492 L123.398099,82.5567492 C121.971311,82.5567492 120.814864,81.6768298 120.814864,80.5917263 C120.814864,79.5066228 121.971613,78.6267034 123.398099,78.6267034 L128.564871,78.6267034 C129.991659,78.6267034 131.148105,79.5066228 131.148105,80.5917263 C131.148105,81.6768298 129.991659,82.5567492 128.564871,82.5567492 Z" id="Combined-Shape" fill="#FFFFFF" fill-rule="nonzero"></path>
                        <path d="M100.148383,44.0056201 L100.148383,2.58323451 C100.148383,1.15674898 101.028072,0 102.113406,0 C103.198739,0 104.078429,1.15674898 104.078429,2.58323451 L104.078429,44.4525527 C106.308253,45.4645404 107.859061,47.7105309 107.859061,50.3187321 C107.859061,53.8747417 104.976346,56.7574571 101.420336,56.7574571 C97.8643264,56.7574571 94.981611,53.8747417 94.981611,50.3187321 C94.981611,47.1981544 97.2015749,44.596077 100.148383,44.0056201 Z" id="Combined-Shape" fill="#504972" fill-rule="nonzero"></path>
                        <path d="M123.398402,0 C114.783651,0 108.322588,0 104.015212,0 C103.729969,0 102.441026,0 100.148383,0 L100.148383,15.4997098 C102.441026,15.4997098 103.729969,15.4997098 104.015212,15.4997098 C108.322588,15.4997098 114.783651,15.4997098 123.398402,15.4997098 C124.82519,15.4997098 125.981636,14.3429608 125.981636,12.9164753 L125.981636,2.58323451 C125.981636,1.15674898 124.824887,0 123.398402,0 Z" id="Shape" fill="#6BEBB6" fill-rule="nonzero"></path>
                    </g>
                    <g id="post">
                        <g id="calendar" transform="translate(0.000000, 66.000000)">
                            <path d="M27.7308404,13.4354795 C29.563497,13.4354795 31.0538806,14.925863 31.0538806,16.7585197 C31.0538806,18.5911764 29.563497,20.0815599 27.7308404,20.0815599 C25.8981837,20.0815599 24.4078002,18.5911764 24.4078002,16.7585197 C24.4078002,14.925863 25.8981837,13.4354795 27.7308404,13.4354795 Z M15.5269403,13.4354795 C17.3595969,13.4354795 18.8499805,14.925863 18.8499805,16.7585197 C18.8499805,18.5911764 17.3595969,20.0815599 15.5269403,20.0815599 C13.6942836,20.0815599 12.2039001,18.5911764 12.2039001,16.7585197 C12.2039001,14.925863 13.6942836,13.4354795 15.5269403,13.4354795 Z M39.9347404,13.4354795 C41.7673971,13.4354795 43.2577806,14.925863 43.2577806,16.7585197 C43.2577806,18.5911764 41.7673971,20.0815599 39.9347404,20.0815599 C38.1020838,20.0815599 36.6117002,18.5911764 36.6117002,16.7585197 C36.6117002,14.925863 38.1020838,13.4354795 39.9347404,13.4354795 Z M52.1386405,20.0815599 C50.30588,20.0815599 48.8156003,18.5911764 48.8156003,16.7585197 C48.8156003,14.925863 50.3059838,13.4354795 52.1386405,13.4354795 C53.9712972,13.4354795 55.4616807,14.925863 55.4616807,16.7585197 C55.4616807,18.5911764 53.9712972,20.0815599 52.1386405,20.0815599 Z M27.7308404,25.0614596 C29.563497,25.0614596 31.0538806,26.5518431 31.0538806,28.3844998 C31.0538806,30.2171564 29.563497,31.7075399 27.7308404,31.7075399 C25.8981837,31.7075399 24.4078002,30.2171564 24.4078002,28.3844998 C24.4078002,26.5518431 25.8981837,25.0614596 27.7308404,25.0614596 Z M15.5269403,25.0614596 C17.3595969,25.0614596 18.8499805,26.5518431 18.8499805,28.3844998 C18.8499805,30.2171564 17.3595969,31.7075399 15.5269403,31.7075399 C13.6942836,31.7075399 12.2039001,30.2171564 12.2039001,28.3844998 C12.2039001,26.5518431 13.6942836,25.0614596 15.5269403,25.0614596 Z M3.3230402,25.0614596 C5.15569687,25.0614596 6.64608039,26.5518431 6.64608039,28.3844998 C6.64608039,30.2171564 5.15569687,31.7075399 3.3230402,31.7075399 C1.49038353,31.7075399 0,30.2171564 0,28.3844998 C0,26.5518431 1.49038353,25.0614596 3.3230402,25.0614596 Z M52.1386405,25.0614596 C53.9712972,25.0614596 55.4616807,26.5518431 55.4616807,28.3844998 C55.4616807,30.2171564 53.9712972,31.7075399 52.1386405,31.7075399 C50.3059838,31.7075399 48.8156003,30.2171564 48.8156003,28.3844998 C48.8156003,26.5518431 50.3059838,25.0614596 52.1386405,25.0614596 Z M15.5269403,36.1095196 C17.3595969,36.1095196 18.8499805,37.5997992 18.8499805,39.4325598 C18.8499805,41.2652164 17.3595969,42.7556 15.5269403,42.7556 C13.6942836,42.7556 12.2039001,41.2652164 12.2039001,39.4325598 C12.2039001,37.5999031 13.6942836,36.1095196 15.5269403,36.1095196 Z M3.3230402,36.1095196 C5.15569687,36.1095196 6.64608039,37.5997992 6.64608039,39.4325598 C6.64608039,41.2652164 5.15569687,42.7556 3.3230402,42.7556 C1.49038353,42.7556 0,41.2652164 0,39.4325598 C0,37.5999031 1.49038353,36.1095196 3.3230402,36.1095196 Z M39.9347404,36.1095196 C41.7673971,36.1095196 43.2577806,37.5997992 43.2577806,39.4325598 C43.2577806,41.2652164 41.7673971,42.7556 39.9347404,42.7556 C38.1020838,42.7556 36.6117002,41.2652164 36.6117002,39.4325598 C36.6117002,37.5999031 38.1020838,36.1095196 39.9347404,36.1095196 Z M52.1386405,36.1095196 C53.9712972,36.1095196 55.4616807,37.5997992 55.4616807,39.4325598 C55.4616807,41.2652164 53.9712972,42.7556 52.1386405,42.7556 C50.3059838,42.7556 48.8156003,41.2652164 48.8156003,39.4325598 C48.8156003,37.5999031 50.3059838,36.1095196 52.1386405,36.1095196 Z" id="Combined-Shape" fill="#C3CCD5" fill-rule="nonzero"></path>
                            <circle id="Oval" fill="#E6D3F7" fill-rule="nonzero" cx="3.3230402" cy="16.7585197" r="3.3230402"></circle>
                            <circle id="Oval" fill="#E6D3F7" fill-rule="nonzero" cx="27.7308404" cy="39.4325598" r="3.3230402"></circle>
                            <circle id="Oval" fill="#6BEBB6" fill-rule="nonzero" cx="39.9347404" cy="28.3844998" r="3.3230402"></circle>
                            <path d="M1.16,8.21515152 C1.2800006,8.43515262 1.4199992,8.59848432 1.58,8.70515152 C1.7400008,8.81181872 1.9033325,8.86515152 2.07,8.86515152 C2.336668,8.86515152 2.53833265,8.78348567 2.675,8.62015152 C2.81166735,8.45681737 2.88,8.15848702 2.88,7.72515152 L2.88,3.49515152 L4.35,3.49515152 L4.35,7.84515152 C4.35,8.15848642 4.30833375,8.45515012 4.225,8.73515152 C4.14166625,9.01515292 4.01500085,9.25848382 3.845,9.46515152 C3.67499915,9.67181922 3.45833465,9.83515092 3.195,9.95515152 C2.93166535,10.0751521 2.6200018,10.1351515 2.26,10.1351515 C1.7599975,10.1351515 1.34166835,10.0384858 1.005,9.84515152 C0.66833165,9.65181722 0.3866678,9.35515352 0.16,8.95515152 L1.16,8.21515152 Z M5.7742857,8.63515152 C5.7742857,8.11514892 5.9942835,7.70848632 6.4342857,7.41515152 C6.8742879,7.12181672 7.5842808,6.92515202 8.5642857,6.82515152 C8.5509523,6.60515042 8.4842863,6.43015217 8.3642857,6.30015152 C8.2442851,6.17015087 8.0509537,6.10515152 7.7842857,6.10515152 C7.5709513,6.10515152 7.3576201,6.14515112 7.1442857,6.22515152 C6.9309513,6.30515192 6.7042869,6.41515082 6.4642857,6.55515152 L5.9442857,5.58515152 C6.2642873,5.39181722 6.59928395,5.23515212 6.9492857,5.11515152 C7.29928745,4.99515092 7.6709504,4.93515152 8.0642857,4.93515152 C8.7042889,4.93515152 9.19261735,5.11681637 9.5292857,5.48015152 C9.86595405,5.84348667 10.0342857,6.40848102 10.0342857,7.17515152 L10.0342857,10.0151515 L8.8342857,10.0151515 L8.7242857,9.50515152 L8.6942857,9.50515152 C8.4809513,9.69181912 8.25595355,9.84348427 8.0192857,9.96015152 C7.78261785,10.0768188 7.5242871,10.1351515 7.2442857,10.1351515 C7.0176179,10.1351515 6.8142866,10.0968186 6.6342857,10.0201515 C6.4542848,9.94348447 6.300953,9.83681887 6.1742857,9.70015152 C6.0476184,9.56348417 5.94928605,9.40515242 5.8792857,9.22515152 C5.80928535,9.04515062 5.7742857,8.84848592 5.7742857,8.63515152 Z M7.1742857,8.52515152 C7.1742857,8.68515232 7.22595185,8.80348447 7.3292857,8.88015152 C7.43261955,8.95681857 7.5709515,8.99515152 7.7442857,8.99515152 C7.9176199,8.99515152 8.0642851,8.95848522 8.1842857,8.88515152 C8.3042863,8.81181782 8.4309517,8.70848552 8.5642857,8.57515152 L8.5642857,7.70515152 C8.0376164,7.77848522 7.6742867,7.88515082 7.4742857,8.02515152 C7.2742847,8.16515222 7.1742857,8.33181722 7.1742857,8.52515152 Z M11.5085714,5.05515152 L12.7085714,5.05515152 L12.8085714,5.68515152 L12.8485714,5.68515152 C13.0619058,5.48515052 13.2952368,5.31015227 13.5485714,5.16015152 C13.801906,5.01015077 14.0985697,4.93515152 14.4385714,4.93515152 C14.9785741,4.93515152 15.3702368,5.11181642 15.6135714,5.46515152 C15.8569059,5.81848662 15.9785714,6.30848172 15.9785714,6.93515152 L15.9785714,10.0151515 L14.5085714,10.0151515 L14.5085714,7.12515152 C14.5085714,6.76514972 14.4602385,6.51848552 14.3635714,6.38515152 C14.2669042,6.25181752 14.1119058,6.18515152 13.8985714,6.18515152 C13.7119038,6.18515152 13.5519054,6.22681777 13.4185714,6.31015152 C13.2852374,6.39348527 13.1385722,6.51181742 12.9785714,6.66515152 L12.9785714,10.0151515 L11.5085714,10.0151515 L11.5085714,5.05515152 Z" id="Jan" fill="#C0C8D3"></path>
                        </g>
                        <g id="card" transform="translate(25.000000, 0.000000)">
                            <g id="Rectangle-14">
                                <use fill="black" fill-opacity="1" filter="url(#filter-18)" xlink:href="#path-17"></use>
                                <use fill="#FFFFFF" fill-rule="evenodd" xlink:href="#path-17"></use>
                            </g>
                            <path d="M57.9317624,5.82803852 C58.2185365,5.14607583 58.8736548,4.6695717 59.6356384,4.6695717 C60.6620851,4.6695717 61.4013314,5.5505768 61.4942701,6.60053984 C61.4942701,6.60053984 61.5444343,6.86117705 61.4340163,7.33040958 C61.2836659,7.96945552 60.9302431,8.5372112 60.4537547,8.97051343 L57.9317624,11.2281336 L55.4522604,8.97037085 C54.9757719,8.5372112 54.6223491,7.96931294 54.4719987,7.330267 C54.3615807,6.86103447 54.4117449,6.60039726 54.4117449,6.60039726 C54.5046836,5.55043422 55.2439299,4.66942912 56.2703766,4.66942912 C57.0325023,4.66942912 57.6449882,5.14607583 57.9317624,5.82803852 Z" id="Combined-Shape" fill="#F55D4A" fill-rule="nonzero"></path>
                            <path d="M35.9561174,65.7955445 C35.2935134,65.989316 34.5992841,65.6092521 34.4055126,64.9466482 C34.2117412,64.2840443 34.591805,63.5898149 35.254409,63.3960435 L37.3499042,62.7832383 C38.5192876,62.4412646 39.7712046,62.5166515 40.8911014,62.9964791 L42.4965672,63.684352 C43.283728,64.0216165 44.1830777,63.9729231 44.9292227,63.5526411 L45.0108129,63.5066837 C46.5710135,62.6278676 48.5294857,62.9267876 49.7564905,64.2310127 L49.8410604,64.3209049 C50.4216066,64.9379872 51.3087017,65.159828 52.1113786,64.8886561 L56.0472895,63.5589695 C56.7013301,63.338012 57.4106562,63.6890952 57.6316137,64.3431358 C57.8525712,64.9971764 57.501488,65.7065025 56.8474474,65.92746 L52.9115364,67.2571466 C51.1821958,67.8413776 49.2709787,67.3634289 48.0202113,66.0339456 L47.9356413,65.9440533 C47.4966459,65.4774302 46.7959475,65.3704832 46.237742,65.6849043 L46.1561518,65.7308617 C44.7316931,66.5332183 43.0147527,66.6261784 41.5119913,65.9823098 L39.9065255,65.2944369 C39.3199128,65.0430986 38.6641468,65.0036103 38.0516127,65.1827393 L35.9561174,65.7955445 Z" id="Path-11" fill="#D9E3EC" fill-rule="nonzero"></path>
                            <path d="M43.8620494,72.465044 C43.8716433,72.4599472 43.8807023,72.4534575 43.8889327,72.4455687 C43.8859354,72.4484416 43.8829334,72.4513064 43.8799265,72.4541633 L43.8620494,72.465044 Z M40.0393743,72.4455687 L39.4726285,71.902338 C39.459071,71.889343 39.4428716,71.8794234 39.425134,71.8732549 C39.3569776,71.8495527 39.2825115,71.8855899 39.2588092,71.9537462 C39.1465122,72.2766592 38.9741639,72.5754238 38.7508481,72.8342933 C37.7726234,73.9682596 36.0603544,74.094513 34.9263881,73.1162883 L34.788769,72.9975701 C34.2660388,72.5466329 34.2078391,71.7573194 34.6587763,71.2345892 C35.1097136,70.7118589 35.8990271,70.6536592 36.4217573,71.1045965 L36.5593764,71.2233147 C36.6478822,71.2996648 36.7815243,71.2898108 36.8578744,71.2013051 C36.8753042,71.1811004 36.8887559,71.1577819 36.8975207,71.1325786 C37.3747413,69.7603186 38.8740415,69.0347457 40.2463016,69.5119663 C40.6034309,69.6361625 40.9295908,69.8358852 41.2025568,70.0975255 L41.7693026,70.6407562 C41.8782254,70.7451597 42.0500816,70.7451597 42.1590044,70.6407562 C43.1077406,69.7313844 44.6140346,69.7632956 45.5234064,70.7120318 C45.6658576,70.8606494 45.7884207,71.0271246 45.8880253,71.207287 L46.0609089,71.5199945 C46.2687888,71.8960027 46.7206378,72.0631276 47.1231603,71.9128884 L51.2513203,70.3720764 C51.8980933,70.130672 52.6181032,70.4592883 52.8595075,71.1060613 C53.1009118,71.7528342 52.7722956,72.4728442 52.1255226,72.7142485 L47.9973627,74.2550605 C46.4345102,74.8383862 44.680141,74.1894994 43.8730168,72.7295929 L43.7737516,72.5500445 C42.6949231,73.475626 41.0776875,73.4408008 40.0393743,72.4455687 Z" id="Path-11" fill="#D9E3EC" fill-rule="nonzero"></path>
                            <mask id="mask-20" fill="white">
                                <use xlink:href="#path-19"></use>
                            </mask>
                            <use id="Oval-4" fill="#F2E3FF" xlink:href="#path-19"></use>
                            <g id="girl" mask="url(#mask-20)" fill-rule="nonzero">
                                <g transform="translate(11.289474, 61.675068)" id="Shape">
                                    <path d="M4.91163277,12.9015243 L2.55391531,12.9015243 C2.19698773,12.9015243 1.90498932,12.6095259 1.90498932,12.2525983 L1.58055243,6.75399129 C1.58055243,6.75399129 1.05552988,2.19933835 3.77874159,1.60081994 C3.77874159,1.60081994 4.88598496,-0.553804511 8.43206806,0.136492283 C8.48054294,0.145946973 8.52713732,0.163341512 8.57420182,0.177915315 C9.39111832,0.431311436 10.1505754,0.879651761 10.7820024,1.50784013 C12.7131619,3.42949268 12.3248405,5.69987178 12.3732632,5.9822588 C12.3732632,7.55962485 12.3981797,5.80638069 12.0488263,12.2526506 C12.0488263,12.6095782 11.7568279,12.9015766 11.3999003,12.9015766 L8.89158686,12.9015766" fill="#4F4872"></path>
                                    <path d="M5.32157974,12.9015243 L5.32157974,12.1298963 C3.86404274,11.4858283 2.95534784,10.107533 2.87877008,8.59655877 C2.87824772,8.58652948 2.87668065,8.55471785 2.87647171,8.54876296 C2.87438227,8.49532568 2.87302414,8.44178393 2.87302414,8.3878243 C2.87375544,5.9601108 2.87156154,6.10746814 2.87485239,6.06755995 C2.85051049,4.77184962 3.05099169,2.05365255 5.11185279,1.60071547 C5.11185279,1.60071547 5.79039652,0.280663237 7.7859628,0.0381321725 C6.26542936,-0.128970321 4.48183617,0.32281757 3.77868935,1.60071547 C1.94108429,2.00460309 1.49901227,4.24212584 1.54257697,6.11284844 C1.5432038,6.13891413 1.54388287,6.16435299 1.5446664,6.18911278 C1.55542699,6.53590661 1.58055243,6.75388682 1.58055243,6.75388682 L1.90498932,12.2524939 C1.90498932,12.6094214 2.19698773,12.9014199 2.55391531,12.9014199 C3.12500989,12.9015243 4.69746577,12.9015243 5.32157974,12.9015243 Z" fill="#413A64"></path>
                                    <path d="M13.3723261,16.3415687 C13.2342667,15.6739422 12.8317895,15.1472481 12.2730748,14.8060435 C12.0159177,14.6587907 11.7508207,14.5465358 11.4661876,14.4645255 L8.72646933,13.782482 C8.6374072,13.7421559 8.5757689,13.6095291 8.5757689,13.4583063 L8.5757689,12.1368437 C7.54317056,12.587169 6.33970875,12.5800127 5.32163197,12.1299486 L5.32163197,13.4583585 C5.32163197,13.6095813 5.25999367,13.7422082 5.17093154,13.7825342 C2.85327899,14.399962 2.33781559,14.3855449 1.64370558,14.8012901 C0.857608231,15.274338 0.561274238,15.9089513 0.45910091,16.7467099 C9.12464583,16.7508192 13.4290542,16.6157721 13.3723261,16.3415687 Z" fill="#F4D0D1"></path>
                                    <path d="M1.8044353,16.2623791 C1.90232529,15.4596185 2.17577998,14.825423 2.94678116,14.336182 C2.72044321,14.4047155 2.20445746,14.4653613 1.64370558,14.8012378 L1.62432608,14.8060435 C0.857608231,15.2742857 0.561222002,15.9089513 0.45910091,16.7466577 L1.8044353,16.2623791 Z" fill="#EFC3C3"></path>
                                    <path d="M13.8540973,20.4624551 C13.4222636,16.6290748 13.4409118,16.6735275 13.3723261,16.3415164 C13.2334832,15.670129 12.8265659,15.143905 12.2730748,14.8059913 C12.0159177,14.6587384 11.7508207,14.5464836 11.4661876,14.4644733 L8.72646933,13.7824298 C8.6374072,13.7421037 8.5757689,13.6094769 8.5757689,13.4582541 L8.5757689,12.1367915 C7.53481282,12.5897808 6.33741037,12.5787068 5.32163197,12.1298963 L5.32163197,13.4582541 C5.32163197,13.6094769 5.25999367,13.7421037 5.17093154,13.7824298 C2.85327899,14.3998575 2.33781559,14.3853882 1.64370558,14.8011856 C0.864503364,15.2698457 0.561117531,15.9101528 0.45910091,16.7466055 L0.0432512861,20.4624028 L2.66434191,20.7374246 C2.80370716,20.7520507 2.90734309,20.8730811 2.90029125,21.0130732 L10.9989379,21.0352734 C10.9908935,20.8830059 11.103514,20.7510582 11.255207,20.7351262 L13.8540973,20.4624551 Z" fill="#6BEBB6"></path>
                                    <path d="M0.0431990503,20.4624551 L1.3462224,20.5991563 L1.8044353,16.2623269 C1.90227305,15.459723 2.1756755,14.825423 2.94678116,14.3361298 C2.62098615,14.4234681 2.14678908,14.499837 1.64370558,14.8012378 C1.63822082,14.802596 1.61878908,14.8074017 1.62432608,14.8060435 C1.0635742,15.1483451 0.662611793,15.6763973 0.525074792,16.3415687 C0.440609418,16.7494262 0.456593589,16.8384361 0.0431990503,20.4624551 Z" fill="#5EE3AC"></path>
                                    <path d="M9.82363118,14.0556233 L8.7264171,13.782482 C8.63735497,13.7421559 8.57571666,13.6095291 8.57571666,13.4583063 L8.57571666,11.9753827 C7.52608943,12.4322374 6.32722438,12.4128057 5.32157974,11.9684875 L5.32157974,13.4583063 C5.32157974,13.6095291 5.25994143,13.7421559 5.1708793,13.782482 L4.05715869,14.0597499 C5.39570241,16.3110107 8.48613217,16.3118987 9.82363118,14.0556233 Z" fill="#F4D0D1"></path>
                                    <path d="M6.67375702,14.2805509 L6.67375702,12.2989838 C6.19104551,12.2659185 5.73325049,12.1503205 5.32157974,11.9684353 C5.28067907,13.1451001 5.42819311,13.6658916 5.1708793,13.782482 L4.05715869,14.0597499 C4.33442659,14.5260594 4.70927107,14.9202833 5.15118639,15.210349 L6.30742699,14.7852014 C6.30753146,14.7851492 6.67375702,14.6033684 6.67375702,14.2805509 Z" fill="#EFC3C3"></path>
                                    <path d="M10.6292125,7.05204907 C10.858998,7.06280966 11.0400475,7.25195568 11.0400475,7.48200237 L11.0400475,7.7907685 C11.0389505,8.33908825 11.0771349,8.87152829 10.8666245,9.56908587 C10.6545991,10.2722327 10.2550993,10.9182335 9.65470044,11.4523451 C7.12157499,13.7082026 3.05120063,12.0052616 2.87877008,8.59655877 C2.87798655,8.58114919 2.87856114,8.60094658 2.87647171,8.54876296 C2.87438227,8.49532568 2.87302414,8.44178393 2.87302414,8.3878243 C2.87302414,7.90150851 2.87302414,6.79160111 2.87302414,6.31646379 L2.87302414,6.10960981 C2.87302414,5.86932489 3.04232054,5.66388128 3.27738188,5.61415275 C3.69443292,5.52597863 4.36832766,5.28637277 4.97964385,4.63572299 C5.13326949,4.47222477 5.39533676,4.48073922 5.53814958,4.65374436 C6.13133993,5.3725097 7.73315235,6.91670598 10.6292125,7.05204907 Z" fill="#F4D0D1"></path>
                                    <path d="M4.64078987,10.1986846 C4.10155916,9.10904472 4.2267685,8.33663316 4.21841076,6.82210685 C4.21841076,6.2965097 4.21841076,5.77232291 4.21841076,5.24578552 C3.85913257,5.45655718 3.52346498,5.56217808 3.27738188,5.61420499 C3.0422683,5.66393352 2.87302414,5.86937713 2.87302414,6.10966205 C2.87302414,6.63630392 2.87302414,7.8059169 2.87302414,8.3878243 C2.87302414,8.45531302 2.87657618,8.56041156 2.87683736,8.56662762 C2.8770463,8.57206015 2.8825833,8.66618916 2.88634428,8.71356708 C3.074759,11.1105659 5.2848057,12.8034776 7.62920301,12.4149996 C6.34038781,12.2014072 5.22635378,11.3781702 4.64078987,10.1986846 Z" fill="#EFC3C3"></path>
                                    <path d="M10.6108255,14.2516122 L9.82363118,14.0556755 C9.22082944,15.0726031 8.15469569,15.7489529 6.93916739,15.7489529 C6.93916739,15.7489007 10.6271231,19.4372742 10.6108255,14.2516122 Z" fill="#F3F5F7"></path>
                                    <path d="M3.2848516,14.2516122 L4.0720459,14.0556755 C4.67484765,15.0726031 5.7409814,15.7489529 6.9565097,15.7489529 C6.9565097,15.7489007 3.26855402,19.4372742 3.2848516,14.2516122 Z" fill="#F3F5F7"></path>
                                    <path d="M5.20222082,15.2324448 C4.5515188,15.578873 3.80167313,15.7441994 3.3214167,15.1016985 C3.70352196,19.0020973 6.9565097,15.7489007 6.9565097,15.7489007 C6.31468777,15.7489007 5.71455006,15.5601725 5.20222082,15.2324448 Z" fill="#FFFFFF"></path>
                                    <path d="M8.69345627,15.2324448 C9.34415829,15.578873 10.094004,15.7441994 10.5742604,15.1016985 C10.1921551,19.0020973 6.93916739,15.7489007 6.93916739,15.7489007 C7.58104155,15.7489007 8.18112703,15.5601725 8.69345627,15.2324448 Z" fill="#FFFFFF"></path>
                                </g>
                            </g>
                            <path d="M9.06000694,38.6778373 L56.2695249,38.6778373 C57.0276618,38.6778373 57.6422532,39.2924287 57.6422532,40.0505656 C57.6422532,40.8087025 57.0276618,41.4232939 56.2695249,41.4232939 L9.06000694,41.4232939 C8.30187002,41.4232939 7.68727861,40.8087025 7.68727861,40.0505656 C7.68727861,39.2924287 8.30187002,38.6778373 9.06000694,38.6778373 Z M9.06000694,46.9142072 L15.1000116,46.9142072 C15.8581485,46.9142072 16.4727399,47.5287986 16.4727399,48.2869356 C16.4727399,49.0450725 15.8581485,49.6596639 15.1000116,49.6596639 L9.06000694,49.6596639 C8.30187002,49.6596639 7.68727861,49.0450725 7.68727861,48.2869356 C7.68727861,47.5287986 8.30187002,46.9142072 9.06000694,46.9142072 Z M21.1400162,46.9142072 L27.1800208,46.9142072 C27.9381577,46.9142072 28.5527491,47.5287986 28.5527491,48.2869356 C28.5527491,49.0450725 27.9381577,49.6596639 27.1800208,49.6596639 L21.1400162,49.6596639 C20.3818793,49.6596639 19.7672879,49.0450725 19.7672879,48.2869356 C19.7672879,47.5287986 20.3818793,46.9142072 21.1400162,46.9142072 Z M32.9919762,46.9142072 L45.6504541,46.9142072 C46.408591,46.9142072 47.0231825,47.5287986 47.0231825,48.2869356 C47.0231825,49.0450725 46.408591,49.6596639 45.6504541,49.6596639 L32.9919762,49.6596639 C32.2338393,49.6596639 31.6192479,49.0450725 31.6192479,48.2869356 C31.6192479,47.5287986 32.2338393,46.9142072 32.9919762,46.9142072 Z" id="Combined-Shape" fill="#D9E3EC"></path>
                            <g id="hand-bag" transform="translate(17.629790, 3.701639)" fill-rule="nonzero">
                                <path d="M30.0185288,23.2600462 C30.0299855,23.326287 30.0398827,23.4028573 30.0484603,23.4887963 C30.3536543,26.5574938 27.9208602,29.2109701 24.8406686,29.2109701 L14.8662006,29.2109701 L5.1685547,29.2109701 C2.13173087,29.2109701 -0.268972305,26.5988718 0.0242850177,23.5725732 C0.0317829038,23.4957026 0.0403604855,23.4277802 0.0503776614,23.369827 L1.88352084,10.6596372 C2.04217612,9.73851142 2.84013115,9.06547347 3.77376793,9.06547347 L14.8662006,9.06547347 L25.9585734,9.06547347 C26.8922102,9.06547347 27.6902252,9.73851142 27.8488205,10.6596372 L30.0185288,23.2600462 Z M16.9829606,13.7729292 C17.2748975,13.7729292 17.5118378,13.4983656 17.5118378,13.1586749 C17.5118378,12.8189841 17.2748975,12.5444205 16.9829606,12.5444205 L13.8098173,12.5444205 C13.5178805,12.5444205 13.2809401,12.8189841 13.2809401,13.1586749 C13.2809401,13.4983656 13.5178805,13.7729292 13.8098173,13.7729292 L16.9829606,13.7729292 Z" id="Combined-Shape" fill="#948BEC"></path>
                                <g id="Group" transform="translate(8.489888, 9.065473)" fill="#FFFFFF">
                                    <path d="M2.12589883,2.16377895 L2.12589883,5.84623765 L1.09088397,5.84623765 L1.09088397,2.16377895 L0.670429336,2.16377895 C0.330935082,2.16377895 0.0561622336,1.8844644 0.0561622336,1.53935867 L0.0561622336,0.0594742734 L3.16073781,0.0594742734 L3.16073781,1.53929908 C3.16067919,1.88440481 2.88590634,2.16377895 2.54641209,2.16377895 L2.12589883,2.16377895 Z" id="Combined-Shape"></path>
                                </g>
                                <path d="M12.087298,16.4761383 C12.087298,17.6284098 11.1530716,18.5626362 10.0008001,18.5626362 C8.84852855,18.5626362 7.91430223,17.6284098 7.91430223,16.4761383 C7.91430223,15.3238667 8.84852855,14.3896404 10.0008001,14.3896404 C11.1530716,14.3896404 12.087298,15.3238077 12.087298,16.4761383" id="Shape" fill="#FFFFFF"></path>
                                <path d="M23.3112175,9.06547347 C22.7756429,5.71285093 20.4398626,0 14.8932778,0 C9.34669309,0 7.01145339,5.71285093 6.47533819,9.06547347 L8.64148386,9.06547347 C8.79790335,8.312479 9.13038488,7.02843164 9.76669505,5.7640171 C10.978886,3.35473685 12.7038254,2.13303126 14.8932778,2.13303126 C17.0827303,2.13303126 18.8076696,3.35473685 20.0198606,5.7640171 C20.6561708,7.02837123 20.989193,8.312479 21.1456124,9.06547347 L23.3112175,9.06547347 Z" id="Shape" fill="#6BEBB6"></path>
                            </g>
                        </g>
                    </g>
                    <path d="M202.414956,123.70247 L205.232624,128.513812 C205.288443,128.609127 205.256426,128.731645 205.161111,128.787465 C205.127316,128.807256 205.088453,128.81669 205.049345,128.814596 L198.656492,128.472235 C198.546193,128.466329 198.461566,128.372125 198.467473,128.261826 C198.469706,128.220134 198.484931,128.180186 198.511013,128.147583 L202.086199,123.6786 C202.155201,123.592348 202.281059,123.578364 202.367312,123.647366 C202.386432,123.662662 202.402582,123.68134 202.414956,123.70247 Z" id="Triangle-2" fill="#C3CCD5" transform="translate(201.863627, 126.209207) rotate(73.000000) translate(-201.863627, -126.209207) "></path>
                    <path d="M91.5291884,68.4481478 C91.2816832,68.1881257 91.2918302,67.7766936 91.5518522,67.5291884 C91.8118743,67.2816832 92.2233064,67.2918302 92.4708116,67.5518522 C93.2935791,68.416229 93.9310666,69.0862149 94.538889,69.7254565 C94.7862559,69.9856101 94.7758902,70.3970368 94.5157366,70.6444037 C94.255583,70.8917706 93.8441563,70.8814049 93.5967894,70.6212513 C92.989152,69.9822043 92.3518106,69.3123719 91.5291884,68.4481478 Z M95.6629715,72.7965794 C95.4159167,72.5361294 95.4267758,72.1247154 95.6872258,71.8776607 C95.9476759,71.6306059 96.3590899,71.6414649 96.6061446,71.901915 C97.3397658,72.6753131 98.0211462,73.3949426 98.6686565,74.0803282 C98.9151848,74.3412767 98.9034948,74.7526679 98.6425462,74.9991961 C98.3815977,75.2457243 97.9702065,75.2340343 97.7236783,74.9730858 C97.0768028,74.2883722 96.3960177,73.5693715 95.6629715,72.7965794 Z M99.7788645,77.1546976 C99.5331289,76.8930025 99.5460666,76.4816487 99.8077617,76.2359131 C100.069457,75.9901775 100.480811,76.0031151 100.726546,76.2648102 C101.444067,77.0289308 102.124916,77.7568963 102.77687,78.4571768 C103.021483,78.7199217 103.006784,79.1312164 102.744039,79.3758292 C102.481294,79.620442 102.07,79.605743 101.825387,79.3429981 C101.174744,78.6441266 100.495156,77.9175095 99.7788645,77.1546976 Z M103.862564,81.5433828 C103.619487,81.2792163 103.636584,80.8680143 103.90075,80.6249375 C104.164917,80.3818607 104.576119,80.3989573 104.819196,80.6631238 C105.525204,81.4303863 106.199235,82.1682762 106.846078,82.8822346 C107.087107,83.1482716 107.066833,83.5593291 106.800796,83.8003574 C106.534759,84.0413857 106.123702,84.0211122 105.882673,83.7550752 C105.238146,83.0436726 104.566365,82.3082471 103.862564,81.5433828 Z M107.882513,85.983899 C107.644174,85.7154494 107.668584,85.3046167 107.937034,85.0662785 C108.205484,84.8279402 108.616316,84.8523503 108.854655,85.1207999 C109.545234,85.8986268 110.205243,86.6512829 110.838238,87.3830825 C111.073087,87.6545896 111.04337,88.0650725 110.771863,88.2999218 C110.500356,88.5347711 110.089873,88.5050541 109.855024,88.233547 C109.225787,87.5060919 108.569461,86.757636 107.882513,85.983899 Z M111.792203,90.5090744 C111.561834,90.2337559 111.598272,89.8238149 111.873591,89.5934457 C112.148909,89.3630764 112.55885,89.399515 112.78922,89.6748335 C113.455788,90.4714612 114.091792,91.246924 114.700193,92.00516 C114.924857,92.2851536 114.880003,92.6942593 114.60001,92.9189234 C114.320016,93.1435874 113.910911,93.0987339 113.686247,92.8187404 C113.083543,92.0676052 112.453175,91.2990142 111.792203,90.5090744 Z M115.524186,95.167784 C115.306708,94.8821729 115.361941,94.4743388 115.647552,94.2568609 C115.933163,94.0393831 116.340997,94.094616 116.558475,94.3802271 C117.1863,95.2047414 117.783206,96.0133913 118.351815,96.8101295 C118.560353,97.1023325 118.492528,97.5082625 118.200325,97.7167996 C117.908122,97.9253367 117.502192,97.8575122 117.293655,97.5653092 C116.73298,96.7796901 116.144028,95.9818153 115.524186,95.167784 Z M118.980166,100.02057 C118.782567,99.7208619 118.865342,99.3177149 119.16505,99.1201159 C119.464758,98.9225169 119.867906,99.0052926 120.065505,99.3050006 C120.587164,100.096226 121.082952,100.880535 121.554729,101.661201 C121.617217,101.764413 121.617217,101.764413 121.678501,101.864859 C121.865724,102.171156 121.769195,102.571233 121.462898,102.758456 C121.156601,102.945679 120.756524,102.84915 120.569301,102.542853 C120.506304,102.439599 120.506304,102.439599 120.442102,102.333556 C119.979256,101.567668 119.492562,100.797746 118.980166,100.02057 Z M122.20538,105.08714 C122.006761,104.788108 122.088161,104.384681 122.387194,104.186061 C122.686227,103.987441 123.089654,104.068842 123.288273,104.367875 C123.432917,104.585455 123.432917,104.585455 123.577865,104.80297 C124.52979,106.230976 124.554111,106.267592 124.898155,106.796288 C124.923411,106.835113 124.923411,106.835113 124.948633,106.873947 C125.144114,107.175042 125.058497,107.577595 124.757402,107.773075 C124.456308,107.968555 124.053755,107.882938 123.858275,107.581844 C123.833433,107.543597 123.833433,107.543597 123.808548,107.505341 C123.46841,106.982648 123.444207,106.946209 122.496172,105.524038 C122.350798,105.305884 122.350798,105.305884 122.20538,105.08714 Z M125.402472,110.106084 C125.226493,109.793191 125.337484,109.396883 125.650377,109.220904 C125.96327,109.044926 126.359578,109.155917 126.535557,109.46881 C127.081372,110.439279 127.528042,111.349731 127.886814,112.241785 C128.020766,112.574843 127.859358,112.953428 127.526301,113.08738 C127.193243,113.221331 126.814658,113.059924 126.680706,112.726866 C126.344536,111.89101 125.922246,111.030252 125.402472,110.106084 Z M127.490576,115.50898 C127.429862,115.155166 127.667466,114.819125 128.021279,114.758411 C128.375093,114.697696 128.711134,114.9353 128.771849,115.289114 C128.953835,116.349642 128.996554,117.402831 128.891543,118.46108 C128.856095,118.818311 128.537766,119.079167 128.180536,119.043719 C127.823305,119.008271 127.562449,118.689942 127.597897,118.332712 C127.691161,117.392833 127.653186,116.456591 127.490576,115.50898 Z M126.941209,121.108333 C127.066726,120.772006 127.441124,120.601111 127.777451,120.726628 C128.113778,120.852145 128.284673,121.226543 128.159156,121.56287 C127.813833,122.488174 127.352626,123.420639 126.770542,124.364446 C126.582099,124.669994 126.18164,124.764926 125.876092,124.576482 C125.570545,124.388039 125.475613,123.98758 125.664057,123.682032 C126.202607,122.80881 126.626222,121.952348 126.941209,121.108333 Z M123.946189,126.058527 C124.174855,125.781793 124.584564,125.742826 124.861298,125.971492 C125.138033,126.200159 125.177,126.609867 124.948333,126.886602 C124.801704,127.064053 124.650834,127.242025 124.495575,127.420671 C123.960144,128.036418 123.379592,128.600595 122.752829,129.116804 C122.475729,129.345027 122.066084,129.305404 121.837861,129.028304 C121.609638,128.751204 121.64926,128.341558 121.926361,128.113335 C122.497844,127.642654 123.026672,127.128743 123.514472,126.567772 C123.662579,126.397355 123.806473,126.227613 123.946189,126.058527 Z M119.517463,129.709939 C119.835089,129.542655 120.228186,129.664531 120.395471,129.982157 C120.562755,130.299783 120.440878,130.69288 120.123252,130.860165 C119.21102,131.340609 118.244849,131.738043 117.238909,132.049459 C116.89598,132.155622 116.53192,131.963686 116.425757,131.620758 C116.319594,131.27783 116.51153,130.91377 116.854458,130.807607 C117.784863,130.519574 118.676915,130.15263 119.517463,129.709939 Z M114.007967,131.425085 C114.363972,131.378923 114.689992,131.6301 114.736154,131.986105 C114.782316,132.34211 114.531139,132.66813 114.175135,132.714292 C113.147465,132.847547 112.1071,132.896238 111.072692,132.860454 C110.713922,132.848042 110.433142,132.54714 110.445553,132.188369 C110.457965,131.829599 110.758867,131.548819 111.117638,131.561231 C112.081366,131.59457 113.050791,131.549199 114.007967,131.425085 Z M108.264073,131.225286 C108.615785,131.297184 108.842618,131.640588 108.77072,131.992299 C108.698821,132.34401 108.355418,132.570844 108.003706,132.498945 C106.962246,132.286045 105.959211,131.984093 105.015313,131.598203 C104.683025,131.462355 104.523778,131.082855 104.659627,130.750566 C104.795475,130.418278 105.174974,130.259032 105.507263,130.39488 C106.375306,130.749759 107.300806,131.02837 108.264073,131.225286 Z M102.93886,128.99839 C103.231809,129.205877 103.30109,129.611561 103.093602,129.904511 C102.886115,130.19746 102.480431,130.26674 102.187482,130.059253 C101.294712,129.42693 100.513109,128.70145 99.861138,127.89316 C99.6357581,127.613743 99.6795642,127.204524 99.9589818,126.979144 C100.238399,126.753764 100.647619,126.79757 100.872999,127.076988 C101.448113,127.789993 102.141732,128.433807 102.93886,128.99839 Z M99.3584712,124.580585 C99.5061141,124.907803 99.3605395,125.292755 99.0333211,125.440397 C98.7061027,125.58804 98.3211516,125.442466 98.1735087,125.115247 C97.738475,124.15109 97.4209508,123.143017 97.2236903,122.108434 C97.1564551,121.755802 97.3878153,121.415431 97.7404478,121.348196 C98.0930803,121.280961 98.4334505,121.512321 98.5006857,121.864954 C98.6788948,122.799616 98.965627,123.709931 99.3584712,124.580585 Z M98.2949638,119.002724 C98.2792686,119.361365 97.9758085,119.639379 97.6171667,119.623683 C97.2585249,119.607988 96.9805117,119.304528 96.9962069,118.945886 C97.0420313,117.89878 97.2064821,116.856189 97.485826,115.839162 C97.580906,115.492997 97.9386056,115.289453 98.2847704,115.384533 C98.6309352,115.479613 98.8344797,115.837312 98.7393997,116.183477 C98.4857656,117.106901 98.3365233,118.053073 98.2949638,119.002724 Z M99.8224669,113.47807 C99.6525222,113.794281 99.2584155,113.912852 98.942205,113.742908 C98.6259945,113.572963 98.5074226,113.178856 98.6773674,112.862646 C99.1730252,111.940392 99.7698402,111.072311 100.45899,110.274482 C100.693652,110.002814 101.104115,109.972814 101.375783,110.207477 C101.647452,110.442139 101.677451,110.852601 101.442789,111.12427 C100.815962,111.849948 100.273197,112.639412 99.8224669,113.47807 Z M103.539248,109.173648 C103.251561,109.388373 102.844276,109.329227 102.629551,109.041541 C102.414826,108.753854 102.473973,108.346569 102.761659,108.131844 C103.59139,107.512544 104.492873,106.976243 105.457894,106.531026 C105.78386,106.380639 106.170021,106.522975 106.320407,106.848942 C106.470793,107.174909 106.328457,107.561069 106.002491,107.711455 C105.119733,108.11872 104.29634,108.608564 103.539248,109.173648 Z M108.784609,106.624213 C108.443572,106.736303 108.076241,106.550705 107.964151,106.209668 C107.852061,105.868631 108.03766,105.501299 108.378696,105.389209 C109.41274,105.049347 110.408695,104.794141 111.372082,104.620781 C111.725393,104.557204 112.063347,104.792079 112.126924,105.145389 C112.190502,105.4987 111.955627,105.836654 111.602317,105.900231 C110.699809,106.062635 109.762399,106.30284 108.784609,106.624213 Z M114.480931,105.642245 C114.121954,105.6398 113.832929,105.346809 113.835374,104.987833 C113.837819,104.628856 114.13081,104.33983 114.489787,104.342275 C115.560427,104.349569 116.5959,104.46861 117.609091,104.696093 C117.959357,104.774735 118.179551,105.122433 118.100909,105.472698 C118.022267,105.822963 117.674569,106.043158 117.324304,105.964516 C116.401435,105.757312 115.458457,105.648904 114.480931,105.642245 Z M120.082532,106.894886 C119.755142,106.747626 119.609117,106.362846 119.756377,106.035455 C119.903637,105.708064 120.288417,105.562039 120.615808,105.709299 C121.512291,106.112536 122.407305,106.604327 123.330847,107.193491 C123.633493,107.38656 123.722322,107.788417 123.529253,108.091063 C123.336183,108.393708 122.934326,108.482537 122.631681,108.289468 C121.758854,107.732657 120.918524,107.270914 120.082532,106.894886 Z M125.030381,109.984325 C124.745253,109.766214 124.690924,109.358259 124.909035,109.073131 C125.127145,108.788002 125.535101,108.733674 125.820229,108.951784 C126.522472,109.488968 127.245939,110.069541 128.181372,110.840413 C128.458408,111.068713 128.497916,111.47837 128.269616,111.755406 C128.041316,112.032443 127.631659,112.071951 127.354623,111.843651 C126.430274,111.081913 125.717994,110.510318 125.030381,109.984325 Z M129.675909,113.764918 C129.398609,113.536936 129.358629,113.127326 129.586611,112.850027 C129.814592,112.572727 130.224203,112.532747 130.501502,112.760729 C131.372107,113.476496 132.103831,114.06409 132.828045,114.624531 C133.111948,114.844233 133.163994,115.252486 132.944292,115.53639 C132.72459,115.820293 132.316337,115.872339 132.032433,115.652637 C131.296801,115.08336 130.555611,114.488164 129.675909,113.764918 Z M134.49541,117.465093 C134.200576,117.260293 134.127588,116.855259 134.332388,116.560425 C134.537187,116.26559 134.942221,116.192603 135.237055,116.397402 C136.064873,116.972425 136.887134,117.506082 137.71857,118.004786 C138.026423,118.189439 138.126296,118.588694 137.941643,118.896547 C137.75699,119.2044 137.357735,119.304273 137.049882,119.11962 C136.192829,118.605551 135.346352,118.056179 134.49541,117.465093 Z M139.697577,120.575508 C139.376547,120.414854 139.246535,120.024372 139.407189,119.703341 C139.567843,119.382311 139.958326,119.2523 140.279356,119.412954 L140.290689,119.418622 C141.130188,119.838372 142.023914,120.252406 142.967318,120.658739 C143.297021,120.800745 143.44918,121.183142 143.307173,121.512846 C143.165167,121.842549 142.78277,121.994708 142.453067,121.852701 C141.487503,121.436824 140.571428,121.012436 139.709311,120.581378 L139.697577,120.575508 Z M145.26267,122.985967 C144.926903,122.858958 144.757671,122.483805 144.884679,122.148039 C145.011688,121.812272 145.386841,121.64304 145.722607,121.770048 C146.625622,122.111626 147.561374,122.445098 148.526238,122.769181 C148.86654,122.883483 149.049749,123.252013 148.935447,123.592314 C148.821144,123.932616 148.452615,124.115825 148.112313,124.001523 C147.13221,123.672321 146.181126,123.333385 145.26267,122.985967 Z M151.00489,124.919455 C150.661016,124.816395 150.465798,124.454084 150.568858,124.110211 C150.671918,123.766337 151.034229,123.571119 151.378103,123.674179 C152.314889,123.954937 153.271752,124.226192 154.245668,124.487047 C154.592431,124.579924 154.798245,124.936323 154.705368,125.283085 C154.61249,125.629847 154.256092,125.835662 153.90933,125.742784 C152.923156,125.478646 151.954002,125.203907 151.00489,124.919455 Z M156.828251,126.481618 C156.479083,126.398238 156.263619,126.047589 156.346999,125.698422 C156.430379,125.349254 156.781028,125.13379 157.130196,125.21717 C158.08964,125.446282 159.060579,125.664775 160.040417,125.871998 C160.391634,125.946275 160.616137,126.291207 160.54186,126.642423 C160.467582,126.99364 160.122651,127.218143 159.771434,127.143866 C158.780604,126.934319 157.798677,126.713352 156.828251,126.481618 Z M162.739813,127.73238 C162.386829,127.66701 162.153672,127.327869 162.219042,126.974885 C162.284411,126.621902 162.623553,126.388745 162.976536,126.454114 C163.952845,126.634918 164.934036,126.804026 165.917836,126.960957 C166.272339,127.017506 166.513879,127.350729 166.457331,127.705232 C166.400783,128.059735 166.067559,128.301275 165.713056,128.244727 C164.718575,128.086093 163.726736,127.915149 162.739813,127.73238 Z M168.697836,128.682642 C168.342027,128.634997 168.092211,128.307932 168.139856,127.952123 C168.187502,127.596314 168.514567,127.346498 168.870376,127.394143 C169.858898,127.526514 170.846684,127.64604 171.831722,127.752364 C172.188634,127.790889 172.446738,128.111454 172.408213,128.468366 C172.369689,128.825278 172.049124,129.083382 171.692212,129.044857 C170.696104,128.937338 169.697308,128.81648 168.697836,128.682642 Z M174.706489,129.329962 C174.348678,129.300953 174.08213,128.987374 174.111139,128.629563 C174.140147,128.271752 174.453726,128.005205 174.811538,128.034213 C175.80988,128.115151 176.802235,128.181861 177.786783,128.234079 C178.145264,128.253092 178.420458,128.559111 178.401445,128.917592 C178.382432,129.276074 178.076413,129.551267 177.717931,129.532254 C176.721227,129.479392 175.716807,129.41187 174.706489,129.329962 Z M180.726,129.647604 C180.367112,129.639234 180.082962,129.341512 180.091333,128.982625 C180.099703,128.623737 180.397425,128.339587 180.756312,128.347958 C181.761384,128.371399 182.755082,128.378871 183.735716,128.370177 C184.094687,128.366994 184.388271,128.655418 184.391453,129.014389 C184.394636,129.37336 184.106212,129.666943 183.747242,129.670126 C182.752531,129.678945 181.744891,129.671368 180.726,129.647604 Z M186.777135,129.590499 C186.418501,129.606386 186.114893,129.328535 186.099006,128.969901 C186.083119,128.611268 186.360969,128.307659 186.719603,128.291772 C187.727178,128.247138 188.71725,128.184212 189.688201,128.102855 C190.045932,128.07288 190.36023,128.33858 190.390205,128.696311 C190.42018,129.054042 190.15448,129.36834 189.796749,129.398315 C188.808612,129.481112 187.801541,129.545119 186.777135,129.590499 Z M192.828387,129.07729 C192.472356,129.123248 192.14648,128.871884 192.100522,128.515853 C192.054564,128.159822 192.305928,127.833945 192.661959,127.787987 C193.664935,127.658519 194.642733,127.507533 195.593736,127.33494 C195.946951,127.270837 196.285255,127.505208 196.349358,127.858423 C196.413462,128.211639 196.17909,128.549942 195.825875,128.614046 C194.852731,128.790657 193.853038,128.945024 192.828387,129.07729 Z M198.789308,127.986971 C198.440538,128.072 198.088874,127.858197 198.003845,127.509427 C197.918815,127.160658 198.132619,126.808994 198.481388,126.723964 C198.936154,126.613093 199.38336,126.49664 199.822835,126.374601 C200.168731,126.278548 200.527002,126.481086 200.623054,126.826983 C200.719107,127.172879 200.516569,127.531149 200.170673,127.627202 C199.717839,127.752951 199.257327,127.872868 198.789308,127.986971 Z" id="Path-16" fill="#C3CCD5" fill-rule="nonzero"></path>
                </g>
            </g>
        </g>
    </g>
</svg>