<?xml version="1.0" encoding="UTF-8"?>
<svg width="93px" height="2px" viewBox="0 0 93 2" version="1.1" xmlns="http://www.w3.org/2000/svg" xmlns:xlink="http://www.w3.org/1999/xlink">
    <!-- Generator: Sketch 51.3 (57544) - http://www.bohemiancoding.com/sketch -->
    <title>timeline-dashimg</title>
    <desc>Created with Sketch.</desc>
    <defs></defs>
    <g id="Timeline-content-request" stroke="none" stroke-width="1" fill="none" fill-rule="evenodd">
        <path d="M0.5,1.5 C0.223857625,1.5 0,1.27614237 0,1 C0,0.723857625 0.223857625,0.5 0.5,0.5 L4.5,0.5 C4.77614237,0.5 5,0.723857625 5,1 C5,1.27614237 4.77614237,1.5 4.5,1.5 L0.5,1.5 Z M8.5,1.5 C8.22385763,1.5 8,1.27614237 8,1 C8,0.723857625 8.22385763,0.5 8.5,0.5 L12.5,0.5 C12.7761424,0.5 13,0.723857625 13,1 C13,1.27614237 12.7761424,1.5 12.5,1.5 L8.5,1.5 Z M16.5,1.5 C16.2238576,1.5 16,1.27614237 16,1 C16,0.723857625 16.2238576,0.5 16.5,0.5 L20.5,0.5 C20.7761424,0.5 21,0.723857625 21,1 C21,1.27614237 20.7761424,1.5 20.5,1.5 L16.5,1.5 Z M24.5,1.5 C24.2238576,1.5 24,1.27614237 24,1 C24,0.723857625 24.2238576,0.5 24.5,0.5 L28.5,0.5 C28.7761424,0.5 29,0.723857625 29,1 C29,1.27614237 28.7761424,1.5 28.5,1.5 L24.5,1.5 Z M32.5,1.5 C32.2238576,1.5 32,1.27614237 32,1 C32,0.723857625 32.2238576,0.5 32.5,0.5 L36.5,0.5 C36.7761424,0.5 37,0.723857625 37,1 C37,1.27614237 36.7761424,1.5 36.5,1.5 L32.5,1.5 Z M40.5,1.5 C40.2238576,1.5 40,1.27614237 40,1 C40,0.723857625 40.2238576,0.5 40.5,0.5 L44.5,0.5 C44.7761424,0.5 45,0.723857625 45,1 C45,1.27614237 44.7761424,1.5 44.5,1.5 L40.5,1.5 Z M48.5,1.5 C48.2238576,1.5 48,1.27614237 48,1 C48,0.723857625 48.2238576,0.5 48.5,0.5 L52.5,0.5 C52.7761424,0.5 53,0.723857625 53,1 C53,1.27614237 52.7761424,1.5 52.5,1.5 L48.5,1.5 Z M56.5,1.5 C56.2238576,1.5 56,1.27614237 56,1 C56,0.723857625 56.2238576,0.5 56.5,0.5 L60.5,0.5 C60.7761424,0.5 61,0.723857625 61,1 C61,1.27614237 60.7761424,1.5 60.5,1.5 L56.5,1.5 Z M64.5,1.5 C64.2238576,1.5 64,1.27614237 64,1 C64,0.723857625 64.2238576,0.5 64.5,0.5 L68.5,0.5 C68.7761424,0.5 69,0.723857625 69,1 C69,1.27614237 68.7761424,1.5 68.5,1.5 L64.5,1.5 Z M72.5,1.5 C72.2238576,1.5 72,1.27614237 72,1 C72,0.723857625 72.2238576,0.5 72.5,0.5 L76.5,0.5 C76.7761424,0.5 77,0.723857625 77,1 C77,1.27614237 76.7761424,1.5 76.5,1.5 L72.5,1.5 Z M80.5,1.5 C80.2238576,1.5 80,1.27614237 80,1 C80,0.723857625 80.2238576,0.5 80.5,0.5 L84.5,0.5 C84.7761424,0.5 85,0.723857625 85,1 C85,1.27614237 84.7761424,1.5 84.5,1.5 L80.5,1.5 Z M88.5,1.5 C88.2238576,1.5 88,1.27614237 88,1 C88,0.723857625 88.2238576,0.5 88.5,0.5 L92.5,0.5 C92.7761424,0.5 93,0.723857625 93,1 C93,1.27614237 92.7761424,1.5 92.5,1.5 L88.5,1.5 Z" id="timeline-dashimg" fill="#D5DDE5" fill-rule="nonzero"></path>
    </g>
</svg>