<?xml version="1.0" encoding="UTF-8"?>
<svg width="35px" height="35px" viewBox="0 0 35 35" version="1.1" xmlns="http://www.w3.org/2000/svg" xmlns:xlink="http://www.w3.org/1999/xlink">
    <!-- Generator: sketchtool 51.3 (57544) - http://www.bohemiancoding.com/sketch -->
    <title>A87E20F2-1E00-4719-A6A1-CC40810F32D6</title>
    <desc>Created with sketchtool.</desc>
    <defs></defs>
    <g id="Invite-user" stroke="none" stroke-width="1" fill="none" fill-rule="evenodd">
        <g id="01-Agency-inviteuser" transform="translate(-18.000000, -15.000000)" fill="#203149">
            <g id="lefy-menubar">
                <g id="catalog-logo">
                    <path d="M18.0180934,49.0325424 L17.999251,49.0325424 L17.999251,44.5124546 C17.999251,44.112333 18.3236136,43.7879704 18.7237351,43.7879704 C19.1238567,43.7879704 19.4482193,44.112333 19.4482193,44.5124546 L19.4482193,48.5989444 L23.4362329,48.5989444 C23.8231237,48.5989444 24.1367607,48.9125814 24.1367607,49.2994722 C24.1367607,49.686363 23.8231237,50 23.4362329,50 L18.0180934,50 L18.0180934,49.0325424 Z M51.5517807,48.5989444 L51.5517807,44.5124546 C51.5517807,44.112333 51.8761433,43.7879704 52.2762649,43.7879704 C52.6763864,43.7879704 53.000749,44.112333 53.000749,44.5124546 L53.000749,49.0325424 L52.9819066,49.0325424 L52.9819066,50 L47.5637671,50 C47.1768763,50 46.8632393,49.686363 46.8632393,49.2994722 C46.8632393,48.9125814 47.1768763,48.5989444 47.5637671,48.5989444 L51.5517807,48.5989444 Z M52.9819066,15.9674576 L53.000749,15.9674576 L53.000749,20.4875454 C53.000749,20.887667 52.6763864,21.2120296 52.2762649,21.2120296 C51.8761433,21.2120296 51.5517807,20.887667 51.5517807,20.4875454 L51.5517807,16.4010556 L47.5637671,16.4010556 C47.1768763,16.4010556 46.8632393,16.0874186 46.8632393,15.7005278 C46.8632393,15.313637 47.1768763,15 47.5637671,15 L52.9819066,15 L52.9819066,15.9674576 Z M19.4482193,16.4010556 L19.4482193,20.4875454 C19.4482193,20.887667 19.1238567,21.2120296 18.7237351,21.2120296 C18.3236136,21.2120296 17.999251,20.887667 17.999251,20.4875454 L17.999251,15.9674576 L18.0180934,15.9674576 L18.0180934,15 L23.4362329,15 C23.8231237,15 24.1367607,15.313637 24.1367607,15.7005278 C24.1367607,16.0874186 23.8231237,16.4010556 23.4362329,16.4010556 L19.4482193,16.4010556 Z M46.5678554,23.7061597 C45.3049382,23.7061597 44.2811416,22.6550251 44.2811416,21.3583849 C44.2811416,20.0617447 45.3049382,19.0106101 46.5678554,19.0106101 C47.8307725,19.0106101 48.8545691,20.0617447 48.8545691,21.3583849 C48.8545691,22.6550251 47.8307725,23.7061597 46.5678554,23.7061597 Z M43.8948135,28.9099771 L39.7503385,30.7876682 C37.890794,28.435485 35.9745314,27.7257746 33.7220112,28.5328167 C31.7354442,29.2441811 30.4271693,31.1490458 30.4749826,33.2605311 C30.5227959,35.3720165 31.9159517,37.2155821 33.9326786,37.8361066 C36.1763547,38.5337834 38.6010274,37.5581679 39.7381846,35.5001454 L41.816499,36.4126303 L43.9231725,37.3332261 C43.3508372,38.4604409 42.555529,39.4593993 41.5855752,40.2693996 C36.3188915,44.758825 27.9772747,42.2119784 26.1136789,35.5325894 C24.8982903,31.1729396 27.1710669,26.5253501 31.4613885,24.5827712 C35.9272798,22.5979717 41.1704445,24.2662367 43.6719922,28.4679289 C43.7408642,28.6139265 43.8016337,28.7437021 43.8948135,28.9099771 Z"></path>
                </g>
            </g>
        </g>
    </g>
</svg>