<?xml version="1.0" encoding="UTF-8"?>
<svg width="1506px" height="192px" viewBox="0 0 1506 192" version="1.1" xmlns="http://www.w3.org/2000/svg" xmlns:xlink="http://www.w3.org/1999/xlink">
    <!-- Generator: Sketch 53.1 (72631) - https://sketchapp.com -->
    <title>catalog-logotext</title>
    <desc>Created with Sketch.</desc>
    <g id="Updated-DecPresentation-Feb2019" stroke="none" stroke-width="1" fill="none" fill-rule="evenodd">
        <path d="M59.3415852,25.7879488 C50.8487041,29.558498 43.7150589,34.7523461 37.9367438,41.3702882 C26.1918517,54.7946203 20.3229208,72.1707933 20.3229208,93.4988073 C20.3229208,114.831592 26.1918517,132.207765 37.9367438,145.627326 C50.2182998,159.790343 68.0125731,166.86549 91.316439,166.86549 C104.140908,166.86549 115.386633,163.556121 125.05205,156.937384 C134.714343,150.317852 141.894077,141.401958 146.595159,130.183341 L168,130.183341 C162.038891,147.467278 152.192242,161.073697 138.466303,171.004188 C123.833425,181.670183 106.579721,187 86.7106602,187 C60.5141215,187 39.2920739,177.898044 23.0327998,159.695721 C7.67655839,142.227312 0,120.162999 0,93.4988073 C0,66.8409764 7.67655839,44.7742783 23.0327998,27.3042789 C39.2920739,9.10195638 60.5141215,0 86.7106602,0 C106.579721,0 123.833425,5.33379256 138.466303,15.9958117 C152.192242,25.9263029 162.038891,39.5343122 168,56.8158637 L146.595159,56.8158637 C141.894077,45.602018 134.714343,36.6821485 125.05205,30.061821 C115.386633,23.4438789 104.140908,20.1337152 91.316439,20.1337152 C78.4896262,20.1337152 67.8321228,22.0205801 59.3415852,25.7879488 Z M300.818583,7 L326.181417,7 L402,192 L379.605472,192 L362.548605,150.12362 L363.706835,152.966725 L344.125042,104.68631 L313.501556,28.7990167 L281.447589,108.223877 L264.451395,150.12362 L247.394528,192 L225,192 L300.818583,7 Z M711.818583,7 L737.181417,7 L813,192 L790.604694,192 L773.548605,150.12362 L774.706835,152.966725 L755.125042,104.68631 L724.500778,28.7990167 L692.447589,108.223877 L675.451395,150.12362 L658.394528,192 L636,192 L711.818583,7 Z M451,27.1208678 L451,7 L596,7 L596,27.1208678 L533.625837,27.1208678 L533.625837,192 L513.374163,192 L513.374163,27.1208678 L451,27.1208678 Z M921.814976,7 L921.814976,171.879132 L1022,171.879132 L1022,192 L901,192 L901,7 L921.814976,7 Z M1232.08254,145.627326 C1244.92857,132.023293 1251.35476,114.64712 1251.35476,93.4980122 C1251.35476,72.3568558 1244.92857,54.9806828 1232.08254,41.369493 C1218.68254,27.2144282 1201.15556,20.1337152 1179.5,20.1337152 C1157.84206,20.1337152 1140.31508,27.2144282 1126.92063,41.369493 C1114.06984,54.9806828 1107.64841,72.3568558 1107.64841,93.4980122 C1107.64841,114.64712 1114.06984,132.023293 1126.92063,145.627326 C1140.31508,159.790343 1157.84206,166.86549 1179.5,166.86549 C1201.15556,166.86549 1218.68254,159.790343 1232.08254,145.627326 Z M1179.5,0 C1206.6619,0 1228.95952,9.10195638 1246.39762,27.3034837 C1263.46587,44.9563652 1272,67.0222681 1272,93.4980122 C1272,119.976937 1263.46587,142.043635 1246.39762,159.695721 C1228.95952,177.897248 1206.6619,187 1179.5,187 C1152.3373,187 1130.0381,177.897248 1112.60238,159.695721 C1095.53413,142.043635 1087,119.976937 1087,93.4980122 C1087,67.0222681 1095.53413,44.9563652 1112.60238,27.3034837 C1130.0381,9.10195638 1152.3373,0 1179.5,0 Z M1419.03887,87.7070147 L1506,87.7070147 L1506,184.794284 L1486.70728,184.794284 L1486.70728,152.524362 C1476.08028,168.340473 1461.35339,178.912641 1442.52741,184.242458 C1435.62627,186.077639 1426.54137,187 1415.26303,187 C1403.98309,187 1392.75553,184.566875 1381.56829,179.692672 C1370.38427,174.823241 1360.87615,168.15441 1353.04798,159.696516 C1337.01277,142.41417 1329,120.347472 1329,93.4988073 C1329,67.0230633 1337.29249,44.9563652 1353.88715,27.3042789 C1361.71613,18.8487705 1371.22343,12.182325 1382.40826,7.30812275 C1393.59228,2.43869138 1405.14953,0 1417.08001,0 C1429.00808,0 1439.35535,1.28812522 1448.11942,3.85960481 C1456.87785,6.43824066 1464.80033,9.92810583 1471.88769,14.3419225 C1486.60893,23.7205873 1497.42214,36.2249436 1504.32328,51.8526059 L1481.39257,51.8526059 C1475.80056,41.9221146 1468.01592,34.156787 1458.0443,28.546286 C1448.07025,22.9381705 1436.74596,20.1345103 1424.07144,20.1345103 C1411.39288,20.1345103 1400.5829,22.0205801 1391.63584,25.7879488 C1382.68717,29.558498 1375.13872,34.7523461 1368.98646,41.3702882 C1356.30791,54.9806828 1349.97105,72.357651 1349.97105,93.4988073 C1349.97105,114.831592 1356.2144,132.207765 1368.70674,145.628122 C1381.94071,159.790343 1399.46401,166.866285 1421.27503,166.866285 C1438.79591,166.866285 1453.89523,161.536468 1466.5754,150.870473 C1479.99558,139.655832 1486.70728,124.851934 1486.70728,106.463549 L1419.03887,106.463549 L1419.03887,87.7070147 Z" id="catalog-logotext" fill="#203149"></path>
    </g>
</svg>