<svg id="Group_1" data-name="Group 1" xmlns="http://www.w3.org/2000/svg" width="40" height="40.068" viewBox="0 0 40 40.068">
  <rect id="Rectangle_1" data-name="Rectangle 1" width="40" height="40" fill="#ffd6d6"/>
  <g id="default-user-icon" transform="translate(7 11)">
    <path id="Path" d="M18.365,17.481a12.2,12.2,0,0,0,1.767-3.037,2.551,2.551,0,0,0,1.49-2.25V10.059a2.386,2.386,0,0,0-.6-1.563V5.841q0-.032.007-.072a4.711,4.711,0,0,0-.7-2.853C19.208,1.079,16.906,0,13.326,0S7.471,1.092,6.444,2.953A4.6,4.6,0,0,0,5.9,5.736c.006.048.012.091.017.129V8.5a2.386,2.386,0,0,0-.6,1.563v2.135a2.462,2.462,0,0,0,.954,1.91,10.409,10.409,0,0,0,.967,2.2,11.392,11.392,0,0,0,1.075,1.563v1.611c0,.211-.354.6-.853.841l-5.345,2.6a2.681,2.681,0,0,0-.583.4c-.074.063-.146.129-.234.212l-.21.2c-.057.053-.1.088-.121.107L0,24.591l.986.74a20.463,20.463,0,0,0,12.34,3.736,20.885,20.885,0,0,0,12.384-3.733l1.013-.752-1.007-.758a7.11,7.11,0,0,0-1.37-.887L18.622,20.39a.954.954,0,0,1-.595-.857V17.886C18.137,17.762,18.25,17.626,18.365,17.481ZM7.994,21.189c.7-.341,1.429-1,1.429-1.706V17.532a10.242,10.242,0,0,1-2.167-3.994,1.569,1.569,0,0,1-.829-1.343V10.059a1.523,1.523,0,0,1,.6-1.183V5.789s-1-4.8,6.3-4.8,6.591,4.8,6.591,4.8V8.876a1.525,1.525,0,0,1,.6,1.183v2.135a1.638,1.638,0,0,1-1.275,1.523,11.275,11.275,0,0,1-1.779,3.194,7.9,7.9,0,0,1-.541.62v2a1.935,1.935,0,0,0,1.207,1.739l5.724,2.549a7.513,7.513,0,0,1,1.15.758,19.718,19.718,0,0,1-11.675,3.5A19.3,19.3,0,0,1,1.7,24.578a7.029,7.029,0,0,1,.95-.792Z" transform="translate(0 0)" fill="#fff"/>
    <path id="Path-2" data-name="Path" d="M8.619,20.691l-4.712,2.4a6.276,6.276,0,0,0-.837.733,16.455,16.455,0,0,0,10.248,3.242A16.808,16.808,0,0,0,23.61,23.826a6.6,6.6,0,0,0-1.013-.7l-5.045-2.358a1.79,1.79,0,0,1-1.064-1.609V17.307a7.213,7.213,0,0,0,.477-.574,10.588,10.588,0,0,0,1.568-2.955,1.5,1.5,0,0,0,1.124-1.409V10.394A1.435,1.435,0,0,0,19.13,9.3V6.444S19.757,2,13.32,2,7.766,6.444,7.766,6.444V9.3a1.433,1.433,0,0,0-.528,1.095v1.975a1.461,1.461,0,0,0,.731,1.243,9.594,9.594,0,0,0,1.91,3.7v1.8A2.081,2.081,0,0,1,8.619,20.691Z" transform="translate(0 0)" fill="#c8bdf7"/>
  </g>
</svg>
