<?xml version="1.0" encoding="UTF-8"?>
<svg width="15px" height="15px" viewBox="0 0 15 15" version="1.1" xmlns="http://www.w3.org/2000/svg" xmlns:xlink="http://www.w3.org/1999/xlink">
    <!-- Generator: Sketch 54 (76480) - https://sketchapp.com -->
    <title>Combined Shape</title>
    <desc>Created with Sketch.</desc>
    <g id="talent/widget/shotdetail" stroke="none" stroke-width="1" fill="none" fill-rule="evenodd">
        <g id="01.3-New-AdminPanel" transform="translate(-715.000000, -832.000000)" fill="#8169EA" fill-rule="nonzero">
            <g id="mid-area" transform="translate(86.000000, 72.000000)">
                <g id="table" transform="translate(0.000000, 46.000000)">
                    <g id="add" transform="translate(10.000000, 699.000000)">
                        <g id="add-row-flow">
                            <path d="M626.404774,18.4643663 C625.448116,18.4643663 624.672591,17.6888415 624.672591,16.7321832 C624.672591,15.7755248 625.448116,15 626.404774,15 C627.361432,15 628.136957,15.7755248 628.136957,16.7321832 C628.136957,17.6888415 627.361432,18.4643663 626.404774,18.4643663 Z M626.404774,29.8095477 C625.830841,29.8095477 625.365576,29.3442831 625.365576,28.7703502 C625.365576,28.1964173 625.830841,27.7311527 626.404774,27.7311527 C626.978707,27.7311527 627.443971,28.1964173 627.443971,28.7703502 C627.443971,29.3442831 626.978707,29.8095477 626.404774,29.8095477 Z M622.148504,20.0537933 C621.28745,20.0537933 620.589427,19.3557706 620.589427,18.494716 C620.589427,17.6336615 621.28745,16.9356388 622.148504,16.9356388 C623.009559,16.9356388 623.707581,17.6336615 623.707581,18.494716 C623.707581,19.3557706 623.009559,20.0537933 622.148504,20.0537933 Z M630.661043,27.8727848 C630.182714,27.8727848 629.794952,27.4850224 629.794952,27.0066933 C629.794952,26.5283641 630.182714,26.1406017 630.661043,26.1406017 C631.139373,26.1406017 631.527135,26.5283641 631.527135,27.0066933 C631.527135,27.4850224 631.139373,27.8727848 630.661043,27.8727848 Z M620.385409,24.136957 C619.620269,24.136957 619,23.5166881 619,22.7515477 C619,21.9864073 619.620269,21.3661384 620.385409,21.3661384 C621.15055,21.3661384 621.770819,21.9864073 621.770819,22.7515477 C621.770819,23.5166881 621.15055,24.136957 620.385409,24.136957 Z M632.423576,23.4434093 C632.041161,23.4434093 631.731153,23.1334007 631.731153,22.7509857 C631.731153,22.3685707 632.041161,22.058562 632.423576,22.058562 C632.805991,22.058562 633.116,22.3685707 633.116,22.7509857 C633.116,23.1334007 632.805991,23.4434093 632.423576,23.4434093 Z M621.291405,26.1507183 C621.765198,25.6718669 622.532372,25.6763631 623.005603,26.1507183 C623.479396,26.6245114 623.479396,27.3911233 623.005603,27.8649164 C622.532372,28.3387095 621.764636,28.3387095 621.291405,27.8649164 C620.817612,27.3911233 620.817612,26.6245114 621.291405,26.1507183 Z M630.660481,19.0140338 C630.37367,19.0140338 630.141164,18.7815273 630.141164,18.494716 C630.141164,18.2079048 630.37367,17.9753983 630.660481,17.9753983 C630.947293,17.9753983 631.179799,18.2079048 631.179799,18.494716 C631.179799,18.7815273 630.947293,19.0140338 630.660481,19.0140338 Z" id="Combined-Shape"></path>
                        </g>
                    </g>
                </g>
            </g>
        </g>
    </g>
</svg>