<?xml version="1.0" encoding="UTF-8"?>
<svg width="138px" height="99px" viewBox="0 0 138 99" version="1.1" xmlns="http://www.w3.org/2000/svg" xmlns:xlink="http://www.w3.org/1999/xlink">
    <!-- Generator: Sketch 53.2 (72643) - https://sketchapp.com -->
    <title>Group 3</title>
    <desc>Created with Sketch.</desc>
    <defs>
        <path d="M5.0687699,0.882556787 L64.4854366,0.882556787 C67.2468603,0.882556787 69.4854366,3.12113304 69.4854366,5.88255679 L69.4854366,40.7992235 C69.4854366,43.5606472 67.2468603,45.7992235 64.4854366,45.7992235 L5.0687699,45.7992235 C2.30734615,45.7992235 0.0687698981,43.5606472 0.0687698981,40.7992235 L0.0687698981,5.88255679 C0.0687698981,3.12113304 2.30734615,0.882556787 5.0687699,0.882556787 Z" id="path-1"></path>
        <path d="M5,-2.09610107e-13 L64,-2.09610107e-13 C66.7614237,-2.10117372e-13 69,2.23857625 69,5 L69,40 C69,42.7614237 66.7614237,45 64,45 L5,45 C2.23857625,45 -5.68096012e-13,42.7614237 -5.68434189e-13,40 L-5.68434189e-13,5 C-5.68772365e-13,2.23857625 2.23857625,-2.09102842e-13 5,-2.09610107e-13 Z" id="path-3"></path>
        <linearGradient x1="50%" y1="0%" x2="50%" y2="100%" id="linearGradient-5">
            <stop stop-color="#FBF7FD" offset="0%"></stop>
            <stop stop-color="#F5ECFB" offset="100%"></stop>
        </linearGradient>
    </defs>
    <g id="backlog/production-calendar/kanban-view" stroke="none" stroke-width="1" fill="none" fill-rule="evenodd">
        <g id="Group-3" transform="translate(-2.000000, 2.000000)">
            <g id="Rectangle" transform="translate(41.550624, 39.841700) rotate(-24.000000) translate(-41.550624, -39.841700) translate(6.550624, 16.872950)">
                <mask id="mask-2" fill="white">
                    <use xlink:href="#path-1"></use>
                </mask>
                <use fill="#FFD6D6" fill-rule="nonzero" xlink:href="#path-1"></use>
                <path d="M16.5520903,19.2753135 C16.2946867,18.7866809 16.4821348,18.181899 16.9707673,17.9244953 C17.4593999,17.6670917 18.0641818,17.8545398 18.3215854,18.3431723 L19.7050176,20.9693587 C19.9901124,21.5105577 20.6599558,21.7181712 21.2011548,21.4330764 C21.3581898,21.3503529 21.4930442,21.2311009 21.594358,21.085366 L21.8056212,20.7814744 C22.6620594,19.5495303 24.3550276,19.2451227 25.5869717,20.1015609 C26.0050018,20.3921723 26.3329578,20.7944026 26.5334441,21.2623871 C26.6288662,21.4851258 26.8867865,21.5883363 27.1095253,21.4929142 C27.2047467,21.452121 27.2824634,21.3789514 27.3289165,21.2863592 L27.9041123,20.1398561 C28.6400436,18.6729687 30.4257809,18.0804117 31.8926683,18.8163429 C32.5096892,19.1258997 32.9996843,19.6406215 33.2785144,20.2721229 C33.5119359,20.8007819 34.1297242,21.0401192 34.6583833,20.8066977 C34.8712104,20.7127271 35.046651,20.5505089 35.1569767,20.3456818 L35.6652752,19.4019907 C36.3994764,18.0388958 38.0996709,17.5290767 39.4627658,18.2632779 C39.9641075,18.5333146 40.3713255,18.9496247 40.6302276,19.4568061 C40.8698981,19.9263132 41.4448001,20.1126326 41.9143072,19.8729621 C42.0674129,19.7948059 42.1965698,19.6767522 42.2881368,19.5312695 L42.384107,19.378791 C43.2846817,17.9479482 45.174669,17.518081 46.6055118,18.4186557 C47.070517,18.7113307 47.4481799,19.1237639 47.698875,19.6126815 L49.9725123,24.0468386 C50.2245036,24.5382842 50.0303875,25.140959 49.5389419,25.3929503 C49.0474963,25.6449416 48.4448215,25.4508256 48.1928302,24.9593799 L45.9191929,20.5252229 C45.8322856,20.355732 45.7013629,20.2127557 45.5401617,20.1112954 C45.044138,19.7990973 44.3889448,19.9481174 44.0767467,20.4441411 L43.9807765,20.5966196 C43.6973406,21.0469456 43.2975493,21.4123681 42.8236272,21.6542922 C41.3703187,22.3961663 39.5907715,21.8194347 38.8488975,20.3661261 C38.7747041,20.2207835 38.6580079,20.1014819 38.5143389,20.0240977 C38.1237178,19.8136982 37.6364944,19.9597967 37.4260949,20.3504177 L36.9177964,21.2941088 C36.5965991,21.8904336 36.0858287,22.3627088 35.4662128,22.636291 C33.9270974,23.3158644 32.1284946,22.6190679 31.4489211,21.0799525 C31.3577572,20.8734821 31.1975526,20.7051931 30.9958167,20.603983 C30.5162157,20.3633692 29.9323663,20.5571066 29.6917525,21.0367076 L29.1165566,22.1832108 C28.8583538,22.6978708 28.4263776,23.1045729 27.8971033,23.3313159 C26.6590433,23.8617054 25.2254318,23.2880251 24.6950424,22.0499651 C24.6421517,21.9265051 24.5556329,21.8203919 24.4453515,21.7437251 C24.1203497,21.5177863 23.6737242,21.5980928 23.4477854,21.9230945 L23.2365223,22.2269862 C22.9522619,22.6358807 22.5738955,22.9704709 22.1332959,23.2025715 C20.6148318,24.0024736 18.7354246,23.419964 17.9355225,21.9014999 L16.5520903,19.2753135 Z" id="Path-4" fill="#FFFFFF" fill-rule="nonzero" mask="url(#mask-2)"></path>
                <path d="M11.3652524,38.155514 C11.1078488,37.6668815 11.2952969,37.0620996 11.7839294,36.8046959 C12.272562,36.5472923 12.8773439,36.7347403 13.1347476,37.2233729 L14.5181797,39.8495593 C14.8032745,40.3907583 15.4731179,40.5983718 16.0143169,40.313277 C16.1713519,40.2305535 16.3062063,40.1113015 16.4075201,39.9655666 L16.6187833,39.6616749 C17.4752215,38.4297309 19.1681897,38.1253233 20.4001338,38.9817614 C20.8181639,39.2723729 21.1461199,39.6746032 21.3466062,40.1425876 C21.4420283,40.3653264 21.6999486,40.4685369 21.9226874,40.3731148 C22.0179088,40.3323216 22.0956255,40.259152 22.1420786,40.1665598 L22.7172744,39.0200567 C23.4532057,37.5531693 25.238943,36.9606123 26.7058304,37.6965435 C27.3228513,38.0061003 27.8128464,38.5208221 28.0916765,39.1523235 C28.325098,39.6809825 28.9428863,39.9203198 29.4715454,39.6868983 C29.6843725,39.5929277 29.8598132,39.4307095 29.9701388,39.2258824 L30.4784373,38.2821913 C31.2126385,36.9190964 32.912833,36.4092773 34.2759279,37.1434785 C34.7772696,37.4135152 35.1844876,37.8298253 35.4433897,38.3370066 C35.6830602,38.8065138 36.2579622,38.9928332 36.7274693,38.7531627 C36.880575,38.6750065 37.0097319,38.5569528 37.1012989,38.4114701 L37.1972691,38.2589916 C38.1959966,36.6722027 40.2919717,36.1954847 41.8787606,37.1942121 C42.1868893,37.3881488 42.4618151,37.6303885 42.6929977,37.9116424 C44.10248,39.6263752 45.4968437,40.5982838 46.8633968,40.8739062 C48.8340953,41.2713796 50.9443949,40.5260402 53.2378355,38.5452717 C53.6558111,38.1842801 54.2872886,38.2304748 54.6482802,38.6484503 C55.0092718,39.0664258 54.9630772,39.6979034 54.5451016,40.058895 C51.8205587,42.4119921 49.1136703,43.3680416 46.4679761,42.8344272 C44.5955873,42.456782 42.8264902,41.2236741 41.1479611,39.1816275 C41.0529723,39.0660652 40.9400125,38.9665353 40.8134106,38.8868518 C40.1614407,38.476501 39.3002597,38.6723719 38.8899088,39.3243417 L38.7939387,39.4768201 C38.5105027,39.9271462 38.1107114,40.2925687 37.6367893,40.5344928 C36.1834808,41.2763669 34.4039336,40.6996353 33.6620596,39.2463267 C33.5878662,39.1009841 33.4711701,38.9816825 33.327501,38.9042983 C32.9368799,38.6938988 32.4496565,38.8399972 32.239257,39.2306183 L31.7309585,40.1743094 C31.4097613,40.7706342 30.8989908,41.2429094 30.279375,41.5164916 C28.7402595,42.196065 26.9416567,41.4992685 26.2620832,39.960153 C26.1709194,39.7536827 26.0107147,39.5853937 25.8089788,39.4841836 C25.3293778,39.2435698 24.7455284,39.4373072 24.5049146,39.9169082 L23.9297187,41.0634114 C23.671516,41.5780714 23.2395397,41.9847735 22.7102654,42.2115165 C21.4722055,42.741906 20.0385939,42.1682257 19.5082045,40.9301657 C19.4553138,40.8067057 19.368795,40.7005925 19.2585136,40.6239257 C18.9335118,40.3979869 18.4868863,40.4782934 18.2609475,40.8032951 L18.0496844,41.1071868 C17.765424,41.5160813 17.3870576,41.8506715 16.946458,42.0827721 C15.4279939,42.8826742 13.5485867,42.3001646 12.7486846,40.7817005 L11.3652524,38.155514 Z" id="Path-4" fill="#FFFFFF" fill-rule="nonzero" mask="url(#mask-2)"></path>
            </g>
            <g id="Rectangle" transform="translate(15.000000, 29.000000)">
                <mask id="mask-4" fill="white">
                    <use xlink:href="#path-3"></use>
                </mask>
                <use fill="#C8BDF7" fill-rule="nonzero" xlink:href="#path-3"></use>
                <path d="M15.3490413,15.7225701 C15.093222,15.2331062 15.2826284,14.6289347 15.7720923,14.3731154 C16.2615562,14.1172961 16.8657276,14.3067025 17.1215469,14.7961664 L18.4980432,17.4298427 C18.7768126,17.9632174 19.4351853,18.1696157 19.96856,17.8908464 C20.1255866,17.8087761 20.2602331,17.6896545 20.3608326,17.5438031 L20.5684731,17.2427614 C21.4165713,16.0131701 23.1008715,15.7039089 24.3304629,16.5520071 C24.752636,16.8431968 25.0833155,17.2484186 25.2839318,17.7204086 C25.3764846,17.9381574 25.6280337,18.0396489 25.8457825,17.9470961 C25.939683,17.9071843 26.0162559,17.8350694 26.0617217,17.7437288 L26.6324129,16.5972122 C27.3601989,15.1350925 29.1354683,14.5397975 30.597588,15.2675836 C31.2181061,15.5764533 31.7104132,16.0934759 31.9885417,16.7283679 C32.217142,17.2502006 32.8254882,17.4879124 33.3473209,17.2593121 C33.5594016,17.1664055 33.7340591,17.0048501 33.8431882,16.8006426 L34.3472508,15.857418 C35.0734058,14.498604 36.7636071,13.9857326 38.1224211,14.7118876 C38.6276118,14.9818633 39.037449,15.4008096 39.2962558,15.911812 C39.5307358,16.3747823 40.0961308,16.5600102 40.559101,16.3255302 C40.7119889,16.2480973 40.840789,16.1303269 40.9315635,15.9849634 L41.0258575,15.8339637 C41.9164249,14.4078352 43.794478,13.9736772 45.2206065,14.8642447 C45.6899816,15.157353 46.0705885,15.5728536 46.3215061,16.0660735 L48.5824683,20.5103682 C48.8328908,21.0026151 48.6368535,21.6046677 48.1446066,21.8550902 C47.6523597,22.1055127 47.0503072,21.9094754 46.7998846,21.4172285 L44.5389224,16.9729337 C44.4528457,16.8037357 44.3222793,16.6611992 44.1612612,16.560649 C43.672031,16.2551418 43.027769,16.4040788 42.7222618,16.893309 L42.6279678,17.0443087 C42.3439874,17.4990664 41.9410467,17.8675016 41.4627497,18.1097441 C40.0143854,18.8432954 38.2455933,18.263825 37.5120419,16.8154607 C37.4387839,16.6708159 37.322775,16.5522286 37.1797753,16.475809 C36.7951482,16.2702629 36.3167183,16.4154368 36.1111722,16.8000639 L35.6071097,17.7432885 C35.2863971,18.3434202 34.773108,18.8182046 34.1498381,19.0912417 C32.6162586,19.76306 30.8284304,19.0644646 30.156612,17.530885 C30.0665837,17.3253746 29.9072271,17.1580178 29.7063694,17.0580387 C29.2330907,16.822459 28.6584476,17.0151522 28.422868,17.4884308 L27.8521768,18.6349474 C27.5944552,19.1527091 27.1604039,19.5614902 26.6281318,19.787729 C25.3938295,20.3123614 23.9679313,19.7370603 23.4432989,18.502758 C23.3910346,18.3797957 23.3048864,18.2742278 23.1949024,18.1983674 C22.8745707,17.9774219 22.4357789,18.0579903 22.2148334,18.3783219 L22.007193,18.6793636 C21.7219583,19.092903 21.3401888,19.4306542 20.8949636,19.663352 C19.3826612,20.45376 17.5159455,19.8685489 16.7255376,18.3562464 L15.3490413,15.7225701 Z" id="Path-4" fill="#FFFFFF" fill-rule="nonzero" mask="url(#mask-4)"></path>
                <path d="M15.3490413,27.9952974 C15.093222,27.5058334 15.2826284,26.901662 15.7720923,26.6458427 C16.2615562,26.3900234 16.8657276,26.5794298 17.1215469,27.0688937 L18.4980432,29.70257 C18.7768126,30.2359446 19.4351853,30.442343 19.96856,30.1635737 C20.1255866,30.0815034 20.2602331,29.9623817 20.3608326,29.8165303 L20.5684731,29.5154887 C21.4165713,28.2858974 23.1008715,27.9766361 24.3304629,28.8247344 C24.752636,29.115924 25.0833155,29.5211459 25.2839318,29.9931359 C25.3764846,30.2108847 25.6280337,30.3123761 25.8457825,30.2198234 C25.939683,30.1799116 26.0162559,30.1077967 26.0617217,30.016456 L26.6324129,28.8699395 C27.3601989,27.4078198 29.1354683,26.8125248 30.597588,27.5403109 C31.2181061,27.8491806 31.7104132,28.3662031 31.9885417,29.0010951 C32.217142,29.5229279 32.8254882,29.7606397 33.3473209,29.5320394 C33.5594016,29.4391327 33.7340591,29.2775773 33.8431882,29.0733699 L34.3472508,28.1301453 C35.0734058,26.7713313 36.7636071,26.2584599 38.1224211,26.9846149 C38.6276118,27.2545905 39.037449,27.6735369 39.2962558,28.1845393 C39.5307358,28.6475095 40.0961308,28.8327375 40.559101,28.5982575 C40.7119889,28.5208246 40.840789,28.4030542 40.9315635,28.2576907 L41.0258575,28.106691 C42.0132565,26.5254993 44.0955107,26.0441352 45.6767024,27.0315342 C45.9907004,27.227615 46.2703037,27.4740143 46.5043174,27.7608683 C47.904198,29.476866 49.2884644,30.4491057 50.6436153,30.7245889 C52.5980766,31.1219036 54.6923079,30.3763922 56.9702363,28.3934688 C57.3868018,28.030851 58.0184546,28.0745842 58.3810724,28.4911497 C58.7436902,28.9077151 58.699957,29.5393679 58.2833915,29.9019857 C55.5734564,32.2609685 52.8794143,33.2200025 50.2451923,32.684502 C48.382039,32.3057489 46.6229943,31.0702836 44.9545864,29.0251205 C44.8592338,28.9082374 44.7453029,28.8078362 44.6173571,28.7279385 C43.9730636,28.3255998 43.1246006,28.5217428 42.7222618,29.1660363 L42.6279678,29.3170359 C42.3439874,29.7717937 41.9410467,30.1402289 41.4627497,30.3824714 C40.0143854,31.1160227 38.2455933,30.5365523 37.5120419,29.088188 C37.4387839,28.9435432 37.322775,28.8249558 37.1797753,28.7485363 C36.7951482,28.5429902 36.3167183,28.6881641 36.1111722,29.0727911 L35.6071097,30.0160157 C35.2863971,30.6161475 34.773108,31.0909319 34.1498381,31.363969 C32.6162586,32.0357873 30.8284304,31.3371918 30.156612,29.8036123 C30.0665837,29.5981019 29.9072271,29.4307451 29.7063694,29.3307659 C29.2330907,29.0951863 28.6584476,29.2878794 28.422868,29.7611581 L27.8521768,30.9076746 C27.5944552,31.4254364 27.1604039,31.8342174 26.6281318,32.0604563 C25.3938295,32.5850887 23.9679313,32.0097875 23.4432989,30.7754853 C23.3910346,30.652523 23.3048864,30.5469551 23.1949024,30.4710947 C22.8745707,30.2501492 22.4357789,30.3307176 22.2148334,30.6510492 L22.007193,30.9520908 C21.7219583,31.3656303 21.3401888,31.7033815 20.8949636,31.9360793 C19.3826612,32.7264873 17.5159455,32.1412761 16.7255376,30.6289737 L15.3490413,27.9952974 Z" id="Path-4" fill="#FFFFFF" fill-rule="nonzero" mask="url(#mask-4)"></path>
            </g>
            <g id="Group-2" transform="translate(41.302841, 0.000000)" fill-rule="nonzero">
                <polygon id="Rectangle" fill="#FFD6D6" transform="translate(64.828009, 63.398010) rotate(135.000000) translate(-64.828009, -63.398010) " points="59.7342353 54.6454732 69.8516453 54.6861054 69.9217836 72.1505478 59.8043737 72.1099156"></polygon>
                <path d="M37.24,75.196 C15.8480212,75.196 -1.5,58.0305896 -1.5,36.848 C-1.5,15.6654104 15.8480212,-1.5 37.24,-1.5 C58.6319788,-1.5 75.98,15.6654104 75.98,36.848 C75.98,58.0305896 58.6319788,75.196 37.24,75.196 Z M37.24,72.196 C56.9821894,72.196 72.98,56.3665874 72.98,36.848 C72.98,17.3294126 56.9821894,1.5 37.24,1.5 C17.4978106,1.5 1.5,17.3294126 1.5,36.848 C1.5,56.3665874 17.4978106,72.196 37.24,72.196 Z" id="Oval" fill="#564984"></path>
                <circle id="Oval" fill="url(#linearGradient-5)" opacity="0.654296875" cx="36.988" cy="36.704" r="33.5"></circle>
                <ellipse id="Oval" fill="#FFFFFF" transform="translate(17.421560, 18.104487) rotate(-45.000000) translate(-17.421560, -18.104487) " cx="17.42156" cy="18.1044869" rx="7.6875" ry="3"></ellipse>
                <path d="M97.2312389,86.952 L88.7337784,95.272 C87.6879371,96.296 85.988445,96.296 84.9426037,95.272 L66.640381,77.48 C65.5945397,76.456 65.5945397,74.792 66.640381,73.768 L75.1378415,65.448 C76.1836828,64.424 77.8831749,64.424 78.9290162,65.448 L97.1005088,83.24 C98.2770802,84.264 98.2770802,85.928 97.2312389,86.952 Z" id="Path" fill="#564984"></path>
            </g>
        </g>
    </g>
</svg>