<?xml version="1.0" standalone="no"?>
<!DOCTYPE svg PUBLIC "-//W3C//DTD SVG 1.1//EN" "http://www.w3.org/Graphics/SVG/1.1/DTD/svg11.dtd" >
<svg xmlns="http://www.w3.org/2000/svg">
<metadata>Generated by IcoMoon</metadata>
<defs>
<font id="catalog-admin" horiz-adv-x="1024">
<font-face units-per-em="1024" ascent="960" descent="-64" />
<missing-glyph horiz-adv-x="1024" />
<glyph unicode="&#x20;" horiz-adv-x="512" d="" />
<glyph unicode="&#xe900;" glyph-name="collaborators" d="M934.33 336.618c-0.432 0.26-0.874 0.501-1.308 0.752 1.012 12.36 1.558 24.858 1.558 37.486 0 175.477-99.698 327.203-243.341 397.363 0.002 0.534 0.038 1.061 0.038 1.599 0 102.826-80.264 186.182-179.276 186.182s-179.276-83.356-179.276-186.182c0-0.534 0.036-1.061 0.038-1.599-143.646-70.162-243.343-221.888-243.343-397.363 0-12.628 0.546-25.122 1.558-37.48-0.436-0.26-0.878-0.501-1.314-0.758-85.742-51.413-115.122-165.283-65.616-254.33 33.208-59.729 93.466-93.122 155.428-93.122 30.41 0 61.238 8.046 89.47 24.974 0.482 0.291 0.94 0.609 1.418 0.901 68.526-49.785 151.85-79.042 241.641-79.042s173.112 29.257 241.637 79.040c0.48-0.293 0.934-0.609 1.416-0.899 28.234-16.93 59.056-24.978 89.472-24.978 61.956 0 122.22 33.397 155.424 93.122 49.502 89.049 20.126 202.921-65.624 254.334zM512.001 880.208c56.488 0 102.444-47.724 102.444-106.39s-45.956-106.39-102.444-106.39c-56.488 0-102.444 47.724-102.444 106.39s45.958 106.39 102.444 106.39zM278.26 147.842c-7.084-27.448-24.034-50.395-47.734-64.602-15.582-9.345-33.236-14.284-51.050-14.284-36.578 0-70.638 20.394-88.89 53.226-28.244 50.804-11.422 115.999 37.5 145.333 15.582 9.347 33.238 14.284 51.052 14.284h0.008c36.57 0 70.628-20.394 88.88-53.226 13.682-24.609 17.316-53.278 10.234-80.73zM696.151 71.095c-53.352-35.006-116.506-55.303-184.147-55.303-67.646 0-130.802 20.297-184.155 55.303 37.152 57.168 42.152 133.629 6.716 197.375-33.204 59.727-93.462 93.122-155.42 93.122-0.002 0-0.002 0-0.008 0-4.198 0-8.4-0.168-12.606-0.478-0.166 4.563-0.276 9.141-0.276 13.744 0 137.548 74.868 257.256 184.495 317.542 29.088-62.016 90.358-104.762 161.252-104.762s132.162 42.741 161.252 104.762c109.628-60.286 184.495-179.992 184.495-317.542 0-4.601-0.11-9.178-0.276-13.74-4.2 0.305-8.4 0.476-12.592 0.476-0.006 0-0.010 0-0.016 0-61.956-0.002-122.226-33.399-155.428-93.126-35.438-63.749-30.436-140.206 6.714-197.373zM933.412 122.182c-18.252-32.832-52.31-53.226-88.888-53.226-17.814 0-35.468 4.939-51.056 14.286-48.92 29.332-65.74 94.528-37.496 145.331 18.25 32.832 52.312 53.226 88.89 53.23h0.016c17.804 0 35.454-4.937 51.038-14.284 48.922-29.332 65.74-94.53 37.496-145.337z" />
<glyph unicode="&#xe901;" glyph-name="analytics" horiz-adv-x="1138" d="M420.613 903.111c0 23.564 19.103 42.667 42.667 42.667h195.902c23.564 0 42.667-19.103 42.667-42.667v-870.4c0-23.564-19.103-42.667-42.667-42.667h-195.902c-23.564 0-42.667 19.103-42.667 42.667v870.4zM505.946 860.444v-785.067h110.569v785.067h-110.569zM812.417 661.333c0 23.564 19.103 42.667 42.667 42.667h195.902c23.564 0 42.667-19.103 42.667-42.667v-628.622c0-23.564-19.103-42.667-42.667-42.667h-195.902c-23.564 0-42.667 19.103-42.667 42.667v628.622zM897.75 618.667v-543.289h110.569v543.289h-110.569zM28.809 419.556c0 23.564 19.103 42.667 42.667 42.667h195.902c23.564 0 42.667-19.103 42.667-42.667v-386.844c0-23.564-19.103-42.667-42.667-42.667h-195.902c-23.564 0-42.667 19.103-42.667 42.667v386.844zM114.142 376.889v-301.511h110.569v301.511h-110.569z" />
<glyph unicode="&#xe902;" glyph-name="backlog" horiz-adv-x="1252" d="M1048.838 405.333v-425.086c0-23.564-19.103-42.667-42.667-42.667h-934.696c-23.564 0-42.667 19.103-42.667 42.667v467.753c0 23.564 19.103 42.667 42.667 42.667h130.188v129.58h-130.188c-23.564 0-42.667 19.103-42.667 42.667v240.198c0 23.564 19.103 42.667 42.667 42.667h934.696c23.564 0 42.667-19.103 42.667-42.667v-197.531h130.188c23.564 0 42.667-19.103 42.667-42.667v-214.914c0-23.564-19.103-42.667-42.667-42.667h-130.188zM1006.172 490.667h130.188v129.58h-849.362v-129.58h719.174zM963.505 405.333h-849.362v-142.222h849.362v142.222zM963.505 705.58v154.864h-849.362v-154.864h849.362zM963.505 165.136h-849.362v-142.222h849.362v142.222z" />
<glyph unicode="&#xe903;" glyph-name="content" d="M14.222 903.111c0 23.564 19.103 42.667 42.667 42.667h353.975c23.564 0 42.667-19.103 42.667-42.667v-353.975c0-23.564-19.103-42.667-42.667-42.667h-353.975c-23.564 0-42.667 19.103-42.667 42.667v353.975zM99.556 860.444v-268.642h268.642v268.642h-268.642zM768 945.778h44.247c109.093 0 197.531-88.438 197.531-197.531v-44.247c0-109.093-88.438-197.531-197.531-197.531h-44.247c-109.093 0-197.531 88.438-197.531 197.531v44.247c0 109.093 88.438 197.531 197.531 197.531zM768 860.444c-61.965 0-112.198-50.233-112.198-112.198v-44.247c0-61.965 50.233-112.198 112.198-112.198h44.247c61.965 0 112.198 50.233 112.198 112.198v44.247c0 61.965-50.233 112.198-112.198 112.198h-44.247zM570.469 346.864c0 23.564 19.103 42.667 42.667 42.667h353.975c23.564 0 42.667-19.103 42.667-42.667v-353.975c0-23.564-19.103-42.667-42.667-42.667h-353.975c-23.564 0-42.667 19.103-42.667 42.667v353.975zM655.802 35.556h268.642v268.642h-268.642v-268.642zM14.222 346.864c0 23.564 19.103 42.667 42.667 42.667h353.975c23.564 0 42.667-19.103 42.667-42.667v-353.975c0-23.564-19.103-42.667-42.667-42.667h-353.975c-23.564 0-42.667 19.103-42.667 42.667v353.975zM99.556 35.556h268.642v268.642h-268.642v-268.642z" />
<glyph unicode="&#xe904;" glyph-name="production-calendar" d="M855.631 551.010v115.2c0 35.346-28.654 64-64 64h-75.268v-46.933c0-21.208-17.192-38.4-38.4-38.4s-38.4 17.192-38.4 38.4v46.933h-268.909v-46.933c0-21.208-17.192-38.4-38.4-38.4s-38.4 17.192-38.4 38.4v46.933h-75.268c-35.346 0-64-28.654-64-64v-115.2h701.046zM855.631 474.21h-701.046v-371.2c0-35.346 28.654-64 64-64h573.046c35.346 0 64 28.654 64 64v371.2zM370.653 807.010h268.909v101.79c0 21.208 17.192 38.4 38.4 38.4s38.4-17.192 38.4-38.4v-101.79h75.268c77.762 0 140.8-63.038 140.8-140.8v-563.2c0-77.762-63.038-140.8-140.8-140.8h-573.046c-77.762 0-140.8 63.038-140.8 140.8v563.2c0 77.762 63.038 140.8 140.8 140.8h75.268v101.79c0 21.208 17.192 38.4 38.4 38.4s38.4-17.192 38.4-38.4v-101.79z" />
<glyph unicode="&#xe905;" glyph-name="content-requests" d="M486.506 915.403c11.279 5.568 24.507 5.568 35.786 0l436.686-215.579c30.037-14.829 30.037-57.661 0-72.49l-436.686-215.579c-11.279-5.568-24.507-5.568-35.786 0l-436.686 215.579c-30.037 14.829-30.037 57.661 0 72.49l436.686 215.579zM504.399 834.080l-345.373-170.501 345.373-170.501 345.373 170.501-345.373 170.501zM504.399 61.92l418.792 206.746c20.018 9.882 44.256 1.666 54.138-18.352s1.666-44.256-18.352-54.138l-436.686-215.579c-11.279-5.568-24.507-5.568-35.786 0l-436.686 215.579c-20.018 9.882-28.234 34.12-18.352 54.138s34.121 28.234 54.138 18.352l418.792-206.746zM85.607 484.245l418.792-206.746 418.792 206.746c20.018 9.882 44.256 1.666 54.138-18.352s1.666-44.256-18.352-54.138l-436.686-215.579c-11.279-5.568-24.507-5.568-35.786 0l-436.686 215.579c-20.018 9.882-28.234 34.121-18.352 54.138s34.121 28.234 54.138 18.352z" />
<glyph unicode="&#xe906;" glyph-name="inventory" horiz-adv-x="1308" d="M497.778 29.665c1.586 0.57 3.146 1.237 4.672 2l341.428 170.714c14.499 7.205 23.671 21.996 23.68 38.164v346.171l-366.057-156.882c-1.224-0.525-2.466-0.989-3.723-1.394v-398.773zM412.444 57.562v396.030l-312.887 134.094-0.001-347.014c-0.113-16.22 8.981-31.101 23.349-38.341l289.539-144.77zM857.104 675.073c-3.646 4.198-8.142 7.721-13.321 10.294l-341.278 170.639c-11.952 5.924-25.987 5.917-37.84 0.028l-341.428-170.714c-4.847-2.409-9.099-5.665-12.612-9.537l374.067-160.315 372.411 159.605zM540.518 932.406l341.333-170.667c43.498-21.615 71.014-65.988 71.040-114.583v-406.636c-0.026-48.572-27.542-92.945-70.946-114.513l-341.321-170.661c-36.056-18.042-78.504-18.042-114.548-0.006l-341.451 170.726c-43.456 21.896-70.739 66.54-70.401 114.903v406.209c0.026 48.572 27.542 92.945 70.946 114.513l341.428 170.714c35.88 17.829 78.040 17.829 113.92 0zM1278.104 243.2c2.156-1.617 4.072-3.533 5.689-5.689 9.426-12.568 6.879-30.397-5.689-39.822l-151.704-113.778c-4.924-3.693-10.912-5.689-17.067-5.689-15.709 0-28.444 12.735-28.444 28.444v227.556c0 6.155 1.996 12.143 5.689 17.067 9.426 12.568 27.255 15.115 39.822 5.689l151.704-113.778z" />
<glyph unicode="&#xe907;" glyph-name="locations" horiz-adv-x="829" d="M623.882 149.578c-41.264-43.557-85.367-83.249-129.482-118.378-15.462-12.312-29.846-23.193-42.798-32.547-7.881-5.692-13.613-9.662-16.84-11.813-12.284-8.19-28.288-8.19-40.572 0-3.228 2.152-8.959 6.122-16.84 11.813-12.952 9.354-27.335 20.234-42.798 32.547-44.115 35.128-88.218 74.821-129.482 118.378-120.106 126.778-192.879 260.197-192.879 395.945 0 222.176 180.109 402.286 402.286 402.286s402.286-180.109 402.286-402.286c0-135.749-72.774-269.167-192.879-395.945zM448.838 88.419c41.599 33.126 83.211 70.576 121.946 111.463 108.466 114.491 172.835 232.502 172.835 345.642 0 181.781-147.362 329.143-329.143 329.143s-329.143-147.362-329.143-329.143c0-113.14 64.369-231.15 172.835-345.642 38.736-40.887 80.347-78.338 121.946-111.463 12.287-9.784 23.813-18.578 34.362-26.32 10.548 7.742 22.075 16.537 34.362 26.32zM572.952 545.524c0-87.524-70.952-158.476-158.476-158.476s-158.476 70.952-158.476 158.476c0 87.524 70.952 158.476 158.476 158.476s158.476-70.952 158.476-158.476zM329.143 545.524c0-47.128 38.205-85.333 85.333-85.333s85.333 38.205 85.333 85.333c0 47.128-38.205 85.333-85.333 85.333s-85.333-38.205-85.333-85.333z" />
<glyph unicode="&#xe908;" glyph-name="talent" d="M89.164 563.429l1.958-1.999 52.632-318.845v-160.215c0-16.666 13.507-30.174 30.174-30.174h676.144c16.666 0 30.174 13.507 30.174 30.174l0.033 160.709 54.541 320.347c49.906 9.305 86.742 53.152 86.742 104.469 0 58.593-47.674 106.266-106.266 106.266s-106.266-47.672-106.266-106.266c0-32.578 14.829-62.787 39.761-86.697l-146.582-109.134-138.718 188.772c33.513 18.643 54.775 53.975 54.775 92.937 0 58.592-47.673 106.266-106.266 106.266s-106.266-47.674-106.266-106.266c0-38.489 20.746-73.454 54.307-95.923l-152.338-186.071-133.649 112.375c25.628 20.045 40.916 50.666 40.916 83.741 0.002 58.593-47.672 106.266-106.266 106.266-58.592 0-106.266-47.673-106.266-106.266 0-51.311 36.828-95.154 86.726-104.466zM204.102 212.617l2.438 2.438 613.358-2.438-2.438-100.074-613.358 2.438v97.635zM825.524 277.472l-2.41-2.070-624.626 2.071-30.741 230.211 127.391-103.453c6.203-5.032 14.203-7.388 22.228-6.579 7.988 0.855 15.309 4.859 20.337 11.123l175.44 213.972 160.657-213.247c4.841-6.431 12.044-10.661 20.018-11.747 7.97-1.102 16 1.036 22.426 5.945l144.686 105.498-35.406-231.723zM512 707.85c-25.327 0-45.92 20.594-45.92 45.92s20.594 45.92 45.92 45.92c25.327 0 45.92-20.594 45.92-45.92s-20.594-45.92-45.92-45.92zM915.296 621.974c-25.327 0-45.92 20.594-45.92 45.92s20.594 45.92 45.92 45.92c25.327 0 45.92-20.594 45.92-45.92s-20.594-45.92-45.92-45.92zM108.704 621.974c-25.327 0-45.92 20.594-45.92 45.92s20.594 45.92 45.92 45.92c25.327 0 45.92-20.594 45.92-45.92s-20.592-45.92-45.92-45.92z" />
<glyph unicode="&#xe909;" glyph-name="checkmark" horiz-adv-x="1280" d="M221.4 569.221c-48.338 51.584-129.34 54.215-180.924 5.877s-54.215-129.34-5.877-180.924l309.927-330.738c49.216-52.521 132.047-54.149 183.289-3.603l690.418 681.041c50.328 49.644 50.882 130.687 1.238 181.015s-130.687 50.882-181.015 1.238l-596.925-588.818-220.131 234.912z" />
<glyph unicode="&#xe90a;" glyph-name="editing" horiz-adv-x="1216" d="M892 366.087l96 79.68v-281.767c0-106.039-85.961-192-192-192h-604c-106.039 0-192 85.961-192 192v604c0 106.039 85.961 192 192 192h604c92.088 0 169.034-64.83 187.686-151.34l-91.686-71.56v30.9c0 53.019-42.981 96-96 96h-604c-53.019 0-96-42.981-96-96v-604c0-53.019 42.981-96 96-96h604c53.019 0 96 42.981 96 96v202.087zM297 558c-57.99 0-105 47.010-105 105s47.010 105 105 105c57.99 0 105-47.010 105-105s-47.010-105-105-105zM1118.413 571.037l-92.994 154.768-558.159-335.376-30.887-123.881 123.881-30.887 558.159 335.376zM1181.571 496.99l-588.916-353.856c-10.912-6.557-23.982-8.51-36.334-5.43l-189.747 47.309c-25.722 6.413-41.375 32.464-34.962 58.186l47.309 189.747c3.080 12.352 10.94 22.975 21.852 29.532l588.916 353.856c37.872 22.756 87.021 10.502 109.776-27.37l109.475-182.197c22.756-37.872 10.502-87.021-27.37-109.776z" />
<glyph unicode="&#xe90b;" glyph-name="selection" horiz-adv-x="922" d="M512 246.4v-76.8h-358.4c-84.831 0-153.6 68.769-153.6 153.6v483.2c0 84.831 68.769 153.6 153.6 153.6h483.2c84.831 0 153.6-68.769 153.6-153.6v-437.83c-4.889 12.090-10.516 21.5-16.88 28.23h-59.92v409.6c0 42.415-34.385 76.8-76.8 76.8h-483.2c-42.415 0-76.8-34.385-76.8-76.8v-483.2c0-42.415 34.385-76.8 76.8-76.8h358.4zM288.8 617.6c-46.392 0-84 37.608-84 84s37.608 84 84 84c46.392 0 84-37.608 84-84s-37.608-84-84-84zM71.854 189.873l-47.992 59.959 468.942 375.348c13.784 11.033 33.316 11.245 47.337 0.513l248.257-190.032-46.681-60.984-224.388 171.761-445.474-356.564zM822.793 31.314l-122.23-51.884c-30.778-13.065-66.306 1.29-79.369 32.065l-56.361 132.746-46.142-19.586c-19.244-8.169-41.289-5.813-58.641 6.314-17.121 12.137-26.74 32.243-25.419 53.161l24.612 395.141c1.408 22.9 15.649 43.034 36.825 52.023 21.142 8.928 45.67 5.224 62.847-9.684l301.333-256.78c15.992-13.6 23.775-34.491 20.6-55.314-3.2-20.709-16.884-38.301-36.182-46.493l-46.142-19.586 56.337-132.752c13.066-30.774-1.289-66.304-32.068-79.372zM697.827 284.126l92.595 39.304-256.549 218.619-20.954-336.412 92.595 39.304 80.016-188.46 92.282 39.171-79.985 188.474z" />
<glyph unicode="&#xe90c;" glyph-name="thumbs-up" d="M647.529 628.706l210.011-0.002c39.761 0.45 77.714-16.583 103.806-46.589s37.691-69.956 31.713-109.337l-62.332-406.514c-10.133-66.821-67.949-115.964-135.018-115.203l-509.59-0.006c-24.95 0-45.177 20.226-45.177 45.176v496.947c0 6.321 1.326 12.572 3.894 18.348l180.706 406.588c7.251 16.314 23.43 26.829 41.283 26.829 99.801 0 180.706-80.905 180.706-180.706v-135.53zM796.218 41.41c22.527-0.255 41.799 16.126 45.188 38.473l62.333 406.52c1.989 13.104-1.877 26.421-10.574 36.423s-21.348 15.68-35.113 15.527h-255.699c-24.95 0-45.176 20.226-45.176 45.176v180.706c0 40.323-26.414 74.476-62.883 86.101l-162.999-366.747v-442.183l464.924 0.003zM240.941 448h-90.353c-24.95 0-45.176-20.226-45.176-45.176v-316.235c0-24.95 20.226-45.176 45.176-45.176h90.353v406.588zM286.117-48.94h-135.529c-74.851 0-135.529 60.679-135.529 135.529v316.235c0 74.851 60.679 135.529 135.529 135.529h135.529c24.95 0 45.176-20.226 45.176-45.176v-496.941c0-24.95-20.226-45.176-45.176-45.176z" />
<glyph unicode="&#xe90d;" glyph-name="camera" horiz-adv-x="1216" d="M1088 133.818v480c0 48.199-39.073 87.273-87.273 87.273h-174.545l-87.273 130.909h-261.818l-87.273-130.909h-174.545c-48.199 0-87.273-39.073-87.273-87.273v-480c0-48.199 39.073-87.273 87.273-87.273h785.455c48.199 0 87.273 39.073 87.273 87.273zM397.214 885.251c17.805 26.707 47.779 42.749 79.877 42.749h261.818c32.098 0 62.072-16.042 79.877-42.749l58.774-88.16h123.168c101.219 0 183.273-82.054 183.273-183.273v-480c0-101.219-82.054-183.273-183.273-183.273h-785.455c-101.219 0-183.273 82.054-183.273 183.273v480c0 101.219 82.054 183.273 183.273 183.273h123.168l58.774 88.16zM608 221.091c96.399 0 174.545 78.147 174.545 174.545s-78.147 174.545-174.545 174.545c-96.399 0-174.545-78.147-174.545-174.545s78.147-174.545 174.545-174.545zM608 125.091c-149.418 0-270.545 121.127-270.545 270.545s121.127 270.545 270.545 270.545c149.418 0 270.545-121.127 270.545-270.545s-121.127-270.545-270.545-270.545z" />
<glyph unicode="&#xe90e;" glyph-name="search" d="M814.271 223.309l175.376-175.376c21.423-21.423 21.423-56.157 0-77.58s-56.157-21.423-77.58 0l-175.376 175.376c-75.444-58.855-170.354-93.92-273.453-93.92-245.74 0-444.952 199.212-444.952 444.952s199.212 444.952 444.952 444.952c245.74 0 444.952-199.212 444.952-444.952 0-103.099-35.065-198.009-93.92-273.453zM704.983 264.503c57.901 60.25 93.493 142.098 93.493 232.259 0 185.147-150.091 335.238-335.238 335.238s-335.238-150.091-335.238-335.238c0-185.147 150.091-335.238 335.238-335.238 90.161 0 172.009 35.592 232.259 93.493 1.365 1.744 2.85 3.424 4.456 5.030s3.286 3.091 5.030 4.456z" />
<glyph unicode="&#xe90f;" glyph-name="arrow-left" horiz-adv-x="1280" d="M333.838 352l251.589-252.092c37.453-37.528 37.392-98.312-0.136-135.764s-98.312-37.392-135.764 0.136l-415.077 415.907c-37.778 37.853-37.34 99.279 0.973 136.59l415.077 404.218c37.984 36.99 98.762 36.185 135.753-1.799s36.185-98.762-1.799-135.753l-245.875-239.442h823.772c53.019 0 96-42.981 96-96s-42.981-96-96-96h-828.513z" />
<glyph unicode="&#xe910;" glyph-name="backlog-hamburger" horiz-adv-x="1536" d="M292.571 632.889h912.254v199.111h-1076.825v-199.111h164.571zM1314.54 632.889h164.571c30.297 0 54.857-24.56 54.857-54.857v-276.317c0-30.297-24.56-54.857-54.857-54.857h-164.571v-253.968c0-30.297-24.56-54.857-54.857-54.857h-1186.54c-30.297 0-54.857 24.56-54.857 54.857v308.825c0 30.297 24.56 54.857 54.857 54.857h164.571v166.603h-164.571c-30.297 0-54.857 24.56-54.857 54.857v308.825c0 30.297 24.56 54.857 54.857 54.857h1186.54c30.297 0 54.857-24.56 54.857-54.857v-253.968zM1259.683 523.175h-912.254v-166.603h1076.825v166.603h-164.571zM1204.825 246.857h-1076.825v-199.111h1076.825v199.111z" />
<glyph unicode="&#xe911;" glyph-name="circle-plus" d="M560 496h120c26.51 0 48-21.49 48-48s-21.49-48-48-48h-120v-120c0-26.51-21.49-48-48-48s-48 21.49-48 48v120h-120c-26.51 0-48 21.49-48 48s21.49 48 48 48h120v120c0 26.51 21.49 48 48 48s48-21.49 48-48v-120zM512-48c-273.933 0-496 222.067-496 496s222.067 496 496 496c273.933 0 496-222.067 496-496s-222.067-496-496-496zM512 48c220.914 0 400 179.086 400 400s-179.086 400-400 400c-220.914 0-400-179.086-400-400s179.086-400 400-400z" />
<glyph unicode="&#xe912;" glyph-name="vertical-hamburger" horiz-adv-x="273" d="M136.533 341.117c-65.98 0-119.467 53.487-119.467 119.467s53.487 119.467 119.467 119.467c65.98 0 119.467-53.487 119.467-119.467s-53.487-119.467-119.467-119.467zM136.533 704c-65.98 0-119.467 53.487-119.467 119.467s53.487 119.467 119.467 119.467c65.98 0 119.467-53.487 119.467-119.467s-53.487-119.467-119.467-119.467zM136.533-29.867c-65.98 0-119.467 53.487-119.467 119.467s53.487 119.467 119.467 119.467c65.98 0 119.467-53.487 119.467-119.467s-53.487-119.467-119.467-119.467z" />
<glyph unicode="&#xe913;" glyph-name="cross" d="M602.51 448l381.412-381.412c24.994-24.994 24.994-65.516 0-90.51s-65.516-24.994-90.51 0l-381.412 381.412-381.412-381.412c-24.994-24.994-65.516-24.994-90.51 0s-24.994 65.516 0 90.51l381.412 381.412-381.412 381.412c-24.994 24.994-24.994 65.516 0 90.51s65.516 24.994 90.51 0l381.412-381.412 381.412 381.412c24.994 24.994 65.516 24.994 90.51 0s24.994-65.516 0-90.51l-381.412-381.412z" />
<glyph unicode="&#xe914;" glyph-name="puzzle" d="M907.942 177.452c-91.731 0-166.34 74.65-166.335 166.423 0 91.756 74.609 166.388 166.34 166.388 14.195 0 28.271-1.818 41.911-5.386v172.73h-240.66c-16.316 0-31.105 9.593-37.752 24.491s-3.914 32.31 6.979 44.454c13.752 15.327 21.321 35.081 21.321 55.633 0 46.129-37.543 83.672-83.672 83.672s-83.672-37.543-83.672-83.672c0-20.509 7.579-40.276 21.357-55.674 10.869-12.153 13.581-29.553 6.928-44.441-6.653-14.883-21.436-24.464-37.741-24.464h-240.551v-240.625c0-16.298-9.579-31.076-24.457-37.736-14.879-6.657-32.276-3.949-44.433 6.913-15.466 13.825-35.245 21.428-55.706 21.428-46.115 0-83.65-37.559-83.65-83.707 0-46.172 37.532-83.742 83.65-83.742 20.463 0 40.242 7.6 55.708 21.421 12.156 10.86 29.552 13.568 44.432 6.911 14.877-6.659 24.456-21.437 24.456-37.735v-240.59h172.699c-3.562 13.635-5.377 27.705-5.377 41.898 0 91.731 74.619 166.348 166.353 166.348 91.765 0 166.405-74.613 166.405-166.348 0-14.191-1.816-28.262-5.38-41.898h172.763l-0.004 172.695c-13.639-3.568-27.714-5.386-41.911-5.386zM241.053-64.009c-18.118 0-32.807 14.689-32.807 32.807v225.516c-16.251-5.514-33.282-8.329-50.448-8.329-87.010 0-157.798 70.83-157.798 157.889 0 87.044 70.784 157.854 157.798 157.854 17.169 0 34.195-2.815 50.448-8.333v225.546c0 18.118 14.689 32.807 32.807 32.807h225.498c-5.498 16.23-8.302 33.248-8.302 50.431 0 87.022 70.798 157.819 157.819 157.819 87.025 0 157.824-70.8 157.819-157.823 0-17.18-2.8-34.198-8.289-50.431h225.59c18.118 0 32.807-14.689 32.807-32.807v-281.966c0-12.944-7.608-24.676-19.427-29.956-11.815-5.275-25.629-3.113-35.27 5.522-16.966 15.203-38.755 23.572-61.356 23.572-50.838 0-92.192-41.376-92.188-92.241 0-50.883 41.357-92.275 92.192-92.275 22.605 0 44.398 8.367 61.357 23.563 9.634 8.637 23.453 10.801 35.275 5.524 11.814-5.279 19.423-17.013 19.423-29.953v-281.931c0-18.118-14.689-32.807-32.807-32.807h-282.001c-12.948 0-24.68 7.611-29.961 19.438-5.274 11.826-3.103 25.644 5.544 35.279 15.187 16.924 23.551 38.708 23.551 61.327 0 50.837-41.388 92.201-92.258 92.201-50.843 0-92.205-41.36-92.205-92.201 0-22.021 7.924-43.284 21.978-59.617 6.487-6.539 9.998-14.781 9.998-23.621 0-17.788-14.161-32.278-31.835-32.793l-282.951-0.014z" />
<glyph unicode="&#xe915;" glyph-name="photo-default" d="M253.025 41.412l477.79 582.742c18.445 22.496 53.033 21.95 70.758-1.118l117.015-152.287v308.545c0 41.584-33.71 75.294-75.294 75.294h-662.588c-41.584 0-75.294-33.71-75.294-75.294v-662.588c0-41.584 33.71-75.294 75.294-75.294h72.32zM369.865 41.412h473.429c41.584 0 75.294 33.71 75.294 75.294v205.751l-153.985 200.402-394.738-481.446zM1008.941 338.295c0.003-0.302 0.003-0.605 0-0.907v-220.682c0-91.484-74.163-165.647-165.647-165.647h-568.567c-0.232-0.002-0.464-0.002-0.696 0h-93.325c-91.484 0-165.647 74.163-165.647 165.647v662.588c0 91.484 74.163 165.647 165.647 165.647h662.588c91.484 0 165.647-74.163 165.647-165.647v-440.999zM354.719 479.791c-69.306 0-125.49 56.184-125.49 125.49s56.184 125.49 125.49 125.49c69.306 0 125.49-56.184 125.49-125.49s-56.184-125.49-125.49-125.49zM354.719 570.144c19.406 0 35.137 15.731 35.137 35.137s-15.731 35.137-35.137 35.137c-19.406 0-35.137-15.731-35.137-35.137s15.731-35.137 35.137-35.137z" />
<glyph unicode="&#xe916;" glyph-name="reference" horiz-adv-x="931" d="M290.909 389.818v-69.818h-151.273c-70.692 0-128 57.308-128 128v372.364c0 70.692 57.308 128 128 128h372.364c70.692 0 128-57.308 128-128v-151.273h-69.818v151.273c0 32.133-26.049 58.182-58.182 58.182h-372.364c-32.133 0-58.182-26.049-58.182-58.182v-372.364c0-32.133 26.049-58.182 58.182-58.182h151.273zM360.727 294.522l-69.818-6.8v253.368c0 70.692 57.308 128 128 128h372.364c70.692 0 128-57.308 128-128v-372.364c0-70.692-57.308-128-128-128h-229.44l49.262 69.818h180.179c32.133 0 58.182 26.049 58.182 58.182v372.364c0 32.133-26.049 58.182-58.182 58.182h-372.364c-32.133 0-58.182-26.049-58.182-58.182v-246.569zM596.803 238.643l-107.739 88.801v-11.358c0-27.231-21.957-49.277-49.248-49.645-100.506-0.88-161.39-29.567-192.229-86.521-2.665-4.919-5.1-10.022-7.318-15.322 11.289 7.844 22.99 14.569 35.206 20.252 44.478 20.734 83.643 25.539 164.036 25.539 13.147 0 25.822-5.357 34.564-14.099 9.728-9.344 15.099-22.159 15.099-35.548v-11.096l107.63 88.998zM419.245 391.586c0 21.85 17.713 39.564 39.564 39.564 9.182 0 18.078-3.194 25.163-9.034l185.516-152.906c16.861-13.897 19.264-38.832 5.367-55.693-2.49-2.832-2.49-2.832-5.318-5.327l-185.407-153.31c-16.839-13.924-41.778-11.561-55.702 5.278-5.865 7.093-9.074 16.008-9.074 25.212v55.076c-56.875-0.761-85.118-5.236-114.407-18.889-32.236-14.996-60.753-41.144-90.008-83.658l-67.239-97.715 3.588 118.56c1.857 61.364 11.31 110.872 34.905 154.427 42.009 77.582 120.148 117.538 233.051 122.563v55.853z" />
<glyph unicode="&#xe917;" glyph-name="schedule" d="M512-49.778c-274.915 0-497.778 222.863-497.778 497.778s222.863 497.778 497.778 497.778c274.915 0 497.778-222.863 497.778-497.778s-222.863-497.778-497.778-497.778zM512 35.556c227.787 0 412.444 184.658 412.444 412.444s-184.658 412.444-412.444 412.444c-227.787 0-412.444-184.658-412.444-412.444s184.658-412.444 412.444-412.444zM463.644 465.673l124.037-124.037c16.662-16.662 16.662-43.677 0-60.34s-43.677-16.662-60.34 0l-136.533 136.533c-8.002 8.002-12.497 18.854-12.497 30.17v273.067c0 23.564 19.103 42.667 42.667 42.667s42.667-19.103 42.667-42.667v-255.394z" />
<glyph unicode="&#xe918;" glyph-name="compose" horiz-adv-x="1084" d="M918.588 417.882h90.353v-301.176c0-91.484-74.163-165.647-165.647-165.647h-662.588c-91.484 0-165.647 74.163-165.647 165.647v662.588c0 91.484 74.163 165.647 165.647 165.647h361.412v-90.353h-361.412c-41.584 0-75.294-33.71-75.294-75.294v-662.588c0-41.584 33.71-75.294 75.294-75.294h662.588c41.584 0 75.294 33.71 75.294 75.294v301.176zM873.412 835.876l-346.353-346.353v-86.699h86.699l346.353 346.353-86.699 86.699zM905.356 931.709l150.588-150.588c17.643-17.643 17.643-46.247 0-63.889l-391.529-391.529c-8.472-8.472-19.963-13.232-31.945-13.232h-150.588c-24.95 0-45.176 20.226-45.176 45.176v150.588c0 11.982 4.76 23.472 13.232 31.945l391.529 391.529c17.643 17.643 46.247 17.643 63.889 0z" />
<glyph unicode="&#xe919;" glyph-name="crown" horiz-adv-x="1265" d="M54.212 682.291c0 70.318 57.199 127.516 127.516 127.516 70.319 0 127.519-57.199 127.516-127.516 0-37.135-16.064-71.699-43.309-95.687l139.014-112.89 158.34 197.479c-35.945 23.279-58.335 63.276-58.335 107.079 0 70.317 57.199 127.516 127.516 127.516s127.516-57.199 127.516-127.516c0-44.413-23.020-84.891-59.782-108.004l148.187-196.734 149.261 114.28c-26.441 23.951-41.956 57.979-41.956 94.477 0 70.318 57.198 127.516 127.516 127.516s127.516-57.199 127.516-127.516c0-60.152-42.157-111.735-99.93-124.511l-58.011-350.727v-179.172c0-23.459-19.014-42.472-42.472-42.472h-755.69c-23.459 0-42.472 19.014-42.472 42.472l0.081 178.082-58.111 351.821c-57.763 12.784-99.911 64.362-99.911 124.507zM285.051 173.451v-109.122l6.024-6.024h682.793l6.024 6.024v109.122l-6.024 6.024h-682.793l-6.024-6.024zM1011.544 491.458l-145.488-111.396c-9.032-6.9-20.348-9.912-31.564-8.362-11.221 1.528-21.363 7.483-28.175 16.534l-174.894 232.144-186.932-233.166c-7.078-8.817-17.38-14.452-28.659-15.659-11.272-1.136-22.513 2.174-31.252 9.264l-130.283 105.802 35.646-234.246h685.069l36.531 239.086zM632.471 735.696c23.474 0 42.574 19.1 42.574 42.574s-19.1 42.574-42.574 42.574c-23.474 0-42.574-19.1-42.574-42.574s19.1-42.574 42.574-42.574zM1083.213 639.717c23.474 0 42.574 19.1 42.574 42.574s-19.1 42.574-42.574 42.574c-23.474 0-42.574-19.1-42.574-42.574s19.1-42.574 42.574-42.574zM181.728 639.717c23.476 0 42.574 19.099 42.574 42.574s-19.1 42.574-42.574 42.574c-23.474 0-42.574-19.1-42.574-42.574s19.1-42.574 42.574-42.574z" />
<glyph unicode="&#xe91a;" glyph-name="comment" d="M124.351 60.349l207.283 69.094c10.792 3.597 22.574 2.736 32.729-2.393 53.576-27.062 112.788-41.085 172.905-40.929 146.616 0.057 280.621 82.929 346.248 214.239 27.062 53.576 41.085 112.788 40.929 172.81l0.065 23.045c-10.842 196.527-167.765 353.449-361.941 364.227h-25.395c-60.023 0.156-119.234-13.867-172.972-41.010-131.148-65.546-214.020-199.551-214.077-346.262-0.156-60.023 13.867-119.234 40.929-172.81 5.129-10.154 5.99-21.936 2.393-32.729l-69.094-207.283zM959.766 262.050c-79.993-160.055-243.534-261.192-422.37-261.261-67.413-0.176-133.99 14.263-195.169 42.236l-271.845-90.615c-33.355-11.118-65.088 20.615-53.97 53.97l90.615 271.845c-27.973 61.178-42.412 127.748-42.237 195.074 0.069 178.931 101.207 342.472 261.099 422.384 65.573 33.121 138.043 50.285 211.394 50.094l27.634-0.065c239.956-13.238 431.557-204.839 444.86-447.145v-25.23c0.183-73.444-16.981-145.892-50.012-211.287zM369.451 512.398c-23.564 0-42.667 19.103-42.667 42.667s19.103 42.667 42.667 42.667h343.45c23.564 0 42.667-19.103 42.667-42.667s-19.103-42.667-42.667-42.667h-343.45zM369.778 320c-23.564 0-42.667 19.103-42.667 42.667s19.103 42.667 42.667 42.667h229.673c23.564 0 42.667-19.103 42.667-42.667s-19.103-42.667-42.667-42.667h-229.673z" />
<glyph unicode="&#xe91b;" glyph-name="lists" horiz-adv-x="1682" d="M292.571 832c-30.297 0-54.857 24.56-54.857 54.857s24.56 54.857 54.857 54.857h877.714c30.297 0 54.857-24.56 54.857-54.857s-24.56-54.857-54.857-54.857h-877.714zM292.571 393.143c-30.297 0-54.857 24.56-54.857 54.857s24.56 54.857 54.857 54.857h877.714c30.297 0 54.857-24.56 54.857-54.857s-24.56-54.857-54.857-54.857h-877.714zM292.571-45.714c-30.297 0-54.857 24.56-54.857 54.857s24.56 54.857 54.857 54.857h877.714c30.297 0 54.857-24.56 54.857-54.857s-24.56-54.857-54.857-54.857h-877.714zM73.143 813.714c-40.396 0-73.143 32.747-73.143 73.143s32.747 73.143 73.143 73.143c40.396 0 73.143-32.747 73.143-73.143s-32.747-73.143-73.143-73.143zM73.143 374.857c-40.396 0-73.143 32.747-73.143 73.143s32.747 73.143 73.143 73.143c40.396 0 73.143-32.747 73.143-73.143s-32.747-73.143-73.143-73.143zM73.143-64c-40.396 0-73.143 32.747-73.143 73.143s32.747 73.143 73.143 73.143c40.396 0 73.143-32.747 73.143-73.143s-32.747-73.143-73.143-73.143zM1643.276 184.686c2.772-2.079 5.235-4.542 7.314-7.314 12.119-16.158 8.844-39.081-7.314-51.2l-195.048-146.286c-6.33-4.748-14.030-7.314-21.943-7.314-20.198 0-36.571 16.374-36.571 36.571v292.571c0 7.913 2.567 15.612 7.314 21.943 12.119 16.158 35.042 19.433 51.2 7.314l195.048-146.286z" />
<glyph unicode="&#xe91c;" glyph-name="arrow-right" horiz-adv-x="1252" d="M938.044 361.361l-190.929-200.092c-32.535-34.096-31.269-88.112 2.827-120.646s88.112-31.269 120.646 2.827l329.813 345.641c31.911 33.442 31.392 86.212-1.169 119.021l-329.813 332.316c-33.199 33.45-87.228 33.655-120.679 0.456s-33.655-87.228-0.456-120.679l186.776-188.193-821.836-5.342c-47.127-0.306-85.083-38.759-84.777-85.886s38.759-85.083 85.886-84.777l823.711 5.355z" />
<glyph unicode="&#xe91d;" glyph-name="caret-down" horiz-adv-x="1707" d="M261.176 879.843c-49.987 49.987-131.032 49.987-181.019 0s-49.987-131.032 0-181.019l682.667-682.667c49.987-49.987 131.032-49.987 181.019 0l682.667 682.667c49.987 49.987 49.987 131.032 0 181.019s-131.032 49.987-181.019 0l-592.157-592.157-592.157 592.157z" />
<glyph unicode="&#xe91e;" glyph-name="caret-up" horiz-adv-x="1707" d="M261.176 16.157c-49.987-49.987-131.032-49.987-181.019 0s-49.987 131.032 0 181.019l682.667 682.667c49.987 49.987 131.032 49.987 181.019 0l682.667-682.667c49.987-49.987 49.987-131.032 0-181.019s-131.032-49.987-181.019 0l-592.157 592.157-592.157-592.157z" />
<glyph unicode="&#xe91f;" glyph-name="bell" d="M963.765 267.294v-90.353h-903.529v90.353c49.901 0 90.353 40.452 90.353 90.353v225.882c0 199.602 161.81 361.412 361.412 361.412s361.412-161.81 361.412-361.412v-225.882c0-49.901 40.452-90.353 90.353-90.353zM783.059 357.647v225.882c0 149.702-121.357 271.059-271.059 271.059s-271.059-121.357-271.059-271.059v-225.882c0-32.914-8.8-63.774-24.175-90.353h590.468c-15.375 26.579-24.175 57.439-24.175 90.353zM60.235 176.941c-60.235 0-60.235 90.353 0 90.353h156.531c-31.245-54.013-89.644-90.353-156.531-90.353zM963.765 267.294c60.235 0 60.235-90.353 0-90.353-66.887 0-125.286 36.34-156.531 90.353h156.531zM590.155 86.588c34.818 0 56.548-37.727 39.078-67.845-24.246-41.798-68.912-67.525-117.233-67.525s-92.987 25.727-117.233 67.525c-17.471 30.118 4.26 67.845 39.078 67.845h156.311z" />
<glyph unicode="&#xe920;" glyph-name="cancel" d="M620.612 448l355.294-355.294c29.992-29.992 29.992-78.619 0-108.612s-78.619-29.992-108.612 0l-355.294 355.294-355.294-355.294c-29.992-29.992-78.619-29.992-108.612 0s-29.992 78.619 0 108.612l355.294 355.294-355.294 355.294c-29.992 29.992-29.992 78.619 0 108.612s78.619 29.992 108.612 0l355.294-355.294 355.294 355.294c29.992 29.992 78.619 29.992 108.612 0s29.992-78.619 0-108.612l-355.294-355.294z" />
<glyph unicode="&#xe921;" glyph-name="retry" d="M236.299 53.701c-176.538 130.114-240.692 368.327-153.247 569.501 114.23 263.103 427.34 362.435 669.341 226.303l63.918 110.71c3.551 6.151 13.126 4.979 16.096-1.861l131.3-299.019c2.18-5.102-1.039-10.676-6.547-11.34l-324.608-35.8c-7.409-0.848-13.1 7.051-9.66 13.009l63.807 110.517c-170.501 94.851-388.818 29.205-476.492-149.284-75.533-153.465-24.266-342.978 118.102-437.731 150.876-100.435 348.658-65.473 457.937 68.764 20.289 24.933 55.856 31.051 83.533 15.071 34.405-19.863 43.669-65.96 18.646-96.873-155.177-191.539-441.207-237.312-652.126-81.966z" />
<glyph unicode="&#xe922;" glyph-name="caret-left" horiz-adv-x="597" d="M557.255 66.588c24.994-24.994 24.994-65.516 0-90.51s-65.516-24.994-90.51 0l-426.667 426.667c-24.994 24.994-24.994 65.516 0 90.51l426.667 426.667c24.994 24.994 65.516 24.994 90.51 0s24.994-65.516 0-90.51l-381.412-381.412 381.412-381.412z" />
<glyph unicode="&#xe923;" glyph-name="arrow-down" horiz-adv-x="788" d="M315.077 204.935v676.296c0 43.503 35.266 78.769 78.769 78.769s78.769-35.266 78.769-78.769v-676.296l180.609 180.609c30.761 30.761 80.635 30.761 111.397 0s30.761-80.635 0-111.397l-315.077-315.077c-30.761-30.761-80.635-30.761-111.397 0l-315.077 315.077c-30.761 30.761-30.761 80.635 0 111.397s80.635 30.761 111.397 0l180.609-180.609z" />
<glyph unicode="&#xe924;" glyph-name="download" horiz-adv-x="723" d="M301.176 382.597v517.167c0 33.267 26.968 60.235 60.235 60.235s60.235-26.968 60.235-60.235v-517.167l138.113 138.113c23.523 23.523 61.662 23.523 85.186 0s23.523-61.662 0-85.186l-240.941-240.941c-23.523-23.523-61.662-23.523-85.186 0l-240.941 240.941c-23.523 23.523-23.523 61.662 0 85.186s61.662 23.523 85.186 0l138.113-138.113zM60.235-64c-33.267 0-60.235 26.968-60.235 60.235s26.968 60.235 60.235 60.235h602.353c33.267 0 60.235-26.968 60.235-60.235s-26.968-60.235-60.235-60.235h-602.353z" />
<glyph unicode="&#xe925;" glyph-name="zoom-in" d="M721.731 160.33c-75.794-59.127-171.142-94.354-274.719-94.354-246.878 0-447.012 200.134-447.012 447.012s200.134 447.012 447.012 447.012c246.878 0 447.012-200.134 447.012-447.012 0-103.577-35.227-198.925-94.354-274.719l176.188-176.188c21.522-21.522 21.522-56.417 0-77.939s-56.417-21.522-77.939 0l-176.188 176.188zM689.876 279.653c58.169 60.529 93.926 142.756 93.926 233.334 0 186.004-150.786 336.79-336.79 336.79s-336.79-150.786-336.79-336.79c0-186.004 150.786-336.79 336.79-336.79 90.578 0 172.805 35.757 233.334 93.926 1.371 1.752 2.863 3.44 4.477 5.053s3.301 3.105 5.053 4.477zM394.69 455.892h-93.14c-27.073 0-49.021 21.947-49.021 49.021s21.947 49.021 49.021 49.021h93.14v96.408c0 27.976 22.679 50.655 50.655 50.655s50.655-22.679 50.655-50.655v-96.408h93.14c27.073 0 49.021-21.947 49.021-49.021s-21.947-49.021-49.021-49.021h-93.14v-96.408c0-27.976-22.679-50.655-50.655-50.655s-50.655 22.679-50.655 50.655v96.408z" />
<glyph unicode="&#xe926;" glyph-name="production-view" horiz-adv-x="916" d="M598.83-50.526h-263.485c-2.035 0-4.034 0.15-5.988 0.441-1.954-0.29-3.954-0.441-5.988-0.441h-269.474c-22.324 0-40.421 18.097-40.421 40.421v885.501c0 22.324 18.097 40.421 40.421 40.421h269.474c2.035 0 4.034-0.15 5.988-0.441 1.954 0.29 3.954 0.441 5.988 0.441h526.971c22.324 0 40.421-18.097 40.421-40.421v-885.501c0-22.324-18.097-40.421-40.421-40.421h-263.485zM645.24 30.316h176.655v804.659h-176.655v-804.659zM552.421 834.975h-176.655v-804.659h176.655v804.659zM94.316 30.316h188.632v804.659h-188.632v-804.659z" />
<glyph unicode="&#xe927;" glyph-name="locked" horiz-adv-x="904" d="M189.072 553.412v128.837c0 145.081 117.612 262.693 262.693 262.693s262.693-117.612 262.693-262.693v-128.837h68.601c58.217 0 105.412-47.194 105.412-105.412v-358.065c0-58.217-47.194-105.412-105.412-105.412h-662.588c-58.217 0-105.412 47.194-105.412 105.412v358.065c0 58.217 47.194 105.412 105.412 105.412h68.601zM279.425 553.412h344.68v128.837c0 95.181-77.159 172.34-172.34 172.34s-172.34-77.159-172.34-172.34v-128.837zM120.471 463.059c-8.317 0-15.059-6.742-15.059-15.059v-358.065c0-8.317 6.742-15.059 15.059-15.059h662.588c8.317 0 15.059 6.742 15.059 15.059v358.065c0 8.317-6.742 15.059-15.059 15.059h-662.588zM455.21 355.011c33.267 0 60.235-26.968 60.235-60.235v-60.235c0-33.267-26.968-60.235-60.235-60.235s-60.235 26.968-60.235 60.235v60.235c0 33.267 26.968 60.235 60.235 60.235z" />
<glyph unicode="&#xe928;" glyph-name="unlocked" horiz-adv-x="904" d="M189.072 553.412v128.837c0 145.081 117.612 262.693 262.693 262.693 128.343 0 237.279-92.643 258.862-217.787 4.24-24.587-12.254-47.957-36.841-52.197s-47.957 12.254-52.197 36.841c-14.14 81.985-85.638 142.79-169.824 142.79-95.181 0-172.34-77.159-172.34-172.34v-128.837h503.634c58.217 0 105.412-47.194 105.412-105.412v-358.065c0-58.217-47.194-105.412-105.412-105.412h-662.588c-58.217 0-105.412 47.194-105.412 105.412v358.065c0 58.217 47.194 105.412 105.412 105.412h68.601zM120.471 463.059c-8.317 0-15.059-6.742-15.059-15.059v-358.065c0-8.317 6.742-15.059 15.059-15.059h662.588c8.317 0 15.059 6.742 15.059 15.059v358.065c0 8.317-6.742 15.059-15.059 15.059h-662.588zM455.21 355.011c33.267 0 60.235-26.968 60.235-60.235v-60.235c0-33.267-26.968-60.235-60.235-60.235s-60.235 26.968-60.235 60.235v60.235c0 33.267 26.968 60.235 60.235 60.235z" />
<glyph unicode="&#xe929;" glyph-name="caret-right" horiz-adv-x="597" d="M89.054 117.106c-23.055-26.792-20.027-67.201 6.764-90.257s67.201-20.027 90.256 6.764l353.104 410.319c20.652 23.999 20.652 59.493 0 83.492l-353.104 410.319c-23.055 26.792-63.465 29.82-90.256 6.764s-29.82-63.465-6.764-90.257l317.179-368.573-317.179-368.573z" />
<glyph unicode="&#xe92a;" glyph-name="review" horiz-adv-x="1344" d="M20.956 426.758c-6.608 13.391-6.608 29.094 0 42.485 7.643 15.488 22.083 41.496 43.159 74.559 34.92 54.782 76.129 109.537 123.563 160.799 137.808 148.929 299.656 239.4 484.322 239.4s346.514-90.47 484.322-239.4c47.434-51.262 88.643-106.017 123.563-160.799 21.076-33.063 35.515-59.071 43.159-74.559 6.608-13.391 6.608-29.094 0-42.485-7.643-15.488-22.083-41.496-43.159-74.559-34.92-54.782-76.129-109.537-123.563-160.799-137.808-148.929-299.656-239.4-484.322-239.4s-346.514 90.47-484.322 239.4c-47.434 51.262-88.643 106.017-123.563 160.799-21.076 33.063-35.515 59.071-43.159 74.559zM145.067 403.801c32.011-50.218 69.825-100.463 113.073-147.201 121.283-131.071 259.98-208.6 413.86-208.6s292.577 77.53 413.86 208.6c43.248 46.738 81.062 96.983 113.073 147.201 10.145 15.915 19.014 30.759 26.581 44.199-7.567 13.44-16.436 28.284-26.581 44.199-32.011 50.218-69.825 100.463-113.073 147.201-121.283 131.071-259.98 208.6-413.86 208.6s-292.577-77.53-413.86-208.6c-43.248-46.738-81.062-96.983-113.073-147.201-10.145-15.915-19.014-30.759-26.581-44.199 7.567-13.44 16.436-28.284 26.581-44.199zM672 272c-114.875 0-208 93.125-208 208s93.125 208 208 208c114.875 0 208-93.125 208-208s-93.125-208-208-208zM672 368c61.856 0 112 50.144 112 112s-50.144 112-112 112c-61.856 0-112-50.144-112-112s50.144-112 112-112z" />
<glyph unicode="&#xe92b;" glyph-name="chevron-double-down" horiz-adv-x="1252" d="M625.778 151.155l461.809 335.861c38.114 27.72 91.483 19.293 119.203-18.821s19.293-91.483-18.821-119.203l-512-372.364c-29.922-21.762-70.459-21.762-100.381 0l-512 372.364c-38.114 27.72-46.541 81.088-18.821 119.203s81.088 46.541 119.203 18.821l461.809-335.861zM625.778 579.373l461.809 335.861c38.114 27.72 91.483 19.293 119.203-18.821s19.293-91.483-18.821-119.203l-512-372.364c-29.922-21.762-70.459-21.762-100.381 0l-512 372.364c-38.114 27.72-46.541 81.088-18.821 119.203s81.088 46.541 119.203 18.821l461.809-335.861z" />
<glyph unicode="&#xe92c;" glyph-name="chevron-double-up" horiz-adv-x="1252" d="M625.778 740.714l461.809-335.861c38.114-27.72 91.483-19.293 119.203 18.821s19.293 91.483-18.821 119.203l-512 372.364c-29.922 21.762-70.459 21.762-100.381 0l-512-372.364c-38.114-27.72-46.541-81.088-18.821-119.203s81.088-46.541 119.203-18.821l461.809 335.861zM625.778 312.496l461.809-335.861c38.114-27.72 91.483-19.293 119.203 18.821s19.293 91.483-18.821 119.203l-512 372.364c-29.922 21.762-70.459 21.762-100.381 0l-512-372.364c-38.114-27.72-46.541-81.088-18.821-119.203s81.088-46.541 119.203-18.821l461.809 335.861z" />
<glyph unicode="&#xe92d;" glyph-name="exclamation-triangle" horiz-adv-x="1103" d="M1071.529 241.073l-362.151 627.593c-32.633 56.511-92.926 91.334-158.194 91.334s-125.559-34.822-158.192-91.334l-368.516-638.341c-32.633-56.511-32.633-126.156 0-182.667s92.926-91.334 158.192-91.334h737.037c0.201 0 0.398 0 0.398 0 100.885 0 182.667 81.784 182.667 182.667 0 37.807-11.541 73.027-31.24 102.081zM629.386 179.985c0-43.18-33.23-76.211-78.002-76.211s-78.002 33.031-78.002 76.211v1.789c0 42.983 33.23 76.213 78.002 76.213s78.002-33.033 78.002-76.213v-1.789zM631.177 693.759l-38.603-337.079c-2.587-24.276-18.704-39.399-41.19-39.399s-38.603 15.322-41.19 39.399l-38.603 337.278c-2.587 26.067 11.543 45.766 35.817 45.766h87.752c24.276-0.199 38.603-19.898 36.016-45.965z" />
<glyph unicode="&#xe92e;" glyph-name="age-adult" horiz-adv-x="904" d="M229.43 351.057c11.375-2.482 21.092-2.91 44.060-2.656 22.804 0.252 33.295-0.104 52.032-4.724 29.060-23.039 42.745-80.404 39.13-129.387-3.387-46.573-25.314-64.095-80.877-80.563-45.042-13.35-50.149-15.045-68.76-24.415-13.111-6.601-25.045-14.4-36.121-23.865-18.498-15.836-20.114-17.243-28.5-25.129-5.964-5.608-11.247-10.91-15.799-15.912-5.096-5.599-9.118-10.693-11.956-15.015 57.94-2.722 269.649 4.441 319.751 9.973 12.416 1.408 27.329 1.781 48.127 1.519 4.781-0.060 8.482-0.127 16.788-0.292 14.318-0.288 19.215-0.366 25.658-0.366 15.69-0.061 26.095 0.762 47.826 3.277l0.629 0.073c15.896 1.839 23.756 2.587 34.39 3.056 15.556 0.729 29.399 0.539 65.405-0.506 7.249-0.21 7.249-0.21 14.511-0.406 33.177-0.866 55.765-0.668 72.789 1.169-12.3 21.377-42.234 36.982-106.35 61.172l-3.191 1.204c-89.85 33.898-121.422 53.895-124.798 98.433-4.202 55.075 0.889 86.426 17.528 103.543 14.142 14.549 27.902 16.656 67.407 16.060 57.96-0.875 91.332 6.057 130.671 37.725-2.555 2.208-5.585 4.52-9.452 7.298-20.081 14.422-26.544 20.019-37.158 35.020-17.212 24.396-28.945 48.065-35.329 73.209-6.056 24.16-7.451 56.735-6.356 109.161 0.145 6.933 0.279 12.275 0.602 24.394 1.054 39.35 1.244 53.782 0.565 69.743-5.161 122.277-89.492 190.112-200.562 183.39-108.879-6.589-198.612-82.814-206.423-190.434-0.345-4.709-1.847-26.658-2.19-31.514-1.092-15.474-2.145-29.163-3.359-43.211-3.268-37.821-7.268-72.859-12.434-105.989-8.776-56.283-20.279-102.791-35.295-137.514 8.878-3.025 16.856-5.269 27.040-7.522zM127.419 295.164c-19.738 15.257-21.376 48.944-12.258 98.002 2.388 12.849 5.491 26.383 9.246 40.813 3.374 12.962 6.72 24.658 11.577 41.235 12.879 45.464 16.683 78.016 20.625 149.914 2.992 54.568 5.594 79.457 13.264 110.078 8.298 33.127 21.671 63.448 42.098 93.411 39.915 58.764 111.096 107.393 179.674 121.867 87.733 18.504 185.921 10.546 246.775-28.46 58.618-37.613 92.279-99.701 113.028-188.629 6.243-26.67 8.412-58.292 8.721-106.68 0.046-7.228 0.055-13.013 0.053-25.895-0.010-70.87 1.819-97.875 10.15-115.194 6.92-14.362 17.818-26.752 37.722-44.782l12.51-11.234c4.912-4.435 8.658-7.925 12.124-11.342 37.275-36.74 38.977-69.494-7.486-110.898-21.583-19.243-48.666-34.010-81.729-46.185-25.37-9.342-103.806-30.336-96.814-28.208-7.18-2.184-12.609-4.187-16.385-6.003 2.94-10.473 14.804-16.727 44.504-26.297l0.83-0.268c10.567-3.405 15.685-5.153 21.588-7.509 101.354-40.756 220.437-139.984 204.918-200.675-16.472-32.228-58.788-43.398-125.292-43.36-15.731 0.009-30.568 0.564-53.606 1.796-29.884 1.598-33.461 1.762-42.453 1.762-62.627 0-116.94-1.583-244.080-6.382l-5.652-0.213c-109.147-4.118-161.6-5.7-219.647-6.11-10.836-0.081-19.308-0.3-41.539-0.988-9.446-0.292-13.608-0.415-18.978-0.556-82.216-2.155-122.172 2.878-141.692 27.414-26.534 33.351 3.839 88.413 96.062 175.952 16.732 15.857 41.090 31.013 75.066 48.255 13.772 6.989 56.613 27.444 58.869 28.557 12.266 6.048 20.658 10.743 24.9 13.685l-3.775 19.975c-7.041 1.701-16.252 2.912-31.879 4.488-13.215 1.332-15.987 1.626-22.038 2.392-38.79 4.915-63.483 14.417-79.004 36.275z" />
<glyph unicode="&#xe92f;" glyph-name="age-child" horiz-adv-x="819" d="M514.157 742.133c168.418-45.884 292.243-199.922 292.243-382.88 0-219.147-177.653-396.8-396.8-396.8s-396.8 177.653-396.8 396.8c0 219.147 177.653 396.8 396.8 396.8 11.976 0 23.829-0.531 35.535-1.569 3.769 7.040 6.499 14.685 8.066 22.748 6.060 31.174-14.376 61.462-45.553 67.522-11.724 2.279-22.79 0.963-31.166-3.702-7.097-3.954-11.478-9.998-13.027-17.969-3.597-18.505-21.517-30.59-40.019-26.993-18.505 3.597-30.59 21.517-26.993 40.019 5.415 27.84 22.040 50.774 46.817 64.575 22.418 12.489 49.913 16.426 77.421 11.079 68.121-13.241 112.774-79.438 99.529-147.562-1.472-7.571-3.499-14.941-6.052-22.066zM409.6 39.253c176.731 0 320 143.269 320 320s-143.269 320-320 320c-176.731 0-320-143.269-320-320s143.269-320 320-320zM513.56 292.72c16.18-13.111 18.665-36.855 5.551-53.036-26.912-33.205-66.833-52.251-109.51-52.251s-82.594 19.042-109.51 52.251c-13.115 16.18-10.63 39.925 5.551 53.036 16.18 13.107 39.925 10.63 53.036-5.551 12.526-15.456 31.094-24.325 50.924-24.325s38.394 8.865 50.924 24.325c13.115 16.173 36.859 18.665 53.036 5.551zM314.317 448.158c14.725-14.729 14.725-38.605 0-53.33-7.361-7.361-17.014-11.045-26.663-11.045s-19.299 3.684-26.663 11.045c-4.804 4.8-12.621 4.8-17.421 0-14.725-14.725-38.601-14.725-53.326 0.004-14.729 14.729-14.725 38.601 0 53.326 34.212 34.204 89.868 34.204 124.073 0zM628.956 448.162c14.725-14.729 14.725-38.601 0-53.326-14.725-14.729-38.601-14.732-53.326-0.004-4.804 4.804-12.621 4.796-17.421 0-7.36-7.361-17.014-11.045-26.663-11.045s-19.302 3.68-26.663 11.045c-14.725 14.729-14.725 38.605 0 53.33 34.204 34.201 89.864 34.201 124.073 0z" />
<glyph unicode="&#xe930;" glyph-name="age-old" horiz-adv-x="701" d="M543.686 216.443c32.273 0 62.951-10.144 88.784-29.357 37.616-28.009 60.077-72.7 60.077-119.529v-101.43c0-13.092-10.61-23.702-23.702-23.702h-637.059c-13.092 0-23.702 10.61-23.702 23.702v101.43c0 46.827 22.46 91.519 60.068 119.519 25.84 19.221 56.517 29.367 88.793 29.367h109.291l8.084 8.084v31.203l-5.914 7.787c-124.906 34.813-214.782 145.845-221.308 277.277-0.241 4.984-0.363 10.081-0.363 15.157 0 29.924 4.365 59.512 12.94 87.893l-0.678 6.275c-16.799 30.131-25.573 63.959-25.573 98.711 0 111.976 91.117 203.085 203.097 203.085 70.324 0 135.096-35.977 172.216-95.395l5.175-3.624c23.479-4.993 46.281-12.816 68.235-23.412 50.682-24.464 93.55-62.5 123.977-109.997 31.26-48.794 47.781-105.34 47.781-163.537 0-4.994-0.127-10.108-0.376-15.282-6.526-131.321-96.415-242.342-221.295-277.151l-5.914-7.787v-31.203l8.084-8.084h109.279zM116.136 509.068c22.234-120.831 99.607-187.109 234.18-187.109s208.977 66.283 231.21 187.109l-7.124 9.505c-77.586-22.094-154.268 60.686-154.268 146.085l-10.209 6.341c-40.2-11.655-84.021-11.655-124.221 0l-10.209-6.341c10.209-85.399-59.751-155.59-152.234-146.085l-7.124-9.505zM350.322 812.119c-38.97 0-76.414-8.522-111.238-25.331-82.085-39.641-137.466-121.3-144.249-212.068l-0.736-9.854 9.805 1.23c73.686 9.247 129.741 72.283 129.741 147.149 0 2.743-0.085 5.595-0.248 8.532-0.482 8.553 3.686 16.701 10.897 21.311s16.35 4.973 23.909 0.953c25.104-13.366 53.49-20.428 82.12-20.428 28.619 0 57.006 7.063 82.111 20.43 7.556 4.019 16.696 3.655 23.906-0.954s11.379-12.758 10.897-21.305c-0.157-2.816-0.236-5.685-0.236-8.538 0-74.868 56.045-137.902 129.729-147.149l9.805-1.23-0.736 9.854c-6.784 90.779-62.162 172.437-144.258 212.073-21.908 10.583-44.917 17.895-68.73 21.853-1.15 0.165-1.15 0.165-2 0.325-13.476 2.12-26.881 3.149-40.487 3.149zM236.524 888.343c-76.159 0-138.278-61.358-139.506-137.222 30.37 39.394 69.494 71.227 114.437 92.925 28.868 13.932 59.18 23.314 90.545 28.050-19.961 10.596-42.373 16.247-65.477 16.247zM623.822 14.735v52.834c0 32.381-16.285 51.111-42.297 70.478-17.56 13.069-20.082 25.594-42.063 25.594h-16.638l-5.717-2.369-32.219-31.057c-36.109-36.109-84.368-55.642-134.565-55.642-50.208 0-98.468 19.532-134.579 55.643l-36.442 20.286-5.717 2.369h-16.638c-21.985 0-23.241-6.898-40.81-19.977-26.001-19.356-40.954-32.934-40.954-65.312v-52.834l8.084-8.084 532.472-0.012 8.084 8.084zM337.894 192.729c0-22.012-17.851-39.858-39.871-39.858h-7.311c18.152-9.703 38.497-14.823 59.609-14.823 21.103 0 41.446 5.12 59.602 14.823h-7.303c-22.019 0-39.871 17.846-39.871 39.858v43.696c-4.126-0.159-8.267-0.239-12.428-0.239s-8.305 0.079-12.428 0.239v-43.696z" />
<glyph unicode="&#xe931;" glyph-name="gender-female" horiz-adv-x="723" d="M298.889 199.347v73.239c-63.824 12.046-124.794 42.716-174.084 92.006-130.468 130.468-130.468 342.75 0.006 473.224 130.461 130.461 342.743 130.461 473.211-0.007 130.462-130.462 130.468-342.75 0.007-473.211-49.274-49.274-110.213-79.938-174.006-91.996v-73.255h69.478c33.267 0 60.235-26.968 60.235-60.235v-4.663c0-33.267-26.968-60.235-60.235-60.235h-69.478v-69.546c0-33.267-26.968-60.235-60.235-60.235h-4.663c-33.267 0-60.235 26.968-60.235 60.235v69.546h-69.635c-33.267 0-60.235 26.968-60.235 60.235v4.663c0 33.267 26.968 60.235 60.235 60.235h69.635zM213.304 749.321c-81.68-81.68-81.68-214.565 0-296.245 81.668-81.668 214.565-81.68 296.245 0 81.674 81.674 81.673 214.572 0 296.245-81.685 81.674-214.571 81.674-296.245 0z" />
<glyph unicode="&#xe932;" glyph-name="gender-male" d="M649.736 495.095l246.046 246.046v-261.925c0-17.688 7.171-33.733 18.768-45.331s27.643-18.789 45.331-18.768c35.417 0 64.12 28.703 64.12 64.12v416.665c0 35.375-28.724 64.12-64.12 64.099h-416.685c-35.417 0-64.12-28.703-64.12-64.12-0.021-35.375 28.724-64.12 64.099-64.099h261.925l-246.025-246.025c-138.881 96.045-331.262 82.389-454.804-41.174-139.027-139.027-139.027-365.265 0-504.292s365.265-139.027 504.292 0c123.563 123.542 137.219 315.923 41.174 454.804zM194.932 130.952c-89.040 89.040-89.040 233.928 0 322.989s233.928 89.040 322.989 0c89.061-89.040 89.040-233.928 0-322.989s-233.949-89.061-322.989 0z" />
<glyph unicode="&#xe933;" glyph-name="gender-other" horiz-adv-x="593" d="M296.421 367.158c-163.709 0-296.421 132.712-296.421 296.421s132.712 296.421 296.421 296.421c163.709 0 296.421-132.712 296.421-296.421s-132.712-296.421-296.421-296.421zM296.421 474.947c104.178 0 188.632 84.453 188.632 188.632s-84.453 188.632-188.632 188.632c-104.178 0-188.632-84.453-188.632-188.632s84.453-188.632 188.632-188.632zM293.609-34.491c-89.296 0-161.684 72.388-161.684 161.684s72.388 161.684 161.684 161.684c89.296 0 161.684-72.388 161.684-161.684s-72.388-161.684-161.684-161.684zM293.609 73.298c29.765 0 53.895 24.129 53.895 53.895s-24.129 53.895-53.895 53.895c-29.765 0-53.895-24.129-53.895-53.895s24.129-53.895 53.895-53.895z" />
<glyph unicode="&#xe934;" glyph-name="post-production-board" horiz-adv-x="872" d="M530.963 391.111v-171.965c0-20.946-16.98-37.926-37.926-37.926h-151.704c-20.946 0-37.926 16.98-37.926 37.926v399.521c0 20.946 16.98 37.926 37.926 37.926h151.704c20.946 0 37.926-16.98 37.926-37.926v-227.556zM568.889 146.709v471.958c0 20.946 16.98 37.926 37.926 37.926h151.704c20.946 0 37.926-16.98 37.926-37.926v-627.076c0-20.946-16.98-37.926-37.926-37.926h-151.704c-20.946 0-37.926 16.98-37.926 37.926v155.118zM37.926 163.556v455.111c0 20.946 16.98 37.926 37.926 37.926h151.704c20.946 0 37.926-16.98 37.926-37.926v-627.076c0-20.946-16.98-37.926-37.926-37.926h-151.704c-20.946 0-37.926 16.98-37.926 37.926v171.965zM94.815 599.704v-151.704h113.778v151.704h-113.778zM94.815 387.522v-167.078h113.778v167.078h-113.778zM94.815 161.243v-150.689h113.778v150.689h-113.778zM625.778 599.704v-151.704h113.778v151.704h-113.778zM625.778 387.522v-183.925h113.778v183.925h-113.778zM625.778 10.554h113.778v134.039h-113.778v-134.039zM360.296 599.704v-151.704h113.778v151.704h-113.778zM360.296 238.109h113.778v149.413h-113.778v-149.413zM29.203 941.796h90.264c13.401 0 25.979-1.327 37.736-3.982s21.997-7.079 30.72-13.274c8.723-6.195 15.613-14.412 20.67-24.652s7.585-22.819 7.585-37.736c0-14.412-2.592-26.927-7.775-37.547s-12.199-19.342-21.049-26.169c-8.849-6.827-19.089-11.883-30.72-15.17s-24.020-4.93-37.167-4.93h-34.513v-83.816h-55.751v247.277zM116.053 822.708c30.341 0 45.511 13.148 45.511 39.443 0 12.895-3.856 21.997-11.567 27.307s-19.026 7.964-33.944 7.964h-31.099v-74.714h31.099zM348.16 689.967c-16.687 0-31.921 2.971-45.701 8.913s-25.6 14.475-35.461 25.6c-9.861 11.125-17.509 24.652-22.945 40.581s-8.154 34.007-8.154 54.234c0 20.227 2.718 38.242 8.154 54.044s13.084 29.076 22.945 39.822c9.861 10.746 21.681 18.963 35.461 24.652s29.013 8.533 45.701 8.533c16.687 0 31.921-2.844 45.701-8.533s25.6-13.969 35.461-24.841c9.861-10.872 17.509-24.209 22.945-40.012s8.154-33.691 8.154-53.665c0-20.227-2.718-38.305-8.154-54.234s-13.084-29.456-22.945-40.581c-9.861-11.125-21.681-19.658-35.461-25.6s-29.013-8.913-45.701-8.913zM348.16 738.133c16.94 0 30.341 7.269 40.201 21.807s14.791 34.323 14.791 59.354c0 24.778-4.93 44.12-14.791 58.027s-23.261 20.859-40.201 20.859c-16.94 0-30.341-6.953-40.201-20.859s-14.791-33.248-14.791-58.027c0-25.031 4.93-44.816 14.791-59.354s23.261-21.807 40.201-21.807zM511.621 763.923c8.849-7.585 18.647-13.78 29.393-18.584s21.302-7.206 31.668-7.206c11.631 0 20.29 2.149 25.979 6.447s8.533 10.114 8.533 17.446c0 3.793-0.822 7.079-2.465 9.861s-4.045 5.246-7.206 7.396c-3.161 2.149-6.953 4.172-11.378 6.068l-14.601 6.258-32.237 13.653c-6.321 2.528-12.452 5.815-18.394 9.861s-11.251 8.786-15.929 14.222c-4.678 5.436-8.407 11.757-11.188 18.963s-4.172 15.36-4.172 24.462c0 10.114 2.149 19.658 6.447 28.634s10.366 16.814 18.204 23.514c7.838 6.7 17.13 11.947 27.876 15.739s22.566 5.689 35.461 5.689c14.412 0 28.634-2.781 42.667-8.344s26.358-13.653 36.978-24.273l-28.444-35.271c-8.091 6.321-16.182 11.188-24.273 14.601s-17.067 5.12-26.927 5.12c-9.608 0-17.256-1.959-22.945-5.879s-8.533-9.418-8.533-16.498c0-3.793 0.948-7.016 2.844-9.671s4.551-5.057 7.964-7.206c3.413-2.149 7.396-4.172 11.947-6.068s9.481-3.982 14.791-6.258l31.858-12.895c15.17-6.068 27.117-14.412 35.84-25.031s13.084-24.652 13.084-42.098c0-10.366-2.086-20.164-6.258-29.393s-10.24-17.319-18.204-24.273c-7.964-6.953-17.762-12.516-29.393-16.687s-24.778-6.258-39.443-6.258c-16.182 0-32.3 2.971-48.356 8.913s-30.404 14.854-43.046 26.738l31.858 38.305zM735.763 894.767h-67.887v47.028h191.905v-47.028h-67.887v-200.249h-56.13v200.249z" />
<glyph unicode="&#xe935;" glyph-name="pre-production-board" horiz-adv-x="759" d="M493.037 391.111v-171.965c0-20.946-16.98-37.926-37.926-37.926h-151.704c-20.946 0-37.926 16.98-37.926 37.926v399.521c0 20.946 16.98 37.926 37.926 37.926h151.704c20.946 0 37.926-16.98 37.926-37.926v-227.556zM530.963 146.709v471.958c0 20.946 16.98 37.926 37.926 37.926h151.704c20.946 0 37.926-16.98 37.926-37.926v-627.076c0-20.946-16.98-37.926-37.926-37.926h-151.704c-20.946 0-37.926 16.98-37.926 37.926v155.118zM0 163.556v455.111c0 20.946 16.98 37.926 37.926 37.926h151.704c20.946 0 37.926-16.98 37.926-37.926v-627.076c0-20.946-16.98-37.926-37.926-37.926h-151.704c-20.946 0-37.926 16.98-37.926 37.926v171.965zM56.889 599.704v-151.704h113.778v151.704h-113.778zM56.889 387.522v-167.078h113.778v167.078h-113.778zM56.889 10.554h113.778v150.689h-113.778v-150.689zM587.852 599.704v-151.704h113.778v151.704h-113.778zM587.852 203.598h113.778v183.925h-113.778v-183.925zM587.852 10.554h113.778v134.039h-113.778v-134.039zM322.37 599.704v-151.704h113.778v151.704h-113.778zM322.37 238.109h113.778v149.413h-113.778v-149.413zM29.203 941.796h90.264c13.401 0 25.979-1.327 37.736-3.982s21.997-7.079 30.72-13.274c8.723-6.195 15.613-14.412 20.67-24.652s7.585-22.819 7.585-37.736c0-14.412-2.592-26.927-7.775-37.547s-12.199-19.342-21.049-26.169c-8.849-6.827-19.089-11.883-30.72-15.17s-24.020-4.93-37.167-4.93h-34.513v-83.816h-55.751v247.277zM116.053 822.708c30.341 0 45.511 13.148 45.511 39.443 0 12.895-3.856 21.997-11.567 27.307s-19.026 7.964-33.944 7.964h-31.099v-74.714h31.099zM314.785 828.018h28.824c14.665 0 25.853 3.097 33.564 9.292s11.567 15.36 11.567 27.496c0 12.136-3.856 20.606-11.567 25.41s-18.9 7.206-33.564 7.206h-28.824v-69.404zM392.913 694.519l-47.407 89.126h-30.72v-89.126h-55.751v247.277h89.126c13.148 0 25.474-1.264 36.978-3.793s21.555-6.763 30.151-12.705c8.597-5.942 15.423-13.843 20.48-23.704s7.585-22.123 7.585-36.788c0-18.205-3.982-33.185-11.947-44.942s-18.647-20.543-32.047-26.359l56.13-98.987h-62.578zM492.658 941.796h154.738v-47.028h-98.987v-49.683h84.196v-46.649h-84.196v-56.889h102.779v-47.028h-158.53v247.277z" />
<glyph unicode="&#xe936;" glyph-name="calendar" horiz-adv-x="910" d="M810.667 591.802v109.037c0 39.274-31.838 71.111-71.111 71.111h-64.79v-45.827c0-23.564-19.103-42.667-42.667-42.667s-42.667 19.103-42.667 42.667v45.827h-268.642v-45.827c0-23.564-19.103-42.667-42.667-42.667s-42.667 19.103-42.667 42.667v45.827h-64.79c-39.274 0-71.111-31.838-71.111-71.111v-109.037h711.111zM810.667 506.469h-711.111v-374.519c0-39.274 31.838-71.111 71.111-71.111h568.889c39.274 0 71.111 31.838 71.111 71.111v374.519zM320.79 857.284h268.642v45.827c0 23.564 19.103 42.667 42.667 42.667s42.667-19.103 42.667-42.667v-45.827h64.79c86.402 0 156.444-70.043 156.444-156.444v-568.889c0-86.402-70.043-156.444-156.444-156.444h-568.889c-86.402 0-156.444 70.043-156.444 156.444v568.889c0 86.402 70.043 156.444 156.444 156.444h64.79v45.827c0 23.564 19.103 42.667 42.667 42.667s42.667-19.103 42.667-42.667v-45.827z" />
<glyph unicode="&#xe937;" glyph-name="filter" horiz-adv-x="1103" d="M397.785 125.046c0-22.377 12.642-42.833 32.657-52.84l189.046-94.523c39.281-19.64 85.497 8.923 85.497 52.84v381.983l364.125 430.578c32.472 38.398 5.178 97.224-45.11 97.224h-945.231c-50.288 0-77.581-58.826-45.11-97.224l364.125-430.578v-287.46zM600.798 472.284c-9.019-10.665-13.967-24.18-13.967-38.147v-308.025l-70.892 35.446v272.579c0 13.967-4.948 27.483-13.967 38.147l-295.873 349.87h690.573l-295.873-349.87z" />
<glyph unicode="&#xe938;" glyph-name="lock" horiz-adv-x="788" d="M250.444 575.463h290.73v98.899c0 84.177-65.474 151.73-145.365 151.73s-145.365-67.553-145.365-151.73v-98.899zM651.451 573.779c63.833-10.202 112.61-65.516 112.61-132.223v-297.573c0-73.955-59.953-133.908-133.908-133.908h-472.615c-73.955 0-133.908 59.953-133.908 133.908v297.573c0 68.068 50.788 124.275 116.537 132.791v100.016c0 144.324 114.063 262.007 255.642 262.007s255.642-117.684 255.642-262.007v-100.583zM157.538 465.186c-13.051 0-23.631-10.58-23.631-23.631v-297.573c0-13.051 10.58-23.631 23.631-23.631h472.615c13.051 0 23.631 10.58 23.631 23.631v297.573c0 13.051-10.58 23.631-23.631 23.631h-472.615zM393.072 376.542c31.639 0 57.287-25.648 57.287-57.287v-57.287c0-31.639-25.648-57.287-57.287-57.287s-57.287 25.648-57.287 57.287v57.287c0 31.639 25.648 57.287 57.287 57.287z" />
<glyph unicode="&#xe939;" glyph-name="clock" d="M512 938.667c270.988 0 490.667-219.679 490.667-490.667s-219.679-490.667-490.667-490.667c-270.988 0-490.667 219.679-490.667 490.667s219.679 490.667 490.667 490.667zM512 810.667c-200.295 0-362.667-162.371-362.667-362.667s162.371-362.667 362.667-362.667c200.295 0 362.667 162.371 362.667 362.667s-162.371 362.667-362.667 362.667zM512 768c35.346 0 64-28.654 64-64v0-216.446l135.288-67.644c31.615-15.807 44.429-54.25 28.622-85.865s-54.25-44.429-85.865-28.622v0l-170.667 85.333c-21.682 10.841-35.378 33.002-35.378 57.243v0 256c0 35.346 28.654 64 64 64z" />
<glyph unicode="&#xe93a;" glyph-name="done" d="M512-64c-282.77 0-512 229.23-512 512s229.23 512 512 512c282.77 0 512-229.23 512-512s-229.23-512-512-512zM352.455 459.122c-24.994 24.994-65.516 24.994-90.51 0s-24.994-65.516 0-90.51l136.533-136.533c24.994-24.994 65.516-24.994 90.51 0l273.067 273.067c24.994 24.994 24.994 65.516 0 90.51s-65.516 24.994-90.51 0l-227.812-227.812-91.278 91.279z" />
<glyph unicode="&#xe93b;" glyph-name="copy" horiz-adv-x="887" d="M552.96 936.107c73.52 0 133.12-59.6 133.12-133.12v-47.787h47.787c73.52 0 133.12-59.6 133.12-133.12v-488.107c0-73.52-59.6-133.12-133.12-133.12h-395.947c-73.52 0-133.12 59.6-133.12 133.12v47.787h-47.787c-73.52 0-133.12 59.6-133.12 133.12v488.107c0 73.52 59.6 133.12 133.12 133.12h395.947zM686.080 314.88c0-73.52-59.6-133.12-133.12-133.12h-259.413v-47.787c0-24.507 19.867-44.373 44.373-44.373h395.947c24.507 0 44.373 19.867 44.373 44.373v488.107c0 24.507-19.867 44.373-44.373 44.373h-47.787v-351.573zM552.96 847.36h-395.947c-24.507 0-44.373-19.867-44.373-44.373v-488.107c0-24.507 19.867-44.373 44.373-44.373h395.947c24.507 0 44.373 19.867 44.373 44.373v488.107c0 24.507-19.867 44.373-44.373 44.373z" />
<glyph unicode="&#xe93c;" glyph-name="delete" horiz-adv-x="896" d="M533.333 944c70.436 0 128.116-54.617 132.999-123.811l0.335-9.522-0.043-37.291 165.376-0.043c24.301 0 44.383-18.058 47.562-41.487l0.438-6.513c0-26.51-21.49-48-48-48v0l-37.376 0.043 0.043-549.376c0-70.436-54.617-128.116-123.811-132.999l-9.522-0.335h-426.667c-70.436 0-128.116 54.617-132.999 123.811l-0.335 9.522-0.021 549.376-37.312-0.043c-24.301 0-44.383 18.058-47.562 41.487l-0.438 6.513c0 26.51 21.49 48 48 48v0l165.312 0.043 0.021 37.291c0 70.436 54.617 128.116 123.811 132.999l9.522 0.335h170.667zM698.624 677.376h-501.312l0.021-549.376c0-18.557 13.539-33.951 31.278-36.845l6.056-0.489h426.667c18.557 0 33.951 13.539 36.845 31.278l0.489 6.056-0.043 549.376zM362.667 560c26.51 0 48-21.49 48-48v0-256c0-26.51-21.49-48-48-48s-48 21.49-48 48v0 256c0 26.51 21.49 48 48 48zM533.333 560c26.51 0 48-21.49 48-48v0-256c0-26.51-21.49-48-48-48s-48 21.49-48 48v0 256c0 26.51 21.49 48 48 48zM533.333 848h-170.667c-18.557 0-33.951-13.539-36.845-31.278l-0.489-6.056-0.021-37.291h245.312l0.043 37.291c0 18.557-13.539 33.951-31.278 36.845l-6.056 0.489z" />
<glyph unicode="" glyph-name="delete" horiz-adv-x="896" d="M533.333 944c70.436 0 128.116-54.617 132.999-123.811l0.335-9.522-0.043-37.291 165.376-0.043c24.301 0 44.383-18.058 47.562-41.487l0.438-6.513c0-26.51-21.49-48-48-48v0l-37.376 0.043 0.043-549.376c0-70.436-54.617-128.116-123.811-132.999l-9.522-0.335h-426.667c-70.436 0-128.116 54.617-132.999 123.811l-0.335 9.522-0.021 549.376-37.312-0.043c-24.301 0-44.383 18.058-47.562 41.487l-0.438 6.513c0 26.51 21.49 48 48 48v0l165.312 0.043 0.021 37.291c0 70.436 54.617 128.116 123.811 132.999l9.522 0.335h170.667zM698.624 677.376h-501.312l0.021-549.376c0-18.557 13.539-33.951 31.278-36.845l6.056-0.489h426.667c18.557 0 33.951 13.539 36.845 31.278l0.489 6.056-0.043 549.376zM362.667 560c26.51 0 48-21.49 48-48v0-256c0-26.51-21.49-48-48-48s-48 21.49-48 48v0 256c0 26.51 21.49 48 48 48zM533.333 560c26.51 0 48-21.49 48-48v0-256c0-26.51-21.49-48-48-48s-48 21.49-48 48v0 256c0 26.51 21.49 48 48 48zM533.333 848h-170.667c-18.557 0-33.951-13.539-36.845-31.278l-0.489-6.056-0.021-37.291h245.312l0.043 37.291c0 18.557-13.539 33.951-31.278 36.845l-6.056 0.489z" />
<glyph unicode="vertical-hamburger" glyph-name="vertical-hamburger" horiz-adv-x="273" d="M136.533 341.117c-65.98 0-119.467 53.487-119.467 119.467s53.487 119.467 119.467 119.467c65.98 0 119.467-53.487 119.467-119.467s-53.487-119.467-119.467-119.467zM136.533 704c-65.98 0-119.467 53.487-119.467 119.467s53.487 119.467 119.467 119.467c65.98 0 119.467-53.487 119.467-119.467s-53.487-119.467-119.467-119.467zM136.533-29.867c-65.98 0-119.467 53.487-119.467 119.467s53.487 119.467 119.467 119.467c65.98 0 119.467-53.487 119.467-119.467s-53.487-119.467-119.467-119.467z" />
<glyph unicode="thumbs-up" glyph-name="thumbs-up" d="M647.529 628.706l210.011-0.002c39.761 0.45 77.714-16.583 103.806-46.589s37.691-69.956 31.713-109.337l-62.332-406.514c-10.133-66.821-67.949-115.964-135.018-115.203l-509.59-0.006c-24.95 0-45.177 20.226-45.177 45.176v496.947c0 6.321 1.326 12.572 3.894 18.348l180.706 406.588c7.251 16.314 23.43 26.829 41.283 26.829 99.801 0 180.706-80.905 180.706-180.706v-135.53zM796.218 41.41c22.527-0.255 41.799 16.126 45.188 38.473l62.333 406.52c1.989 13.104-1.877 26.421-10.574 36.423s-21.348 15.68-35.113 15.527h-255.699c-24.95 0-45.176 20.226-45.176 45.176v180.706c0 40.323-26.414 74.476-62.883 86.101l-162.999-366.747v-442.183l464.924 0.003zM240.941 448h-90.353c-24.95 0-45.176-20.226-45.176-45.176v-316.235c0-24.95 20.226-45.176 45.176-45.176h90.353v406.588zM286.117-48.94h-135.529c-74.851 0-135.529 60.679-135.529 135.529v316.235c0 74.851 60.679 135.529 135.529 135.529h135.529c24.95 0 45.176-20.226 45.176-45.176v-496.941c0-24.95-20.226-45.176-45.176-45.176z" />
<glyph unicode="talent" glyph-name="talent" d="M89.164 563.429l1.958-1.999 52.632-318.845v-160.215c0-16.666 13.507-30.174 30.174-30.174h676.144c16.666 0 30.174 13.507 30.174 30.174l0.033 160.709 54.541 320.347c49.906 9.305 86.742 53.152 86.742 104.469 0 58.593-47.674 106.266-106.266 106.266s-106.266-47.672-106.266-106.266c0-32.578 14.829-62.787 39.761-86.697l-146.582-109.134-138.718 188.772c33.513 18.643 54.775 53.975 54.775 92.937 0 58.592-47.673 106.266-106.266 106.266s-106.266-47.674-106.266-106.266c0-38.489 20.746-73.454 54.307-95.923l-152.338-186.071-133.649 112.375c25.628 20.045 40.916 50.666 40.916 83.741 0.002 58.593-47.672 106.266-106.266 106.266-58.592 0-106.266-47.673-106.266-106.266 0-51.311 36.828-95.154 86.726-104.466zM204.102 212.617l2.438 2.438 613.358-2.438-2.438-100.074-613.358 2.438v97.635zM825.524 277.472l-2.41-2.070-624.626 2.071-30.741 230.211 127.391-103.453c6.203-5.032 14.203-7.388 22.228-6.579 7.988 0.855 15.309 4.859 20.337 11.123l175.44 213.972 160.657-213.247c4.841-6.431 12.044-10.661 20.018-11.747 7.97-1.102 16 1.036 22.426 5.945l144.686 105.498-35.406-231.723zM512 707.85c-25.327 0-45.92 20.594-45.92 45.92s20.594 45.92 45.92 45.92c25.327 0 45.92-20.594 45.92-45.92s-20.594-45.92-45.92-45.92zM915.296 621.974c-25.327 0-45.92 20.594-45.92 45.92s20.594 45.92 45.92 45.92c25.327 0 45.92-20.594 45.92-45.92s-20.594-45.92-45.92-45.92zM108.704 621.974c-25.327 0-45.92 20.594-45.92 45.92s20.594 45.92 45.92 45.92c25.327 0 45.92-20.594 45.92-45.92s-20.592-45.92-45.92-45.92z" />
<glyph unicode="selection" glyph-name="selection" horiz-adv-x="922" d="M512 246.4v-76.8h-358.4c-84.831 0-153.6 68.769-153.6 153.6v483.2c0 84.831 68.769 153.6 153.6 153.6h483.2c84.831 0 153.6-68.769 153.6-153.6v-437.83c-4.889 12.090-10.516 21.5-16.88 28.23h-59.92v409.6c0 42.415-34.385 76.8-76.8 76.8h-483.2c-42.415 0-76.8-34.385-76.8-76.8v-483.2c0-42.415 34.385-76.8 76.8-76.8h358.4zM288.8 617.6c-46.392 0-84 37.608-84 84s37.608 84 84 84c46.392 0 84-37.608 84-84s-37.608-84-84-84zM71.854 189.873l-47.992 59.959 468.942 375.348c13.784 11.033 33.316 11.245 47.337 0.513l248.257-190.032-46.681-60.984-224.388 171.761-445.474-356.564zM822.793 31.314l-122.23-51.884c-30.778-13.065-66.306 1.29-79.369 32.065l-56.361 132.746-46.142-19.586c-19.244-8.169-41.289-5.813-58.641 6.314-17.121 12.137-26.74 32.243-25.419 53.161l24.612 395.141c1.408 22.9 15.649 43.034 36.825 52.023 21.142 8.928 45.67 5.224 62.847-9.684l301.333-256.78c15.992-13.6 23.775-34.491 20.6-55.314-3.2-20.709-16.884-38.301-36.182-46.493l-46.142-19.586 56.337-132.752c13.066-30.774-1.289-66.304-32.068-79.372zM697.827 284.126l92.595 39.304-256.549 218.619-20.954-336.412 92.595 39.304 80.016-188.46 92.282 39.171-79.985 188.474z" />
<glyph unicode="search" glyph-name="search" d="M814.271 223.309l175.376-175.376c21.423-21.423 21.423-56.157 0-77.58s-56.157-21.423-77.58 0l-175.376 175.376c-75.444-58.855-170.354-93.92-273.453-93.92-245.74 0-444.952 199.212-444.952 444.952s199.212 444.952 444.952 444.952c245.74 0 444.952-199.212 444.952-444.952 0-103.099-35.065-198.009-93.92-273.453zM704.983 264.503c57.901 60.25 93.493 142.098 93.493 232.259 0 185.147-150.091 335.238-335.238 335.238s-335.238-150.091-335.238-335.238c0-185.147 150.091-335.238 335.238-335.238 90.161 0 172.009 35.592 232.259 93.493 1.365 1.744 2.85 3.424 4.456 5.030s3.286 3.091 5.030 4.456z" />
<glyph unicode="schedule" glyph-name="schedule" d="M512-49.778c-274.915 0-497.778 222.863-497.778 497.778s222.863 497.778 497.778 497.778c274.915 0 497.778-222.863 497.778-497.778s-222.863-497.778-497.778-497.778zM512 35.556c227.787 0 412.444 184.658 412.444 412.444s-184.658 412.444-412.444 412.444c-227.787 0-412.444-184.658-412.444-412.444s184.658-412.444 412.444-412.444zM463.644 465.673l124.037-124.037c16.662-16.662 16.662-43.677 0-60.34s-43.677-16.662-60.34 0l-136.533 136.533c-8.002 8.002-12.497 18.854-12.497 30.17v273.067c0 23.564 19.103 42.667 42.667 42.667s42.667-19.103 42.667-42.667v-255.394z" />
<glyph unicode="reference" glyph-name="reference" horiz-adv-x="931" d="M290.909 389.818v-69.818h-151.273c-70.692 0-128 57.308-128 128v372.364c0 70.692 57.308 128 128 128h372.364c70.692 0 128-57.308 128-128v-151.273h-69.818v151.273c0 32.133-26.049 58.182-58.182 58.182h-372.364c-32.133 0-58.182-26.049-58.182-58.182v-372.364c0-32.133 26.049-58.182 58.182-58.182h151.273zM360.727 294.522l-69.818-6.8v253.368c0 70.692 57.308 128 128 128h372.364c70.692 0 128-57.308 128-128v-372.364c0-70.692-57.308-128-128-128h-229.44l49.262 69.818h180.179c32.133 0 58.182 26.049 58.182 58.182v372.364c0 32.133-26.049 58.182-58.182 58.182h-372.364c-32.133 0-58.182-26.049-58.182-58.182v-246.569zM596.803 238.643l-107.739 88.801v-11.358c0-27.231-21.957-49.277-49.248-49.645-100.506-0.88-161.39-29.567-192.229-86.521-2.665-4.919-5.1-10.022-7.318-15.322 11.289 7.844 22.99 14.569 35.206 20.252 44.478 20.734 83.643 25.539 164.036 25.539 13.147 0 25.822-5.357 34.564-14.099 9.728-9.344 15.099-22.159 15.099-35.548v-11.096l107.63 88.998zM419.245 391.586c0 21.85 17.713 39.564 39.564 39.564 9.182 0 18.078-3.194 25.163-9.034l185.516-152.906c16.861-13.897 19.264-38.832 5.367-55.693-2.49-2.832-2.49-2.832-5.318-5.327l-185.407-153.31c-16.839-13.924-41.778-11.561-55.702 5.278-5.865 7.093-9.074 16.008-9.074 25.212v55.076c-56.875-0.761-85.118-5.236-114.407-18.889-32.236-14.996-60.753-41.144-90.008-83.658l-67.239-97.715 3.588 118.56c1.857 61.364 11.31 110.872 34.905 154.427 42.009 77.582 120.148 117.538 233.051 122.563v55.853z" />
<glyph unicode="puzzle" glyph-name="puzzle" d="M907.942 177.452c-91.731 0-166.34 74.65-166.335 166.423 0 91.756 74.609 166.388 166.34 166.388 14.195 0 28.271-1.818 41.911-5.386v172.73h-240.66c-16.316 0-31.105 9.593-37.752 24.491s-3.914 32.31 6.979 44.454c13.752 15.327 21.321 35.081 21.321 55.633 0 46.129-37.543 83.672-83.672 83.672s-83.672-37.543-83.672-83.672c0-20.509 7.579-40.276 21.357-55.674 10.869-12.153 13.581-29.553 6.928-44.441-6.653-14.883-21.436-24.464-37.741-24.464h-240.551v-240.625c0-16.298-9.579-31.076-24.457-37.736-14.879-6.657-32.276-3.949-44.433 6.913-15.466 13.825-35.245 21.428-55.706 21.428-46.115 0-83.65-37.559-83.65-83.707 0-46.172 37.532-83.742 83.65-83.742 20.463 0 40.242 7.6 55.708 21.421 12.156 10.86 29.552 13.568 44.432 6.911 14.877-6.659 24.456-21.437 24.456-37.735v-240.59h172.699c-3.562 13.635-5.377 27.705-5.377 41.898 0 91.731 74.619 166.348 166.353 166.348 91.765 0 166.405-74.613 166.405-166.348 0-14.191-1.816-28.262-5.38-41.898h172.763l-0.004 172.695c-13.639-3.568-27.714-5.386-41.911-5.386zM241.053-64.009c-18.118 0-32.807 14.689-32.807 32.807v225.516c-16.251-5.514-33.282-8.329-50.448-8.329-87.010 0-157.798 70.83-157.798 157.889 0 87.044 70.784 157.854 157.798 157.854 17.169 0 34.195-2.815 50.448-8.333v225.546c0 18.118 14.689 32.807 32.807 32.807h225.498c-5.498 16.23-8.302 33.248-8.302 50.431 0 87.022 70.798 157.819 157.819 157.819 87.025 0 157.824-70.8 157.819-157.823 0-17.18-2.8-34.198-8.289-50.431h225.59c18.118 0 32.807-14.689 32.807-32.807v-281.966c0-12.944-7.608-24.676-19.427-29.956-11.815-5.275-25.629-3.113-35.27 5.522-16.966 15.203-38.755 23.572-61.356 23.572-50.838 0-92.192-41.376-92.188-92.241 0-50.883 41.357-92.275 92.192-92.275 22.605 0 44.398 8.367 61.357 23.563 9.634 8.637 23.453 10.801 35.275 5.524 11.814-5.279 19.423-17.013 19.423-29.953v-281.931c0-18.118-14.689-32.807-32.807-32.807h-282.001c-12.948 0-24.68 7.611-29.961 19.438-5.274 11.826-3.103 25.644 5.544 35.279 15.187 16.924 23.551 38.708 23.551 61.327 0 50.837-41.388 92.201-92.258 92.201-50.843 0-92.205-41.36-92.205-92.201 0-22.021 7.924-43.284 21.978-59.617 6.487-6.539 9.998-14.781 9.998-23.621 0-17.788-14.161-32.278-31.835-32.793l-282.951-0.014z" />
<glyph unicode="production-calendar" glyph-name="production-calendar" d="M855.631 551.010v115.2c0 35.346-28.654 64-64 64h-75.268v-46.933c0-21.208-17.192-38.4-38.4-38.4s-38.4 17.192-38.4 38.4v46.933h-268.909v-46.933c0-21.208-17.192-38.4-38.4-38.4s-38.4 17.192-38.4 38.4v46.933h-75.268c-35.346 0-64-28.654-64-64v-115.2h701.046zM855.631 474.21h-701.046v-371.2c0-35.346 28.654-64 64-64h573.046c35.346 0 64 28.654 64 64v371.2zM370.653 807.010h268.909v101.79c0 21.208 17.192 38.4 38.4 38.4s38.4-17.192 38.4-38.4v-101.79h75.268c77.762 0 140.8-63.038 140.8-140.8v-563.2c0-77.762-63.038-140.8-140.8-140.8h-573.046c-77.762 0-140.8 63.038-140.8 140.8v563.2c0 77.762 63.038 140.8 140.8 140.8h75.268v101.79c0 21.208 17.192 38.4 38.4 38.4s38.4-17.192 38.4-38.4v-101.79z" />
<glyph unicode="photo-default" glyph-name="photo-default" d="M253.025 41.412l477.79 582.742c18.445 22.496 53.033 21.95 70.758-1.118l117.015-152.287v308.545c0 41.584-33.71 75.294-75.294 75.294h-662.588c-41.584 0-75.294-33.71-75.294-75.294v-662.588c0-41.584 33.71-75.294 75.294-75.294h72.32zM369.865 41.412h473.429c41.584 0 75.294 33.71 75.294 75.294v205.751l-153.985 200.402-394.738-481.446zM1008.941 338.295c0.003-0.302 0.003-0.605 0-0.907v-220.682c0-91.484-74.163-165.647-165.647-165.647h-568.567c-0.232-0.002-0.464-0.002-0.696 0h-93.325c-91.484 0-165.647 74.163-165.647 165.647v662.588c0 91.484 74.163 165.647 165.647 165.647h662.588c91.484 0 165.647-74.163 165.647-165.647v-440.999zM354.719 479.791c-69.306 0-125.49 56.184-125.49 125.49s56.184 125.49 125.49 125.49c69.306 0 125.49-56.184 125.49-125.49s-56.184-125.49-125.49-125.49zM354.719 570.144c19.406 0 35.137 15.731 35.137 35.137s-15.731 35.137-35.137 35.137c-19.406 0-35.137-15.731-35.137-35.137s15.731-35.137 35.137-35.137z" />
<glyph unicode="locations" glyph-name="locations" horiz-adv-x="829" d="M623.882 149.578c-41.264-43.557-85.367-83.249-129.482-118.378-15.462-12.312-29.846-23.193-42.798-32.547-7.881-5.692-13.613-9.662-16.84-11.813-12.284-8.19-28.288-8.19-40.572 0-3.228 2.152-8.959 6.122-16.84 11.813-12.952 9.354-27.335 20.234-42.798 32.547-44.115 35.128-88.218 74.821-129.482 118.378-120.106 126.778-192.879 260.197-192.879 395.945 0 222.176 180.109 402.286 402.286 402.286s402.286-180.109 402.286-402.286c0-135.749-72.774-269.167-192.879-395.945zM448.838 88.419c41.599 33.126 83.211 70.576 121.946 111.463 108.466 114.491 172.835 232.502 172.835 345.642 0 181.781-147.362 329.143-329.143 329.143s-329.143-147.362-329.143-329.143c0-113.14 64.369-231.15 172.835-345.642 38.736-40.887 80.347-78.338 121.946-111.463 12.287-9.784 23.813-18.578 34.362-26.32 10.548 7.742 22.075 16.537 34.362 26.32zM572.952 545.524c0-87.524-70.952-158.476-158.476-158.476s-158.476 70.952-158.476 158.476c0 87.524 70.952 158.476 158.476 158.476s158.476-70.952 158.476-158.476zM329.143 545.524c0-47.128 38.205-85.333 85.333-85.333s85.333 38.205 85.333 85.333c0 47.128-38.205 85.333-85.333 85.333s-85.333-38.205-85.333-85.333z" />
<glyph unicode="editing" glyph-name="editing" horiz-adv-x="1216" d="M892 366.087l96 79.68v-281.767c0-106.039-85.961-192-192-192h-604c-106.039 0-192 85.961-192 192v604c0 106.039 85.961 192 192 192h604c92.088 0 169.034-64.83 187.686-151.34l-91.686-71.56v30.9c0 53.019-42.981 96-96 96h-604c-53.019 0-96-42.981-96-96v-604c0-53.019 42.981-96 96-96h604c53.019 0 96 42.981 96 96v202.087zM297 558c-57.99 0-105 47.010-105 105s47.010 105 105 105c57.99 0 105-47.010 105-105s-47.010-105-105-105zM1118.413 571.037l-92.994 154.768-558.159-335.376-30.887-123.881 123.881-30.887 558.159 335.376zM1181.571 496.99l-588.916-353.856c-10.912-6.557-23.982-8.51-36.334-5.43l-189.747 47.309c-25.722 6.413-41.375 32.464-34.962 58.186l47.309 189.747c3.080 12.352 10.94 22.975 21.852 29.532l588.916 353.856c37.872 22.756 87.021 10.502 109.776-27.37l109.475-182.197c22.756-37.872 10.502-87.021-27.37-109.776z" />
<glyph unicode="crown" glyph-name="crown" horiz-adv-x="1265" d="M54.212 682.291c0 70.318 57.199 127.516 127.516 127.516 70.319 0 127.519-57.199 127.516-127.516 0-37.135-16.064-71.699-43.309-95.687l139.014-112.89 158.34 197.479c-35.945 23.279-58.335 63.276-58.335 107.079 0 70.317 57.199 127.516 127.516 127.516s127.516-57.199 127.516-127.516c0-44.413-23.020-84.891-59.782-108.004l148.187-196.734 149.261 114.28c-26.441 23.951-41.956 57.979-41.956 94.477 0 70.318 57.198 127.516 127.516 127.516s127.516-57.199 127.516-127.516c0-60.152-42.157-111.735-99.93-124.511l-58.011-350.727v-179.172c0-23.459-19.014-42.472-42.472-42.472h-755.69c-23.459 0-42.472 19.014-42.472 42.472l0.081 178.082-58.111 351.821c-57.763 12.784-99.911 64.362-99.911 124.507zM285.051 173.451v-109.122l6.024-6.024h682.793l6.024 6.024v109.122l-6.024 6.024h-682.793l-6.024-6.024zM1011.544 491.458l-145.488-111.396c-9.032-6.9-20.348-9.912-31.564-8.362-11.221 1.528-21.363 7.483-28.175 16.534l-174.894 232.144-186.932-233.166c-7.078-8.817-17.38-14.452-28.659-15.659-11.272-1.136-22.513 2.174-31.252 9.264l-130.283 105.802 35.646-234.246h685.069l36.531 239.086zM632.471 735.696c23.474 0 42.574 19.1 42.574 42.574s-19.1 42.574-42.574 42.574c-23.474 0-42.574-19.1-42.574-42.574s19.1-42.574 42.574-42.574zM1083.213 639.717c23.474 0 42.574 19.1 42.574 42.574s-19.1 42.574-42.574 42.574c-23.474 0-42.574-19.1-42.574-42.574s19.1-42.574 42.574-42.574zM181.728 639.717c23.476 0 42.574 19.099 42.574 42.574s-19.1 42.574-42.574 42.574c-23.474 0-42.574-19.1-42.574-42.574s19.1-42.574 42.574-42.574z" />
<glyph unicode="cross" glyph-name="cross" d="M602.51 448l381.412-381.412c24.994-24.994 24.994-65.516 0-90.51s-65.516-24.994-90.51 0l-381.412 381.412-381.412-381.412c-24.994-24.994-65.516-24.994-90.51 0s-24.994 65.516 0 90.51l381.412 381.412-381.412 381.412c-24.994 24.994-24.994 65.516 0 90.51s65.516 24.994 90.51 0l381.412-381.412 381.412 381.412c24.994 24.994 65.516 24.994 90.51 0s24.994-65.516 0-90.51l-381.412-381.412z" />
<glyph unicode="content-requests" glyph-name="content-requests" d="M486.506 915.403c11.279 5.568 24.507 5.568 35.786 0l436.686-215.579c30.037-14.829 30.037-57.661 0-72.49l-436.686-215.579c-11.279-5.568-24.507-5.568-35.786 0l-436.686 215.579c-30.037 14.829-30.037 57.661 0 72.49l436.686 215.579zM504.399 834.080l-345.373-170.501 345.373-170.501 345.373 170.501-345.373 170.501zM504.399 61.92l418.792 206.746c20.018 9.882 44.256 1.666 54.138-18.352s1.666-44.256-18.352-54.138l-436.686-215.579c-11.279-5.568-24.507-5.568-35.786 0l-436.686 215.579c-20.018 9.882-28.234 34.12-18.352 54.138s34.121 28.234 54.138 18.352l418.792-206.746zM85.607 484.245l418.792-206.746 418.792 206.746c20.018 9.882 44.256 1.666 54.138-18.352s1.666-44.256-18.352-54.138l-436.686-215.579c-11.279-5.568-24.507-5.568-35.786 0l-436.686 215.579c-20.018 9.882-28.234 34.121-18.352 54.138s34.121 28.234 54.138 18.352z" />
<glyph unicode="content" glyph-name="content" d="M14.222 903.111c0 23.564 19.103 42.667 42.667 42.667h353.975c23.564 0 42.667-19.103 42.667-42.667v-353.975c0-23.564-19.103-42.667-42.667-42.667h-353.975c-23.564 0-42.667 19.103-42.667 42.667v353.975zM99.556 860.444v-268.642h268.642v268.642h-268.642zM768 945.778h44.247c109.093 0 197.531-88.438 197.531-197.531v-44.247c0-109.093-88.438-197.531-197.531-197.531h-44.247c-109.093 0-197.531 88.438-197.531 197.531v44.247c0 109.093 88.438 197.531 197.531 197.531zM768 860.444c-61.965 0-112.198-50.233-112.198-112.198v-44.247c0-61.965 50.233-112.198 112.198-112.198h44.247c61.965 0 112.198 50.233 112.198 112.198v44.247c0 61.965-50.233 112.198-112.198 112.198h-44.247zM570.469 346.864c0 23.564 19.103 42.667 42.667 42.667h353.975c23.564 0 42.667-19.103 42.667-42.667v-353.975c0-23.564-19.103-42.667-42.667-42.667h-353.975c-23.564 0-42.667 19.103-42.667 42.667v353.975zM655.802 35.556h268.642v268.642h-268.642v-268.642zM14.222 346.864c0 23.564 19.103 42.667 42.667 42.667h353.975c23.564 0 42.667-19.103 42.667-42.667v-353.975c0-23.564-19.103-42.667-42.667-42.667h-353.975c-23.564 0-42.667 19.103-42.667 42.667v353.975zM99.556 35.556h268.642v268.642h-268.642v-268.642z" />
<glyph unicode="compose" glyph-name="compose" horiz-adv-x="1084" d="M918.588 417.882h90.353v-301.176c0-91.484-74.163-165.647-165.647-165.647h-662.588c-91.484 0-165.647 74.163-165.647 165.647v662.588c0 91.484 74.163 165.647 165.647 165.647h361.412v-90.353h-361.412c-41.584 0-75.294-33.71-75.294-75.294v-662.588c0-41.584 33.71-75.294 75.294-75.294h662.588c41.584 0 75.294 33.71 75.294 75.294v301.176zM873.412 835.876l-346.353-346.353v-86.699h86.699l346.353 346.353-86.699 86.699zM905.356 931.709l150.588-150.588c17.643-17.643 17.643-46.247 0-63.889l-391.529-391.529c-8.472-8.472-19.963-13.232-31.945-13.232h-150.588c-24.95 0-45.176 20.226-45.176 45.176v150.588c0 11.982 4.76 23.472 13.232 31.945l391.529 391.529c17.643 17.643 46.247 17.643 63.889 0z" />
<glyph unicode="comment" glyph-name="comment" d="M124.351 60.349l207.283 69.094c10.792 3.597 22.574 2.736 32.729-2.393 53.576-27.062 112.788-41.085 172.905-40.929 146.616 0.057 280.621 82.929 346.248 214.239 27.062 53.576 41.085 112.788 40.929 172.81l0.065 23.045c-10.842 196.527-167.765 353.449-361.941 364.227h-25.395c-60.023 0.156-119.234-13.867-172.972-41.010-131.148-65.546-214.020-199.551-214.077-346.262-0.156-60.023 13.867-119.234 40.929-172.81 5.129-10.154 5.99-21.936 2.393-32.729l-69.094-207.283zM959.766 262.050c-79.993-160.055-243.534-261.192-422.37-261.261-67.413-0.176-133.99 14.263-195.169 42.236l-271.845-90.615c-33.355-11.118-65.088 20.615-53.97 53.97l90.615 271.845c-27.973 61.178-42.412 127.748-42.237 195.074 0.069 178.931 101.207 342.472 261.099 422.384 65.573 33.121 138.043 50.285 211.394 50.094l27.634-0.065c239.956-13.238 431.557-204.839 444.86-447.145v-25.23c0.183-73.444-16.981-145.892-50.012-211.287zM369.451 512.398c-23.564 0-42.667 19.103-42.667 42.667s19.103 42.667 42.667 42.667h343.45c23.564 0 42.667-19.103 42.667-42.667s-19.103-42.667-42.667-42.667h-343.45zM369.778 320c-23.564 0-42.667 19.103-42.667 42.667s19.103 42.667 42.667 42.667h229.673c23.564 0 42.667-19.103 42.667-42.667s-19.103-42.667-42.667-42.667h-229.673z" />
<glyph unicode="circle-plus" glyph-name="circle-plus" d="M560 496h120c26.51 0 48-21.49 48-48s-21.49-48-48-48h-120v-120c0-26.51-21.49-48-48-48s-48 21.49-48 48v120h-120c-26.51 0-48 21.49-48 48s21.49 48 48 48h120v120c0 26.51 21.49 48 48 48s48-21.49 48-48v-120zM512-48c-273.933 0-496 222.067-496 496s222.067 496 496 496c273.933 0 496-222.067 496-496s-222.067-496-496-496zM512 48c220.914 0 400 179.086 400 400s-179.086 400-400 400c-220.914 0-400-179.086-400-400s179.086-400 400-400z" />
<glyph unicode="checkmark" glyph-name="checkmark" horiz-adv-x="1280" d="M221.4 569.221c-48.338 51.584-129.34 54.215-180.924 5.877s-54.215-129.34-5.877-180.924l309.927-330.738c49.216-52.521 132.047-54.149 183.289-3.603l690.418 681.041c50.328 49.644 50.882 130.687 1.238 181.015s-130.687 50.882-181.015 1.238l-596.925-588.818-220.131 234.912z" />
<glyph unicode="camera" glyph-name="camera" horiz-adv-x="1216" d="M1088 133.818v480c0 48.199-39.073 87.273-87.273 87.273h-174.545l-87.273 130.909h-261.818l-87.273-130.909h-174.545c-48.199 0-87.273-39.073-87.273-87.273v-480c0-48.199 39.073-87.273 87.273-87.273h785.455c48.199 0 87.273 39.073 87.273 87.273zM397.214 885.251c17.805 26.707 47.779 42.749 79.877 42.749h261.818c32.098 0 62.072-16.042 79.877-42.749l58.774-88.16h123.168c101.219 0 183.273-82.054 183.273-183.273v-480c0-101.219-82.054-183.273-183.273-183.273h-785.455c-101.219 0-183.273 82.054-183.273 183.273v480c0 101.219 82.054 183.273 183.273 183.273h123.168l58.774 88.16zM608 221.091c96.399 0 174.545 78.147 174.545 174.545s-78.147 174.545-174.545 174.545c-96.399 0-174.545-78.147-174.545-174.545s78.147-174.545 174.545-174.545zM608 125.091c-149.418 0-270.545 121.127-270.545 270.545s121.127 270.545 270.545 270.545c149.418 0 270.545-121.127 270.545-270.545s-121.127-270.545-270.545-270.545z" />
<glyph unicode="backlog-hamburger" glyph-name="backlog-hamburger" horiz-adv-x="1536" d="M292.571 632.889h912.254v199.111h-1076.825v-199.111h164.571zM1314.54 632.889h164.571c30.297 0 54.857-24.56 54.857-54.857v-276.317c0-30.297-24.56-54.857-54.857-54.857h-164.571v-253.968c0-30.297-24.56-54.857-54.857-54.857h-1186.54c-30.297 0-54.857 24.56-54.857 54.857v308.825c0 30.297 24.56 54.857 54.857 54.857h164.571v166.603h-164.571c-30.297 0-54.857 24.56-54.857 54.857v308.825c0 30.297 24.56 54.857 54.857 54.857h1186.54c30.297 0 54.857-24.56 54.857-54.857v-253.968zM1259.683 523.175h-912.254v-166.603h1076.825v166.603h-164.571zM1204.825 246.857h-1076.825v-199.111h1076.825v199.111z" />
<glyph unicode="backlog" glyph-name="backlog" horiz-adv-x="1252" d="M1048.838 405.333v-425.086c0-23.564-19.103-42.667-42.667-42.667h-934.696c-23.564 0-42.667 19.103-42.667 42.667v467.753c0 23.564 19.103 42.667 42.667 42.667h130.188v129.58h-130.188c-23.564 0-42.667 19.103-42.667 42.667v240.198c0 23.564 19.103 42.667 42.667 42.667h934.696c23.564 0 42.667-19.103 42.667-42.667v-197.531h130.188c23.564 0 42.667-19.103 42.667-42.667v-214.914c0-23.564-19.103-42.667-42.667-42.667h-130.188zM1006.172 490.667h130.188v129.58h-849.362v-129.58h719.174zM963.505 405.333h-849.362v-142.222h849.362v142.222zM963.505 705.58v154.864h-849.362v-154.864h849.362zM963.505 165.136h-849.362v-142.222h849.362v142.222z" />
<glyph unicode="arrow-left" glyph-name="arrow-left" horiz-adv-x="1280" d="M333.838 352l251.589-252.092c37.453-37.528 37.392-98.312-0.136-135.764s-98.312-37.392-135.764 0.136l-415.077 415.907c-37.778 37.853-37.34 99.279 0.973 136.59l415.077 404.218c37.984 36.99 98.762 36.185 135.753-1.799s36.185-98.762-1.799-135.753l-245.875-239.442h823.772c53.019 0 96-42.981 96-96s-42.981-96-96-96h-828.513z" />
<glyph unicode="analytics" glyph-name="analytics" horiz-adv-x="1138" d="M420.613 903.111c0 23.564 19.103 42.667 42.667 42.667h195.902c23.564 0 42.667-19.103 42.667-42.667v-870.4c0-23.564-19.103-42.667-42.667-42.667h-195.902c-23.564 0-42.667 19.103-42.667 42.667v870.4zM505.946 860.444v-785.067h110.569v785.067h-110.569zM812.417 661.333c0 23.564 19.103 42.667 42.667 42.667h195.902c23.564 0 42.667-19.103 42.667-42.667v-628.622c0-23.564-19.103-42.667-42.667-42.667h-195.902c-23.564 0-42.667 19.103-42.667 42.667v628.622zM897.75 618.667v-543.289h110.569v543.289h-110.569zM28.809 419.556c0 23.564 19.103 42.667 42.667 42.667h195.902c23.564 0 42.667-19.103 42.667-42.667v-386.844c0-23.564-19.103-42.667-42.667-42.667h-195.902c-23.564 0-42.667 19.103-42.667 42.667v386.844zM114.142 376.889v-301.511h110.569v301.511h-110.569z" />
</font>
</defs>
</svg>
