<?xml version="1.0" encoding="UTF-8"?>
<svg width="17px" height="17px" viewBox="0 0 17 17" version="1.1" xmlns="http://www.w3.org/2000/svg" xmlns:xlink="http://www.w3.org/1999/xlink">
    <!-- Generator: Sketch 55 (78076) - https://sketchapp.com -->
    <title>notification</title>
    <desc>Created with Sketch.</desc>
    <g id="backlog/production-calendar/kanban-view" stroke="none" stroke-width="1" fill="none" fill-rule="evenodd">
        <path d="M16,11.4999999 L16,12.9999999 L1,12.9999999 L1,11.4999999 C1.82842712,11.4999999 2.5,10.828427 2.5,9.99999992 L2.5,6.25 C2.50000005,2.93629145 5.18629154,0.25 8.5,0.25 C11.8137085,0.25 14.5,2.93629145 14.5,6.25 L14.5,9.99999992 C14.5,10.828427 15.1715729,11.4999999 16,11.4999999 Z M13,9.99999992 L13,6.24999993 C13,3.76471858 10.9852813,1.75 8.5,1.75 C6.01471865,1.75 4.00000004,3.76471858 4,6.24999992 L4,9.99999992 C4,10.5464306 3.85390857,11.0587399 3.59865341,11.4999999 L13.4013466,11.4999999 C13.1460914,11.0587399 13,10.5464306 13,9.99999992 Z M1,12.9999999 C0,12.9999999 0,11.4999999 1,11.4999999 L3.59865341,11.4999999 C3.07993928,12.396702 2.11042353,12.9999999 1,12.9999999 Z M16,11.4999999 C17,11.4999999 17,12.9999999 16,12.9999999 C14.8895765,12.9999999 13.9200607,12.396702 13.4013466,11.4999999 L16,11.4999999 Z M9.7975,14.4999999 C10.3755329,14.4999999 10.7362906,15.1263304 10.44625,15.6263288 C10.0437275,16.3202337 9.30220218,16.7473421 8.5,16.7473421 C7.69779782,16.7473421 6.95627248,16.3202337 6.55375,15.6263288 C6.26370937,15.1263304 6.62446714,14.4999999 7.2025,14.4999999 L9.7975,14.4999999 Z" id="notification" fill="#2F2F36" fill-rule="nonzero"></path>
    </g>
</svg>