<?xml version="1.0" encoding="UTF-8"?>
<svg width="39px" height="39px" viewBox="0 0 39 39" version="1.1" xmlns="http://www.w3.org/2000/svg" xmlns:xlink="http://www.w3.org/1999/xlink">
    <!-- Generator: Sketch 51.3 (57544) - http://www.bohemiancoding.com/sketch -->
    <title>photoediting</title>
    <desc>Created with Sketch.</desc>
    <defs></defs>
    <g id="Timeline-content-request" stroke="none" stroke-width="1" fill="none" fill-rule="evenodd">
        <g id="01.4-contentrequest-timeline-tooltips" transform="translate(-687.000000, -454.000000)">
            <g id="timeline" transform="translate(340.000000, 67.000000)">
                <g id="shipping-info-tooltip-copy-2" transform="translate(324.000000, 366.000000)">
                    <g id="photoediting" transform="translate(23.000000, 21.000000)">
                        <circle id="Oval-4" fill="#F3F6F8" cx="19.5" cy="19.5" r="19.5"></circle>
                        <g id="Group-4" transform="translate(7.000000, 6.000000)" fill-rule="nonzero">
                            <path d="M23.6137617,22.7458904 L1.91534274,22.7458904 C1.40988082,22.7458904 1,22.3362023 1,21.8305476 L1,6.64381754 C1,6.13835562 1.40988082,5.72847475 1.91534274,5.72847475 L23.6137617,5.72847475 C24.1192236,5.72847475 24.5291045,6.13816293 24.5291045,6.64381754 L24.5291045,21.8305476 C24.5291045,22.3362023 24.1192236,22.7458904 23.6137617,22.7458904 Z" id="Shape" fill="#948BEC"></path>
                            <path d="M3,19.541748 L3,7.8152592 C3,7.74010472 3.06089438,7.67921034 3.13604886,7.67921034 L22.5948363,7.67921034 C22.6699908,7.67921034 22.7308851,7.74010472 22.7308851,7.8152592 L22.7308851,19.541748 C22.7308851,19.6169025 22.6699908,19.6777969 22.5948363,19.6777969 L3.13604886,19.6777969 C3.06089438,19.6777969 3,19.6169025 3,19.541748 Z" id="Shape" fill="#FFFFFF"></path>
                            <path d="M0,22.1189288 C0,23.1180977 0.809933829,23.9280315 1.8091027,23.9280315 L23.4489618,23.9280315 C24.4481307,23.9280315 25.2580645,23.1180977 25.2580645,22.1189288 C25.2580645,21.8123371 25.0094767,21.5637493 24.7026924,21.5637493 L0.555372152,21.5637493 C0.248587799,21.5637493 8.76315149e-17,21.8123371 8.76315149e-17,22.1189288 Z" id="Shape" fill="#655F81"></path>
                            <path d="M24.7026924,21.5637493 L22.6927923,21.5637493 L22.6927923,22.1191215 C22.6927923,23.1180977 21.8828585,23.9280315 20.8836896,23.9280315 L23.4489618,23.9280315 C24.4481307,23.9280315 25.2580645,23.1180977 25.2580645,22.1191215 C25.2580645,21.8123371 25.0094767,21.5637493 24.7026924,21.5637493 Z" id="Shape" fill="#504972"></path>
                            <g id="croupier" transform="translate(6.270680, 9.000000)">
                                <path d="M8.15158847,0.532499548 C7.74566826,0.111555407 5.44799426,-0.326414026 4.18266698,0.352102749 C2.99747499,0.987643812 2.68931834,2.50851216 3.46243895,4.84431121 C3.70431732,5.57508885 4.3485564,6.29295065 4.7238848,7.20751011 C5.40270481,8.86158498 6.5452727,6.63658146 8.15158847,0.532499548 Z" id="Shape" fill="#504972"></path>
                                <path d="M7.43976135,6.36603306 L7.42994645,6.36603306 L7.42994645,5.94465026 L4.90428159,5.94465026 L4.90428159,6.36559441 C4.90428159,6.77798478 4.90255439,7.22623518 4.54346058,7.4973787 L4.54346058,9.34395104 L6.16711402,9.34395104 C6.16711402,9.34395104 7.01730933,9.34395104 7.79076746,9.34395104 L7.79076746,7.49110045 C7.4408854,7.21927154 7.43976135,6.77488678 7.43976135,6.36603306 Z" id="Shape" fill="#F5D2D2"></path>
                                <path d="M8.87320309,7.7487005 L8.81307996,7.7487005 C8.10610545,7.7487005 7.76162433,7.55571979 7.59268739,7.28120412 L7.23647225,8.83113613 L5.09781062,8.83113613 L4.74159548,7.28120412 C4.57263113,7.55571979 4.22815,7.7487005 3.52120291,7.7487005 L3.46107979,7.7487005 C2.36510069,7.7487005 0.667470983,9.38888032 0.973412103,10.7063995 L10.9046907,10.7063995 C11.2866085,9.65254337 9.96918218,7.7487005 8.87320309,7.7487005 Z" id="Shape" fill="#F5904E"></path>
                                <path d="M7.79076746,0.352075333 L6.52793503,7.20748269 L7.42997386,5.94465026 C9.33924643,4.54652024 10.1585988,0.352075333 7.79076746,0.352075333 Z" id="Shape" fill="#504972"></path>
                                <path d="M7.61037066,8.28991832 C7.6761963,8.30787575 7.73546953,8.31744391 7.79076746,8.32210461 L7.79076746,7.49107304 C7.4408854,7.21924412 7.43976135,6.77485936 7.43976135,6.36600564 L7.42994645,6.36600564 L7.42994645,5.94462285 L5.44549941,5.94462285 L4.90428159,6.12501965 C5.26507519,6.53096728 6.37007413,7.95166061 7.61037066,8.28991832 Z" id="Shape" fill="#EFC3C3"></path>
                                <path d="M8.69280629,3.59938221 C8.69280629,5.0440919 7.25599239,6.84668909 6.16714144,6.84668909 C5.07829048,6.84668909 3.64147658,5.0440919 3.64147658,3.59938221 C3.64147658,2.15467253 4.77227391,1.61490776 6.16714144,1.61490776 C7.56200897,1.61490776 8.69280629,2.15467253 8.69280629,3.59938221 Z" id="Shape" fill="#F5D2D2"></path>
                                <path d="M6.52793503,0.712896348 C6.42657835,0.712896348 6.09747757,0.826782108 5.82849991,0.926576082 L5.80632042,0.893293147 C5.80632042,0.893293147 5.76919926,0.922463693 5.70493632,0.973018662 C5.55532761,1.02982446 5.44552682,1.07368995 5.44552682,1.07368995 L5.48771994,1.14403921 C4.80297974,1.68352982 3.42113478,2.37646738 3.28065557,2.51694659 C3.10025877,2.69734339 3.82187338,4.74945293 3.82187338,4.68181784 C3.82187338,2.81010509 5.57835699,2.60242945 6.70835925,2.33654979 C7.21950179,2.21627612 7.91106855,1.91560565 7.97119167,1.61493517 C8.0313148,1.31423729 6.70833183,0.712896348 6.52793503,0.712896348 Z" id="Shape" fill="#504972"></path>
                                <path d="M7.61037066,1.79533197 C7.61037066,2.72741866 8.06139007,3.52045176 8.68153834,3.67831267 C9.02135875,3.76480992 8.8732305,2.6973708 8.8732305,2.6973708 C8.8732305,2.6973708 8.39213582,1.46458623 8.33201269,1.43453838 C8.27188956,1.4044631 7.79079488,0.352102749 7.79079488,0.352102749 L6.70835925,1.25414158 L7.61037066,1.79533197 Z" id="Shape" fill="#504972"></path>
                                <path d="M8.42410279,3.61585918 C8.71929007,3.54819668 8.91268202,3.69276086 8.91268202,3.9766802 C8.91268202,4.35252514 8.51572681,5.27334388 8.09840158,4.69829481 C7.68107634,4.12324574 8.42410279,3.61585918 8.42410279,3.61585918 Z" id="Shape" fill="#F5D2D2"></path>
                                <path d="M6.16711402,8.56333736 L6.16711402,8.56333736 C5.74700504,8.98344634 5.0658738,8.98344634 4.64576482,8.56333736 C4.60272731,8.52029985 4.5634199,8.47368752 4.52826571,8.42400215 L4.00224277,7.68054451 L4.42241926,7.26036801 C4.49027368,7.19251359 4.59936166,7.18966234 4.67067048,7.25384302 L6.16711402,8.56333736 Z" id="Shape" fill="#FFFFFF"></path>
                                <path d="M6.16711402,8.56333736 L6.16711402,8.56333736 C6.587223,8.98344634 7.26835424,8.98344634 7.68846322,8.56333736 C7.73150073,8.52029985 7.77080814,8.47368752 7.80596233,8.42400215 L8.33198527,7.68054451 L7.91180878,7.26036801 C7.84395436,7.19251359 7.73486638,7.18966234 7.66355756,7.25384302 L6.16711402,8.56333736 Z" id="Shape" fill="#FFFFFF"></path>
                                <path d="M6.52793503,9.10455517 C6.52793503,9.20377341 6.44675647,9.28495197 6.34753823,9.28495197 L5.98671722,9.28495197 C5.88749898,9.28495197 5.80632042,9.20377341 5.80632042,9.10455517 L5.80632042,8.74373415 C5.80632042,8.64451591 5.88749898,8.56333736 5.98671722,8.56333736 L6.34753823,8.56333736 C6.44675647,8.56333736 6.52793503,8.64451591 6.52793503,8.74373415 L6.52793503,9.10455517 Z" id="Shape" fill="#FFFFFF"></path>
                                <path d="M5.98671722,8.74373415 L4.97534368,8.31028835 C4.85630372,8.25926731 4.7238848,8.34658704 4.7238848,8.47609988 L4.7238848,9.37216203 C4.7238848,9.50167487 4.85630372,9.5889946 4.97534368,9.53797356 L5.98671722,9.10452775 L5.98671722,8.74373415 Z" id="Shape" fill="#FFFFFF"></path>
                                <path d="M6.34751082,8.74373415 L7.35888436,8.31028835 C7.47792432,8.25926731 7.61034324,8.34658704 7.61034324,8.47609988 L7.61034324,9.37216203 C7.61034324,9.50167487 7.47792432,9.5889946 7.35888436,9.53797356 L6.34751082,9.10452775 L6.34751082,8.74373415 Z" id="Shape" fill="#FFFFFF"></path>
                            </g>
                            <g id="pencile" transform="translate(22.950736, 7.679210) rotate(-10.000000) translate(-22.950736, -7.679210) translate(16.950736, 1.679210)">
                                <polygon id="Shape" fill="#948BEC" points="9.82616536 3.89678305 9.55147306 2.05235875 7.70704876 1.77761848 6.52976176 2.95495345 6.80445407 4.79937774 8.64887836 5.07402208"></polygon>
                                <path d="M0.0932120317,10.8214579 C-0.0151396216,10.9298096 -0.0151396216,11.1055513 0.0932120317,11.2139029 C0.201611649,11.3223025 0.377305366,11.3222546 0.48565702,11.2139029 L1.91796202,10.4925747 L2.15111713,9.15599782 L0.814540252,9.38915292 L0.0932120317,10.8214579 Z" id="Shape" fill="#504972"></path>
                                <polygon id="Shape" fill="#F5D2D2" points="1.97220092 7.5125143 0.814540252 9.38915292 1.91796202 10.4925747 4.09126955 9.63158293 3.81662521 7.78715864"></polygon>
                                <path d="M11.1211571,2.6016954 C11.7053639,2.01748861 11.7054598,1.06683356 11.1211571,0.482578802 C10.5368544,-0.101723916 9.58624727,-0.101627987 9.00204048,0.482578802 L7.7070008,1.77761848 L9.8261174,3.89673508 L11.1211571,2.6016954 Z" id="Shape" fill="#46E3A2"></path>
                                <polygon id="Rectangle-path" fill="#E9EEF3" transform="translate(5.607120, 5.997094) rotate(135.000000) translate(-5.607120, -5.997094) " points="1.96513978 4.4986754 9.24910104 4.4986754 9.24910104 7.49551237 1.96513978 7.49551237"></polygon>
                            </g>
                        </g>
                    </g>
                </g>
            </g>
        </g>
    </g>
</svg>