<?xml version="1.0" encoding="UTF-8"?>
<svg width="39px" height="39px" viewBox="0 0 39 39" version="1.1" xmlns="http://www.w3.org/2000/svg" xmlns:xlink="http://www.w3.org/1999/xlink">
    <!-- Generator: Sketch 51.3 (57544) - http://www.bohemiancoding.com/sketch -->
    <title>completeshot-tooltipicon</title>
    <desc>Created with Sketch.</desc>
    <defs>
        <polygon id="path-1" points="1.56722851e-14 0 13.313124 0 18.7212718 3.09822503 18.7212718 21.7255663 1.42108547e-14 21.7255663"></polygon>
        <filter x="-37.4%" y="-50.6%" width="217.5%" height="201.3%" filterUnits="objectBoundingBox" id="filter-2">
            <feOffset dx="4" dy="0" in="SourceAlpha" result="shadowOffsetOuter1"></feOffset>
            <feGaussianBlur stdDeviation="3" in="shadowOffsetOuter1" result="shadowBlurOuter1"></feGaussianBlur>
            <feColorMatrix values="0 0 0 0 0.556862745   0 0 0 0 0.596078431   0 0 0 0 0.639215686  0 0 0 0.1 0" type="matrix" in="shadowBlurOuter1"></feColorMatrix>
        </filter>
        <polygon id="path-3" points="0.0391769023 0.0284671533 10.5131809 0.0284671533 10.5131809 8.01473723 0.0391769023 8.01473723"></polygon>
        <polygon id="path-5" points="0 0.0477445255 19.9826277 0.0477445255 19.9826277 9.41605839 0 9.41605839"></polygon>
    </defs>
    <g id="Timeline-content-request" stroke="none" stroke-width="1" fill="none" fill-rule="evenodd">
        <g id="01.4-contentrequest-timeline-tooltips" transform="translate(-687.000000, -201.000000)">
            <g id="timeline" transform="translate(340.000000, 67.000000)">
                <g id="shipping-info-tooltip-copy" transform="translate(324.000000, 113.000000)">
                    <g id="completeshot-tooltipicon" transform="translate(23.000000, 21.000000)">
                        <circle id="Oval-4" fill="#F3F6F8" cx="19.5" cy="19.5" r="19.5"></circle>
                        <g id="girl/frame" transform="translate(10.000000, 11.000000)">
                            <g id="Combined-Shape">
                                <use fill="black" fill-opacity="1" filter="url(#filter-2)" xlink:href="#path-1"></use>
                                <use fill="#D5DDE5" fill-rule="evenodd" xlink:href="#path-1"></use>
                            </g>
                            <path d="M1.85022457,1.74981514 L16.8590648,1.74981514 L16.8590648,16.4045169 L1.85022457,16.4045169 L1.85022457,1.74981514 Z" id="Rectangle-14" fill="#F3F6F8"></path>
                            <g id="girl-2" transform="translate(1.276962, 2.482154)" fill-rule="nonzero">
                                <path d="M10.8637244,0.752189471 C10.2680611,0.157579105 6.89636346,-0.461080567 5.03957223,0.497367522 C3.30037469,1.39510968 2.84817344,3.54343293 3.98268117,6.84289761 C4.13054676,7.27293196 3.25227633,10.116101 3.53184064,12.3575233 C3.57780345,12.7260326 3.72808363,13.0346154 3.98268117,13.2832718 C8.10971926,13.344774 10.7338298,13.2485184 11.8550128,12.994505 C12.887745,12.760531 12.5573156,8.67975912 10.8637244,0.752189471 Z" id="Shape" fill="#504972"></path>
                                <path d="M9.81916118,8.99242648 L9.8047584,8.99242648 L9.8047584,8.39719649 L6.09849802,8.39719649 L6.09849802,8.99180685 C6.09849802,9.57433448 6.09596346,10.2075167 5.56901501,10.5905241 L5.56901501,13.198925 L7.95162821,13.198925 C7.95162821,13.198925 9.1992384,13.198925 10.3342414,13.198925 L10.3342414,10.5816557 C9.82081065,10.1976801 9.81916118,9.56995836 9.81916118,8.99242648 Z" id="Shape" fill="#F5D2D2"></path>
                                <path d="M11.9226502,10.9455322 L11.8344232,10.9455322 C10.7969808,10.9455322 10.2914756,10.6729346 10.0435709,10.2851638 L9.52084672,12.4745413 L6.38249016,12.4745413 L5.859766,10.2851638 C5.61182103,10.6729346 5.10631582,10.9455322 4.06891373,10.9455322 L3.98068668,10.9455322 C2.37240366,10.9455322 0.980815957,12.374136 0.980815957,13.9223149 L14.9117979,13.9223149 C14.9117577,12.3741747 13.5309332,10.9455322 11.9226502,10.9455322 Z" id="Combined-Shape" fill="#948BEC"></path>
                                <path d="M10.3342414,0.497328795 L8.48111122,10.1810276 L9.80479863,8.39719649 C12.6065406,6.42224893 13.8088907,0.497328795 10.3342414,0.497328795 Z" id="Shape" fill="#504972"></path>
                                <path d="M10.06952,11.7100367 C10.1661152,11.7354028 10.2530951,11.7489184 10.3342414,11.7555019 L10.3342414,10.581617 C9.82081065,10.1976414 9.81916118,9.56991963 9.81916118,8.99238776 L9.8047584,8.99238776 L9.8047584,8.39715776 L6.89270242,8.39715776 L6.09849802,8.65197971 C6.6279408,9.22540655 8.24945989,11.2322262 10.06952,11.7100367 Z" id="Shape" fill="#EFC3C3"></path>
                                <path d="M11.6579288,5.08435624 C11.6579288,7.12510053 9.54949135,9.67138369 7.95166844,9.67138369 C6.35384554,9.67138369 4.24540807,7.12510053 4.24540807,5.08435624 C4.24540807,3.04361195 5.90478473,2.28115989 7.95166844,2.28115989 C9.99855216,2.28115989 11.6579288,3.04361195 11.6579288,5.08435624 Z" id="Shape" fill="#F5D2D2"></path>
                                <path d="M8.1811263,0.429477863 C8.0323915,0.429477863 7.549456,0.590348741 7.15474756,0.731314074 L7.12220051,0.684299812 C7.12220051,0.684299812 7.06772745,0.725505063 6.97342548,0.796917172 C6.75388374,0.877158977 6.59275773,0.939121761 6.59275773,0.939121761 L6.65467357,1.03849458 C5.64985876,1.80055937 3.62208487,2.77937772 3.41594013,2.97781354 C3.15121874,3.23263548 4.21014453,6.1313707 4.21014453,6.03583183 C4.21014453,3.39191857 6.89696868,3.35338546 8.55517864,2.97781354 C9.30524939,2.80791933 11.4668008,2.73485039 11.5550279,2.31013423 C11.6432549,1.88537935 8.44584769,0.429477863 8.1811263,0.429477863 Z" id="Shape" fill="#504972"></path>
                                <path d="M10.06952,2.53602057 C10.06952,3.85265228 10.7313637,4.97286196 11.6413938,5.19585053 C12.1400597,5.31803339 11.9226904,3.81020777 11.9226904,3.81020777 C11.9226904,3.81020777 11.2167131,2.06882118 11.128486,2.02637667 C11.040259,1.98389344 10.3342816,0.497367522 10.3342816,0.497367522 L8.74587284,1.77155472 L10.06952,2.53602057 Z" id="Shape" fill="#504972"></path>
                                <path d="M11.2636227,5.10763101 C11.6967922,5.01205342 11.9805832,5.21625952 11.9805832,5.61731364 C11.9805832,6.14821852 11.3980754,7.44893353 10.7856759,6.63664016 C10.1732763,5.82434679 11.2636227,5.10763101 11.2636227,5.10763101 Z" id="Shape" fill="#F5D2D2"></path>
                                <path d="M7.95162821,12.0962585 C7.31154655,12.7124039 6.29317334,12.6929997 5.67702797,12.052918 C5.62773632,12.0017115 5.58189252,11.9472944 5.53979795,11.8900247 L4.77481061,10.8492575 L5.3913942,10.2557315 C5.49096646,10.1598828 5.65104646,10.1558552 5.75568785,10.2465145 L7.95162821,12.0962585 Z M7.95162821,12.0962585 L10.1475686,10.2465145 C10.25221,10.1558552 10.41229,10.1598828 10.5118622,10.2557315 L11.1284458,10.8492575 L10.3634585,11.8900247 C10.3213639,11.9472944 10.2755201,12.0017115 10.2262285,12.052918 C9.61008309,12.6929997 8.59170987,12.7124039 7.95162821,12.0962585 Z" id="Combined-Shape" fill="#FFFFFF"></path>
                                <path d="M8.45961123,12.9610807 C8.41894658,13.0517296 8.32503888,13.115585 8.21638983,13.115585 L7.68690682,13.115585 C7.57825218,13.115585 7.4843404,13.051723 7.44367914,12.9610667 L6.20277733,13.4729941 C6.0280934,13.5450646 5.83377663,13.4217199 5.83377663,13.2387748 L5.83377663,11.97303 C5.83377663,11.7900849 6.0280934,11.6667402 6.20277733,11.7388107 L7.4436938,12.2507442 C7.48436297,12.1601052 7.57826523,12.0962585 7.68690682,12.0962585 L8.21638983,12.0962585 C8.32502583,12.0962585 8.41892401,12.1600986 8.45959657,12.2507302 L9.70047909,11.7388107 C9.87516303,11.6667402 10.0694798,11.7900849 10.0694798,11.97303 L10.0694798,13.2387748 C10.0694798,13.4217199 9.87516303,13.5450646 9.70047909,13.4729941 L8.45961123,12.9610807 Z" id="Combined-Shape" fill="#6BEBB6"></path>
                            </g>
                        </g>
                        <g id="hat" transform="translate(12.000000, 4.444444)">
                            <g id="Group-3" transform="translate(5.401460, 0.044526)">
                                <mask id="mask-4" fill="white">
                                    <use xlink:href="#path-3"></use>
                                </mask>
                                <g id="Clip-2"></g>
                                <path d="M10.2808175,7.7389708 C10.2946861,7.61678102 10.3054161,7.49108759 10.3139562,7.3629854 C10.3225693,7.23481022 10.3291387,7.10408029 10.336146,6.9710146 C10.4538832,5.66575912 10.7273869,4.25845985 10.2034453,3.08962774 C10.1221314,2.95050365 10.0294307,2.81860584 9.92658394,2.69356934 C8.88986861,1.43269343 6.82308029,0.86619708 5.27643796,0.412547445 C5.13592701,0.371306569 4.99957664,0.331014599 4.86870073,0.291160584 C4.71716788,0.23240146 4.56256934,0.182912409 4.40621898,0.143277372 C4.24994161,0.103861314 4.0919854,0.0742992701 3.93388321,0.0561240876 C2.15183942,-0.203218978 0.832277372,1.40371533 0.230963504,3.06028467 C0.178189781,3.20780292 0.134321168,3.35408029 0.101985401,3.49758394 C0.00483211679,3.92787591 0.0108905109,4.33218248 0.187605839,4.6640073 C0.253080292,4.78685401 0.341912409,4.89984672 0.457605839,5.00043066 C0.606072993,5.08035766 0.755270073,5.15605109 0.90519708,5.22794891 C2.02855474,5.52057664 2.9149781,6.32013869 3.96140146,6.71816788 C4.2230073,6.81765693 4.49461314,6.8920365 4.78242336,6.92721898 C5.49519708,7.24364234 6.21738686,7.3659781 6.92672993,7.45714599 C7.06855474,7.47539416 7.20994161,7.49240146 7.35052555,7.50940876 C7.98256934,7.62794891 8.50563504,7.52816788 8.99381022,7.80057664 C9.09308029,7.82152555 9.19249635,7.84189051 9.29213139,7.86152555 C9.39176642,7.88116058 9.49176642,7.90006569 9.59205839,7.91809489 C9.79278832,7.95408029 9.99505109,7.98663504 10.1995036,8.01473723 C10.4415474,7.86853285 10.2608905,7.96948175 10.2808175,7.7389708" id="Fill-1" fill="#E6D3F7" mask="url(#mask-4)"></path>
                            </g>
                            <g id="Group-6" transform="translate(0.000000, 3.986131)">
                                <mask id="mask-6" fill="white">
                                    <use xlink:href="#path-5"></use>
                                </mask>
                                <g id="Clip-5"></g>
                                <path d="M19.2767445,5.98358394 C18.6605401,5.51876642 18.1214161,5.00723358 17.5139708,4.55832847 C17.0265255,4.19818248 16.4533869,4.01584672 15.9350657,3.70022628 C15.4050657,3.37745255 14.891781,3.09789051 14.3706861,2.82051825 L6.35448175,0.0477445255 C5.45732847,0.904313869 3.87119708,0.491613139 2.69557664,0.406357664 C1.76068613,0.338547445 0.239226277,0.498693431 0.012,1.65540876 C-0.113547445,2.29453285 0.777547445,3.16029927 1.18864234,3.55161314 C2.18710949,4.50175912 3.25455474,5.19124818 4.42455474,5.90241606 C6.54835036,7.19321898 8.77309489,8.18256204 11.1769635,8.84358394 C12.8886423,9.31431387 15.0799562,9.6950438 16.7884964,9.14336496 C17.7200292,8.84256204 18.741708,8.4979635 19.4960146,7.84241606 C20.2806861,7.16044526 20.0501022,6.56694161 19.2767445,5.98358394" id="Fill-4" fill="#E6D3F7" mask="url(#mask-6)"></path>
                            </g>
                            <path d="M5.66160584,3.03476642 C5.13583942,2.84651825 4.15664234,3.99761314 4.32715328,4.43848905 C4.43627737,4.72082482 5.23372263,5.01629927 5.4879562,5.14527737 C6.09291971,5.45221168 6.73919708,5.70885401 7.37094891,5.96345255 C9.55751825,6.84447445 11.8483942,7.7110438 14.1940146,7.99177372 C14.7733577,8.06111679 15.3910949,8.14622628 15.9072993,7.85491241 C16.5306569,7.50316058 16.4426277,6.13235766 15.6716788,5.99629927 C15.1567883,5.90549635 14.6183942,6.1260073 14.099854,6.08323358 C13.1065693,6.00133577 12.0937226,5.57520438 11.1159124,5.29681022 C9.48364964,4.83213869 7.59708029,4.35432847 6.14693431,3.49644526 C5.98240876,3.39914599 5.84605839,3.25724818 5.72051095,3.11535036 C5.78671533,3.17170073 5.81218978,3.24483942 5.89182482,3.29783212 L5.66160584,3.03476642 Z" id="Fill-7" fill="#948BEC"></path>
                            <path d="M16.9324234,11.0938321 C16.3676788,10.204781 15.7303066,9.21762774 14.7881168,8.6870438 C13.5543942,7.99244526 11.8542482,8.22142336 10.5015474,7.7899635 C8.07840876,7.0170438 5.80570803,5.70178832 3.45833577,4.77507299 C2.45614599,4.37937956 0.219284672,4.73441606 0.322131387,6.02434307 C0.384394161,6.80551095 1.26183942,7.20281022 1.7930073,7.64850365 C2.47913869,8.22419708 3.08753285,8.8420073 3.91286131,9.30368613 C5.47052555,10.174927 7.26125547,10.8466788 8.95118248,11.4098905 C10.536,11.9379927 12.1869489,12.4744161 13.8643212,12.5832482 C14.6197956,12.6322993 17.9832263,12.7481387 16.9324234,11.0938321" id="Fill-9" fill="#F2E3FF"></path>
                            <path d="M13.7956569,4.59241606 C13.6928102,3.86584672 13.6781387,3.31424088 13.0187226,2.88650365 C12.2817883,2.40840146 11.3772628,2.30351095 10.5922263,1.9240219 C9.89332117,1.58613869 8.64485401,1.52774453 8.43120438,0.627963504 C8.31945255,0.157233577 8.11886861,0.282854015 7.71178832,0.566211679 C6.90521898,1.12781752 5.34923358,2.40146715 6.61645985,3.3479635 C7.65368613,4.12263504 8.95872263,4.40307299 10.1612044,4.81029927 C11.2156569,5.16737956 12.225073,5.75730657 13.3596715,5.7119781 C13.9563869,5.68818248 13.8635401,5.07168613 13.7956569,4.59241606" id="Fill-11" fill="#F2E3FF"></path>
                            <path d="M7.61847445,0.866905109 C7.41416788,0.941941606 7.30752555,1.18471533 7.1700073,1.33756204 C7.01737956,1.50727007 6.8749708,1.67566423 6.763,1.8709927 C6.64730657,2.07281752 6.45942336,2.56435036 6.56168613,2.81566423 C6.60694161,2.92668613 6.79329197,2.98610219 6.90752555,2.95683212 C7.04212409,2.92230657 7.10263504,2.76318248 7.14336496,2.6400438 C7.2519781,2.31172263 7.30854745,1.98588321 7.49154015,1.68617518 C7.61278102,1.48756204 7.82526277,1.36070073 7.93891241,1.16522628 C8.05577372,0.96449635 7.88694161,0.815445255 7.68475182,0.849386861 C7.66146715,0.853255474 7.63949635,0.859240876 7.61847445,0.866905109" id="Fill-13" fill="#FFFFFF"></path>
                        </g>
                    </g>
                </g>
            </g>
        </g>
    </g>
</svg>