<?xml version="1.0" encoding="UTF-8"?>
<svg width="39px" height="39px" viewBox="0 0 39 39" version="1.1" xmlns="http://www.w3.org/2000/svg" xmlns:xlink="http://www.w3.org/1999/xlink">
    <!-- Generator: Sketch 51.3 (57544) - http://www.bohemiancoding.com/sketch -->
    <title>shipproduct-tooltipicon</title>
    <desc>Created with Sketch.</desc>
    <defs>
        <path d="M1.75,0 L14.45,0 C15.0022847,8.7960173e-16 15.45,0.44771525 15.45,1 L15.45,12.5485321 L0.75,11.9326537 L0.75,1 C0.75,0.44771525 1.19771525,1.01453063e-16 1.75,0 Z" id="path-1"></path>
        <filter x="-30.6%" y="-67.7%" width="222.4%" height="235.5%" filterUnits="objectBoundingBox" id="filter-3">
            <feOffset dx="5" dy="0" in="SourceAlpha" result="shadowOffsetOuter1"></feOffset>
            <feGaussianBlur stdDeviation="2" in="shadowOffsetOuter1" result="shadowBlurOuter1"></feGaussianBlur>
            <feColorMatrix values="0 0 0 0 0.892114709   0 0 0 0 0.806306697   0 0 0 0 0.963621386  0 0 0 0.2 0" type="matrix" in="shadowBlurOuter1"></feColorMatrix>
        </filter>
    </defs>
    <g id="Timeline-content-request" stroke="none" stroke-width="1" fill="none" fill-rule="evenodd">
        <g id="01.4-contentrequest-timeline-tooltips" transform="translate(-363.000000, -201.000000)">
            <g id="timeline" transform="translate(340.000000, 67.000000)">
                <g id="shipping-info-tooltip" transform="translate(0.000000, 113.000000)">
                    <g id="shipproduct-tooltipicon" transform="translate(23.000000, 21.000000)">
                        <circle id="Oval-4" fill="#F3F6F8" cx="19.5" cy="19.5" r="19.5"></circle>
                        <g id="shipping-truck" transform="translate(6.000000, 12.000000)">
                            <g id="wehicle">
                                <mask id="mask-2" fill="white">
                                    <use xlink:href="#path-1"></use>
                                </mask>
                                <g id="Rectangle-2">
                                    <use fill="black" fill-opacity="1" filter="url(#filter-3)" xlink:href="#path-1"></use>
                                    <use fill="#6BEBB6" fill-rule="evenodd" xlink:href="#path-1"></use>
                                </g>
                                <path d="M14.4844828,8.28750242 L14.4844828,2.31877057 C14.4844828,1.87797587 14.4206973,0.924185655 14.2932204,-0.526732902 C14.2699576,-0.791505664 14.4664135,-1.02494563 14.7320169,-1.04813566 C14.9976204,-1.0713257 15.2317927,-0.875484199 15.2550555,-0.610711437 C15.3850499,0.86886063 15.45,1.84006557 15.45,2.31877057 L15.45,11.25 L0.182758621,11.25 C-0.0838616034,11.25 -0.3,11.0345376 -0.3,10.7687512 C-0.3,10.5029648 -0.0838616034,10.2875024 0.182758621,10.2875024 L12.4844828,10.2875024 C13.5890523,10.2875024 14.4844828,9.39207192 14.4844828,8.28750242 Z" id="Path-3" fill="#46E3A2" fill-rule="nonzero" mask="url(#mask-2)"></path>
                                <path d="M17.5,1.05 L22.369601,1.05 C23.0797431,1.05 23.7366304,1.42656777 24.095474,2.03937535 L26.0146826,5.31686366 C26.4634529,6.08324169 26.7,6.95532053 26.7,7.84342529 L26.7,12 L16.5,11.25 L16.5,2.05 C16.5,1.49771525 16.9477153,1.05 17.5,1.05 Z M20.0716535,3.9864 C19.0853686,3.9864 18.2858268,4.78594188 18.2858268,5.77222677 L18.2858268,5.952 C18.2858268,5.9609075 18.2858882,5.96981489 18.2860109,5.97872155 C18.3007688,7.04932971 19.1806319,7.90526547 20.2512401,7.89050756 L22.5228597,7.85919419 C22.6164921,7.8579035 22.7093688,7.84221812 22.7982321,7.81268825 C23.276811,7.6536532 23.5358525,7.13676496 23.3768174,6.65818605 L22.4325961,4.99775315 C22.0770748,4.37256141 21.413248,3.9864 20.69404,3.9864 L20.0716535,3.9864 Z" id="Combined-Shape" fill="#948BEC"></path>
                                <path d="M0.7875,11.25 L26.2125,11.25 C26.6474242,11.25 27,11.6025758 27,12.0375 L27,12.0375 C27,12.4724242 26.6474242,12.825 26.2125,12.825 L0.7875,12.825 C0.35257576,12.825 5.32628579e-17,12.4724242 0,12.0375 L0,12.0375 C-5.32628579e-17,11.6025758 0.35257576,11.25 0.7875,11.25 Z" id="Rectangle-3" fill="#837ADD"></path>
                                <path d="M5.24464923,15.0928571 C3.92212098,15.0928571 2.85,13.9975538 2.85,12.6464286 C2.85,11.2953034 3.92212098,10.2 5.24464923,10.2 C6.56717748,10.2 7.63929845,11.2953034 7.63929845,12.6464286 C7.63929845,13.9975538 6.56717748,15.0928571 5.24464923,15.0928571 Z M21.7553508,15.0928571 C20.4328225,15.0928571 19.3607015,13.9975538 19.3607015,12.6464286 C19.3607015,11.2953034 20.4328225,10.2 21.7553508,10.2 C23.077879,10.2 24.15,11.2953034 24.15,12.6464286 C24.15,13.9975538 23.077879,15.0928571 21.7553508,15.0928571 Z" id="Combined-Shape" fill="#837ADD"></path>
                            </g>
                        </g>
                    </g>
                </g>
            </g>
        </g>
    </g>
</svg>