<?xml version="1.0" encoding="UTF-8"?>
<svg width="39px" height="39px" viewBox="0 0 39 39" version="1.1" xmlns="http://www.w3.org/2000/svg" xmlns:xlink="http://www.w3.org/1999/xlink">
    <!-- Generator: Sketch 51.3 (57544) - http://www.bohemiancoding.com/sketch -->
    <title>download-photo</title>
    <desc>Created with Sketch.</desc>
    <defs></defs>
    <g id="Timeline-content-request" stroke="none" stroke-width="1" fill="none" fill-rule="evenodd">
        <g id="01.4-contentrequest-timeline-tooltips" transform="translate(-1027.000000, -454.000000)">
            <g id="timeline" transform="translate(340.000000, 67.000000)">
                <g id="photoshoot-firststage-copy-2" transform="translate(662.000000, 366.000000)">
                    <g id="download-photo" transform="translate(25.000000, 21.000000)">
                        <circle id="Oval-4" fill="#F3F6F8" cx="19.5" cy="19.5" r="19.5"></circle>
                        <polygon id="Rectangle-path" fill="#D5DDE5" fill-rule="nonzero" transform="translate(22.742495, 12.791648) rotate(-17.000000) translate(-22.742495, -12.791648) " points="16.7151982 7.41848518 28.7697921 7.41848518 28.7697921 18.1648117 19.1735652 18.1648117 19.3545438 15.6799001 16.7151982 14.8729712"></polygon>
                        <g id="Path-2" transform="translate(23.270524, 13.810119) rotate(-17.000000) translate(-23.270524, -13.810119) translate(18.270524, 8.810119)" fill-rule="nonzero">
                            <g id="croupier" transform="translate(0.067742, 0.000000)">
                                <path d="M6.40093177,0.464085363 C6.04716315,0.0972230522 4.04468845,-0.284477184 2.9419272,0.306865485 C1.90900566,0.860753852 1.64044019,2.18622491 2.31423223,4.22192645 C2.52503468,4.85881564 3.08650357,5.48444838 3.41361073,6.28150757 C4.00521768,7.72307112 5.00099136,5.78393038 6.40093177,0.464085363 Z" id="Shape" fill="#504972"></path>
                                <path d="M5.78055838,5.54814135 L5.77200447,5.54814135 L5.77200447,5.18089675 L3.57083061,5.18089675 L3.57083061,5.54775906 C3.57083061,5.90716657 3.56932531,6.2978269 3.25636696,6.53413459 L3.25636696,8.14346402 L4.67141754,8.14346402 C4.67141754,8.14346402 5.41238192,8.14346402 6.08646812,8.14346402 L6.08646812,6.52866296 C5.78153802,6.29175793 5.78055838,5.90446659 5.78055838,5.54814135 Z" id="Shape" fill="#F5D2D2"></path>
                                <path d="M7.02983518,6.75316721 L6.97743652,6.75316721 C6.36129229,6.75316721 6.06106923,6.58498017 5.91383687,6.34573357 L5.60338735,7.69653426 L3.73949552,7.69653426 L3.42904599,6.34573357 C3.28178975,6.58498017 2.98156668,6.75316721 2.36544635,6.75316721 L2.31304769,6.75316721 C1.3578772,6.75316721 0.249462683,8.04025193 0.249462683,8.99544631 L8.76939837,9.05838567 C8.76937447,8.10321518 7.98500567,6.75316721 7.02983518,6.75316721 Z" id="Shape" fill="#6BEBB6"></path>
                                <path d="M6.08646812,0.306841592 L4.98588119,6.28148368 L5.77202837,5.18089675 C7.43600246,3.9623949 8.15008654,0.306841592 6.08646812,0.306841592 Z" id="Shape" fill="#504972"></path>
                                <path d="M5.92924824,7.22485073 C5.98661677,7.24050104 6.03827473,7.24883991 6.08646812,7.25290182 L6.08646812,6.52863906 C5.78153802,6.29173403 5.78055838,5.90444269 5.78055838,5.54811746 L5.77200447,5.54811746 L5.77200447,5.18087285 L4.04251413,5.18087285 L3.57083061,5.33809273 C3.88527036,5.69188524 4.84830185,6.93005152 5.92924824,7.22485073 Z" id="Shape" fill="#EFC3C3"></path>
                                <path d="M6.8726153,3.13694276 C6.8726153,4.39603982 5.62039959,5.96704392 4.67144143,5.96704392 C3.72248328,5.96704392 2.47026757,4.39603982 2.47026757,3.13694276 C2.47026757,1.87784569 3.45578293,1.40742852 4.67144143,1.40742852 C5.88709994,1.40742852 6.8726153,1.87784569 6.8726153,3.13694276 Z" id="Shape" fill="#F5D2D2"></path>
                                <path d="M4.98588119,0.621305241 C4.89754656,0.621305241 4.6107278,0.720559249 4.37630771,0.807531948 L4.35697778,0.778525119 C4.35697778,0.778525119 4.32462585,0.803947908 4.26861926,0.848007704 C4.13823189,0.89751524 4.04253803,0.935744997 4.04253803,0.935744997 L4.07931028,0.997055971 C3.48254376,1.4672342 2.27823472,2.0711449 2.15580392,2.1935757 C1.99858404,2.35079558 2.62748745,4.13925532 2.62748745,4.08030981 C2.62748745,2.44906995 4.15830251,2.26807594 5.14312496,2.03635582 C5.58859721,1.93153461 6.19131323,1.66949351 6.24371189,1.40745242 C6.29611056,1.14538743 5.14310107,0.621305241 4.98588119,0.621305241 Z" id="Shape" fill="#504972"></path>
                                <path d="M5.92924824,1.5646723 C5.92924824,2.37700686 6.32232183,3.06815309 6.86279503,3.20573243 C7.15895618,3.28111673 7.02985907,2.35081947 7.02985907,2.35081947 C7.02985907,2.35081947 6.61057421,1.27641992 6.55817554,1.25023254 C6.50577688,1.22402126 6.08649202,0.306865485 6.08649202,0.306865485 L5.14312496,1.09301266 L5.92924824,1.5646723 Z" id="Shape" fill="#504972"></path>
                                <path d="M6.63843414,3.15130281 C6.89569652,3.09233341 7.06424196,3.21832435 7.06424196,3.46576646 C7.06424196,3.7933238 6.71828655,4.59583809 6.35457819,4.09466987 C5.99086984,3.59350164 6.63843414,3.15130281 6.63843414,3.15130281 Z" id="Shape" fill="#F5D2D2"></path>
                                <path d="M4.67141754,7.46314159 L4.67141754,7.46314159 C4.30528309,7.82927604 3.71166186,7.82927604 3.34552741,7.46314159 C3.30801925,7.42563344 3.27376195,7.38500974 3.24312429,7.34170782 L2.78468343,6.69376772 L3.15087672,6.32757443 C3.21001338,6.26843777 3.305086,6.26595284 3.36723325,6.32188775 L4.67141754,7.46314159 Z" id="Shape" fill="#FFFFFF"></path>
                                <path d="M4.67141754,7.46314159 L4.67141754,7.46314159 C5.03755199,7.82927604 5.63117322,7.82927604 5.99730768,7.46314159 C6.03481583,7.42563344 6.06907313,7.38500974 6.09971079,7.34170782 L6.55815165,6.69376772 L6.19195836,6.32757443 C6.1328217,6.26843777 6.03774908,6.26595284 5.97560183,6.32188775 L4.67141754,7.46314159 Z" id="Shape" fill="#FFFFFF"></path>
                                <path d="M4.98588119,7.93482512 C4.98588119,8.02129605 4.91513224,8.092045 4.82866131,8.092045 L4.51419766,8.092045 C4.42772673,8.092045 4.35697778,8.02129605 4.35697778,7.93482512 L4.35697778,7.62036147 C4.35697778,7.53389054 4.42772673,7.46314159 4.51419766,7.46314159 L4.82866131,7.46314159 C4.91513224,7.46314159 4.98588119,7.53389054 4.98588119,7.62036147 L4.98588119,7.93482512 Z" id="Shape" fill="#FFFFFF"></path>
                                <path d="M4.51419766,7.62036147 L3.63276281,7.24260368 C3.52901681,7.19813769 3.41361073,7.2742388 3.41361073,7.38711216 L3.41361073,8.16805053 C3.41361073,8.28092389 3.52901681,8.357025 3.63276281,8.31255902 L4.51419766,7.93480123 L4.51419766,7.62036147 Z" id="Shape" fill="#FFFFFF"></path>
                                <path d="M4.82863742,7.62036147 L5.71007227,7.24260368 C5.81381827,7.19813769 5.92922435,7.2742388 5.92922435,7.38711216 L5.92922435,8.16805053 C5.92922435,8.28092389 5.81381827,8.357025 5.71007227,8.31255902 L4.82863742,7.93480123 L4.82863742,7.62036147 Z" id="Shape" fill="#FFFFFF"></path>
                            </g>
                        </g>
                        <path d="M30.7398029,22.5815331 C29.9897659,21.6430432 29.0312699,21.0347469 27.8635129,20.7562669 C28.23202,20.1994956 28.4157545,19.5797808 28.4157545,18.8972641 C28.4157545,17.9452324 28.0789079,17.132535 27.4055921,16.4588889 C26.7321347,15.7854787 25.9193901,15.4486321 24.9673584,15.4486321 C24.1141299,15.4486321 23.3688113,15.7270649 22.7313082,16.2839306 C22.2016677,14.9906169 21.3549034,13.9533708 20.1920063,13.1721452 C19.0291092,12.3906836 17.7470253,12 16.345849,12 C14.4420214,12 12.8163907,12.6737405 11.4692401,14.0208911 C10.1219951,15.3677115 9.44858488,16.9934365 9.44858488,18.8974057 C9.44858488,19.0141389 9.45759702,19.2072631 9.47552695,19.4765894 C8.41582128,19.9705588 7.57169935,20.7114421 6.94287806,21.6992393 C6.31429269,22.6873197 6,23.7648137 6,24.9325708 C6,26.5941085 6.59060225,28.0150549 7.77147645,29.1960235 C8.95239783,30.3773695 10.3736746,30.9676887 12.0351179,30.9676887 L26.6921698,30.9676887 C28.1199108,30.9676887 29.339004,30.4623007 30.3494968,29.4521383 C31.359848,28.4419758 31.8650943,27.2228826 31.8650943,25.7946226 C31.8649528,24.5911945 31.4898871,23.5203062 30.7398029,22.5815331 Z M23.1086859,23.1001798 L18.3801404,27.8290084 C18.2994085,27.9095515 18.1960756,27.9500825 18.070283,27.9500825 C17.9445848,27.9500825 17.8412518,27.9095515 17.7604256,27.8290084 L13.0186214,23.0869211 C12.9377952,23.0061892 12.8974529,22.9028562 12.8974529,22.7770637 C12.8974529,22.6603304 12.9399185,22.5592623 13.0252272,22.4740008 C13.1107246,22.3886921 13.2115568,22.3460849 13.32829,22.3460849 L16.3458962,22.3460849 L16.3458962,17.6042335 C16.3458962,17.4875003 16.3885977,17.3864321 16.4738592,17.3009819 C16.5592151,17.2158148 16.6601889,17.1732076 16.7769221,17.1732076 L19.3636911,17.1732076 C19.480613,17.1732076 19.5811622,17.2156732 19.6669427,17.3009819 C19.7520626,17.3864321 19.7946698,17.4875003 19.7946698,17.6042335 L19.7946698,22.3460849 L22.8122759,22.3460849 C22.9380213,22.3460849 23.0413543,22.3864272 23.1219446,22.4671591 C23.202818,22.5478909 23.24283,22.6512239 23.24283,22.7770165 C23.24283,22.8852566 23.1982883,22.9926002 23.1086859,23.1001798 Z" id="Shape" fill="#948BEC" fill-rule="nonzero"></path>
                        <path d="M26.1912546,30.3072586 C26.277006,30.3120418 26.3633874,30.3144654 26.4503348,30.3144654 C28.9790348,30.3144654 31.0289511,28.264549 31.0289511,25.7358491 C31.0289511,23.5087239 29.4388279,21.6529919 27.3319648,21.2420364 L27.5398039,19.4952497 C27.5697784,19.3492762 27.5879635,19.1990034 27.5933204,19.0454692 L27.5949889,19.0314465 C27.5945819,19.0042917 27.5949889,18.9770362 27.5949889,18.9496855 C27.5949889,17.4595588 26.3870025,16.2515723 24.8968757,16.2515723 C23.9143298,16.2515723 23.05445,16.7767682 22.5826525,17.5617436 C21.7728807,14.8191054 19.235282,12.8176101 16.230209,12.8176101 C12.7099091,12.8176101 9.83112453,15.5642635 9.61997891,19.0314465 L9.4613821,19.0314465 C9.45957377,18.9790934 9.4586681,18.9344111 9.4586681,18.8974057 C9.4586681,16.9934365 10.1320783,15.3677115 11.4793233,14.0208911 C12.826474,12.6737405 14.4521046,12 16.3559322,12 C17.7571086,12 19.0391925,12.3906836 20.2020896,13.1721452 C21.3649867,13.9533708 22.2117509,14.9906169 22.7413914,16.2839306 C23.3788945,15.7270649 24.1242132,15.4486321 24.9774416,15.4486321 C25.9294734,15.4486321 26.7422179,15.7854787 27.4156753,16.4588889 C28.0889911,17.132535 28.4258377,17.9452324 28.4258377,18.8972641 C28.4258377,19.5797808 28.2421032,20.1994956 27.8735961,20.7562669 C29.0413531,21.0347469 29.9998491,21.6430432 30.7498861,22.5815331 C31.4999703,23.5203062 31.875036,24.5911945 31.8751776,25.7946226 C31.8751776,27.2228826 31.3699312,28.4419758 30.35958,29.4521383 C29.3490873,30.4623007 28.129994,30.9676887 26.7022531,30.9676887 L12.0452011,30.9676887 C11.0307248,30.9676887 10.1057902,30.747599 9.27044025,30.3072586 L26.1912546,30.3072586 Z" id="Combined-Shape" fill="#837ADD"></path>
                    </g>
                </g>
            </g>
        </g>
    </g>
</svg>