<?xml version="1.0" encoding="UTF-8"?>
<svg width="39px" height="39px" viewBox="0 0 39 39" version="1.1" xmlns="http://www.w3.org/2000/svg" xmlns:xlink="http://www.w3.org/1999/xlink">
    <!-- Generator: Sketch 51.3 (57544) - http://www.bohemiancoding.com/sketch -->
    <title>photoshoot-scheduling</title>
    <desc>Created with Sketch.</desc>
    <defs>
        <path d="M0,5.49019608 L0,19.0965938 C0,19.9533526 0.69709987,20.6504525 1.55385872,20.6504525 L18.3355329,20.6504525 C19.1922918,20.6504525 19.8893917,19.9533526 19.8893917,19.0965938 L19.8893917,5.49019608 L0,5.49019608 Z" id="path-1"></path>
    </defs>
    <g id="Timeline-content-request" stroke="none" stroke-width="1" fill="none" fill-rule="evenodd">
        <g id="01.4-contentrequest-timeline-tooltips" transform="translate(-1027.000000, -201.000000)">
            <g id="timeline" transform="translate(340.000000, 67.000000)">
                <g id="photoshoot-firststage" transform="translate(662.000000, 113.000000)">
                    <g id="photoshoot-scheduling" transform="translate(25.000000, 21.000000)">
                        <circle id="Oval-4" fill="#F3F6F8" cx="19.5" cy="19.5" r="19.5"></circle>
                        <g id="Group-3" transform="translate(8.000000, 8.000000)">
                            <g id="calendar">
                                <mask id="mask-2" fill="white">
                                    <use xlink:href="#path-1"></use>
                                </mask>
                                <use id="Combined-Shape" fill="#C6D2DF" fill-rule="nonzero" xlink:href="#path-1"></use>
                                <path d="M12.12904,6.95936508 C12.8322789,6.95936508 13.4041786,7.53126473 13.4041786,8.23450367 C13.4041786,8.9377426 12.8322789,9.50964225 12.12904,9.50964225 C11.425801,9.50964225 10.8539014,8.9377426 10.8539014,8.23450367 C10.8539014,7.53126473 11.425801,6.95936508 12.12904,6.95936508 Z M8.1983051,6.95936508 C8.90154403,6.95936508 9.47344369,7.53126473 9.47344369,8.23450367 C9.47344369,8.9377426 8.90154403,9.50964225 8.1983051,9.50964225 C7.49506617,9.50964225 6.92316651,8.9377426 6.92316651,8.23450367 C6.92316651,7.53126473 7.49506617,6.95936508 8.1983051,6.95936508 Z M16.0597749,6.95936508 C16.7630138,6.95936508 17.3349135,7.53126473 17.3349135,8.23450367 C17.3349135,8.9377426 16.7630138,9.50964225 16.0597749,9.50964225 C15.3565359,9.50964225 14.7846363,8.9377426 14.7846363,8.23450367 C14.7846363,7.53126473 15.3565359,6.95936508 16.0597749,6.95936508 Z M12.0428397,11.1729954 C12.7460786,11.1729954 13.3179782,11.7448951 13.3179782,12.448134 C13.3179782,13.151373 12.7460786,13.7232726 12.0428397,13.7232726 C11.3396007,13.7232726 10.7677011,13.151373 10.7677011,12.448134 C10.7677011,11.7448951 11.3396007,11.1729954 12.0428397,11.1729954 Z M8.11210477,11.1729954 C8.8153437,11.1729954 9.38724336,11.7448951 9.38724336,12.448134 C9.38724336,13.151373 8.8153437,13.7232726 8.11210477,13.7232726 C7.40886584,13.7232726 6.83696618,13.151373 6.83696618,12.448134 C6.83696618,11.7448951 7.40886584,11.1729954 8.11210477,11.1729954 Z M4.26757021,11.1729954 C4.97080915,11.1729954 5.5427088,11.7448951 5.5427088,12.448134 C5.5427088,13.151373 4.97080915,13.7232726 4.26757021,13.7232726 C3.56433128,13.7232726 2.99243163,13.151373 2.99243163,12.448134 C2.99243163,11.7448951 3.56433128,11.1729954 4.26757021,11.1729954 Z M4.26757021,15.3866258 C4.97080915,15.3866258 5.5427088,15.9584856 5.5427088,16.6617644 C5.5427088,17.3650033 4.97080915,17.936903 4.26757021,17.936903 C3.56433128,17.936903 2.99243163,17.3650033 2.99243163,16.6617644 C2.99243163,15.9585254 3.56433128,15.3866258 4.26757021,15.3866258 Z" id="Combined-Shape" fill="#FFFFFF" fill-rule="nonzero" mask="url(#mask-2)"></path>
                                <circle id="Oval" fill="#FFFFFF" fill-rule="nonzero" mask="url(#mask-2)" cx="15.9735745" cy="12.4784331" r="1.27513859"></circle>
                                <path d="M18.3355329,1.17647059 L1.55385872,1.17647059 C0.69709987,1.17647059 0,1.87357046 0,2.73032931 L0,5.52727501 L19.8893917,5.52727501 L19.8893917,2.73032931 C19.8893917,1.87357046 19.1922529,1.17647059 18.3355329,1.17647059 Z" id="Shape" fill="#948BEC" fill-rule="nonzero"></path>
                                <path d="M2.48617396,4.28418803 C1.97126402,4.28418803 1.55385872,3.86678273 1.55385872,3.3518728 C1.55385872,2.83696287 1.97126402,2.41955757 2.48617396,2.41955757 C3.00108389,2.41955757 3.41848919,2.83696287 3.41848919,3.3518728 C3.41848919,3.86678273 3.00108389,4.28418803 2.48617396,4.28418803 Z" id="Path" fill="#FFFFFF" fill-rule="nonzero"></path>
                                <path d="M17.4032177,4.28418803 C16.8883078,4.28418803 16.4709025,3.86678273 16.4709025,3.3518728 C16.4709025,2.83696287 16.8883078,2.41955757 17.4032177,2.41955757 C17.9181276,2.41955757 18.3355329,2.83696287 18.3355329,3.3518728 C18.3355329,3.86678273 17.9181276,4.28418803 17.4032177,4.28418803 Z" id="Path" fill="#FFFFFF" fill-rule="nonzero"></path>
                                <path d="M2.42694193,3.54009553 C2.16958408,3.54009553 1.96078431,3.33145115 1.96078431,3.07393791 L1.96078431,0.466157617 C1.96078431,0.20864438 2.16958408,0 2.42694193,0 C2.68429978,0 2.89309955,0.20864438 2.89309955,0.466157617 L2.89309955,3.07393791 C2.89309955,3.33145115 2.68429978,3.54009553 2.42694193,3.54009553 Z M17.3439857,3.54009553 C17.0866278,3.54009553 16.8778281,3.33145115 16.8778281,3.07393791 L16.8778281,0.466157617 C16.8778281,0.20864438 17.0866278,0 17.3439857,0 C17.6013435,0 17.8101433,0.20864438 17.8101433,0.466157617 L17.8101433,3.07393791 C17.8101433,3.33145115 17.6013435,3.54009553 17.3439857,3.54009553 Z" id="Combined-Shape" fill="#6E62DA" fill-rule="nonzero"></path>
                                <circle id="Oval" fill="#F5904E" fill-rule="nonzero" cx="4.18136989" cy="8.23450367" r="1.27513859"></circle>
                                <path d="M8.06304744,17.9959779 C8.74958542,17.9959779 9.30613442,17.4394289 9.30613442,16.7528909 C9.30613442,16.0663529 8.74958542,15.5098039 8.06304744,15.5098039 C7.37650946,15.5098039 6.81996046,16.0663529 6.81996046,16.7528909 C6.81996046,17.4394289 7.37650946,17.9959779 8.06304744,17.9959779 Z" id="Oval" fill="#FFFFFF" fill-rule="nonzero"></path>
                            </g>
                        </g>
                        <g id="photo-camera" transform="translate(20.000000, 22.000000)" fill-rule="nonzero">
                            <path d="M1.60042682,1.46111318 L1.60042682,0.829550107 C1.60042682,0.774321632 1.64519835,0.729550107 1.70042682,0.729550107 L2.93759385,0.729550107 C2.99282232,0.729550107 3.03759385,0.774321632 3.03759385,0.829550107 L3.03759385,1.46111318 L1.60042682,1.46111318 Z" id="Shape" fill="#504972"></path>
                            <path d="M2.75917414,8.16639279 C2.75917414,8.76552228 2.28658596,9.22800642 1.68745648,9.22800642 L0,9.22800642 L0,1.46028268 L1.67427827,1.46028268 C2.27340776,1.46028268 2.75917414,1.9701965 2.75917414,2.56943195 L2.75917414,8.16639279 Z" id="Shape" fill="#837ADD" transform="translate(1.379587, 5.344145) scale(-1, 1) translate(-1.379587, -5.344145) "></path>
                            <path d="M12,1.46111318 L12,9.22786576 L3.73497932,9.22786576 C3.13584981,9.22786576 2.65008345,8.74209938 2.65008345,8.14296989 L2.65008345,2.54600905 C2.65008345,1.9467736 3.13584981,1.46111318 3.73497932,1.46111318 L5.32132168,1.46111318 L5.69372491,0.642037985 C5.86980861,0.254802197 6.25587895,0.00614490445 6.68125561,0.00625087165 L9.20098984,0.00625087165 C9.62626056,0.00614490445 10.0124369,0.254802197 10.1885205,0.642037985 L10.5609238,1.46111318 L12,1.46111318 Z M10.7073423,5.08894563 C10.7073423,3.45619855 9.38364223,2.13260438 7.75089513,2.13260438 C6.11814806,2.13271032 4.79455389,3.45641043 4.79465983,5.08915753 C4.79476579,6.72190464 6.11846588,8.04549878 7.75121298,8.04528687 C9.38385414,8.04518093 10.7073423,6.72158679 10.7073423,5.08894563 Z" id="Shape" fill="#948BEC" transform="translate(7.325042, 4.617058) scale(-1, 1) translate(-7.325042, -4.617058) "></path>
                            <path d="M6.83308829,2.13260438 C8.46583539,2.13260438 9.78942953,3.45619855 9.78942953,5.08894563 C9.78942953,6.72169273 8.46583539,8.04528687 6.83308829,8.04528687 C5.20044713,8.04528687 3.87674704,6.72169273 3.87674704,5.08894563 C3.87674704,3.45619855 5.20044713,2.13260438 6.83308829,2.13260438 Z M8.90742191,5.08894563 C8.90752785,3.94323627 7.97879764,3.01440012 6.83308829,3.01440012 C5.68727296,3.01440012 4.75854278,3.94313031 4.75854278,5.08883969 C4.75854278,6.23465501 5.68737893,7.16338519 6.83308829,7.16327925 C7.9786917,7.16317331 8.90742191,6.23454907 8.90742191,5.08894563 Z" id="Shape" fill="#FFFFFF"></path>
                            <path d="M6.83308829,3.01461203 C7.9786917,3.01482391 8.90731597,3.94355412 8.90721,5.08915753 C8.90710406,6.23476095 7.97837388,7.16338519 6.83277044,7.16327925 C5.68716702,7.16327925 4.75854278,6.23454907 4.75854278,5.08894563 C4.75864872,3.94323627 5.68748487,3.01461203 6.83308829,3.01461203 Z" id="Shape" fill="#6BEBB6"></path>
                            <path d="M1.72686251,3.31518327 L1.02168019,3.31518327 C0.871871318,3.31518327 0.750456227,3.19376816 0.750456227,3.04395931 C0.750456227,2.89415043 0.871871318,2.77273534 1.02168019,2.77273534 L1.72686251,2.77273534 C1.87667136,2.77273534 1.99808648,2.89415043 1.99808648,3.04395931 C1.99808648,3.19376816 1.87667136,3.31518327 1.72686251,3.31518327 Z" id="Shape" fill="#FFFFFF"></path>
                        </g>
                    </g>
                </g>
            </g>
        </g>
    </g>
</svg>