<?xml version="1.0" encoding="UTF-8"?>
<svg width="88px" height="64px" viewBox="0 0 88 64" version="1.1" xmlns="http://www.w3.org/2000/svg" xmlns:xlink="http://www.w3.org/1999/xlink">
    <!-- Generator: Sketch 53.2 (72643) - https://sketchapp.com -->
    <title>Group 3</title>
    <desc>Created with Sketch.</desc>
    <defs>
        <path d="M5.04420922,0.567357934 L39.6692092,0.567357934 C42.430633,0.567357934 44.6692092,2.80593419 44.6692092,5.56735793 L44.6692092,24.4423579 C44.6692092,27.2037817 42.430633,29.4423579 39.6692092,29.4423579 L5.04420922,29.4423579 C2.28278547,29.4423579 0.0442092202,27.2037817 0.0442092202,24.4423579 L0.0442092202,5.56735793 C0.0442092202,2.80593419 2.28278547,0.567357934 5.04420922,0.567357934 Z" id="path-1"></path>
        <path d="M5,-2.09610107e-13 L40,-2.10498285e-13 C42.7614237,-2.11005551e-13 45,2.23857625 45,5 L45,24 C45,26.7614237 42.7614237,29 40,29 L5,29 C2.23857625,29 -5.68096012e-13,26.7614237 -5.68434189e-13,24 L-5.68434189e-13,5 C-5.68772365e-13,2.23857625 2.23857625,-2.0999102e-13 5,-2.10498285e-13 Z" id="path-3"></path>
        <linearGradient x1="50%" y1="0%" x2="50%" y2="100%" id="linearGradient-5">
            <stop stop-color="#FBF7FD" offset="0%"></stop>
            <stop stop-color="#F5ECFB" offset="100%"></stop>
        </linearGradient>
    </defs>
    <g id="Production-Kanban-board-" stroke="none" stroke-width="1" fill="none" fill-rule="evenodd">
        <g id="Group-3" transform="translate(-2.000000, 0.000000)">
            <g id="Rectangle" transform="translate(26.806444, 27.826634) rotate(-24.000000) translate(-26.806444, -27.826634) translate(4.306444, 12.826634)">
                <mask id="mask-2" fill="white">
                    <use xlink:href="#path-1"></use>
                </mask>
                <use fill="#FFD6D6" fill-rule="nonzero" xlink:href="#path-1"></use>
                <path d="M11.2093958,12.0916561 L12.098745,13.7799188 C12.447494,14.4419534 13.266896,14.6959216 13.9289306,14.3471726 C14.1210274,14.2459791 14.2859912,14.1001012 14.4099258,13.9218275 L14.5457378,13.7264686 C14.8936447,13.2260217 15.5813713,13.1023636 16.0818182,13.4502705 C16.2516326,13.5683242 16.3848566,13.7317203 16.4662992,13.9218275 L16.4662992,13.9218275 C16.6674529,14.3913699 17.2111596,14.608942 17.680702,14.4077883 C17.8814328,14.3217945 18.0452627,14.16755 18.1431878,13.9723618 L18.5129565,13.235324 C18.826846,12.6096671 19.5884989,12.3569296 20.2141559,12.6708191 C20.4773277,12.8028513 20.6863205,13.0223905 20.8052471,13.2917385 L20.8052471,13.2917385 C21.0987098,13.9563803 21.8754069,14.2572805 22.5400488,13.9638178 C22.8076197,13.8456758 23.0281876,13.6417315 23.1668913,13.3842184 L23.4936547,12.7775599 C23.7972763,12.2138654 24.5003749,12.0030348 25.0640694,12.3066564 C25.2713942,12.4183274 25.4397952,12.5904884 25.5468616,12.8002282 L25.5468616,12.8002282 C25.8623581,13.4182761 26.6191453,13.6635425 27.2371932,13.348046 C27.4387378,13.2451631 27.6087569,13.08976 27.7292936,12.89825 L27.7909887,12.8002282 C28.1808085,12.1808783 28.9989023,11.9948073 29.6182522,12.3846272 C29.8195328,12.5113135 29.9830068,12.689838 30.0915218,12.9014693 L31.5531458,15.7519988" id="Path-4" stroke="#FFFFFF" stroke-width="2" stroke-linecap="round"></path>
                <path d="M7.875,24.228928 L8.76434922,25.9171907 C9.11309823,26.5792252 9.93250023,26.8331934 10.5945348,26.4844444 C10.7866316,26.3832509 10.9515955,26.237373 11.07553,26.0590993 L11.2113421,25.8637404 C11.5592489,25.3632935 12.2469755,25.2396354 12.7474224,25.5875423 C12.9172368,25.705596 13.0504608,25.8689921 13.1319034,26.0590993 L13.1319034,26.0590993 C13.3330571,26.5286417 13.8767638,26.7462138 14.3463063,26.5450601 C14.547037,26.4590663 14.7108669,26.3048218 14.808792,26.1096336 L15.1785607,25.3725959 C15.4924502,24.7469389 16.2541031,24.4942014 16.8797601,24.8080909 C17.1429319,24.9401231 17.3519247,25.1596623 17.4708513,25.4290103 L17.4708513,25.4290103 C17.764314,26.0936521 18.5410111,26.3945523 19.205653,26.1010896 C19.4732239,25.9829476 19.6937918,25.7790033 19.8324956,25.5214902 L20.1592589,24.9148317 C20.4628805,24.3511372 21.1659791,24.1403066 21.7296736,24.4439282 C21.9369985,24.5555992 22.1053994,24.7277602 22.2124658,24.9375 L22.2124658,24.9375 C22.5279623,25.5555479 23.2847495,25.8008143 23.9027974,25.4853179 C24.1043421,25.3824349 24.2743611,25.2270318 24.3948978,25.0355219 L24.4565929,24.9375 C24.9095175,24.2178885 25.8600459,24.001696 26.5796574,24.4546206 C26.7193935,24.5425708 26.8440723,24.6524262 26.9489158,24.7799772 C27.9414595,25.9875174 28.958282,26.6962713 29.9993699,26.90625 C31.4832104,27.2055282 33.0315922,26.6586532 34.6445155,25.265625" id="Path-4" stroke="#FFFFFF" stroke-width="2" stroke-linecap="round"></path>
            </g>
            <g id="Rectangle" transform="translate(10.000000, 21.000000)">
                <mask id="mask-4" fill="white">
                    <use xlink:href="#path-3"></use>
                </mask>
                <use fill="#C8BDF7" fill-rule="nonzero" xlink:href="#path-3"></use>
                <path d="M17.0602674,10.5321848 C17.6264886,9.40813029 18.9967278,8.95591703 20.1207824,9.52213824 C20.591414,9.75921002 20.9653418,10.1520571 21.1789146,10.6338079 C21.2522076,10.7991331 21.4456459,10.87374 21.6109711,10.800447 C21.6772005,10.7710857 21.731823,10.7205898 21.7662857,10.656866 L22.096195,10.0468414 C22.6663105,8.99265944 23.9830638,8.60024603 25.0372458,9.17036155 C25.4228003,9.37887452 25.7361716,9.69925888 25.9361016,10.0893332 C26.0036259,10.2210767 26.1651643,10.2731366 26.2969078,10.2056124 C26.3395884,10.1837367 26.3756181,10.1508105 26.4012394,10.1102676 L26.4638239,10.0112344 C27.1535497,8.91981825 28.5974506,8.59418389 29.6888667,9.28390968 C30.0412341,9.50658999 30.3276532,9.81943569 30.5184518,10.1900368 L31.9920301,13.0522689 C32.2448299,13.5432992 32.0517059,14.1462926 31.5606756,14.3990923 C31.0696454,14.6518921 30.466652,14.4587681 30.2138522,13.9677379 L28.7402738,11.1055057 C28.7127098,11.0519662 28.6713317,11.0067704 28.6204263,10.9746004 C28.4627529,10.874958 28.2541572,10.9220013 28.1545147,11.0796747 L28.0919302,11.1787079 C27.875141,11.5217532 27.5702834,11.8003513 27.2091505,11.9854476 C26.0944312,12.5567896 24.7276085,12.1162952 24.1562665,11.0015759 C24.1406018,10.9710133 24.116049,10.945911 24.0858405,10.9295739 C24.0032447,10.884905 23.9000762,10.9156508 23.8554073,10.9982467 L23.525498,11.6082712 C23.2805412,12.0612129 22.892291,12.420132 22.4215405,12.628828 C21.2464283,13.1497861 19.8714916,12.6194895 19.3505335,11.4443773 C19.3243941,11.3854153 19.2786287,11.3373344 19.2210276,11.3083189 C19.0834535,11.2390185 18.9157485,11.2943654 18.8464481,11.4319395 L18.4732166,12.1728735 C18.2687942,12.5786902 17.9279589,12.8995332 17.5105408,13.0790821 C16.5297152,13.500976 15.3925863,13.0478724 14.9706924,12.0670468 C14.9623409,12.0476311 14.9487328,12.0309337 14.9314016,12.0188363 C14.8800124,11.982966 14.8092746,11.9955465 14.7734043,12.0469357 L14.6356573,12.2442774 C14.4200913,12.5531056 14.1339726,12.806063 13.8010516,12.9821518 C12.6449783,13.593623 11.2121003,13.1521356 10.6006291,11.9960623 L9.70426795,10.3013637 C9.44604796,9.81316205 9.63248496,9.20806773 10.1206866,8.94984775 C10.6088883,8.69162776 11.2139826,8.87806476 11.4722026,9.36626644 L12.3685638,11.060965 C12.463595,11.240635 12.6862843,11.3092483 12.8659543,11.2142171 C12.9176949,11.1868505 12.9621618,11.1475373 12.9956638,11.0995411 L13.1334107,10.9021994 C13.8015015,9.9450668 15.1190053,9.71075204 16.0761379,10.3788428 C16.3607707,10.5775201 16.5914876,10.8428116 16.748707,11.1506903 L17.0602674,10.5321848 Z M17.0602674,18.4412757 C17.6264886,17.3172212 18.9967278,16.8650079 20.1207824,17.4312291 C20.591414,17.6683009 20.9653418,18.061148 21.1789146,18.5428988 C21.2522076,18.708224 21.4456459,18.7828309 21.6109711,18.7095379 C21.6772005,18.6801767 21.731823,18.6296807 21.7662857,18.5659569 L22.096195,17.9559323 C22.6663105,16.9017503 23.9830638,16.5093369 25.0372458,17.0794525 C25.4228003,17.2879654 25.7361716,17.6083498 25.9361016,17.9984241 C26.0036259,18.1301676 26.1651643,18.1822276 26.2969078,18.1147033 C26.3395884,18.0928276 26.3756181,18.0599014 26.4012394,18.0193585 L26.4638239,17.9203253 C27.2174348,16.7278179 28.7950754,16.372022 29.9875828,17.1256329 C30.2164448,17.2702634 30.4208578,17.4503593 30.5931761,17.6591871 C31.4595856,18.709192 32.2977873,19.2911679 33.0954668,19.4514032 C34.2554981,19.6844265 35.5194258,19.2398219 36.9305882,18.0259721 C37.3492857,17.6658181 37.9806695,17.713277 38.3408235,18.1319744 C38.7009775,18.5506719 38.6535187,19.1820557 38.2348212,19.5422097 C36.3930291,21.1264772 34.5341698,21.7803575 32.7015817,21.4122332 C31.3991717,21.1506094 30.1862534,20.3084623 29.0505497,18.9320986 C29.0131597,18.8867867 28.9688037,18.8477073 28.9191425,18.8163237 C28.6603778,18.6527961 28.3180423,18.730001 28.1545147,18.9887656 L28.0919302,19.0877988 C27.875141,19.4308441 27.5702834,19.7094422 27.2091505,19.8945385 C26.0944312,20.4658805 24.7276085,20.0253861 24.1562665,18.9106668 C24.1406018,18.8801042 24.116049,18.8550019 24.0858405,18.8386648 C24.0032447,18.7939959 23.9000762,18.8247417 23.8554073,18.9073376 L23.525498,19.5173621 C23.2805412,19.9703038 22.892291,20.3292229 22.4215405,20.5379189 C21.2464283,21.0588771 19.8714916,20.5285804 19.3505335,19.3534682 C19.3243941,19.2945062 19.2786287,19.2464253 19.2210276,19.2174098 C19.0834535,19.1481094 18.9157485,19.2034563 18.8464481,19.3410305 L18.4732166,20.0819644 C18.2687942,20.4877811 17.9279589,20.8086241 17.5105408,20.988173 C16.5297152,21.4100669 15.3925863,20.9569633 14.9706924,19.9761377 C14.9623409,19.956722 14.9487328,19.9400246 14.9314016,19.9279272 C14.8800124,19.8920569 14.8092746,19.9046374 14.7734043,19.9560266 L14.6356573,20.1533683 C14.4200913,20.4621966 14.1339726,20.7151539 13.8010516,20.8912427 C12.6449783,21.5027139 11.2121003,21.0612266 10.6006291,19.9051532 L9.70426795,18.2104546 C9.44604796,17.722253 9.63248496,17.1171586 10.1206866,16.8589387 C10.6088883,16.6007187 11.2139826,16.7871557 11.4722026,17.2753574 L12.3685638,18.9700559 C12.463595,19.1497259 12.6862843,19.2183392 12.8659543,19.123308 C12.9176949,19.0959414 12.9621618,19.0566282 12.9956638,19.008632 L13.1334107,18.8112903 C13.8015015,17.8541577 15.1190053,17.619843 16.0761379,18.2879337 C16.3607707,18.486611 16.5914876,18.7519025 16.748707,19.0597812 L17.0602674,18.4412757 Z" id="Combined-Shape" fill="#FFFFFF" fill-rule="nonzero" mask="url(#mask-4)"></path>
            </g>
            <g id="Group-2" transform="translate(24.551826, 0.000000)" fill-rule="nonzero">
                <polygon id="Rectangle" fill="#FFD6D6" transform="translate(45.029481, 44.011551) rotate(135.000000) translate(-45.029481, -44.011551) " points="41.8246654 40.2304815 48.3287146 40.2566022 48.2342973 47.7926195 41.7302481 47.7664988"></polygon>
                <path d="M25.94,50.876 C11.8934084,50.876 0.5,39.6025223 0.5,25.688 C0.5,11.7734777 11.8934084,0.5 25.94,0.5 C39.9865916,0.5 51.38,11.7734777 51.38,25.688 C51.38,39.6025223 39.9865916,50.876 25.94,50.876 Z M25.94,47.876 C38.3368022,47.876 48.38,37.9385201 48.38,25.688 C48.38,13.4374799 38.3368022,3.5 25.94,3.5 C13.5431978,3.5 3.5,13.4374799 3.5,25.688 C3.5,37.9385201 13.5431978,47.876 25.94,47.876 Z" id="Oval" fill="#564984"></path>
                <circle id="Oval" fill="url(#linearGradient-5)" opacity="0.654296875" cx="25.778" cy="25.5954286" r="21.5357143"></circle>
                <ellipse id="Oval" fill="#FFFFFF" transform="translate(13.199574, 13.638599) rotate(-45.000000) translate(-13.199574, -13.638599) " cx="13.1995743" cy="13.6385987" rx="4.94196429" ry="1.92857143"></ellipse>
                <path d="M64.5057965,57.8977143 L59.0431433,63.2462857 C58.3708167,63.9045714 57.2782861,63.9045714 56.6059595,63.2462857 L44.8402449,51.8085714 C44.1679184,51.1502857 44.1679184,50.0805714 44.8402449,49.4222857 L50.3028981,44.0737143 C50.9752247,43.4154286 52.0677553,43.4154286 52.7400819,44.0737143 L64.4217556,55.5114286 C65.178123,56.1697143 65.178123,57.2394286 64.5057965,57.8977143 Z" id="Path" fill="#564984"></path>
            </g>
        </g>
    </g>
</svg>