<?xml version="1.0" encoding="UTF-8"?>
<svg width="16px" height="18px" viewBox="0 0 16 18" version="1.1" xmlns="http://www.w3.org/2000/svg" xmlns:xlink="http://www.w3.org/1999/xlink">
    <!-- Generator: Sketch 56.3 (81716) - https://sketch.com -->
    <title>calendar</title>
    <desc>Created with Sketch.</desc>
    <g id="Talent/Widget/Shotdetail" stroke="none" stroke-width="1" fill="none" fill-rule="evenodd">
        <g id="02.4D-New-AdminPanel-edit" transform="translate(-1642.000000, -2162.000000)" fill="#B9BDCC" fill-rule="nonzero">
            <g id="right-shot-detail-drawer" transform="translate(1389.000000, 127.000000)">
                <g id="action-dropdown" transform="translate(91.000000, 125.000000)">
                    <g id="schedule" transform="translate(1.000000, 1841.000000)">
                        <g id="calendar" transform="translate(161.000000, 69.000000)">
                            <path d="M14.25,6.47222222 L14.25,4.55555556 C14.25,3.86519962 13.6903559,3.30555556 13,3.30555556 L11.8611111,3.30555556 L11.8611111,4.11111111 C11.8611111,4.52532467 11.5253247,4.86111111 11.1111111,4.86111111 C10.6968975,4.86111111 10.3611111,4.52532467 10.3611111,4.11111111 L10.3611111,3.30555556 L5.63888889,3.30555556 L5.63888889,4.11111111 C5.63888889,4.52532467 5.30310245,4.86111111 4.88888889,4.86111111 C4.47467533,4.86111111 4.13888889,4.52532467 4.13888889,4.11111111 L4.13888889,3.30555556 L3,3.30555556 C2.30964406,3.30555556 1.75,3.86519962 1.75,4.55555556 L1.75,6.47222222 L14.25,6.47222222 Z M14.25,7.97222222 L1.75,7.97222222 L1.75,14.5555556 C1.75,15.2459115 2.30964406,15.8055556 3,15.8055556 L13,15.8055556 C13.6903559,15.8055556 14.25,15.2459115 14.25,14.5555556 L14.25,7.97222222 Z M5.63888889,1.80555556 L10.3611111,1.80555556 L10.3611111,1 C10.3611111,0.585786438 10.6968975,0.25 11.1111111,0.25 C11.5253247,0.25 11.8611111,0.585786438 11.8611111,1 L11.8611111,1.80555556 L13,1.80555556 C14.5187831,1.80555556 15.75,3.03677249 15.75,4.55555556 L15.75,14.5555556 C15.75,16.0743386 14.5187831,17.3055556 13,17.3055556 L3,17.3055556 C1.48121694,17.3055556 0.25,16.0743386 0.25,14.5555556 L0.25,4.55555556 C0.25,3.03677249 1.48121694,1.80555556 3,1.80555556 L4.13888889,1.80555556 L4.13888889,1 C4.13888889,0.585786438 4.47467533,0.25 4.88888889,0.25 C5.30310245,0.25 5.63888889,0.585786438 5.63888889,1 L5.63888889,1.80555556 Z" id="Combined-Shape"></path>
                        </g>
                    </g>
                </g>
            </g>
        </g>
    </g>
</svg>