<?xml version="1.0" encoding="UTF-8"?>
<svg width="40px" height="40px" viewBox="0 0 40 40" version="1.1" xmlns="http://www.w3.org/2000/svg" xmlns:xlink="http://www.w3.org/1999/xlink">
    <!-- Generator: Sketch 55.2 (78181) - https://sketchapp.com -->
    <title>active-comment-icon copy</title>
    <desc>Created with Sketch.</desc>
    <g id="Symbols" stroke="none" stroke-width="1" fill="none" fill-rule="evenodd">
        <g id="active-comment-icon-copy">
            <circle id="Oval" fill="#8169EA" cx="20" cy="20" r="20"></circle>
            <path d="M15.8662157,26.1944444 L12.5303301,29.5303301 C12.0578564,30.0028037 11.25,29.6681786 11.25,29 L11.25,14.7777778 C11.25,13.3817247 12.3817247,12.25 13.7777778,12.25 L26.2222222,12.25 C27.6182753,12.25 28.75,13.3817247 28.75,14.7777778 L28.75,23.6666667 C28.75,25.0627198 27.6182753,26.1944444 26.2222222,26.1944444 L15.8662157,26.1944444 Z M12.75,27.1893398 L15.0252255,24.9141144 C15.1658778,24.7734621 15.3566432,24.6944444 15.5555556,24.6944444 L26.2222222,24.6944444 C26.7898482,24.6944444 27.25,24.2342927 27.25,23.6666667 L27.25,14.7777778 C27.25,14.2101518 26.7898482,13.75 26.2222222,13.75 L13.7777778,13.75 C13.2101518,13.75 12.75,14.2101518 12.75,14.7777778 L12.75,27.1893398 Z M16.6280955,18.1387628 C16.213882,18.1387628 15.8780955,17.8029763 15.8780955,17.3887628 C15.8780955,16.9745492 16.213882,16.6387628 16.6280955,16.6387628 L23.2947622,16.6387628 C23.7089757,16.6387628 24.0447622,16.9745492 24.0447622,17.3887628 C24.0447622,17.8029763 23.7089757,18.1387628 23.2947622,18.1387628 L16.6280955,18.1387628 Z M16.6666667,21.3584816 C16.2524531,21.3584816 15.9166667,21.0226952 15.9166667,20.6084816 C15.9166667,20.1942681 16.2524531,19.8584816 16.6666667,19.8584816 L20,19.8584816 C20.4142136,19.8584816 20.75,20.1942681 20.75,20.6084816 C20.75,21.0226952 20.4142136,21.3584816 20,21.3584816 L16.6666667,21.3584816 Z" id="Combined-Shape" fill="#FFFFFF" fill-rule="nonzero"></path>
        </g>
    </g>
</svg>