<?xml version="1.0" encoding="UTF-8"?>
<svg width="16px" height="16px" viewBox="0 0 16 16" version="1.1" xmlns="http://www.w3.org/2000/svg" xmlns:xlink="http://www.w3.org/1999/xlink">
    <!-- Generator: Sketch 55.2 (78181) - https://sketchapp.com -->
    <title>Combined Shape</title>
    <desc>Created with Sketch.</desc>
    <g id="Talent/Widget/Shotdetail" stroke="none" stroke-width="1" fill="none" fill-rule="evenodd">
        <g id="01.2-brand" transform="translate(-1230.000000, -929.000000)" fill="#63636F" fill-rule="nonzero">
            <g id="shere-link" transform="translate(976.000000, 921.000000)">
                <path d="M260.9,13.15 L268,13.15 C268.966498,13.15 269.75,13.9335017 269.75,14.9 L269.75,22 C269.75,22.9664983 268.966498,23.75 268,23.75 L260.9,23.75 C259.933502,23.75 259.15,22.9664983 259.15,22 L259.15,14.9 C259.15,13.9335017 259.933502,13.15 260.9,13.15 Z M260.9,14.65 C260.761929,14.65 260.65,14.7619288 260.65,14.9 L260.65,22 C260.65,22.1380712 260.761929,22.25 260.9,22.25 L268,22.25 C268.138071,22.25 268.25,22.1380712 268.25,22 L268.25,14.9 C268.25,14.7619288 268.138071,14.65 268,14.65 L260.9,14.65 Z M257.1,17.35 C257.514214,17.35 257.85,17.6857864 257.85,18.1 C257.85,18.5142136 257.514214,18.85 257.1,18.85 L256.4,18.85 C255.212588,18.85 254.25,17.8874122 254.25,16.7 L254.25,10.4 C254.25,9.21258779 255.212588,8.25 256.4,8.25 L262.7,8.25 C263.887412,8.25 264.85,9.21258779 264.85,10.4 L264.85,11.1 C264.85,11.5142136 264.514214,11.85 264.1,11.85 C263.685786,11.85 263.35,11.5142136 263.35,11.1 L263.35,10.4 C263.35,10.0410149 263.058985,9.75 262.7,9.75 L256.4,9.75 C256.041015,9.75 255.75,10.0410149 255.75,10.4 L255.75,16.7 C255.75,17.0589851 256.041015,17.35 256.4,17.35 L257.1,17.35 Z" id="Combined-Shape"></path>
            </g>
        </g>
    </g>
</svg>