<?xml version="1.0" encoding="UTF-8"?>
<svg width="15px" height="14px" viewBox="0 0 15 14" version="1.1" xmlns="http://www.w3.org/2000/svg" xmlns:xlink="http://www.w3.org/1999/xlink">
    <!-- Generator: Sketch 55.2 (78181) - https://sketchapp.com -->
    <title>excel</title>
    <desc>Created with Sketch.</desc>
    <g id="Talent/Widget/Shotdetail" stroke="none" stroke-width="1" fill="none" fill-rule="evenodd">
        <g id="01.3-brand" transform="translate(-1005.000000, -777.000000)" fill-rule="nonzero">
            <g id="attach-files" transform="translate(976.000000, 777.000000)">
                <g id="excel" transform="translate(29.000000, 0.000000)">
                    <g id="Group" fill="#4CAF50">
                        <path d="M8.38452033,0.0857642276 C8.3125,0.0272601626 8.21768699,0.00489430894 8.12714228,0.0250691057 L0.235552846,1.84620732 C0.0966626016,1.87813415 -0.00133739837,2.00236992 -1.35221192e-05,2.14487398 L-1.35221192e-05,12.4646667 C-1.35221192e-05,12.6144268 0.109353659,12.7417927 0.257378049,12.7645569 L8.14896748,13.9786585 C8.3146626,14.004126 8.46963008,13.8904756 8.49509756,13.7248089 C8.49743089,13.7095854 8.49862745,13.6941911 8.49862745,13.6787967 L8.49862745,0.323735772 C8.49891057,0.231170732 8.45688211,0.143556911 8.38452033,0.0857642276 Z" id="Path"></path>
                        <path d="M14.2656016,12.7681707 L8.19512195,12.7681707 C8.02749187,12.7681707 7.89158943,12.6322683 7.89158943,12.4646382 C7.89158943,12.2970081 8.02749187,12.1611057 8.19512195,12.1611057 L13.9620691,12.1611057 L13.9620691,1.84134146 L8.19512195,1.84134146 C8.02749187,1.84134146 7.89158943,1.70543902 7.89158943,1.53780894 C7.89158943,1.37017886 8.02749187,1.23430488 8.19512195,1.23430488 L14.2655732,1.23430488 C14.4332033,1.23430488 14.5691057,1.37020732 14.5691057,1.5378374 L14.5691057,12.4646667 C14.5691057,12.6322967 14.4332317,12.7681707 14.2656016,12.7681707 Z" id="Path"></path>
                    </g>
                    <g id="Group" transform="translate(2.418699, 4.239837)" fill="#FAFAFA">
                        <path d="M3.34824797,5.49312195 C3.24358943,5.49312195 3.14632927,5.43919919 3.09086992,5.35047561 L0.0556300813,0.494097561 C-0.0376747967,0.354837398 -0.000398373984,0.166292683 0.138861789,0.0729878049 C0.278121951,-0.0203170732 0.466666667,0.0169593496 0.559971545,0.156219512 C0.563642276,0.161682927 0.567113821,0.167260163 0.570414634,0.17295122 L3.60565447,5.02932927 C3.69415041,5.17169106 3.6505,5.35884146 3.50813821,5.44736585 C3.46013415,5.47718699 3.40476016,5.49303659 3.34824797,5.49312195 Z" id="Path"></path>
                        <path d="M0.31300813,5.49312205 C0.145378049,5.49278049 0.0097601626,5.35662195 0.0101009826,5.18899187 C0.0102154472,5.13230894 0.0262073171,5.07679268 0.0562276423,5.02873171 L3.09146748,0.172353659 C3.17552439,0.0273170732 3.36125203,-0.0221097561 3.50626016,0.0619471545 C3.65129675,0.146004065 3.70072358,0.331731707 3.61666667,0.476739837 C3.61336585,0.482430894 3.60989431,0.48800813 3.60622358,0.493471545 L0.571012195,5.34984959 C0.515581301,5.439 0.41800813,5.49320732 0.31300813,5.49312205 Z" id="Path"></path>
                    </g>
                    <g id="Group" transform="translate(7.882114, 1.223577)" fill="#4CAF50">
                        <path d="M2.74121138,11.5445935 C2.5735813,11.5445935 2.43767886,11.4086911 2.43767886,11.241061 L2.43767886,0.314231707 C2.43767886,0.146601626 2.5735813,0.010699187 2.74121138,0.010699187 C2.90884146,0.010699187 3.0447439,0.146601626 3.0447439,0.314231707 L3.0447439,11.241061 C3.04471545,11.4087195 2.90884146,11.5445935 2.74121138,11.5445935 Z" id="Path"></path>
                        <path d="M6.3834878,9.72345528 L0.31300813,9.72345528 C0.145378049,9.72345528 0.00947560976,9.58755285 0.00947560976,9.41992276 C0.00947560976,9.25229268 0.145378049,9.11639024 0.31300813,9.11639024 L6.38345935,9.11639024 C6.55108943,9.11639024 6.68699187,9.25229268 6.68699187,9.41992276 C6.68699187,9.5875813 6.55111789,9.72345528 6.3834878,9.72345528 Z" id="Path"></path>
                        <path d="M6.3834878,7.90231707 L0.31300813,7.90231707 C0.145378049,7.90231707 0.00947560976,7.76641463 0.00947560976,7.59878455 C0.00947560976,7.43115447 0.145378049,7.29525203 0.31300813,7.29525203 L6.38345935,7.29525203 C6.55108943,7.29525203 6.68699187,7.43115447 6.68699187,7.59878455 C6.68699187,7.76644309 6.55111789,7.90231707 6.3834878,7.90231707 Z" id="Path"></path>
                        <path d="M6.3834878,6.08117886 L0.31300813,6.08117886 C0.145378049,6.08117886 0.00947560976,5.94527642 0.00947560976,5.77764634 C0.00947560976,5.61001626 0.145378049,5.47411382 0.31300813,5.47411382 L6.38345935,5.47411382 C6.55108943,5.47411382 6.68699187,5.61001626 6.68699187,5.77764634 C6.68699187,5.94530488 6.55111789,6.08117886 6.3834878,6.08117886 Z" id="Path"></path>
                        <path d="M6.3834878,4.26004065 L0.31300813,4.26004065 C0.145378049,4.26004065 0.00947560976,4.12413821 0.00947560976,3.95650813 C0.00947560976,3.78887805 0.145378049,3.65297561 0.31300813,3.65297561 L6.38345935,3.65297561 C6.55108943,3.65297561 6.68699187,3.78887805 6.68699187,3.95650813 C6.68699187,4.12413821 6.55111789,4.26004065 6.3834878,4.26004065 Z" id="Path"></path>
                        <path d="M6.3834878,2.43890244 L0.31300813,2.43890244 C0.145378049,2.43890244 0.00947560976,2.303 0.00947560976,2.13536992 C0.00947560976,1.96773984 0.145378049,1.8318374 0.31300813,1.8318374 L6.38345935,1.8318374 C6.55108943,1.8318374 6.68699187,1.96773984 6.68699187,2.13536992 C6.68699187,2.30302846 6.55111789,2.43890244 6.3834878,2.43890244 Z" id="Path"></path>
                    </g>
                </g>
            </g>
        </g>
    </g>
</svg>