<svg xmlns="http://www.w3.org/2000/svg" xmlns:xlink="http://www.w3.org/1999/xlink" version="1.1" x="0px" y="0px" viewBox="0 0 100 100" enable-background="new 0 0 100 100" xml:space="preserve"><g display="none"><rect x="-60.877" y="-397.172" display="inline" fill="#000000" width="1370.931" height="877.172"/></g><g><g><path d="M70.647,81.299l1.313,2.72c9.31-6.045,15.979-15.818,17.873-27.192h-3.047C84.948,67.015,78.967,75.778,70.647,81.299z"/><path d="M13.348,56.826H10.3c1.925,11.558,8.78,21.464,18.327,27.483l1.364-2.688C21.411,76.124,15.223,67.219,13.348,56.826z"/><path d="M50.067,12.86c6.981,0,13.517,1.931,19.111,5.28l2.933-1.696C65.77,12.287,58.198,9.86,50.067,9.86    c-7.973,0-15.407,2.336-21.671,6.345l2.954,1.708C36.857,14.707,43.249,12.86,50.067,12.86z"/><path d="M37.942,49.186c0.376-0.272,0.62-0.716,0.62-1.218c0-0.146-0.028-0.285-0.067-0.418l0.014-0.004    c-1.579-5.428-6.626-9.219-12.273-9.219h-1.149c4.173-1.035,7.28-4.802,7.28-9.291c0-5.283-4.298-9.582-9.581-9.582    s-9.582,4.298-9.582,9.582c0,4.489,3.107,8.256,7.281,9.291H19.27c-5.628,0-10.664,3.78-12.247,9.191l0.012,0.004    c-0.036,0.128-0.061,0.26-0.061,0.4c0,0.453,0.204,0.865,0.524,1.146l-0.003,0.003c4.222,3.713,9.651,5.758,15.288,5.758    C28.361,54.83,33.739,52.826,37.942,49.186z M37.069,47.965L37.069,47.965L37.069,47.965L37.069,47.965z M16.205,29.036    c0-3.629,2.953-6.582,6.582-6.582s6.581,2.953,6.581,6.582s-2.952,6.582-6.581,6.582S16.205,32.665,16.205,29.036z M10.044,46.941    c1.343-3.914,5.07-5.614,9.226-5.614h6.966c4.173,0,7.91,1.709,9.251,5.637l-0.824,0.999c-0.001,0-0.001,0.001-0.002,0.001    c-3.432,2.503-7.587,3.865-11.879,3.865c-4.302,0-8.461-1.373-11.898-3.889L10.044,46.941z"/><path d="M61.499,47.522c-0.036,0.128-0.061,0.26-0.061,0.4c0,0.338,0.114,0.653,0.305,0.908c0.065,0.087,0.138,0.167,0.219,0.238    l-0.003,0.003c4.222,3.713,9.651,5.758,15.288,5.758c5.577,0,10.954-2.003,15.157-5.642c0.377-0.272,0.622-0.717,0.622-1.219    c0-0.146-0.028-0.285-0.067-0.418l0.014-0.004c-1.579-5.428-6.626-9.219-12.273-9.219h-1.149c4.173-1.035,7.281-4.802,7.281-9.291    c0-5.283-4.298-9.582-9.582-9.582s-9.582,4.298-9.582,9.582c0,4.489,3.107,8.256,7.281,9.291h-1.216    c-5.455,0-10.344,3.556-12.081,8.701c-0.055,0.163-0.117,0.323-0.166,0.49L61.499,47.522z M91.533,47.965    C91.533,47.965,91.533,47.965,91.533,47.965L91.533,47.965L91.533,47.965z M70.668,29.036c0-3.629,2.953-6.582,6.582-6.582    s6.582,2.953,6.582,6.582s-2.953,6.582-6.582,6.582S70.668,32.665,70.668,29.036z M73.733,41.327H80.7    c4.173,0,7.91,1.709,9.251,5.637l-0.824,0.999c-0.001,0-0.001,0.001-0.002,0.001c-3.432,2.503-7.587,3.865-11.878,3.865    c-4.302,0-8.462-1.373-11.899-3.889l-0.841-1.001C65.85,43.027,69.577,41.327,73.733,41.327z"/><path d="M47.109,55.245c-3.828,1.256-6.603,4.859-6.603,9.102c0,4.489,3.108,8.257,7.282,9.291h-1.217    c-5.628,0-10.664,3.779-12.247,9.191l0.012,0.004c-0.036,0.128-0.061,0.26-0.061,0.4c0,0.453,0.204,0.865,0.524,1.146    l-0.003,0.003c4.221,3.714,9.65,5.759,15.288,5.759c5.579,0,10.957-2.003,15.159-5.644c0.376-0.272,0.62-0.716,0.62-1.218    c0-0.146-0.028-0.284-0.067-0.418l0.014-0.004c-1.579-5.428-6.626-9.219-12.274-9.219h-1.15c4.174-1.034,7.282-4.801,7.282-9.291    c0-4.107-2.602-7.609-6.241-8.969c-1.042-0.39-2.164-0.613-3.341-0.613C49.047,54.765,48.048,54.937,47.109,55.245z     M35.764,83.249C35.764,83.249,35.764,83.249,35.764,83.249L35.764,83.249L35.764,83.249z M53.537,76.637    c4.174,0,7.911,1.709,9.252,5.637l-0.824,0.999c-0.001,0-0.001,0.001-0.002,0.001c-3.432,2.503-7.586,3.865-11.878,3.865    c-4.302,0-8.462-1.373-11.898-3.888l-0.841-1.001c1.343-3.913,5.07-5.613,9.226-5.613H53.537z M56.669,64.347    c0,3.629-2.953,6.581-6.582,6.581s-6.582-2.952-6.582-6.581s2.953-6.582,6.582-6.582S56.669,60.718,56.669,64.347z"/></g></g></svg>
