<?xml version="1.0" encoding="UTF-8"?>
<svg width="12px" height="12px" viewBox="0 0 12 12" version="1.1" xmlns="http://www.w3.org/2000/svg" xmlns:xlink="http://www.w3.org/1999/xlink">
    <!-- Generator: Sketch 55.2 (78181) - https://sketchapp.com -->
    <title>link-icon</title>
    <desc>Created with Sketch.</desc>
    <g id="Talent/Widget/Shotdetail" stroke="none" stroke-width="1" fill="none" fill-rule="evenodd">
        <g id="01.2-brand" transform="translate(-976.000000, -848.000000)" fill="#8169EA" fill-rule="nonzero">
            <g id="attach-files" transform="translate(976.000000, 809.000000)">
                <g id="Group-3" transform="translate(-0.000000, 39.000000)">
                    <path d="M4.37120627,6.91601399 C4.12310122,6.58432625 4.19085837,6.11431132 4.52254611,5.86620627 C4.85423386,5.61810122 5.32424878,5.68585837 5.57235384,6.01754611 C5.87648826,6.42413864 6.34222339,6.67859126 6.84868129,6.71486278 C7.35513919,6.7511343 7.85238187,6.56564826 8.21144997,6.20644997 L9.7023139,4.71574621 C10.3655153,4.02908315 10.3560306,2.93759785 9.6809964,2.2625637 C9.00596226,1.58752955 7.91447695,1.57804484 7.23556174,2.23365403 L6.37556174,3.08865403 C6.08181585,3.38069209 5.60694414,3.37930763 5.31490607,3.08556174 C5.02286801,2.79181585 5.02425248,2.31694414 5.31799837,2.02490607 L6.18574621,1.1623139 C7.46097759,-0.0693457833 9.48802173,-0.0517313176 10.7416566,1.20190353 C11.9952914,2.45553837 12.0129059,4.48258251 10.7721101,5.76711014 L9.27220627,7.26701399 C8.60554404,7.93391797 7.68209335,8.27839206 6.74152868,8.21103066 C5.80096402,8.14366927 4.93602734,7.67111439 4.37120627,6.91601399 Z M7.57235384,5.01754611 C7.82045889,5.34923386 7.75270173,5.81924878 7.42101399,6.06735384 C7.08932625,6.31545889 6.61931132,6.24770173 6.37120627,5.91601399 C6.06707185,5.50942147 5.60133671,5.25496884 5.09487882,5.21869732 C4.58842092,5.1824258 4.09117824,5.36791185 3.73211014,5.72711014 L2.24124621,7.2178139 C1.57804484,7.90447695 1.58752955,8.99596226 2.2625637,9.6709964 C2.93759785,10.3460306 4.02908315,10.3555153 4.70644997,9.70144997 L5.56144997,8.84644997 C5.85434318,8.55355675 6.32921692,8.55355675 6.62211014,8.84644997 C6.91500336,9.13934318 6.91500336,9.61421692 6.62211014,9.90711014 L5.7578139,10.7712462 C4.48258251,12.0029059 2.45553837,11.9852914 1.20190353,10.7316566 C-0.0517313176,9.47802173 -0.0693457833,7.45097759 1.17144997,6.16644997 L2.67135384,4.66654611 C3.33801606,3.99964213 4.26146676,3.65516805 5.20203142,3.72252944 C6.14259609,3.78989084 7.00753277,4.26244572 7.57235384,5.01754611 Z" id="link-icon"></path>
                </g>
            </g>
        </g>
    </g>
</svg>