<?xml version="1.0" encoding="UTF-8"?>
<svg width="15px" height="15px" viewBox="0 0 15 15" version="1.1" xmlns="http://www.w3.org/2000/svg" xmlns:xlink="http://www.w3.org/1999/xlink">
    <!-- Generator: Sketch 55.2 (78181) - https://sketchapp.com -->
    <title>loading-blue</title>
    <desc>Created with Sketch.</desc>
    <g id="Talent/Widget/Shotdetail" stroke="none" stroke-width="1" fill="none" fill-rule="evenodd">
        <g id="01.2-brand" transform="translate(-994.000000, -809.000000)" fill="#8169EA" fill-rule="nonzero">
            <g id="attach-files" transform="translate(977.000000, 809.000000)">
                <path d="M24.4047738,3.4643663 C23.4481155,3.4643663 22.6725907,2.68884149 22.6725907,1.73218315 C22.6725907,0.775524812 23.4481155,0 24.4047738,0 C25.3614322,0 26.136957,0.775524812 26.136957,1.73218315 C26.136957,2.68884149 25.3614322,3.4643663 24.4047738,3.4643663 Z M24.4047738,14.8095477 C23.8308409,14.8095477 23.3655764,14.3442831 23.3655764,13.7703502 C23.3655764,13.1964173 23.8308409,12.7311527 24.4047738,12.7311527 C24.9787068,12.7311527 25.4439713,13.1964173 25.4439713,13.7703502 C25.4439713,14.3442831 24.9787068,14.8095477 24.4047738,14.8095477 Z M20.1485042,5.05379328 C19.2874496,5.05379328 18.589427,4.35577062 18.589427,3.49471604 C18.589427,2.63366145 19.2874496,1.9356388 20.1485042,1.9356388 C21.0095588,1.9356388 21.7075815,2.63366145 21.7075815,3.49471604 C21.7075815,4.35577062 21.0095588,5.05379328 20.1485042,5.05379328 Z M28.6610435,12.8727848 C28.1827143,12.8727848 27.7949519,12.4850224 27.7949519,12.0066933 C27.7949519,11.5283641 28.1827143,11.1406017 28.6610435,11.1406017 C29.1393726,11.1406017 29.5271351,11.5283641 29.5271351,12.0066933 C29.5271351,12.4850224 29.1393726,12.8727848 28.6610435,12.8727848 Z M18.3854093,9.136957 C17.6202689,9.136957 17,8.51668813 17,7.7515477 C17,6.98640727 17.6202689,6.3661384 18.3854093,6.3661384 C19.1505497,6.3661384 19.7708186,6.98640727 19.7708186,7.7515477 C19.7708186,8.51668813 19.1505497,9.136957 18.3854093,9.136957 Z M30.4235764,8.4434093 C30.0411614,8.4434093 29.7311527,8.13340068 29.7311527,7.75098567 C29.7311527,7.36857065 30.0411614,7.05856203 30.4235764,7.05856203 C30.8059914,7.05856203 31.116,7.36857065 31.116,7.75098567 C31.116,8.13340068 30.8059914,8.4434093 30.4235764,8.4434093 Z M19.2914052,11.1507183 C19.7651983,10.6718669 20.5323722,10.6763631 21.0056033,11.1507183 C21.4793964,11.6245114 21.4793964,12.3911233 21.0056033,12.8649164 C20.5323722,13.3387095 19.7646362,13.3387095 19.2914052,12.8649164 C18.817612,12.3911233 18.817612,11.6245114 19.2914052,11.1507183 Z M28.6604814,4.01403376 C28.3736702,4.01403376 28.1411637,3.7815273 28.1411637,3.49471604 C28.1411637,3.20790478 28.3736702,2.97539831 28.6604814,2.97539831 C28.9472927,2.97539831 29.1797992,3.20790478 29.1797992,3.49471604 C29.1797992,3.7815273 28.9472927,4.01403376 28.6604814,4.01403376 Z" id="loading-blue"></path>
            </g>
        </g>
    </g>
</svg>