<?xml version="1.0" encoding="UTF-8"?>
<svg width="150px" height="129px" viewBox="0 0 150 129" version="1.1" xmlns="http://www.w3.org/2000/svg" xmlns:xlink="http://www.w3.org/1999/xlink">
    <!-- Generator: Sketch 56.3 (81716) - https://sketch.com -->
    <title>no-sprint-illustration</title>
    <desc>Created with Sketch.</desc>
    <defs>
        <linearGradient x1="95.0212648%" y1="44.210947%" x2="4.75915311%" y2="54.4599127%" id="linearGradient-1">
            <stop stop-color="#F4ECFC" offset="0%"></stop>
            <stop stop-color="#FDEDED" offset="100%"></stop>
        </linearGradient>
        <path d="M61.1959681,28.6593268 C58.4542388,28.6593268 56.2110057,30.9025599 56.2110057,33.6442892 L56.2110057,103.433763 C56.2110057,106.175492 58.4542388,108.418725 61.1959681,108.418725 C80.8911496,108.418725 94.9939065,108.418725 103.504239,108.418725 C105.443043,108.418725 111.098828,108.10177 113.76054,104.751463 C116.385782,101.447062 116.030555,99.5939726 116.030555,97.9450222 C116.030555,87.9734308 116.030555,71.5248155 116.030555,48.5991764 L96.0907049,28.6593268 L61.1959681,28.6593268 Z" id="path-2"></path>
        <path d="M58,29 C58,45.0160624 45.0160624,58 29,58 C12.9836646,58 -5.68434189e-14,45.0160624 -5.68434189e-14,29 C-5.68434189e-14,12.9836646 12.9836646,0 29,0 C45.0160624,0 58,12.9836646 58,29" id="path-4"></path>
        <filter x="-28.4%" y="-19.8%" width="139.7%" height="139.7%" filterUnits="objectBoundingBox" id="filter-5">
            <feOffset dx="-5" dy="0" in="SourceAlpha" result="shadowOffsetOuter1"></feOffset>
            <feGaussianBlur stdDeviation="3" in="shadowOffsetOuter1" result="shadowBlurOuter1"></feGaussianBlur>
            <feColorMatrix values="0 0 0 0 0.337254902   0 0 0 0 0.28627451   0 0 0 0 0.517647059  0 0 0 0.08 0" type="matrix" in="shadowBlurOuter1"></feColorMatrix>
        </filter>
        <path d="M54.562963,29.2148148 C54.562963,43.2140397 43.2140397,54.562963 29.2148148,54.562963 C15.2153513,54.562963 3.86666667,43.2140397 3.86666667,29.2148148 C3.86666667,15.2153513 15.2153513,3.86666667 29.2148148,3.86666667 C43.2140397,3.86666667 54.562963,15.2153513 54.562963,29.2148148" id="path-6"></path>
        <filter x="-5.9%" y="-5.9%" width="111.8%" height="111.8%" filterUnits="objectBoundingBox" id="filter-7">
            <feGaussianBlur stdDeviation="1.5" in="SourceAlpha" result="shadowBlurInner1"></feGaussianBlur>
            <feOffset dx="3" dy="3" in="shadowBlurInner1" result="shadowOffsetInner1"></feOffset>
            <feComposite in="shadowOffsetInner1" in2="SourceAlpha" operator="arithmetic" k2="-1" k3="1" result="shadowInnerInner1"></feComposite>
            <feColorMatrix values="0 0 0 0 0.984313725   0 0 0 0 0.741176471   0 0 0 0 0.741176471  0 0 0 0.2 0" type="matrix" in="shadowInnerInner1"></feColorMatrix>
        </filter>
        <path d="M31.3631551,29.2148148 C31.3631551,30.4011529 30.4015372,31.362963 29.215007,31.362963 C28.0281885,31.362963 27.0666667,30.4011529 27.0666667,29.2148148 C27.0666667,28.0283807 28.0281885,27.0666667 29.215007,27.0666667 C30.4015372,27.0666667 31.3631551,28.0283807 31.3631551,29.2148148" id="path-8"></path>
        <filter x="-605.1%" y="-605.2%" width="1543.0%" height="1543.1%" filterUnits="objectBoundingBox" id="filter-9">
            <feOffset dx="5" dy="5" in="SourceAlpha" result="shadowOffsetOuter1"></feOffset>
            <feGaussianBlur stdDeviation="9.5" in="shadowOffsetOuter1" result="shadowBlurOuter1"></feGaussianBlur>
            <feColorMatrix values="0 0 0 0 0.741176471   0 0 0 0 0.737254902   0 0 0 0 0.77254902  0 0 0 0.432178442 0" type="matrix" in="shadowBlurOuter1"></feColorMatrix>
        </filter>
    </defs>
    <g id="sprint-view" stroke="none" stroke-width="1" fill="none" fill-rule="evenodd">
        <g id="no-sprint-illustration" transform="translate(-9.000000, 6.000000)">
            <path d="M40.0148303,37.0625673 L130.020528,37.1347791 C148.19003,37.1493565 162.915688,51.875 162.930284,70.0445017 C162.944849,88.1763329 148.257903,102.886894 130.126072,102.901459 C130.108501,102.901474 130.09093,102.901474 130.073359,102.90146 L40.0676613,102.829248 C21.8981596,102.81467 7.17250129,88.0890268 7.15790556,69.9195252 C7.1433401,51.7876939 21.8302859,37.0771328 39.9621172,37.0625673 C39.9796882,37.0625532 39.9972593,37.0625532 40.0148303,37.0625673 Z" id="Rectangle" fill="url(#linearGradient-1)" transform="translate(85.044095, 69.982013) rotate(-26.000000) translate(-85.044095, -69.982013) "></path>
            <path d="M138.579691,20.068043 C140.821981,20.068043 142.642191,18.251538 142.642191,16.0077057 C142.642191,13.7638735 140.821981,11.9473684 138.579691,11.9473684 C136.337401,11.9473684 134.517191,13.7638735 134.517191,16.0077057 C134.517191,18.251538 136.337401,20.068043 138.579691,20.068043 Z M138.579691,17.068043 C137.992888,17.068043 137.517191,16.5933139 137.517191,16.0077057 C137.517191,15.4220976 137.992888,14.9473684 138.579691,14.9473684 C139.166493,14.9473684 139.642191,15.4220976 139.642191,16.0077057 C139.642191,16.5933139 139.166493,17.068043 138.579691,17.068043 Z" id="Oval" fill="#FFD6D6" fill-rule="nonzero"></path>
            <path d="M13.1482613,80.6283803 C15.3905513,80.6283803 17.2107613,78.8118753 17.2107613,76.568043 C17.2107613,74.3242108 15.3905513,72.5077057 13.1482613,72.5077057 C10.9059714,72.5077057 9.08576134,74.3242108 9.08576134,76.568043 C9.08576134,78.8118753 10.9059714,80.6283803 13.1482613,80.6283803 Z M13.1482613,77.6283803 C12.5614588,77.6283803 12.0857613,77.1536512 12.0857613,76.568043 C12.0857613,75.9824349 12.5614588,75.5077057 13.1482613,75.5077057 C13.7350639,75.5077057 14.2107613,75.9824349 14.2107613,76.568043 C14.2107613,77.1536512 13.7350639,77.6283803 13.1482613,77.6283803 Z" id="Oval" fill="#C8BDF7" fill-rule="nonzero"></path>
            <path d="M153.649358,35.5636813 L154.833568,35.5636813 C155.661995,35.5636813 156.333568,36.2352542 156.333568,37.0636813 C156.333568,37.8921084 155.661995,38.5636813 154.833568,38.5636813 L153.649358,38.5636813 L153.649358,39.7478918 C153.649358,40.576319 152.977785,41.2478918 152.149358,41.2478918 C151.320931,41.2478918 150.649358,40.576319 150.649358,39.7478918 L150.649358,38.5636813 L149.465147,38.5636813 C148.63672,38.5636813 147.965147,37.8921084 147.965147,37.0636813 C147.965147,36.2352542 148.63672,35.5636813 149.465147,35.5636813 L150.649358,35.5636813 L150.649358,34.3794708 C150.649358,33.5510437 151.320931,32.8794708 152.149358,32.8794708 C152.977785,32.8794708 153.649358,33.5510437 153.649358,34.3794708 L153.649358,35.5636813 Z" id="Combined-Shape" fill="#C8BDF7" fill-rule="nonzero"></path>
            <path d="M17.3200282,104.106695 L18.5042388,104.106695 C19.3326659,104.106695 20.0042388,104.778268 20.0042388,105.606695 C20.0042388,106.435122 19.3326659,107.106695 18.5042388,107.106695 L17.3200282,107.106695 L17.3200282,108.290906 C17.3200282,109.119333 16.6484554,109.790906 15.8200282,109.790906 C14.9916011,109.790906 14.3200282,109.119333 14.3200282,108.290906 L14.3200282,107.106695 L13.1358177,107.106695 C12.3073906,107.106695 11.6358177,106.435122 11.6358177,105.606695 C11.6358177,104.778268 12.3073906,104.106695 13.1358177,104.106695 L14.3200282,104.106695 L14.3200282,102.922485 C14.3200282,102.094058 14.9916011,101.422485 15.8200282,101.422485 C16.6484554,101.422485 17.3200282,102.094058 17.3200282,102.922485 L17.3200282,104.106695 Z" id="Combined-Shape" fill="#FFD6D6" fill-rule="nonzero"></path>
            <path d="M77.0888399,13.5351644 L119.895108,16.664324 C122.9309,16.8862419 125.319505,19.346207 125.451987,22.3872143 L128.71865,97.3707833 C128.862875,100.681352 126.296047,103.482015 122.985478,103.62624 C122.898482,103.63003 122.811414,103.631926 122.724336,103.631926 L79.3165118,103.631926 C76.0824382,103.631926 73.4302794,101.068712 73.320001,97.8365193 L70.6548933,19.7237907 C70.5418995,16.4120092 73.1350292,13.6356803 76.4468107,13.5226865 C76.6608897,13.5153824 76.8752063,13.5195477 77.0888399,13.5351644 Z" id="Rectangle" fill="#FBBDBD" transform="translate(99.709274, 58.340058) rotate(10.000000) translate(-99.709274, -58.340058) "></path>
            <path d="M57.4678979,21.1856426 C52.6592266,21.1856426 48.7373215,25.1075478 48.7373215,29.9162191 L48.7373215,107.460079 C48.7373215,112.26875 52.6592266,116.190655 57.4678979,116.190655 L114.773662,116.190655 C119.582334,116.190655 123.504239,112.26875 123.504239,107.460079 L123.504239,48.3505891 C123.504239,46.7592902 122.872098,45.2331667 121.74688,44.1079484 L100.581933,22.9430019 C99.4567148,21.8177836 97.9305913,21.1856426 96.3392924,21.1856426 L57.4678979,21.1856426 Z M57.4678979,24.1856426 L96.3392924,24.1856426 C97.1349419,24.1856426 97.8980036,24.5017131 98.4606127,25.0643223 L119.625559,46.2292688 C120.188168,46.7918779 120.504239,47.5549396 120.504239,48.3505891 L120.504239,107.460079 C120.504239,110.611896 117.925479,113.190655 114.773662,113.190655 L57.4678979,113.190655 C54.3160809,113.190655 51.7373215,110.611896 51.7373215,107.460079 L51.7373215,29.9162191 C51.7373215,26.764402 54.3160809,24.1856426 57.4678979,24.1856426 Z" id="Path" fill="#564984" fill-rule="nonzero"></path>
            <path d="M57.4678979,24.1856426 C54.3160809,24.1856426 51.7373215,26.764402 51.7373215,29.9162191 L51.7373215,107.460079 C51.7373215,110.611896 54.3160809,113.190655 57.4678979,113.190655 L114.773662,113.190655 C117.925479,113.190655 120.504239,110.611896 120.504239,107.460079 L120.504239,48.3505891 C120.504239,47.5549396 120.188168,46.7918779 119.625559,46.2292688 L98.4606127,25.0643223 C97.8980036,24.5017131 97.1349419,24.1856426 96.3392924,24.1856426 L57.4678979,24.1856426 Z" id="Path" fill="#FFFFFF" fill-rule="nonzero"></path>
            <mask id="mask-3" fill="white">
                <use xlink:href="#path-2"></use>
            </mask>
            <use id="Path" fill="#C8BDF7" fill-rule="nonzero" xlink:href="#path-2"></use>
            <path d="M101.688561,64.4408986 C102.330587,64.6480834 102.994929,64.7755207 103.666637,64.8208581 C103.978124,64.6511252 104.343962,64.5742196 104.722761,64.6222197 C105.655214,64.7403768 106.354259,65.5335921 106.354259,66.473501 C106.354259,67.5041114 105.518784,68.3395862 104.488173,68.3395862 L104.222213,68.3395862 C102.997121,68.3395862 101.779566,68.1479955 100.613678,67.7717584 L100.289246,67.6670628 C99.719041,67.4830553 99.0944194,67.6010323 98.6306127,67.9803413 L98.4471941,68.1303442 C98.3696616,68.1937516 98.28961,68.2540145 98.2072333,68.310987 C96.5106886,69.4843329 94.1841826,69.0601964 93.0108367,67.3636516 L92.348768,66.4063643 C92.3432331,66.3983613 92.3359129,66.3917553 92.3273858,66.387068 C92.2970157,66.3703738 92.2588625,66.3814604 92.2421684,66.4118305 C92.0884261,66.6915193 91.9022501,66.9521101 91.6874943,67.1882086 C90.178264,68.847428 87.6097281,68.9690182 85.9505086,67.459788 L84.5261817,66.1642165 C84.5090449,66.1486288 84.4893271,66.136141 84.4679101,66.1273114 C84.3659222,66.0852651 84.2491594,66.1338573 84.207113,66.2358452 C83.9664849,66.8195144 83.561336,67.3206241 83.0410036,67.6781514 C81.5591605,68.6963455 79.5324799,68.3204837 78.5142858,66.8386405 L78.3227483,66.5598836 C77.7754083,65.7633047 77.9774564,64.6738432 78.7740353,64.1265033 C79.5479578,63.5947308 80.5983395,63.7703243 81.1594167,64.5112675 C82.0586251,62.8924022 84.0482047,62.1685083 85.8019267,62.8915117 C86.1986224,63.0550567 86.5638449,63.2863626 86.8812617,63.5750857 L88.3055886,64.8706572 C88.5348706,65.0792127 88.889808,65.0624105 89.0983635,64.8331285 C89.1280399,64.8005029 89.153767,64.7644927 89.1750121,64.7258435 C90.1228512,63.0015297 92.2890591,62.3720726 94.0133728,63.3199117 C94.4975125,63.5860387 94.9131288,63.96111 95.2273814,64.4154889 L95.8894501,65.3727763 C95.9632659,65.4795067 96.1096275,65.5061893 96.2163579,65.4323736 L96.231454,65.4210093 L96.4148726,65.2710064 C97.7988424,64.1391723 99.662674,63.7871363 101.364128,64.336203 L101.688561,64.4408986 Z M101.688561,77.4408986 C102.330587,77.6480834 102.994929,77.7755207 103.666637,77.8208581 C103.978124,77.6511252 104.343962,77.5742196 104.722761,77.6222197 C105.655214,77.7403768 106.354259,78.5335921 106.354259,79.473501 C106.354259,80.5041114 105.518784,81.3395862 104.488173,81.3395862 L104.222213,81.3395862 C102.997121,81.3395862 101.779566,81.1479955 100.613678,80.7717584 L100.289246,80.6670628 C99.719041,80.4830553 99.0944194,80.6010323 98.6306127,80.9803413 L98.4471941,81.1303442 C98.3696616,81.1937516 98.28961,81.2540145 98.2072333,81.310987 C96.5106886,82.4843329 94.1841826,82.0601964 93.0108367,80.3636516 L92.348768,79.4063643 C92.3432331,79.3983613 92.3359129,79.3917553 92.3273858,79.387068 C92.2970157,79.3703738 92.2588625,79.3814604 92.2421684,79.4118305 C92.0884261,79.6915193 91.9022501,79.9521101 91.6874943,80.1882086 C90.178264,81.847428 87.6097281,81.9690182 85.9505086,80.459788 L84.5261817,79.1642165 C84.5090449,79.1486288 84.4893271,79.136141 84.4679101,79.1273114 C84.3659222,79.0852651 84.2491594,79.1338573 84.207113,79.2358452 C83.9664849,79.8195144 83.561336,80.3206241 83.0410036,80.6781514 C81.5591605,81.6963455 79.5324799,81.3204837 78.5142858,79.8386405 L78.3227483,79.5598836 C77.7754083,78.7633047 77.9774564,77.6738432 78.7740353,77.1265033 C79.5479578,76.5947308 80.5983395,76.7703243 81.1594167,77.5112675 C82.0586251,75.8924022 84.0482047,75.1685083 85.8019267,75.8915117 C86.1986224,76.0550567 86.5638449,76.2863626 86.8812617,76.5750857 L88.3055886,77.8706572 C88.5348706,78.0792127 88.889808,78.0624105 89.0983635,77.8331285 C89.1280399,77.8005029 89.153767,77.7644927 89.1750121,77.7258435 C90.1228512,76.0015297 92.2890591,75.3720726 94.0133728,76.3199117 C94.4975125,76.5860387 94.9131288,76.96111 95.2273814,77.4154889 L95.8894501,78.3727763 C95.9632659,78.4795067 96.1096275,78.5061893 96.2163579,78.4323736 L96.231454,78.4210093 L96.4148726,78.2710064 C97.7988424,77.1391723 99.662674,76.7871363 101.364128,77.336203 L101.688561,77.4408986 Z M68,61 L73,61 C74.1045695,61 75,61.8954305 75,63 L75,68 C75,69.1045695 74.1045695,70 73,70 L68,70 C66.8954305,70 66,69.1045695 66,68 L66,63 C66,61.8954305 66.8954305,61 68,61 Z M68,74 L73,74 C74.1045695,74 75,74.8954305 75,76 L75,81 C75,82.1045695 74.1045695,83 73,83 L68,83 C66.8954305,83 66,82.1045695 66,81 L66,76 C66,74.8954305 66.8954305,74 68,74 Z M101.688561,90.4408986 C102.330587,90.6480834 102.994929,90.7755207 103.666637,90.8208581 C103.978124,90.6511252 104.343962,90.5742196 104.722761,90.6222197 C105.655214,90.7403768 106.354259,91.5335921 106.354259,92.473501 C106.354259,93.5041114 105.518784,94.3395862 104.488173,94.3395862 L104.222213,94.3395862 C102.997121,94.3395862 101.779566,94.1479955 100.613678,93.7717584 L100.289246,93.6670628 C99.719041,93.4830553 99.0944194,93.6010323 98.6306127,93.9803413 L98.4471941,94.1303442 C98.3696616,94.1937516 98.28961,94.2540145 98.2072333,94.310987 C96.5106886,95.4843329 94.1841826,95.0601964 93.0108367,93.3636516 L92.348768,92.4063643 C92.3432331,92.3983613 92.3359129,92.3917553 92.3273858,92.387068 C92.2970157,92.3703738 92.2588625,92.3814604 92.2421684,92.4118305 C92.0884261,92.6915193 91.9022501,92.9521101 91.6874943,93.1882086 C90.178264,94.847428 87.6097281,94.9690182 85.9505086,93.459788 L84.5261817,92.1642165 C84.5090449,92.1486288 84.4893271,92.136141 84.4679101,92.1273114 C84.3659222,92.0852651 84.2491594,92.1338573 84.207113,92.2358452 C83.9664849,92.8195144 83.561336,93.3206241 83.0410036,93.6781514 C81.5591605,94.6963455 79.5324799,94.3204837 78.5142858,92.8386405 L78.3227483,92.5598836 C77.7754083,91.7633047 77.9774564,90.6738432 78.7740353,90.1265033 C79.5479578,89.5947308 80.5983395,89.7703243 81.1594167,90.5112675 C82.0586251,88.8924022 84.0482047,88.1685083 85.8019267,88.8915117 C86.1986224,89.0550567 86.5638449,89.2863626 86.8812617,89.5750857 L88.3055886,90.8706572 C88.5348706,91.0792127 88.889808,91.0624105 89.0983635,90.8331285 C89.1280399,90.8005029 89.153767,90.7644927 89.1750121,90.7258435 C90.1228512,89.0015297 92.2890591,88.3720726 94.0133728,89.3199117 C94.4975125,89.5860387 94.9131288,89.96111 95.2273814,90.4154889 L95.8894501,91.3727763 C95.9632659,91.4795067 96.1096275,91.5061893 96.2163579,91.4323736 L96.231454,91.4210093 L96.4148726,91.2710064 C97.7988424,90.1391723 99.662674,89.7871363 101.364128,90.336203 L101.688561,90.4408986 Z M68,87 L73,87 C74.1045695,87 75,87.8954305 75,89 L75,94 C75,95.1045695 74.1045695,96 73,96 L68,96 C66.8954305,96 66,95.1045695 66,94 L66,89 C66,87.8954305 66.8954305,87 68,87 Z" id="Combined-Shape" fill="#FFFFFF" fill-rule="nonzero" mask="url(#mask-3)"></path>
            <path d="M101.075667,48.5991764 L116.030555,48.5991764 L96.0907049,28.6593268 L96.0907049,43.614214 C96.0907049,46.3559434 98.333938,48.5991764 101.075667,48.5991764 Z" id="Path" fill="#B2A7E2" fill-rule="nonzero" mask="url(#mask-3)"></path>
            <path d="M71.573518,65.7209933 L73.043188,67.1906632 C73.3360812,67.4835564 73.3360812,67.9584301 73.043188,68.2513233 C72.7502947,68.5442166 72.275421,68.5442166 71.9825278,68.2513233 L70.5128579,66.7816534 L69.043188,68.2513233 C68.7502947,68.5442166 68.275421,68.5442166 67.9825278,68.2513233 C67.6896346,67.9584301 67.6896346,67.4835564 67.9825278,67.1906632 L69.4521977,65.7209933 L67.9825278,64.2513233 C67.6896346,63.9584301 67.6896346,63.4835564 67.9825278,63.1906632 C68.275421,62.89777 68.7502947,62.89777 69.043188,63.1906632 L70.5128579,64.6603331 L71.9825278,63.1906632 C72.275421,62.89777 72.7502947,62.89777 73.043188,63.1906632 C73.3360812,63.4835564 73.3360812,63.9584301 73.043188,64.2513233 L71.573518,65.7209933 Z" id="Combined-Shape" fill="#F44D4D" fill-rule="nonzero" mask="url(#mask-3)"></path>
            <g id="time" transform="translate(28.000000, 0.000000)">
                <g id="Fill-22" fill-rule="nonzero">
                    <use fill="black" fill-opacity="1" filter="url(#filter-5)" xlink:href="#path-4"></use>
                    <use fill="#FFFFFF" xlink:href="#path-4"></use>
                </g>
                <g id="Fill-22">
                    <use fill="#FDEDED" fill-rule="evenodd" xlink:href="#path-6"></use>
                    <use fill="black" fill-opacity="1" filter="url(#filter-7)" xlink:href="#path-6"></use>
                </g>
                <path d="M27.6172176,28.6953309 L28.3692473,28.2849689 L28.623017,27.9417691 C28.9451551,27.5061075 29.4817142,27.3030428 29.997611,27.3964155 L41.0459036,21.3676649 C41.7243961,20.9974301 42.5744832,21.2473736 42.9447877,21.925994 C43.3148811,22.6045096 43.0649343,23.4545741 42.3864818,23.824783 L30.2520596,30.4461317 L25.528312,36.8347654 C25.068799,37.4562339 24.1924935,37.5875314 23.5710177,37.1280282 C22.9495384,36.6685223 22.8182468,35.7922188 23.2777682,35.1707185 L27.8077158,29.0443878 L27.6172176,28.6953309 Z" id="Path" fill="#554883" fill-rule="nonzero"></path>
                <path d="M27.2013525,9.61344705 L26.7419327,9.75377745 C26.6971162,9.76655319 26.6397268,9.77283967 26.6016023,9.77283967 C26.4165568,9.77283967 26.2569614,9.61983492 26.2569614,9.44117729 C26.2569614,9.275194 26.3588632,9.14774074 26.5186614,9.10292424 L27.1950661,8.88604077 C27.3479694,8.84152846 27.4628497,8.81597697 27.5774258,8.81597697 L27.590303,8.81597697 C27.8136757,8.81597697 27.979659,8.98824673 27.979659,9.20492741 L27.979659,12.9817822 C27.979659,13.1988685 27.8070851,13.3710368 27.590303,13.3710368 C27.3798074,13.3710368 27.2013525,13.1988685 27.2013525,12.9817822 L27.2013525,9.61344705 Z M29.0707177,12.579985 L30.4420823,11.412424 C31.0546083,10.8958175 31.2778797,10.6086674 31.2778797,10.2067384 C31.2778797,9.76658361 30.9654823,9.51137291 30.5572668,9.51137291 C30.1998502,9.51137291 29.9510273,9.67725479 29.676653,10.0089172 C29.6192636,10.0727959 29.5299348,10.1302867 29.4023801,10.1302867 C29.2045588,10.1302867 29.0450648,9.97058994 29.0450648,9.77276869 C29.0450648,9.69003054 29.0769028,9.60060033 29.1342923,9.53023234 C29.4980968,9.07750457 29.9127001,8.80972091 30.6144535,8.80972091 C31.4885781,8.80972091 32.0882269,9.34559241 32.0882269,10.1429611 L32.0882269,10.1556354 C32.0882269,10.8574902 31.7181359,11.2402556 30.9270537,11.8846195 L30.0084168,12.6501502 L31.8204432,12.6501502 C32.0116738,12.6501502 32.1649827,12.8032564 32.1649827,12.9945884 C32.1649827,13.1860218 32.0116738,13.3393307 31.8204432,13.3393307 L29.2874998,13.3393307 C29.0450648,13.3393307 28.86661,13.1988989 28.86661,12.9692397 C28.86661,12.8161335 28.9365724,12.6884775 29.0707177,12.579985 Z" id="Combined-Shape" fill="#9C8DDB"></path>
                <path d="M46.283474,31.5654412 C46.204803,31.5008877 46.1402495,31.3788395 46.1402495,31.2499603 C46.1402495,31.0207784 46.3336823,30.8273456 46.5627503,30.8273456 C46.6919711,30.8273456 46.7849873,30.8773262 46.8565996,30.9417658 C47.1717389,31.257019 47.5298001,31.421989 47.9956781,31.421989 C48.489905,31.421989 48.8624252,31.1213087 48.8624252,30.6626033 L48.8624252,30.648372 C48.8624252,30.1541451 48.4110063,29.8746411 47.7090015,29.8746411 L47.5298001,29.8746411 C47.322136,29.8746411 47.1504488,29.7024985 47.1504488,29.4950621 C47.1504488,29.3804142 47.2005432,29.2725974 47.3365951,29.1367732 L48.5114228,27.8835022 L46.6919711,27.8835022 C46.4772483,27.8835022 46.3052195,27.7114735 46.3052195,27.5034678 C46.3052195,27.2886311 46.4772483,27.1168301 46.6919711,27.1168301 L49.2563494,27.1168301 C49.5070491,27.1168301 49.6934231,27.2672272 49.6934231,27.5034678 C49.6934231,27.7114735 49.5932343,27.8329524 49.4427234,27.983691 L48.2606092,29.2083855 C49.0199949,29.3016294 49.7364588,29.688381 49.7364588,30.6123951 L49.7364588,30.626968 C49.7364588,31.5512098 49.0271675,32.2171239 47.9814467,32.2171239 C47.2433512,32.2171239 46.6919711,31.9592516 46.283474,31.5654412" id="Fill-9" fill="#9C8DDB"></path>
                <path d="M30.2465201,48.3576965 L30.2465201,48.3438157 C30.2465201,47.8509355 29.851813,47.4844378 29.2389311,47.4844378 C28.6262731,47.4844378 28.2390661,47.8790329 28.2390661,48.3507561 L28.2390661,48.3650847 C28.2390661,48.865353 28.647542,49.2453957 29.260312,49.2453957 C29.8731939,49.2453957 30.2465201,48.865353 30.2465201,48.3576965 M27.90783,49.478011 C27.5347276,49.1045728 27.3095006,48.5903118 27.3095006,47.5971633 L27.3095006,47.5831705 C27.3095006,46.0760968 28.0278317,44.8998113 29.4222919,44.8998113 C29.9290529,44.8998113 30.3308123,45.033358 30.6548841,45.2518686 C30.7887666,45.3364967 30.8730589,45.4491102 30.8730589,45.6253067 C30.8730589,45.8505338 30.6826457,46.0267304 30.4576425,46.0267304 C30.3799548,46.0267304 30.3027149,45.998521 30.2393558,45.9631474 C29.9714789,45.7869508 29.7249828,45.6885539 29.3941945,45.6885539 C28.6614228,45.6885539 28.2529469,46.3505783 28.2108567,47.2519344 C28.4713455,46.998386 28.80941,46.7589423 29.3941945,46.7589423 C30.344917,46.7589423 31.1122787,47.3225698 31.1122787,48.3087779 L31.1122787,48.3226587 C31.1122787,49.3018145 30.3168196,49.9989886 29.2812451,49.9989886 C28.6756395,49.9989886 28.2390661,49.8090232 27.90783,49.478011" id="Fill-11" fill="#9C8DDB"></path>
                <path d="M11.7253538,28.7532267 L11.7253538,28.7391226 C11.7253538,28.2251059 11.3237223,27.8305265 10.6969846,27.8305265 C10.084351,27.8305265 9.71786791,28.23921 9.71786791,28.7462866 L9.71786791,28.7602788 C9.71786791,29.2745193 10.1125593,29.6407786 10.7250809,29.6407786 C11.3519305,29.6407786 11.7253538,29.232207 11.7253538,28.7532267 M9.21079136,31.7747537 C9.09124218,31.697293 9.01378148,31.57752 9.01378148,31.4156585 C9.01378148,31.1901045 9.19679918,31.021191 9.42224116,31.021191 C9.51380598,31.021191 9.59137861,31.0492873 9.66156338,31.0918235 C9.95047388,31.2957735 10.2253922,31.3943903 10.5632194,31.3943903 C11.2885739,31.3943903 11.7253538,30.7536605 11.753562,29.8451763 C11.5069638,30.1408031 11.1266004,30.3659093 10.5983677,30.3659093 C9.54895433,30.3659093 8.85169608,29.7533876 8.85169608,28.802815 L8.85169608,28.7887109 C8.85169608,27.8235864 9.59831873,27.0839038 10.6900445,27.0839038 C11.3096181,27.0839038 11.7111377,27.2602053 12.0635167,27.6054203 C12.4225001,27.9715677 12.6549941,28.5140164 12.6549941,29.4858572 L12.6549941,29.4998494 C12.6549941,31.0844356 11.8732231,32.1832134 10.5419513,32.1832134 C9.98562224,32.1832134 9.5772745,32.021128 9.21079136,31.7747537" id="Fill-13" fill="#9C8DDB"></path>
                <path d="M7.70878307,29.6618764 C7.70878307,29.8679912 7.57387214,30.0351171 7.40759465,30.0351171 L6.36365963,30.0351171 C6.19738214,30.0351171 6.06247121,29.8679912 6.06247121,29.6618764 L6.06247121,29.5489912 C6.06247121,29.3428764 6.19738214,29.1758579 6.36365963,29.1758579 L7.40759465,29.1758579 C7.57387214,29.1758579 7.70878307,29.3428764 7.70878307,29.5489912 L7.70878307,29.6618764 Z M29.8617865,7.2828793 C29.8617865,7.4491568 29.7138865,7.53909742 29.5075569,7.53909742 L29.3272198,7.53909742 C29.121105,7.53909742 29.0025272,7.4491568 29.0025272,7.2828793 L29.0025272,6.23989742 C29.0025272,6.07361992 29.121105,5.89278556 29.3272198,5.89278556 L29.5075569,5.89278556 C29.7138865,5.89278556 29.8617865,6.07361992 29.8617865,6.23989742 L29.8617865,7.2828793 Z M52.3758232,29.6618764 C52.3758232,29.8679912 52.2409989,30.0351171 52.0747214,30.0351171 L51.0306131,30.0351171 C50.8643356,30.0351171 50.7295114,29.8679912 50.7295114,29.6618764 L50.7295114,29.5489912 C50.7295114,29.3428764 50.8643356,29.1758579 51.0306131,29.1758579 L52.0747214,29.1758579 C52.2409989,29.1758579 52.3758232,29.3428764 52.3758232,29.5489912 L52.3758232,29.6618764 Z M29.8617865,52.2478875 C29.8617865,52.4142516 29.6945532,52.5491625 29.4883309,52.5491625 L29.3759828,52.5491625 C29.1697606,52.5491625 29.0025272,52.4142516 29.0025272,52.2478875 L29.0025272,51.2040391 C29.0025272,51.0376749 29.1697606,50.9028507 29.3759828,50.9028507 L29.4883309,50.9028507 C29.6945532,50.9028507 29.8617865,51.0376749 29.8617865,51.2040391 L29.8617865,52.2478875 Z" id="Combined-Shape" fill="#9C8DDB"></path>
                <path d="M18.1938613,12.6846719 C17.8316975,12.0558519 18.0478086,11.2525029 18.6765816,10.8902576 C19.3053964,10.5279882 20.1087872,10.744096 20.4711195,11.3730199 L32.1104138,31.5825879 C32.4725709,32.2114095 32.2562971,33.0146189 31.6271143,33.3769838 C30.9982763,33.738766 30.1952272,33.522478 29.8331507,32.8938095 L18.1938613,12.6846719 Z" id="Path" fill="#5DE5AC" fill-rule="nonzero"></path>
                <g id="Fill-43" fill-rule="nonzero">
                    <use fill="black" fill-opacity="1" filter="url(#filter-9)" xlink:href="#path-8"></use>
                    <use fill="#FFFFFF" xlink:href="#path-8"></use>
                </g>
            </g>
        </g>
    </g>
</svg>