<?xml version="1.0" encoding="UTF-8"?>
<svg width="12px" height="14px" viewBox="0 0 12 14" version="1.1" xmlns="http://www.w3.org/2000/svg" xmlns:xlink="http://www.w3.org/1999/xlink">
    <!-- Generator: Sketch 55.2 (78181) - https://sketchapp.com -->
    <title>pdf</title>
    <desc>Created with Sketch.</desc>
    <g id="Talent/Widget/Shotdetail" stroke="none" stroke-width="1" fill="none" fill-rule="evenodd">
        <g id="01.2-brand" transform="translate(-996.000000, -836.000000)" fill-rule="nonzero">
            <g id="attach-files" transform="translate(977.000000, 809.000000)">
                <g id="pdf" transform="translate(19.000000, 27.000000)">
                    <path d="M0.870464945,0 L8.14264207,0 L11.9972103,3.83960148 L11.9972103,12.838583 C11.9972103,13.3114539 11.613786,13.6944797 11.1413137,13.6944797 L0.870464945,13.6944797 C0.39799262,13.6944797 0.0145682657,13.3114539 0.0145682657,12.838583 L0.0145682657,0.855896679 C0.0145682657,0.38302583 0.3980369,0 0.870464945,0 Z" id="Path" fill="#E2574C"></path>
                    <path d="M11.9848561,3.8515572 L9.0015941,3.8515572 C8.52912177,3.8515572 8.14569742,3.46813284 8.14569742,2.99566052 L8.14569742,0.00854612546 L11.9848561,3.8515572 Z" id="Path" fill="#B53629"></path>
                    <path d="M8.78674539,6.48903321 C8.93012546,6.48903321 9.00030996,6.3640738 9.00030996,6.24296679 C9.00030996,6.11756458 8.92711439,5.99645756 8.78674539,5.99645756 L7.97021402,5.99645756 C7.81058303,5.99645756 7.72157934,6.12867897 7.72157934,6.27462731 L7.72157934,8.28128413 C7.72157934,8.46017712 7.82342435,8.55945387 7.96122509,8.55945387 C8.0981845,8.55945387 8.20047232,8.46017712 8.20047232,8.28128413 L8.20047232,7.73052399 L8.6943321,7.73052399 C8.84754244,7.73052399 8.9241476,7.60512177 8.9241476,7.48060517 C8.9241476,7.35865683 8.84754244,7.23750554 8.6943321,7.23750554 L8.20047232,7.23750554 L8.20047232,6.48903321 C8.20047232,6.48903321 8.78674539,6.48903321 8.78674539,6.48903321 Z M6.02687823,5.99645756 L5.42944649,5.99645756 C5.26724723,5.99645756 5.15211808,6.10773432 5.15211808,6.27290037 L5.15211808,8.28301107 C5.15211808,8.48798524 5.31772694,8.55219188 5.43626568,8.55219188 L6.06323247,8.55219188 C6.80528413,8.55219188 7.29529151,8.06391144 7.29529151,7.3102583 C7.29489299,6.51343173 6.83357934,5.99645756 6.02687823,5.99645756 Z M6.05557196,8.05664945 L5.69136531,8.05664945 L5.69136531,6.49204428 L6.01961624,6.49204428 C6.51648708,6.49204428 6.73257565,6.82543173 6.73257565,7.28546125 C6.73257565,7.716 6.5202952,8.05664945 6.05557196,8.05664945 Z M3.86701107,5.99645756 L3.27515867,5.99645756 C3.10782288,5.99645756 3.01452399,6.10684871 3.01452399,6.27462731 L3.01452399,8.28128413 C3.01452399,8.46017712 3.12150554,8.55945387 3.26528413,8.55945387 C3.40906273,8.55945387 3.51604428,8.46017712 3.51604428,8.28128413 L3.51604428,7.69540959 L3.88707011,7.69540959 C4.34497417,7.69540959 4.72286347,7.37101107 4.72286347,6.84934317 C4.72290775,6.33883395 4.35830258,5.99645756 3.86701107,5.99645756 Z M3.85718081,7.22470849 L3.51608856,7.22470849 L3.51608856,6.46764576 L3.85718081,6.46764576 C4.06773432,6.46764576 4.20168266,6.63197048 4.20168266,6.84637638 C4.20123985,7.06038376 4.06773432,7.22470849 3.85718081,7.22470849 Z" id="Shape" fill="#FFFFFF"></path>
                </g>
            </g>
        </g>
    </g>
</svg>