<?xml version="1.0" encoding="UTF-8"?>
<svg width="67px" height="66px" viewBox="0 0 67 66" version="1.1" xmlns="http://www.w3.org/2000/svg" xmlns:xlink="http://www.w3.org/1999/xlink">
    <!-- Generator: Sketch 55.2 (78181) - https://sketchapp.com -->
    <title>Group 5</title>
    <desc>Created with Sketch.</desc>
    <g id="landing-pages-for-approval" stroke="none" stroke-width="1" fill="none" fill-rule="evenodd">
        <g id="01-model-landing-page-for-approval-from-brands" transform="translate(-251.000000, -280.000000)" fill-rule="nonzero">
            <g id="Group-5" transform="translate(250.000000, 280.000000)">
                <path d="M24.9023154,51.8526326 L15.2405723,57.1227854 C14.6736002,57.4319318 13.9978148,58.3159437 13.5237088,58.7301755 C19.1567726,63.4797892 26.5946783,65.8412041 34.5396199,65.8412041 C42.4259093,65.8412041 50.0256826,63.4150273 55.6428614,58.7301755 C55.1247662,58.2927272 54.1881375,57.5028033 53.5649569,57.192435 L43.2189371,52.020036 C41.8821536,51.3516443 41.037805,49.9855347 41.037805,48.4911232 L41.037805,44.4318959 C41.3286226,44.1007548 41.6609856,43.6755257 42.0165651,43.1733155 C43.426664,41.1815814 44.4934025,38.990674 45.2326658,36.6922373 C46.5596739,36.2828932 47.537212,35.0573047 47.537212,33.6007728 L47.537212,29.2678348 C47.537212,28.3147351 47.1132049,27.4630549 46.4545885,26.8667566 L46.4545885,20.6031807 C46.4545885,20.6031807 47.7412731,10.8559031 34.5408419,10.8559031 C21.3404106,10.8559031 23.1530715,20.6031807 23.1530715,20.6031807 L23.1530715,26.8667566 C22.4932332,27.4630549 22.070448,28.3147351 22.070448,29.2678348 L22.070448,33.6007728 C22.070448,34.7420486 22.670412,35.7464691 23.5685252,36.3268824 C24.6511488,41.0398384 27.4860095,44.4318959 27.4860095,44.4318959 L27.4860095,48.3909255 C27.4847876,49.8327944 26.1694492,51.1610244 24.9023154,51.8526326 Z" id="Path" fill="#C8BDF7"></path>
                <path d="M1.08185283,32.7242641 C0.907339962,42.8662875 5.34792148,52.333664 13.0096219,58.751903 C13.8226591,59.4329878 15.0100251,59.422559 15.8109738,58.7272984 C15.9228038,58.6302247 19.9846628,56.3346483 26.263778,52.8693873 C28.1705788,51.8342863 29.3674845,49.829526 29.3674845,47.6485216 L29.3674845,43.8418392 C29.3674845,43.3336617 29.1882066,42.8417747 28.8612132,42.4527763 C28.7709084,42.3453478 28.5817339,42.1002795 28.3265244,41.73365 C27.8873083,41.1026798 27.4453475,40.3804492 27.0328676,39.5841548 C26.3641417,38.2931764 25.8430714,36.9414144 25.5251911,35.5634612 C25.3987182,35.0152245 25.0632004,34.5380278 24.5900981,34.2335069 C24.3022928,34.0482559 24.13224,33.74778 24.13224,33.4275081 L24.13224,29.2613057 C24.13224,29.0010879 24.2484957,28.7514424 24.4646653,28.5567765 C24.9192592,28.1474036 25.1788164,27.5643764 25.1788164,26.9526233 L25.1788164,20.9300758 C25.1788164,20.8350966 25.1725481,20.7402209 25.1600524,20.6460673 C25.1614547,20.6566334 25.1596824,20.6395539 25.1566511,20.5976 C25.1324943,20.2632584 25.1426161,19.8236993 25.215448,19.3262582 C25.3198422,18.6132468 25.53659,17.9196416 25.8863333,17.2815045 C27.0900406,15.085236 29.7036188,13.7166129 34.5371517,13.7166129 C39.3706846,13.7166129 41.9842628,15.085236 43.1879702,17.2815045 C43.5377135,17.9196416 43.7544613,18.6132468 43.8588554,19.3262582 C43.9316873,19.8236993 43.9418091,20.2632584 43.9176523,20.5976 C43.9146211,20.6395539 43.9128487,20.6566334 43.914251,20.6460673 C43.9017553,20.7402209 43.895487,20.8350966 43.895487,20.9300758 L43.895487,26.9526233 C43.895487,27.5650695 44.1556307,28.14869 44.6111172,28.5581072 C44.8263745,28.7515926 44.9420634,29.0002227 44.9420634,29.2613057 L44.9420634,33.4275081 C44.9420634,33.8363192 44.6580383,34.2079047 44.2397781,34.336234 C43.5661439,34.5429165 43.0357761,35.0653568 42.8189729,35.7358022 C42.1573298,37.7818776 41.2140172,39.6816731 40.0052607,41.3798582 C39.7089184,41.7961586 39.4325846,42.1491368 39.1995849,42.4130203 C38.8512808,42.8074915 38.6590613,43.3156043 38.6590613,43.8418392 L38.6590613,47.7448636 C38.6590613,50.0028437 39.940823,52.0660393 41.9664455,53.0715768 C48.6945662,56.4822305 53.0597719,58.7573002 53.1818181,58.8597512 C53.9808,59.5304526 55.1450844,59.5338647 55.9479836,58.8678577 C63.3753091,52.7068727 67.8240385,43.6664224 67.9924505,33.8628786 C68.3108101,15.4756986 53.5858812,0.318885984 35.1101091,0.00494792436 C16.6356153,-0.308989866 1.39767779,14.3375454 1.08185283,32.7242641 Z M35.0734335,2.16336651 C52.3596629,2.45709201 66.1317107,16.6334593 65.8340388,33.8257999 C65.6722093,43.2461639 61.3146242,51.611466 54.5697582,57.2063492 C54.2366492,56.9267225 50.3554966,54.903933 42.9263003,51.1379805 C41.6340265,50.496484 40.8177914,49.1817687 40.8177914,47.7448636 L40.8177914,43.8418392 C41.0989259,43.5234408 41.4202225,43.1145749 41.7639626,42.6316902 C43.1271107,40.7166 44.158331,38.6100007 44.8729797,36.4000101 C46.1558036,36.0064179 47.1007936,34.8279913 47.1007936,33.4275081 L47.1007936,29.2613057 C47.1007936,28.3448822 46.6920854,27.5259755 46.0542172,26.9526233 L46.0542172,20.9300758 C46.0542172,20.9300758 47.2980602,11.5578827 34.5371517,11.5578827 C21.7762432,11.5578827 23.0200863,20.9300758 23.0200863,20.9300758 L23.0200863,26.9526233 C22.3833993,27.5259755 21.9735098,28.3448822 21.9735098,29.2613057 L21.9735098,33.4275081 C21.9735098,34.5260415 22.5546787,35.490636 23.421707,36.0487144 C24.4671022,40.5803113 27.2087544,43.8418392 27.2087544,43.8418392 L27.2087544,47.6485216 C27.2087544,49.0372558 26.445675,50.3143742 25.2207317,50.9793687 C18.3073424,54.7946671 14.6990557,56.8339053 14.3958714,57.0970833 C7.44074509,51.2707444 3.07252888,42.5095004 3.2402646,32.7613387 C3.53557397,15.5689981 17.7883854,1.86964102 35.0734335,2.16336651 Z" id="Path" fill="#FFFFFF"></path>
                <path d="M35.0734335,2.15873016 C17.7883854,1.86500466 3.53557397,15.5643617 3.2402646,32.7567023 C3.07252888,42.504864 7.44074509,51.2661081 14.3958714,57.092447 C14.6990557,56.8292689 18.3073424,54.7900307 25.2207317,50.9747324 C26.445675,50.3097379 27.2087544,49.0326194 27.2087544,47.6438853 L27.2087544,43.8372029 C27.2087544,43.8372029 24.4671022,40.575675 23.421707,36.0440781 C22.5546787,35.4859996 21.9735098,34.5214051 21.9735098,33.4228718 L21.9735098,29.2566693 C21.9735098,28.3402458 22.3833993,27.5213391 23.0200863,26.947987 L23.0200863,20.9254394 C23.0200863,20.9254394 21.7762432,11.5532464 34.5371517,11.5532464 C47.2980602,11.5532464 46.0542172,20.9254394 46.0542172,20.9254394 L46.0542172,26.947987 C46.6920854,27.5213391 47.1007936,28.3402458 47.1007936,29.2566693 L47.1007936,33.4228718 C47.1007936,34.8233549 46.1558036,36.0017816 44.8729797,36.3953738 C44.158331,38.6053644 43.1271107,40.7119636 41.7639626,42.6270538 C41.4202225,43.1099385 41.0989259,43.5188044 40.8177914,43.8372029 L40.8177914,47.7402272 C40.8177914,49.1771324 41.6340265,50.4918477 42.9263003,51.1333441 C50.3554966,54.8992966 54.2366492,56.9220862 54.5697582,57.2017129 C61.3146242,51.6068296 65.6722093,43.2415276 65.8340388,33.8211635 C66.1317107,16.6288229 52.3596629,2.45245565 35.0734335,2.15873016 Z" id="Path" fill="#FFD6D6"></path>
            </g>
        </g>
    </g>
</svg>