<?xml version="1.0" encoding="UTF-8"?>
<svg width="12px" height="16px" viewBox="0 0 12 16" version="1.1" xmlns="http://www.w3.org/2000/svg" xmlns:xlink="http://www.w3.org/1999/xlink">
    <!-- Generator: Sketch 55.2 (78181) - https://sketchapp.com -->
    <title>ppt</title>
    <desc>Created with Sketch.</desc>
    <g id="sprint-view" stroke="none" stroke-width="1" fill="none" fill-rule="evenodd">
        <g id="ppt" fill-rule="nonzero">
            <path d="M1,0 C0.45,0 0,0.45 0,1 L0,15 C0,15.55 0.45,16 1,16 L11,16 C11.55,16 12,15.55 12,15 L12,4 L8,0 L1,0 Z" id="Path" fill="#F15642"></path>
            <path d="M9,4 L12,4 L8,0 L8,3 C8,3.55 8.45,4 9,4 Z" id="Path" fill="#F5E9E7"></path>
            <polygon id="Path" fill="#DACBC8" points="12 7 9 4 12 4"></polygon>
            <path d="M1.08101332,8.80906557 C1.08101332,8.63757377 1.21612807,8.4504918 1.43374078,8.4504918 L2.63353381,8.4504918 C3.30910758,8.4504918 3.91712398,8.90260656 3.91712398,9.76915984 C3.91712398,10.5902418 3.30910758,11.0475533 2.63353381,11.0475533 L1.76633094,11.0475533 L1.76633094,11.7335205 C1.76633094,11.9621762 1.62147234,12.0914447 1.43439037,12.0914447 C1.26289857,12.0914447 1.08166291,11.9621762 1.08166291,11.7335205 L1.08166291,8.80906557 L1.08101332,8.80906557 Z M1.76633094,9.1046291 L1.76633094,10.3986127 L2.63353381,10.3986127 C2.98171414,10.3986127 3.25714037,10.0913566 3.25714037,9.76915984 C3.25714037,9.40603893 2.98171414,9.1046291 2.63353381,9.1046291 L1.76633094,9.1046291 Z M4.57905635,8.80906557 C4.57905635,8.63757377 4.71417111,8.4504918 4.9324334,8.4504918 L6.13222643,8.4504918 C6.8078002,8.4504918 7.4158166,8.90260656 7.4158166,9.76915984 C7.4158166,10.5902418 6.8078002,11.0475533 6.13222643,11.0475533 L5.26502357,11.0475533 L5.26502357,11.7335205 C5.26502357,11.9621762 5.11951537,12.0914447 4.9324334,12.0914447 C4.7609416,12.0914447 4.57905635,11.9621762 4.57905635,11.7335205 L4.57905635,8.80906557 Z M5.26437398,9.1046291 L5.26437398,10.3986127 L6.13157684,10.3986127 C6.47975717,10.3986127 6.7551834,10.0913566 6.7551834,9.76915984 C6.7551834,9.40603893 6.47975717,9.1046291 6.13157684,9.1046291 L5.26437398,9.1046291 Z M9.04758709,9.14685246 L8.13946004,9.14685246 C7.68734529,9.14685246 7.68734529,8.48232172 8.13946004,8.48232172 L10.5955605,8.48232172 C11.0580686,8.48232172 11.0580686,9.14685246 10.5955605,9.14685246 L9.7335543,9.14685246 L9.7335543,11.7698975 C9.7335543,12.2213627 9.04758709,12.2324057 9.04758709,11.7698975 L9.04758709,9.14685246 Z" id="Combined-Shape" fill="#FFFFFF"></path>
        </g>
    </g>
</svg>