<?xml version="1.0" encoding="UTF-8"?>
<svg width="9px" height="14px" viewBox="0 0 9 14" version="1.1" xmlns="http://www.w3.org/2000/svg" xmlns:xlink="http://www.w3.org/1999/xlink">
    <!-- Generator: Sketch 56.3 (81716) - https://sketch.com -->
    <title>Combined Shape</title>
    <desc>Created with Sketch.</desc>
    <g id="Symbols" stroke="none" stroke-width="1" fill="none" fill-rule="evenodd">
        <g id="sort" transform="translate(-33.000000, -2.000000)" fill="#8169EA" fill-rule="nonzero">
            <path d="M38.3548749,12.8292117 L36.2700727,14.967948 C36.0837236,15.1591179 35.7800618,15.1701686 35.5803102,14.9930496 L33.1682821,12.8543133 C32.961666,12.6711075 32.9426881,12.3550943 33.1258939,12.1484781 C33.2207885,12.0414577 33.3569729,11.9802016 33.5000056,11.9802016 L34.8969992,11.9802016 L34.8969992,7.64160105 C34.8969992,7.18202769 35.2695571,6.80946987 35.7291304,6.80946987 C36.1887038,6.80946987 36.5612616,7.18202769 36.5612616,7.64160105 L36.5612616,11.9802016 L37.9968358,11.9802016 C38.2729782,11.9802016 38.4968358,12.2040592 38.4968358,12.4802016 C38.4968358,12.6105988 38.4458948,12.7358371 38.3548749,12.8292117 Z M41.3548749,4.28972806 C41.4458948,4.38310267 41.4968358,4.50834092 41.4968358,4.63873816 C41.4968358,4.91488053 41.2729782,5.13873816 40.9968358,5.13873816 L39.5612616,5.13873816 L39.5612616,9.47733868 C39.5612616,9.93691205 39.1887038,10.3094699 38.7291304,10.3094699 C38.2695571,10.3094699 37.8969992,9.93691205 37.8969992,9.47733868 L37.8969992,5.13873816 L36.5000056,5.13873816 C36.3569729,5.13873816 36.2207885,5.07748199 36.1258939,4.97046161 C35.9426881,4.76384543 35.961666,4.44783227 36.1682821,4.26462647 L38.5803102,2.12589014 C38.7800618,1.94877109 39.0837236,1.95982184 39.2700727,2.15099173 L41.3548749,4.28972806 Z" id="Combined-Shape"></path>
        </g>
    </g>
</svg>