<?xml version="1.0" encoding="UTF-8"?>
<svg width="12px" height="15px" viewBox="0 0 12 15" version="1.1" xmlns="http://www.w3.org/2000/svg" xmlns:xlink="http://www.w3.org/1999/xlink">
    <!-- Generator: Sketch 55.2 (78181) - https://sketchapp.com -->
    <title>ttf</title>
    <desc>Created with Sketch.</desc>
    <g id="sprint-view" stroke="none" stroke-width="1" fill="none" fill-rule="evenodd">
        <g id="ttf" fill-rule="nonzero">
            <path d="M11.7202111,0.748051948 C11.7193588,0.473011356 11.4966721,0.25020293 11.2215098,0.249350649 L3.49163963,0.249350649 L3.49163963,2.74285714 C3.49163963,3.018263 3.26834416,3.24155844 2.99293833,3.24155844 L0.250081184,3.24155844 L0.250081184,14.212987 C0.250933434,14.4880276 0.473741891,14.710836 0.748782483,14.7116883 L11.2215098,14.7116883 C11.4966721,14.710836 11.7193588,14.4880276 11.7202111,14.212987 L11.7202111,10.4727273 L11.7202111,0.748051948 Z" id="Path" fill="#9BC9FF"></path>
            <path d="M11.9695617,4.73766234 L11.9695617,0.748051948 C11.9695617,0.33494319 11.6346185,0 11.2215098,0 L3.49163963,0 C3.48640423,0 3.48165584,0.00243506494 3.47642045,0.00304382961 C3.45657469,0.00426137143 3.43685065,0.00791395325 3.41785714,0.0140016312 C3.4093344,0.0159496831 3.40105521,0.0185064935 3.39289774,0.0216720623 C3.36684252,0.0322646026 3.34285714,0.0473620052 3.32179384,0.0661120208 L0.0802353974,3.05831981 C0.0580762909,3.07974838 0.0399350649,3.10507306 0.0269074597,3.13307629 C0.0234983688,3.14074675 0.0203328,3.14853896 0.017654213,3.15657469 C0.00949676883,3.17897729 0.00462663896,3.20247566 0.00328734545,3.22633929 C0.00328734545,3.23157469 -8.8817842e-16,3.23632304 -8.8817842e-16,3.24155844 L-8.8817842e-16,14.212987 C-8.8817842e-16,14.6260958 0.33494319,14.961039 0.748051948,14.961039 L11.2215098,14.961039 C11.6346185,14.961039 11.9695617,14.6260958 11.9695617,14.212987 L11.9695617,10.7220779 L11.9695617,4.73766234 Z M3.24228898,0.818912353 L3.24228898,2.74285714 C3.24228898,2.88056007 3.13064123,2.99220779 2.99293833,2.99220779 L0.887946421,2.99220779 L3.24228898,0.818912353 Z M11.4708604,14.212987 C11.4708604,14.3506899 11.3592127,14.4623377 11.2215098,14.4623377 L0.748782483,14.4623377 C0.611079553,14.4623377 0.499431834,14.3506899 0.499431834,14.212987 L0.499431834,3.49090909 L2.99293833,3.49090909 C3.40604709,3.49090909 3.74099028,3.1559659 3.74099028,2.74285714 L3.74099028,0.498701299 L11.2215098,0.498701299 C11.3592127,0.498701299 11.4708604,0.610349018 11.4708604,0.748051948 L11.4708604,4.73766234 L11.4708604,10.7220779 L11.4708604,14.212987 Z" id="Shape" fill="#1E81CE"></path>
            <path d="M2.84220779,6.91363636 L2.24415584,6.91363636 C2.0236102,6.91363636 1.84480519,6.73483136 1.84480519,6.51428571 C1.84480519,6.29374007 2.0236102,6.11493506 2.24415584,6.11493506 L4.23896104,6.11493506 C4.45950666,6.11493506 4.63831169,6.29374008 4.63831169,6.51428571 C4.63831169,6.73483135 4.45950666,6.91363636 4.23896104,6.91363636 L3.64090909,6.91363636 L3.64090909,9.50649351 C3.64090909,9.72703914 3.46210406,9.90584416 3.24155844,9.90584416 C3.0210128,9.90584416 2.84220779,9.72703915 2.84220779,9.50649351 L2.84220779,6.91363636 Z M5.83441558,9.50649351 L5.83441558,6.91363636 L5.23636364,6.91363636 C5.01581799,6.91363636 4.83701299,6.73483136 4.83701299,6.51428571 C4.83701299,6.29374007 5.01581799,6.11493506 5.23636364,6.11493506 L7.23116883,6.11493506 C7.45171445,6.11493506 7.63051948,6.29374008 7.63051948,6.51428571 C7.63051948,6.73483135 7.45171445,6.91363636 7.23116883,6.91363636 L6.63311688,6.91363636 L6.63311688,9.50649351 C6.63311688,9.72703914 6.45431185,9.90584416 6.23376623,9.90584416 C6.01322059,9.90584416 5.83441558,9.72703915 5.83441558,9.50649351 Z M9.22597403,8.40974026 L8.62792208,8.40974026 L8.62792208,9.50649351 C8.62792208,9.72703914 8.44911705,9.90584416 8.22857143,9.90584416 C8.00802579,9.90584416 7.82922078,9.72703915 7.82922078,9.50649351 L7.82922078,6.51428571 C7.82922078,6.29374007 8.00802579,6.11493506 8.22857143,6.11493506 L9.72467532,6.11493506 C9.94522094,6.11493506 10.124026,6.29374008 10.124026,6.51428571 C10.124026,6.73483135 9.94522094,6.91363636 9.72467532,6.91363636 L8.62792208,6.91363636 L8.62792208,7.61103896 L9.22597403,7.61103896 C9.44651965,7.61103896 9.62532468,7.78984398 9.62532468,8.01038961 C9.62532468,8.23093524 9.44651965,8.40974026 9.22597403,8.40974026 Z" id="Combined-Shape" fill="#0962A7"></path>
        </g>
    </g>
</svg>