<?xml version="1.0" encoding="UTF-8"?>
<svg width="12px" height="16px" viewBox="0 0 12 16" version="1.1" xmlns="http://www.w3.org/2000/svg" xmlns:xlink="http://www.w3.org/1999/xlink">
    <!-- Generator: Sketch 55.2 (78181) - https://sketchapp.com -->
    <title>svg</title>
    <desc>Created with Sketch.</desc>
    <g id="sprint-view" stroke="none" stroke-width="1" fill="none" fill-rule="evenodd">
        <g id="svg" fill-rule="nonzero">
            <path d="M8.45045455,0 L0.535363636,0 C0.315,0 0.136363636,0.178636364 0.136363636,0.525272727 L0.136363636,15 C0.136363636,15.0940909 0.315,15.2727273 0.535363636,15.2727273 L11.4646364,15.2727273 C11.685,15.2727273 11.8636364,15.0940909 11.8636364,15 L11.8636364,3.53945455 C11.8636364,3.34963636 11.8382727,3.28854545 11.7935455,3.24354545 L8.62009091,0.0700909091 C8.57509091,0.0253636364 8.514,0 8.45045455,0 Z" id="Path" fill="#E57E25"></path>
            <polygon id="Path" fill="#FFDCBE" points="8.59090909 0.0411818182 8.59090909 3.27272727 11.8224545 3.27272727"></polygon>
            <path d="M3.22222222,9.22863372 C3.22222222,9.38579108 3.1937468,9.53863092 3.13641627,9.68628975 C3.07908575,9.83394858 2.99897488,9.96390562 2.89494466,10.0757291 C2.79091444,10.1875526 2.66334453,10.2773568 2.51071625,10.3442782 C2.35808797,10.4111996 2.18571673,10.4444444 1.99170416,10.4444444 C1.90855592,10.4444444 1.82312964,10.4392634 1.73466598,10.4297649 C1.64620233,10.4202664 1.557359,10.4029964 1.46737665,10.3796818 C1.37739431,10.3563672 1.29158836,10.3235542 1.21033848,10.2821061 C1.1290886,10.240658 1.05922889,10.1905749 1,10.131425 L1.10896596,9.62368586 C1.15756402,9.65520368 1.21869127,9.685858 1.29310705,9.71521706 C1.36752283,9.74457613 1.44421664,9.77220819 1.52394783,9.7976815 C1.60367903,9.8231548 1.68303054,9.84387885 1.76276174,9.85985364 C1.84249293,9.87582842 1.91652904,9.88359994 1.98600907,9.88359994 C2.1971069,9.88359994 2.35884731,9.82747231 2.47123033,9.71521706 C2.58361334,9.60296181 2.63980485,9.43673769 2.63980485,9.2165447 C2.63980485,9.0827019 2.60031892,8.96871964 2.52058773,8.87416618 C2.44085654,8.77961272 2.34138239,8.69412603 2.22216527,8.61727436 C2.10294816,8.54042268 1.97385956,8.46400276 1.83527915,8.38715109 C1.69669875,8.31029942 1.56723048,8.21963172 1.446115,8.11557973 C1.32499953,8.01152775 1.22476603,7.88847873 1.14503483,7.74686441 C1.06530364,7.60525009 1.02581772,7.4282322 1.02581772,7.21581072 C1.02581772,7.02324979 1.05695085,6.85184466 1.11921712,6.70245882 C1.18148338,6.55307299 1.26539097,6.42570645 1.37093988,6.32165447 C1.47648879,6.21760249 1.59950263,6.13772856 1.73960172,6.08246443 C1.87970082,6.02720031 2.02777303,6 2.18343869,6 C2.3425214,6 2.50350248,6.01683829 2.66600224,6.05008311 C2.828502,6.08332794 2.95986863,6.13772856 3.0604818,6.21242148 C3.03959983,6.26336809 3.01568047,6.31949571 2.98796439,6.38080435 C2.96024831,6.44211299 2.93405091,6.49867237 2.91013156,6.55177773 C2.8862122,6.6048831 2.86533022,6.64935345 2.84786529,6.68475703 C2.83040036,6.72016061 2.82014921,6.74002116 2.81673216,6.74390691 C2.79585018,6.73224964 2.77269017,6.7167066 2.74649278,6.69684606 C2.72029539,6.67698551 2.68346717,6.65755672 2.63486911,6.63769618 C2.58627105,6.61783563 2.52248609,6.60445135 2.4427549,6.59624808 C2.36302371,6.58804482 2.26089185,6.59020357 2.13635932,6.6022926 C2.06687928,6.61049587 2.00157564,6.63251517 1.9389297,6.6700775 C1.87628377,6.70763983 1.82123128,6.75340544 1.77263322,6.80866956 C1.72403516,6.86393368 1.68606792,6.92567407 1.65835184,6.99475423 C1.63063576,7.06383438 1.61696756,7.12989228 1.61696756,7.19249617 C1.61696756,7.34965352 1.65645348,7.4765883 1.73618467,7.57330052 C1.81591586,7.67001274 1.91463067,7.75420418 2.03194943,7.82717009 C2.14926818,7.900136 2.27759743,7.97094316 2.41617784,8.03959156 C2.55475824,8.10823997 2.68346717,8.19243141 2.80306396,8.29043887 C2.92266074,8.38844634 3.02175523,8.51192712 3.10148642,8.6591542 C3.18121761,8.80638128 3.22222222,8.9963517 3.22222222,9.22863372 Z M4.85072492,10.4444444 L3.22222222,6 L4.19641116,6 L5.41245693,9.81447482 L6.69975944,6 L7.66666667,6 L5.96014563,10.4444444 L4.85072492,10.4444444 Z M11,8.17522528 L11,9.85504247 C10.9069025,9.96930108 10.8031653,10.0620015 10.6879018,10.1348683 C10.5726382,10.2077351 10.4516115,10.267667 10.3243782,10.3146639 C10.197145,10.3616608 10.0659219,10.3952917 9.93026555,10.4151253 C9.79460921,10.4349588 9.66072616,10.4444444 9.52728643,10.4444444 C9.26040697,10.4444444 9.01525025,10.3974475 8.79092964,10.3030225 C8.56660903,10.2085974 8.37066099,10.0693313 8.20308552,9.88436166 C8.03551004,9.69939206 7.9038436,9.46785668 7.80897282,9.1888932 C7.71410205,8.90992972 7.66666667,8.58741862 7.66666667,8.22222222 C7.66666667,7.85702583 7.71410205,7.53537705 7.80897282,7.2585694 C7.9038436,6.98176174 8.03551004,6.75065753 8.20308552,6.56611909 C8.37066099,6.38158065 8.56749568,6.241021 8.79403289,6.14444013 C9.02057011,6.04785927 9.26484018,6 9.52728643,6 C9.76978322,6 9.99632043,6.03923598 10.2060114,6.11770793 C10.4157024,6.19617988 10.6036707,6.31431898 10.7694729,6.47126288 L10.2663031,6.90760143 C10.1692158,6.79334282 10.0579421,6.71099039 9.93292548,6.66011297 C9.80790885,6.60923555 9.67845901,6.58336567 9.54501928,6.58336567 C9.39561998,6.58336567 9.25331383,6.61052904 9.11765749,6.6657181 C8.98200115,6.72090717 8.86097442,6.81403872 8.75413397,6.94554391 C8.64729352,7.07704911 8.56306246,7.24692795 8.50277076,7.45561161 C8.44247905,7.66429526 8.40967327,7.91911353 8.40568338,8.22179106 C8.40967327,8.51670763 8.44114909,8.77195706 8.49966751,8.98797051 C8.55818593,9.20398396 8.63887042,9.38076144 8.74216429,9.51830294 C8.84545817,9.65584444 8.96249501,9.75803044 9.09371814,9.82486095 C9.22494126,9.89169146 9.36325753,9.92489113 9.50911025,9.92489113 C9.55388571,9.92489113 9.61284745,9.92187298 9.68776876,9.91583667 C9.76269007,9.90980037 9.83716806,9.90031475 9.91208937,9.88651748 C9.98701068,9.87272022 10.0583854,9.85418014 10.1271002,9.83046609 C10.195815,9.80675204 10.2463537,9.77355236 10.2787161,9.73043591 L10.2787161,8.65769844 L9.52107993,8.65769844 L9.52107993,8.17436295 L11,8.17436295 L11,8.17522528 Z" id="Combined-Shape" fill="#FFFFFF"></path>
        </g>
    </g>
</svg>