<?xml version="1.0" encoding="UTF-8"?>
<svg width="14px" height="14px" viewBox="0 0 14 14" version="1.1" xmlns="http://www.w3.org/2000/svg" xmlns:xlink="http://www.w3.org/1999/xlink">
    <!-- Generator: Sketch 55.2 (78181) - https://sketchapp.com -->
    <title>Microsoft_Word_2013_logo</title>
    <desc>Created with Sketch.</desc>
    <g id="Talent/Widget/Shotdetail" stroke="none" stroke-width="1" fill="none" fill-rule="evenodd">
        <g id="01.3-brand" transform="translate(-994.000000, -809.000000)" fill-rule="nonzero">
            <g id="attach-files" transform="translate(976.000000, 801.000000)">
                <g id="Microsoft_Word_2013_logo" transform="translate(18.000000, 8.000000)">
                    <path d="M7.25295313,0 L8.19574595,0 C8.19574595,0.42094596 8.19574595,0.840315344 8.19574595,1.2612613 C9.88268295,1.27072076 11.5680434,1.24391896 13.2534038,1.27072076 C13.6128633,1.2344595 13.8950705,1.51351357 13.8619624,1.87297304 C13.8887642,4.978829 13.8556561,8.08626154 13.8777281,11.1921175 C13.8619624,11.510586 13.9092597,11.8637391 13.7248002,12.1459464 C13.49462,12.3099103 13.196647,12.2894148 12.928629,12.3020274 C11.3504758,12.2941446 9.77389916,12.2972977 8.19574595,12.2972977 C8.19574595,12.7182437 8.19574595,13.1376131 8.19574595,13.558559 L7.21038556,13.558559 C4.81083593,13.1202707 2.40497999,12.7182437 0.000700630655,12.2972977 C-0.000875945976,8.61914444 0.000700630655,4.94099116 0.000700630655,1.26441446 C2.4175926,0.841891921 4.83606116,0.43040542 7.25295313,0 Z" id="path6" fill="#2A5699"></path>
                    <path d="M8.19574595,1.73423429 C9.92998025,1.73423429 11.6642145,1.73423429 13.3984488,1.73423429 C13.3984488,5.09707225 13.3984488,8.46148677 13.3984488,11.8243247 C11.6642145,11.8243247 9.92998025,11.8243247 8.19574595,11.8243247 C8.19574595,11.4033788 8.19574595,10.9840094 8.19574595,10.5630634 C9.56263789,10.5630634 10.9279533,10.5630634 12.2948452,10.5630634 C12.2948452,10.3533787 12.2948452,10.1421175 12.2948452,9.93243277 C10.9279533,9.93243277 9.56263789,9.93243277 8.19574595,9.93243277 C8.19574595,9.66914447 8.19574595,9.40743275 8.19574595,9.14414446 C9.56263789,9.14414446 10.9279533,9.14414446 12.2948452,9.14414446 C12.2948452,8.93445976 12.2948452,8.7231985 12.2948452,8.5135138 C10.9279533,8.5135138 9.56263789,8.5135138 8.19574595,8.5135138 C8.19574595,8.25022551 8.19574595,7.98851379 8.19574595,7.72522549 C9.56263789,7.72522549 10.9279533,7.72522549 12.2948452,7.72522549 C12.2948452,7.5155408 12.2948452,7.30427953 12.2948452,7.09459484 C10.9279533,7.09459484 9.56263789,7.09459484 8.19574595,7.09459484 C8.19574595,6.83130654 8.19574595,6.56959482 8.19574595,6.30630652 C9.56263789,6.30630652 10.9279533,6.30630652 12.2948452,6.30630652 C12.2948452,6.09662183 12.2948452,5.88536056 12.2948452,5.67567587 C10.9279533,5.67567587 9.56263789,5.67567587 8.19574595,5.67567587 C8.19574595,5.41238757 8.19574595,5.15067585 8.19574595,4.88738755 C9.56263789,4.88738755 10.9279533,4.88738755 12.2948452,4.88738755 C12.2948452,4.67770286 12.2948452,4.46644159 12.2948452,4.2567569 C10.9279533,4.2567569 9.56263789,4.2567569 8.19574595,4.2567569 C8.19574595,3.9934686 8.19574595,3.73175688 8.19574595,3.46846859 C9.56263789,3.46846859 10.9279533,3.46846859 12.2948452,3.46846859 C12.2948452,3.25878389 12.2948452,3.04752263 12.2948452,2.83783793 C10.9279533,2.83783793 9.56263789,2.83783793 8.19574595,2.83783793 C8.19574595,2.47049558 8.19574595,2.10157665 8.19574595,1.73423429 Z" id="path46" fill="#FFFFFF"></path>
                    <path d="M3.25790795,4.5200452 C3.55745751,4.50270286 3.85700707,4.49009024 4.15655663,4.47432448 C4.36624132,5.5385137 4.58065574,6.60112635 4.80768278,7.66058585 C4.98583594,6.56644167 5.18290801,5.47545064 5.37367379,4.38288303 C5.68898911,4.371847 6.00430444,4.35450465 6.31804319,4.33558573 C5.96173687,5.86328849 5.6495747,7.40360386 5.26016027,8.92184715 C4.99687197,9.05900932 4.60272781,8.91554084 4.29056564,8.93761292 C4.08088095,7.89391919 3.83651157,6.85653177 3.64889895,5.80810831 C3.46443949,6.82657681 3.22479984,7.83558573 3.01353857,8.84774805 C2.71083586,8.83198228 2.40655657,8.81306336 2.10227728,8.79256787 C1.84056556,7.40518043 1.53313312,6.02725246 1.28876374,4.63671187 C1.55835834,4.62409926 1.82952952,4.61306322 2.09912413,4.60360376 C2.26151152,5.60788307 2.44597098,6.60743266 2.58786288,7.61328855 C2.81016019,6.58220743 3.03718722,5.55112632 3.25790795,4.5200452 L3.25790795,4.5200452 Z" id="path88" fill="#FFFFFF"></path>
                </g>
            </g>
        </g>
    </g>
</svg>