<?xml version="1.0" encoding="UTF-8"?>
<svg width="12px" height="16px" viewBox="0 0 12 16" version="1.1" xmlns="http://www.w3.org/2000/svg" xmlns:xlink="http://www.w3.org/1999/xlink">
    <!-- Generator: Sketch 55.2 (78181) - https://sketchapp.com -->
    <title>zip</title>
    <desc>Created with Sketch.</desc>
    <g id="sprint-view" stroke="none" stroke-width="1" fill="none" fill-rule="evenodd">
        <g id="zip" fill-rule="nonzero">
            <path d="M1,0 C0.45,0 0,0.45 0,1 L0,15 C0,15.55 0.45,16 1,16 L11,16 C11.55,16 12,15.55 12,15 L12,4 L8,0 L1,0 Z" id="Path" fill="#FFE79D"></path>
            <path d="M9,4 L12,4 L8,0 L8,3 C8,3.55 8.45,4 9,4 Z" id="Path" fill="#FFC62F"></path>
            <polygon id="Path" fill="#D78230" points="12 7 9 4 12 4"></polygon>
            <g id="Group" transform="translate(1.968750, 8.111607)" fill="#0E002A">
                <path d="M0.357609725,3.65334799 C0.029101716,3.65334799 -0.101258605,3.33592061 0.0864602572,3.11170086 L1.94213943,0.646587192 L0.403887639,0.646587192 C-0.0491144765,0.646587192 -0.0126135867,0.00651801604 0.403887639,0.00651801604 L2.50464421,0.00651801604 C2.90028778,0.00651801604 3.01500487,0.380652137 2.73407837,0.683739883 L0.956615399,2.99176936 L2.65064777,2.99176936 C3.0678008,2.99176936 3.11994492,3.65399979 2.60958427,3.65399979 L0.357609725,3.65399979 L0.357609725,3.65334799 Z M3.59250109,0.359794486 C3.59250109,-0.0677873669 4.28080358,-0.0834306054 4.28080358,0.359794486 L4.28080358,3.33526881 C4.28080358,3.76741327 3.59250109,3.7784939 3.59250109,3.33526881 L3.59250109,0.359794486 Z M5.20440646,0.359794486 C5.20440646,0.187718862 5.33998119,1.42108547e-13 5.55898653,1.42108547e-13 L6.76286409,1.42108547e-13 C7.44073776,1.42108547e-13 8.05082406,0.453653917 8.05082406,1.32315726 C8.05082406,2.14703449 7.44073776,2.60590281 6.76286409,2.60590281 L5.89270895,2.60590281 L5.89270895,3.29420531 C5.89270895,3.52363947 5.74670539,3.65334799 5.55898653,3.65334799 C5.3869109,3.65334799 5.20440646,3.52363947 5.20440646,3.29420531 L5.20440646,0.359794486 Z M5.89205715,0.656364216 L5.89205715,1.95475301 L6.76221229,1.95475301 C7.11157795,1.95475301 7.38794183,1.64645085 7.38794183,1.32315726 C7.38794183,0.95880016 7.11157795,0.656364216 6.76221229,0.656364216 L5.89205715,0.656364216 Z" id="Combined-Shape"></path>
            </g>
        </g>
    </g>
</svg>