<?xml version="1.0" encoding="UTF-8"?>
<svg width="24px" height="24px" viewBox="0 0 24 24" version="1.1" xmlns="http://www.w3.org/2000/svg" xmlns:xlink="http://www.w3.org/1999/xlink">
    <!-- Generator: Sketch 55.2 (78181) - https://sketchapp.com -->
    <title>zoom-hover-icon</title>
    <desc>Created with Sketch.</desc>
    <g id="landing-pages-for-approval" stroke="none" stroke-width="1" fill="none" fill-rule="evenodd">
        <g id="zoom-hover-icon" fill-rule="nonzero">
            <path d="M19.0732496,17.6590361 L23.7071068,22.2928932 C24.0976311,22.6834175 24.0976311,23.3165825 23.7071068,23.7071068 C23.3165825,24.0976311 22.6834175,24.0976311 22.2928932,23.7071068 L17.6590361,19.0732496 C15.7923056,20.6234603 13.3938929,21.5555556 10.7777778,21.5555556 C4.82537547,21.5555556 -4.54747351e-13,16.7301801 -4.54747351e-13,10.7777778 C-4.54747351e-13,4.82537547 4.82537547,0 10.7777778,0 C16.7301801,0 21.5555556,4.82537547 21.5555556,10.7777778 C21.5555556,13.3938929 20.6234603,15.7923056 19.0732496,17.6590361 Z" id="Combined-Shape" fill="#8169EA"></path>
            <path d="M11.7777778,9.77777778 L14.4444444,9.77777778 C14.9967292,9.77777778 15.4444444,10.225493 15.4444444,10.7777778 C15.4444444,11.3300625 14.9967292,11.7777778 14.4444444,11.7777778 L11.7777778,11.7777778 L11.7777778,14.4444444 C11.7777778,14.9967292 11.3300625,15.4444444 10.7777778,15.4444444 C10.225493,15.4444444 9.77777778,14.9967292 9.77777778,14.4444444 L9.77777778,11.7777778 L7.11111111,11.7777778 C6.55882636,11.7777778 6.11111111,11.3300625 6.11111111,10.7777778 C6.11111111,10.225493 6.55882636,9.77777778 7.11111111,9.77777778 L9.77777778,9.77777778 L9.77777778,7.11111111 C9.77777778,6.55882636 10.225493,6.11111111 10.7777778,6.11111111 C11.3300625,6.11111111 11.7777778,6.55882636 11.7777778,7.11111111 L11.7777778,9.77777778 Z" id="Combined-Shape" fill="#FFFFFF"></path>
        </g>
    </g>
</svg>