<?xml version="1.0" encoding="UTF-8"?>
<svg width="48px" height="48px" viewBox="0 0 48 48" version="1.1" xmlns="http://www.w3.org/2000/svg" xmlns:xlink="http://www.w3.org/1999/xlink">
    <!-- Generator: Sketch 52.6 (67491) - http://www.bohemiancoding.com/sketch -->
    <title>products-icon-photodetail</title>
    <desc>Created with Sketch.</desc>
    <g id="Page-1" stroke="none" stroke-width="1" fill="none" fill-rule="evenodd">
        <g id="products-icon-photodetail">
            <circle id="Oval-2" fill="#252525" cx="24" cy="24" r="24"></circle>
            <path d="M12.7650002,15.607794 L22.4625397,10.682611 C23.3081887,10.253123 24.3071303,10.2488282 25.1564411,10.671029 L35.098872,15.6135091 C35.5934209,15.8593542 35.7950352,16.4595622 35.54919,16.9541111 C35.4528187,17.1479744 35.2961357,17.3053267 35.1026849,17.4025235 L25.2921716,22.3316887 C24.4447376,22.757471 23.4458765,22.757471 22.5984425,22.3316887 L12.7688706,17.3929478 C12.2753741,17.1449968 12.07632,16.543935 12.324271,16.0504385 C12.4201475,15.8596154 12.5745947,15.7044971 12.7650002,15.607794 Z" id="Path-6" fill="#6BEBB6"></path>
            <path d="M11.4007854,20.6127827 L20.3986479,24.5489563 C21.4906637,25.0266657 22.1962917,26.1055389 22.1962917,27.2974722 L22.1962917,37.5615252 C22.1962917,38.11381 21.7485764,38.5615252 21.1962917,38.5615252 C21.0502537,38.5615252 20.9059879,38.5295391 20.7736351,38.4678151 L11.7320302,34.25118 C10.6754341,33.7584268 10,32.6981581 10,31.5323103 L10,21.5289547 C10,20.9766699 10.4477152,20.5289547 11,20.5289547 C11.137947,20.5289547 11.2744022,20.5574955 11.4007854,20.6127827 Z" id="Path-8" fill="#E6D3F7"></path>
            <path d="M26.7016636,25.0753748 L35.8411477,20.6878271 C36.3390325,20.44881 36.9364096,20.6586637 37.1754267,21.1565485 C37.2402642,21.2916083 37.2739265,21.4395106 37.2739265,21.5893273 L37.2739265,31.8867954 C37.2739265,33.0573052 36.593142,34.1209246 35.5302054,34.6110868 L26.4187596,38.8127359 C25.9172314,39.0440105 25.3231774,38.8249266 25.0919029,38.3233984 C25.0313548,38.1920974 25,38.0492279 25,37.9046388 L25,27.7798753 C25,26.6261672 25.6615956,25.5746752 26.7016636,25.0753748 Z" id="Path-11" fill="#948BEC"></path>
        </g>
    </g>
</svg>