<?xml version="1.0" encoding="UTF-8"?>
<svg width="48px" height="48px" viewBox="0 0 48 48" version="1.1" xmlns="http://www.w3.org/2000/svg" xmlns:xlink="http://www.w3.org/1999/xlink">
    <!-- Generator: Sketch 52.6 (67491) - http://www.bohemiancoding.com/sketch -->
    <title>notes-viewdetail-icon</title>
    <desc>Created with Sketch.</desc>
    <g id="Page-1" stroke="none" stroke-width="1" fill="none" fill-rule="evenodd">
        <g id="notes-viewdetail-icon">
            <circle id="Oval-2" fill="#252525" cx="24" cy="24" r="24"></circle>
            <path d="M15,11.988647 L33.1132523,11.988647 C34.2178218,11.988647 35.1132523,12.8840775 35.1132523,13.988647 L35.1132523,35.955171 C35.1132523,37.0597405 34.2178218,37.955171 33.1132523,37.955171 L15,37.955171 C13.8954305,37.955171 13,37.0597405 13,35.955171 L13,13.988647 C13,12.8840775 13.8954305,11.988647 15,11.988647 Z" id="Combined-Shape" fill="#6BEBB6"></path>
            <path d="M27.1401727,18.4030971 L28.4684026,18.4030971 C28.8328318,18.4030971 29.1443234,18.6615839 29.2062284,19.0153513 L30.0531372,23.854662 C30.0576092,23.8801024 30.0614724,23.90951 30.0648205,23.9425157 C30.1839478,25.1210791 29.2343479,26.1401727 28.0320474,26.1401727 L24.1386832,26.1401727 L20.3533718,26.1401727 C19.1679992,26.1401727 18.2309254,25.1369707 18.3453935,23.974691 C18.3483201,23.9451681 18.3516682,23.9190819 18.3555783,23.8968244 L19.0711146,19.0153513 C19.133043,18.6615839 19.4445112,18.4030971 19.8089404,18.4030971 L20.7370756,18.4030971 C20.9409734,17.1204228 21.8291222,14.9347528 23.9386241,14.9347528 C26.0481261,14.9347528 26.9364806,17.1204228 27.1401727,18.4030971 Z M26.3165401,18.4030971 C26.2570499,18.1150102 26.1303934,17.6237255 25.8883891,17.1399984 C25.4273632,16.2182359 24.7713265,15.7508257 23.9386241,15.7508257 C23.1059218,15.7508257 22.4498851,16.2182359 21.9888592,17.1399984 C21.7468549,17.6237486 21.620404,18.1150102 21.5609138,18.4030971 L24.1386832,18.4030971 L26.3165401,18.4030971 Z M15.8497916,30.5848757 L32.2410129,30.5848757 C32.4981897,30.5848757 32.7066726,30.7933586 32.7066726,31.0505354 C32.7066726,31.3077121 32.4981897,31.5161951 32.2410129,31.5161951 L15.8497916,31.5161951 C15.5926148,31.5161951 15.3841319,31.3077121 15.3841319,31.0505354 C15.3841319,30.7933586 15.5926148,30.5848757 15.8497916,30.5848757 Z M15.8497916,28.45051 L32.2410129,28.45051 C32.4981897,28.45051 32.7066726,28.6589929 32.7066726,28.9161697 C32.7066726,29.1733464 32.4981897,29.3818294 32.2410129,29.3818294 L15.8497916,29.3818294 C15.5926148,29.3818294 15.3841319,29.1733464 15.3841319,28.9161697 C15.3841319,28.6589929 15.5926148,28.45051 15.8497916,28.45051 Z M15.8497916,32.8452424 L17.8986942,32.8452424 C18.155871,32.8452424 18.364354,33.0537254 18.364354,33.3109021 C18.364354,33.5680789 18.155871,33.7765618 17.8986942,33.7765618 L15.8497916,33.7765618 C15.5926148,33.7765618 15.3841319,33.5680789 15.3841319,33.3109021 C15.3841319,33.0537254 15.5926148,32.8452424 15.8497916,32.8452424 Z M19.9475969,32.8452424 L21.9964996,32.8452424 C22.2536763,32.8452424 22.4621593,33.0537254 22.4621593,33.3109021 C22.4621593,33.5680789 22.2536763,33.7765618 21.9964996,33.7765618 L19.9475969,33.7765618 C19.6904202,33.7765618 19.4819372,33.5680789 19.4819372,33.3109021 C19.4819372,33.0537254 19.6904202,32.8452424 19.9475969,32.8452424 Z M23.1927505,20.2110416 L25.498516,20.2110416 C25.6124685,20.2110416 25.7049542,20.1055928 25.7049542,19.9751312 C25.7049542,19.8446697 25.6124685,19.7392208 25.498516,19.7392208 L23.1927505,19.7392208 C23.0787979,19.7392208 22.9863123,19.8446697 22.9863123,19.9751312 C22.9863123,20.1055928 23.0787979,20.2110416 23.1927505,20.2110416 Z" id="Combined-Shape" fill="#FFFFFF" fill-rule="nonzero"></path>
        </g>
    </g>
</svg>