<?xml version="1.0" encoding="UTF-8"?>
<svg width="48px" height="48px" viewBox="0 0 48 48" version="1.1" xmlns="http://www.w3.org/2000/svg" xmlns:xlink="http://www.w3.org/1999/xlink">
    <!-- Generator: Sketch 52.6 (67491) - http://www.bohemiancoding.com/sketch -->
    <title>props-viewdetail-icon</title>
    <desc>Created with Sketch.</desc>
    <g id="Page-1" stroke="none" stroke-width="1" fill="none" fill-rule="evenodd">
        <g id="props-viewdetail-icon">
            <circle id="Oval-2" fill="#252525" cx="24" cy="24" r="24"></circle>
            <path d="M39,25.7272727 C39,29.4929199 35.9474654,32.5454545 32.1818182,32.5454545 C28.416171,32.5454545 25.3636364,29.4929199 25.3636364,25.7272727 C25.3636364,21.9616255 28.416171,18.9090909 32.1818182,18.9090909 C35.9474654,18.9090909 39,21.9616255 39,25.7272727 Z" id="Shape" fill="#E6D3F7"></path>
            <path d="M31.5,16.8636364 C31.5,21.7588778 27.5316051,25.7272727 22.6363636,25.7272727 C17.7411222,25.7272727 13.7727273,21.7588778 13.7727273,16.8636364 C13.7727273,11.9683949 17.7411222,8 22.6363636,8 C27.5316051,8 31.5,11.9683949 31.5,16.8636364 Z" id="Shape" fill="#6BEBB6"></path>
            <path d="M13.0909091,26.8352273 L25.3636364,26.8352273 C26.1166993,26.8352273 26.7272727,27.4458007 26.7272727,28.1988636 L26.7272727,34.3352273 L11.7272727,34.3352273 L11.7272727,28.1988636 C11.7272727,27.4458007 12.3378462,26.8352273 13.0909091,26.8352273 Z" id="Shape" fill="#9185EA"></path>
            <path d="M9.68181818,34.3352273 L28.7727273,34.3352273 C29.1492587,34.3352273 29.4545455,34.640514 29.4545455,35.0170455 L29.4545455,36.3806818 C29.4545455,36.7572133 29.1492587,37.0625 28.7727273,37.0625 L9.68181818,37.0625 C9.30528673,37.0625 9,36.7572133 9,36.3806818 L9,35.0170455 C9,34.640514 9.30528673,34.3352273 9.68181818,34.3352273 Z" id="Shape" fill="#7D72E3"></path>
            <polygon id="Shape" fill="#FFFFFF" points="34.7093395 25.3707875 33.745206 24.5027177 32.2553933 25.8440894 30.6816851 23.9544789 29.5910422 24.6912591 31.5 26.9828315 31.5 39.960227 32.8636364 39.960227 32.8636364 27.0325897"></polygon>
            <polygon id="Shape" fill="#FFFFFF" points="21.9545455 37.0625 23.3181818 37.0625 23.3181818 39.9602272 21.9545455 39.9602272"></polygon>
            <polygon id="Shape" fill="#FFFFFF" points="25.8457031 15.9820668 24.8815696 15.0179332 22.6819735 17.2175293 19.7509543 13.699241 18.7035911 14.5734863 21.9545455 18.4739657 21.9545455 26.8352273 23.3181818 26.8352273 23.3181818 18.5095881"></polygon>
            <polygon id="Shape" fill="#FFFFFF" points="26.0454545 37.0625 27.4090909 37.0625 27.4090909 39.9602272 26.0454545 39.9602272"></polygon>
            <polygon id="Shape" fill="#FFFFFF" points="11.0454546 37.0625 12.4090909 37.0625 12.4090909 39.9602272 11.0454546 39.9602272"></polygon>
        </g>
    </g>
</svg>