<?xml version="1.0" encoding="UTF-8"?>
<svg width="48px" height="48px" viewBox="0 0 48 48" version="1.1" xmlns="http://www.w3.org/2000/svg" xmlns:xlink="http://www.w3.org/1999/xlink">
    <!-- Generator: Sketch 52.6 (67491) - http://www.bohemiancoding.com/sketch -->
    <title>link-viewdetail-icon</title>
    <desc>Created with Sketch.</desc>
    <g id="Page-1" stroke="none" stroke-width="1" fill="none" fill-rule="evenodd">
        <g id="link-viewdetail-icon">
            <circle id="Oval-2" fill="#252525" cx="24" cy="24" r="24"></circle>
            <path d="M28.3042948,19.6994861 C28.8454781,20.2406693 29.2784143,20.8900996 29.6031554,21.5395299 C30.7937689,24.0289522 30.4149044,27.1678048 28.3042948,29.2242908 L22.5136494,35.0690598 C19.8618566,37.7208526 15.5865139,37.7208526 12.9888446,35.0690598 C10.3370518,32.4172669 10.3370518,28.1419243 12.9888446,25.544255 L17.1018167,21.4312829 C16.614757,23.0548327 16.6688805,24.7866295 17.2641872,26.3560558 L15.5323904,28.0878526 C14.3417769,29.2784661 14.3417769,31.2808287 15.5323904,32.5255657 C16.7771275,33.7703028 18.7253665,33.7703028 19.9701036,32.5255657 L25.760749,26.7349203 C26.3560558,26.1396135 26.680745,25.3278645 26.680745,24.5160637 C26.680745,23.7042629 26.3560558,22.8925139 25.760749,22.2972072 C25.1654422,21.7019004 24.3536932,21.3772112 23.5418924,21.3772112 L26.464251,18.4548526 C27.1136813,18.7253665 27.708988,19.1583028 28.3042948,19.6994861 Z" id="Shape" fill="#948BEC"></path>
            <path d="M19.6453626,28.3584183 C19.1041793,27.8172351 18.671243,27.1678048 18.346502,26.5183745 C17.1558885,24.0289522 17.534753,20.8900996 19.6453626,18.8335618 L25.436008,12.9888446 C28.0878008,10.3370518 32.3631434,10.3370518 34.9608127,12.9888446 C37.6126056,15.6406374 37.6126056,19.9159801 34.9608127,22.5136494 L30.8478406,26.6266215 C31.3349004,25.0030717 31.2807769,23.2712749 30.6854701,21.7018486 L32.4172669,19.9700518 C33.6078805,18.7794383 33.6078805,16.7770757 32.4172669,15.5323386 C31.1725299,14.2876016 29.2242908,14.2876016 27.9795538,15.5323386 L22.2430319,21.3771594 C21.6477251,21.9724661 21.3230359,22.7842151 21.3230359,23.5960159 C21.3230359,24.4078167 21.6477251,25.2195657 22.2430319,25.8148725 C22.8383386,26.4101793 23.6500876,26.7348685 24.4618884,26.7348685 L21.5395299,29.6572271 C20.8359761,29.3325378 20.2406693,28.8996016 19.6453626,28.3584183 Z" id="Shape" fill="#6BEBB6"></path>
        </g>
    </g>
</svg>